G04 #@! TF.GenerationSoftware,KiCad,Pcbnew,(5.1.10)-1*
G04 #@! TF.CreationDate,2021-09-01T22:57:21-05:00*
G04 #@! TF.ProjectId,Bsides-KC-2021-SAO-BP,42736964-6573-42d4-9b43-2d323032312d,rev?*
G04 #@! TF.SameCoordinates,Original*
G04 #@! TF.FileFunction,Copper,L2,Bot*
G04 #@! TF.FilePolarity,Positive*
%FSLAX46Y46*%
G04 Gerber Fmt 4.6, Leading zero omitted, Abs format (unit mm)*
G04 Created by KiCad (PCBNEW (5.1.10)-1) date 2021-09-01 22:57:21*
%MOMM*%
%LPD*%
G01*
G04 APERTURE LIST*
G04 #@! TA.AperFunction,SMDPad,CuDef*
%ADD10R,2.500000X2.000000*%
G04 #@! TD*
G04 #@! TA.AperFunction,ComponentPad*
%ADD11C,1.727200*%
G04 #@! TD*
G04 #@! TA.AperFunction,ComponentPad*
%ADD12O,1.727200X1.727200*%
G04 #@! TD*
G04 #@! TA.AperFunction,ComponentPad*
%ADD13R,1.727200X1.727200*%
G04 #@! TD*
G04 #@! TA.AperFunction,ViaPad*
%ADD14C,0.600000*%
G04 #@! TD*
G04 #@! TA.AperFunction,ViaPad*
%ADD15C,1.300000*%
G04 #@! TD*
G04 #@! TA.AperFunction,Conductor*
%ADD16C,0.250000*%
G04 #@! TD*
G04 APERTURE END LIST*
D10*
G04 #@! TO.P,D1,1*
G04 #@! TO.N,GND*
X100100000Y-78300000D03*
G04 #@! TO.P,D1,2*
G04 #@! TO.N,VCC*
X100100000Y-73700000D03*
G04 #@! TD*
D11*
G04 #@! TO.P,X1,5*
G04 #@! TO.N,Net-(X1-Pad5)*
X98896480Y-90913900D03*
G04 #@! TO.P,X1,6*
G04 #@! TO.N,Net-(X1-Pad6)*
X98896480Y-93453900D03*
D12*
G04 #@! TO.P,X1,3*
G04 #@! TO.N,Net-(X1-Pad3)*
X96356480Y-90913900D03*
G04 #@! TO.P,X1,4*
G04 #@! TO.N,Net-(X1-Pad4)*
X96356480Y-93453900D03*
G04 #@! TO.P,X1,1*
G04 #@! TO.N,VCC*
X93816480Y-90913900D03*
D13*
G04 #@! TO.P,X1,2*
G04 #@! TO.N,GND*
X93816480Y-93453900D03*
G04 #@! TD*
D14*
G04 #@! TO.N,*
X92700000Y-63500000D03*
X89650000Y-63000000D03*
X98600000Y-62400000D03*
X100800000Y-56050000D03*
X103550000Y-55100000D03*
X122150000Y-67500000D03*
X112200000Y-55900000D03*
X123891040Y-75044300D03*
X125516640Y-70030340D03*
X85450000Y-72034400D03*
X96050000Y-67550000D03*
X88300000Y-82900000D03*
X124043440Y-84066380D03*
X117889820Y-85325280D03*
X124050000Y-90200000D03*
X90350000Y-86500000D03*
X104750000Y-95200000D03*
X104000000Y-97400000D03*
X112653000Y-97562200D03*
X108400000Y-93450000D03*
X120703340Y-93695520D03*
X118350000Y-95000000D03*
X127850000Y-79400000D03*
D15*
X92875100Y-80695800D03*
X116650000Y-92100000D03*
X121851420Y-82941160D03*
X88115140Y-70551040D03*
X89350000Y-88750000D03*
X102850000Y-62350000D03*
X128691640Y-75879960D03*
X95200000Y-58900000D03*
X114477800Y-55956200D03*
X106296460Y-96817180D03*
X96500000Y-86250000D03*
X92151200Y-70147180D03*
X106350000Y-54650000D03*
D14*
X93300000Y-97650000D03*
X94050000Y-97650000D03*
X93300000Y-98350000D03*
X94050000Y-98350000D03*
X93300000Y-99050000D03*
X94050000Y-99050000D03*
G04 #@! TD*
D16*
G04 #@! TO.N,GND*
X91663520Y-80464378D02*
X93827898Y-78300000D01*
X91663520Y-91300940D02*
X91663520Y-80464378D01*
X93827898Y-78300000D02*
X100100000Y-78300000D01*
X93816480Y-93453900D02*
X91663520Y-91300940D01*
G04 #@! TO.N,VCC*
X101675001Y-83055379D02*
X101694621Y-83055379D01*
X93816480Y-90913900D02*
X101675001Y-83055379D01*
X101694621Y-83055379D02*
X104550000Y-80200000D01*
X104550000Y-80200000D02*
X104550000Y-74200000D01*
X104050000Y-73700000D02*
X100100000Y-73700000D01*
X104550000Y-74200000D02*
X104050000Y-73700000D01*
G04 #@! TD*
M02*
