M48
; DRILL file {KiCad (5.1.10)-1} date 09/01/21 22:57:19
; FORMAT={-:-/ absolute / inch / decimal}
; #@! TF.CreationDate,2021-09-01T22:57:19-05:00
; #@! TF.GenerationSoftware,Kicad,Pcbnew,(5.1.10)-1
; #@! TF.FileFunction,Plated,1,2,PTH
FMAT,2
INCH
T1C0.0157
T2C0.0394
T3C0.0400
%
G90
G05
T1
X3.3642Y-2.836
X3.4764Y-3.2638
X3.5295Y-2.4803
X3.5571Y-3.4055
X3.6496Y-2.5
X3.6732Y-3.8445
X3.6732Y-3.872
X3.6732Y-3.8996
X3.7028Y-3.8445
X3.7028Y-3.872
X3.7028Y-3.8996
X3.7815Y-2.6594
X3.8819Y-2.4567
X3.9685Y-2.2067
X4.0768Y-2.1693
X4.0945Y-3.8346
X4.124Y-3.748
X4.2677Y-3.6791
X4.4173Y-2.2008
X4.4352Y-3.841
X4.6413Y-3.3593
X4.6594Y-3.7402
X4.7521Y-3.6888
X4.8091Y-2.6575
X4.8776Y-2.9545
X4.8836Y-3.3097
X4.8839Y-3.5512
X4.9416Y-2.7571
X5.0335Y-3.126
T2
X3.4691Y-2.7776
X3.5177Y-3.4941
X3.628Y-2.7617
X3.6565Y-3.177
X3.748Y-2.3189
X3.7992Y-3.3957
X4.0492Y-2.4547
X4.1849Y-3.8117
X4.187Y-2.1516
X4.507Y-2.203
X4.5925Y-3.626
X4.7973Y-3.2654
X5.0666Y-2.9874
T3
X3.6936Y-3.5793
X3.6936Y-3.6793
X3.7936Y-3.5793
X3.7936Y-3.6793
X3.8936Y-3.5793
X3.8936Y-3.6793
T0
M30
