G04 #@! TF.GenerationSoftware,KiCad,Pcbnew,(5.1.10)-1*
G04 #@! TF.CreationDate,2021-08-30T20:12:07-05:00*
G04 #@! TF.ProjectId,Bsides-KC-2021-RF-Village-SAO-SVG2Shenzen v1_00 (Paths),42736964-6573-42d4-9b43-2d323032312d,rev?*
G04 #@! TF.SameCoordinates,Original*
G04 #@! TF.FileFunction,Profile,NP*
%FSLAX46Y46*%
G04 Gerber Fmt 4.6, Leading zero omitted, Abs format (unit mm)*
G04 Created by KiCad (PCBNEW (5.1.10)-1) date 2021-08-30 20:12:07*
%MOMM*%
%LPD*%
G01*
G04 APERTURE LIST*
G04 #@! TA.AperFunction,Profile*
%ADD10C,0.100000*%
G04 #@! TD*
G04 APERTURE END LIST*
D10*
X146545500Y-73729700D02*
X146036100Y-73746000D01*
X146036100Y-73746000D02*
X145528500Y-73783200D01*
X145528500Y-73783200D02*
X145023400Y-73841200D01*
X145023400Y-73841200D02*
X144521600Y-73919800D01*
X144521600Y-73919800D02*
X144023600Y-74019000D01*
X144023600Y-74019000D02*
X143530100Y-74138500D01*
X143530100Y-74138500D02*
X143041900Y-74278400D01*
X143041900Y-74278400D02*
X142559600Y-74438400D01*
X142559600Y-74438400D02*
X142013600Y-74647600D01*
X142013600Y-74647600D02*
X141478900Y-74882500D01*
X141478900Y-74882500D02*
X141217100Y-75008700D01*
X141217100Y-75008700D02*
X140959300Y-75140600D01*
X140959300Y-75140600D02*
X140705100Y-75278600D01*
X140705100Y-75278600D02*
X140454900Y-75422600D01*
X140454900Y-75422600D02*
X140208600Y-75571700D01*
X140208600Y-75571700D02*
X139966000Y-75726500D01*
X139966000Y-75726500D02*
X139727800Y-75887000D01*
X139727800Y-75887000D02*
X139494000Y-76053000D01*
X139494000Y-76053000D02*
X139264200Y-76223800D01*
X139264200Y-76223800D02*
X139038500Y-76400200D01*
X139038500Y-76400200D02*
X138817700Y-76581400D01*
X138817700Y-76581400D02*
X138601700Y-76767800D01*
X138601700Y-76767800D02*
X138390200Y-76958900D01*
X138390200Y-76958900D02*
X138183200Y-77155200D01*
X138183200Y-77155200D02*
X137981500Y-77355800D01*
X137981500Y-77355800D02*
X137784200Y-77561600D01*
X137784200Y-77561600D02*
X137592300Y-77771400D01*
X137592300Y-77771400D02*
X137405800Y-77985800D01*
X137405800Y-77985800D02*
X137224100Y-78204600D01*
X137224100Y-78204600D02*
X137048200Y-78427800D01*
X137048200Y-78427800D02*
X136877200Y-78655200D01*
X136877200Y-78655200D02*
X136712000Y-78886500D01*
X136712000Y-78886500D02*
X136552600Y-79121800D01*
X136552600Y-79121800D02*
X136399000Y-79361300D01*
X136399000Y-79361300D02*
X136250800Y-79604300D01*
X136250800Y-79604300D02*
X136108700Y-79851200D01*
X136108700Y-79851200D02*
X135972900Y-80101600D01*
X135972900Y-80101600D02*
X135842900Y-80355400D01*
X135842900Y-80355400D02*
X135581500Y-80920400D01*
X135581500Y-80920400D02*
X135351800Y-81496900D01*
X135351800Y-81496900D02*
X135154300Y-82083600D01*
X135154300Y-82083600D02*
X134989100Y-82679300D01*
X134989100Y-82679300D02*
X134856700Y-83282500D01*
X134856700Y-83282500D02*
X134757300Y-83892200D01*
X134757300Y-83892200D02*
X134691300Y-84507000D01*
X134691300Y-84507000D02*
X134659000Y-85125700D01*
X134659000Y-85125700D02*
X134656000Y-85605500D01*
X134656000Y-85605500D02*
X134673200Y-86084500D01*
X134673200Y-86084500D02*
X134710500Y-86561900D01*
X134710500Y-86561900D02*
X134767900Y-87037300D01*
X134767900Y-87037300D02*
X134845300Y-87510000D01*
X134845300Y-87510000D02*
X134942600Y-87979500D01*
X134942600Y-87979500D02*
X135059600Y-88445100D01*
X135059600Y-88445100D02*
X135196400Y-88906200D01*
X135196400Y-88906200D02*
X135335100Y-89313000D01*
X135335100Y-89313000D02*
X135489200Y-89714500D01*
X135489200Y-89714500D02*
X135658600Y-90110100D01*
X135658600Y-90110100D02*
X135842900Y-90499600D01*
X135842900Y-90499600D02*
X135972900Y-90753400D01*
X135972900Y-90753400D02*
X136108700Y-91003700D01*
X136108700Y-91003700D02*
X136250800Y-91250600D01*
X136250800Y-91250600D02*
X136399000Y-91493700D01*
X136399000Y-91493700D02*
X136552600Y-91733200D01*
X136552600Y-91733200D02*
X136636800Y-91857700D01*
X136636800Y-91857700D02*
X126675200Y-123728800D01*
X126675200Y-123728800D02*
X165361500Y-123725800D01*
X165361500Y-123725800D02*
X156849200Y-91882400D01*
X156849200Y-91882400D02*
X157004100Y-91493300D01*
X157004100Y-91493300D02*
X157151900Y-91250200D01*
X157151900Y-91250200D02*
X157294000Y-91003300D01*
X157294000Y-91003300D02*
X157430200Y-90753000D01*
X157430200Y-90753000D02*
X157560200Y-90499200D01*
X157560200Y-90499200D02*
X157829000Y-89916600D01*
X157829000Y-89916600D02*
X158064100Y-89322000D01*
X158064100Y-89322000D02*
X158265000Y-88716600D01*
X158265000Y-88716600D02*
X158431600Y-88102000D01*
X158431600Y-88102000D02*
X158563400Y-87479500D01*
X158563400Y-87479500D02*
X158660100Y-86850500D01*
X158660100Y-86850500D02*
X158721300Y-86216300D01*
X158721300Y-86216300D02*
X158746800Y-85578400D01*
X158746800Y-85578400D02*
X158740100Y-84991500D01*
X158740100Y-84991500D02*
X158703200Y-84406800D01*
X158703200Y-84406800D02*
X158636100Y-83825300D01*
X158636100Y-83825300D02*
X158539300Y-83248200D01*
X158539300Y-83248200D02*
X158412800Y-82676500D01*
X158412800Y-82676500D02*
X158256900Y-82111300D01*
X158256900Y-82111300D02*
X158071800Y-81553800D01*
X158071800Y-81553800D02*
X157857700Y-81004900D01*
X157857700Y-81004900D02*
X157560200Y-80355000D01*
X157560200Y-80355000D02*
X157430200Y-80101200D01*
X157430200Y-80101200D02*
X157294000Y-79850800D01*
X157294000Y-79850800D02*
X157151900Y-79603900D01*
X157151900Y-79603900D02*
X157004100Y-79360900D01*
X157004100Y-79360900D02*
X156850100Y-79121400D01*
X156850100Y-79121400D02*
X156690700Y-78886100D01*
X156690700Y-78886100D02*
X156525500Y-78654800D01*
X156525500Y-78654800D02*
X156354900Y-78427300D01*
X156354900Y-78427300D02*
X156178600Y-78204200D01*
X156178600Y-78204200D02*
X155997000Y-77985400D01*
X155997000Y-77985400D02*
X155810400Y-77771000D01*
X155810400Y-77771000D02*
X155618500Y-77561200D01*
X155618500Y-77561200D02*
X155421700Y-77355400D01*
X155421700Y-77355400D02*
X155219500Y-77154800D01*
X155219500Y-77154800D02*
X155012900Y-76958500D01*
X155012900Y-76958500D02*
X154801400Y-76767400D01*
X154801400Y-76767400D02*
X154585100Y-76581000D01*
X154585100Y-76581000D02*
X154364200Y-76399800D01*
X154364200Y-76399800D02*
X154138900Y-76223400D01*
X154138900Y-76223400D02*
X153909200Y-76052600D01*
X153909200Y-76052600D02*
X153675000Y-75886600D01*
X153675000Y-75886600D02*
X153436700Y-75726100D01*
X153436700Y-75726100D02*
X153194500Y-75571300D01*
X153194500Y-75571300D02*
X152947900Y-75422200D01*
X152947900Y-75422200D02*
X152697600Y-75278200D01*
X152697600Y-75278200D02*
X152443400Y-75140200D01*
X152443400Y-75140200D02*
X152185600Y-75008300D01*
X152185600Y-75008300D02*
X151924200Y-74882100D01*
X151924200Y-74882100D02*
X151342400Y-74628200D01*
X151342400Y-74628200D02*
X150748800Y-74405100D01*
X150748800Y-74405100D02*
X150144600Y-74213300D01*
X150144600Y-74213300D02*
X149531300Y-74052900D01*
X149531300Y-74052900D02*
X148910100Y-73924300D01*
X148910100Y-73924300D02*
X148282300Y-73827800D01*
X148282300Y-73827800D02*
X147649200Y-73763700D01*
X147649200Y-73763700D02*
X147012200Y-73732300D01*
X147012200Y-73732300D02*
X146545500Y-73729300D01*
X146545500Y-73729300D02*
X146545500Y-73729700D01*
X146545500Y-73729700D02*
X146545500Y-73729700D01*
M02*
