G04 #@! TF.GenerationSoftware,KiCad,Pcbnew,(5.1.10)-1*
G04 #@! TF.CreationDate,2021-08-30T20:12:07-05:00*
G04 #@! TF.ProjectId,Bsides-KC-2021-RF-Village-SAO-SVG2Shenzen v1_00 (Paths),42736964-6573-42d4-9b43-2d323032312d,rev?*
G04 #@! TF.SameCoordinates,Original*
G04 #@! TF.FileFunction,Copper,L2,Bot*
G04 #@! TF.FilePolarity,Positive*
%FSLAX46Y46*%
G04 Gerber Fmt 4.6, Leading zero omitted, Abs format (unit mm)*
G04 Created by KiCad (PCBNEW (5.1.10)-1) date 2021-08-30 20:12:07*
%MOMM*%
%LPD*%
G01*
G04 APERTURE LIST*
G04 #@! TA.AperFunction,EtchedComponent*
%ADD10C,0.010000*%
G04 #@! TD*
G04 #@! TA.AperFunction,ComponentPad*
%ADD11C,1.727200*%
G04 #@! TD*
G04 #@! TA.AperFunction,ComponentPad*
%ADD12O,1.727200X1.727200*%
G04 #@! TD*
G04 #@! TA.AperFunction,ComponentPad*
%ADD13R,1.727200X1.727200*%
G04 #@! TD*
G04 #@! TA.AperFunction,ComponentPad*
%ADD14R,2.000000X2.000000*%
G04 #@! TD*
G04 #@! TA.AperFunction,ComponentPad*
%ADD15C,2.000000*%
G04 #@! TD*
G04 #@! TA.AperFunction,Conductor*
%ADD16C,0.250000*%
G04 #@! TD*
G04 APERTURE END LIST*
D10*
G04 #@! TO.C,G\u002A\u002A\u002A*
G36*
X140809019Y-80787015D02*
G01*
X140854888Y-80799981D01*
X140912002Y-80817992D01*
X140966047Y-80836453D01*
X141002712Y-80850771D01*
X141009710Y-80854623D01*
X141008002Y-80877347D01*
X140994563Y-80931931D01*
X140971959Y-81010573D01*
X140942759Y-81105475D01*
X140909529Y-81208835D01*
X140874840Y-81312854D01*
X140841258Y-81409731D01*
X140811351Y-81491666D01*
X140787687Y-81550860D01*
X140772835Y-81579511D01*
X140770575Y-81580996D01*
X140737901Y-81573336D01*
X140682603Y-81556032D01*
X140657792Y-81547482D01*
X140603861Y-81524809D01*
X140571747Y-81504388D01*
X140567834Y-81497811D01*
X140573775Y-81473655D01*
X140589939Y-81417543D01*
X140613838Y-81337522D01*
X140642983Y-81241636D01*
X140674887Y-81137931D01*
X140707060Y-81034453D01*
X140737014Y-80939247D01*
X140762260Y-80860359D01*
X140780312Y-80805834D01*
X140788679Y-80783718D01*
X140788706Y-80783687D01*
X140809019Y-80787015D01*
G37*
X140809019Y-80787015D02*
X140854888Y-80799981D01*
X140912002Y-80817992D01*
X140966047Y-80836453D01*
X141002712Y-80850771D01*
X141009710Y-80854623D01*
X141008002Y-80877347D01*
X140994563Y-80931931D01*
X140971959Y-81010573D01*
X140942759Y-81105475D01*
X140909529Y-81208835D01*
X140874840Y-81312854D01*
X140841258Y-81409731D01*
X140811351Y-81491666D01*
X140787687Y-81550860D01*
X140772835Y-81579511D01*
X140770575Y-81580996D01*
X140737901Y-81573336D01*
X140682603Y-81556032D01*
X140657792Y-81547482D01*
X140603861Y-81524809D01*
X140571747Y-81504388D01*
X140567834Y-81497811D01*
X140573775Y-81473655D01*
X140589939Y-81417543D01*
X140613838Y-81337522D01*
X140642983Y-81241636D01*
X140674887Y-81137931D01*
X140707060Y-81034453D01*
X140737014Y-80939247D01*
X140762260Y-80860359D01*
X140780312Y-80805834D01*
X140788679Y-80783718D01*
X140788706Y-80783687D01*
X140809019Y-80787015D01*
G36*
X140388091Y-82117093D02*
G01*
X140441540Y-82130309D01*
X140506048Y-82147635D01*
X140567614Y-82165228D01*
X140612237Y-82179241D01*
X140626036Y-82184975D01*
X140624087Y-82206540D01*
X140611577Y-82255411D01*
X140592381Y-82319551D01*
X140570377Y-82386923D01*
X140549442Y-82445490D01*
X140533453Y-82483215D01*
X140527513Y-82490854D01*
X140502276Y-82484000D01*
X140448497Y-82467996D01*
X140380852Y-82447241D01*
X140305620Y-82420944D01*
X140266446Y-82398911D01*
X140257743Y-82377803D01*
X140258780Y-82374352D01*
X140271124Y-82337442D01*
X140290111Y-82275759D01*
X140304389Y-82227465D01*
X140326111Y-82164754D01*
X140347345Y-82122761D01*
X140359703Y-82111834D01*
X140388091Y-82117093D01*
G37*
X140388091Y-82117093D02*
X140441540Y-82130309D01*
X140506048Y-82147635D01*
X140567614Y-82165228D01*
X140612237Y-82179241D01*
X140626036Y-82184975D01*
X140624087Y-82206540D01*
X140611577Y-82255411D01*
X140592381Y-82319551D01*
X140570377Y-82386923D01*
X140549442Y-82445490D01*
X140533453Y-82483215D01*
X140527513Y-82490854D01*
X140502276Y-82484000D01*
X140448497Y-82467996D01*
X140380852Y-82447241D01*
X140305620Y-82420944D01*
X140266446Y-82398911D01*
X140257743Y-82377803D01*
X140258780Y-82374352D01*
X140271124Y-82337442D01*
X140290111Y-82275759D01*
X140304389Y-82227465D01*
X140326111Y-82164754D01*
X140347345Y-82122761D01*
X140359703Y-82111834D01*
X140388091Y-82117093D01*
G36*
X140165763Y-83034741D02*
G01*
X140223425Y-83051521D01*
X140274456Y-83070275D01*
X140303521Y-83086470D01*
X140304956Y-83088260D01*
X140302797Y-83113734D01*
X140289482Y-83172087D01*
X140266945Y-83255938D01*
X140237117Y-83357906D01*
X140218401Y-83418732D01*
X140183775Y-83529556D01*
X140153102Y-83628076D01*
X140128866Y-83706285D01*
X140113551Y-83756179D01*
X140109981Y-83768125D01*
X140088472Y-83796609D01*
X140043725Y-83800616D01*
X139970127Y-83780483D01*
X139960811Y-83777098D01*
X139911031Y-83756310D01*
X139880976Y-83739374D01*
X139879986Y-83738453D01*
X139882410Y-83715929D01*
X139895376Y-83661129D01*
X139916496Y-83582089D01*
X139943384Y-83486842D01*
X139973651Y-83383424D01*
X140004911Y-83279871D01*
X140034778Y-83184216D01*
X140060863Y-83104495D01*
X140080780Y-83048743D01*
X140091868Y-83025244D01*
X140116800Y-83024471D01*
X140165763Y-83034741D01*
G37*
X140165763Y-83034741D02*
X140223425Y-83051521D01*
X140274456Y-83070275D01*
X140303521Y-83086470D01*
X140304956Y-83088260D01*
X140302797Y-83113734D01*
X140289482Y-83172087D01*
X140266945Y-83255938D01*
X140237117Y-83357906D01*
X140218401Y-83418732D01*
X140183775Y-83529556D01*
X140153102Y-83628076D01*
X140128866Y-83706285D01*
X140113551Y-83756179D01*
X140109981Y-83768125D01*
X140088472Y-83796609D01*
X140043725Y-83800616D01*
X139970127Y-83780483D01*
X139960811Y-83777098D01*
X139911031Y-83756310D01*
X139880976Y-83739374D01*
X139879986Y-83738453D01*
X139882410Y-83715929D01*
X139895376Y-83661129D01*
X139916496Y-83582089D01*
X139943384Y-83486842D01*
X139973651Y-83383424D01*
X140004911Y-83279871D01*
X140034778Y-83184216D01*
X140060863Y-83104495D01*
X140080780Y-83048743D01*
X140091868Y-83025244D01*
X140116800Y-83024471D01*
X140165763Y-83034741D01*
G36*
X139670224Y-84339908D02*
G01*
X139721121Y-84353418D01*
X139790557Y-84375111D01*
X139795319Y-84376690D01*
X139873720Y-84405854D01*
X139915306Y-84429753D01*
X139924811Y-84451221D01*
X139924034Y-84453734D01*
X139911902Y-84490084D01*
X139893066Y-84551351D01*
X139878778Y-84599702D01*
X139857614Y-84664340D01*
X139834305Y-84700262D01*
X139799243Y-84710876D01*
X139742817Y-84699592D01*
X139668250Y-84674395D01*
X139603941Y-84647668D01*
X139573479Y-84623113D01*
X139568836Y-84596661D01*
X139578028Y-84557080D01*
X139594715Y-84497645D01*
X139614560Y-84432463D01*
X139633221Y-84375639D01*
X139646358Y-84341281D01*
X139648585Y-84337449D01*
X139670224Y-84339908D01*
G37*
X139670224Y-84339908D02*
X139721121Y-84353418D01*
X139790557Y-84375111D01*
X139795319Y-84376690D01*
X139873720Y-84405854D01*
X139915306Y-84429753D01*
X139924811Y-84451221D01*
X139924034Y-84453734D01*
X139911902Y-84490084D01*
X139893066Y-84551351D01*
X139878778Y-84599702D01*
X139857614Y-84664340D01*
X139834305Y-84700262D01*
X139799243Y-84710876D01*
X139742817Y-84699592D01*
X139668250Y-84674395D01*
X139603941Y-84647668D01*
X139573479Y-84623113D01*
X139568836Y-84596661D01*
X139578028Y-84557080D01*
X139594715Y-84497645D01*
X139614560Y-84432463D01*
X139633221Y-84375639D01*
X139646358Y-84341281D01*
X139648585Y-84337449D01*
X139670224Y-84339908D01*
G36*
X139536435Y-84790566D02*
G01*
X139590521Y-84803647D01*
X139656076Y-84823961D01*
X139726113Y-84848566D01*
X139764030Y-84867488D01*
X139777895Y-84888341D01*
X139775779Y-84918738D01*
X139772574Y-84933871D01*
X139746169Y-85039258D01*
X139718110Y-85107295D01*
X139682346Y-85142738D01*
X139632824Y-85150342D01*
X139563490Y-85134861D01*
X139530667Y-85123906D01*
X139473179Y-85102999D01*
X139435078Y-85087703D01*
X139427524Y-85083779D01*
X139428066Y-85061051D01*
X139438486Y-85010947D01*
X139455207Y-84946229D01*
X139474653Y-84879660D01*
X139493249Y-84824002D01*
X139507418Y-84792018D01*
X139510108Y-84789041D01*
X139536435Y-84790566D01*
G37*
X139536435Y-84790566D02*
X139590521Y-84803647D01*
X139656076Y-84823961D01*
X139726113Y-84848566D01*
X139764030Y-84867488D01*
X139777895Y-84888341D01*
X139775779Y-84918738D01*
X139772574Y-84933871D01*
X139746169Y-85039258D01*
X139718110Y-85107295D01*
X139682346Y-85142738D01*
X139632824Y-85150342D01*
X139563490Y-85134861D01*
X139530667Y-85123906D01*
X139473179Y-85102999D01*
X139435078Y-85087703D01*
X139427524Y-85083779D01*
X139428066Y-85061051D01*
X139438486Y-85010947D01*
X139455207Y-84946229D01*
X139474653Y-84879660D01*
X139493249Y-84824002D01*
X139507418Y-84792018D01*
X139510108Y-84789041D01*
X139536435Y-84790566D01*
G36*
X139509500Y-85270129D02*
G01*
X139579198Y-85291942D01*
X139630405Y-85308778D01*
X139652182Y-85317039D01*
X139652228Y-85317079D01*
X139649148Y-85338208D01*
X139635338Y-85386525D01*
X139615000Y-85449603D01*
X139592334Y-85515016D01*
X139571540Y-85570339D01*
X139556819Y-85603146D01*
X139554351Y-85606611D01*
X139529079Y-85607066D01*
X139475714Y-85595742D01*
X139408959Y-85576077D01*
X139341741Y-85552218D01*
X139294117Y-85531856D01*
X139276667Y-85519714D01*
X139283043Y-85494587D01*
X139299791Y-85440914D01*
X139323340Y-85370120D01*
X139324292Y-85367332D01*
X139371917Y-85227917D01*
X139509500Y-85270129D01*
G37*
X139509500Y-85270129D02*
X139579198Y-85291942D01*
X139630405Y-85308778D01*
X139652182Y-85317039D01*
X139652228Y-85317079D01*
X139649148Y-85338208D01*
X139635338Y-85386525D01*
X139615000Y-85449603D01*
X139592334Y-85515016D01*
X139571540Y-85570339D01*
X139556819Y-85603146D01*
X139554351Y-85606611D01*
X139529079Y-85607066D01*
X139475714Y-85595742D01*
X139408959Y-85576077D01*
X139341741Y-85552218D01*
X139294117Y-85531856D01*
X139276667Y-85519714D01*
X139283043Y-85494587D01*
X139299791Y-85440914D01*
X139323340Y-85370120D01*
X139324292Y-85367332D01*
X139371917Y-85227917D01*
X139509500Y-85270129D01*
G36*
X139172265Y-86157385D02*
G01*
X139219090Y-86170411D01*
X139281485Y-86189082D01*
X139324522Y-86203194D01*
X139336290Y-86208128D01*
X139332515Y-86229190D01*
X139317927Y-86284117D01*
X139294387Y-86366388D01*
X139263758Y-86469476D01*
X139231292Y-86575887D01*
X139190202Y-86708448D01*
X139158366Y-86805362D01*
X139132248Y-86871336D01*
X139108311Y-86911080D01*
X139083019Y-86929300D01*
X139052837Y-86930706D01*
X139014228Y-86920004D01*
X138981611Y-86908307D01*
X138931430Y-86884861D01*
X138902454Y-86861329D01*
X138900805Y-86857999D01*
X138904091Y-86830405D01*
X138918415Y-86770092D01*
X138941762Y-86684611D01*
X138972115Y-86581511D01*
X138990829Y-86520790D01*
X139025422Y-86410071D01*
X139055986Y-86311900D01*
X139080065Y-86234189D01*
X139095204Y-86184851D01*
X139098725Y-86173045D01*
X139108209Y-86154202D01*
X139129125Y-86149061D01*
X139172265Y-86157385D01*
G37*
X139172265Y-86157385D02*
X139219090Y-86170411D01*
X139281485Y-86189082D01*
X139324522Y-86203194D01*
X139336290Y-86208128D01*
X139332515Y-86229190D01*
X139317927Y-86284117D01*
X139294387Y-86366388D01*
X139263758Y-86469476D01*
X139231292Y-86575887D01*
X139190202Y-86708448D01*
X139158366Y-86805362D01*
X139132248Y-86871336D01*
X139108311Y-86911080D01*
X139083019Y-86929300D01*
X139052837Y-86930706D01*
X139014228Y-86920004D01*
X138981611Y-86908307D01*
X138931430Y-86884861D01*
X138902454Y-86861329D01*
X138900805Y-86857999D01*
X138904091Y-86830405D01*
X138918415Y-86770092D01*
X138941762Y-86684611D01*
X138972115Y-86581511D01*
X138990829Y-86520790D01*
X139025422Y-86410071D01*
X139055986Y-86311900D01*
X139080065Y-86234189D01*
X139095204Y-86184851D01*
X139098725Y-86173045D01*
X139108209Y-86154202D01*
X139129125Y-86149061D01*
X139172265Y-86157385D01*
G36*
X138910608Y-87043410D02*
G01*
X138967766Y-87064261D01*
X139020285Y-87087976D01*
X139054488Y-87109204D01*
X139060438Y-87119064D01*
X139041032Y-87190917D01*
X139013833Y-87282092D01*
X138981410Y-87385002D01*
X138946331Y-87492060D01*
X138911165Y-87595680D01*
X138878483Y-87688274D01*
X138850853Y-87762255D01*
X138830845Y-87810037D01*
X138821584Y-87824388D01*
X138789329Y-87817286D01*
X138734697Y-87802000D01*
X138715750Y-87796261D01*
X138661712Y-87773405D01*
X138629034Y-87747872D01*
X138625439Y-87740272D01*
X138629878Y-87713190D01*
X138644693Y-87654173D01*
X138667394Y-87571547D01*
X138695496Y-87473641D01*
X138726510Y-87368781D01*
X138757950Y-87265294D01*
X138787328Y-87171509D01*
X138812157Y-87095751D01*
X138829949Y-87046349D01*
X138837082Y-87031697D01*
X138862488Y-87030772D01*
X138910608Y-87043410D01*
G37*
X138910608Y-87043410D02*
X138967766Y-87064261D01*
X139020285Y-87087976D01*
X139054488Y-87109204D01*
X139060438Y-87119064D01*
X139041032Y-87190917D01*
X139013833Y-87282092D01*
X138981410Y-87385002D01*
X138946331Y-87492060D01*
X138911165Y-87595680D01*
X138878483Y-87688274D01*
X138850853Y-87762255D01*
X138830845Y-87810037D01*
X138821584Y-87824388D01*
X138789329Y-87817286D01*
X138734697Y-87802000D01*
X138715750Y-87796261D01*
X138661712Y-87773405D01*
X138629034Y-87747872D01*
X138625439Y-87740272D01*
X138629878Y-87713190D01*
X138644693Y-87654173D01*
X138667394Y-87571547D01*
X138695496Y-87473641D01*
X138726510Y-87368781D01*
X138757950Y-87265294D01*
X138787328Y-87171509D01*
X138812157Y-87095751D01*
X138829949Y-87046349D01*
X138837082Y-87031697D01*
X138862488Y-87030772D01*
X138910608Y-87043410D01*
G36*
X138600281Y-87918272D02*
G01*
X138662411Y-87935419D01*
X138726477Y-87958191D01*
X138779573Y-87981834D01*
X138808795Y-88001599D01*
X138811000Y-88006506D01*
X138804478Y-88041946D01*
X138787856Y-88098524D01*
X138765554Y-88163977D01*
X138741989Y-88226043D01*
X138721580Y-88272458D01*
X138708745Y-88290959D01*
X138708515Y-88290954D01*
X138682413Y-88283536D01*
X138629486Y-88265983D01*
X138580067Y-88248756D01*
X138516285Y-88225096D01*
X138470609Y-88206246D01*
X138455757Y-88198313D01*
X138455946Y-88174524D01*
X138465827Y-88121516D01*
X138483266Y-88050716D01*
X138483457Y-88050010D01*
X138511542Y-87963614D01*
X138537890Y-87918768D01*
X138552990Y-87911500D01*
X138600281Y-87918272D01*
G37*
X138600281Y-87918272D02*
X138662411Y-87935419D01*
X138726477Y-87958191D01*
X138779573Y-87981834D01*
X138808795Y-88001599D01*
X138811000Y-88006506D01*
X138804478Y-88041946D01*
X138787856Y-88098524D01*
X138765554Y-88163977D01*
X138741989Y-88226043D01*
X138721580Y-88272458D01*
X138708745Y-88290959D01*
X138708515Y-88290954D01*
X138682413Y-88283536D01*
X138629486Y-88265983D01*
X138580067Y-88248756D01*
X138516285Y-88225096D01*
X138470609Y-88206246D01*
X138455757Y-88198313D01*
X138455946Y-88174524D01*
X138465827Y-88121516D01*
X138483266Y-88050716D01*
X138483457Y-88050010D01*
X138511542Y-87963614D01*
X138537890Y-87918768D01*
X138552990Y-87911500D01*
X138600281Y-87918272D01*
G36*
X138440384Y-88363187D02*
G01*
X138487542Y-88376909D01*
X138544996Y-88397740D01*
X138598685Y-88420341D01*
X138634549Y-88439373D01*
X138641667Y-88446994D01*
X138635250Y-88481525D01*
X138617774Y-88545057D01*
X138591899Y-88629766D01*
X138560284Y-88727829D01*
X138525589Y-88831420D01*
X138490475Y-88932716D01*
X138457602Y-89023894D01*
X138429629Y-89097128D01*
X138409216Y-89144595D01*
X138399653Y-89158842D01*
X138366782Y-89151068D01*
X138312412Y-89133502D01*
X138294007Y-89126919D01*
X138240311Y-89106008D01*
X138206365Y-89090469D01*
X138201992Y-89087547D01*
X138205739Y-89066512D01*
X138219695Y-89012960D01*
X138241508Y-88934800D01*
X138268828Y-88839943D01*
X138299305Y-88736300D01*
X138330589Y-88631780D01*
X138360329Y-88534294D01*
X138386176Y-88451752D01*
X138405779Y-88392064D01*
X138416788Y-88363141D01*
X138417582Y-88361912D01*
X138440384Y-88363187D01*
G37*
X138440384Y-88363187D02*
X138487542Y-88376909D01*
X138544996Y-88397740D01*
X138598685Y-88420341D01*
X138634549Y-88439373D01*
X138641667Y-88446994D01*
X138635250Y-88481525D01*
X138617774Y-88545057D01*
X138591899Y-88629766D01*
X138560284Y-88727829D01*
X138525589Y-88831420D01*
X138490475Y-88932716D01*
X138457602Y-89023894D01*
X138429629Y-89097128D01*
X138409216Y-89144595D01*
X138399653Y-89158842D01*
X138366782Y-89151068D01*
X138312412Y-89133502D01*
X138294007Y-89126919D01*
X138240311Y-89106008D01*
X138206365Y-89090469D01*
X138201992Y-89087547D01*
X138205739Y-89066512D01*
X138219695Y-89012960D01*
X138241508Y-88934800D01*
X138268828Y-88839943D01*
X138299305Y-88736300D01*
X138330589Y-88631780D01*
X138360329Y-88534294D01*
X138386176Y-88451752D01*
X138405779Y-88392064D01*
X138416788Y-88363141D01*
X138417582Y-88361912D01*
X138440384Y-88363187D01*
G36*
X138031562Y-89696208D02*
G01*
X138089386Y-89712896D01*
X138154208Y-89734409D01*
X138210584Y-89755592D01*
X138243071Y-89771293D01*
X138244384Y-89772339D01*
X138246746Y-89798274D01*
X138236419Y-89849933D01*
X138217548Y-89914926D01*
X138194275Y-89980864D01*
X138170743Y-90035357D01*
X138151098Y-90066016D01*
X138145226Y-90068829D01*
X138114643Y-90061377D01*
X138057679Y-90043721D01*
X137999967Y-90024263D01*
X137933956Y-89997161D01*
X137893901Y-89972232D01*
X137886120Y-89957142D01*
X137897138Y-89924955D01*
X137916146Y-89866499D01*
X137933726Y-89811209D01*
X137957692Y-89746804D01*
X137981142Y-89702685D01*
X137996178Y-89689500D01*
X138031562Y-89696208D01*
G37*
X138031562Y-89696208D02*
X138089386Y-89712896D01*
X138154208Y-89734409D01*
X138210584Y-89755592D01*
X138243071Y-89771293D01*
X138244384Y-89772339D01*
X138246746Y-89798274D01*
X138236419Y-89849933D01*
X138217548Y-89914926D01*
X138194275Y-89980864D01*
X138170743Y-90035357D01*
X138151098Y-90066016D01*
X138145226Y-90068829D01*
X138114643Y-90061377D01*
X138057679Y-90043721D01*
X137999967Y-90024263D01*
X137933956Y-89997161D01*
X137893901Y-89972232D01*
X137886120Y-89957142D01*
X137897138Y-89924955D01*
X137916146Y-89866499D01*
X137933726Y-89811209D01*
X137957692Y-89746804D01*
X137981142Y-89702685D01*
X137996178Y-89689500D01*
X138031562Y-89696208D01*
G36*
X137917399Y-90153566D02*
G01*
X137981348Y-90170978D01*
X138042993Y-90192622D01*
X138088597Y-90214348D01*
X138104166Y-90228594D01*
X138103951Y-90265079D01*
X138090848Y-90323079D01*
X138069488Y-90389469D01*
X138044507Y-90451125D01*
X138020537Y-90494924D01*
X138005422Y-90508262D01*
X137968957Y-90503795D01*
X137909421Y-90488039D01*
X137870383Y-90475170D01*
X137809623Y-90449732D01*
X137767958Y-90424958D01*
X137757526Y-90413161D01*
X137759399Y-90380393D01*
X137772407Y-90323175D01*
X137792057Y-90256398D01*
X137813853Y-90194954D01*
X137833302Y-90153736D01*
X137837539Y-90148038D01*
X137864884Y-90144536D01*
X137917399Y-90153566D01*
G37*
X137917399Y-90153566D02*
X137981348Y-90170978D01*
X138042993Y-90192622D01*
X138088597Y-90214348D01*
X138104166Y-90228594D01*
X138103951Y-90265079D01*
X138090848Y-90323079D01*
X138069488Y-90389469D01*
X138044507Y-90451125D01*
X138020537Y-90494924D01*
X138005422Y-90508262D01*
X137968957Y-90503795D01*
X137909421Y-90488039D01*
X137870383Y-90475170D01*
X137809623Y-90449732D01*
X137767958Y-90424958D01*
X137757526Y-90413161D01*
X137759399Y-90380393D01*
X137772407Y-90323175D01*
X137792057Y-90256398D01*
X137813853Y-90194954D01*
X137833302Y-90153736D01*
X137837539Y-90148038D01*
X137864884Y-90144536D01*
X137917399Y-90153566D01*
G36*
X137720840Y-90584274D02*
G01*
X137772591Y-90599433D01*
X137842591Y-90620728D01*
X137844527Y-90621326D01*
X137983179Y-90664151D01*
X137952358Y-90764201D01*
X137931292Y-90833910D01*
X137913852Y-90893874D01*
X137908890Y-90911875D01*
X137895106Y-90941817D01*
X137868847Y-90954459D01*
X137821898Y-90950227D01*
X137746043Y-90929548D01*
X137720917Y-90921640D01*
X137660175Y-90901832D01*
X137618746Y-90887567D01*
X137608292Y-90883358D01*
X137610465Y-90862767D01*
X137622289Y-90814243D01*
X137640140Y-90750041D01*
X137660396Y-90682415D01*
X137679433Y-90623622D01*
X137693629Y-90585914D01*
X137698417Y-90578500D01*
X137720840Y-90584274D01*
G37*
X137720840Y-90584274D02*
X137772591Y-90599433D01*
X137842591Y-90620728D01*
X137844527Y-90621326D01*
X137983179Y-90664151D01*
X137952358Y-90764201D01*
X137931292Y-90833910D01*
X137913852Y-90893874D01*
X137908890Y-90911875D01*
X137895106Y-90941817D01*
X137868847Y-90954459D01*
X137821898Y-90950227D01*
X137746043Y-90929548D01*
X137720917Y-90921640D01*
X137660175Y-90901832D01*
X137618746Y-90887567D01*
X137608292Y-90883358D01*
X137610465Y-90862767D01*
X137622289Y-90814243D01*
X137640140Y-90750041D01*
X137660396Y-90682415D01*
X137679433Y-90623622D01*
X137693629Y-90585914D01*
X137698417Y-90578500D01*
X137720840Y-90584274D01*
G36*
X137319458Y-91938701D02*
G01*
X137373406Y-91952573D01*
X137438731Y-91970687D01*
X137500889Y-91988948D01*
X137545336Y-92003259D01*
X137556869Y-92007913D01*
X137556701Y-92029409D01*
X137544189Y-92077951D01*
X137523593Y-92141647D01*
X137499172Y-92208601D01*
X137475184Y-92266919D01*
X137455889Y-92304707D01*
X137447763Y-92312620D01*
X137416253Y-92305093D01*
X137359287Y-92287299D01*
X137310067Y-92270423D01*
X137247052Y-92247390D01*
X137202805Y-92229967D01*
X137189127Y-92223349D01*
X137189367Y-92198802D01*
X137201919Y-92148250D01*
X137222383Y-92084173D01*
X137246357Y-92019054D01*
X137269442Y-91965376D01*
X137287236Y-91935620D01*
X137291431Y-91933167D01*
X137319458Y-91938701D01*
G37*
X137319458Y-91938701D02*
X137373406Y-91952573D01*
X137438731Y-91970687D01*
X137500889Y-91988948D01*
X137545336Y-92003259D01*
X137556869Y-92007913D01*
X137556701Y-92029409D01*
X137544189Y-92077951D01*
X137523593Y-92141647D01*
X137499172Y-92208601D01*
X137475184Y-92266919D01*
X137455889Y-92304707D01*
X137447763Y-92312620D01*
X137416253Y-92305093D01*
X137359287Y-92287299D01*
X137310067Y-92270423D01*
X137247052Y-92247390D01*
X137202805Y-92229967D01*
X137189127Y-92223349D01*
X137189367Y-92198802D01*
X137201919Y-92148250D01*
X137222383Y-92084173D01*
X137246357Y-92019054D01*
X137269442Y-91965376D01*
X137287236Y-91935620D01*
X137291431Y-91933167D01*
X137319458Y-91938701D01*
G36*
X137022740Y-92827932D02*
G01*
X137074081Y-92843055D01*
X137143710Y-92864277D01*
X137144543Y-92864534D01*
X137281713Y-92906901D01*
X137236731Y-93054820D01*
X137210381Y-93135721D01*
X137185549Y-93181342D01*
X137152022Y-93197080D01*
X137099589Y-93188331D01*
X137029205Y-93164485D01*
X136968901Y-93141159D01*
X136926368Y-93121447D01*
X136915905Y-93114561D01*
X136916245Y-93090918D01*
X136926757Y-93040576D01*
X136943775Y-92976174D01*
X136963632Y-92910347D01*
X136982661Y-92855734D01*
X136997194Y-92824974D01*
X137000746Y-92822167D01*
X137022740Y-92827932D01*
G37*
X137022740Y-92827932D02*
X137074081Y-92843055D01*
X137143710Y-92864277D01*
X137144543Y-92864534D01*
X137281713Y-92906901D01*
X137236731Y-93054820D01*
X137210381Y-93135721D01*
X137185549Y-93181342D01*
X137152022Y-93197080D01*
X137099589Y-93188331D01*
X137029205Y-93164485D01*
X136968901Y-93141159D01*
X136926368Y-93121447D01*
X136915905Y-93114561D01*
X136916245Y-93090918D01*
X136926757Y-93040576D01*
X136943775Y-92976174D01*
X136963632Y-92910347D01*
X136982661Y-92855734D01*
X136997194Y-92824974D01*
X137000746Y-92822167D01*
X137022740Y-92827932D01*
G36*
X136873261Y-93274642D02*
G01*
X136924045Y-93287770D01*
X136993874Y-93308267D01*
X136999762Y-93310080D01*
X137077693Y-93337897D01*
X137123289Y-93362524D01*
X137132855Y-93379178D01*
X137122168Y-93412036D01*
X137104259Y-93471186D01*
X137088198Y-93525959D01*
X137066978Y-93592500D01*
X137044395Y-93630224D01*
X137010691Y-93642956D01*
X136956110Y-93634518D01*
X136874250Y-93609807D01*
X136814055Y-93590444D01*
X136773642Y-93577196D01*
X136763894Y-93573793D01*
X136767341Y-93554523D01*
X136779815Y-93507050D01*
X136797748Y-93443585D01*
X136817572Y-93376343D01*
X136835721Y-93317536D01*
X136848624Y-93279377D01*
X136852159Y-93271652D01*
X136873261Y-93274642D01*
G37*
X136873261Y-93274642D02*
X136924045Y-93287770D01*
X136993874Y-93308267D01*
X136999762Y-93310080D01*
X137077693Y-93337897D01*
X137123289Y-93362524D01*
X137132855Y-93379178D01*
X137122168Y-93412036D01*
X137104259Y-93471186D01*
X137088198Y-93525959D01*
X137066978Y-93592500D01*
X137044395Y-93630224D01*
X137010691Y-93642956D01*
X136956110Y-93634518D01*
X136874250Y-93609807D01*
X136814055Y-93590444D01*
X136773642Y-93577196D01*
X136763894Y-93573793D01*
X136767341Y-93554523D01*
X136779815Y-93507050D01*
X136797748Y-93443585D01*
X136817572Y-93376343D01*
X136835721Y-93317536D01*
X136848624Y-93279377D01*
X136852159Y-93271652D01*
X136873261Y-93274642D01*
G36*
X136796519Y-93739647D02*
G01*
X136867713Y-93761736D01*
X136931579Y-93786420D01*
X136976366Y-93809223D01*
X136990667Y-93824065D01*
X136984911Y-93852402D01*
X136970240Y-93904710D01*
X136950550Y-93968811D01*
X136929736Y-94032527D01*
X136911694Y-94083679D01*
X136900321Y-94110089D01*
X136898765Y-94111354D01*
X136878503Y-94104579D01*
X136828741Y-94088777D01*
X136763125Y-94068263D01*
X136695663Y-94043663D01*
X136648109Y-94019375D01*
X136631145Y-94001451D01*
X136637858Y-93961129D01*
X136654412Y-93902086D01*
X136676413Y-93836663D01*
X136699463Y-93777205D01*
X136719166Y-93736055D01*
X136729748Y-93724632D01*
X136796519Y-93739647D01*
G37*
X136796519Y-93739647D02*
X136867713Y-93761736D01*
X136931579Y-93786420D01*
X136976366Y-93809223D01*
X136990667Y-93824065D01*
X136984911Y-93852402D01*
X136970240Y-93904710D01*
X136950550Y-93968811D01*
X136929736Y-94032527D01*
X136911694Y-94083679D01*
X136900321Y-94110089D01*
X136898765Y-94111354D01*
X136878503Y-94104579D01*
X136828741Y-94088777D01*
X136763125Y-94068263D01*
X136695663Y-94043663D01*
X136648109Y-94019375D01*
X136631145Y-94001451D01*
X136637858Y-93961129D01*
X136654412Y-93902086D01*
X136676413Y-93836663D01*
X136699463Y-93777205D01*
X136719166Y-93736055D01*
X136729748Y-93724632D01*
X136796519Y-93739647D01*
G36*
X136620180Y-94182157D02*
G01*
X136677066Y-94196005D01*
X136737829Y-94212288D01*
X136809807Y-94235046D01*
X136846473Y-94254826D01*
X136854296Y-94275449D01*
X136852892Y-94280216D01*
X136840399Y-94317360D01*
X136820989Y-94379810D01*
X136804424Y-94435232D01*
X136783851Y-94499629D01*
X136766648Y-94543572D01*
X136757834Y-94556615D01*
X136733706Y-94550092D01*
X136680951Y-94534170D01*
X136614959Y-94513544D01*
X136547605Y-94489920D01*
X136499960Y-94468848D01*
X136482667Y-94455342D01*
X136489700Y-94418692D01*
X136507591Y-94361621D01*
X136531531Y-94296523D01*
X136556707Y-94235794D01*
X136578310Y-94191827D01*
X136590763Y-94176834D01*
X136620180Y-94182157D01*
G37*
X136620180Y-94182157D02*
X136677066Y-94196005D01*
X136737829Y-94212288D01*
X136809807Y-94235046D01*
X136846473Y-94254826D01*
X136854296Y-94275449D01*
X136852892Y-94280216D01*
X136840399Y-94317360D01*
X136820989Y-94379810D01*
X136804424Y-94435232D01*
X136783851Y-94499629D01*
X136766648Y-94543572D01*
X136757834Y-94556615D01*
X136733706Y-94550092D01*
X136680951Y-94534170D01*
X136614959Y-94513544D01*
X136547605Y-94489920D01*
X136499960Y-94468848D01*
X136482667Y-94455342D01*
X136489700Y-94418692D01*
X136507591Y-94361621D01*
X136531531Y-94296523D01*
X136556707Y-94235794D01*
X136578310Y-94191827D01*
X136590763Y-94176834D01*
X136620180Y-94182157D01*
G36*
X136373378Y-95093765D02*
G01*
X136455549Y-95115418D01*
X136513877Y-95141098D01*
X136540859Y-95167065D01*
X136541005Y-95177253D01*
X136531851Y-95205496D01*
X136512603Y-95266824D01*
X136485562Y-95353845D01*
X136453027Y-95459166D01*
X136429146Y-95536792D01*
X136389923Y-95663722D01*
X136359565Y-95755086D01*
X136334213Y-95815696D01*
X136310012Y-95850362D01*
X136283104Y-95863897D01*
X136249631Y-95861110D01*
X136205737Y-95846814D01*
X136186334Y-95839663D01*
X136153846Y-95826061D01*
X136131776Y-95809169D01*
X136120526Y-95783361D01*
X136120499Y-95743012D01*
X136132098Y-95682496D01*
X136155725Y-95596187D01*
X136191783Y-95478460D01*
X136218194Y-95394695D01*
X136255853Y-95276422D01*
X136283759Y-95192824D01*
X136304857Y-95138190D01*
X136322092Y-95106811D01*
X136338408Y-95092977D01*
X136356750Y-95090978D01*
X136373378Y-95093765D01*
G37*
X136373378Y-95093765D02*
X136455549Y-95115418D01*
X136513877Y-95141098D01*
X136540859Y-95167065D01*
X136541005Y-95177253D01*
X136531851Y-95205496D01*
X136512603Y-95266824D01*
X136485562Y-95353845D01*
X136453027Y-95459166D01*
X136429146Y-95536792D01*
X136389923Y-95663722D01*
X136359565Y-95755086D01*
X136334213Y-95815696D01*
X136310012Y-95850362D01*
X136283104Y-95863897D01*
X136249631Y-95861110D01*
X136205737Y-95846814D01*
X136186334Y-95839663D01*
X136153846Y-95826061D01*
X136131776Y-95809169D01*
X136120526Y-95783361D01*
X136120499Y-95743012D01*
X136132098Y-95682496D01*
X136155725Y-95596187D01*
X136191783Y-95478460D01*
X136218194Y-95394695D01*
X136255853Y-95276422D01*
X136283759Y-95192824D01*
X136304857Y-95138190D01*
X136322092Y-95106811D01*
X136338408Y-95092977D01*
X136356750Y-95090978D01*
X136373378Y-95093765D01*
G36*
X135816229Y-96868485D02*
G01*
X135879719Y-96886523D01*
X135942929Y-96908149D01*
X135992862Y-96929234D01*
X136016521Y-96945653D01*
X136017000Y-96947500D01*
X136010681Y-96973971D01*
X135994170Y-97028314D01*
X135972724Y-97093724D01*
X135944405Y-97169563D01*
X135916467Y-97210052D01*
X135877866Y-97220605D01*
X135817559Y-97206635D01*
X135773584Y-97191341D01*
X135714663Y-97170085D01*
X135671059Y-97154311D01*
X135663489Y-97151559D01*
X135652882Y-97133904D01*
X135658222Y-97090247D01*
X135680302Y-97014514D01*
X135682138Y-97008935D01*
X135706708Y-96938435D01*
X135727861Y-96884458D01*
X135740406Y-96859677D01*
X135765459Y-96858160D01*
X135816229Y-96868485D01*
G37*
X135816229Y-96868485D02*
X135879719Y-96886523D01*
X135942929Y-96908149D01*
X135992862Y-96929234D01*
X136016521Y-96945653D01*
X136017000Y-96947500D01*
X136010681Y-96973971D01*
X135994170Y-97028314D01*
X135972724Y-97093724D01*
X135944405Y-97169563D01*
X135916467Y-97210052D01*
X135877866Y-97220605D01*
X135817559Y-97206635D01*
X135773584Y-97191341D01*
X135714663Y-97170085D01*
X135671059Y-97154311D01*
X135663489Y-97151559D01*
X135652882Y-97133904D01*
X135658222Y-97090247D01*
X135680302Y-97014514D01*
X135682138Y-97008935D01*
X135706708Y-96938435D01*
X135727861Y-96884458D01*
X135740406Y-96859677D01*
X135765459Y-96858160D01*
X135816229Y-96868485D01*
G36*
X135727589Y-97332104D02*
G01*
X135799964Y-97356920D01*
X135843601Y-97374934D01*
X135864485Y-97388552D01*
X135868834Y-97397902D01*
X135862991Y-97433011D01*
X135848265Y-97491083D01*
X135828859Y-97558019D01*
X135808979Y-97619720D01*
X135792827Y-97662086D01*
X135787115Y-97671979D01*
X135761564Y-97672625D01*
X135708344Y-97661201D01*
X135646584Y-97642623D01*
X135579555Y-97619565D01*
X135530712Y-97601671D01*
X135511889Y-97593477D01*
X135513839Y-97571615D01*
X135526087Y-97519961D01*
X135546090Y-97449062D01*
X135549295Y-97438429D01*
X135577937Y-97356408D01*
X135603084Y-97308660D01*
X135620490Y-97298079D01*
X135727589Y-97332104D01*
G37*
X135727589Y-97332104D02*
X135799964Y-97356920D01*
X135843601Y-97374934D01*
X135864485Y-97388552D01*
X135868834Y-97397902D01*
X135862991Y-97433011D01*
X135848265Y-97491083D01*
X135828859Y-97558019D01*
X135808979Y-97619720D01*
X135792827Y-97662086D01*
X135787115Y-97671979D01*
X135761564Y-97672625D01*
X135708344Y-97661201D01*
X135646584Y-97642623D01*
X135579555Y-97619565D01*
X135530712Y-97601671D01*
X135511889Y-97593477D01*
X135513839Y-97571615D01*
X135526087Y-97519961D01*
X135546090Y-97449062D01*
X135549295Y-97438429D01*
X135577937Y-97356408D01*
X135603084Y-97308660D01*
X135620490Y-97298079D01*
X135727589Y-97332104D01*
G36*
X135503915Y-97759402D02*
G01*
X135562375Y-97773405D01*
X135619233Y-97788679D01*
X135690380Y-97811648D01*
X135726387Y-97832212D01*
X135733958Y-97854415D01*
X135733249Y-97857470D01*
X135702539Y-97962279D01*
X135675084Y-98047412D01*
X135653192Y-98106240D01*
X135639170Y-98132136D01*
X135637426Y-98132766D01*
X135612536Y-98125681D01*
X135559096Y-98109316D01*
X135491726Y-98088178D01*
X135415649Y-98060852D01*
X135376466Y-98037873D01*
X135369356Y-98016372D01*
X135369655Y-98015543D01*
X135381774Y-97979227D01*
X135400600Y-97917986D01*
X135414889Y-97869632D01*
X135436922Y-97806898D01*
X135458940Y-97764905D01*
X135472072Y-97754000D01*
X135503915Y-97759402D01*
G37*
X135503915Y-97759402D02*
X135562375Y-97773405D01*
X135619233Y-97788679D01*
X135690380Y-97811648D01*
X135726387Y-97832212D01*
X135733958Y-97854415D01*
X135733249Y-97857470D01*
X135702539Y-97962279D01*
X135675084Y-98047412D01*
X135653192Y-98106240D01*
X135639170Y-98132136D01*
X135637426Y-98132766D01*
X135612536Y-98125681D01*
X135559096Y-98109316D01*
X135491726Y-98088178D01*
X135415649Y-98060852D01*
X135376466Y-98037873D01*
X135369356Y-98016372D01*
X135369655Y-98015543D01*
X135381774Y-97979227D01*
X135400600Y-97917986D01*
X135414889Y-97869632D01*
X135436922Y-97806898D01*
X135458940Y-97764905D01*
X135472072Y-97754000D01*
X135503915Y-97759402D01*
G36*
X135275760Y-98676435D02*
G01*
X135334339Y-98692557D01*
X135387311Y-98711444D01*
X135420071Y-98728819D01*
X135424334Y-98735192D01*
X135418294Y-98761677D01*
X135401648Y-98820974D01*
X135376605Y-98905548D01*
X135345375Y-99007863D01*
X135327740Y-99064566D01*
X135293319Y-99174754D01*
X135262852Y-99272633D01*
X135238842Y-99350136D01*
X135223793Y-99399196D01*
X135220481Y-99410292D01*
X135198972Y-99438776D01*
X135154225Y-99442782D01*
X135080627Y-99422649D01*
X135071311Y-99419265D01*
X135021464Y-99398419D01*
X134991292Y-99381358D01*
X134990301Y-99380434D01*
X134992566Y-99357763D01*
X135005350Y-99302831D01*
X135026271Y-99223698D01*
X135052951Y-99128424D01*
X135083009Y-99025070D01*
X135114066Y-98921694D01*
X135143741Y-98826356D01*
X135169655Y-98747118D01*
X135189428Y-98692038D01*
X135200197Y-98669581D01*
X135226178Y-98667351D01*
X135275760Y-98676435D01*
G37*
X135275760Y-98676435D02*
X135334339Y-98692557D01*
X135387311Y-98711444D01*
X135420071Y-98728819D01*
X135424334Y-98735192D01*
X135418294Y-98761677D01*
X135401648Y-98820974D01*
X135376605Y-98905548D01*
X135345375Y-99007863D01*
X135327740Y-99064566D01*
X135293319Y-99174754D01*
X135262852Y-99272633D01*
X135238842Y-99350136D01*
X135223793Y-99399196D01*
X135220481Y-99410292D01*
X135198972Y-99438776D01*
X135154225Y-99442782D01*
X135080627Y-99422649D01*
X135071311Y-99419265D01*
X135021464Y-99398419D01*
X134991292Y-99381358D01*
X134990301Y-99380434D01*
X134992566Y-99357763D01*
X135005350Y-99302831D01*
X135026271Y-99223698D01*
X135052951Y-99128424D01*
X135083009Y-99025070D01*
X135114066Y-98921694D01*
X135143741Y-98826356D01*
X135169655Y-98747118D01*
X135189428Y-98692038D01*
X135200197Y-98669581D01*
X135226178Y-98667351D01*
X135275760Y-98676435D01*
G36*
X135030460Y-99567953D02*
G01*
X135092397Y-99587119D01*
X135135164Y-99602040D01*
X135146543Y-99607394D01*
X135143131Y-99629017D01*
X135128775Y-99684424D01*
X135105333Y-99767047D01*
X135074663Y-99870316D01*
X135042368Y-99975640D01*
X135000980Y-100108073D01*
X134968893Y-100204864D01*
X134942617Y-100270725D01*
X134918664Y-100310370D01*
X134893546Y-100328510D01*
X134863772Y-100329860D01*
X134825856Y-100319131D01*
X134796144Y-100308265D01*
X134745921Y-100287091D01*
X134715094Y-100269335D01*
X134714102Y-100268402D01*
X134715323Y-100244309D01*
X134727810Y-100186684D01*
X134749815Y-100102279D01*
X134779589Y-99997847D01*
X134810834Y-99894726D01*
X134922337Y-99536065D01*
X135030460Y-99567953D01*
G37*
X135030460Y-99567953D02*
X135092397Y-99587119D01*
X135135164Y-99602040D01*
X135146543Y-99607394D01*
X135143131Y-99629017D01*
X135128775Y-99684424D01*
X135105333Y-99767047D01*
X135074663Y-99870316D01*
X135042368Y-99975640D01*
X135000980Y-100108073D01*
X134968893Y-100204864D01*
X134942617Y-100270725D01*
X134918664Y-100310370D01*
X134893546Y-100328510D01*
X134863772Y-100329860D01*
X134825856Y-100319131D01*
X134796144Y-100308265D01*
X134745921Y-100287091D01*
X134715094Y-100269335D01*
X134714102Y-100268402D01*
X134715323Y-100244309D01*
X134727810Y-100186684D01*
X134749815Y-100102279D01*
X134779589Y-99997847D01*
X134810834Y-99894726D01*
X134922337Y-99536065D01*
X135030460Y-99567953D01*
G36*
X134715921Y-100435895D02*
G01*
X134780352Y-100456384D01*
X134840062Y-100481748D01*
X134881967Y-100507286D01*
X134893874Y-100524893D01*
X134886160Y-100571975D01*
X134868753Y-100635151D01*
X134846259Y-100701287D01*
X134823287Y-100757248D01*
X134804445Y-100789901D01*
X134799672Y-100793393D01*
X134769587Y-100789694D01*
X134713788Y-100774560D01*
X134664234Y-100758170D01*
X134600668Y-100734736D01*
X134555406Y-100716331D01*
X134540897Y-100708786D01*
X134540663Y-100684128D01*
X134551426Y-100633058D01*
X134569223Y-100568763D01*
X134590085Y-100504431D01*
X134610047Y-100453249D01*
X134625144Y-100428405D01*
X134625233Y-100428349D01*
X134659854Y-100424982D01*
X134715921Y-100435895D01*
G37*
X134715921Y-100435895D02*
X134780352Y-100456384D01*
X134840062Y-100481748D01*
X134881967Y-100507286D01*
X134893874Y-100524893D01*
X134886160Y-100571975D01*
X134868753Y-100635151D01*
X134846259Y-100701287D01*
X134823287Y-100757248D01*
X134804445Y-100789901D01*
X134799672Y-100793393D01*
X134769587Y-100789694D01*
X134713788Y-100774560D01*
X134664234Y-100758170D01*
X134600668Y-100734736D01*
X134555406Y-100716331D01*
X134540897Y-100708786D01*
X134540663Y-100684128D01*
X134551426Y-100633058D01*
X134569223Y-100568763D01*
X134590085Y-100504431D01*
X134610047Y-100453249D01*
X134625144Y-100428405D01*
X134625233Y-100428349D01*
X134659854Y-100424982D01*
X134715921Y-100435895D01*
G36*
X134444601Y-101347111D02*
G01*
X134503317Y-101362107D01*
X134555226Y-101381036D01*
X134585500Y-101399841D01*
X134588250Y-101405958D01*
X134582289Y-101432074D01*
X134565778Y-101491512D01*
X134540779Y-101577182D01*
X134509350Y-101681997D01*
X134482417Y-101770149D01*
X134442033Y-101900569D01*
X134410533Y-101995272D01*
X134384005Y-102058890D01*
X134358534Y-102096059D01*
X134330208Y-102111412D01*
X134295113Y-102109585D01*
X134249338Y-102095212D01*
X134217834Y-102083505D01*
X134170594Y-102061251D01*
X134147186Y-102041018D01*
X134146592Y-102037491D01*
X134155177Y-102002298D01*
X134173729Y-101937576D01*
X134199629Y-101851588D01*
X134230255Y-101752599D01*
X134262990Y-101648873D01*
X134295214Y-101548673D01*
X134324306Y-101460263D01*
X134347648Y-101391907D01*
X134362621Y-101351870D01*
X134366053Y-101345150D01*
X134393904Y-101340106D01*
X134444601Y-101347111D01*
G37*
X134444601Y-101347111D02*
X134503317Y-101362107D01*
X134555226Y-101381036D01*
X134585500Y-101399841D01*
X134588250Y-101405958D01*
X134582289Y-101432074D01*
X134565778Y-101491512D01*
X134540779Y-101577182D01*
X134509350Y-101681997D01*
X134482417Y-101770149D01*
X134442033Y-101900569D01*
X134410533Y-101995272D01*
X134384005Y-102058890D01*
X134358534Y-102096059D01*
X134330208Y-102111412D01*
X134295113Y-102109585D01*
X134249338Y-102095212D01*
X134217834Y-102083505D01*
X134170594Y-102061251D01*
X134147186Y-102041018D01*
X134146592Y-102037491D01*
X134155177Y-102002298D01*
X134173729Y-101937576D01*
X134199629Y-101851588D01*
X134230255Y-101752599D01*
X134262990Y-101648873D01*
X134295214Y-101548673D01*
X134324306Y-101460263D01*
X134347648Y-101391907D01*
X134362621Y-101351870D01*
X134366053Y-101345150D01*
X134393904Y-101340106D01*
X134444601Y-101347111D01*
G36*
X134171400Y-102234217D02*
G01*
X134231103Y-102247270D01*
X134282801Y-102263914D01*
X134310528Y-102280628D01*
X134310930Y-102281279D01*
X134307313Y-102304748D01*
X134292707Y-102361725D01*
X134269029Y-102445399D01*
X134238193Y-102548959D01*
X134209095Y-102643354D01*
X134160504Y-102793069D01*
X134121245Y-102901599D01*
X134091279Y-102969043D01*
X134070566Y-102995501D01*
X134068918Y-102995906D01*
X134030022Y-102991994D01*
X133971343Y-102978004D01*
X133953250Y-102972563D01*
X133897354Y-102949550D01*
X133875633Y-102923827D01*
X133875419Y-102905761D01*
X133885571Y-102863588D01*
X133905527Y-102793564D01*
X133932567Y-102704142D01*
X133963972Y-102603776D01*
X133997022Y-102500920D01*
X134028998Y-102404029D01*
X134057179Y-102321556D01*
X134078846Y-102261957D01*
X134091280Y-102233683D01*
X134091851Y-102232967D01*
X134119660Y-102228275D01*
X134171400Y-102234217D01*
G37*
X134171400Y-102234217D02*
X134231103Y-102247270D01*
X134282801Y-102263914D01*
X134310528Y-102280628D01*
X134310930Y-102281279D01*
X134307313Y-102304748D01*
X134292707Y-102361725D01*
X134269029Y-102445399D01*
X134238193Y-102548959D01*
X134209095Y-102643354D01*
X134160504Y-102793069D01*
X134121245Y-102901599D01*
X134091279Y-102969043D01*
X134070566Y-102995501D01*
X134068918Y-102995906D01*
X134030022Y-102991994D01*
X133971343Y-102978004D01*
X133953250Y-102972563D01*
X133897354Y-102949550D01*
X133875633Y-102923827D01*
X133875419Y-102905761D01*
X133885571Y-102863588D01*
X133905527Y-102793564D01*
X133932567Y-102704142D01*
X133963972Y-102603776D01*
X133997022Y-102500920D01*
X134028998Y-102404029D01*
X134057179Y-102321556D01*
X134078846Y-102261957D01*
X134091280Y-102233683D01*
X134091851Y-102232967D01*
X134119660Y-102228275D01*
X134171400Y-102234217D01*
G36*
X133871617Y-103110424D02*
G01*
X133935887Y-103131215D01*
X134019897Y-103160949D01*
X134023019Y-103183119D01*
X134013937Y-103237215D01*
X133995098Y-103315444D01*
X133968949Y-103410013D01*
X133937935Y-103513132D01*
X133904502Y-103617007D01*
X133871097Y-103713847D01*
X133840167Y-103795858D01*
X133814156Y-103855249D01*
X133795511Y-103884227D01*
X133792351Y-103885798D01*
X133754779Y-103881398D01*
X133697589Y-103865455D01*
X133679674Y-103859167D01*
X133626900Y-103838875D01*
X133594579Y-103824930D01*
X133590732Y-103822621D01*
X133595168Y-103802246D01*
X133609859Y-103749330D01*
X133632426Y-103671738D01*
X133660492Y-103577335D01*
X133691677Y-103473983D01*
X133723606Y-103369548D01*
X133753898Y-103271893D01*
X133780177Y-103188883D01*
X133800063Y-103128382D01*
X133804682Y-103115079D01*
X133813294Y-103103908D01*
X133833179Y-103101839D01*
X133871617Y-103110424D01*
G37*
X133871617Y-103110424D02*
X133935887Y-103131215D01*
X134019897Y-103160949D01*
X134023019Y-103183119D01*
X134013937Y-103237215D01*
X133995098Y-103315444D01*
X133968949Y-103410013D01*
X133937935Y-103513132D01*
X133904502Y-103617007D01*
X133871097Y-103713847D01*
X133840167Y-103795858D01*
X133814156Y-103855249D01*
X133795511Y-103884227D01*
X133792351Y-103885798D01*
X133754779Y-103881398D01*
X133697589Y-103865455D01*
X133679674Y-103859167D01*
X133626900Y-103838875D01*
X133594579Y-103824930D01*
X133590732Y-103822621D01*
X133595168Y-103802246D01*
X133609859Y-103749330D01*
X133632426Y-103671738D01*
X133660492Y-103577335D01*
X133691677Y-103473983D01*
X133723606Y-103369548D01*
X133753898Y-103271893D01*
X133780177Y-103188883D01*
X133800063Y-103128382D01*
X133804682Y-103115079D01*
X133813294Y-103103908D01*
X133833179Y-103101839D01*
X133871617Y-103110424D01*
G36*
X133449621Y-104440774D02*
G01*
X133513636Y-104457064D01*
X133576470Y-104477556D01*
X133624953Y-104498396D01*
X133645920Y-104515732D01*
X133646017Y-104516750D01*
X133638492Y-104565427D01*
X133620031Y-104629744D01*
X133595464Y-104697078D01*
X133569620Y-104754808D01*
X133547329Y-104790313D01*
X133539255Y-104795762D01*
X133502790Y-104791295D01*
X133443255Y-104775539D01*
X133404217Y-104762670D01*
X133343457Y-104737232D01*
X133301791Y-104712458D01*
X133291359Y-104700661D01*
X133293254Y-104668111D01*
X133306182Y-104611068D01*
X133325674Y-104544429D01*
X133347260Y-104483093D01*
X133366468Y-104441958D01*
X133370708Y-104436203D01*
X133397589Y-104432536D01*
X133449621Y-104440774D01*
G37*
X133449621Y-104440774D02*
X133513636Y-104457064D01*
X133576470Y-104477556D01*
X133624953Y-104498396D01*
X133645920Y-104515732D01*
X133646017Y-104516750D01*
X133638492Y-104565427D01*
X133620031Y-104629744D01*
X133595464Y-104697078D01*
X133569620Y-104754808D01*
X133547329Y-104790313D01*
X133539255Y-104795762D01*
X133502790Y-104791295D01*
X133443255Y-104775539D01*
X133404217Y-104762670D01*
X133343457Y-104737232D01*
X133301791Y-104712458D01*
X133291359Y-104700661D01*
X133293254Y-104668111D01*
X133306182Y-104611068D01*
X133325674Y-104544429D01*
X133347260Y-104483093D01*
X133366468Y-104441958D01*
X133370708Y-104436203D01*
X133397589Y-104432536D01*
X133449621Y-104440774D01*
G36*
X133328982Y-104899647D02*
G01*
X133386229Y-104916734D01*
X133437202Y-104935686D01*
X133466708Y-104951885D01*
X133468467Y-104953984D01*
X133470538Y-104985214D01*
X133460056Y-105036107D01*
X133458552Y-105041039D01*
X133444362Y-105086416D01*
X133420655Y-105162391D01*
X133390494Y-105259145D01*
X133356942Y-105366854D01*
X133349773Y-105389875D01*
X133313258Y-105505645D01*
X133284834Y-105586075D01*
X133259969Y-105636232D01*
X133234131Y-105661181D01*
X133202786Y-105665990D01*
X133161402Y-105655726D01*
X133123978Y-105642265D01*
X133074165Y-105621449D01*
X133044053Y-105604452D01*
X133043062Y-105603529D01*
X133045656Y-105581167D01*
X133058811Y-105526522D01*
X133080130Y-105447610D01*
X133107217Y-105352451D01*
X133137676Y-105249062D01*
X133169111Y-105145461D01*
X133199125Y-105049666D01*
X133225322Y-104969696D01*
X133245306Y-104913568D01*
X133256440Y-104889538D01*
X133280655Y-104889042D01*
X133328982Y-104899647D01*
G37*
X133328982Y-104899647D02*
X133386229Y-104916734D01*
X133437202Y-104935686D01*
X133466708Y-104951885D01*
X133468467Y-104953984D01*
X133470538Y-104985214D01*
X133460056Y-105036107D01*
X133458552Y-105041039D01*
X133444362Y-105086416D01*
X133420655Y-105162391D01*
X133390494Y-105259145D01*
X133356942Y-105366854D01*
X133349773Y-105389875D01*
X133313258Y-105505645D01*
X133284834Y-105586075D01*
X133259969Y-105636232D01*
X133234131Y-105661181D01*
X133202786Y-105665990D01*
X133161402Y-105655726D01*
X133123978Y-105642265D01*
X133074165Y-105621449D01*
X133044053Y-105604452D01*
X133043062Y-105603529D01*
X133045656Y-105581167D01*
X133058811Y-105526522D01*
X133080130Y-105447610D01*
X133107217Y-105352451D01*
X133137676Y-105249062D01*
X133169111Y-105145461D01*
X133199125Y-105049666D01*
X133225322Y-104969696D01*
X133245306Y-104913568D01*
X133256440Y-104889538D01*
X133280655Y-104889042D01*
X133328982Y-104899647D01*
G36*
X132885303Y-106228652D02*
G01*
X132887373Y-106229050D01*
X132949032Y-106245990D01*
X133005794Y-106267312D01*
X133068257Y-106294750D01*
X132959260Y-106644000D01*
X132917332Y-106777043D01*
X132884259Y-106874268D01*
X132856337Y-106940284D01*
X132829860Y-106979700D01*
X132801126Y-106997126D01*
X132766429Y-106997172D01*
X132722065Y-106984445D01*
X132693834Y-106974269D01*
X132645715Y-106951998D01*
X132620735Y-106931356D01*
X132619750Y-106927862D01*
X132625685Y-106902154D01*
X132642126Y-106843063D01*
X132667026Y-106757635D01*
X132698339Y-106652914D01*
X132725584Y-106563405D01*
X132764239Y-106437958D01*
X132793195Y-106347522D01*
X132815103Y-106286615D01*
X132832615Y-106249755D01*
X132848385Y-106231462D01*
X132865063Y-106226255D01*
X132885303Y-106228652D01*
G37*
X132885303Y-106228652D02*
X132887373Y-106229050D01*
X132949032Y-106245990D01*
X133005794Y-106267312D01*
X133068257Y-106294750D01*
X132959260Y-106644000D01*
X132917332Y-106777043D01*
X132884259Y-106874268D01*
X132856337Y-106940284D01*
X132829860Y-106979700D01*
X132801126Y-106997126D01*
X132766429Y-106997172D01*
X132722065Y-106984445D01*
X132693834Y-106974269D01*
X132645715Y-106951998D01*
X132620735Y-106931356D01*
X132619750Y-106927862D01*
X132625685Y-106902154D01*
X132642126Y-106843063D01*
X132667026Y-106757635D01*
X132698339Y-106652914D01*
X132725584Y-106563405D01*
X132764239Y-106437958D01*
X132793195Y-106347522D01*
X132815103Y-106286615D01*
X132832615Y-106249755D01*
X132848385Y-106231462D01*
X132865063Y-106226255D01*
X132885303Y-106228652D01*
G36*
X132557497Y-107093985D02*
G01*
X132606037Y-107105239D01*
X132668260Y-107122456D01*
X132730972Y-107141790D01*
X132780981Y-107159395D01*
X132804550Y-107170869D01*
X132806910Y-107197022D01*
X132796603Y-107248776D01*
X132777760Y-107313772D01*
X132754513Y-107379653D01*
X132730994Y-107434062D01*
X132711336Y-107464641D01*
X132705393Y-107467425D01*
X132673991Y-107460217D01*
X132617198Y-107443944D01*
X132573392Y-107430383D01*
X132510202Y-107408824D01*
X132465186Y-107390779D01*
X132451831Y-107383217D01*
X132453343Y-107360445D01*
X132464734Y-107310391D01*
X132482301Y-107245869D01*
X132502340Y-107179693D01*
X132521150Y-107124676D01*
X132535026Y-107093632D01*
X132535835Y-107092539D01*
X132557497Y-107093985D01*
G37*
X132557497Y-107093985D02*
X132606037Y-107105239D01*
X132668260Y-107122456D01*
X132730972Y-107141790D01*
X132780981Y-107159395D01*
X132804550Y-107170869D01*
X132806910Y-107197022D01*
X132796603Y-107248776D01*
X132777760Y-107313772D01*
X132754513Y-107379653D01*
X132730994Y-107434062D01*
X132711336Y-107464641D01*
X132705393Y-107467425D01*
X132673991Y-107460217D01*
X132617198Y-107443944D01*
X132573392Y-107430383D01*
X132510202Y-107408824D01*
X132465186Y-107390779D01*
X132451831Y-107383217D01*
X132453343Y-107360445D01*
X132464734Y-107310391D01*
X132482301Y-107245869D01*
X132502340Y-107179693D01*
X132521150Y-107124676D01*
X132535026Y-107093632D01*
X132535835Y-107092539D01*
X132557497Y-107093985D01*
G36*
X132501710Y-107570408D02*
G01*
X132558905Y-107589997D01*
X132608730Y-107613369D01*
X132636656Y-107635263D01*
X132638573Y-107641541D01*
X132631539Y-107673161D01*
X132614348Y-107735292D01*
X132589575Y-107819670D01*
X132559794Y-107918027D01*
X132527580Y-108022099D01*
X132495506Y-108123619D01*
X132466147Y-108214321D01*
X132442078Y-108285940D01*
X132425872Y-108330209D01*
X132420980Y-108340218D01*
X132394903Y-108342187D01*
X132344892Y-108331032D01*
X132323417Y-108324093D01*
X132264758Y-108303512D01*
X132221824Y-108288313D01*
X132214521Y-108285686D01*
X132210565Y-108262181D01*
X132221908Y-108199955D01*
X132248602Y-108098792D01*
X132290698Y-107958479D01*
X132300793Y-107926262D01*
X132337510Y-107811201D01*
X132370473Y-107710597D01*
X132397385Y-107631252D01*
X132415948Y-107579964D01*
X132423328Y-107563616D01*
X132451675Y-107559861D01*
X132501710Y-107570408D01*
G37*
X132501710Y-107570408D02*
X132558905Y-107589997D01*
X132608730Y-107613369D01*
X132636656Y-107635263D01*
X132638573Y-107641541D01*
X132631539Y-107673161D01*
X132614348Y-107735292D01*
X132589575Y-107819670D01*
X132559794Y-107918027D01*
X132527580Y-108022099D01*
X132495506Y-108123619D01*
X132466147Y-108214321D01*
X132442078Y-108285940D01*
X132425872Y-108330209D01*
X132420980Y-108340218D01*
X132394903Y-108342187D01*
X132344892Y-108331032D01*
X132323417Y-108324093D01*
X132264758Y-108303512D01*
X132221824Y-108288313D01*
X132214521Y-108285686D01*
X132210565Y-108262181D01*
X132221908Y-108199955D01*
X132248602Y-108098792D01*
X132290698Y-107958479D01*
X132300793Y-107926262D01*
X132337510Y-107811201D01*
X132370473Y-107710597D01*
X132397385Y-107631252D01*
X132415948Y-107579964D01*
X132423328Y-107563616D01*
X132451675Y-107559861D01*
X132501710Y-107570408D01*
G36*
X131880393Y-109338051D02*
G01*
X131929735Y-109349587D01*
X131980011Y-109363450D01*
X132096239Y-109397238D01*
X132055378Y-109528744D01*
X132000804Y-109703985D01*
X131957246Y-109842761D01*
X131923348Y-109949093D01*
X131897757Y-110027003D01*
X131879118Y-110080511D01*
X131866078Y-110113639D01*
X131857281Y-110130408D01*
X131851375Y-110134838D01*
X131851282Y-110134829D01*
X131824089Y-110127433D01*
X131771863Y-110110579D01*
X131741334Y-110100181D01*
X131684131Y-110079756D01*
X131646613Y-110065189D01*
X131639395Y-110061650D01*
X131643710Y-110041416D01*
X131658305Y-109988644D01*
X131680796Y-109911188D01*
X131708796Y-109816905D01*
X131739920Y-109713648D01*
X131771782Y-109609275D01*
X131801998Y-109511640D01*
X131828182Y-109428598D01*
X131847948Y-109368005D01*
X131858911Y-109337716D01*
X131859690Y-109336206D01*
X131880393Y-109338051D01*
G37*
X131880393Y-109338051D02*
X131929735Y-109349587D01*
X131980011Y-109363450D01*
X132096239Y-109397238D01*
X132055378Y-109528744D01*
X132000804Y-109703985D01*
X131957246Y-109842761D01*
X131923348Y-109949093D01*
X131897757Y-110027003D01*
X131879118Y-110080511D01*
X131866078Y-110113639D01*
X131857281Y-110130408D01*
X131851375Y-110134838D01*
X131851282Y-110134829D01*
X131824089Y-110127433D01*
X131771863Y-110110579D01*
X131741334Y-110100181D01*
X131684131Y-110079756D01*
X131646613Y-110065189D01*
X131639395Y-110061650D01*
X131643710Y-110041416D01*
X131658305Y-109988644D01*
X131680796Y-109911188D01*
X131708796Y-109816905D01*
X131739920Y-109713648D01*
X131771782Y-109609275D01*
X131801998Y-109511640D01*
X131828182Y-109428598D01*
X131847948Y-109368005D01*
X131858911Y-109337716D01*
X131859690Y-109336206D01*
X131880393Y-109338051D01*
G36*
X131655779Y-110234992D02*
G01*
X131713101Y-110253254D01*
X131764425Y-110273999D01*
X131794853Y-110292329D01*
X131797511Y-110296115D01*
X131793992Y-110321237D01*
X131780203Y-110378583D01*
X131758530Y-110459985D01*
X131731362Y-110557269D01*
X131701086Y-110662265D01*
X131670089Y-110766802D01*
X131640757Y-110862709D01*
X131615479Y-110941814D01*
X131596641Y-110995946D01*
X131586984Y-111016723D01*
X131566078Y-111013290D01*
X131517201Y-111000652D01*
X131476750Y-110989101D01*
X131415772Y-110970336D01*
X131374302Y-110956059D01*
X131364049Y-110951332D01*
X131368139Y-110930684D01*
X131382491Y-110877514D01*
X131404732Y-110799702D01*
X131432485Y-110705128D01*
X131463378Y-110601675D01*
X131495036Y-110497222D01*
X131525084Y-110399651D01*
X131551149Y-110316842D01*
X131570855Y-110256677D01*
X131581828Y-110227035D01*
X131582729Y-110225505D01*
X131607356Y-110224110D01*
X131655779Y-110234992D01*
G37*
X131655779Y-110234992D02*
X131713101Y-110253254D01*
X131764425Y-110273999D01*
X131794853Y-110292329D01*
X131797511Y-110296115D01*
X131793992Y-110321237D01*
X131780203Y-110378583D01*
X131758530Y-110459985D01*
X131731362Y-110557269D01*
X131701086Y-110662265D01*
X131670089Y-110766802D01*
X131640757Y-110862709D01*
X131615479Y-110941814D01*
X131596641Y-110995946D01*
X131586984Y-111016723D01*
X131566078Y-111013290D01*
X131517201Y-111000652D01*
X131476750Y-110989101D01*
X131415772Y-110970336D01*
X131374302Y-110956059D01*
X131364049Y-110951332D01*
X131368139Y-110930684D01*
X131382491Y-110877514D01*
X131404732Y-110799702D01*
X131432485Y-110705128D01*
X131463378Y-110601675D01*
X131495036Y-110497222D01*
X131525084Y-110399651D01*
X131551149Y-110316842D01*
X131570855Y-110256677D01*
X131581828Y-110227035D01*
X131582729Y-110225505D01*
X131607356Y-110224110D01*
X131655779Y-110234992D01*
G36*
X131305672Y-111097502D02*
G01*
X131357087Y-111110287D01*
X131427238Y-111130662D01*
X131432928Y-111132413D01*
X131511061Y-111160300D01*
X131556530Y-111184931D01*
X131565873Y-111201511D01*
X131554666Y-111234193D01*
X131535518Y-111293028D01*
X131517941Y-111348292D01*
X131493974Y-111416982D01*
X131469185Y-111454429D01*
X131433241Y-111464842D01*
X131375810Y-111452432D01*
X131314205Y-111431318D01*
X131254693Y-111408652D01*
X131213615Y-111390417D01*
X131203936Y-111384425D01*
X131205089Y-111361533D01*
X131215787Y-111311337D01*
X131232459Y-111246781D01*
X131251535Y-111180811D01*
X131269442Y-111126373D01*
X131282611Y-111096411D01*
X131283771Y-111095007D01*
X131305672Y-111097502D01*
G37*
X131305672Y-111097502D02*
X131357087Y-111110287D01*
X131427238Y-111130662D01*
X131432928Y-111132413D01*
X131511061Y-111160300D01*
X131556530Y-111184931D01*
X131565873Y-111201511D01*
X131554666Y-111234193D01*
X131535518Y-111293028D01*
X131517941Y-111348292D01*
X131493974Y-111416982D01*
X131469185Y-111454429D01*
X131433241Y-111464842D01*
X131375810Y-111452432D01*
X131314205Y-111431318D01*
X131254693Y-111408652D01*
X131213615Y-111390417D01*
X131203936Y-111384425D01*
X131205089Y-111361533D01*
X131215787Y-111311337D01*
X131232459Y-111246781D01*
X131251535Y-111180811D01*
X131269442Y-111126373D01*
X131282611Y-111096411D01*
X131283771Y-111095007D01*
X131305672Y-111097502D01*
G36*
X131240176Y-111576300D02*
G01*
X131299528Y-111588944D01*
X131355419Y-111603698D01*
X131393601Y-111617288D01*
X131402171Y-111624279D01*
X131395291Y-111649637D01*
X131377919Y-111706369D01*
X131352615Y-111786593D01*
X131321941Y-111882429D01*
X131288456Y-111985995D01*
X131254722Y-112089411D01*
X131223298Y-112184797D01*
X131196745Y-112264271D01*
X131177624Y-112319953D01*
X131168495Y-112343963D01*
X131168228Y-112344320D01*
X131144599Y-112342880D01*
X131093209Y-112331983D01*
X131047137Y-112319985D01*
X130986643Y-112298991D01*
X130949801Y-112277876D01*
X130943680Y-112265716D01*
X130952558Y-112238477D01*
X130971507Y-112178132D01*
X130998233Y-112092059D01*
X131030440Y-111987637D01*
X131052896Y-111914500D01*
X131087705Y-111802804D01*
X131119143Y-111705415D01*
X131144800Y-111629525D01*
X131162269Y-111582329D01*
X131168084Y-111570452D01*
X131191612Y-111569044D01*
X131240176Y-111576300D01*
G37*
X131240176Y-111576300D02*
X131299528Y-111588944D01*
X131355419Y-111603698D01*
X131393601Y-111617288D01*
X131402171Y-111624279D01*
X131395291Y-111649637D01*
X131377919Y-111706369D01*
X131352615Y-111786593D01*
X131321941Y-111882429D01*
X131288456Y-111985995D01*
X131254722Y-112089411D01*
X131223298Y-112184797D01*
X131196745Y-112264271D01*
X131177624Y-112319953D01*
X131168495Y-112343963D01*
X131168228Y-112344320D01*
X131144599Y-112342880D01*
X131093209Y-112331983D01*
X131047137Y-112319985D01*
X130986643Y-112298991D01*
X130949801Y-112277876D01*
X130943680Y-112265716D01*
X130952558Y-112238477D01*
X130971507Y-112178132D01*
X130998233Y-112092059D01*
X131030440Y-111987637D01*
X131052896Y-111914500D01*
X131087705Y-111802804D01*
X131119143Y-111705415D01*
X131144800Y-111629525D01*
X131162269Y-111582329D01*
X131168084Y-111570452D01*
X131191612Y-111569044D01*
X131240176Y-111576300D01*
G36*
X130829832Y-112904433D02*
G01*
X130886859Y-112925478D01*
X130938388Y-112949987D01*
X130970690Y-112972496D01*
X130975193Y-112982540D01*
X130961651Y-113032260D01*
X130939343Y-113107249D01*
X130910783Y-113199728D01*
X130878485Y-113301920D01*
X130844963Y-113406046D01*
X130812732Y-113504327D01*
X130784305Y-113588987D01*
X130762197Y-113652246D01*
X130748921Y-113686326D01*
X130746500Y-113690070D01*
X130721774Y-113683231D01*
X130670507Y-113667993D01*
X130635375Y-113657316D01*
X130577479Y-113634863D01*
X130541138Y-113611672D01*
X130534834Y-113600788D01*
X130540857Y-113572469D01*
X130557230Y-113512872D01*
X130581402Y-113430202D01*
X130610825Y-113332664D01*
X130642951Y-113228463D01*
X130675231Y-113125805D01*
X130705116Y-113032894D01*
X130730057Y-112957935D01*
X130747506Y-112909135D01*
X130754191Y-112894587D01*
X130781033Y-112892315D01*
X130829832Y-112904433D01*
G37*
X130829832Y-112904433D02*
X130886859Y-112925478D01*
X130938388Y-112949987D01*
X130970690Y-112972496D01*
X130975193Y-112982540D01*
X130961651Y-113032260D01*
X130939343Y-113107249D01*
X130910783Y-113199728D01*
X130878485Y-113301920D01*
X130844963Y-113406046D01*
X130812732Y-113504327D01*
X130784305Y-113588987D01*
X130762197Y-113652246D01*
X130748921Y-113686326D01*
X130746500Y-113690070D01*
X130721774Y-113683231D01*
X130670507Y-113667993D01*
X130635375Y-113657316D01*
X130577479Y-113634863D01*
X130541138Y-113611672D01*
X130534834Y-113600788D01*
X130540857Y-113572469D01*
X130557230Y-113512872D01*
X130581402Y-113430202D01*
X130610825Y-113332664D01*
X130642951Y-113228463D01*
X130675231Y-113125805D01*
X130705116Y-113032894D01*
X130730057Y-112957935D01*
X130747506Y-112909135D01*
X130754191Y-112894587D01*
X130781033Y-112892315D01*
X130829832Y-112904433D01*
G36*
X130517809Y-113783508D02*
G01*
X130571160Y-113799659D01*
X130605864Y-113811151D01*
X130667681Y-113836439D01*
X130694254Y-113860053D01*
X130694926Y-113879943D01*
X130632982Y-114081156D01*
X130582316Y-114244018D01*
X130542203Y-114370776D01*
X130511918Y-114463675D01*
X130490735Y-114524961D01*
X130477928Y-114556879D01*
X130474458Y-114562510D01*
X130448104Y-114563916D01*
X130396046Y-114553372D01*
X130360209Y-114542919D01*
X130298030Y-114517014D01*
X130263566Y-114490206D01*
X130259667Y-114479675D01*
X130265870Y-114446139D01*
X130282747Y-114383309D01*
X130307703Y-114299117D01*
X130338140Y-114201494D01*
X130371461Y-114098375D01*
X130405070Y-113997690D01*
X130436369Y-113907374D01*
X130462762Y-113835358D01*
X130481653Y-113789575D01*
X130489638Y-113777167D01*
X130517809Y-113783508D01*
G37*
X130517809Y-113783508D02*
X130571160Y-113799659D01*
X130605864Y-113811151D01*
X130667681Y-113836439D01*
X130694254Y-113860053D01*
X130694926Y-113879943D01*
X130632982Y-114081156D01*
X130582316Y-114244018D01*
X130542203Y-114370776D01*
X130511918Y-114463675D01*
X130490735Y-114524961D01*
X130477928Y-114556879D01*
X130474458Y-114562510D01*
X130448104Y-114563916D01*
X130396046Y-114553372D01*
X130360209Y-114542919D01*
X130298030Y-114517014D01*
X130263566Y-114490206D01*
X130259667Y-114479675D01*
X130265870Y-114446139D01*
X130282747Y-114383309D01*
X130307703Y-114299117D01*
X130338140Y-114201494D01*
X130371461Y-114098375D01*
X130405070Y-113997690D01*
X130436369Y-113907374D01*
X130462762Y-113835358D01*
X130481653Y-113789575D01*
X130489638Y-113777167D01*
X130517809Y-113783508D01*
G36*
X130083344Y-115105381D02*
G01*
X130145218Y-115124543D01*
X130219952Y-115150805D01*
X130317820Y-115184750D01*
X130275007Y-115327625D01*
X130248799Y-115406844D01*
X130222127Y-115452192D01*
X130185087Y-115468320D01*
X130127777Y-115459876D01*
X130048000Y-115434181D01*
X129990770Y-115413733D01*
X129953203Y-115399116D01*
X129945958Y-115395547D01*
X129948269Y-115374114D01*
X129960595Y-115322645D01*
X129980401Y-115251534D01*
X129984207Y-115238651D01*
X130005171Y-115166976D01*
X130022537Y-115123163D01*
X130045523Y-115103775D01*
X130083344Y-115105381D01*
G37*
X130083344Y-115105381D02*
X130145218Y-115124543D01*
X130219952Y-115150805D01*
X130317820Y-115184750D01*
X130275007Y-115327625D01*
X130248799Y-115406844D01*
X130222127Y-115452192D01*
X130185087Y-115468320D01*
X130127777Y-115459876D01*
X130048000Y-115434181D01*
X129990770Y-115413733D01*
X129953203Y-115399116D01*
X129945958Y-115395547D01*
X129948269Y-115374114D01*
X129960595Y-115322645D01*
X129980401Y-115251534D01*
X129984207Y-115238651D01*
X130005171Y-115166976D01*
X130022537Y-115123163D01*
X130045523Y-115103775D01*
X130083344Y-115105381D01*
G36*
X129834562Y-116014873D02*
G01*
X129898636Y-116031252D01*
X129960830Y-116052338D01*
X130007886Y-116074195D01*
X130026546Y-116092886D01*
X130026546Y-116092976D01*
X130019828Y-116134539D01*
X130003317Y-116195184D01*
X129981444Y-116262000D01*
X129958637Y-116322076D01*
X129939328Y-116362501D01*
X129930766Y-116372120D01*
X129901237Y-116368275D01*
X129845269Y-116353195D01*
X129788709Y-116334806D01*
X129724518Y-116308509D01*
X129680417Y-116282853D01*
X129667000Y-116266257D01*
X129674031Y-116227407D01*
X129691563Y-116166919D01*
X129714260Y-116100430D01*
X129736783Y-116043577D01*
X129753795Y-116011995D01*
X129753803Y-116011986D01*
X129781865Y-116007139D01*
X129834562Y-116014873D01*
G37*
X129834562Y-116014873D02*
X129898636Y-116031252D01*
X129960830Y-116052338D01*
X130007886Y-116074195D01*
X130026546Y-116092886D01*
X130026546Y-116092976D01*
X130019828Y-116134539D01*
X130003317Y-116195184D01*
X129981444Y-116262000D01*
X129958637Y-116322076D01*
X129939328Y-116362501D01*
X129930766Y-116372120D01*
X129901237Y-116368275D01*
X129845269Y-116353195D01*
X129788709Y-116334806D01*
X129724518Y-116308509D01*
X129680417Y-116282853D01*
X129667000Y-116266257D01*
X129674031Y-116227407D01*
X129691563Y-116166919D01*
X129714260Y-116100430D01*
X129736783Y-116043577D01*
X129753795Y-116011995D01*
X129753803Y-116011986D01*
X129781865Y-116007139D01*
X129834562Y-116014873D01*
G36*
X129713586Y-116472129D02*
G01*
X129771955Y-116488910D01*
X129823693Y-116510266D01*
X129854243Y-116530788D01*
X129857271Y-116537476D01*
X129850680Y-116577755D01*
X129833146Y-116645729D01*
X129807313Y-116733548D01*
X129775829Y-116833361D01*
X129741340Y-116937319D01*
X129706494Y-117037570D01*
X129673936Y-117126266D01*
X129646314Y-117195555D01*
X129626273Y-117237588D01*
X129618199Y-117246591D01*
X129581956Y-117239868D01*
X129526599Y-117225932D01*
X129518834Y-117223768D01*
X129464850Y-117205458D01*
X129429714Y-117188018D01*
X129427309Y-117186010D01*
X129426130Y-117159750D01*
X129437348Y-117102173D01*
X129458368Y-117021207D01*
X129486595Y-116924780D01*
X129519434Y-116820820D01*
X129554292Y-116717257D01*
X129588573Y-116622018D01*
X129619684Y-116543032D01*
X129645030Y-116488227D01*
X129662015Y-116465532D01*
X129663142Y-116465334D01*
X129713586Y-116472129D01*
G37*
X129713586Y-116472129D02*
X129771955Y-116488910D01*
X129823693Y-116510266D01*
X129854243Y-116530788D01*
X129857271Y-116537476D01*
X129850680Y-116577755D01*
X129833146Y-116645729D01*
X129807313Y-116733548D01*
X129775829Y-116833361D01*
X129741340Y-116937319D01*
X129706494Y-117037570D01*
X129673936Y-117126266D01*
X129646314Y-117195555D01*
X129626273Y-117237588D01*
X129618199Y-117246591D01*
X129581956Y-117239868D01*
X129526599Y-117225932D01*
X129518834Y-117223768D01*
X129464850Y-117205458D01*
X129429714Y-117188018D01*
X129427309Y-117186010D01*
X129426130Y-117159750D01*
X129437348Y-117102173D01*
X129458368Y-117021207D01*
X129486595Y-116924780D01*
X129519434Y-116820820D01*
X129554292Y-116717257D01*
X129588573Y-116622018D01*
X129619684Y-116543032D01*
X129645030Y-116488227D01*
X129662015Y-116465532D01*
X129663142Y-116465334D01*
X129713586Y-116472129D01*
G36*
X129213815Y-117782365D02*
G01*
X129263270Y-117793460D01*
X129326322Y-117810755D01*
X129389782Y-117830385D01*
X129440458Y-117848487D01*
X129465161Y-117861200D01*
X129465514Y-117861682D01*
X129465981Y-117890981D01*
X129454139Y-117944636D01*
X129434223Y-118010282D01*
X129410468Y-118075554D01*
X129387110Y-118128084D01*
X129368383Y-118155508D01*
X129364375Y-118156996D01*
X129331720Y-118149488D01*
X129273465Y-118131782D01*
X129219560Y-118113682D01*
X129100203Y-118072040D01*
X129142482Y-117930145D01*
X129164294Y-117858862D01*
X129181646Y-117805684D01*
X129190946Y-117781588D01*
X129191148Y-117781330D01*
X129213815Y-117782365D01*
G37*
X129213815Y-117782365D02*
X129263270Y-117793460D01*
X129326322Y-117810755D01*
X129389782Y-117830385D01*
X129440458Y-117848487D01*
X129465161Y-117861200D01*
X129465514Y-117861682D01*
X129465981Y-117890981D01*
X129454139Y-117944636D01*
X129434223Y-118010282D01*
X129410468Y-118075554D01*
X129387110Y-118128084D01*
X129368383Y-118155508D01*
X129364375Y-118156996D01*
X129331720Y-118149488D01*
X129273465Y-118131782D01*
X129219560Y-118113682D01*
X129100203Y-118072040D01*
X129142482Y-117930145D01*
X129164294Y-117858862D01*
X129181646Y-117805684D01*
X129190946Y-117781588D01*
X129191148Y-117781330D01*
X129213815Y-117782365D01*
G36*
X128821951Y-119132564D02*
G01*
X128892744Y-119151378D01*
X128907916Y-119156040D01*
X128976757Y-119178226D01*
X129027440Y-119195988D01*
X129048353Y-119205131D01*
X129046144Y-119226301D01*
X129034903Y-119274920D01*
X129018013Y-119338956D01*
X128998858Y-119406376D01*
X128980819Y-119465148D01*
X128967281Y-119503239D01*
X128962312Y-119511164D01*
X128941456Y-119504433D01*
X128890818Y-119488804D01*
X128821146Y-119467592D01*
X128817675Y-119466541D01*
X128677434Y-119424088D01*
X128716406Y-119295373D01*
X128738365Y-119223887D01*
X128756364Y-119167148D01*
X128765335Y-119140711D01*
X128781860Y-119129264D01*
X128821951Y-119132564D01*
G37*
X128821951Y-119132564D02*
X128892744Y-119151378D01*
X128907916Y-119156040D01*
X128976757Y-119178226D01*
X129027440Y-119195988D01*
X129048353Y-119205131D01*
X129046144Y-119226301D01*
X129034903Y-119274920D01*
X129018013Y-119338956D01*
X128998858Y-119406376D01*
X128980819Y-119465148D01*
X128967281Y-119503239D01*
X128962312Y-119511164D01*
X128941456Y-119504433D01*
X128890818Y-119488804D01*
X128821146Y-119467592D01*
X128817675Y-119466541D01*
X128677434Y-119424088D01*
X128716406Y-119295373D01*
X128738365Y-119223887D01*
X128756364Y-119167148D01*
X128765335Y-119140711D01*
X128781860Y-119129264D01*
X128821951Y-119132564D01*
G36*
X128548895Y-120028041D02*
G01*
X128606719Y-120044729D01*
X128671542Y-120066242D01*
X128727918Y-120087426D01*
X128760404Y-120103126D01*
X128761717Y-120104172D01*
X128764079Y-120130107D01*
X128753753Y-120181766D01*
X128734881Y-120246759D01*
X128711608Y-120312697D01*
X128688077Y-120367191D01*
X128668431Y-120397850D01*
X128662560Y-120400662D01*
X128631977Y-120393211D01*
X128575012Y-120375555D01*
X128517301Y-120356096D01*
X128451289Y-120328994D01*
X128411235Y-120304066D01*
X128403453Y-120288975D01*
X128414471Y-120256788D01*
X128433479Y-120198332D01*
X128451059Y-120143042D01*
X128475025Y-120078637D01*
X128498475Y-120034518D01*
X128513512Y-120021334D01*
X128548895Y-120028041D01*
G37*
X128548895Y-120028041D02*
X128606719Y-120044729D01*
X128671542Y-120066242D01*
X128727918Y-120087426D01*
X128760404Y-120103126D01*
X128761717Y-120104172D01*
X128764079Y-120130107D01*
X128753753Y-120181766D01*
X128734881Y-120246759D01*
X128711608Y-120312697D01*
X128688077Y-120367191D01*
X128668431Y-120397850D01*
X128662560Y-120400662D01*
X128631977Y-120393211D01*
X128575012Y-120375555D01*
X128517301Y-120356096D01*
X128451289Y-120328994D01*
X128411235Y-120304066D01*
X128403453Y-120288975D01*
X128414471Y-120256788D01*
X128433479Y-120198332D01*
X128451059Y-120143042D01*
X128475025Y-120078637D01*
X128498475Y-120034518D01*
X128513512Y-120021334D01*
X128548895Y-120028041D01*
G36*
X128438303Y-120487376D02*
G01*
X128503278Y-120505975D01*
X128564692Y-120527678D01*
X128608478Y-120548142D01*
X128621072Y-120559315D01*
X128621070Y-120596201D01*
X128608177Y-120654448D01*
X128586984Y-120720961D01*
X128562084Y-120782647D01*
X128538067Y-120826412D01*
X128522755Y-120839703D01*
X128486091Y-120835562D01*
X128426012Y-120821071D01*
X128386417Y-120809209D01*
X128325273Y-120788933D01*
X128283067Y-120773804D01*
X128272068Y-120768968D01*
X128272237Y-120746668D01*
X128282385Y-120697007D01*
X128298938Y-120632733D01*
X128318324Y-120566591D01*
X128336970Y-120511327D01*
X128351304Y-120479686D01*
X128353947Y-120476862D01*
X128383836Y-120476224D01*
X128438303Y-120487376D01*
G37*
X128438303Y-120487376D02*
X128503278Y-120505975D01*
X128564692Y-120527678D01*
X128608478Y-120548142D01*
X128621072Y-120559315D01*
X128621070Y-120596201D01*
X128608177Y-120654448D01*
X128586984Y-120720961D01*
X128562084Y-120782647D01*
X128538067Y-120826412D01*
X128522755Y-120839703D01*
X128486091Y-120835562D01*
X128426012Y-120821071D01*
X128386417Y-120809209D01*
X128325273Y-120788933D01*
X128283067Y-120773804D01*
X128272068Y-120768968D01*
X128272237Y-120746668D01*
X128282385Y-120697007D01*
X128298938Y-120632733D01*
X128318324Y-120566591D01*
X128336970Y-120511327D01*
X128351304Y-120479686D01*
X128353947Y-120476862D01*
X128383836Y-120476224D01*
X128438303Y-120487376D01*
G36*
X128238723Y-120916098D02*
G01*
X128289981Y-120931234D01*
X128359730Y-120952501D01*
X128361860Y-120953159D01*
X128500512Y-120995984D01*
X128469691Y-121096034D01*
X128448625Y-121165743D01*
X128431185Y-121225707D01*
X128426224Y-121243709D01*
X128412972Y-121273137D01*
X128387768Y-121285965D01*
X128342247Y-121282695D01*
X128268046Y-121263827D01*
X128238250Y-121254992D01*
X128177399Y-121235934D01*
X128136061Y-121221675D01*
X128125836Y-121217101D01*
X128128410Y-121196051D01*
X128140539Y-121147213D01*
X128158603Y-121082786D01*
X128178977Y-121014972D01*
X128198041Y-120955971D01*
X128212170Y-120917984D01*
X128216916Y-120910334D01*
X128238723Y-120916098D01*
G37*
X128238723Y-120916098D02*
X128289981Y-120931234D01*
X128359730Y-120952501D01*
X128361860Y-120953159D01*
X128500512Y-120995984D01*
X128469691Y-121096034D01*
X128448625Y-121165743D01*
X128431185Y-121225707D01*
X128426224Y-121243709D01*
X128412972Y-121273137D01*
X128387768Y-121285965D01*
X128342247Y-121282695D01*
X128268046Y-121263827D01*
X128238250Y-121254992D01*
X128177399Y-121235934D01*
X128136061Y-121221675D01*
X128125836Y-121217101D01*
X128128410Y-121196051D01*
X128140539Y-121147213D01*
X128158603Y-121082786D01*
X128178977Y-121014972D01*
X128198041Y-120955971D01*
X128212170Y-120917984D01*
X128216916Y-120910334D01*
X128238723Y-120916098D01*
G36*
X128145030Y-121379833D02*
G01*
X128209658Y-121398501D01*
X128274266Y-121420050D01*
X128326324Y-121440228D01*
X128353305Y-121454784D01*
X128354667Y-121457135D01*
X128348200Y-121484117D01*
X128331234Y-121539161D01*
X128307419Y-121610432D01*
X128307042Y-121611523D01*
X128259417Y-121749458D01*
X128121834Y-121708775D01*
X128052041Y-121687692D01*
X128000813Y-121671379D01*
X127979140Y-121663334D01*
X127979109Y-121663307D01*
X127981094Y-121640760D01*
X127995628Y-121591947D01*
X128018092Y-121528842D01*
X128043866Y-121463419D01*
X128068333Y-121407651D01*
X128086872Y-121373512D01*
X128092909Y-121368299D01*
X128145030Y-121379833D01*
G37*
X128145030Y-121379833D02*
X128209658Y-121398501D01*
X128274266Y-121420050D01*
X128326324Y-121440228D01*
X128353305Y-121454784D01*
X128354667Y-121457135D01*
X128348200Y-121484117D01*
X128331234Y-121539161D01*
X128307419Y-121610432D01*
X128307042Y-121611523D01*
X128259417Y-121749458D01*
X128121834Y-121708775D01*
X128052041Y-121687692D01*
X128000813Y-121671379D01*
X127979140Y-121663334D01*
X127979109Y-121663307D01*
X127981094Y-121640760D01*
X127995628Y-121591947D01*
X128018092Y-121528842D01*
X128043866Y-121463419D01*
X128068333Y-121407651D01*
X128086872Y-121373512D01*
X128092909Y-121368299D01*
X128145030Y-121379833D01*
G36*
X127888373Y-122289712D02*
G01*
X127945516Y-122308194D01*
X127998034Y-122330107D01*
X128031657Y-122350503D01*
X128036938Y-122358999D01*
X128030338Y-122399040D01*
X128012786Y-122466844D01*
X127986933Y-122554553D01*
X127955428Y-122654310D01*
X127920923Y-122758256D01*
X127886067Y-122858533D01*
X127853510Y-122947283D01*
X127825904Y-123016649D01*
X127805897Y-123058772D01*
X127797866Y-123067842D01*
X127763125Y-123060022D01*
X127707574Y-123042362D01*
X127689507Y-123035919D01*
X127635964Y-123015138D01*
X127602294Y-122999883D01*
X127598009Y-122997064D01*
X127601817Y-122975968D01*
X127616157Y-122922512D01*
X127638592Y-122844632D01*
X127666684Y-122750267D01*
X127697998Y-122647354D01*
X127730095Y-122543830D01*
X127760539Y-122447632D01*
X127786893Y-122366699D01*
X127806719Y-122308967D01*
X127817294Y-122282834D01*
X127840876Y-122279609D01*
X127888373Y-122289712D01*
G37*
X127888373Y-122289712D02*
X127945516Y-122308194D01*
X127998034Y-122330107D01*
X128031657Y-122350503D01*
X128036938Y-122358999D01*
X128030338Y-122399040D01*
X128012786Y-122466844D01*
X127986933Y-122554553D01*
X127955428Y-122654310D01*
X127920923Y-122758256D01*
X127886067Y-122858533D01*
X127853510Y-122947283D01*
X127825904Y-123016649D01*
X127805897Y-123058772D01*
X127797866Y-123067842D01*
X127763125Y-123060022D01*
X127707574Y-123042362D01*
X127689507Y-123035919D01*
X127635964Y-123015138D01*
X127602294Y-122999883D01*
X127598009Y-122997064D01*
X127601817Y-122975968D01*
X127616157Y-122922512D01*
X127638592Y-122844632D01*
X127666684Y-122750267D01*
X127697998Y-122647354D01*
X127730095Y-122543830D01*
X127760539Y-122447632D01*
X127786893Y-122366699D01*
X127806719Y-122308967D01*
X127817294Y-122282834D01*
X127840876Y-122279609D01*
X127888373Y-122289712D01*
G04 #@! TD*
D11*
G04 #@! TO.P,X1,5*
G04 #@! TO.N,Net-(X1-Pad5)*
X159180200Y-112098400D03*
G04 #@! TO.P,X1,6*
G04 #@! TO.N,Net-(X1-Pad6)*
X159180200Y-114638400D03*
D12*
G04 #@! TO.P,X1,3*
G04 #@! TO.N,Net-(X1-Pad3)*
X156640200Y-112098400D03*
G04 #@! TO.P,X1,4*
G04 #@! TO.N,Net-(X1-Pad4)*
X156640200Y-114638400D03*
G04 #@! TO.P,X1,1*
G04 #@! TO.N,VCC*
X154100200Y-112098400D03*
D13*
G04 #@! TO.P,X1,2*
G04 #@! TO.N,GND*
X154100200Y-114638400D03*
G04 #@! TD*
D14*
G04 #@! TO.P,D1,1*
G04 #@! TO.N,GND*
X147550000Y-83740000D03*
D15*
G04 #@! TO.P,D1,2*
G04 #@! TO.N,VCC*
X147550000Y-81200000D03*
G04 #@! TD*
D16*
G04 #@! TO.N,GND*
X147550000Y-108088200D02*
X147550000Y-83740000D01*
X154100200Y-114638400D02*
X147550000Y-108088200D01*
G04 #@! TO.N,VCC*
X154100200Y-87750200D02*
X147550000Y-81200000D01*
X154100200Y-112098400D02*
X154100200Y-87750200D01*
G04 #@! TD*
M02*
