G04 #@! TF.GenerationSoftware,KiCad,Pcbnew,(5.1.10)-1*
G04 #@! TF.CreationDate,2021-09-01T23:48:31-05:00*
G04 #@! TF.ProjectId,Bsides-KC-2021-Cerner-Sponsor-SAO-SVG2Shenzen v1_00 (Paths),42736964-6573-42d4-9b43-2d323032312d,rev?*
G04 #@! TF.SameCoordinates,Original*
G04 #@! TF.FileFunction,Soldermask,Top*
G04 #@! TF.FilePolarity,Negative*
%FSLAX46Y46*%
G04 Gerber Fmt 4.6, Leading zero omitted, Abs format (unit mm)*
G04 Created by KiCad (PCBNEW (5.1.10)-1) date 2021-09-01 23:48:31*
%MOMM*%
%LPD*%
G01*
G04 APERTURE LIST*
%ADD10C,0.010000*%
%ADD11C,2.127200*%
%ADD12O,2.127200X2.127200*%
G04 APERTURE END LIST*
D10*
G04 #@! TO.C,G\u002A\u002A\u002A*
G36*
X146923932Y-84484469D02*
G01*
X146955948Y-84531250D01*
X147001493Y-84601379D01*
X147056349Y-84688436D01*
X147079000Y-84725015D01*
X147238206Y-84968236D01*
X147395777Y-85175702D01*
X147557992Y-85353243D01*
X147731128Y-85506692D01*
X147921462Y-85641881D01*
X148135273Y-85764640D01*
X148269675Y-85831107D01*
X148514220Y-85934699D01*
X148797293Y-86033823D01*
X149115245Y-86127651D01*
X149464428Y-86215356D01*
X149841193Y-86296109D01*
X150241892Y-86369083D01*
X150662876Y-86433450D01*
X151100496Y-86488383D01*
X151227667Y-86502186D01*
X151318677Y-86509085D01*
X151446946Y-86514961D01*
X151607412Y-86519817D01*
X151795012Y-86523651D01*
X152004684Y-86526465D01*
X152231367Y-86528259D01*
X152469997Y-86529034D01*
X152715512Y-86528789D01*
X152962851Y-86527525D01*
X153206951Y-86525242D01*
X153442750Y-86521942D01*
X153665185Y-86517624D01*
X153869195Y-86512288D01*
X154049717Y-86505935D01*
X154138084Y-86501962D01*
X154438156Y-86486955D01*
X154733810Y-86471751D01*
X155027639Y-86456185D01*
X155322234Y-86440090D01*
X155620187Y-86423298D01*
X155924092Y-86405642D01*
X156236539Y-86386956D01*
X156560121Y-86367072D01*
X156897430Y-86345824D01*
X157251058Y-86323045D01*
X157623598Y-86298567D01*
X158017642Y-86272224D01*
X158435781Y-86243849D01*
X158880608Y-86213275D01*
X159354716Y-86180334D01*
X159860695Y-86144861D01*
X160401139Y-86106687D01*
X160978640Y-86065647D01*
X161588750Y-86022076D01*
X161911004Y-85999069D01*
X162235751Y-85975987D01*
X162558678Y-85953132D01*
X162875472Y-85930803D01*
X163181818Y-85909304D01*
X163473402Y-85888933D01*
X163745911Y-85869993D01*
X163995031Y-85852785D01*
X164216447Y-85837610D01*
X164405847Y-85824769D01*
X164558915Y-85814562D01*
X164605000Y-85811545D01*
X164796444Y-85799093D01*
X164983054Y-85786953D01*
X165158605Y-85775530D01*
X165316875Y-85765229D01*
X165451639Y-85756455D01*
X165556674Y-85749613D01*
X165625757Y-85745109D01*
X165626292Y-85745074D01*
X165725648Y-85739857D01*
X165789085Y-85740054D01*
X165822719Y-85746059D01*
X165832666Y-85758268D01*
X165832667Y-85758394D01*
X165821339Y-85785983D01*
X165789040Y-85844861D01*
X165738298Y-85931107D01*
X165671641Y-86040798D01*
X165591597Y-86170012D01*
X165500694Y-86314824D01*
X165401460Y-86471315D01*
X165296421Y-86635559D01*
X165188108Y-86803636D01*
X165079046Y-86971622D01*
X164971765Y-87135596D01*
X164868791Y-87291633D01*
X164772654Y-87435813D01*
X164685880Y-87564211D01*
X164610999Y-87672907D01*
X164550536Y-87757976D01*
X164507021Y-87815497D01*
X164506777Y-87815800D01*
X164442212Y-87892423D01*
X164376468Y-87962081D01*
X164307049Y-88025426D01*
X164231459Y-88083112D01*
X164147204Y-88135791D01*
X164051786Y-88184116D01*
X163942712Y-88228740D01*
X163817485Y-88270315D01*
X163673610Y-88309494D01*
X163508591Y-88346931D01*
X163319934Y-88383278D01*
X163105142Y-88419187D01*
X162861719Y-88455312D01*
X162587172Y-88492305D01*
X162279003Y-88530820D01*
X161934718Y-88571508D01*
X161551821Y-88615024D01*
X161377084Y-88634500D01*
X160934519Y-88682870D01*
X160513778Y-88727221D01*
X160110087Y-88767898D01*
X159718669Y-88805245D01*
X159334751Y-88839608D01*
X158953556Y-88871331D01*
X158570309Y-88900758D01*
X158180235Y-88928236D01*
X157778559Y-88954108D01*
X157360505Y-88978720D01*
X156921299Y-89002416D01*
X156456165Y-89025541D01*
X155960327Y-89048440D01*
X155429012Y-89071458D01*
X155185834Y-89081586D01*
X155046011Y-89086512D01*
X154876319Y-89091104D01*
X154681290Y-89095336D01*
X154465452Y-89099180D01*
X154233337Y-89102609D01*
X153989475Y-89105595D01*
X153738396Y-89108113D01*
X153484630Y-89110133D01*
X153232710Y-89111630D01*
X152987163Y-89112576D01*
X152752522Y-89112944D01*
X152533316Y-89112706D01*
X152334076Y-89111835D01*
X152159333Y-89110304D01*
X152013616Y-89108086D01*
X151901456Y-89105154D01*
X151830917Y-89101740D01*
X151671271Y-89087455D01*
X151478909Y-89065440D01*
X151262477Y-89036971D01*
X151030622Y-89003323D01*
X150791993Y-88965772D01*
X150555237Y-88925594D01*
X150329000Y-88884063D01*
X150247143Y-88868104D01*
X149803335Y-88772855D01*
X149377814Y-88667302D01*
X148972873Y-88552429D01*
X148590801Y-88429218D01*
X148233891Y-88298654D01*
X147904433Y-88161721D01*
X147604719Y-88019400D01*
X147337038Y-87872677D01*
X147103684Y-87722535D01*
X146906945Y-87569957D01*
X146749115Y-87415926D01*
X146686059Y-87339405D01*
X146556409Y-87135425D01*
X146452427Y-86904067D01*
X146374749Y-86652093D01*
X146324010Y-86386265D01*
X146300847Y-86113344D01*
X146305894Y-85840092D01*
X146339788Y-85573271D01*
X146403165Y-85319642D01*
X146477897Y-85125559D01*
X146507197Y-85068859D01*
X146551449Y-84992277D01*
X146606206Y-84902591D01*
X146667021Y-84806579D01*
X146729448Y-84711020D01*
X146789040Y-84622690D01*
X146841349Y-84548369D01*
X146881928Y-84494834D01*
X146906331Y-84468864D01*
X146909667Y-84467455D01*
X146923932Y-84484469D01*
G37*
X146923932Y-84484469D02*
X146955948Y-84531250D01*
X147001493Y-84601379D01*
X147056349Y-84688436D01*
X147079000Y-84725015D01*
X147238206Y-84968236D01*
X147395777Y-85175702D01*
X147557992Y-85353243D01*
X147731128Y-85506692D01*
X147921462Y-85641881D01*
X148135273Y-85764640D01*
X148269675Y-85831107D01*
X148514220Y-85934699D01*
X148797293Y-86033823D01*
X149115245Y-86127651D01*
X149464428Y-86215356D01*
X149841193Y-86296109D01*
X150241892Y-86369083D01*
X150662876Y-86433450D01*
X151100496Y-86488383D01*
X151227667Y-86502186D01*
X151318677Y-86509085D01*
X151446946Y-86514961D01*
X151607412Y-86519817D01*
X151795012Y-86523651D01*
X152004684Y-86526465D01*
X152231367Y-86528259D01*
X152469997Y-86529034D01*
X152715512Y-86528789D01*
X152962851Y-86527525D01*
X153206951Y-86525242D01*
X153442750Y-86521942D01*
X153665185Y-86517624D01*
X153869195Y-86512288D01*
X154049717Y-86505935D01*
X154138084Y-86501962D01*
X154438156Y-86486955D01*
X154733810Y-86471751D01*
X155027639Y-86456185D01*
X155322234Y-86440090D01*
X155620187Y-86423298D01*
X155924092Y-86405642D01*
X156236539Y-86386956D01*
X156560121Y-86367072D01*
X156897430Y-86345824D01*
X157251058Y-86323045D01*
X157623598Y-86298567D01*
X158017642Y-86272224D01*
X158435781Y-86243849D01*
X158880608Y-86213275D01*
X159354716Y-86180334D01*
X159860695Y-86144861D01*
X160401139Y-86106687D01*
X160978640Y-86065647D01*
X161588750Y-86022076D01*
X161911004Y-85999069D01*
X162235751Y-85975987D01*
X162558678Y-85953132D01*
X162875472Y-85930803D01*
X163181818Y-85909304D01*
X163473402Y-85888933D01*
X163745911Y-85869993D01*
X163995031Y-85852785D01*
X164216447Y-85837610D01*
X164405847Y-85824769D01*
X164558915Y-85814562D01*
X164605000Y-85811545D01*
X164796444Y-85799093D01*
X164983054Y-85786953D01*
X165158605Y-85775530D01*
X165316875Y-85765229D01*
X165451639Y-85756455D01*
X165556674Y-85749613D01*
X165625757Y-85745109D01*
X165626292Y-85745074D01*
X165725648Y-85739857D01*
X165789085Y-85740054D01*
X165822719Y-85746059D01*
X165832666Y-85758268D01*
X165832667Y-85758394D01*
X165821339Y-85785983D01*
X165789040Y-85844861D01*
X165738298Y-85931107D01*
X165671641Y-86040798D01*
X165591597Y-86170012D01*
X165500694Y-86314824D01*
X165401460Y-86471315D01*
X165296421Y-86635559D01*
X165188108Y-86803636D01*
X165079046Y-86971622D01*
X164971765Y-87135596D01*
X164868791Y-87291633D01*
X164772654Y-87435813D01*
X164685880Y-87564211D01*
X164610999Y-87672907D01*
X164550536Y-87757976D01*
X164507021Y-87815497D01*
X164506777Y-87815800D01*
X164442212Y-87892423D01*
X164376468Y-87962081D01*
X164307049Y-88025426D01*
X164231459Y-88083112D01*
X164147204Y-88135791D01*
X164051786Y-88184116D01*
X163942712Y-88228740D01*
X163817485Y-88270315D01*
X163673610Y-88309494D01*
X163508591Y-88346931D01*
X163319934Y-88383278D01*
X163105142Y-88419187D01*
X162861719Y-88455312D01*
X162587172Y-88492305D01*
X162279003Y-88530820D01*
X161934718Y-88571508D01*
X161551821Y-88615024D01*
X161377084Y-88634500D01*
X160934519Y-88682870D01*
X160513778Y-88727221D01*
X160110087Y-88767898D01*
X159718669Y-88805245D01*
X159334751Y-88839608D01*
X158953556Y-88871331D01*
X158570309Y-88900758D01*
X158180235Y-88928236D01*
X157778559Y-88954108D01*
X157360505Y-88978720D01*
X156921299Y-89002416D01*
X156456165Y-89025541D01*
X155960327Y-89048440D01*
X155429012Y-89071458D01*
X155185834Y-89081586D01*
X155046011Y-89086512D01*
X154876319Y-89091104D01*
X154681290Y-89095336D01*
X154465452Y-89099180D01*
X154233337Y-89102609D01*
X153989475Y-89105595D01*
X153738396Y-89108113D01*
X153484630Y-89110133D01*
X153232710Y-89111630D01*
X152987163Y-89112576D01*
X152752522Y-89112944D01*
X152533316Y-89112706D01*
X152334076Y-89111835D01*
X152159333Y-89110304D01*
X152013616Y-89108086D01*
X151901456Y-89105154D01*
X151830917Y-89101740D01*
X151671271Y-89087455D01*
X151478909Y-89065440D01*
X151262477Y-89036971D01*
X151030622Y-89003323D01*
X150791993Y-88965772D01*
X150555237Y-88925594D01*
X150329000Y-88884063D01*
X150247143Y-88868104D01*
X149803335Y-88772855D01*
X149377814Y-88667302D01*
X148972873Y-88552429D01*
X148590801Y-88429218D01*
X148233891Y-88298654D01*
X147904433Y-88161721D01*
X147604719Y-88019400D01*
X147337038Y-87872677D01*
X147103684Y-87722535D01*
X146906945Y-87569957D01*
X146749115Y-87415926D01*
X146686059Y-87339405D01*
X146556409Y-87135425D01*
X146452427Y-86904067D01*
X146374749Y-86652093D01*
X146324010Y-86386265D01*
X146300847Y-86113344D01*
X146305894Y-85840092D01*
X146339788Y-85573271D01*
X146403165Y-85319642D01*
X146477897Y-85125559D01*
X146507197Y-85068859D01*
X146551449Y-84992277D01*
X146606206Y-84902591D01*
X146667021Y-84806579D01*
X146729448Y-84711020D01*
X146789040Y-84622690D01*
X146841349Y-84548369D01*
X146881928Y-84494834D01*
X146906331Y-84468864D01*
X146909667Y-84467455D01*
X146923932Y-84484469D01*
G36*
X163454618Y-89201419D02*
G01*
X163472112Y-89207783D01*
X163474261Y-89210214D01*
X163469571Y-89236355D01*
X163446199Y-89289495D01*
X163408274Y-89360974D01*
X163376350Y-89415522D01*
X163315290Y-89513691D01*
X163238054Y-89633892D01*
X163147083Y-89772608D01*
X163044820Y-89926323D01*
X162933705Y-90091523D01*
X162816180Y-90264692D01*
X162694687Y-90442314D01*
X162571668Y-90620874D01*
X162449564Y-90796856D01*
X162330816Y-90966745D01*
X162217867Y-91127025D01*
X162113158Y-91274181D01*
X162019130Y-91404697D01*
X161938225Y-91515057D01*
X161872885Y-91601747D01*
X161825551Y-91661251D01*
X161798665Y-91690053D01*
X161795205Y-91692116D01*
X161759148Y-91700264D01*
X161686646Y-91714541D01*
X161582995Y-91734016D01*
X161453490Y-91757754D01*
X161303428Y-91784821D01*
X161138102Y-91814283D01*
X160962810Y-91845207D01*
X160782846Y-91876658D01*
X160603505Y-91907703D01*
X160430083Y-91937408D01*
X160267875Y-91964839D01*
X160122177Y-91989061D01*
X159998284Y-92009142D01*
X159990667Y-92010353D01*
X159380160Y-92101113D01*
X158770831Y-92179176D01*
X158157504Y-92244874D01*
X157535003Y-92298539D01*
X156898151Y-92340503D01*
X156241773Y-92371098D01*
X155560692Y-92390656D01*
X154849732Y-92399509D01*
X154103718Y-92397990D01*
X153968750Y-92396678D01*
X153599697Y-92391867D01*
X153267160Y-92385484D01*
X152965331Y-92376977D01*
X152688406Y-92365792D01*
X152430578Y-92351377D01*
X152186042Y-92333179D01*
X151948992Y-92310645D01*
X151713621Y-92283223D01*
X151474124Y-92250359D01*
X151224694Y-92211502D01*
X150959527Y-92166098D01*
X150672816Y-92113594D01*
X150358754Y-92053437D01*
X150354112Y-92052533D01*
X150006342Y-91986104D01*
X149696376Y-91929878D01*
X149420988Y-91883632D01*
X149176952Y-91847141D01*
X148961042Y-91820184D01*
X148770033Y-91802536D01*
X148600698Y-91793974D01*
X148449813Y-91794275D01*
X148314151Y-91803215D01*
X148190486Y-91820571D01*
X148075593Y-91846119D01*
X147966246Y-91879637D01*
X147948436Y-91885946D01*
X147834981Y-91931099D01*
X147727186Y-91983909D01*
X147620937Y-92047722D01*
X147512122Y-92125887D01*
X147396627Y-92221751D01*
X147270341Y-92338660D01*
X147129149Y-92479963D01*
X146968938Y-92649006D01*
X146844155Y-92784667D01*
X146757297Y-92879456D01*
X146679869Y-92962986D01*
X146616467Y-93030379D01*
X146571689Y-93076752D01*
X146550132Y-93097226D01*
X146549294Y-93097723D01*
X146536067Y-93081546D01*
X146509468Y-93032892D01*
X146472729Y-92958223D01*
X146429085Y-92864002D01*
X146402374Y-92804061D01*
X146321158Y-92615314D01*
X146257049Y-92455622D01*
X146207559Y-92316518D01*
X146170200Y-92189531D01*
X146142483Y-92066192D01*
X146121920Y-91938032D01*
X146106023Y-91796583D01*
X146105859Y-91794853D01*
X146097807Y-91498871D01*
X146128490Y-91205062D01*
X146195905Y-90918144D01*
X146298046Y-90642834D01*
X146432908Y-90383847D01*
X146598485Y-90145901D01*
X146792774Y-89933711D01*
X146956330Y-89794154D01*
X147149079Y-89662966D01*
X147356199Y-89550367D01*
X147568296Y-89460290D01*
X147775976Y-89396667D01*
X147969843Y-89363429D01*
X147989167Y-89361851D01*
X148111608Y-89359247D01*
X148270452Y-89365855D01*
X148460918Y-89381086D01*
X148678224Y-89404355D01*
X148917591Y-89435074D01*
X149174237Y-89472657D01*
X149443380Y-89516518D01*
X149720241Y-89566069D01*
X149841250Y-89589131D01*
X150196183Y-89656122D01*
X150521839Y-89713131D01*
X150828984Y-89761572D01*
X151128381Y-89802855D01*
X151430795Y-89838394D01*
X151746988Y-89869600D01*
X152087726Y-89897886D01*
X152328334Y-89915435D01*
X152990682Y-89953188D01*
X153687766Y-89976864D01*
X154414431Y-89986564D01*
X155165525Y-89982390D01*
X155935892Y-89964444D01*
X156720380Y-89932825D01*
X157513836Y-89887636D01*
X158311105Y-89828979D01*
X158773584Y-89788793D01*
X159192301Y-89748886D01*
X159593613Y-89707498D01*
X159986461Y-89663519D01*
X160379786Y-89615844D01*
X160782530Y-89563363D01*
X161203633Y-89504970D01*
X161652038Y-89439556D01*
X161927417Y-89398073D01*
X162227620Y-89352637D01*
X162488500Y-89313723D01*
X162712511Y-89281032D01*
X162902111Y-89254268D01*
X163059756Y-89233131D01*
X163187902Y-89217324D01*
X163289005Y-89206547D01*
X163365521Y-89200503D01*
X163419907Y-89198893D01*
X163454618Y-89201419D01*
G37*
X163454618Y-89201419D02*
X163472112Y-89207783D01*
X163474261Y-89210214D01*
X163469571Y-89236355D01*
X163446199Y-89289495D01*
X163408274Y-89360974D01*
X163376350Y-89415522D01*
X163315290Y-89513691D01*
X163238054Y-89633892D01*
X163147083Y-89772608D01*
X163044820Y-89926323D01*
X162933705Y-90091523D01*
X162816180Y-90264692D01*
X162694687Y-90442314D01*
X162571668Y-90620874D01*
X162449564Y-90796856D01*
X162330816Y-90966745D01*
X162217867Y-91127025D01*
X162113158Y-91274181D01*
X162019130Y-91404697D01*
X161938225Y-91515057D01*
X161872885Y-91601747D01*
X161825551Y-91661251D01*
X161798665Y-91690053D01*
X161795205Y-91692116D01*
X161759148Y-91700264D01*
X161686646Y-91714541D01*
X161582995Y-91734016D01*
X161453490Y-91757754D01*
X161303428Y-91784821D01*
X161138102Y-91814283D01*
X160962810Y-91845207D01*
X160782846Y-91876658D01*
X160603505Y-91907703D01*
X160430083Y-91937408D01*
X160267875Y-91964839D01*
X160122177Y-91989061D01*
X159998284Y-92009142D01*
X159990667Y-92010353D01*
X159380160Y-92101113D01*
X158770831Y-92179176D01*
X158157504Y-92244874D01*
X157535003Y-92298539D01*
X156898151Y-92340503D01*
X156241773Y-92371098D01*
X155560692Y-92390656D01*
X154849732Y-92399509D01*
X154103718Y-92397990D01*
X153968750Y-92396678D01*
X153599697Y-92391867D01*
X153267160Y-92385484D01*
X152965331Y-92376977D01*
X152688406Y-92365792D01*
X152430578Y-92351377D01*
X152186042Y-92333179D01*
X151948992Y-92310645D01*
X151713621Y-92283223D01*
X151474124Y-92250359D01*
X151224694Y-92211502D01*
X150959527Y-92166098D01*
X150672816Y-92113594D01*
X150358754Y-92053437D01*
X150354112Y-92052533D01*
X150006342Y-91986104D01*
X149696376Y-91929878D01*
X149420988Y-91883632D01*
X149176952Y-91847141D01*
X148961042Y-91820184D01*
X148770033Y-91802536D01*
X148600698Y-91793974D01*
X148449813Y-91794275D01*
X148314151Y-91803215D01*
X148190486Y-91820571D01*
X148075593Y-91846119D01*
X147966246Y-91879637D01*
X147948436Y-91885946D01*
X147834981Y-91931099D01*
X147727186Y-91983909D01*
X147620937Y-92047722D01*
X147512122Y-92125887D01*
X147396627Y-92221751D01*
X147270341Y-92338660D01*
X147129149Y-92479963D01*
X146968938Y-92649006D01*
X146844155Y-92784667D01*
X146757297Y-92879456D01*
X146679869Y-92962986D01*
X146616467Y-93030379D01*
X146571689Y-93076752D01*
X146550132Y-93097226D01*
X146549294Y-93097723D01*
X146536067Y-93081546D01*
X146509468Y-93032892D01*
X146472729Y-92958223D01*
X146429085Y-92864002D01*
X146402374Y-92804061D01*
X146321158Y-92615314D01*
X146257049Y-92455622D01*
X146207559Y-92316518D01*
X146170200Y-92189531D01*
X146142483Y-92066192D01*
X146121920Y-91938032D01*
X146106023Y-91796583D01*
X146105859Y-91794853D01*
X146097807Y-91498871D01*
X146128490Y-91205062D01*
X146195905Y-90918144D01*
X146298046Y-90642834D01*
X146432908Y-90383847D01*
X146598485Y-90145901D01*
X146792774Y-89933711D01*
X146956330Y-89794154D01*
X147149079Y-89662966D01*
X147356199Y-89550367D01*
X147568296Y-89460290D01*
X147775976Y-89396667D01*
X147969843Y-89363429D01*
X147989167Y-89361851D01*
X148111608Y-89359247D01*
X148270452Y-89365855D01*
X148460918Y-89381086D01*
X148678224Y-89404355D01*
X148917591Y-89435074D01*
X149174237Y-89472657D01*
X149443380Y-89516518D01*
X149720241Y-89566069D01*
X149841250Y-89589131D01*
X150196183Y-89656122D01*
X150521839Y-89713131D01*
X150828984Y-89761572D01*
X151128381Y-89802855D01*
X151430795Y-89838394D01*
X151746988Y-89869600D01*
X152087726Y-89897886D01*
X152328334Y-89915435D01*
X152990682Y-89953188D01*
X153687766Y-89976864D01*
X154414431Y-89986564D01*
X155165525Y-89982390D01*
X155935892Y-89964444D01*
X156720380Y-89932825D01*
X157513836Y-89887636D01*
X158311105Y-89828979D01*
X158773584Y-89788793D01*
X159192301Y-89748886D01*
X159593613Y-89707498D01*
X159986461Y-89663519D01*
X160379786Y-89615844D01*
X160782530Y-89563363D01*
X161203633Y-89504970D01*
X161652038Y-89439556D01*
X161927417Y-89398073D01*
X162227620Y-89352637D01*
X162488500Y-89313723D01*
X162712511Y-89281032D01*
X162902111Y-89254268D01*
X163059756Y-89233131D01*
X163187902Y-89217324D01*
X163289005Y-89206547D01*
X163365521Y-89200503D01*
X163419907Y-89198893D01*
X163454618Y-89201419D01*
G04 #@! TD*
D11*
G04 #@! TO.C,X1*
X151480200Y-113698400D03*
X151480200Y-116238400D03*
D12*
X148940200Y-113698400D03*
X148940200Y-116238400D03*
X146400200Y-113698400D03*
G36*
G01*
X145536600Y-115174800D02*
X147263800Y-115174800D01*
G75*
G02*
X147463800Y-115374800I0J-200000D01*
G01*
X147463800Y-117102000D01*
G75*
G02*
X147263800Y-117302000I-200000J0D01*
G01*
X145536600Y-117302000D01*
G75*
G02*
X145336600Y-117102000I0J200000D01*
G01*
X145336600Y-115374800D01*
G75*
G02*
X145536600Y-115174800I200000J0D01*
G01*
G37*
G04 #@! TD*
M02*
