G04 #@! TF.GenerationSoftware,KiCad,Pcbnew,(5.1.10)-1*
G04 #@! TF.CreationDate,2021-09-01T23:48:31-05:00*
G04 #@! TF.ProjectId,Bsides-KC-2021-Cerner-Sponsor-SAO-SVG2Shenzen v1_00 (Paths),42736964-6573-42d4-9b43-2d323032312d,rev?*
G04 #@! TF.SameCoordinates,Original*
G04 #@! TF.FileFunction,Legend,Top*
G04 #@! TF.FilePolarity,Positive*
%FSLAX46Y46*%
G04 Gerber Fmt 4.6, Leading zero omitted, Abs format (unit mm)*
G04 Created by KiCad (PCBNEW (5.1.10)-1) date 2021-09-01 23:48:31*
%MOMM*%
%LPD*%
G01*
G04 APERTURE LIST*
%ADD10C,0.010000*%
G04 APERTURE END LIST*
D10*
G04 #@! TO.C,G\u002A\u002A\u002A*
G36*
X154061430Y-81212144D02*
G01*
X154653398Y-81270617D01*
X155243505Y-81368323D01*
X155829343Y-81505340D01*
X156408506Y-81681749D01*
X156417302Y-81684755D01*
X156881640Y-81859624D01*
X157337971Y-82062766D01*
X157781028Y-82291001D01*
X158205547Y-82541150D01*
X158606261Y-82810032D01*
X158977905Y-83094468D01*
X159315213Y-83391279D01*
X159431361Y-83504705D01*
X159569713Y-83647882D01*
X159711702Y-83802055D01*
X159854408Y-83963461D01*
X159994907Y-84128333D01*
X160130279Y-84292905D01*
X160257603Y-84453414D01*
X160373955Y-84606093D01*
X160476415Y-84747176D01*
X160562061Y-84872900D01*
X160627972Y-84979497D01*
X160671225Y-85063203D01*
X160688900Y-85120253D01*
X160689167Y-85125756D01*
X160686849Y-85143855D01*
X160676250Y-85158093D01*
X160651898Y-85169669D01*
X160608324Y-85179783D01*
X160540058Y-85189635D01*
X160441630Y-85200422D01*
X160307570Y-85213346D01*
X160276417Y-85216253D01*
X159809885Y-85256405D01*
X159377213Y-85286661D01*
X158971196Y-85307409D01*
X158584630Y-85319037D01*
X158307917Y-85321994D01*
X158109568Y-85322325D01*
X157948131Y-85321466D01*
X157818183Y-85318159D01*
X157714303Y-85311145D01*
X157631070Y-85299167D01*
X157563062Y-85280965D01*
X157504856Y-85255281D01*
X157451032Y-85220858D01*
X157396167Y-85176436D01*
X157334840Y-85120758D01*
X157299743Y-85088010D01*
X157097441Y-84917576D01*
X156859366Y-84748573D01*
X156592047Y-84584031D01*
X156302014Y-84426984D01*
X155995797Y-84280464D01*
X155679925Y-84147505D01*
X155360929Y-84031139D01*
X155045337Y-83934398D01*
X154739680Y-83860316D01*
X154599497Y-83833879D01*
X154187406Y-83780261D01*
X153764614Y-83756157D01*
X153335843Y-83760583D01*
X152905818Y-83792555D01*
X152479263Y-83851087D01*
X152060902Y-83935195D01*
X151655458Y-84043896D01*
X151267656Y-84176204D01*
X150902220Y-84331135D01*
X150563872Y-84507705D01*
X150257338Y-84704929D01*
X150193142Y-84752121D01*
X150101698Y-84826325D01*
X149993293Y-84922599D01*
X149878661Y-85030998D01*
X149768533Y-85141572D01*
X149735787Y-85176014D01*
X149616262Y-85300410D01*
X149517300Y-85394411D01*
X149432931Y-85460611D01*
X149357184Y-85501601D01*
X149284089Y-85519972D01*
X149207677Y-85518319D01*
X149121976Y-85499231D01*
X149047500Y-85474852D01*
X148921999Y-85424407D01*
X148775092Y-85355908D01*
X148619199Y-85275968D01*
X148466735Y-85191200D01*
X148330118Y-85108217D01*
X148228530Y-85038708D01*
X148116124Y-84947724D01*
X147997042Y-84838851D01*
X147879735Y-84720921D01*
X147772659Y-84602763D01*
X147684267Y-84493207D01*
X147630526Y-84414094D01*
X147568425Y-84297025D01*
X147520098Y-84180281D01*
X147489939Y-84075787D01*
X147481858Y-84010756D01*
X147496672Y-83932807D01*
X147543177Y-83837714D01*
X147622199Y-83724421D01*
X147734565Y-83591870D01*
X147881100Y-83439006D01*
X148062633Y-83264773D01*
X148073601Y-83254594D01*
X148403029Y-82964810D01*
X148745073Y-82693271D01*
X149093566Y-82444183D01*
X149442345Y-82221750D01*
X149785242Y-82030177D01*
X150067683Y-81894653D01*
X150605296Y-81680728D01*
X151157895Y-81505478D01*
X151723072Y-81368983D01*
X152298420Y-81271323D01*
X152881534Y-81212576D01*
X153470006Y-81192824D01*
X154061430Y-81212144D01*
G37*
X154061430Y-81212144D02*
X154653398Y-81270617D01*
X155243505Y-81368323D01*
X155829343Y-81505340D01*
X156408506Y-81681749D01*
X156417302Y-81684755D01*
X156881640Y-81859624D01*
X157337971Y-82062766D01*
X157781028Y-82291001D01*
X158205547Y-82541150D01*
X158606261Y-82810032D01*
X158977905Y-83094468D01*
X159315213Y-83391279D01*
X159431361Y-83504705D01*
X159569713Y-83647882D01*
X159711702Y-83802055D01*
X159854408Y-83963461D01*
X159994907Y-84128333D01*
X160130279Y-84292905D01*
X160257603Y-84453414D01*
X160373955Y-84606093D01*
X160476415Y-84747176D01*
X160562061Y-84872900D01*
X160627972Y-84979497D01*
X160671225Y-85063203D01*
X160688900Y-85120253D01*
X160689167Y-85125756D01*
X160686849Y-85143855D01*
X160676250Y-85158093D01*
X160651898Y-85169669D01*
X160608324Y-85179783D01*
X160540058Y-85189635D01*
X160441630Y-85200422D01*
X160307570Y-85213346D01*
X160276417Y-85216253D01*
X159809885Y-85256405D01*
X159377213Y-85286661D01*
X158971196Y-85307409D01*
X158584630Y-85319037D01*
X158307917Y-85321994D01*
X158109568Y-85322325D01*
X157948131Y-85321466D01*
X157818183Y-85318159D01*
X157714303Y-85311145D01*
X157631070Y-85299167D01*
X157563062Y-85280965D01*
X157504856Y-85255281D01*
X157451032Y-85220858D01*
X157396167Y-85176436D01*
X157334840Y-85120758D01*
X157299743Y-85088010D01*
X157097441Y-84917576D01*
X156859366Y-84748573D01*
X156592047Y-84584031D01*
X156302014Y-84426984D01*
X155995797Y-84280464D01*
X155679925Y-84147505D01*
X155360929Y-84031139D01*
X155045337Y-83934398D01*
X154739680Y-83860316D01*
X154599497Y-83833879D01*
X154187406Y-83780261D01*
X153764614Y-83756157D01*
X153335843Y-83760583D01*
X152905818Y-83792555D01*
X152479263Y-83851087D01*
X152060902Y-83935195D01*
X151655458Y-84043896D01*
X151267656Y-84176204D01*
X150902220Y-84331135D01*
X150563872Y-84507705D01*
X150257338Y-84704929D01*
X150193142Y-84752121D01*
X150101698Y-84826325D01*
X149993293Y-84922599D01*
X149878661Y-85030998D01*
X149768533Y-85141572D01*
X149735787Y-85176014D01*
X149616262Y-85300410D01*
X149517300Y-85394411D01*
X149432931Y-85460611D01*
X149357184Y-85501601D01*
X149284089Y-85519972D01*
X149207677Y-85518319D01*
X149121976Y-85499231D01*
X149047500Y-85474852D01*
X148921999Y-85424407D01*
X148775092Y-85355908D01*
X148619199Y-85275968D01*
X148466735Y-85191200D01*
X148330118Y-85108217D01*
X148228530Y-85038708D01*
X148116124Y-84947724D01*
X147997042Y-84838851D01*
X147879735Y-84720921D01*
X147772659Y-84602763D01*
X147684267Y-84493207D01*
X147630526Y-84414094D01*
X147568425Y-84297025D01*
X147520098Y-84180281D01*
X147489939Y-84075787D01*
X147481858Y-84010756D01*
X147496672Y-83932807D01*
X147543177Y-83837714D01*
X147622199Y-83724421D01*
X147734565Y-83591870D01*
X147881100Y-83439006D01*
X148062633Y-83264773D01*
X148073601Y-83254594D01*
X148403029Y-82964810D01*
X148745073Y-82693271D01*
X149093566Y-82444183D01*
X149442345Y-82221750D01*
X149785242Y-82030177D01*
X150067683Y-81894653D01*
X150605296Y-81680728D01*
X151157895Y-81505478D01*
X151723072Y-81368983D01*
X152298420Y-81271323D01*
X152881534Y-81212576D01*
X153470006Y-81192824D01*
X154061430Y-81212144D01*
G36*
X148903901Y-92338488D02*
G01*
X149089363Y-92390136D01*
X149266905Y-92474187D01*
X149428785Y-92588287D01*
X149469558Y-92624648D01*
X149690765Y-92815621D01*
X149947497Y-93008203D01*
X150233276Y-93198744D01*
X150541620Y-93383600D01*
X150866050Y-93559122D01*
X151200086Y-93721665D01*
X151537248Y-93867581D01*
X151871055Y-93993223D01*
X151947334Y-94019088D01*
X152310984Y-94120809D01*
X152700030Y-94194621D01*
X153108143Y-94240645D01*
X153528997Y-94259003D01*
X153956264Y-94249819D01*
X154383618Y-94213214D01*
X154804730Y-94149311D01*
X155213274Y-94058232D01*
X155577417Y-93948898D01*
X155716917Y-93899592D01*
X155874636Y-93841264D01*
X156030741Y-93781378D01*
X156159500Y-93729834D01*
X156348182Y-93657370D01*
X156548688Y-93591156D01*
X156764358Y-93530589D01*
X156998531Y-93475064D01*
X157254547Y-93423977D01*
X157535744Y-93376723D01*
X157845462Y-93332699D01*
X158187040Y-93291301D01*
X158563817Y-93251923D01*
X158979133Y-93213962D01*
X159038167Y-93208927D01*
X159248761Y-93191795D01*
X159456901Y-93176153D01*
X159657899Y-93162255D01*
X159847066Y-93150355D01*
X160019714Y-93140705D01*
X160171155Y-93133559D01*
X160296698Y-93129170D01*
X160391657Y-93127792D01*
X160451342Y-93129678D01*
X160465926Y-93131777D01*
X160509469Y-93156390D01*
X160519635Y-93192528D01*
X160503766Y-93254547D01*
X160458475Y-93340878D01*
X160386616Y-93448440D01*
X160291044Y-93574155D01*
X160174614Y-93714944D01*
X160040181Y-93867727D01*
X159890601Y-94029424D01*
X159728727Y-94196957D01*
X159557415Y-94367247D01*
X159379521Y-94537213D01*
X159197899Y-94703777D01*
X159015403Y-94863858D01*
X158834890Y-95014379D01*
X158817449Y-95028471D01*
X158502235Y-95264730D01*
X158149750Y-95496286D01*
X157765028Y-95720016D01*
X157385242Y-95917084D01*
X156844637Y-96161146D01*
X156290803Y-96368404D01*
X155720550Y-96539793D01*
X155130686Y-96676248D01*
X154518021Y-96778703D01*
X154381500Y-96796569D01*
X154271292Y-96807256D01*
X154126910Y-96816693D01*
X153956485Y-96824734D01*
X153768148Y-96831235D01*
X153570026Y-96836053D01*
X153370252Y-96839042D01*
X153176953Y-96840059D01*
X152998261Y-96838959D01*
X152842305Y-96835598D01*
X152717214Y-96829831D01*
X152677584Y-96826813D01*
X152120775Y-96756238D01*
X151567431Y-96643991D01*
X151019803Y-96490717D01*
X150480143Y-96297060D01*
X149950702Y-96063665D01*
X149865852Y-96022061D01*
X149666325Y-95914711D01*
X149453336Y-95785390D01*
X149230665Y-95637406D01*
X149002088Y-95474064D01*
X148771385Y-95298669D01*
X148542334Y-95114529D01*
X148318715Y-94924949D01*
X148104304Y-94733234D01*
X147902880Y-94542691D01*
X147718223Y-94356625D01*
X147554110Y-94178344D01*
X147414320Y-94011151D01*
X147302632Y-93858354D01*
X147222823Y-93723258D01*
X147211469Y-93699632D01*
X147179685Y-93611859D01*
X147172228Y-93530376D01*
X147190514Y-93444482D01*
X147235960Y-93343474D01*
X147265675Y-93290192D01*
X147359359Y-93155937D01*
X147485279Y-93015300D01*
X147635823Y-92873944D01*
X147803378Y-92737537D01*
X147980331Y-92611741D01*
X148159069Y-92502222D01*
X148331980Y-92414645D01*
X148491449Y-92354675D01*
X148540181Y-92341827D01*
X148718260Y-92321600D01*
X148903901Y-92338488D01*
G37*
X148903901Y-92338488D02*
X149089363Y-92390136D01*
X149266905Y-92474187D01*
X149428785Y-92588287D01*
X149469558Y-92624648D01*
X149690765Y-92815621D01*
X149947497Y-93008203D01*
X150233276Y-93198744D01*
X150541620Y-93383600D01*
X150866050Y-93559122D01*
X151200086Y-93721665D01*
X151537248Y-93867581D01*
X151871055Y-93993223D01*
X151947334Y-94019088D01*
X152310984Y-94120809D01*
X152700030Y-94194621D01*
X153108143Y-94240645D01*
X153528997Y-94259003D01*
X153956264Y-94249819D01*
X154383618Y-94213214D01*
X154804730Y-94149311D01*
X155213274Y-94058232D01*
X155577417Y-93948898D01*
X155716917Y-93899592D01*
X155874636Y-93841264D01*
X156030741Y-93781378D01*
X156159500Y-93729834D01*
X156348182Y-93657370D01*
X156548688Y-93591156D01*
X156764358Y-93530589D01*
X156998531Y-93475064D01*
X157254547Y-93423977D01*
X157535744Y-93376723D01*
X157845462Y-93332699D01*
X158187040Y-93291301D01*
X158563817Y-93251923D01*
X158979133Y-93213962D01*
X159038167Y-93208927D01*
X159248761Y-93191795D01*
X159456901Y-93176153D01*
X159657899Y-93162255D01*
X159847066Y-93150355D01*
X160019714Y-93140705D01*
X160171155Y-93133559D01*
X160296698Y-93129170D01*
X160391657Y-93127792D01*
X160451342Y-93129678D01*
X160465926Y-93131777D01*
X160509469Y-93156390D01*
X160519635Y-93192528D01*
X160503766Y-93254547D01*
X160458475Y-93340878D01*
X160386616Y-93448440D01*
X160291044Y-93574155D01*
X160174614Y-93714944D01*
X160040181Y-93867727D01*
X159890601Y-94029424D01*
X159728727Y-94196957D01*
X159557415Y-94367247D01*
X159379521Y-94537213D01*
X159197899Y-94703777D01*
X159015403Y-94863858D01*
X158834890Y-95014379D01*
X158817449Y-95028471D01*
X158502235Y-95264730D01*
X158149750Y-95496286D01*
X157765028Y-95720016D01*
X157385242Y-95917084D01*
X156844637Y-96161146D01*
X156290803Y-96368404D01*
X155720550Y-96539793D01*
X155130686Y-96676248D01*
X154518021Y-96778703D01*
X154381500Y-96796569D01*
X154271292Y-96807256D01*
X154126910Y-96816693D01*
X153956485Y-96824734D01*
X153768148Y-96831235D01*
X153570026Y-96836053D01*
X153370252Y-96839042D01*
X153176953Y-96840059D01*
X152998261Y-96838959D01*
X152842305Y-96835598D01*
X152717214Y-96829831D01*
X152677584Y-96826813D01*
X152120775Y-96756238D01*
X151567431Y-96643991D01*
X151019803Y-96490717D01*
X150480143Y-96297060D01*
X149950702Y-96063665D01*
X149865852Y-96022061D01*
X149666325Y-95914711D01*
X149453336Y-95785390D01*
X149230665Y-95637406D01*
X149002088Y-95474064D01*
X148771385Y-95298669D01*
X148542334Y-95114529D01*
X148318715Y-94924949D01*
X148104304Y-94733234D01*
X147902880Y-94542691D01*
X147718223Y-94356625D01*
X147554110Y-94178344D01*
X147414320Y-94011151D01*
X147302632Y-93858354D01*
X147222823Y-93723258D01*
X147211469Y-93699632D01*
X147179685Y-93611859D01*
X147172228Y-93530376D01*
X147190514Y-93444482D01*
X147235960Y-93343474D01*
X147265675Y-93290192D01*
X147359359Y-93155937D01*
X147485279Y-93015300D01*
X147635823Y-92873944D01*
X147803378Y-92737537D01*
X147980331Y-92611741D01*
X148159069Y-92502222D01*
X148331980Y-92414645D01*
X148491449Y-92354675D01*
X148540181Y-92341827D01*
X148718260Y-92321600D01*
X148903901Y-92338488D01*
G36*
X174884370Y-101064989D02*
G01*
X174975823Y-101079059D01*
X175039468Y-101105448D01*
X175082231Y-101146562D01*
X175101009Y-101179870D01*
X175120895Y-101247386D01*
X175137117Y-101350160D01*
X175149716Y-101481610D01*
X175158733Y-101635152D01*
X175164206Y-101804203D01*
X175166176Y-101982181D01*
X175164682Y-102162502D01*
X175159766Y-102338583D01*
X175151466Y-102503842D01*
X175139822Y-102651696D01*
X175124875Y-102775561D01*
X175106664Y-102868855D01*
X175090479Y-102915645D01*
X175059910Y-102966400D01*
X175019733Y-103006923D01*
X174963111Y-103040624D01*
X174883206Y-103070915D01*
X174773178Y-103101208D01*
X174670593Y-103125131D01*
X174339784Y-103215277D01*
X174042248Y-103330852D01*
X173777041Y-103472362D01*
X173543219Y-103640309D01*
X173340281Y-103834708D01*
X173245595Y-103944961D01*
X173164684Y-104053226D01*
X173096268Y-104164084D01*
X173039067Y-104282120D01*
X172991801Y-104411915D01*
X172953189Y-104558054D01*
X172921951Y-104725120D01*
X172896807Y-104917695D01*
X172876476Y-105140363D01*
X172859679Y-105397707D01*
X172849826Y-105590500D01*
X172846332Y-105671863D01*
X172841900Y-105785989D01*
X172836700Y-105927663D01*
X172830898Y-106091666D01*
X172824664Y-106272783D01*
X172818166Y-106465796D01*
X172811573Y-106665489D01*
X172805053Y-106866646D01*
X172798774Y-107064049D01*
X172792906Y-107252482D01*
X172787616Y-107426728D01*
X172783073Y-107581571D01*
X172779446Y-107711793D01*
X172776903Y-107812178D01*
X172775612Y-107877510D01*
X172775485Y-107892375D01*
X172775334Y-108003500D01*
X170743334Y-108003500D01*
X170743334Y-101209000D01*
X172796500Y-101209000D01*
X172796876Y-101838709D01*
X172797252Y-102468417D01*
X172905368Y-102299084D01*
X173001023Y-102150445D01*
X173079480Y-102031763D01*
X173145392Y-101936737D01*
X173203414Y-101859068D01*
X173258201Y-101792456D01*
X173314406Y-101730600D01*
X173359712Y-101684120D01*
X173567768Y-101500679D01*
X173795812Y-101345521D01*
X174037852Y-101221317D01*
X174287896Y-101130739D01*
X174539951Y-101076457D01*
X174758182Y-101060834D01*
X174884370Y-101064989D01*
G37*
X174884370Y-101064989D02*
X174975823Y-101079059D01*
X175039468Y-101105448D01*
X175082231Y-101146562D01*
X175101009Y-101179870D01*
X175120895Y-101247386D01*
X175137117Y-101350160D01*
X175149716Y-101481610D01*
X175158733Y-101635152D01*
X175164206Y-101804203D01*
X175166176Y-101982181D01*
X175164682Y-102162502D01*
X175159766Y-102338583D01*
X175151466Y-102503842D01*
X175139822Y-102651696D01*
X175124875Y-102775561D01*
X175106664Y-102868855D01*
X175090479Y-102915645D01*
X175059910Y-102966400D01*
X175019733Y-103006923D01*
X174963111Y-103040624D01*
X174883206Y-103070915D01*
X174773178Y-103101208D01*
X174670593Y-103125131D01*
X174339784Y-103215277D01*
X174042248Y-103330852D01*
X173777041Y-103472362D01*
X173543219Y-103640309D01*
X173340281Y-103834708D01*
X173245595Y-103944961D01*
X173164684Y-104053226D01*
X173096268Y-104164084D01*
X173039067Y-104282120D01*
X172991801Y-104411915D01*
X172953189Y-104558054D01*
X172921951Y-104725120D01*
X172896807Y-104917695D01*
X172876476Y-105140363D01*
X172859679Y-105397707D01*
X172849826Y-105590500D01*
X172846332Y-105671863D01*
X172841900Y-105785989D01*
X172836700Y-105927663D01*
X172830898Y-106091666D01*
X172824664Y-106272783D01*
X172818166Y-106465796D01*
X172811573Y-106665489D01*
X172805053Y-106866646D01*
X172798774Y-107064049D01*
X172792906Y-107252482D01*
X172787616Y-107426728D01*
X172783073Y-107581571D01*
X172779446Y-107711793D01*
X172776903Y-107812178D01*
X172775612Y-107877510D01*
X172775485Y-107892375D01*
X172775334Y-108003500D01*
X170743334Y-108003500D01*
X170743334Y-101209000D01*
X172796500Y-101209000D01*
X172796876Y-101838709D01*
X172797252Y-102468417D01*
X172905368Y-102299084D01*
X173001023Y-102150445D01*
X173079480Y-102031763D01*
X173145392Y-101936737D01*
X173203414Y-101859068D01*
X173258201Y-101792456D01*
X173314406Y-101730600D01*
X173359712Y-101684120D01*
X173567768Y-101500679D01*
X173795812Y-101345521D01*
X174037852Y-101221317D01*
X174287896Y-101130739D01*
X174539951Y-101076457D01*
X174758182Y-101060834D01*
X174884370Y-101064989D01*
G36*
X153459266Y-101038785D02*
G01*
X153463734Y-101096157D01*
X153466967Y-101185391D01*
X153469035Y-101301265D01*
X153470006Y-101438552D01*
X153469946Y-101592029D01*
X153468926Y-101756473D01*
X153467012Y-101926658D01*
X153464273Y-102097361D01*
X153460778Y-102263356D01*
X153456593Y-102419421D01*
X153451787Y-102560331D01*
X153446429Y-102680861D01*
X153440586Y-102775788D01*
X153434326Y-102839887D01*
X153429430Y-102864502D01*
X153407326Y-102918225D01*
X153380245Y-102961828D01*
X153342684Y-102998204D01*
X153289140Y-103030247D01*
X153214108Y-103060851D01*
X153112084Y-103092909D01*
X152977564Y-103129316D01*
X152876996Y-103154946D01*
X152640527Y-103217980D01*
X152440556Y-103279734D01*
X152271436Y-103342935D01*
X152127520Y-103410310D01*
X152003162Y-103484587D01*
X151892717Y-103568491D01*
X151790537Y-103664750D01*
X151764566Y-103692205D01*
X151644734Y-103847815D01*
X151553910Y-104013584D01*
X151506465Y-104122590D01*
X151464303Y-104237785D01*
X151427148Y-104362035D01*
X151394726Y-104498209D01*
X151366762Y-104649175D01*
X151342980Y-104817802D01*
X151323105Y-105006958D01*
X151306862Y-105219511D01*
X151293976Y-105458329D01*
X151284172Y-105726280D01*
X151277174Y-106026234D01*
X151272707Y-106361057D01*
X151270496Y-106733619D01*
X151270139Y-106971625D01*
X151270000Y-108003500D01*
X149216834Y-108003500D01*
X149216834Y-101209000D01*
X151270000Y-101209000D01*
X151270000Y-102235260D01*
X151635125Y-101870078D01*
X151760827Y-101744785D01*
X151862283Y-101645124D01*
X151944881Y-101566495D01*
X152014010Y-101504299D01*
X152075058Y-101453938D01*
X152133413Y-101410810D01*
X152194463Y-101370317D01*
X152263596Y-101327859D01*
X152286000Y-101314478D01*
X152403746Y-101251827D01*
X152532300Y-101199059D01*
X152679307Y-101153866D01*
X152852416Y-101113941D01*
X153059272Y-101076972D01*
X153087340Y-101072529D01*
X153204152Y-101054446D01*
X153306643Y-101038935D01*
X153387366Y-101027094D01*
X153438874Y-101020023D01*
X153453497Y-101018500D01*
X153459266Y-101038785D01*
G37*
X153459266Y-101038785D02*
X153463734Y-101096157D01*
X153466967Y-101185391D01*
X153469035Y-101301265D01*
X153470006Y-101438552D01*
X153469946Y-101592029D01*
X153468926Y-101756473D01*
X153467012Y-101926658D01*
X153464273Y-102097361D01*
X153460778Y-102263356D01*
X153456593Y-102419421D01*
X153451787Y-102560331D01*
X153446429Y-102680861D01*
X153440586Y-102775788D01*
X153434326Y-102839887D01*
X153429430Y-102864502D01*
X153407326Y-102918225D01*
X153380245Y-102961828D01*
X153342684Y-102998204D01*
X153289140Y-103030247D01*
X153214108Y-103060851D01*
X153112084Y-103092909D01*
X152977564Y-103129316D01*
X152876996Y-103154946D01*
X152640527Y-103217980D01*
X152440556Y-103279734D01*
X152271436Y-103342935D01*
X152127520Y-103410310D01*
X152003162Y-103484587D01*
X151892717Y-103568491D01*
X151790537Y-103664750D01*
X151764566Y-103692205D01*
X151644734Y-103847815D01*
X151553910Y-104013584D01*
X151506465Y-104122590D01*
X151464303Y-104237785D01*
X151427148Y-104362035D01*
X151394726Y-104498209D01*
X151366762Y-104649175D01*
X151342980Y-104817802D01*
X151323105Y-105006958D01*
X151306862Y-105219511D01*
X151293976Y-105458329D01*
X151284172Y-105726280D01*
X151277174Y-106026234D01*
X151272707Y-106361057D01*
X151270496Y-106733619D01*
X151270139Y-106971625D01*
X151270000Y-108003500D01*
X149216834Y-108003500D01*
X149216834Y-101209000D01*
X151270000Y-101209000D01*
X151270000Y-102235260D01*
X151635125Y-101870078D01*
X151760827Y-101744785D01*
X151862283Y-101645124D01*
X151944881Y-101566495D01*
X152014010Y-101504299D01*
X152075058Y-101453938D01*
X152133413Y-101410810D01*
X152194463Y-101370317D01*
X152263596Y-101327859D01*
X152286000Y-101314478D01*
X152403746Y-101251827D01*
X152532300Y-101199059D01*
X152679307Y-101153866D01*
X152852416Y-101113941D01*
X153059272Y-101076972D01*
X153087340Y-101072529D01*
X153204152Y-101054446D01*
X153306643Y-101038935D01*
X153387366Y-101027094D01*
X153438874Y-101020023D01*
X153453497Y-101018500D01*
X153459266Y-101038785D01*
G36*
X159086770Y-101078427D02*
G01*
X159262087Y-101094182D01*
X159409627Y-101119080D01*
X159410551Y-101119291D01*
X159653149Y-101186711D01*
X159888826Y-101274739D01*
X160102560Y-101377528D01*
X160163505Y-101412367D01*
X160286573Y-101495858D01*
X160420035Y-101603037D01*
X160553607Y-101724249D01*
X160677006Y-101849840D01*
X160779946Y-101970156D01*
X160827625Y-102035817D01*
X160913081Y-102176906D01*
X160993542Y-102332724D01*
X161062298Y-102488910D01*
X161112641Y-102631105D01*
X161122893Y-102667882D01*
X161142818Y-102754718D01*
X161160865Y-102854321D01*
X161177111Y-102968778D01*
X161191634Y-103100179D01*
X161204512Y-103250609D01*
X161215823Y-103422158D01*
X161225645Y-103616913D01*
X161234056Y-103836962D01*
X161241135Y-104084393D01*
X161246959Y-104361294D01*
X161251607Y-104669752D01*
X161255155Y-105011855D01*
X161257683Y-105389692D01*
X161259269Y-105805349D01*
X161259990Y-106260916D01*
X161260030Y-106336625D01*
X161260667Y-107940000D01*
X161144229Y-107940000D01*
X161091370Y-107941005D01*
X161002573Y-107943831D01*
X160884180Y-107948197D01*
X160742536Y-107953822D01*
X160583984Y-107960425D01*
X160414865Y-107967723D01*
X160241524Y-107975435D01*
X160070304Y-107983281D01*
X159907547Y-107990979D01*
X159759598Y-107998246D01*
X159632797Y-108004803D01*
X159533490Y-108010367D01*
X159477892Y-108013929D01*
X159395525Y-108019105D01*
X159346090Y-108018820D01*
X159320332Y-108011123D01*
X159308994Y-107994063D01*
X159305063Y-107977494D01*
X159303009Y-107948678D01*
X159300110Y-107881100D01*
X159296468Y-107778323D01*
X159292189Y-107643908D01*
X159287374Y-107481416D01*
X159282128Y-107294409D01*
X159276555Y-107086448D01*
X159270757Y-106861094D01*
X159264839Y-106621910D01*
X159261172Y-106468917D01*
X159251408Y-106068653D01*
X159241954Y-105708242D01*
X159232658Y-105385206D01*
X159223366Y-105097068D01*
X159213924Y-104841349D01*
X159204179Y-104615571D01*
X159193977Y-104417258D01*
X159183165Y-104243930D01*
X159171590Y-104093110D01*
X159159098Y-103962321D01*
X159145536Y-103849083D01*
X159130750Y-103750921D01*
X159114587Y-103665355D01*
X159096894Y-103589908D01*
X159078993Y-103526854D01*
X159007125Y-103360880D01*
X158904256Y-103218181D01*
X158775069Y-103099251D01*
X158624243Y-103004584D01*
X158456460Y-102934675D01*
X158276402Y-102890018D01*
X158088749Y-102871108D01*
X157898183Y-102878439D01*
X157709385Y-102912505D01*
X157527036Y-102973801D01*
X157355818Y-103062822D01*
X157200412Y-103180061D01*
X157073995Y-103315084D01*
X156996789Y-103423128D01*
X156936531Y-103533045D01*
X156890050Y-103653875D01*
X156854175Y-103794657D01*
X156825735Y-103964431D01*
X156814140Y-104055917D01*
X156808862Y-104123454D01*
X156803917Y-104232889D01*
X156799313Y-104383789D01*
X156795057Y-104575721D01*
X156791156Y-104808251D01*
X156787618Y-105080944D01*
X156784449Y-105393369D01*
X156781657Y-105745091D01*
X156779250Y-106135542D01*
X156769164Y-108003500D01*
X154720167Y-108003500D01*
X154720167Y-101206154D01*
X155625042Y-101213632D01*
X155862265Y-101215741D01*
X156060867Y-101218130D01*
X156224557Y-101221276D01*
X156357048Y-101225660D01*
X156462048Y-101231760D01*
X156543270Y-101240057D01*
X156604424Y-101251029D01*
X156649221Y-101265155D01*
X156681372Y-101282915D01*
X156704588Y-101304789D01*
X156722579Y-101331256D01*
X156736259Y-101357167D01*
X156753130Y-101400731D01*
X156764245Y-101456929D01*
X156770584Y-101534576D01*
X156773126Y-101642488D01*
X156773301Y-101690542D01*
X156774155Y-101789692D01*
X156776463Y-101871339D01*
X156779878Y-101927387D01*
X156784055Y-101949740D01*
X156784353Y-101949834D01*
X156804439Y-101937926D01*
X156851997Y-101905239D01*
X156920582Y-101856326D01*
X157003749Y-101795740D01*
X157033061Y-101774134D01*
X157245315Y-101620999D01*
X157433819Y-101494030D01*
X157605227Y-101389940D01*
X157766194Y-101305436D01*
X157923373Y-101237230D01*
X158083418Y-101182032D01*
X158252985Y-101136552D01*
X158377559Y-101109410D01*
X158529073Y-101087306D01*
X158706773Y-101074859D01*
X158897169Y-101071943D01*
X159086770Y-101078427D01*
G37*
X159086770Y-101078427D02*
X159262087Y-101094182D01*
X159409627Y-101119080D01*
X159410551Y-101119291D01*
X159653149Y-101186711D01*
X159888826Y-101274739D01*
X160102560Y-101377528D01*
X160163505Y-101412367D01*
X160286573Y-101495858D01*
X160420035Y-101603037D01*
X160553607Y-101724249D01*
X160677006Y-101849840D01*
X160779946Y-101970156D01*
X160827625Y-102035817D01*
X160913081Y-102176906D01*
X160993542Y-102332724D01*
X161062298Y-102488910D01*
X161112641Y-102631105D01*
X161122893Y-102667882D01*
X161142818Y-102754718D01*
X161160865Y-102854321D01*
X161177111Y-102968778D01*
X161191634Y-103100179D01*
X161204512Y-103250609D01*
X161215823Y-103422158D01*
X161225645Y-103616913D01*
X161234056Y-103836962D01*
X161241135Y-104084393D01*
X161246959Y-104361294D01*
X161251607Y-104669752D01*
X161255155Y-105011855D01*
X161257683Y-105389692D01*
X161259269Y-105805349D01*
X161259990Y-106260916D01*
X161260030Y-106336625D01*
X161260667Y-107940000D01*
X161144229Y-107940000D01*
X161091370Y-107941005D01*
X161002573Y-107943831D01*
X160884180Y-107948197D01*
X160742536Y-107953822D01*
X160583984Y-107960425D01*
X160414865Y-107967723D01*
X160241524Y-107975435D01*
X160070304Y-107983281D01*
X159907547Y-107990979D01*
X159759598Y-107998246D01*
X159632797Y-108004803D01*
X159533490Y-108010367D01*
X159477892Y-108013929D01*
X159395525Y-108019105D01*
X159346090Y-108018820D01*
X159320332Y-108011123D01*
X159308994Y-107994063D01*
X159305063Y-107977494D01*
X159303009Y-107948678D01*
X159300110Y-107881100D01*
X159296468Y-107778323D01*
X159292189Y-107643908D01*
X159287374Y-107481416D01*
X159282128Y-107294409D01*
X159276555Y-107086448D01*
X159270757Y-106861094D01*
X159264839Y-106621910D01*
X159261172Y-106468917D01*
X159251408Y-106068653D01*
X159241954Y-105708242D01*
X159232658Y-105385206D01*
X159223366Y-105097068D01*
X159213924Y-104841349D01*
X159204179Y-104615571D01*
X159193977Y-104417258D01*
X159183165Y-104243930D01*
X159171590Y-104093110D01*
X159159098Y-103962321D01*
X159145536Y-103849083D01*
X159130750Y-103750921D01*
X159114587Y-103665355D01*
X159096894Y-103589908D01*
X159078993Y-103526854D01*
X159007125Y-103360880D01*
X158904256Y-103218181D01*
X158775069Y-103099251D01*
X158624243Y-103004584D01*
X158456460Y-102934675D01*
X158276402Y-102890018D01*
X158088749Y-102871108D01*
X157898183Y-102878439D01*
X157709385Y-102912505D01*
X157527036Y-102973801D01*
X157355818Y-103062822D01*
X157200412Y-103180061D01*
X157073995Y-103315084D01*
X156996789Y-103423128D01*
X156936531Y-103533045D01*
X156890050Y-103653875D01*
X156854175Y-103794657D01*
X156825735Y-103964431D01*
X156814140Y-104055917D01*
X156808862Y-104123454D01*
X156803917Y-104232889D01*
X156799313Y-104383789D01*
X156795057Y-104575721D01*
X156791156Y-104808251D01*
X156787618Y-105080944D01*
X156784449Y-105393369D01*
X156781657Y-105745091D01*
X156779250Y-106135542D01*
X156769164Y-108003500D01*
X154720167Y-108003500D01*
X154720167Y-101206154D01*
X155625042Y-101213632D01*
X155862265Y-101215741D01*
X156060867Y-101218130D01*
X156224557Y-101221276D01*
X156357048Y-101225660D01*
X156462048Y-101231760D01*
X156543270Y-101240057D01*
X156604424Y-101251029D01*
X156649221Y-101265155D01*
X156681372Y-101282915D01*
X156704588Y-101304789D01*
X156722579Y-101331256D01*
X156736259Y-101357167D01*
X156753130Y-101400731D01*
X156764245Y-101456929D01*
X156770584Y-101534576D01*
X156773126Y-101642488D01*
X156773301Y-101690542D01*
X156774155Y-101789692D01*
X156776463Y-101871339D01*
X156779878Y-101927387D01*
X156784055Y-101949740D01*
X156784353Y-101949834D01*
X156804439Y-101937926D01*
X156851997Y-101905239D01*
X156920582Y-101856326D01*
X157003749Y-101795740D01*
X157033061Y-101774134D01*
X157245315Y-101620999D01*
X157433819Y-101494030D01*
X157605227Y-101389940D01*
X157766194Y-101305436D01*
X157923373Y-101237230D01*
X158083418Y-101182032D01*
X158252985Y-101136552D01*
X158377559Y-101109410D01*
X158529073Y-101087306D01*
X158706773Y-101074859D01*
X158897169Y-101071943D01*
X159086770Y-101078427D01*
G36*
X166207234Y-101073387D02*
G01*
X166336054Y-101074765D01*
X166439042Y-101077828D01*
X166524448Y-101083190D01*
X166600522Y-101091468D01*
X166675513Y-101103275D01*
X166757671Y-101119228D01*
X166809505Y-101130119D01*
X167172996Y-101223949D01*
X167511510Y-101344520D01*
X167822914Y-101490538D01*
X168105073Y-101660710D01*
X168355853Y-101853743D01*
X168573119Y-102068344D01*
X168754736Y-102303218D01*
X168760969Y-102312621D01*
X168903662Y-102550175D01*
X169040418Y-102818171D01*
X169165895Y-103104725D01*
X169274753Y-103397951D01*
X169335142Y-103590199D01*
X169377044Y-103738423D01*
X169410101Y-103866506D01*
X169435481Y-103983156D01*
X169454348Y-104097081D01*
X169467871Y-104216991D01*
X169477215Y-104351592D01*
X169483546Y-104509594D01*
X169488032Y-104699705D01*
X169488709Y-104736664D01*
X169498569Y-105290412D01*
X167448660Y-105300181D01*
X167079094Y-105302058D01*
X166749236Y-105304028D01*
X166456463Y-105306185D01*
X166198147Y-105308622D01*
X165971665Y-105311431D01*
X165774392Y-105314704D01*
X165603703Y-105318535D01*
X165456973Y-105323016D01*
X165331577Y-105328239D01*
X165224889Y-105334297D01*
X165134286Y-105341284D01*
X165057142Y-105349290D01*
X164990833Y-105358410D01*
X164932732Y-105368735D01*
X164880216Y-105380359D01*
X164833994Y-105392441D01*
X164731408Y-105431524D01*
X164663315Y-105480774D01*
X164632641Y-105537499D01*
X164634053Y-105576708D01*
X164663199Y-105638593D01*
X164720814Y-105718364D01*
X164800491Y-105809913D01*
X164895825Y-105907127D01*
X165000409Y-106003896D01*
X165107839Y-106094110D01*
X165211708Y-106171657D01*
X165305610Y-106230428D01*
X165335250Y-106245580D01*
X165401067Y-106274417D01*
X165471950Y-106300280D01*
X165550791Y-106323451D01*
X165640481Y-106344216D01*
X165743913Y-106362859D01*
X165863979Y-106379663D01*
X166003569Y-106394913D01*
X166165577Y-106408893D01*
X166352895Y-106421888D01*
X166568413Y-106434180D01*
X166815025Y-106446054D01*
X167095622Y-106457795D01*
X167413095Y-106469686D01*
X167727084Y-106480561D01*
X167899300Y-106486708D01*
X168059447Y-106493095D01*
X168202243Y-106499461D01*
X168322408Y-106505544D01*
X168414664Y-106511082D01*
X168473729Y-106515811D01*
X168492833Y-106518596D01*
X168502038Y-106524109D01*
X168504937Y-106535567D01*
X168499692Y-106555913D01*
X168484462Y-106588093D01*
X168457408Y-106635050D01*
X168416690Y-106699730D01*
X168360469Y-106785075D01*
X168286905Y-106894032D01*
X168194159Y-107029543D01*
X168080390Y-107194554D01*
X167978362Y-107342042D01*
X167417809Y-108151667D01*
X166884529Y-108147461D01*
X166728045Y-108146017D01*
X166576257Y-108144232D01*
X166437285Y-108142229D01*
X166319248Y-108140134D01*
X166230262Y-108138071D01*
X166192500Y-108136833D01*
X166067869Y-108130062D01*
X165922801Y-108119399D01*
X165766891Y-108105822D01*
X165609732Y-108090306D01*
X165460920Y-108073828D01*
X165330047Y-108057366D01*
X165226708Y-108041896D01*
X165186065Y-108034368D01*
X164865856Y-107947621D01*
X164549857Y-107822033D01*
X164243926Y-107661063D01*
X163953923Y-107468169D01*
X163685705Y-107246812D01*
X163455939Y-107012772D01*
X163229541Y-106724645D01*
X163035930Y-106412944D01*
X162875561Y-106081426D01*
X162748891Y-105733846D01*
X162656375Y-105373958D01*
X162598468Y-105005519D01*
X162575628Y-104632283D01*
X162588310Y-104258006D01*
X162636970Y-103886444D01*
X162666027Y-103761773D01*
X164636792Y-103761773D01*
X164637813Y-103851601D01*
X164671221Y-103922976D01*
X164738965Y-103977361D01*
X164842993Y-104016222D01*
X164985251Y-104041025D01*
X165011590Y-104043777D01*
X165087250Y-104048801D01*
X165198288Y-104053062D01*
X165338545Y-104056558D01*
X165501864Y-104059284D01*
X165682087Y-104061234D01*
X165873058Y-104062405D01*
X166068618Y-104062793D01*
X166262611Y-104062391D01*
X166448879Y-104061197D01*
X166621264Y-104059205D01*
X166773609Y-104056412D01*
X166899756Y-104052811D01*
X166993549Y-104048400D01*
X167032715Y-104045260D01*
X167180072Y-104024906D01*
X167289744Y-103997300D01*
X167366150Y-103959627D01*
X167413704Y-103909070D01*
X167436824Y-103842813D01*
X167440831Y-103785046D01*
X167424164Y-103682928D01*
X167378843Y-103562251D01*
X167309874Y-103430131D01*
X167222262Y-103293679D01*
X167121016Y-103160010D01*
X167011142Y-103036236D01*
X166897645Y-102929472D01*
X166785534Y-102846832D01*
X166776704Y-102841433D01*
X166564991Y-102737333D01*
X166342486Y-102670600D01*
X166114395Y-102640586D01*
X165885922Y-102646637D01*
X165662271Y-102688103D01*
X165448649Y-102764333D01*
X165250260Y-102874676D01*
X165072309Y-103018480D01*
X165031450Y-103059768D01*
X164926540Y-103183621D01*
X164829749Y-103322088D01*
X164746595Y-103465357D01*
X164682594Y-103603614D01*
X164643261Y-103727047D01*
X164636792Y-103761773D01*
X162666027Y-103761773D01*
X162722064Y-103521351D01*
X162844047Y-103166483D01*
X162958210Y-102912917D01*
X163146356Y-102580196D01*
X163362807Y-102278928D01*
X163607390Y-102009245D01*
X163879932Y-101771278D01*
X164180260Y-101565157D01*
X164508202Y-101391013D01*
X164863585Y-101248977D01*
X165246235Y-101139180D01*
X165325546Y-101121204D01*
X165403080Y-101105342D01*
X165475360Y-101093352D01*
X165550232Y-101084708D01*
X165635546Y-101078884D01*
X165739146Y-101075356D01*
X165868882Y-101073597D01*
X166032599Y-101073082D01*
X166044334Y-101073080D01*
X166207234Y-101073387D01*
G37*
X166207234Y-101073387D02*
X166336054Y-101074765D01*
X166439042Y-101077828D01*
X166524448Y-101083190D01*
X166600522Y-101091468D01*
X166675513Y-101103275D01*
X166757671Y-101119228D01*
X166809505Y-101130119D01*
X167172996Y-101223949D01*
X167511510Y-101344520D01*
X167822914Y-101490538D01*
X168105073Y-101660710D01*
X168355853Y-101853743D01*
X168573119Y-102068344D01*
X168754736Y-102303218D01*
X168760969Y-102312621D01*
X168903662Y-102550175D01*
X169040418Y-102818171D01*
X169165895Y-103104725D01*
X169274753Y-103397951D01*
X169335142Y-103590199D01*
X169377044Y-103738423D01*
X169410101Y-103866506D01*
X169435481Y-103983156D01*
X169454348Y-104097081D01*
X169467871Y-104216991D01*
X169477215Y-104351592D01*
X169483546Y-104509594D01*
X169488032Y-104699705D01*
X169488709Y-104736664D01*
X169498569Y-105290412D01*
X167448660Y-105300181D01*
X167079094Y-105302058D01*
X166749236Y-105304028D01*
X166456463Y-105306185D01*
X166198147Y-105308622D01*
X165971665Y-105311431D01*
X165774392Y-105314704D01*
X165603703Y-105318535D01*
X165456973Y-105323016D01*
X165331577Y-105328239D01*
X165224889Y-105334297D01*
X165134286Y-105341284D01*
X165057142Y-105349290D01*
X164990833Y-105358410D01*
X164932732Y-105368735D01*
X164880216Y-105380359D01*
X164833994Y-105392441D01*
X164731408Y-105431524D01*
X164663315Y-105480774D01*
X164632641Y-105537499D01*
X164634053Y-105576708D01*
X164663199Y-105638593D01*
X164720814Y-105718364D01*
X164800491Y-105809913D01*
X164895825Y-105907127D01*
X165000409Y-106003896D01*
X165107839Y-106094110D01*
X165211708Y-106171657D01*
X165305610Y-106230428D01*
X165335250Y-106245580D01*
X165401067Y-106274417D01*
X165471950Y-106300280D01*
X165550791Y-106323451D01*
X165640481Y-106344216D01*
X165743913Y-106362859D01*
X165863979Y-106379663D01*
X166003569Y-106394913D01*
X166165577Y-106408893D01*
X166352895Y-106421888D01*
X166568413Y-106434180D01*
X166815025Y-106446054D01*
X167095622Y-106457795D01*
X167413095Y-106469686D01*
X167727084Y-106480561D01*
X167899300Y-106486708D01*
X168059447Y-106493095D01*
X168202243Y-106499461D01*
X168322408Y-106505544D01*
X168414664Y-106511082D01*
X168473729Y-106515811D01*
X168492833Y-106518596D01*
X168502038Y-106524109D01*
X168504937Y-106535567D01*
X168499692Y-106555913D01*
X168484462Y-106588093D01*
X168457408Y-106635050D01*
X168416690Y-106699730D01*
X168360469Y-106785075D01*
X168286905Y-106894032D01*
X168194159Y-107029543D01*
X168080390Y-107194554D01*
X167978362Y-107342042D01*
X167417809Y-108151667D01*
X166884529Y-108147461D01*
X166728045Y-108146017D01*
X166576257Y-108144232D01*
X166437285Y-108142229D01*
X166319248Y-108140134D01*
X166230262Y-108138071D01*
X166192500Y-108136833D01*
X166067869Y-108130062D01*
X165922801Y-108119399D01*
X165766891Y-108105822D01*
X165609732Y-108090306D01*
X165460920Y-108073828D01*
X165330047Y-108057366D01*
X165226708Y-108041896D01*
X165186065Y-108034368D01*
X164865856Y-107947621D01*
X164549857Y-107822033D01*
X164243926Y-107661063D01*
X163953923Y-107468169D01*
X163685705Y-107246812D01*
X163455939Y-107012772D01*
X163229541Y-106724645D01*
X163035930Y-106412944D01*
X162875561Y-106081426D01*
X162748891Y-105733846D01*
X162656375Y-105373958D01*
X162598468Y-105005519D01*
X162575628Y-104632283D01*
X162588310Y-104258006D01*
X162636970Y-103886444D01*
X162666027Y-103761773D01*
X164636792Y-103761773D01*
X164637813Y-103851601D01*
X164671221Y-103922976D01*
X164738965Y-103977361D01*
X164842993Y-104016222D01*
X164985251Y-104041025D01*
X165011590Y-104043777D01*
X165087250Y-104048801D01*
X165198288Y-104053062D01*
X165338545Y-104056558D01*
X165501864Y-104059284D01*
X165682087Y-104061234D01*
X165873058Y-104062405D01*
X166068618Y-104062793D01*
X166262611Y-104062391D01*
X166448879Y-104061197D01*
X166621264Y-104059205D01*
X166773609Y-104056412D01*
X166899756Y-104052811D01*
X166993549Y-104048400D01*
X167032715Y-104045260D01*
X167180072Y-104024906D01*
X167289744Y-103997300D01*
X167366150Y-103959627D01*
X167413704Y-103909070D01*
X167436824Y-103842813D01*
X167440831Y-103785046D01*
X167424164Y-103682928D01*
X167378843Y-103562251D01*
X167309874Y-103430131D01*
X167222262Y-103293679D01*
X167121016Y-103160010D01*
X167011142Y-103036236D01*
X166897645Y-102929472D01*
X166785534Y-102846832D01*
X166776704Y-102841433D01*
X166564991Y-102737333D01*
X166342486Y-102670600D01*
X166114395Y-102640586D01*
X165885922Y-102646637D01*
X165662271Y-102688103D01*
X165448649Y-102764333D01*
X165250260Y-102874676D01*
X165072309Y-103018480D01*
X165031450Y-103059768D01*
X164926540Y-103183621D01*
X164829749Y-103322088D01*
X164746595Y-103465357D01*
X164682594Y-103603614D01*
X164643261Y-103727047D01*
X164636792Y-103761773D01*
X162666027Y-103761773D01*
X162722064Y-103521351D01*
X162844047Y-103166483D01*
X162958210Y-102912917D01*
X163146356Y-102580196D01*
X163362807Y-102278928D01*
X163607390Y-102009245D01*
X163879932Y-101771278D01*
X164180260Y-101565157D01*
X164508202Y-101391013D01*
X164863585Y-101248977D01*
X165246235Y-101139180D01*
X165325546Y-101121204D01*
X165403080Y-101105342D01*
X165475360Y-101093352D01*
X165550232Y-101084708D01*
X165635546Y-101078884D01*
X165739146Y-101075356D01*
X165868882Y-101073597D01*
X166032599Y-101073082D01*
X166044334Y-101073080D01*
X166207234Y-101073387D01*
G36*
X144718903Y-101056200D02*
G01*
X144895539Y-101070646D01*
X145019194Y-101088648D01*
X145319473Y-101159468D01*
X145621911Y-101257864D01*
X145914240Y-101379023D01*
X146184192Y-101518133D01*
X146310629Y-101595303D01*
X146606750Y-101812266D01*
X146875714Y-102060157D01*
X147114991Y-102335758D01*
X147322052Y-102635849D01*
X147494368Y-102957213D01*
X147615346Y-103255314D01*
X147673709Y-103437168D01*
X147720844Y-103617999D01*
X147757651Y-103804695D01*
X147785029Y-104004143D01*
X147803878Y-104223231D01*
X147815097Y-104468848D01*
X147819585Y-104747880D01*
X147819761Y-104820697D01*
X147819834Y-105289143D01*
X145697875Y-105300577D01*
X145278927Y-105303090D01*
X144900727Y-105305919D01*
X144561690Y-105309109D01*
X144260233Y-105312703D01*
X143994771Y-105316745D01*
X143763719Y-105321280D01*
X143565493Y-105326352D01*
X143398510Y-105332005D01*
X143261183Y-105338283D01*
X143151930Y-105345230D01*
X143069166Y-105352890D01*
X143011306Y-105361309D01*
X142976766Y-105370528D01*
X142966335Y-105376699D01*
X142952992Y-105418357D01*
X142967270Y-105482776D01*
X143005091Y-105564652D01*
X143062381Y-105658682D01*
X143135064Y-105759565D01*
X143219065Y-105861996D01*
X143310309Y-105960674D01*
X143404718Y-106050296D01*
X143498219Y-106125558D01*
X143583172Y-106179288D01*
X143676226Y-106220719D01*
X143794492Y-106259299D01*
X143939810Y-106295277D01*
X144114025Y-106328900D01*
X144318978Y-106360414D01*
X144556514Y-106390068D01*
X144828474Y-106418107D01*
X145136702Y-106444781D01*
X145483041Y-106470334D01*
X145869332Y-106495016D01*
X145988917Y-106502036D01*
X146171861Y-106512919D01*
X146341581Y-106523663D01*
X146493426Y-106533925D01*
X146622744Y-106543362D01*
X146724884Y-106551631D01*
X146795194Y-106558388D01*
X146829023Y-106563291D01*
X146831216Y-106564170D01*
X146823737Y-106584477D01*
X146795585Y-106636720D01*
X146748974Y-106717222D01*
X146686122Y-106822308D01*
X146609244Y-106948303D01*
X146520556Y-107091529D01*
X146422274Y-107248312D01*
X146348299Y-107365191D01*
X145848583Y-108151667D01*
X145580083Y-108147980D01*
X145475930Y-108146182D01*
X145340611Y-108143298D01*
X145185271Y-108139597D01*
X145021057Y-108135346D01*
X144859114Y-108130813D01*
X144824750Y-108129801D01*
X144475945Y-108114689D01*
X144153052Y-108091100D01*
X143859312Y-108059443D01*
X143597963Y-108020124D01*
X143372246Y-107973554D01*
X143199685Y-107924935D01*
X142996328Y-107842130D01*
X142779688Y-107725383D01*
X142554923Y-107578857D01*
X142327191Y-107406715D01*
X142101652Y-107213119D01*
X141883463Y-107002233D01*
X141677785Y-106778218D01*
X141489775Y-106545239D01*
X141489588Y-106544991D01*
X141353270Y-106353686D01*
X141244408Y-106176618D01*
X141156982Y-106002118D01*
X141084968Y-105818516D01*
X141038137Y-105670195D01*
X140955976Y-105321648D01*
X140907066Y-104962724D01*
X140891339Y-104600610D01*
X140908731Y-104242493D01*
X140959176Y-103895563D01*
X140959896Y-103892725D01*
X142952486Y-103892725D01*
X142956690Y-103928606D01*
X142975876Y-103948355D01*
X143006828Y-103961868D01*
X143077372Y-103984291D01*
X143165512Y-104003403D01*
X143274111Y-104019363D01*
X143406031Y-104032331D01*
X143564134Y-104042466D01*
X143751283Y-104049926D01*
X143970338Y-104054872D01*
X144224163Y-104057462D01*
X144515620Y-104057855D01*
X144718917Y-104057051D01*
X144977221Y-104055127D01*
X145194830Y-104052467D01*
X145373374Y-104049022D01*
X145514487Y-104044742D01*
X145619798Y-104039578D01*
X145690941Y-104033481D01*
X145729001Y-104026580D01*
X145793969Y-103998637D01*
X145835237Y-103960672D01*
X145853217Y-103907526D01*
X145848326Y-103834045D01*
X145820977Y-103735071D01*
X145771584Y-103605447D01*
X145764260Y-103587742D01*
X145649310Y-103364535D01*
X145501939Y-103165854D01*
X145325691Y-102995068D01*
X145124110Y-102855546D01*
X144900738Y-102750655D01*
X144873391Y-102740818D01*
X144694864Y-102695453D01*
X144495813Y-102673565D01*
X144291333Y-102675751D01*
X144096518Y-102702606D01*
X144068192Y-102709007D01*
X143915629Y-102751963D01*
X143785286Y-102805159D01*
X143660103Y-102876700D01*
X143546622Y-102956775D01*
X143416008Y-103068848D01*
X143291924Y-103201185D01*
X143179723Y-103345858D01*
X143084755Y-103494941D01*
X143012374Y-103640504D01*
X142967930Y-103774621D01*
X142958622Y-103827804D01*
X142952486Y-103892725D01*
X140959896Y-103892725D01*
X141042608Y-103567007D01*
X141057749Y-103520395D01*
X141177974Y-103205386D01*
X141321248Y-102914443D01*
X141492378Y-102639769D01*
X141696173Y-102373567D01*
X141913771Y-102132420D01*
X142201667Y-101861565D01*
X142505588Y-101629650D01*
X142827011Y-101435860D01*
X143167412Y-101279380D01*
X143528265Y-101159394D01*
X143787526Y-101097944D01*
X143939828Y-101074703D01*
X144121236Y-101058817D01*
X144319631Y-101050377D01*
X144522893Y-101049474D01*
X144718903Y-101056200D01*
G37*
X144718903Y-101056200D02*
X144895539Y-101070646D01*
X145019194Y-101088648D01*
X145319473Y-101159468D01*
X145621911Y-101257864D01*
X145914240Y-101379023D01*
X146184192Y-101518133D01*
X146310629Y-101595303D01*
X146606750Y-101812266D01*
X146875714Y-102060157D01*
X147114991Y-102335758D01*
X147322052Y-102635849D01*
X147494368Y-102957213D01*
X147615346Y-103255314D01*
X147673709Y-103437168D01*
X147720844Y-103617999D01*
X147757651Y-103804695D01*
X147785029Y-104004143D01*
X147803878Y-104223231D01*
X147815097Y-104468848D01*
X147819585Y-104747880D01*
X147819761Y-104820697D01*
X147819834Y-105289143D01*
X145697875Y-105300577D01*
X145278927Y-105303090D01*
X144900727Y-105305919D01*
X144561690Y-105309109D01*
X144260233Y-105312703D01*
X143994771Y-105316745D01*
X143763719Y-105321280D01*
X143565493Y-105326352D01*
X143398510Y-105332005D01*
X143261183Y-105338283D01*
X143151930Y-105345230D01*
X143069166Y-105352890D01*
X143011306Y-105361309D01*
X142976766Y-105370528D01*
X142966335Y-105376699D01*
X142952992Y-105418357D01*
X142967270Y-105482776D01*
X143005091Y-105564652D01*
X143062381Y-105658682D01*
X143135064Y-105759565D01*
X143219065Y-105861996D01*
X143310309Y-105960674D01*
X143404718Y-106050296D01*
X143498219Y-106125558D01*
X143583172Y-106179288D01*
X143676226Y-106220719D01*
X143794492Y-106259299D01*
X143939810Y-106295277D01*
X144114025Y-106328900D01*
X144318978Y-106360414D01*
X144556514Y-106390068D01*
X144828474Y-106418107D01*
X145136702Y-106444781D01*
X145483041Y-106470334D01*
X145869332Y-106495016D01*
X145988917Y-106502036D01*
X146171861Y-106512919D01*
X146341581Y-106523663D01*
X146493426Y-106533925D01*
X146622744Y-106543362D01*
X146724884Y-106551631D01*
X146795194Y-106558388D01*
X146829023Y-106563291D01*
X146831216Y-106564170D01*
X146823737Y-106584477D01*
X146795585Y-106636720D01*
X146748974Y-106717222D01*
X146686122Y-106822308D01*
X146609244Y-106948303D01*
X146520556Y-107091529D01*
X146422274Y-107248312D01*
X146348299Y-107365191D01*
X145848583Y-108151667D01*
X145580083Y-108147980D01*
X145475930Y-108146182D01*
X145340611Y-108143298D01*
X145185271Y-108139597D01*
X145021057Y-108135346D01*
X144859114Y-108130813D01*
X144824750Y-108129801D01*
X144475945Y-108114689D01*
X144153052Y-108091100D01*
X143859312Y-108059443D01*
X143597963Y-108020124D01*
X143372246Y-107973554D01*
X143199685Y-107924935D01*
X142996328Y-107842130D01*
X142779688Y-107725383D01*
X142554923Y-107578857D01*
X142327191Y-107406715D01*
X142101652Y-107213119D01*
X141883463Y-107002233D01*
X141677785Y-106778218D01*
X141489775Y-106545239D01*
X141489588Y-106544991D01*
X141353270Y-106353686D01*
X141244408Y-106176618D01*
X141156982Y-106002118D01*
X141084968Y-105818516D01*
X141038137Y-105670195D01*
X140955976Y-105321648D01*
X140907066Y-104962724D01*
X140891339Y-104600610D01*
X140908731Y-104242493D01*
X140959176Y-103895563D01*
X140959896Y-103892725D01*
X142952486Y-103892725D01*
X142956690Y-103928606D01*
X142975876Y-103948355D01*
X143006828Y-103961868D01*
X143077372Y-103984291D01*
X143165512Y-104003403D01*
X143274111Y-104019363D01*
X143406031Y-104032331D01*
X143564134Y-104042466D01*
X143751283Y-104049926D01*
X143970338Y-104054872D01*
X144224163Y-104057462D01*
X144515620Y-104057855D01*
X144718917Y-104057051D01*
X144977221Y-104055127D01*
X145194830Y-104052467D01*
X145373374Y-104049022D01*
X145514487Y-104044742D01*
X145619798Y-104039578D01*
X145690941Y-104033481D01*
X145729001Y-104026580D01*
X145793969Y-103998637D01*
X145835237Y-103960672D01*
X145853217Y-103907526D01*
X145848326Y-103834045D01*
X145820977Y-103735071D01*
X145771584Y-103605447D01*
X145764260Y-103587742D01*
X145649310Y-103364535D01*
X145501939Y-103165854D01*
X145325691Y-102995068D01*
X145124110Y-102855546D01*
X144900738Y-102750655D01*
X144873391Y-102740818D01*
X144694864Y-102695453D01*
X144495813Y-102673565D01*
X144291333Y-102675751D01*
X144096518Y-102702606D01*
X144068192Y-102709007D01*
X143915629Y-102751963D01*
X143785286Y-102805159D01*
X143660103Y-102876700D01*
X143546622Y-102956775D01*
X143416008Y-103068848D01*
X143291924Y-103201185D01*
X143179723Y-103345858D01*
X143084755Y-103494941D01*
X143012374Y-103640504D01*
X142967930Y-103774621D01*
X142958622Y-103827804D01*
X142952486Y-103892725D01*
X140959896Y-103892725D01*
X141042608Y-103567007D01*
X141057749Y-103520395D01*
X141177974Y-103205386D01*
X141321248Y-102914443D01*
X141492378Y-102639769D01*
X141696173Y-102373567D01*
X141913771Y-102132420D01*
X142201667Y-101861565D01*
X142505588Y-101629650D01*
X142827011Y-101435860D01*
X143167412Y-101279380D01*
X143528265Y-101159394D01*
X143787526Y-101097944D01*
X143939828Y-101074703D01*
X144121236Y-101058817D01*
X144319631Y-101050377D01*
X144522893Y-101049474D01*
X144718903Y-101056200D01*
G36*
X138021904Y-98979783D02*
G01*
X138474503Y-99029242D01*
X138909150Y-99111128D01*
X139323198Y-99224729D01*
X139714000Y-99369330D01*
X140078908Y-99544219D01*
X140379750Y-99724764D01*
X140469809Y-99786684D01*
X140569848Y-99858860D01*
X140674405Y-99936963D01*
X140778020Y-100016660D01*
X140875230Y-100093622D01*
X140960574Y-100163516D01*
X141028589Y-100222013D01*
X141073815Y-100264781D01*
X141090789Y-100287489D01*
X141090713Y-100288522D01*
X141074265Y-100313102D01*
X141033246Y-100364287D01*
X140971722Y-100437506D01*
X140893760Y-100528186D01*
X140803427Y-100631757D01*
X140704789Y-100743646D01*
X140601914Y-100859284D01*
X140498867Y-100974097D01*
X140399716Y-101083515D01*
X140308527Y-101182966D01*
X140229368Y-101267879D01*
X140166304Y-101333682D01*
X140123790Y-101375449D01*
X139977255Y-101500794D01*
X139849627Y-101590383D01*
X139738846Y-101645239D01*
X139642856Y-101666385D01*
X139560697Y-101655230D01*
X139517992Y-101630451D01*
X139457049Y-101582719D01*
X139388124Y-101520390D01*
X139355409Y-101487940D01*
X139288902Y-101422902D01*
X139226205Y-101370361D01*
X139156714Y-101323139D01*
X139069826Y-101274059D01*
X138954935Y-101215942D01*
X138950056Y-101213548D01*
X138684696Y-101095027D01*
X138399099Y-100988067D01*
X138110569Y-100898619D01*
X137850334Y-100835450D01*
X137540331Y-100793290D01*
X137227972Y-100792323D01*
X136916742Y-100831815D01*
X136610126Y-100911032D01*
X136311607Y-101029240D01*
X136024672Y-101185703D01*
X135945946Y-101236898D01*
X135695014Y-101431452D01*
X135468811Y-101658607D01*
X135269336Y-101915250D01*
X135098586Y-102198269D01*
X134958559Y-102504552D01*
X134851253Y-102830987D01*
X134808943Y-103008167D01*
X134789333Y-103137578D01*
X134776720Y-103296609D01*
X134771089Y-103473133D01*
X134772425Y-103655021D01*
X134780713Y-103830146D01*
X134795939Y-103986380D01*
X134810261Y-104075710D01*
X134876747Y-104346356D01*
X134967488Y-104613468D01*
X135079197Y-104871329D01*
X135208588Y-105114224D01*
X135352375Y-105336435D01*
X135507273Y-105532247D01*
X135669994Y-105695944D01*
X135800135Y-105797587D01*
X136024840Y-105928410D01*
X136283451Y-106038530D01*
X136572146Y-106126446D01*
X136727188Y-106161733D01*
X136850248Y-106185729D01*
X136973170Y-106207226D01*
X137099859Y-106226556D01*
X137234218Y-106244050D01*
X137380151Y-106260040D01*
X137541562Y-106274859D01*
X137722355Y-106288838D01*
X137926434Y-106302311D01*
X138157703Y-106315608D01*
X138420066Y-106329062D01*
X138717425Y-106343005D01*
X139009527Y-106355873D01*
X139221174Y-106365246D01*
X139419330Y-106374522D01*
X139600105Y-106383486D01*
X139759610Y-106391920D01*
X139893958Y-106399608D01*
X139999258Y-106406332D01*
X140071624Y-106411876D01*
X140107166Y-106416023D01*
X140110193Y-106417263D01*
X140097560Y-106437006D01*
X140063472Y-106488370D01*
X140010231Y-106567933D01*
X139940137Y-106672276D01*
X139855491Y-106797979D01*
X139758594Y-106941622D01*
X139651747Y-107099785D01*
X139537250Y-107269048D01*
X139522500Y-107290836D01*
X138940417Y-108150655D01*
X138284250Y-108146731D01*
X138109516Y-108145546D01*
X137937731Y-108144124D01*
X137776422Y-108142545D01*
X137633114Y-108140892D01*
X137515333Y-108139245D01*
X137430606Y-108137686D01*
X137416417Y-108137344D01*
X137253733Y-108131726D01*
X137074561Y-108123121D01*
X136888470Y-108112192D01*
X136705028Y-108099603D01*
X136533804Y-108086019D01*
X136384366Y-108072101D01*
X136266283Y-108058515D01*
X136252250Y-108056601D01*
X136081792Y-108023605D01*
X135885243Y-107969807D01*
X135671591Y-107898104D01*
X135449823Y-107811392D01*
X135330267Y-107759529D01*
X134963824Y-107577029D01*
X134623063Y-107369236D01*
X134300202Y-107130818D01*
X133987453Y-106856441D01*
X133927236Y-106798541D01*
X133754747Y-106624869D01*
X133606424Y-106462174D01*
X133471495Y-106297528D01*
X133339189Y-106118006D01*
X133242552Y-105976842D01*
X133049223Y-105663479D01*
X132895487Y-105360784D01*
X132780516Y-105066835D01*
X132703488Y-104779709D01*
X132684909Y-104677783D01*
X132676447Y-104601833D01*
X132668915Y-104490080D01*
X132662388Y-104349049D01*
X132656941Y-104185263D01*
X132652650Y-104005244D01*
X132649590Y-103815514D01*
X132647834Y-103622599D01*
X132647460Y-103433019D01*
X132648541Y-103253298D01*
X132651153Y-103089960D01*
X132655370Y-102949527D01*
X132661269Y-102838522D01*
X132663428Y-102811357D01*
X132710377Y-102439944D01*
X132784382Y-102096937D01*
X132887824Y-101776343D01*
X133023083Y-101472170D01*
X133192539Y-101178427D01*
X133398574Y-100889121D01*
X133455564Y-100817417D01*
X133677071Y-100554549D01*
X133888911Y-100325913D01*
X134097179Y-100126453D01*
X134307969Y-99951109D01*
X134527375Y-99794825D01*
X134761491Y-99652542D01*
X135016411Y-99519203D01*
X135024584Y-99515220D01*
X135417967Y-99341685D01*
X135816230Y-99202329D01*
X136224699Y-99095991D01*
X136648701Y-99021508D01*
X137093563Y-98977719D01*
X137554000Y-98963464D01*
X138021904Y-98979783D01*
G37*
X138021904Y-98979783D02*
X138474503Y-99029242D01*
X138909150Y-99111128D01*
X139323198Y-99224729D01*
X139714000Y-99369330D01*
X140078908Y-99544219D01*
X140379750Y-99724764D01*
X140469809Y-99786684D01*
X140569848Y-99858860D01*
X140674405Y-99936963D01*
X140778020Y-100016660D01*
X140875230Y-100093622D01*
X140960574Y-100163516D01*
X141028589Y-100222013D01*
X141073815Y-100264781D01*
X141090789Y-100287489D01*
X141090713Y-100288522D01*
X141074265Y-100313102D01*
X141033246Y-100364287D01*
X140971722Y-100437506D01*
X140893760Y-100528186D01*
X140803427Y-100631757D01*
X140704789Y-100743646D01*
X140601914Y-100859284D01*
X140498867Y-100974097D01*
X140399716Y-101083515D01*
X140308527Y-101182966D01*
X140229368Y-101267879D01*
X140166304Y-101333682D01*
X140123790Y-101375449D01*
X139977255Y-101500794D01*
X139849627Y-101590383D01*
X139738846Y-101645239D01*
X139642856Y-101666385D01*
X139560697Y-101655230D01*
X139517992Y-101630451D01*
X139457049Y-101582719D01*
X139388124Y-101520390D01*
X139355409Y-101487940D01*
X139288902Y-101422902D01*
X139226205Y-101370361D01*
X139156714Y-101323139D01*
X139069826Y-101274059D01*
X138954935Y-101215942D01*
X138950056Y-101213548D01*
X138684696Y-101095027D01*
X138399099Y-100988067D01*
X138110569Y-100898619D01*
X137850334Y-100835450D01*
X137540331Y-100793290D01*
X137227972Y-100792323D01*
X136916742Y-100831815D01*
X136610126Y-100911032D01*
X136311607Y-101029240D01*
X136024672Y-101185703D01*
X135945946Y-101236898D01*
X135695014Y-101431452D01*
X135468811Y-101658607D01*
X135269336Y-101915250D01*
X135098586Y-102198269D01*
X134958559Y-102504552D01*
X134851253Y-102830987D01*
X134808943Y-103008167D01*
X134789333Y-103137578D01*
X134776720Y-103296609D01*
X134771089Y-103473133D01*
X134772425Y-103655021D01*
X134780713Y-103830146D01*
X134795939Y-103986380D01*
X134810261Y-104075710D01*
X134876747Y-104346356D01*
X134967488Y-104613468D01*
X135079197Y-104871329D01*
X135208588Y-105114224D01*
X135352375Y-105336435D01*
X135507273Y-105532247D01*
X135669994Y-105695944D01*
X135800135Y-105797587D01*
X136024840Y-105928410D01*
X136283451Y-106038530D01*
X136572146Y-106126446D01*
X136727188Y-106161733D01*
X136850248Y-106185729D01*
X136973170Y-106207226D01*
X137099859Y-106226556D01*
X137234218Y-106244050D01*
X137380151Y-106260040D01*
X137541562Y-106274859D01*
X137722355Y-106288838D01*
X137926434Y-106302311D01*
X138157703Y-106315608D01*
X138420066Y-106329062D01*
X138717425Y-106343005D01*
X139009527Y-106355873D01*
X139221174Y-106365246D01*
X139419330Y-106374522D01*
X139600105Y-106383486D01*
X139759610Y-106391920D01*
X139893958Y-106399608D01*
X139999258Y-106406332D01*
X140071624Y-106411876D01*
X140107166Y-106416023D01*
X140110193Y-106417263D01*
X140097560Y-106437006D01*
X140063472Y-106488370D01*
X140010231Y-106567933D01*
X139940137Y-106672276D01*
X139855491Y-106797979D01*
X139758594Y-106941622D01*
X139651747Y-107099785D01*
X139537250Y-107269048D01*
X139522500Y-107290836D01*
X138940417Y-108150655D01*
X138284250Y-108146731D01*
X138109516Y-108145546D01*
X137937731Y-108144124D01*
X137776422Y-108142545D01*
X137633114Y-108140892D01*
X137515333Y-108139245D01*
X137430606Y-108137686D01*
X137416417Y-108137344D01*
X137253733Y-108131726D01*
X137074561Y-108123121D01*
X136888470Y-108112192D01*
X136705028Y-108099603D01*
X136533804Y-108086019D01*
X136384366Y-108072101D01*
X136266283Y-108058515D01*
X136252250Y-108056601D01*
X136081792Y-108023605D01*
X135885243Y-107969807D01*
X135671591Y-107898104D01*
X135449823Y-107811392D01*
X135330267Y-107759529D01*
X134963824Y-107577029D01*
X134623063Y-107369236D01*
X134300202Y-107130818D01*
X133987453Y-106856441D01*
X133927236Y-106798541D01*
X133754747Y-106624869D01*
X133606424Y-106462174D01*
X133471495Y-106297528D01*
X133339189Y-106118006D01*
X133242552Y-105976842D01*
X133049223Y-105663479D01*
X132895487Y-105360784D01*
X132780516Y-105066835D01*
X132703488Y-104779709D01*
X132684909Y-104677783D01*
X132676447Y-104601833D01*
X132668915Y-104490080D01*
X132662388Y-104349049D01*
X132656941Y-104185263D01*
X132652650Y-104005244D01*
X132649590Y-103815514D01*
X132647834Y-103622599D01*
X132647460Y-103433019D01*
X132648541Y-103253298D01*
X132651153Y-103089960D01*
X132655370Y-102949527D01*
X132661269Y-102838522D01*
X132663428Y-102811357D01*
X132710377Y-102439944D01*
X132784382Y-102096937D01*
X132887824Y-101776343D01*
X133023083Y-101472170D01*
X133192539Y-101178427D01*
X133398574Y-100889121D01*
X133455564Y-100817417D01*
X133677071Y-100554549D01*
X133888911Y-100325913D01*
X134097179Y-100126453D01*
X134307969Y-99951109D01*
X134527375Y-99794825D01*
X134761491Y-99652542D01*
X135016411Y-99519203D01*
X135024584Y-99515220D01*
X135417967Y-99341685D01*
X135816230Y-99202329D01*
X136224699Y-99095991D01*
X136648701Y-99021508D01*
X137093563Y-98977719D01*
X137554000Y-98963464D01*
X138021904Y-98979783D01*
G04 #@! TD*
M02*
