G04 #@! TF.GenerationSoftware,KiCad,Pcbnew,(5.1.10)-1*
G04 #@! TF.CreationDate,2021-09-01T23:51:14-05:00*
G04 #@! TF.ProjectId,Bsides-KC-2021-Sumo-Logic-Sponsor-SAO-SVG2Shenzen v1_00 (Paths),42736964-6573-42d4-9b43-2d323032312d,rev?*
G04 #@! TF.SameCoordinates,Original*
G04 #@! TF.FileFunction,Legend,Bot*
G04 #@! TF.FilePolarity,Positive*
%FSLAX46Y46*%
G04 Gerber Fmt 4.6, Leading zero omitted, Abs format (unit mm)*
G04 Created by KiCad (PCBNEW (5.1.10)-1) date 2021-09-01 23:51:14*
%MOMM*%
%LPD*%
G01*
G04 APERTURE LIST*
%ADD10C,0.010000*%
%ADD11C,0.500000*%
%ADD12C,0.150000*%
G04 APERTURE END LIST*
D10*
G04 #@! TO.C,G\u002A\u002A\u002A*
G36*
X160906552Y-64092247D02*
G01*
X161049712Y-64188696D01*
X161075772Y-64207955D01*
X161320308Y-64390038D01*
X161339846Y-64221788D01*
X161359674Y-64113045D01*
X161392916Y-64063427D01*
X161437539Y-64053539D01*
X161482202Y-64063400D01*
X161508006Y-64104859D01*
X161521917Y-64195724D01*
X161527574Y-64283684D01*
X161539456Y-64513830D01*
X161788036Y-64490617D01*
X161935036Y-64481478D01*
X162024942Y-64489686D01*
X162077377Y-64517665D01*
X162086503Y-64527516D01*
X162115302Y-64601981D01*
X162095073Y-64652737D01*
X162056503Y-64688391D01*
X161986560Y-64705472D01*
X161866293Y-64707218D01*
X161794493Y-64704066D01*
X161535231Y-64690286D01*
X161535231Y-64884897D01*
X161522174Y-65027492D01*
X161486900Y-65117865D01*
X161435250Y-65146846D01*
X161385809Y-65119409D01*
X161353708Y-65050428D01*
X161339859Y-64947550D01*
X161339846Y-64944492D01*
X161334685Y-64857188D01*
X161322090Y-64816016D01*
X161320418Y-64815539D01*
X161281883Y-64837069D01*
X161197647Y-64894023D01*
X161084540Y-64974942D01*
X161062119Y-64991385D01*
X160929265Y-65087303D01*
X160843726Y-65142025D01*
X160791078Y-65162274D01*
X160756894Y-65154771D01*
X160740667Y-65141180D01*
X160726140Y-65090395D01*
X160716683Y-64987765D01*
X160714616Y-64903160D01*
X160714616Y-64691191D01*
X160470385Y-64699244D01*
X160304899Y-64703937D01*
X160203025Y-64701555D01*
X160150257Y-64687400D01*
X160132091Y-64656776D01*
X160134019Y-64604985D01*
X160134624Y-64599684D01*
X160910000Y-64599684D01*
X160912782Y-64740153D01*
X160929044Y-64813491D01*
X160970663Y-64823949D01*
X161049516Y-64775780D01*
X161158625Y-64688691D01*
X161270481Y-64597057D01*
X161139087Y-64498375D01*
X161020871Y-64411342D01*
X160952451Y-64376029D01*
X160920222Y-64398450D01*
X160910585Y-64484622D01*
X160910000Y-64599684D01*
X160134624Y-64599684D01*
X160135635Y-64590846D01*
X160148000Y-64483385D01*
X160714616Y-64511247D01*
X160714616Y-64290936D01*
X160722388Y-64149710D01*
X160751337Y-64070813D01*
X160809909Y-64052306D01*
X160906552Y-64092247D01*
G37*
X160906552Y-64092247D02*
X161049712Y-64188696D01*
X161075772Y-64207955D01*
X161320308Y-64390038D01*
X161339846Y-64221788D01*
X161359674Y-64113045D01*
X161392916Y-64063427D01*
X161437539Y-64053539D01*
X161482202Y-64063400D01*
X161508006Y-64104859D01*
X161521917Y-64195724D01*
X161527574Y-64283684D01*
X161539456Y-64513830D01*
X161788036Y-64490617D01*
X161935036Y-64481478D01*
X162024942Y-64489686D01*
X162077377Y-64517665D01*
X162086503Y-64527516D01*
X162115302Y-64601981D01*
X162095073Y-64652737D01*
X162056503Y-64688391D01*
X161986560Y-64705472D01*
X161866293Y-64707218D01*
X161794493Y-64704066D01*
X161535231Y-64690286D01*
X161535231Y-64884897D01*
X161522174Y-65027492D01*
X161486900Y-65117865D01*
X161435250Y-65146846D01*
X161385809Y-65119409D01*
X161353708Y-65050428D01*
X161339859Y-64947550D01*
X161339846Y-64944492D01*
X161334685Y-64857188D01*
X161322090Y-64816016D01*
X161320418Y-64815539D01*
X161281883Y-64837069D01*
X161197647Y-64894023D01*
X161084540Y-64974942D01*
X161062119Y-64991385D01*
X160929265Y-65087303D01*
X160843726Y-65142025D01*
X160791078Y-65162274D01*
X160756894Y-65154771D01*
X160740667Y-65141180D01*
X160726140Y-65090395D01*
X160716683Y-64987765D01*
X160714616Y-64903160D01*
X160714616Y-64691191D01*
X160470385Y-64699244D01*
X160304899Y-64703937D01*
X160203025Y-64701555D01*
X160150257Y-64687400D01*
X160132091Y-64656776D01*
X160134019Y-64604985D01*
X160134624Y-64599684D01*
X160910000Y-64599684D01*
X160912782Y-64740153D01*
X160929044Y-64813491D01*
X160970663Y-64823949D01*
X161049516Y-64775780D01*
X161158625Y-64688691D01*
X161270481Y-64597057D01*
X161139087Y-64498375D01*
X161020871Y-64411342D01*
X160952451Y-64376029D01*
X160920222Y-64398450D01*
X160910585Y-64484622D01*
X160910000Y-64599684D01*
X160134624Y-64599684D01*
X160135635Y-64590846D01*
X160148000Y-64483385D01*
X160714616Y-64511247D01*
X160714616Y-64290936D01*
X160722388Y-64149710D01*
X160751337Y-64070813D01*
X160809909Y-64052306D01*
X160906552Y-64092247D01*
G36*
X163323121Y-59779309D02*
G01*
X163589166Y-59785778D01*
X163625470Y-59786775D01*
X163935142Y-59796996D01*
X164186753Y-59810547D01*
X164400393Y-59830395D01*
X164596155Y-59859506D01*
X164794130Y-59900845D01*
X165014408Y-59957380D01*
X165266862Y-60029096D01*
X165785584Y-60216609D01*
X166300085Y-60472627D01*
X166795366Y-60788248D01*
X167256427Y-61154568D01*
X167423676Y-61309204D01*
X167685306Y-61571055D01*
X167887297Y-61793389D01*
X168028596Y-61974851D01*
X168108151Y-62114083D01*
X168124912Y-62209728D01*
X168124160Y-62213035D01*
X168117478Y-62301971D01*
X168148641Y-62336000D01*
X168200419Y-62312481D01*
X168234822Y-62309144D01*
X168280303Y-62356539D01*
X168343647Y-62463275D01*
X168389629Y-62552531D01*
X168456487Y-62697404D01*
X168506057Y-62826219D01*
X168529304Y-62914962D01*
X168530000Y-62925558D01*
X168542946Y-62996462D01*
X168565945Y-63018000D01*
X168595983Y-63054395D01*
X168630155Y-63153509D01*
X168665444Y-63300234D01*
X168698830Y-63479463D01*
X168727295Y-63676089D01*
X168747818Y-63875005D01*
X168753358Y-63955846D01*
X168751868Y-64288918D01*
X168709527Y-64583632D01*
X168628685Y-64827852D01*
X168561637Y-64946602D01*
X168498520Y-65027297D01*
X168397143Y-65145545D01*
X168273672Y-65282810D01*
X168190639Y-65371956D01*
X168073216Y-65499684D01*
X167979178Y-65608650D01*
X167919792Y-65685376D01*
X167904769Y-65713880D01*
X167878771Y-65748032D01*
X167798596Y-65739921D01*
X167660971Y-65688658D01*
X167465154Y-65594651D01*
X167311626Y-65513699D01*
X167218208Y-65448702D01*
X167175420Y-65380039D01*
X167173785Y-65288091D01*
X167203824Y-65153236D01*
X167220923Y-65089077D01*
X167251334Y-64893692D01*
X168334616Y-64893692D01*
X168364352Y-64931634D01*
X168373692Y-64932769D01*
X168411634Y-64903033D01*
X168412769Y-64893692D01*
X168383033Y-64855751D01*
X168373692Y-64854616D01*
X168335751Y-64884352D01*
X168334616Y-64893692D01*
X167251334Y-64893692D01*
X167274620Y-64744093D01*
X167259382Y-64386357D01*
X167179393Y-64030724D01*
X167156426Y-63975385D01*
X168569077Y-63975385D01*
X168588616Y-63994923D01*
X168608154Y-63975385D01*
X168588616Y-63955846D01*
X168569077Y-63975385D01*
X167156426Y-63975385D01*
X167038832Y-63692052D01*
X166841881Y-63385197D01*
X166729137Y-63257789D01*
X167851877Y-63257789D01*
X167856477Y-63296812D01*
X167904344Y-63383199D01*
X167994674Y-63511602D01*
X168002632Y-63522112D01*
X168119527Y-63659066D01*
X168217085Y-63740666D01*
X168288938Y-63763907D01*
X168319713Y-63734410D01*
X168425795Y-63734410D01*
X168431159Y-63757642D01*
X168451846Y-63760462D01*
X168484011Y-63746164D01*
X168477898Y-63734410D01*
X168431522Y-63729734D01*
X168425795Y-63734410D01*
X168319713Y-63734410D01*
X168328715Y-63725783D01*
X168334616Y-63678802D01*
X168305381Y-63598806D01*
X168236513Y-63515061D01*
X168156265Y-63458060D01*
X168121831Y-63449146D01*
X168071991Y-63423411D01*
X167995112Y-63361319D01*
X167975700Y-63343234D01*
X167891349Y-63271480D01*
X167851877Y-63257789D01*
X166729137Y-63257789D01*
X166694528Y-63218679D01*
X166652093Y-63181360D01*
X167986518Y-63181360D01*
X168014515Y-63208489D01*
X168022000Y-63213385D01*
X168080801Y-63247506D01*
X168098926Y-63237358D01*
X168100154Y-63213385D01*
X168067934Y-63180541D01*
X168031769Y-63174906D01*
X167986518Y-63181360D01*
X166652093Y-63181360D01*
X166556496Y-63097289D01*
X166396706Y-62979780D01*
X166300325Y-62920308D01*
X166195235Y-62865810D01*
X166103959Y-62831400D01*
X166003025Y-62812515D01*
X165868957Y-62804597D01*
X165696923Y-62803077D01*
X165511261Y-62805040D01*
X165381548Y-62813664D01*
X165285621Y-62833055D01*
X165201317Y-62867317D01*
X165126406Y-62908747D01*
X165010239Y-62990912D01*
X164871923Y-63108775D01*
X164739585Y-63238201D01*
X164727930Y-63250670D01*
X164622742Y-63359790D01*
X164535351Y-63442223D01*
X164480589Y-63484246D01*
X164472617Y-63486923D01*
X164431464Y-63459368D01*
X164347052Y-63382907D01*
X164228270Y-63266843D01*
X164084007Y-63120480D01*
X163923151Y-62953124D01*
X163754594Y-62774077D01*
X163587222Y-62592646D01*
X163429927Y-62418133D01*
X163322091Y-62294736D01*
X164106073Y-62294736D01*
X164118082Y-62365479D01*
X164123441Y-62377670D01*
X164157823Y-62436905D01*
X164199737Y-62438746D01*
X164257472Y-62404524D01*
X164320211Y-62356109D01*
X164321898Y-62315729D01*
X164287342Y-62272431D01*
X164223973Y-62225390D01*
X164158213Y-62242577D01*
X164153310Y-62245577D01*
X164106073Y-62294736D01*
X163322091Y-62294736D01*
X163291597Y-62259843D01*
X163258426Y-62220522D01*
X165680299Y-62220522D01*
X165694258Y-62252850D01*
X165738791Y-62292286D01*
X165802601Y-62328477D01*
X165830778Y-62330555D01*
X165816819Y-62298228D01*
X165772286Y-62258791D01*
X165708477Y-62222600D01*
X165680299Y-62220522D01*
X163258426Y-62220522D01*
X163226123Y-62182231D01*
X163174926Y-62119231D01*
X167631231Y-62119231D01*
X167645529Y-62151396D01*
X167657282Y-62145282D01*
X167661959Y-62098907D01*
X167657282Y-62093180D01*
X167634051Y-62098544D01*
X167631231Y-62119231D01*
X163174926Y-62119231D01*
X163063780Y-61982462D01*
X163332769Y-61982462D01*
X163352308Y-62002000D01*
X163371846Y-61982462D01*
X163352308Y-61962923D01*
X163332769Y-61982462D01*
X163063780Y-61982462D01*
X163027095Y-61937320D01*
X162970694Y-61865437D01*
X165456757Y-61865437D01*
X165458967Y-61951545D01*
X165461213Y-61958990D01*
X165500654Y-62030192D01*
X165553889Y-62025771D01*
X165602740Y-61978233D01*
X165632494Y-61922763D01*
X165599811Y-61875795D01*
X165580318Y-61860856D01*
X165502090Y-61831184D01*
X165456757Y-61865437D01*
X162970694Y-61865437D01*
X162939872Y-61826154D01*
X167826616Y-61826154D01*
X167846154Y-61845692D01*
X167865692Y-61826154D01*
X167846154Y-61806616D01*
X167826616Y-61826154D01*
X162939872Y-61826154D01*
X162823507Y-61677848D01*
X162784865Y-61627085D01*
X165180977Y-61627085D01*
X165208462Y-61650308D01*
X165270814Y-61685454D01*
X165279121Y-61672217D01*
X165274238Y-61663333D01*
X166081180Y-61663333D01*
X166086544Y-61686565D01*
X166107231Y-61689385D01*
X166139396Y-61675087D01*
X166133282Y-61663333D01*
X166086907Y-61658657D01*
X166081180Y-61663333D01*
X165274238Y-61663333D01*
X165267077Y-61650308D01*
X165210008Y-61613155D01*
X165196386Y-61611829D01*
X165180977Y-61627085D01*
X162784865Y-61627085D01*
X162652503Y-61453205D01*
X163729109Y-61453205D01*
X163741864Y-61492038D01*
X163790632Y-61515927D01*
X163807797Y-61509765D01*
X163824244Y-61468336D01*
X163805749Y-61443349D01*
X163753213Y-61420966D01*
X163729109Y-61453205D01*
X162652503Y-61453205D01*
X162621198Y-61412082D01*
X162594292Y-61375720D01*
X164865929Y-61375720D01*
X164908187Y-61425178D01*
X164915848Y-61430891D01*
X164992356Y-61463928D01*
X165057347Y-61458821D01*
X165083816Y-61419964D01*
X165080787Y-61404054D01*
X165029491Y-61336421D01*
X164953530Y-61307416D01*
X164889253Y-61328655D01*
X164865929Y-61375720D01*
X162594292Y-61375720D01*
X162482130Y-61224142D01*
X163178357Y-61224142D01*
X163190897Y-61279869D01*
X163230398Y-61320983D01*
X163256237Y-61317152D01*
X163274032Y-61273373D01*
X163250945Y-61235577D01*
X163199258Y-61196938D01*
X163178357Y-61224142D01*
X162482130Y-61224142D01*
X162426003Y-61148291D01*
X162379571Y-61083692D01*
X163137385Y-61083692D01*
X163156923Y-61103231D01*
X163176462Y-61083692D01*
X163156923Y-61064154D01*
X163137385Y-61083692D01*
X162379571Y-61083692D01*
X162335873Y-61022896D01*
X166280751Y-61022896D01*
X166290652Y-61039165D01*
X166347377Y-61062937D01*
X166379635Y-61021111D01*
X166380769Y-61005539D01*
X166360892Y-60953518D01*
X166343999Y-60946923D01*
X166292971Y-60972779D01*
X166280751Y-61022896D01*
X162335873Y-61022896D01*
X162243760Y-60894745D01*
X162229952Y-60874890D01*
X163423980Y-60874890D01*
X163435869Y-60927385D01*
X163490845Y-60977495D01*
X163579822Y-60977780D01*
X163639650Y-60951294D01*
X163672268Y-60908227D01*
X163649465Y-60837333D01*
X163648044Y-60834662D01*
X163581372Y-60766092D01*
X163505999Y-60756847D01*
X163445633Y-60796566D01*
X163423980Y-60874890D01*
X162229952Y-60874890D01*
X162151807Y-60762524D01*
X162697849Y-60762524D01*
X162733928Y-60810259D01*
X162739314Y-60814270D01*
X162809341Y-60842289D01*
X162866571Y-60832815D01*
X162883750Y-60793269D01*
X162877076Y-60776752D01*
X162817860Y-60685998D01*
X162773821Y-60660822D01*
X162731071Y-60694253D01*
X162726038Y-60700953D01*
X162697849Y-60762524D01*
X162151807Y-60762524D01*
X162080306Y-60659713D01*
X161975128Y-60501940D01*
X162447433Y-60501940D01*
X162453539Y-60517077D01*
X162488653Y-60554356D01*
X162494922Y-60556154D01*
X162511706Y-60525920D01*
X162512154Y-60517077D01*
X162498103Y-60499502D01*
X165653283Y-60499502D01*
X165678456Y-60568559D01*
X165699353Y-60592269D01*
X165782286Y-60651707D01*
X165838932Y-60638660D01*
X165865050Y-60567956D01*
X165847878Y-60495851D01*
X165787571Y-60464835D01*
X165692879Y-60460269D01*
X165653283Y-60499502D01*
X162498103Y-60499502D01*
X162482113Y-60479502D01*
X162470771Y-60478000D01*
X162447433Y-60501940D01*
X161975128Y-60501940D01*
X161941477Y-60451463D01*
X161833110Y-60278263D01*
X161761043Y-60148384D01*
X161731111Y-60070094D01*
X161730615Y-60063599D01*
X161734288Y-60033113D01*
X161752815Y-60008372D01*
X161797461Y-59985655D01*
X161879491Y-59961238D01*
X162010169Y-59931401D01*
X162200760Y-59892421D01*
X162320818Y-59868581D01*
X162506574Y-59832848D01*
X162661004Y-59806951D01*
X162801991Y-59789771D01*
X162947417Y-59780184D01*
X163115166Y-59777071D01*
X163323121Y-59779309D01*
G37*
X163323121Y-59779309D02*
X163589166Y-59785778D01*
X163625470Y-59786775D01*
X163935142Y-59796996D01*
X164186753Y-59810547D01*
X164400393Y-59830395D01*
X164596155Y-59859506D01*
X164794130Y-59900845D01*
X165014408Y-59957380D01*
X165266862Y-60029096D01*
X165785584Y-60216609D01*
X166300085Y-60472627D01*
X166795366Y-60788248D01*
X167256427Y-61154568D01*
X167423676Y-61309204D01*
X167685306Y-61571055D01*
X167887297Y-61793389D01*
X168028596Y-61974851D01*
X168108151Y-62114083D01*
X168124912Y-62209728D01*
X168124160Y-62213035D01*
X168117478Y-62301971D01*
X168148641Y-62336000D01*
X168200419Y-62312481D01*
X168234822Y-62309144D01*
X168280303Y-62356539D01*
X168343647Y-62463275D01*
X168389629Y-62552531D01*
X168456487Y-62697404D01*
X168506057Y-62826219D01*
X168529304Y-62914962D01*
X168530000Y-62925558D01*
X168542946Y-62996462D01*
X168565945Y-63018000D01*
X168595983Y-63054395D01*
X168630155Y-63153509D01*
X168665444Y-63300234D01*
X168698830Y-63479463D01*
X168727295Y-63676089D01*
X168747818Y-63875005D01*
X168753358Y-63955846D01*
X168751868Y-64288918D01*
X168709527Y-64583632D01*
X168628685Y-64827852D01*
X168561637Y-64946602D01*
X168498520Y-65027297D01*
X168397143Y-65145545D01*
X168273672Y-65282810D01*
X168190639Y-65371956D01*
X168073216Y-65499684D01*
X167979178Y-65608650D01*
X167919792Y-65685376D01*
X167904769Y-65713880D01*
X167878771Y-65748032D01*
X167798596Y-65739921D01*
X167660971Y-65688658D01*
X167465154Y-65594651D01*
X167311626Y-65513699D01*
X167218208Y-65448702D01*
X167175420Y-65380039D01*
X167173785Y-65288091D01*
X167203824Y-65153236D01*
X167220923Y-65089077D01*
X167251334Y-64893692D01*
X168334616Y-64893692D01*
X168364352Y-64931634D01*
X168373692Y-64932769D01*
X168411634Y-64903033D01*
X168412769Y-64893692D01*
X168383033Y-64855751D01*
X168373692Y-64854616D01*
X168335751Y-64884352D01*
X168334616Y-64893692D01*
X167251334Y-64893692D01*
X167274620Y-64744093D01*
X167259382Y-64386357D01*
X167179393Y-64030724D01*
X167156426Y-63975385D01*
X168569077Y-63975385D01*
X168588616Y-63994923D01*
X168608154Y-63975385D01*
X168588616Y-63955846D01*
X168569077Y-63975385D01*
X167156426Y-63975385D01*
X167038832Y-63692052D01*
X166841881Y-63385197D01*
X166729137Y-63257789D01*
X167851877Y-63257789D01*
X167856477Y-63296812D01*
X167904344Y-63383199D01*
X167994674Y-63511602D01*
X168002632Y-63522112D01*
X168119527Y-63659066D01*
X168217085Y-63740666D01*
X168288938Y-63763907D01*
X168319713Y-63734410D01*
X168425795Y-63734410D01*
X168431159Y-63757642D01*
X168451846Y-63760462D01*
X168484011Y-63746164D01*
X168477898Y-63734410D01*
X168431522Y-63729734D01*
X168425795Y-63734410D01*
X168319713Y-63734410D01*
X168328715Y-63725783D01*
X168334616Y-63678802D01*
X168305381Y-63598806D01*
X168236513Y-63515061D01*
X168156265Y-63458060D01*
X168121831Y-63449146D01*
X168071991Y-63423411D01*
X167995112Y-63361319D01*
X167975700Y-63343234D01*
X167891349Y-63271480D01*
X167851877Y-63257789D01*
X166729137Y-63257789D01*
X166694528Y-63218679D01*
X166652093Y-63181360D01*
X167986518Y-63181360D01*
X168014515Y-63208489D01*
X168022000Y-63213385D01*
X168080801Y-63247506D01*
X168098926Y-63237358D01*
X168100154Y-63213385D01*
X168067934Y-63180541D01*
X168031769Y-63174906D01*
X167986518Y-63181360D01*
X166652093Y-63181360D01*
X166556496Y-63097289D01*
X166396706Y-62979780D01*
X166300325Y-62920308D01*
X166195235Y-62865810D01*
X166103959Y-62831400D01*
X166003025Y-62812515D01*
X165868957Y-62804597D01*
X165696923Y-62803077D01*
X165511261Y-62805040D01*
X165381548Y-62813664D01*
X165285621Y-62833055D01*
X165201317Y-62867317D01*
X165126406Y-62908747D01*
X165010239Y-62990912D01*
X164871923Y-63108775D01*
X164739585Y-63238201D01*
X164727930Y-63250670D01*
X164622742Y-63359790D01*
X164535351Y-63442223D01*
X164480589Y-63484246D01*
X164472617Y-63486923D01*
X164431464Y-63459368D01*
X164347052Y-63382907D01*
X164228270Y-63266843D01*
X164084007Y-63120480D01*
X163923151Y-62953124D01*
X163754594Y-62774077D01*
X163587222Y-62592646D01*
X163429927Y-62418133D01*
X163322091Y-62294736D01*
X164106073Y-62294736D01*
X164118082Y-62365479D01*
X164123441Y-62377670D01*
X164157823Y-62436905D01*
X164199737Y-62438746D01*
X164257472Y-62404524D01*
X164320211Y-62356109D01*
X164321898Y-62315729D01*
X164287342Y-62272431D01*
X164223973Y-62225390D01*
X164158213Y-62242577D01*
X164153310Y-62245577D01*
X164106073Y-62294736D01*
X163322091Y-62294736D01*
X163291597Y-62259843D01*
X163258426Y-62220522D01*
X165680299Y-62220522D01*
X165694258Y-62252850D01*
X165738791Y-62292286D01*
X165802601Y-62328477D01*
X165830778Y-62330555D01*
X165816819Y-62298228D01*
X165772286Y-62258791D01*
X165708477Y-62222600D01*
X165680299Y-62220522D01*
X163258426Y-62220522D01*
X163226123Y-62182231D01*
X163174926Y-62119231D01*
X167631231Y-62119231D01*
X167645529Y-62151396D01*
X167657282Y-62145282D01*
X167661959Y-62098907D01*
X167657282Y-62093180D01*
X167634051Y-62098544D01*
X167631231Y-62119231D01*
X163174926Y-62119231D01*
X163063780Y-61982462D01*
X163332769Y-61982462D01*
X163352308Y-62002000D01*
X163371846Y-61982462D01*
X163352308Y-61962923D01*
X163332769Y-61982462D01*
X163063780Y-61982462D01*
X163027095Y-61937320D01*
X162970694Y-61865437D01*
X165456757Y-61865437D01*
X165458967Y-61951545D01*
X165461213Y-61958990D01*
X165500654Y-62030192D01*
X165553889Y-62025771D01*
X165602740Y-61978233D01*
X165632494Y-61922763D01*
X165599811Y-61875795D01*
X165580318Y-61860856D01*
X165502090Y-61831184D01*
X165456757Y-61865437D01*
X162970694Y-61865437D01*
X162939872Y-61826154D01*
X167826616Y-61826154D01*
X167846154Y-61845692D01*
X167865692Y-61826154D01*
X167846154Y-61806616D01*
X167826616Y-61826154D01*
X162939872Y-61826154D01*
X162823507Y-61677848D01*
X162784865Y-61627085D01*
X165180977Y-61627085D01*
X165208462Y-61650308D01*
X165270814Y-61685454D01*
X165279121Y-61672217D01*
X165274238Y-61663333D01*
X166081180Y-61663333D01*
X166086544Y-61686565D01*
X166107231Y-61689385D01*
X166139396Y-61675087D01*
X166133282Y-61663333D01*
X166086907Y-61658657D01*
X166081180Y-61663333D01*
X165274238Y-61663333D01*
X165267077Y-61650308D01*
X165210008Y-61613155D01*
X165196386Y-61611829D01*
X165180977Y-61627085D01*
X162784865Y-61627085D01*
X162652503Y-61453205D01*
X163729109Y-61453205D01*
X163741864Y-61492038D01*
X163790632Y-61515927D01*
X163807797Y-61509765D01*
X163824244Y-61468336D01*
X163805749Y-61443349D01*
X163753213Y-61420966D01*
X163729109Y-61453205D01*
X162652503Y-61453205D01*
X162621198Y-61412082D01*
X162594292Y-61375720D01*
X164865929Y-61375720D01*
X164908187Y-61425178D01*
X164915848Y-61430891D01*
X164992356Y-61463928D01*
X165057347Y-61458821D01*
X165083816Y-61419964D01*
X165080787Y-61404054D01*
X165029491Y-61336421D01*
X164953530Y-61307416D01*
X164889253Y-61328655D01*
X164865929Y-61375720D01*
X162594292Y-61375720D01*
X162482130Y-61224142D01*
X163178357Y-61224142D01*
X163190897Y-61279869D01*
X163230398Y-61320983D01*
X163256237Y-61317152D01*
X163274032Y-61273373D01*
X163250945Y-61235577D01*
X163199258Y-61196938D01*
X163178357Y-61224142D01*
X162482130Y-61224142D01*
X162426003Y-61148291D01*
X162379571Y-61083692D01*
X163137385Y-61083692D01*
X163156923Y-61103231D01*
X163176462Y-61083692D01*
X163156923Y-61064154D01*
X163137385Y-61083692D01*
X162379571Y-61083692D01*
X162335873Y-61022896D01*
X166280751Y-61022896D01*
X166290652Y-61039165D01*
X166347377Y-61062937D01*
X166379635Y-61021111D01*
X166380769Y-61005539D01*
X166360892Y-60953518D01*
X166343999Y-60946923D01*
X166292971Y-60972779D01*
X166280751Y-61022896D01*
X162335873Y-61022896D01*
X162243760Y-60894745D01*
X162229952Y-60874890D01*
X163423980Y-60874890D01*
X163435869Y-60927385D01*
X163490845Y-60977495D01*
X163579822Y-60977780D01*
X163639650Y-60951294D01*
X163672268Y-60908227D01*
X163649465Y-60837333D01*
X163648044Y-60834662D01*
X163581372Y-60766092D01*
X163505999Y-60756847D01*
X163445633Y-60796566D01*
X163423980Y-60874890D01*
X162229952Y-60874890D01*
X162151807Y-60762524D01*
X162697849Y-60762524D01*
X162733928Y-60810259D01*
X162739314Y-60814270D01*
X162809341Y-60842289D01*
X162866571Y-60832815D01*
X162883750Y-60793269D01*
X162877076Y-60776752D01*
X162817860Y-60685998D01*
X162773821Y-60660822D01*
X162731071Y-60694253D01*
X162726038Y-60700953D01*
X162697849Y-60762524D01*
X162151807Y-60762524D01*
X162080306Y-60659713D01*
X161975128Y-60501940D01*
X162447433Y-60501940D01*
X162453539Y-60517077D01*
X162488653Y-60554356D01*
X162494922Y-60556154D01*
X162511706Y-60525920D01*
X162512154Y-60517077D01*
X162498103Y-60499502D01*
X165653283Y-60499502D01*
X165678456Y-60568559D01*
X165699353Y-60592269D01*
X165782286Y-60651707D01*
X165838932Y-60638660D01*
X165865050Y-60567956D01*
X165847878Y-60495851D01*
X165787571Y-60464835D01*
X165692879Y-60460269D01*
X165653283Y-60499502D01*
X162498103Y-60499502D01*
X162482113Y-60479502D01*
X162470771Y-60478000D01*
X162447433Y-60501940D01*
X161975128Y-60501940D01*
X161941477Y-60451463D01*
X161833110Y-60278263D01*
X161761043Y-60148384D01*
X161731111Y-60070094D01*
X161730615Y-60063599D01*
X161734288Y-60033113D01*
X161752815Y-60008372D01*
X161797461Y-59985655D01*
X161879491Y-59961238D01*
X162010169Y-59931401D01*
X162200760Y-59892421D01*
X162320818Y-59868581D01*
X162506574Y-59832848D01*
X162661004Y-59806951D01*
X162801991Y-59789771D01*
X162947417Y-59780184D01*
X163115166Y-59777071D01*
X163323121Y-59779309D01*
G36*
X161011073Y-60292509D02*
G01*
X161036923Y-60330288D01*
X161095601Y-60421596D01*
X161178870Y-60553466D01*
X161278495Y-60712929D01*
X161297564Y-60743619D01*
X161430109Y-60949880D01*
X161590154Y-61187991D01*
X161757270Y-61428074D01*
X161907009Y-61634858D01*
X162040408Y-61816544D01*
X162130648Y-61946322D01*
X162183030Y-62033602D01*
X162202851Y-62087794D01*
X162195410Y-62118309D01*
X162184151Y-62127066D01*
X162140516Y-62180662D01*
X162122723Y-62257535D01*
X162132744Y-62325657D01*
X162170231Y-62353094D01*
X162266363Y-62319207D01*
X162320833Y-62245769D01*
X162349976Y-62249800D01*
X162412648Y-62305474D01*
X162496323Y-62401294D01*
X162512308Y-62421483D01*
X162690668Y-62639447D01*
X162911488Y-62893069D01*
X163159159Y-63165703D01*
X163418073Y-63440699D01*
X163672620Y-63701409D01*
X163907193Y-63931187D01*
X164062356Y-64074752D01*
X164169139Y-64174374D01*
X164231380Y-64252993D01*
X164264420Y-64339827D01*
X164283599Y-64464093D01*
X164288044Y-64504598D01*
X164363027Y-64936584D01*
X164488822Y-65315293D01*
X164663555Y-65638282D01*
X164885354Y-65903106D01*
X165152347Y-66107321D01*
X165462659Y-66248482D01*
X165664428Y-66301030D01*
X165949268Y-66323252D01*
X166226684Y-66273420D01*
X166508300Y-66149386D01*
X166519825Y-66142846D01*
X166723304Y-66026427D01*
X167021526Y-66168051D01*
X167319747Y-66309676D01*
X167199450Y-66510223D01*
X167043660Y-66786776D01*
X166924358Y-67043046D01*
X166837278Y-67296462D01*
X166778152Y-67564454D01*
X166742713Y-67864453D01*
X166726694Y-68213887D01*
X166724623Y-68449692D01*
X166721935Y-68744427D01*
X166712925Y-68966741D01*
X166697229Y-69122139D01*
X166674481Y-69216126D01*
X166673790Y-69217805D01*
X166635405Y-69281654D01*
X166567107Y-69348199D01*
X166457129Y-69426392D01*
X166293706Y-69525183D01*
X166198676Y-69579261D01*
X166033015Y-69670443D01*
X165890098Y-69745491D01*
X165784625Y-69796936D01*
X165731294Y-69817308D01*
X165730065Y-69817379D01*
X165708715Y-69784905D01*
X165692001Y-69685032D01*
X165679513Y-69514096D01*
X165671450Y-69292648D01*
X165664453Y-69074114D01*
X165655171Y-68918608D01*
X165641326Y-68811003D01*
X165620639Y-68736174D01*
X165590834Y-68678993D01*
X165575829Y-68657648D01*
X165463296Y-68563712D01*
X165429243Y-68555550D01*
X165958105Y-68555550D01*
X165977789Y-68580763D01*
X166035951Y-68595633D01*
X166089452Y-68554457D01*
X166098276Y-68535173D01*
X166079014Y-68498302D01*
X166032333Y-68488769D01*
X165962038Y-68507674D01*
X165958105Y-68555550D01*
X165429243Y-68555550D01*
X165325709Y-68530735D01*
X165183549Y-68556154D01*
X165057297Y-68637409D01*
X164986510Y-68731321D01*
X164959851Y-68792147D01*
X164940779Y-68869039D01*
X164928087Y-68975281D01*
X164920568Y-69124153D01*
X164917016Y-69328940D01*
X164916254Y-69504769D01*
X164915385Y-70149539D01*
X164524616Y-70237659D01*
X164340461Y-70274727D01*
X164166940Y-70301877D01*
X164029468Y-70315478D01*
X163977539Y-70315813D01*
X163821231Y-70305846D01*
X163820030Y-69816128D01*
X163817818Y-69602371D01*
X163810974Y-69449974D01*
X163797347Y-69342184D01*
X163774787Y-69262244D01*
X163741144Y-69193403D01*
X163739812Y-69191112D01*
X163633322Y-69068862D01*
X163503515Y-69007448D01*
X163368322Y-69008460D01*
X163245674Y-69073486D01*
X163186725Y-69142111D01*
X163157197Y-69201996D01*
X163135870Y-69286548D01*
X163120970Y-69409655D01*
X163110720Y-69585201D01*
X163104330Y-69786259D01*
X163090813Y-70325385D01*
X162928484Y-70322278D01*
X162797307Y-70311679D01*
X162634697Y-70287794D01*
X162531692Y-70267715D01*
X162378460Y-70233117D01*
X162233795Y-70198874D01*
X162160462Y-70180513D01*
X162023692Y-70144767D01*
X162000887Y-69499487D01*
X161990262Y-69242948D01*
X161978016Y-69050966D01*
X161962484Y-68909947D01*
X161942005Y-68806294D01*
X161914914Y-68726412D01*
X161903194Y-68700796D01*
X161846769Y-68602308D01*
X161784446Y-68555138D01*
X161683983Y-68537022D01*
X161663724Y-68535442D01*
X161515041Y-68538833D01*
X161402061Y-68578509D01*
X161320586Y-68662162D01*
X161266417Y-68797483D01*
X161235355Y-68992165D01*
X161223202Y-69253900D01*
X161222616Y-69343631D01*
X161222616Y-69815450D01*
X161115154Y-69774929D01*
X160988875Y-69718894D01*
X160836905Y-69638944D01*
X160674592Y-69544777D01*
X160517280Y-69446092D01*
X160380317Y-69352587D01*
X160279048Y-69273960D01*
X160228820Y-69219908D01*
X160226311Y-69213209D01*
X160220125Y-69149506D01*
X160213285Y-69021919D01*
X160206359Y-68844708D01*
X160199914Y-68632134D01*
X160195453Y-68442816D01*
X162141287Y-68442816D01*
X162153099Y-68480517D01*
X162207275Y-68551935D01*
X162245594Y-68593662D01*
X162347365Y-68687915D01*
X162411500Y-68723136D01*
X162433999Y-68697137D01*
X162434000Y-68696698D01*
X162408023Y-68654087D01*
X162344536Y-68588441D01*
X162265205Y-68518552D01*
X162191697Y-68463212D01*
X162145676Y-68441213D01*
X162141287Y-68442816D01*
X160195453Y-68442816D01*
X160195258Y-68434555D01*
X165104663Y-68434555D01*
X165110769Y-68449692D01*
X165145884Y-68486971D01*
X165152152Y-68488769D01*
X165168937Y-68458536D01*
X165169385Y-68449692D01*
X165139344Y-68412117D01*
X165128002Y-68410616D01*
X165104663Y-68434555D01*
X160195258Y-68434555D01*
X160195154Y-68430154D01*
X160189423Y-68176855D01*
X160188167Y-68141924D01*
X161620692Y-68141924D01*
X161654012Y-68205720D01*
X161740385Y-68292790D01*
X161827691Y-68369648D01*
X161879564Y-68402140D01*
X161917565Y-68399378D01*
X161948389Y-68380709D01*
X161970653Y-68354442D01*
X162206396Y-68354442D01*
X162220308Y-68368879D01*
X162246079Y-68370296D01*
X162317647Y-68349541D01*
X162337915Y-68329862D01*
X162352661Y-68279692D01*
X162316215Y-68276255D01*
X162255301Y-68312084D01*
X162206396Y-68354442D01*
X161970653Y-68354442D01*
X162012740Y-68304788D01*
X162010967Y-68224456D01*
X161987194Y-68195692D01*
X165169385Y-68195692D01*
X165188923Y-68215231D01*
X165208462Y-68195692D01*
X165188923Y-68176154D01*
X165169385Y-68195692D01*
X161987194Y-68195692D01*
X161952809Y-68154090D01*
X161848006Y-68108064D01*
X161756846Y-68098000D01*
X161654803Y-68107993D01*
X161620692Y-68141924D01*
X160188167Y-68141924D01*
X160182490Y-67984183D01*
X160181424Y-67969080D01*
X165759369Y-67969080D01*
X165777360Y-67980351D01*
X165794616Y-67980769D01*
X165832557Y-67951033D01*
X165833692Y-67941692D01*
X165866421Y-67909943D01*
X165911846Y-67902616D01*
X165975488Y-67878568D01*
X165984663Y-67823484D01*
X165938770Y-67762955D01*
X165915472Y-67748248D01*
X165860425Y-67731830D01*
X165823588Y-67767913D01*
X165798241Y-67830858D01*
X165766159Y-67926292D01*
X165759369Y-67969080D01*
X160181424Y-67969080D01*
X160175350Y-67883077D01*
X161261692Y-67883077D01*
X161281231Y-67902616D01*
X161300769Y-67883077D01*
X161281231Y-67863539D01*
X161261692Y-67883077D01*
X160175350Y-67883077D01*
X160171927Y-67834621D01*
X160155306Y-67710653D01*
X160130202Y-67594760D01*
X160100762Y-67492308D01*
X160753692Y-67492308D01*
X160773231Y-67511846D01*
X160792769Y-67492308D01*
X165755539Y-67492308D01*
X165775077Y-67511846D01*
X165794616Y-67492308D01*
X165775077Y-67472769D01*
X165755539Y-67492308D01*
X160792769Y-67492308D01*
X160773231Y-67472769D01*
X160753692Y-67492308D01*
X160100762Y-67492308D01*
X160094186Y-67469426D01*
X160076274Y-67414154D01*
X160870923Y-67414154D01*
X160890462Y-67433692D01*
X160892768Y-67431386D01*
X162238616Y-67431386D01*
X162266982Y-67471179D01*
X162277692Y-67472769D01*
X162315753Y-67459437D01*
X162316769Y-67455537D01*
X162289387Y-67422174D01*
X162277692Y-67414154D01*
X162241684Y-67417252D01*
X162238616Y-67431386D01*
X160892768Y-67431386D01*
X160910000Y-67414154D01*
X160890462Y-67394616D01*
X160870923Y-67414154D01*
X160076274Y-67414154D01*
X160044831Y-67317134D01*
X160044609Y-67316462D01*
X160714616Y-67316462D01*
X160728913Y-67348626D01*
X160740667Y-67342513D01*
X160742814Y-67321216D01*
X161516804Y-67321216D01*
X161523098Y-67352440D01*
X161564023Y-67405698D01*
X161630843Y-67427074D01*
X161693744Y-67415929D01*
X161722913Y-67371628D01*
X161721717Y-67356685D01*
X161678826Y-67308334D01*
X161606338Y-67284853D01*
X161533040Y-67285213D01*
X161516804Y-67321216D01*
X160742814Y-67321216D01*
X160745344Y-67296138D01*
X160740667Y-67290410D01*
X160717436Y-67295774D01*
X160714616Y-67316462D01*
X160044609Y-67316462D01*
X160038132Y-67296923D01*
X159942181Y-67034744D01*
X159864066Y-66866504D01*
X160841408Y-66866504D01*
X160849178Y-66911406D01*
X160919769Y-66934775D01*
X161007517Y-66920480D01*
X161080483Y-66865824D01*
X161086026Y-66852323D01*
X161965077Y-66852323D01*
X161991286Y-66884509D01*
X162045497Y-66878529D01*
X162091084Y-66840164D01*
X162094973Y-66831820D01*
X162100868Y-66769435D01*
X162095990Y-66759893D01*
X162946575Y-66759893D01*
X162974978Y-66933557D01*
X163020369Y-67043345D01*
X163136533Y-67198735D01*
X163285441Y-67291053D01*
X163452234Y-67317213D01*
X163622050Y-67274134D01*
X163743713Y-67193430D01*
X163871966Y-67064777D01*
X163883482Y-67046651D01*
X165502893Y-67046651D01*
X165506977Y-67084533D01*
X165552063Y-67093843D01*
X165646858Y-67080437D01*
X165769060Y-67042092D01*
X165869256Y-66984362D01*
X165882038Y-66972869D01*
X165961048Y-66893858D01*
X165835777Y-66829078D01*
X165745758Y-66788994D01*
X165683699Y-66789309D01*
X165615792Y-66826358D01*
X165545960Y-66886620D01*
X165518087Y-66936362D01*
X165508074Y-67017388D01*
X165502893Y-67046651D01*
X163883482Y-67046651D01*
X163953159Y-66936990D01*
X163988584Y-66796392D01*
X163983947Y-66710769D01*
X165794616Y-66710769D01*
X165814154Y-66730308D01*
X165833692Y-66710769D01*
X165814154Y-66691231D01*
X165794616Y-66710769D01*
X163983947Y-66710769D01*
X163979534Y-66629305D01*
X163927301Y-66422054D01*
X163839665Y-66177583D01*
X163751676Y-65954037D01*
X163685037Y-65793246D01*
X163634120Y-65684615D01*
X163593298Y-65617549D01*
X163556944Y-65581452D01*
X163519432Y-65565729D01*
X163514134Y-65564621D01*
X163425619Y-65580291D01*
X163334361Y-65662891D01*
X163238636Y-65815127D01*
X163136720Y-66039702D01*
X163034452Y-66317075D01*
X162966287Y-66560243D01*
X162946575Y-66759893D01*
X162095990Y-66759893D01*
X162092980Y-66754006D01*
X162049902Y-66755321D01*
X161996128Y-66794733D01*
X161965575Y-66846171D01*
X161965077Y-66852323D01*
X161086026Y-66852323D01*
X161105385Y-66805174D01*
X161074801Y-66762973D01*
X161004555Y-66753148D01*
X160926901Y-66777487D01*
X160904349Y-66794037D01*
X160841408Y-66866504D01*
X159864066Y-66866504D01*
X159835280Y-66804509D01*
X159705533Y-66586603D01*
X159697083Y-66575034D01*
X161736087Y-66575034D01*
X161738615Y-66588638D01*
X161764708Y-66622846D01*
X161824254Y-66677710D01*
X161859144Y-66691231D01*
X161886682Y-66683550D01*
X161883667Y-66680173D01*
X161842954Y-66650990D01*
X161789231Y-66611789D01*
X161736087Y-66575034D01*
X159697083Y-66575034D01*
X159610700Y-66456769D01*
X159894000Y-66456769D01*
X159908298Y-66488934D01*
X159920051Y-66482821D01*
X159924728Y-66436445D01*
X159920051Y-66430718D01*
X159896820Y-66436082D01*
X159894000Y-66456769D01*
X159610700Y-66456769D01*
X159541047Y-66361409D01*
X159510104Y-66324460D01*
X162282415Y-66324460D01*
X162292072Y-66378412D01*
X162302681Y-66390579D01*
X162351393Y-66398482D01*
X162390889Y-66358875D01*
X162394923Y-66337232D01*
X162363238Y-66304599D01*
X162336308Y-66300462D01*
X162282415Y-66324460D01*
X159510104Y-66324460D01*
X159329926Y-66109310D01*
X159291763Y-66066000D01*
X159425077Y-66066000D01*
X159456728Y-66100668D01*
X159483692Y-66105077D01*
X159535695Y-66083977D01*
X159542308Y-66066000D01*
X159510657Y-66031332D01*
X159483692Y-66026923D01*
X159431690Y-66048024D01*
X159425077Y-66066000D01*
X159291763Y-66066000D01*
X159025146Y-65764740D01*
X158805603Y-65513937D01*
X158777738Y-65481109D01*
X159119982Y-65481109D01*
X159162825Y-65504340D01*
X159223645Y-65500450D01*
X159314609Y-65497943D01*
X159367810Y-65521110D01*
X159367984Y-65521387D01*
X159398762Y-65555409D01*
X159404081Y-65518795D01*
X159383984Y-65414787D01*
X159375639Y-65382154D01*
X159464154Y-65382154D01*
X159483692Y-65401692D01*
X159503231Y-65382154D01*
X159483692Y-65362616D01*
X159464154Y-65382154D01*
X159375639Y-65382154D01*
X159365644Y-65343077D01*
X159340743Y-65262617D01*
X159425077Y-65262617D01*
X159445479Y-65316083D01*
X159464154Y-65323539D01*
X159502112Y-65295492D01*
X159503231Y-65286768D01*
X159474826Y-65233845D01*
X159464154Y-65225846D01*
X159430700Y-65234705D01*
X159425077Y-65262617D01*
X159340743Y-65262617D01*
X159334920Y-65243804D01*
X159316010Y-65216502D01*
X159310484Y-65245888D01*
X159273947Y-65344319D01*
X159222451Y-65382657D01*
X159139807Y-65435543D01*
X159119982Y-65481109D01*
X158777738Y-65481109D01*
X158628574Y-65305383D01*
X158528863Y-65180257D01*
X159008257Y-65180257D01*
X159013621Y-65203488D01*
X159034308Y-65206308D01*
X159066473Y-65192010D01*
X159060359Y-65180257D01*
X159013984Y-65175580D01*
X159008257Y-65180257D01*
X158528863Y-65180257D01*
X158489502Y-65130865D01*
X158445919Y-65069539D01*
X159268769Y-65069539D01*
X159288308Y-65089077D01*
X159307846Y-65069539D01*
X159288308Y-65050000D01*
X159268769Y-65069539D01*
X158445919Y-65069539D01*
X158383828Y-64982173D01*
X158306991Y-64851096D01*
X158254434Y-64729423D01*
X158221598Y-64608943D01*
X158220696Y-64602436D01*
X159661726Y-64602436D01*
X159693160Y-64995781D01*
X159718565Y-65119615D01*
X159803733Y-65397646D01*
X159923918Y-65631096D01*
X160095966Y-65851397D01*
X160131105Y-65889294D01*
X160381596Y-66105960D01*
X160651267Y-66246881D01*
X160939464Y-66311908D01*
X161245531Y-66300893D01*
X161562872Y-66215920D01*
X161791663Y-66094289D01*
X161990985Y-65929231D01*
X162551231Y-65929231D01*
X162570769Y-65948769D01*
X162590308Y-65929231D01*
X162570769Y-65909692D01*
X162551231Y-65929231D01*
X161990985Y-65929231D01*
X162014957Y-65909380D01*
X162220692Y-65675796D01*
X162396808Y-65408136D01*
X162531247Y-65121002D01*
X162574340Y-64991385D01*
X162634148Y-64670638D01*
X162640474Y-64328518D01*
X162596084Y-63987087D01*
X162503750Y-63668402D01*
X162375735Y-63409325D01*
X162171536Y-63151171D01*
X161931492Y-62957754D01*
X161664779Y-62829924D01*
X161380572Y-62768532D01*
X161088045Y-62774431D01*
X160796373Y-62848471D01*
X160514731Y-62991503D01*
X160252294Y-63204378D01*
X160245007Y-63211657D01*
X159997911Y-63513565D01*
X159816640Y-63852129D01*
X159703732Y-64218152D01*
X159661726Y-64602436D01*
X158220696Y-64602436D01*
X158203923Y-64481445D01*
X158199054Y-64383148D01*
X158535889Y-64383148D01*
X158541234Y-64385692D01*
X158576895Y-64358183D01*
X158583652Y-64348447D01*
X159286544Y-64348447D01*
X159290707Y-64434594D01*
X159306716Y-64510601D01*
X159329551Y-64542000D01*
X159336457Y-64507341D01*
X159337612Y-64420765D01*
X159336555Y-64385839D01*
X159326555Y-64291743D01*
X159307246Y-64274595D01*
X159298433Y-64286669D01*
X159286544Y-64348447D01*
X158583652Y-64348447D01*
X158584923Y-64346616D01*
X158594881Y-64310083D01*
X158589536Y-64307539D01*
X158553875Y-64335048D01*
X158545846Y-64346616D01*
X158535889Y-64383148D01*
X158199054Y-64383148D01*
X158196852Y-64338718D01*
X158195825Y-64172551D01*
X158196103Y-64092616D01*
X158197906Y-63870061D01*
X158201040Y-63780000D01*
X158760769Y-63780000D01*
X158780308Y-63799539D01*
X158799846Y-63780000D01*
X158780308Y-63760462D01*
X158838923Y-63760462D01*
X158870574Y-63795130D01*
X158897539Y-63799539D01*
X158949541Y-63778438D01*
X158956154Y-63760462D01*
X158933072Y-63735178D01*
X159567671Y-63735178D01*
X159585382Y-63791158D01*
X159592993Y-63803724D01*
X159631104Y-63856212D01*
X159656200Y-63840489D01*
X159675446Y-63799874D01*
X159695661Y-63729266D01*
X159690809Y-63700552D01*
X159642200Y-63695152D01*
X159608355Y-63704402D01*
X159567671Y-63735178D01*
X158933072Y-63735178D01*
X158924503Y-63725793D01*
X158897539Y-63721385D01*
X158845536Y-63742485D01*
X158838923Y-63760462D01*
X158780308Y-63760462D01*
X158760769Y-63780000D01*
X158201040Y-63780000D01*
X158203708Y-63703336D01*
X158205782Y-63682308D01*
X159307846Y-63682308D01*
X159335893Y-63720266D01*
X159344617Y-63721385D01*
X159397540Y-63692980D01*
X159405539Y-63682308D01*
X159396680Y-63648854D01*
X159368768Y-63643231D01*
X159315302Y-63663633D01*
X159307846Y-63682308D01*
X158205782Y-63682308D01*
X158216851Y-63570123D01*
X158240680Y-63448099D01*
X158278538Y-63314945D01*
X158333769Y-63148340D01*
X158340530Y-63128530D01*
X158343018Y-63121623D01*
X158526308Y-63121623D01*
X158547358Y-63164419D01*
X158621023Y-63165221D01*
X158630893Y-63163426D01*
X158736097Y-63167943D01*
X158789992Y-63197948D01*
X158868714Y-63249079D01*
X158928267Y-63224968D01*
X158937673Y-63211673D01*
X158938157Y-63151070D01*
X158893434Y-63095844D01*
X158831722Y-63078160D01*
X158822788Y-63080717D01*
X158760095Y-63070225D01*
X158723850Y-63040138D01*
X158723242Y-63039845D01*
X159268769Y-63039845D01*
X159276187Y-63087398D01*
X159314997Y-63089426D01*
X159364263Y-63072052D01*
X159404862Y-63038953D01*
X159382570Y-62994328D01*
X159322428Y-62959842D01*
X159277679Y-62992725D01*
X159268769Y-63039845D01*
X158723242Y-63039845D01*
X158656260Y-63007595D01*
X158581246Y-63028474D01*
X158531662Y-63089224D01*
X158526308Y-63121623D01*
X158343018Y-63121623D01*
X158412918Y-62927583D01*
X158492460Y-62724166D01*
X158561260Y-62562103D01*
X159711641Y-62562103D01*
X159717005Y-62585334D01*
X159737692Y-62588154D01*
X159769857Y-62573856D01*
X159763744Y-62562103D01*
X159717369Y-62557426D01*
X159711641Y-62562103D01*
X158561260Y-62562103D01*
X158567408Y-62547621D01*
X158606565Y-62464222D01*
X158671146Y-62353692D01*
X161886923Y-62353692D01*
X161901221Y-62385857D01*
X161912974Y-62379744D01*
X161917651Y-62333369D01*
X161912974Y-62327641D01*
X161889743Y-62333005D01*
X161886923Y-62353692D01*
X158671146Y-62353692D01*
X158777606Y-62171489D01*
X158917440Y-61978494D01*
X159386000Y-61978494D01*
X159420680Y-61982118D01*
X159507134Y-61984107D01*
X159539722Y-61984238D01*
X159636033Y-61978422D01*
X159665081Y-61958149D01*
X159654096Y-61936826D01*
X159590963Y-61905482D01*
X159562942Y-61909295D01*
X159500829Y-61902912D01*
X159485168Y-61887157D01*
X159483174Y-61841509D01*
X159532566Y-61821482D01*
X159609906Y-61830133D01*
X159679379Y-61861835D01*
X159746948Y-61895503D01*
X159776702Y-61889337D01*
X159776769Y-61887976D01*
X159748532Y-61833635D01*
X159741361Y-61828421D01*
X159721144Y-61777880D01*
X159726380Y-61728423D01*
X159726812Y-61670267D01*
X159673061Y-61651023D01*
X159646499Y-61650308D01*
X159553276Y-61625437D01*
X159502222Y-61581923D01*
X159470173Y-61535323D01*
X159471301Y-61554925D01*
X159479251Y-61581235D01*
X159479844Y-61658640D01*
X159456002Y-61770748D01*
X159443125Y-61810840D01*
X159408595Y-61909883D01*
X159388278Y-61970436D01*
X159386000Y-61978494D01*
X158917440Y-61978494D01*
X159003628Y-61859540D01*
X159270102Y-61544886D01*
X159403514Y-61407617D01*
X159750609Y-61407617D01*
X159792153Y-61410003D01*
X159849337Y-61387971D01*
X161619684Y-61387971D01*
X161629192Y-61409809D01*
X161668538Y-61451759D01*
X161691158Y-61443154D01*
X161691539Y-61437691D01*
X161663783Y-61404639D01*
X161646424Y-61392576D01*
X161619684Y-61387971D01*
X159849337Y-61387971D01*
X159889506Y-61372495D01*
X159927073Y-61354369D01*
X160009828Y-61295499D01*
X160049670Y-61232596D01*
X160050308Y-61225415D01*
X160056994Y-61200923D01*
X161496154Y-61200923D01*
X161515692Y-61220462D01*
X161535231Y-61200923D01*
X161515692Y-61181385D01*
X161496154Y-61200923D01*
X160056994Y-61200923D01*
X160072821Y-61142958D01*
X160091827Y-61116419D01*
X160097228Y-61082162D01*
X160031325Y-61055015D01*
X160004070Y-61049045D01*
X159884740Y-61052675D01*
X159807721Y-61109508D01*
X159787066Y-61206978D01*
X159792801Y-61237967D01*
X159790033Y-61325243D01*
X159770349Y-61364967D01*
X159750609Y-61407617D01*
X159403514Y-61407617D01*
X159562498Y-61244038D01*
X159866287Y-60973506D01*
X160032195Y-60844184D01*
X160052988Y-60829692D01*
X160362923Y-60829692D01*
X160376256Y-60867753D01*
X160380155Y-60868769D01*
X160413518Y-60841387D01*
X160421539Y-60829692D01*
X160418440Y-60793684D01*
X160404306Y-60790616D01*
X160364513Y-60818982D01*
X160362923Y-60829692D01*
X160052988Y-60829692D01*
X160171174Y-60747321D01*
X160332580Y-60643570D01*
X160502775Y-60540618D01*
X160668119Y-60446151D01*
X160814975Y-60367857D01*
X160929702Y-60313420D01*
X160998663Y-60290529D01*
X161011073Y-60292509D01*
G37*
X161011073Y-60292509D02*
X161036923Y-60330288D01*
X161095601Y-60421596D01*
X161178870Y-60553466D01*
X161278495Y-60712929D01*
X161297564Y-60743619D01*
X161430109Y-60949880D01*
X161590154Y-61187991D01*
X161757270Y-61428074D01*
X161907009Y-61634858D01*
X162040408Y-61816544D01*
X162130648Y-61946322D01*
X162183030Y-62033602D01*
X162202851Y-62087794D01*
X162195410Y-62118309D01*
X162184151Y-62127066D01*
X162140516Y-62180662D01*
X162122723Y-62257535D01*
X162132744Y-62325657D01*
X162170231Y-62353094D01*
X162266363Y-62319207D01*
X162320833Y-62245769D01*
X162349976Y-62249800D01*
X162412648Y-62305474D01*
X162496323Y-62401294D01*
X162512308Y-62421483D01*
X162690668Y-62639447D01*
X162911488Y-62893069D01*
X163159159Y-63165703D01*
X163418073Y-63440699D01*
X163672620Y-63701409D01*
X163907193Y-63931187D01*
X164062356Y-64074752D01*
X164169139Y-64174374D01*
X164231380Y-64252993D01*
X164264420Y-64339827D01*
X164283599Y-64464093D01*
X164288044Y-64504598D01*
X164363027Y-64936584D01*
X164488822Y-65315293D01*
X164663555Y-65638282D01*
X164885354Y-65903106D01*
X165152347Y-66107321D01*
X165462659Y-66248482D01*
X165664428Y-66301030D01*
X165949268Y-66323252D01*
X166226684Y-66273420D01*
X166508300Y-66149386D01*
X166519825Y-66142846D01*
X166723304Y-66026427D01*
X167021526Y-66168051D01*
X167319747Y-66309676D01*
X167199450Y-66510223D01*
X167043660Y-66786776D01*
X166924358Y-67043046D01*
X166837278Y-67296462D01*
X166778152Y-67564454D01*
X166742713Y-67864453D01*
X166726694Y-68213887D01*
X166724623Y-68449692D01*
X166721935Y-68744427D01*
X166712925Y-68966741D01*
X166697229Y-69122139D01*
X166674481Y-69216126D01*
X166673790Y-69217805D01*
X166635405Y-69281654D01*
X166567107Y-69348199D01*
X166457129Y-69426392D01*
X166293706Y-69525183D01*
X166198676Y-69579261D01*
X166033015Y-69670443D01*
X165890098Y-69745491D01*
X165784625Y-69796936D01*
X165731294Y-69817308D01*
X165730065Y-69817379D01*
X165708715Y-69784905D01*
X165692001Y-69685032D01*
X165679513Y-69514096D01*
X165671450Y-69292648D01*
X165664453Y-69074114D01*
X165655171Y-68918608D01*
X165641326Y-68811003D01*
X165620639Y-68736174D01*
X165590834Y-68678993D01*
X165575829Y-68657648D01*
X165463296Y-68563712D01*
X165429243Y-68555550D01*
X165958105Y-68555550D01*
X165977789Y-68580763D01*
X166035951Y-68595633D01*
X166089452Y-68554457D01*
X166098276Y-68535173D01*
X166079014Y-68498302D01*
X166032333Y-68488769D01*
X165962038Y-68507674D01*
X165958105Y-68555550D01*
X165429243Y-68555550D01*
X165325709Y-68530735D01*
X165183549Y-68556154D01*
X165057297Y-68637409D01*
X164986510Y-68731321D01*
X164959851Y-68792147D01*
X164940779Y-68869039D01*
X164928087Y-68975281D01*
X164920568Y-69124153D01*
X164917016Y-69328940D01*
X164916254Y-69504769D01*
X164915385Y-70149539D01*
X164524616Y-70237659D01*
X164340461Y-70274727D01*
X164166940Y-70301877D01*
X164029468Y-70315478D01*
X163977539Y-70315813D01*
X163821231Y-70305846D01*
X163820030Y-69816128D01*
X163817818Y-69602371D01*
X163810974Y-69449974D01*
X163797347Y-69342184D01*
X163774787Y-69262244D01*
X163741144Y-69193403D01*
X163739812Y-69191112D01*
X163633322Y-69068862D01*
X163503515Y-69007448D01*
X163368322Y-69008460D01*
X163245674Y-69073486D01*
X163186725Y-69142111D01*
X163157197Y-69201996D01*
X163135870Y-69286548D01*
X163120970Y-69409655D01*
X163110720Y-69585201D01*
X163104330Y-69786259D01*
X163090813Y-70325385D01*
X162928484Y-70322278D01*
X162797307Y-70311679D01*
X162634697Y-70287794D01*
X162531692Y-70267715D01*
X162378460Y-70233117D01*
X162233795Y-70198874D01*
X162160462Y-70180513D01*
X162023692Y-70144767D01*
X162000887Y-69499487D01*
X161990262Y-69242948D01*
X161978016Y-69050966D01*
X161962484Y-68909947D01*
X161942005Y-68806294D01*
X161914914Y-68726412D01*
X161903194Y-68700796D01*
X161846769Y-68602308D01*
X161784446Y-68555138D01*
X161683983Y-68537022D01*
X161663724Y-68535442D01*
X161515041Y-68538833D01*
X161402061Y-68578509D01*
X161320586Y-68662162D01*
X161266417Y-68797483D01*
X161235355Y-68992165D01*
X161223202Y-69253900D01*
X161222616Y-69343631D01*
X161222616Y-69815450D01*
X161115154Y-69774929D01*
X160988875Y-69718894D01*
X160836905Y-69638944D01*
X160674592Y-69544777D01*
X160517280Y-69446092D01*
X160380317Y-69352587D01*
X160279048Y-69273960D01*
X160228820Y-69219908D01*
X160226311Y-69213209D01*
X160220125Y-69149506D01*
X160213285Y-69021919D01*
X160206359Y-68844708D01*
X160199914Y-68632134D01*
X160195453Y-68442816D01*
X162141287Y-68442816D01*
X162153099Y-68480517D01*
X162207275Y-68551935D01*
X162245594Y-68593662D01*
X162347365Y-68687915D01*
X162411500Y-68723136D01*
X162433999Y-68697137D01*
X162434000Y-68696698D01*
X162408023Y-68654087D01*
X162344536Y-68588441D01*
X162265205Y-68518552D01*
X162191697Y-68463212D01*
X162145676Y-68441213D01*
X162141287Y-68442816D01*
X160195453Y-68442816D01*
X160195258Y-68434555D01*
X165104663Y-68434555D01*
X165110769Y-68449692D01*
X165145884Y-68486971D01*
X165152152Y-68488769D01*
X165168937Y-68458536D01*
X165169385Y-68449692D01*
X165139344Y-68412117D01*
X165128002Y-68410616D01*
X165104663Y-68434555D01*
X160195258Y-68434555D01*
X160195154Y-68430154D01*
X160189423Y-68176855D01*
X160188167Y-68141924D01*
X161620692Y-68141924D01*
X161654012Y-68205720D01*
X161740385Y-68292790D01*
X161827691Y-68369648D01*
X161879564Y-68402140D01*
X161917565Y-68399378D01*
X161948389Y-68380709D01*
X161970653Y-68354442D01*
X162206396Y-68354442D01*
X162220308Y-68368879D01*
X162246079Y-68370296D01*
X162317647Y-68349541D01*
X162337915Y-68329862D01*
X162352661Y-68279692D01*
X162316215Y-68276255D01*
X162255301Y-68312084D01*
X162206396Y-68354442D01*
X161970653Y-68354442D01*
X162012740Y-68304788D01*
X162010967Y-68224456D01*
X161987194Y-68195692D01*
X165169385Y-68195692D01*
X165188923Y-68215231D01*
X165208462Y-68195692D01*
X165188923Y-68176154D01*
X165169385Y-68195692D01*
X161987194Y-68195692D01*
X161952809Y-68154090D01*
X161848006Y-68108064D01*
X161756846Y-68098000D01*
X161654803Y-68107993D01*
X161620692Y-68141924D01*
X160188167Y-68141924D01*
X160182490Y-67984183D01*
X160181424Y-67969080D01*
X165759369Y-67969080D01*
X165777360Y-67980351D01*
X165794616Y-67980769D01*
X165832557Y-67951033D01*
X165833692Y-67941692D01*
X165866421Y-67909943D01*
X165911846Y-67902616D01*
X165975488Y-67878568D01*
X165984663Y-67823484D01*
X165938770Y-67762955D01*
X165915472Y-67748248D01*
X165860425Y-67731830D01*
X165823588Y-67767913D01*
X165798241Y-67830858D01*
X165766159Y-67926292D01*
X165759369Y-67969080D01*
X160181424Y-67969080D01*
X160175350Y-67883077D01*
X161261692Y-67883077D01*
X161281231Y-67902616D01*
X161300769Y-67883077D01*
X161281231Y-67863539D01*
X161261692Y-67883077D01*
X160175350Y-67883077D01*
X160171927Y-67834621D01*
X160155306Y-67710653D01*
X160130202Y-67594760D01*
X160100762Y-67492308D01*
X160753692Y-67492308D01*
X160773231Y-67511846D01*
X160792769Y-67492308D01*
X165755539Y-67492308D01*
X165775077Y-67511846D01*
X165794616Y-67492308D01*
X165775077Y-67472769D01*
X165755539Y-67492308D01*
X160792769Y-67492308D01*
X160773231Y-67472769D01*
X160753692Y-67492308D01*
X160100762Y-67492308D01*
X160094186Y-67469426D01*
X160076274Y-67414154D01*
X160870923Y-67414154D01*
X160890462Y-67433692D01*
X160892768Y-67431386D01*
X162238616Y-67431386D01*
X162266982Y-67471179D01*
X162277692Y-67472769D01*
X162315753Y-67459437D01*
X162316769Y-67455537D01*
X162289387Y-67422174D01*
X162277692Y-67414154D01*
X162241684Y-67417252D01*
X162238616Y-67431386D01*
X160892768Y-67431386D01*
X160910000Y-67414154D01*
X160890462Y-67394616D01*
X160870923Y-67414154D01*
X160076274Y-67414154D01*
X160044831Y-67317134D01*
X160044609Y-67316462D01*
X160714616Y-67316462D01*
X160728913Y-67348626D01*
X160740667Y-67342513D01*
X160742814Y-67321216D01*
X161516804Y-67321216D01*
X161523098Y-67352440D01*
X161564023Y-67405698D01*
X161630843Y-67427074D01*
X161693744Y-67415929D01*
X161722913Y-67371628D01*
X161721717Y-67356685D01*
X161678826Y-67308334D01*
X161606338Y-67284853D01*
X161533040Y-67285213D01*
X161516804Y-67321216D01*
X160742814Y-67321216D01*
X160745344Y-67296138D01*
X160740667Y-67290410D01*
X160717436Y-67295774D01*
X160714616Y-67316462D01*
X160044609Y-67316462D01*
X160038132Y-67296923D01*
X159942181Y-67034744D01*
X159864066Y-66866504D01*
X160841408Y-66866504D01*
X160849178Y-66911406D01*
X160919769Y-66934775D01*
X161007517Y-66920480D01*
X161080483Y-66865824D01*
X161086026Y-66852323D01*
X161965077Y-66852323D01*
X161991286Y-66884509D01*
X162045497Y-66878529D01*
X162091084Y-66840164D01*
X162094973Y-66831820D01*
X162100868Y-66769435D01*
X162095990Y-66759893D01*
X162946575Y-66759893D01*
X162974978Y-66933557D01*
X163020369Y-67043345D01*
X163136533Y-67198735D01*
X163285441Y-67291053D01*
X163452234Y-67317213D01*
X163622050Y-67274134D01*
X163743713Y-67193430D01*
X163871966Y-67064777D01*
X163883482Y-67046651D01*
X165502893Y-67046651D01*
X165506977Y-67084533D01*
X165552063Y-67093843D01*
X165646858Y-67080437D01*
X165769060Y-67042092D01*
X165869256Y-66984362D01*
X165882038Y-66972869D01*
X165961048Y-66893858D01*
X165835777Y-66829078D01*
X165745758Y-66788994D01*
X165683699Y-66789309D01*
X165615792Y-66826358D01*
X165545960Y-66886620D01*
X165518087Y-66936362D01*
X165508074Y-67017388D01*
X165502893Y-67046651D01*
X163883482Y-67046651D01*
X163953159Y-66936990D01*
X163988584Y-66796392D01*
X163983947Y-66710769D01*
X165794616Y-66710769D01*
X165814154Y-66730308D01*
X165833692Y-66710769D01*
X165814154Y-66691231D01*
X165794616Y-66710769D01*
X163983947Y-66710769D01*
X163979534Y-66629305D01*
X163927301Y-66422054D01*
X163839665Y-66177583D01*
X163751676Y-65954037D01*
X163685037Y-65793246D01*
X163634120Y-65684615D01*
X163593298Y-65617549D01*
X163556944Y-65581452D01*
X163519432Y-65565729D01*
X163514134Y-65564621D01*
X163425619Y-65580291D01*
X163334361Y-65662891D01*
X163238636Y-65815127D01*
X163136720Y-66039702D01*
X163034452Y-66317075D01*
X162966287Y-66560243D01*
X162946575Y-66759893D01*
X162095990Y-66759893D01*
X162092980Y-66754006D01*
X162049902Y-66755321D01*
X161996128Y-66794733D01*
X161965575Y-66846171D01*
X161965077Y-66852323D01*
X161086026Y-66852323D01*
X161105385Y-66805174D01*
X161074801Y-66762973D01*
X161004555Y-66753148D01*
X160926901Y-66777487D01*
X160904349Y-66794037D01*
X160841408Y-66866504D01*
X159864066Y-66866504D01*
X159835280Y-66804509D01*
X159705533Y-66586603D01*
X159697083Y-66575034D01*
X161736087Y-66575034D01*
X161738615Y-66588638D01*
X161764708Y-66622846D01*
X161824254Y-66677710D01*
X161859144Y-66691231D01*
X161886682Y-66683550D01*
X161883667Y-66680173D01*
X161842954Y-66650990D01*
X161789231Y-66611789D01*
X161736087Y-66575034D01*
X159697083Y-66575034D01*
X159610700Y-66456769D01*
X159894000Y-66456769D01*
X159908298Y-66488934D01*
X159920051Y-66482821D01*
X159924728Y-66436445D01*
X159920051Y-66430718D01*
X159896820Y-66436082D01*
X159894000Y-66456769D01*
X159610700Y-66456769D01*
X159541047Y-66361409D01*
X159510104Y-66324460D01*
X162282415Y-66324460D01*
X162292072Y-66378412D01*
X162302681Y-66390579D01*
X162351393Y-66398482D01*
X162390889Y-66358875D01*
X162394923Y-66337232D01*
X162363238Y-66304599D01*
X162336308Y-66300462D01*
X162282415Y-66324460D01*
X159510104Y-66324460D01*
X159329926Y-66109310D01*
X159291763Y-66066000D01*
X159425077Y-66066000D01*
X159456728Y-66100668D01*
X159483692Y-66105077D01*
X159535695Y-66083977D01*
X159542308Y-66066000D01*
X159510657Y-66031332D01*
X159483692Y-66026923D01*
X159431690Y-66048024D01*
X159425077Y-66066000D01*
X159291763Y-66066000D01*
X159025146Y-65764740D01*
X158805603Y-65513937D01*
X158777738Y-65481109D01*
X159119982Y-65481109D01*
X159162825Y-65504340D01*
X159223645Y-65500450D01*
X159314609Y-65497943D01*
X159367810Y-65521110D01*
X159367984Y-65521387D01*
X159398762Y-65555409D01*
X159404081Y-65518795D01*
X159383984Y-65414787D01*
X159375639Y-65382154D01*
X159464154Y-65382154D01*
X159483692Y-65401692D01*
X159503231Y-65382154D01*
X159483692Y-65362616D01*
X159464154Y-65382154D01*
X159375639Y-65382154D01*
X159365644Y-65343077D01*
X159340743Y-65262617D01*
X159425077Y-65262617D01*
X159445479Y-65316083D01*
X159464154Y-65323539D01*
X159502112Y-65295492D01*
X159503231Y-65286768D01*
X159474826Y-65233845D01*
X159464154Y-65225846D01*
X159430700Y-65234705D01*
X159425077Y-65262617D01*
X159340743Y-65262617D01*
X159334920Y-65243804D01*
X159316010Y-65216502D01*
X159310484Y-65245888D01*
X159273947Y-65344319D01*
X159222451Y-65382657D01*
X159139807Y-65435543D01*
X159119982Y-65481109D01*
X158777738Y-65481109D01*
X158628574Y-65305383D01*
X158528863Y-65180257D01*
X159008257Y-65180257D01*
X159013621Y-65203488D01*
X159034308Y-65206308D01*
X159066473Y-65192010D01*
X159060359Y-65180257D01*
X159013984Y-65175580D01*
X159008257Y-65180257D01*
X158528863Y-65180257D01*
X158489502Y-65130865D01*
X158445919Y-65069539D01*
X159268769Y-65069539D01*
X159288308Y-65089077D01*
X159307846Y-65069539D01*
X159288308Y-65050000D01*
X159268769Y-65069539D01*
X158445919Y-65069539D01*
X158383828Y-64982173D01*
X158306991Y-64851096D01*
X158254434Y-64729423D01*
X158221598Y-64608943D01*
X158220696Y-64602436D01*
X159661726Y-64602436D01*
X159693160Y-64995781D01*
X159718565Y-65119615D01*
X159803733Y-65397646D01*
X159923918Y-65631096D01*
X160095966Y-65851397D01*
X160131105Y-65889294D01*
X160381596Y-66105960D01*
X160651267Y-66246881D01*
X160939464Y-66311908D01*
X161245531Y-66300893D01*
X161562872Y-66215920D01*
X161791663Y-66094289D01*
X161990985Y-65929231D01*
X162551231Y-65929231D01*
X162570769Y-65948769D01*
X162590308Y-65929231D01*
X162570769Y-65909692D01*
X162551231Y-65929231D01*
X161990985Y-65929231D01*
X162014957Y-65909380D01*
X162220692Y-65675796D01*
X162396808Y-65408136D01*
X162531247Y-65121002D01*
X162574340Y-64991385D01*
X162634148Y-64670638D01*
X162640474Y-64328518D01*
X162596084Y-63987087D01*
X162503750Y-63668402D01*
X162375735Y-63409325D01*
X162171536Y-63151171D01*
X161931492Y-62957754D01*
X161664779Y-62829924D01*
X161380572Y-62768532D01*
X161088045Y-62774431D01*
X160796373Y-62848471D01*
X160514731Y-62991503D01*
X160252294Y-63204378D01*
X160245007Y-63211657D01*
X159997911Y-63513565D01*
X159816640Y-63852129D01*
X159703732Y-64218152D01*
X159661726Y-64602436D01*
X158220696Y-64602436D01*
X158203923Y-64481445D01*
X158199054Y-64383148D01*
X158535889Y-64383148D01*
X158541234Y-64385692D01*
X158576895Y-64358183D01*
X158583652Y-64348447D01*
X159286544Y-64348447D01*
X159290707Y-64434594D01*
X159306716Y-64510601D01*
X159329551Y-64542000D01*
X159336457Y-64507341D01*
X159337612Y-64420765D01*
X159336555Y-64385839D01*
X159326555Y-64291743D01*
X159307246Y-64274595D01*
X159298433Y-64286669D01*
X159286544Y-64348447D01*
X158583652Y-64348447D01*
X158584923Y-64346616D01*
X158594881Y-64310083D01*
X158589536Y-64307539D01*
X158553875Y-64335048D01*
X158545846Y-64346616D01*
X158535889Y-64383148D01*
X158199054Y-64383148D01*
X158196852Y-64338718D01*
X158195825Y-64172551D01*
X158196103Y-64092616D01*
X158197906Y-63870061D01*
X158201040Y-63780000D01*
X158760769Y-63780000D01*
X158780308Y-63799539D01*
X158799846Y-63780000D01*
X158780308Y-63760462D01*
X158838923Y-63760462D01*
X158870574Y-63795130D01*
X158897539Y-63799539D01*
X158949541Y-63778438D01*
X158956154Y-63760462D01*
X158933072Y-63735178D01*
X159567671Y-63735178D01*
X159585382Y-63791158D01*
X159592993Y-63803724D01*
X159631104Y-63856212D01*
X159656200Y-63840489D01*
X159675446Y-63799874D01*
X159695661Y-63729266D01*
X159690809Y-63700552D01*
X159642200Y-63695152D01*
X159608355Y-63704402D01*
X159567671Y-63735178D01*
X158933072Y-63735178D01*
X158924503Y-63725793D01*
X158897539Y-63721385D01*
X158845536Y-63742485D01*
X158838923Y-63760462D01*
X158780308Y-63760462D01*
X158760769Y-63780000D01*
X158201040Y-63780000D01*
X158203708Y-63703336D01*
X158205782Y-63682308D01*
X159307846Y-63682308D01*
X159335893Y-63720266D01*
X159344617Y-63721385D01*
X159397540Y-63692980D01*
X159405539Y-63682308D01*
X159396680Y-63648854D01*
X159368768Y-63643231D01*
X159315302Y-63663633D01*
X159307846Y-63682308D01*
X158205782Y-63682308D01*
X158216851Y-63570123D01*
X158240680Y-63448099D01*
X158278538Y-63314945D01*
X158333769Y-63148340D01*
X158340530Y-63128530D01*
X158343018Y-63121623D01*
X158526308Y-63121623D01*
X158547358Y-63164419D01*
X158621023Y-63165221D01*
X158630893Y-63163426D01*
X158736097Y-63167943D01*
X158789992Y-63197948D01*
X158868714Y-63249079D01*
X158928267Y-63224968D01*
X158937673Y-63211673D01*
X158938157Y-63151070D01*
X158893434Y-63095844D01*
X158831722Y-63078160D01*
X158822788Y-63080717D01*
X158760095Y-63070225D01*
X158723850Y-63040138D01*
X158723242Y-63039845D01*
X159268769Y-63039845D01*
X159276187Y-63087398D01*
X159314997Y-63089426D01*
X159364263Y-63072052D01*
X159404862Y-63038953D01*
X159382570Y-62994328D01*
X159322428Y-62959842D01*
X159277679Y-62992725D01*
X159268769Y-63039845D01*
X158723242Y-63039845D01*
X158656260Y-63007595D01*
X158581246Y-63028474D01*
X158531662Y-63089224D01*
X158526308Y-63121623D01*
X158343018Y-63121623D01*
X158412918Y-62927583D01*
X158492460Y-62724166D01*
X158561260Y-62562103D01*
X159711641Y-62562103D01*
X159717005Y-62585334D01*
X159737692Y-62588154D01*
X159769857Y-62573856D01*
X159763744Y-62562103D01*
X159717369Y-62557426D01*
X159711641Y-62562103D01*
X158561260Y-62562103D01*
X158567408Y-62547621D01*
X158606565Y-62464222D01*
X158671146Y-62353692D01*
X161886923Y-62353692D01*
X161901221Y-62385857D01*
X161912974Y-62379744D01*
X161917651Y-62333369D01*
X161912974Y-62327641D01*
X161889743Y-62333005D01*
X161886923Y-62353692D01*
X158671146Y-62353692D01*
X158777606Y-62171489D01*
X158917440Y-61978494D01*
X159386000Y-61978494D01*
X159420680Y-61982118D01*
X159507134Y-61984107D01*
X159539722Y-61984238D01*
X159636033Y-61978422D01*
X159665081Y-61958149D01*
X159654096Y-61936826D01*
X159590963Y-61905482D01*
X159562942Y-61909295D01*
X159500829Y-61902912D01*
X159485168Y-61887157D01*
X159483174Y-61841509D01*
X159532566Y-61821482D01*
X159609906Y-61830133D01*
X159679379Y-61861835D01*
X159746948Y-61895503D01*
X159776702Y-61889337D01*
X159776769Y-61887976D01*
X159748532Y-61833635D01*
X159741361Y-61828421D01*
X159721144Y-61777880D01*
X159726380Y-61728423D01*
X159726812Y-61670267D01*
X159673061Y-61651023D01*
X159646499Y-61650308D01*
X159553276Y-61625437D01*
X159502222Y-61581923D01*
X159470173Y-61535323D01*
X159471301Y-61554925D01*
X159479251Y-61581235D01*
X159479844Y-61658640D01*
X159456002Y-61770748D01*
X159443125Y-61810840D01*
X159408595Y-61909883D01*
X159388278Y-61970436D01*
X159386000Y-61978494D01*
X158917440Y-61978494D01*
X159003628Y-61859540D01*
X159270102Y-61544886D01*
X159403514Y-61407617D01*
X159750609Y-61407617D01*
X159792153Y-61410003D01*
X159849337Y-61387971D01*
X161619684Y-61387971D01*
X161629192Y-61409809D01*
X161668538Y-61451759D01*
X161691158Y-61443154D01*
X161691539Y-61437691D01*
X161663783Y-61404639D01*
X161646424Y-61392576D01*
X161619684Y-61387971D01*
X159849337Y-61387971D01*
X159889506Y-61372495D01*
X159927073Y-61354369D01*
X160009828Y-61295499D01*
X160049670Y-61232596D01*
X160050308Y-61225415D01*
X160056994Y-61200923D01*
X161496154Y-61200923D01*
X161515692Y-61220462D01*
X161535231Y-61200923D01*
X161515692Y-61181385D01*
X161496154Y-61200923D01*
X160056994Y-61200923D01*
X160072821Y-61142958D01*
X160091827Y-61116419D01*
X160097228Y-61082162D01*
X160031325Y-61055015D01*
X160004070Y-61049045D01*
X159884740Y-61052675D01*
X159807721Y-61109508D01*
X159787066Y-61206978D01*
X159792801Y-61237967D01*
X159790033Y-61325243D01*
X159770349Y-61364967D01*
X159750609Y-61407617D01*
X159403514Y-61407617D01*
X159562498Y-61244038D01*
X159866287Y-60973506D01*
X160032195Y-60844184D01*
X160052988Y-60829692D01*
X160362923Y-60829692D01*
X160376256Y-60867753D01*
X160380155Y-60868769D01*
X160413518Y-60841387D01*
X160421539Y-60829692D01*
X160418440Y-60793684D01*
X160404306Y-60790616D01*
X160364513Y-60818982D01*
X160362923Y-60829692D01*
X160052988Y-60829692D01*
X160171174Y-60747321D01*
X160332580Y-60643570D01*
X160502775Y-60540618D01*
X160668119Y-60446151D01*
X160814975Y-60367857D01*
X160929702Y-60313420D01*
X160998663Y-60290529D01*
X161011073Y-60292509D01*
D11*
G04 #@! TO.C,X1*
X151908000Y-98766200D02*
X138700000Y-98766200D01*
X138700000Y-98766200D02*
X138700000Y-105878200D01*
X138700000Y-105878200D02*
X152035000Y-105878200D01*
X152035000Y-105878200D02*
X152035000Y-98766200D01*
X147463000Y-98131200D02*
X143145000Y-98131200D01*
X143145000Y-98131200D02*
X143145000Y-98639200D01*
X143145000Y-98512200D02*
X147463000Y-98512200D01*
X147463000Y-98639200D02*
X147463000Y-98131200D01*
X138430000Y-97055000D02*
G75*
G03*
X138430000Y-97055000I-1000000J0D01*
G01*
D12*
X150122104Y-107777161D02*
X149979247Y-107824780D01*
X149741152Y-107824780D01*
X149645914Y-107777161D01*
X149598295Y-107729542D01*
X149550676Y-107634304D01*
X149550676Y-107539066D01*
X149598295Y-107443828D01*
X149645914Y-107396209D01*
X149741152Y-107348590D01*
X149931628Y-107300971D01*
X150026866Y-107253352D01*
X150074485Y-107205733D01*
X150122104Y-107110495D01*
X150122104Y-107015257D01*
X150074485Y-106920019D01*
X150026866Y-106872400D01*
X149931628Y-106824780D01*
X149693533Y-106824780D01*
X149550676Y-106872400D01*
X149169723Y-107539066D02*
X148693533Y-107539066D01*
X149264961Y-107824780D02*
X148931628Y-106824780D01*
X148598295Y-107824780D01*
X148074485Y-106824780D02*
X147884009Y-106824780D01*
X147788771Y-106872400D01*
X147693533Y-106967638D01*
X147645914Y-107158114D01*
X147645914Y-107491447D01*
X147693533Y-107681923D01*
X147788771Y-107777161D01*
X147884009Y-107824780D01*
X148074485Y-107824780D01*
X148169723Y-107777161D01*
X148264961Y-107681923D01*
X148312580Y-107491447D01*
X148312580Y-107158114D01*
X148264961Y-106967638D01*
X148169723Y-106872400D01*
X148074485Y-106824780D01*
X147455438Y-107920019D02*
X146693533Y-107920019D01*
X146550676Y-107158114D02*
X146312580Y-107824780D01*
X146074485Y-107158114D01*
X145169723Y-107824780D02*
X145741152Y-107824780D01*
X145455438Y-107824780D02*
X145455438Y-106824780D01*
X145550676Y-106967638D01*
X145645914Y-107062876D01*
X145741152Y-107110495D01*
X144741152Y-107729542D02*
X144693533Y-107777161D01*
X144741152Y-107824780D01*
X144788771Y-107777161D01*
X144741152Y-107729542D01*
X144741152Y-107824780D01*
X143836390Y-106824780D02*
X144026866Y-106824780D01*
X144122104Y-106872400D01*
X144169723Y-106920019D01*
X144264961Y-107062876D01*
X144312580Y-107253352D01*
X144312580Y-107634304D01*
X144264961Y-107729542D01*
X144217342Y-107777161D01*
X144122104Y-107824780D01*
X143931628Y-107824780D01*
X143836390Y-107777161D01*
X143788771Y-107729542D01*
X143741152Y-107634304D01*
X143741152Y-107396209D01*
X143788771Y-107300971D01*
X143836390Y-107253352D01*
X143931628Y-107205733D01*
X144122104Y-107205733D01*
X144217342Y-107253352D01*
X144264961Y-107300971D01*
X144312580Y-107396209D01*
X143264961Y-107824780D02*
X143074485Y-107824780D01*
X142979247Y-107777161D01*
X142931628Y-107729542D01*
X142836390Y-107586685D01*
X142788771Y-107396209D01*
X142788771Y-107015257D01*
X142836390Y-106920019D01*
X142884009Y-106872400D01*
X142979247Y-106824780D01*
X143169723Y-106824780D01*
X143264961Y-106872400D01*
X143312580Y-106920019D01*
X143360200Y-107015257D01*
X143360200Y-107253352D01*
X143312580Y-107348590D01*
X143264961Y-107396209D01*
X143169723Y-107443828D01*
X142979247Y-107443828D01*
X142884009Y-107396209D01*
X142836390Y-107348590D01*
X142788771Y-107253352D01*
X142360200Y-107824780D02*
X142360200Y-106824780D01*
X142360200Y-107205733D02*
X142264961Y-107158114D01*
X142074485Y-107158114D01*
X141979247Y-107205733D01*
X141931628Y-107253352D01*
X141884009Y-107348590D01*
X141884009Y-107634304D01*
X141931628Y-107729542D01*
X141979247Y-107777161D01*
X142074485Y-107824780D01*
X142264961Y-107824780D01*
X142360200Y-107777161D01*
X141455438Y-107824780D02*
X141455438Y-107158114D01*
X141455438Y-106824780D02*
X141503057Y-106872400D01*
X141455438Y-106920019D01*
X141407819Y-106872400D01*
X141455438Y-106824780D01*
X141455438Y-106920019D01*
X141026866Y-107777161D02*
X140931628Y-107824780D01*
X140741152Y-107824780D01*
X140645914Y-107777161D01*
X140598295Y-107681923D01*
X140598295Y-107634304D01*
X140645914Y-107539066D01*
X140741152Y-107491447D01*
X140884009Y-107491447D01*
X140979247Y-107443828D01*
X141026866Y-107348590D01*
X141026866Y-107300971D01*
X140979247Y-107205733D01*
X140884009Y-107158114D01*
X140741152Y-107158114D01*
X140645914Y-107205733D01*
X143484600Y-99117485D02*
X143234600Y-99867485D01*
X142984600Y-99117485D01*
X142306028Y-99796057D02*
X142341742Y-99831771D01*
X142448885Y-99867485D01*
X142520314Y-99867485D01*
X142627457Y-99831771D01*
X142698885Y-99760342D01*
X142734600Y-99688914D01*
X142770314Y-99546057D01*
X142770314Y-99438914D01*
X142734600Y-99296057D01*
X142698885Y-99224628D01*
X142627457Y-99153200D01*
X142520314Y-99117485D01*
X142448885Y-99117485D01*
X142341742Y-99153200D01*
X142306028Y-99188914D01*
X141556028Y-99796057D02*
X141591742Y-99831771D01*
X141698885Y-99867485D01*
X141770314Y-99867485D01*
X141877457Y-99831771D01*
X141948885Y-99760342D01*
X141984600Y-99688914D01*
X142020314Y-99546057D01*
X142020314Y-99438914D01*
X141984600Y-99296057D01*
X141948885Y-99224628D01*
X141877457Y-99153200D01*
X141770314Y-99117485D01*
X141698885Y-99117485D01*
X141591742Y-99153200D01*
X141556028Y-99188914D01*
X143106828Y-104792000D02*
X143178257Y-104756285D01*
X143285400Y-104756285D01*
X143392542Y-104792000D01*
X143463971Y-104863428D01*
X143499685Y-104934857D01*
X143535400Y-105077714D01*
X143535400Y-105184857D01*
X143499685Y-105327714D01*
X143463971Y-105399142D01*
X143392542Y-105470571D01*
X143285400Y-105506285D01*
X143213971Y-105506285D01*
X143106828Y-105470571D01*
X143071114Y-105434857D01*
X143071114Y-105184857D01*
X143213971Y-105184857D01*
X142749685Y-105506285D02*
X142749685Y-104756285D01*
X142321114Y-105506285D01*
X142321114Y-104756285D01*
X141963971Y-105506285D02*
X141963971Y-104756285D01*
X141785400Y-104756285D01*
X141678257Y-104792000D01*
X141606828Y-104863428D01*
X141571114Y-104934857D01*
X141535400Y-105077714D01*
X141535400Y-105184857D01*
X141571114Y-105327714D01*
X141606828Y-105399142D01*
X141678257Y-105470571D01*
X141785400Y-105506285D01*
X141963971Y-105506285D01*
X146189314Y-99806371D02*
X146082171Y-99842085D01*
X145903600Y-99842085D01*
X145832171Y-99806371D01*
X145796457Y-99770657D01*
X145760742Y-99699228D01*
X145760742Y-99627800D01*
X145796457Y-99556371D01*
X145832171Y-99520657D01*
X145903600Y-99484942D01*
X146046457Y-99449228D01*
X146117885Y-99413514D01*
X146153600Y-99377800D01*
X146189314Y-99306371D01*
X146189314Y-99234942D01*
X146153600Y-99163514D01*
X146117885Y-99127800D01*
X146046457Y-99092085D01*
X145867885Y-99092085D01*
X145760742Y-99127800D01*
X145439314Y-99842085D02*
X145439314Y-99092085D01*
X145260742Y-99092085D01*
X145153600Y-99127800D01*
X145082171Y-99199228D01*
X145046457Y-99270657D01*
X145010742Y-99413514D01*
X145010742Y-99520657D01*
X145046457Y-99663514D01*
X145082171Y-99734942D01*
X145153600Y-99806371D01*
X145260742Y-99842085D01*
X145439314Y-99842085D01*
X144725028Y-99627800D02*
X144367885Y-99627800D01*
X144796457Y-99842085D02*
X144546457Y-99092085D01*
X144296457Y-99842085D01*
X145917457Y-105470571D02*
X145810314Y-105506285D01*
X145631742Y-105506285D01*
X145560314Y-105470571D01*
X145524600Y-105434857D01*
X145488885Y-105363428D01*
X145488885Y-105292000D01*
X145524600Y-105220571D01*
X145560314Y-105184857D01*
X145631742Y-105149142D01*
X145774600Y-105113428D01*
X145846028Y-105077714D01*
X145881742Y-105042000D01*
X145917457Y-104970571D01*
X145917457Y-104899142D01*
X145881742Y-104827714D01*
X145846028Y-104792000D01*
X145774600Y-104756285D01*
X145596028Y-104756285D01*
X145488885Y-104792000D01*
X144738885Y-105434857D02*
X144774600Y-105470571D01*
X144881742Y-105506285D01*
X144953171Y-105506285D01*
X145060314Y-105470571D01*
X145131742Y-105399142D01*
X145167457Y-105327714D01*
X145203171Y-105184857D01*
X145203171Y-105077714D01*
X145167457Y-104934857D01*
X145131742Y-104863428D01*
X145060314Y-104792000D01*
X144953171Y-104756285D01*
X144881742Y-104756285D01*
X144774600Y-104792000D01*
X144738885Y-104827714D01*
X144060314Y-105506285D02*
X144417457Y-105506285D01*
X144417457Y-104756285D01*
X150246542Y-104766600D02*
X150317971Y-104730885D01*
X150425114Y-104730885D01*
X150532257Y-104766600D01*
X150603685Y-104838028D01*
X150639400Y-104909457D01*
X150675114Y-105052314D01*
X150675114Y-105159457D01*
X150639400Y-105302314D01*
X150603685Y-105373742D01*
X150532257Y-105445171D01*
X150425114Y-105480885D01*
X150353685Y-105480885D01*
X150246542Y-105445171D01*
X150210828Y-105409457D01*
X150210828Y-105159457D01*
X150353685Y-105159457D01*
X149889400Y-105480885D02*
X149889400Y-104730885D01*
X149603685Y-104730885D01*
X149532257Y-104766600D01*
X149496542Y-104802314D01*
X149460828Y-104873742D01*
X149460828Y-104980885D01*
X149496542Y-105052314D01*
X149532257Y-105088028D01*
X149603685Y-105123742D01*
X149889400Y-105123742D01*
X149139400Y-105480885D02*
X149139400Y-104730885D01*
X148639400Y-104730885D02*
X148496542Y-104730885D01*
X148425114Y-104766600D01*
X148353685Y-104838028D01*
X148317971Y-104980885D01*
X148317971Y-105230885D01*
X148353685Y-105373742D01*
X148425114Y-105445171D01*
X148496542Y-105480885D01*
X148639400Y-105480885D01*
X148710828Y-105445171D01*
X148782257Y-105373742D01*
X148817971Y-105230885D01*
X148817971Y-104980885D01*
X148782257Y-104838028D01*
X148710828Y-104766600D01*
X148639400Y-104730885D01*
X148032257Y-104802314D02*
X147996542Y-104766600D01*
X147925114Y-104730885D01*
X147746542Y-104730885D01*
X147675114Y-104766600D01*
X147639400Y-104802314D01*
X147603685Y-104873742D01*
X147603685Y-104945171D01*
X147639400Y-105052314D01*
X148067971Y-105480885D01*
X147603685Y-105480885D01*
X150068742Y-99127800D02*
X150140171Y-99092085D01*
X150247314Y-99092085D01*
X150354457Y-99127800D01*
X150425885Y-99199228D01*
X150461600Y-99270657D01*
X150497314Y-99413514D01*
X150497314Y-99520657D01*
X150461600Y-99663514D01*
X150425885Y-99734942D01*
X150354457Y-99806371D01*
X150247314Y-99842085D01*
X150175885Y-99842085D01*
X150068742Y-99806371D01*
X150033028Y-99770657D01*
X150033028Y-99520657D01*
X150175885Y-99520657D01*
X149711600Y-99842085D02*
X149711600Y-99092085D01*
X149425885Y-99092085D01*
X149354457Y-99127800D01*
X149318742Y-99163514D01*
X149283028Y-99234942D01*
X149283028Y-99342085D01*
X149318742Y-99413514D01*
X149354457Y-99449228D01*
X149425885Y-99484942D01*
X149711600Y-99484942D01*
X148961600Y-99842085D02*
X148961600Y-99092085D01*
X148461600Y-99092085D02*
X148318742Y-99092085D01*
X148247314Y-99127800D01*
X148175885Y-99199228D01*
X148140171Y-99342085D01*
X148140171Y-99592085D01*
X148175885Y-99734942D01*
X148247314Y-99806371D01*
X148318742Y-99842085D01*
X148461600Y-99842085D01*
X148533028Y-99806371D01*
X148604457Y-99734942D01*
X148640171Y-99592085D01*
X148640171Y-99342085D01*
X148604457Y-99199228D01*
X148533028Y-99127800D01*
X148461600Y-99092085D01*
X147425885Y-99842085D02*
X147854457Y-99842085D01*
X147640171Y-99842085D02*
X147640171Y-99092085D01*
X147711600Y-99199228D01*
X147783028Y-99270657D01*
X147854457Y-99306371D01*
G04 #@! TD*
M02*
