G04 #@! TF.GenerationSoftware,KiCad,Pcbnew,(5.1.10)-1*
G04 #@! TF.CreationDate,2021-09-01T23:51:14-05:00*
G04 #@! TF.ProjectId,Bsides-KC-2021-Sumo-Logic-Sponsor-SAO-SVG2Shenzen v1_00 (Paths),42736964-6573-42d4-9b43-2d323032312d,rev?*
G04 #@! TF.SameCoordinates,Original*
G04 #@! TF.FileFunction,Legend,Top*
G04 #@! TF.FilePolarity,Positive*
%FSLAX46Y46*%
G04 Gerber Fmt 4.6, Leading zero omitted, Abs format (unit mm)*
G04 Created by KiCad (PCBNEW (5.1.10)-1) date 2021-09-01 23:51:14*
%MOMM*%
%LPD*%
G01*
G04 APERTURE LIST*
%ADD10C,0.010000*%
G04 APERTURE END LIST*
D10*
G04 #@! TO.C,G\u002A\u002A\u002A*
G36*
X156689667Y-91055834D02*
G01*
X133850834Y-91055834D01*
X133850834Y-80595604D01*
X139036667Y-80595604D01*
X139036667Y-85256167D01*
X140264334Y-85256167D01*
X140264880Y-83875042D01*
X140265295Y-83542429D01*
X140266426Y-83249292D01*
X140268520Y-82992774D01*
X140271825Y-82770021D01*
X140276586Y-82578177D01*
X140283052Y-82414387D01*
X140291468Y-82275795D01*
X140302083Y-82159546D01*
X140315143Y-82062784D01*
X140330895Y-81982654D01*
X140349587Y-81916301D01*
X140371465Y-81860869D01*
X140396777Y-81813502D01*
X140425769Y-81771346D01*
X140449407Y-81742213D01*
X140509521Y-81683211D01*
X140594914Y-81613419D01*
X140693318Y-81541598D01*
X140792464Y-81476510D01*
X140880083Y-81426914D01*
X140910930Y-81412629D01*
X141025517Y-81385527D01*
X141145245Y-81392616D01*
X141235227Y-81423586D01*
X141309666Y-81472448D01*
X141397712Y-81546667D01*
X141489673Y-81636256D01*
X141575853Y-81731230D01*
X141646559Y-81821601D01*
X141689167Y-81891188D01*
X141712272Y-81939520D01*
X141732373Y-81985620D01*
X141749700Y-82032716D01*
X141764484Y-82084030D01*
X141776953Y-82142786D01*
X141787339Y-82212210D01*
X141795871Y-82295526D01*
X141802779Y-82395958D01*
X141808293Y-82516730D01*
X141812643Y-82661066D01*
X141816059Y-82832192D01*
X141818770Y-83033330D01*
X141821008Y-83267707D01*
X141823001Y-83538545D01*
X141824616Y-83790375D01*
X141833732Y-85256167D01*
X142994834Y-85256167D01*
X142995169Y-83980875D01*
X142995640Y-83658157D01*
X142996941Y-83374725D01*
X142999178Y-83127535D01*
X143002453Y-82913545D01*
X143006871Y-82729713D01*
X143012535Y-82572998D01*
X143019549Y-82440356D01*
X143028017Y-82328746D01*
X143038044Y-82235125D01*
X143049732Y-82156451D01*
X143059116Y-82107907D01*
X143102833Y-81974990D01*
X143177125Y-81849980D01*
X143285968Y-81727254D01*
X143397140Y-81629709D01*
X143544540Y-81517641D01*
X143671368Y-81438686D01*
X143783549Y-81392943D01*
X143887006Y-81380509D01*
X143987664Y-81401482D01*
X144091447Y-81455960D01*
X144204279Y-81544040D01*
X144311100Y-81644778D01*
X144417001Y-81762699D01*
X144494647Y-81881831D01*
X144550909Y-82015350D01*
X144592658Y-82176431D01*
X144595402Y-82190022D01*
X144602488Y-82230454D01*
X144608664Y-82277697D01*
X144614018Y-82335009D01*
X144618639Y-82405647D01*
X144622617Y-82492868D01*
X144626041Y-82599931D01*
X144628999Y-82730092D01*
X144631581Y-82886609D01*
X144633876Y-83072740D01*
X144635973Y-83291742D01*
X144637961Y-83546873D01*
X144639739Y-83811542D01*
X144648935Y-85256167D01*
X145725334Y-85256167D01*
X145725060Y-84076125D01*
X145723828Y-83622583D01*
X145720320Y-83210201D01*
X145716188Y-82946702D01*
X147322921Y-82946702D01*
X147324145Y-83128777D01*
X147327112Y-83300372D01*
X147331857Y-83454888D01*
X147338416Y-83585727D01*
X147346823Y-83686289D01*
X147350579Y-83715659D01*
X147397561Y-83971644D01*
X147459145Y-84192834D01*
X147537835Y-84385000D01*
X147636133Y-84553912D01*
X147756542Y-84705344D01*
X147799108Y-84750002D01*
X148023728Y-84948111D01*
X148269614Y-85110603D01*
X148537989Y-85238059D01*
X148830074Y-85331062D01*
X149143750Y-85389760D01*
X149236706Y-85397349D01*
X149360325Y-85401144D01*
X149503130Y-85401382D01*
X149653643Y-85398301D01*
X149800386Y-85392138D01*
X149931882Y-85383130D01*
X150036654Y-85371516D01*
X150038452Y-85371251D01*
X150344754Y-85306061D01*
X150634156Y-85204795D01*
X150903227Y-85069207D01*
X151148538Y-84901054D01*
X151366660Y-84702090D01*
X151385772Y-84681726D01*
X151505969Y-84532977D01*
X151603197Y-84368866D01*
X151680099Y-84183055D01*
X151739320Y-83969209D01*
X151781917Y-83732167D01*
X151791167Y-83641481D01*
X151798640Y-83515990D01*
X151804334Y-83363163D01*
X151808246Y-83190472D01*
X151810374Y-83005389D01*
X151810716Y-82815383D01*
X151809270Y-82627926D01*
X151806034Y-82450488D01*
X151801005Y-82290542D01*
X151794182Y-82155557D01*
X151785561Y-82053005D01*
X151782421Y-82028250D01*
X151741513Y-81818122D01*
X151679999Y-81632089D01*
X151593278Y-81461606D01*
X151476749Y-81298126D01*
X151325812Y-81133104D01*
X151272895Y-81081793D01*
X151039907Y-80889897D01*
X150782945Y-80732274D01*
X150503627Y-80609474D01*
X150203571Y-80522047D01*
X149884393Y-80470544D01*
X149547711Y-80455514D01*
X149440084Y-80458345D01*
X149099650Y-80491112D01*
X148782134Y-80559462D01*
X148487489Y-80663413D01*
X148215670Y-80802986D01*
X147966630Y-80978198D01*
X147790151Y-81137623D01*
X147634496Y-81313410D01*
X147515049Y-81495761D01*
X147426307Y-81694858D01*
X147362764Y-81920882D01*
X147360165Y-81933000D01*
X147350184Y-82003679D01*
X147341697Y-82110067D01*
X147334741Y-82245566D01*
X147329349Y-82403578D01*
X147325558Y-82577504D01*
X147323404Y-82760744D01*
X147322921Y-82946702D01*
X145716188Y-82946702D01*
X145714480Y-82837865D01*
X145706258Y-82504461D01*
X145695599Y-82208873D01*
X145682451Y-81949988D01*
X145666761Y-81726690D01*
X145648476Y-81537866D01*
X145627543Y-81382401D01*
X145603909Y-81259181D01*
X145588536Y-81200682D01*
X145526414Y-81063461D01*
X145427325Y-80934102D01*
X145296271Y-80814923D01*
X145138254Y-80708243D01*
X144958276Y-80616381D01*
X144761339Y-80541656D01*
X144552445Y-80486387D01*
X144336597Y-80452894D01*
X144118796Y-80443494D01*
X143973439Y-80451914D01*
X143780030Y-80480737D01*
X143607650Y-80528124D01*
X143444741Y-80598821D01*
X143279743Y-80697570D01*
X143153584Y-80788382D01*
X143072988Y-80846290D01*
X142996277Y-80895393D01*
X142934820Y-80928671D01*
X142911705Y-80937669D01*
X142850866Y-80944636D01*
X142782922Y-80930588D01*
X142701852Y-80892937D01*
X142601638Y-80829096D01*
X142518584Y-80768727D01*
X142348003Y-80654028D01*
X142176743Y-80568842D01*
X141994724Y-80509732D01*
X141791864Y-80473261D01*
X141607297Y-80458049D01*
X141378336Y-80456045D01*
X141175090Y-80476146D01*
X140985500Y-80521347D01*
X140797506Y-80594640D01*
X140599051Y-80699021D01*
X140571618Y-80715170D01*
X140446564Y-80786258D01*
X140349830Y-80832310D01*
X140276202Y-80854135D01*
X140220469Y-80852537D01*
X140177419Y-80828323D01*
X140141839Y-80782299D01*
X140141492Y-80781711D01*
X140098546Y-80729058D01*
X140033220Y-80686578D01*
X139975359Y-80661174D01*
X139927493Y-80643815D01*
X139879434Y-80630805D01*
X139823642Y-80621331D01*
X139752578Y-80614584D01*
X139658699Y-80609751D01*
X139534465Y-80606022D01*
X139444125Y-80604015D01*
X139036667Y-80595604D01*
X133850834Y-80595604D01*
X133850834Y-77732256D01*
X138702362Y-77732256D01*
X138959473Y-77915045D01*
X139123749Y-78030139D01*
X139261444Y-78122362D01*
X139378954Y-78195389D01*
X139482676Y-78252892D01*
X139579006Y-78298546D01*
X139674340Y-78336024D01*
X139719255Y-78351409D01*
X139890250Y-78401210D01*
X140073691Y-78441409D01*
X140274575Y-78472527D01*
X140497896Y-78495082D01*
X140748651Y-78509593D01*
X141031833Y-78516580D01*
X141312084Y-78516914D01*
X141473906Y-78515432D01*
X141599679Y-78513429D01*
X141695683Y-78510389D01*
X141768204Y-78505800D01*
X141823523Y-78499147D01*
X141867923Y-78489915D01*
X141907687Y-78477591D01*
X141939322Y-78465583D01*
X142068890Y-78401293D01*
X142215218Y-78306254D01*
X142371861Y-78185121D01*
X142532374Y-78042552D01*
X142555449Y-78020510D01*
X142671102Y-77900104D01*
X142760540Y-77783784D01*
X142826347Y-77664032D01*
X142871103Y-77533329D01*
X142897391Y-77384157D01*
X142907793Y-77208998D01*
X142904980Y-77002710D01*
X142889589Y-76794782D01*
X142858458Y-76619245D01*
X142808484Y-76468085D01*
X142736562Y-76333290D01*
X142639588Y-76206846D01*
X142567247Y-76130826D01*
X142451520Y-76034926D01*
X142302807Y-75940005D01*
X142130259Y-75851125D01*
X141943025Y-75773347D01*
X141882265Y-75751888D01*
X141808053Y-75729057D01*
X141701604Y-75699377D01*
X141572000Y-75665224D01*
X141428319Y-75628971D01*
X141279642Y-75592995D01*
X141233327Y-75582123D01*
X140982026Y-75521231D01*
X140769788Y-75464381D01*
X140593661Y-75410424D01*
X140450694Y-75358210D01*
X140337936Y-75306590D01*
X140252435Y-75254416D01*
X140191240Y-75200539D01*
X140164306Y-75165920D01*
X140133535Y-75082738D01*
X140133962Y-74984049D01*
X140163057Y-74879928D01*
X140218290Y-74780449D01*
X140278270Y-74712204D01*
X140403328Y-74624472D01*
X140558929Y-74564418D01*
X140743158Y-74532548D01*
X140954099Y-74529365D01*
X140970424Y-74530265D01*
X141117052Y-74546389D01*
X141265370Y-74578681D01*
X141422085Y-74629517D01*
X141593905Y-74701271D01*
X141787536Y-74796319D01*
X141916571Y-74865296D01*
X142026110Y-74924891D01*
X142122827Y-74976738D01*
X142200643Y-75017641D01*
X142253480Y-75044404D01*
X142275190Y-75053834D01*
X142295788Y-75038725D01*
X142338702Y-74997262D01*
X142398703Y-74935237D01*
X142470565Y-74858445D01*
X142549059Y-74772678D01*
X142628958Y-74683730D01*
X142705035Y-74597394D01*
X142772062Y-74519464D01*
X142824811Y-74455733D01*
X142858055Y-74411995D01*
X142865792Y-74399301D01*
X142880057Y-74352080D01*
X142872846Y-74306652D01*
X142840367Y-74257202D01*
X142778830Y-74197913D01*
X142686845Y-74124788D01*
X142444032Y-73966081D01*
X142171485Y-73833800D01*
X141873645Y-73729394D01*
X141835192Y-73720334D01*
X147434985Y-73720334D01*
X147447710Y-74074875D01*
X147452268Y-74209934D01*
X147457339Y-74373653D01*
X147462527Y-74552365D01*
X147467435Y-74732408D01*
X147471668Y-74900117D01*
X147471801Y-74905667D01*
X147481470Y-75304114D01*
X147490604Y-75662612D01*
X147499403Y-75983542D01*
X147508070Y-76269280D01*
X147516809Y-76522207D01*
X147525821Y-76744701D01*
X147535309Y-76939141D01*
X147545475Y-77107905D01*
X147556521Y-77253373D01*
X147568651Y-77377923D01*
X147582066Y-77483934D01*
X147596969Y-77573784D01*
X147613563Y-77649853D01*
X147632049Y-77714519D01*
X147652631Y-77770161D01*
X147675511Y-77819158D01*
X147700890Y-77863889D01*
X147726948Y-77903793D01*
X147860062Y-78061619D01*
X148028651Y-78201334D01*
X148229022Y-78320891D01*
X148457484Y-78418244D01*
X148710344Y-78491347D01*
X148831091Y-78515784D01*
X148959064Y-78531245D01*
X149113290Y-78538727D01*
X149281328Y-78538627D01*
X149450735Y-78531346D01*
X149609068Y-78517281D01*
X149743885Y-78496830D01*
X149796623Y-78484855D01*
X149901090Y-78451685D01*
X150012745Y-78407399D01*
X150103539Y-78363586D01*
X150245175Y-78286381D01*
X150354854Y-78229198D01*
X150437135Y-78190640D01*
X150496575Y-78169310D01*
X150537733Y-78163811D01*
X150565166Y-78172744D01*
X150583432Y-78194713D01*
X150591986Y-78213828D01*
X150621049Y-78263273D01*
X150669148Y-78302481D01*
X150740227Y-78332365D01*
X150838232Y-78353838D01*
X150967107Y-78367815D01*
X151130799Y-78375208D01*
X151296614Y-78377000D01*
X151673167Y-78377000D01*
X151673167Y-73720334D01*
X150424334Y-73720334D01*
X150423967Y-75122625D01*
X150423715Y-75453346D01*
X150422930Y-75744617D01*
X150421294Y-75999321D01*
X150418487Y-76220339D01*
X150414191Y-76410554D01*
X150408087Y-76572848D01*
X150399856Y-76710105D01*
X150389179Y-76825207D01*
X150375737Y-76921035D01*
X150359212Y-77000474D01*
X150339284Y-77066404D01*
X150315635Y-77121709D01*
X150287946Y-77169271D01*
X150255898Y-77211973D01*
X150219172Y-77252697D01*
X150184493Y-77287466D01*
X150041861Y-77405493D01*
X149883146Y-77499973D01*
X149717069Y-77567403D01*
X149552350Y-77604279D01*
X149397711Y-77607098D01*
X149390879Y-77606339D01*
X149245629Y-77570970D01*
X149106949Y-77503543D01*
X148984313Y-77410814D01*
X148887191Y-77299540D01*
X148838647Y-77212357D01*
X148811884Y-77138589D01*
X148788187Y-77047513D01*
X148767415Y-76936822D01*
X148749429Y-76804212D01*
X148734090Y-76647378D01*
X148721257Y-76464014D01*
X148710792Y-76251815D01*
X148702555Y-76008476D01*
X148696407Y-75731692D01*
X148692207Y-75419157D01*
X148689816Y-75068567D01*
X148689104Y-74741625D01*
X148688667Y-73720334D01*
X147434985Y-73720334D01*
X141835192Y-73720334D01*
X141554958Y-73654309D01*
X141219865Y-73609994D01*
X141079250Y-73601075D01*
X140780366Y-73600976D01*
X140496477Y-73626509D01*
X140230487Y-73676310D01*
X139985298Y-73749012D01*
X139763815Y-73843248D01*
X139568941Y-73957652D01*
X139403579Y-74090858D01*
X139270632Y-74241500D01*
X139173004Y-74408210D01*
X139131949Y-74517497D01*
X139105363Y-74631997D01*
X139083925Y-74775794D01*
X139068824Y-74936038D01*
X139061254Y-75099879D01*
X139062406Y-75254465D01*
X139062784Y-75263287D01*
X139083963Y-75466863D01*
X139129680Y-75639817D01*
X139203131Y-75788085D01*
X139307507Y-75917604D01*
X139446001Y-76034310D01*
X139495906Y-76068516D01*
X139598096Y-76130184D01*
X139714285Y-76189300D01*
X139849574Y-76247863D01*
X140009063Y-76307869D01*
X140197855Y-76371314D01*
X140421049Y-76440197D01*
X140520188Y-76469452D01*
X140659754Y-76510775D01*
X140795185Y-76551925D01*
X140917710Y-76590156D01*
X141018557Y-76622725D01*
X141088953Y-76646888D01*
X141097236Y-76649953D01*
X141268866Y-76721812D01*
X141427224Y-76802098D01*
X141566371Y-76886933D01*
X141680368Y-76972443D01*
X141763275Y-77054749D01*
X141799627Y-77108373D01*
X141830514Y-77204646D01*
X141822706Y-77294045D01*
X141779479Y-77375209D01*
X141704111Y-77446779D01*
X141599880Y-77507392D01*
X141470062Y-77555689D01*
X141317934Y-77590309D01*
X141146775Y-77609891D01*
X140959860Y-77613074D01*
X140760468Y-77598498D01*
X140654698Y-77583734D01*
X140493507Y-77553689D01*
X140347503Y-77516870D01*
X140208010Y-77469716D01*
X140066355Y-77408667D01*
X139913861Y-77330162D01*
X139741855Y-77230642D01*
X139635319Y-77165365D01*
X139376721Y-77004556D01*
X139317819Y-77075755D01*
X139284498Y-77113745D01*
X139227749Y-77175985D01*
X139153429Y-77256155D01*
X139067395Y-77347935D01*
X138980639Y-77439605D01*
X138702362Y-77732256D01*
X133850834Y-77732256D01*
X133850834Y-68068834D01*
X156689667Y-68068834D01*
X156689667Y-91055834D01*
G37*
X156689667Y-91055834D02*
X133850834Y-91055834D01*
X133850834Y-80595604D01*
X139036667Y-80595604D01*
X139036667Y-85256167D01*
X140264334Y-85256167D01*
X140264880Y-83875042D01*
X140265295Y-83542429D01*
X140266426Y-83249292D01*
X140268520Y-82992774D01*
X140271825Y-82770021D01*
X140276586Y-82578177D01*
X140283052Y-82414387D01*
X140291468Y-82275795D01*
X140302083Y-82159546D01*
X140315143Y-82062784D01*
X140330895Y-81982654D01*
X140349587Y-81916301D01*
X140371465Y-81860869D01*
X140396777Y-81813502D01*
X140425769Y-81771346D01*
X140449407Y-81742213D01*
X140509521Y-81683211D01*
X140594914Y-81613419D01*
X140693318Y-81541598D01*
X140792464Y-81476510D01*
X140880083Y-81426914D01*
X140910930Y-81412629D01*
X141025517Y-81385527D01*
X141145245Y-81392616D01*
X141235227Y-81423586D01*
X141309666Y-81472448D01*
X141397712Y-81546667D01*
X141489673Y-81636256D01*
X141575853Y-81731230D01*
X141646559Y-81821601D01*
X141689167Y-81891188D01*
X141712272Y-81939520D01*
X141732373Y-81985620D01*
X141749700Y-82032716D01*
X141764484Y-82084030D01*
X141776953Y-82142786D01*
X141787339Y-82212210D01*
X141795871Y-82295526D01*
X141802779Y-82395958D01*
X141808293Y-82516730D01*
X141812643Y-82661066D01*
X141816059Y-82832192D01*
X141818770Y-83033330D01*
X141821008Y-83267707D01*
X141823001Y-83538545D01*
X141824616Y-83790375D01*
X141833732Y-85256167D01*
X142994834Y-85256167D01*
X142995169Y-83980875D01*
X142995640Y-83658157D01*
X142996941Y-83374725D01*
X142999178Y-83127535D01*
X143002453Y-82913545D01*
X143006871Y-82729713D01*
X143012535Y-82572998D01*
X143019549Y-82440356D01*
X143028017Y-82328746D01*
X143038044Y-82235125D01*
X143049732Y-82156451D01*
X143059116Y-82107907D01*
X143102833Y-81974990D01*
X143177125Y-81849980D01*
X143285968Y-81727254D01*
X143397140Y-81629709D01*
X143544540Y-81517641D01*
X143671368Y-81438686D01*
X143783549Y-81392943D01*
X143887006Y-81380509D01*
X143987664Y-81401482D01*
X144091447Y-81455960D01*
X144204279Y-81544040D01*
X144311100Y-81644778D01*
X144417001Y-81762699D01*
X144494647Y-81881831D01*
X144550909Y-82015350D01*
X144592658Y-82176431D01*
X144595402Y-82190022D01*
X144602488Y-82230454D01*
X144608664Y-82277697D01*
X144614018Y-82335009D01*
X144618639Y-82405647D01*
X144622617Y-82492868D01*
X144626041Y-82599931D01*
X144628999Y-82730092D01*
X144631581Y-82886609D01*
X144633876Y-83072740D01*
X144635973Y-83291742D01*
X144637961Y-83546873D01*
X144639739Y-83811542D01*
X144648935Y-85256167D01*
X145725334Y-85256167D01*
X145725060Y-84076125D01*
X145723828Y-83622583D01*
X145720320Y-83210201D01*
X145716188Y-82946702D01*
X147322921Y-82946702D01*
X147324145Y-83128777D01*
X147327112Y-83300372D01*
X147331857Y-83454888D01*
X147338416Y-83585727D01*
X147346823Y-83686289D01*
X147350579Y-83715659D01*
X147397561Y-83971644D01*
X147459145Y-84192834D01*
X147537835Y-84385000D01*
X147636133Y-84553912D01*
X147756542Y-84705344D01*
X147799108Y-84750002D01*
X148023728Y-84948111D01*
X148269614Y-85110603D01*
X148537989Y-85238059D01*
X148830074Y-85331062D01*
X149143750Y-85389760D01*
X149236706Y-85397349D01*
X149360325Y-85401144D01*
X149503130Y-85401382D01*
X149653643Y-85398301D01*
X149800386Y-85392138D01*
X149931882Y-85383130D01*
X150036654Y-85371516D01*
X150038452Y-85371251D01*
X150344754Y-85306061D01*
X150634156Y-85204795D01*
X150903227Y-85069207D01*
X151148538Y-84901054D01*
X151366660Y-84702090D01*
X151385772Y-84681726D01*
X151505969Y-84532977D01*
X151603197Y-84368866D01*
X151680099Y-84183055D01*
X151739320Y-83969209D01*
X151781917Y-83732167D01*
X151791167Y-83641481D01*
X151798640Y-83515990D01*
X151804334Y-83363163D01*
X151808246Y-83190472D01*
X151810374Y-83005389D01*
X151810716Y-82815383D01*
X151809270Y-82627926D01*
X151806034Y-82450488D01*
X151801005Y-82290542D01*
X151794182Y-82155557D01*
X151785561Y-82053005D01*
X151782421Y-82028250D01*
X151741513Y-81818122D01*
X151679999Y-81632089D01*
X151593278Y-81461606D01*
X151476749Y-81298126D01*
X151325812Y-81133104D01*
X151272895Y-81081793D01*
X151039907Y-80889897D01*
X150782945Y-80732274D01*
X150503627Y-80609474D01*
X150203571Y-80522047D01*
X149884393Y-80470544D01*
X149547711Y-80455514D01*
X149440084Y-80458345D01*
X149099650Y-80491112D01*
X148782134Y-80559462D01*
X148487489Y-80663413D01*
X148215670Y-80802986D01*
X147966630Y-80978198D01*
X147790151Y-81137623D01*
X147634496Y-81313410D01*
X147515049Y-81495761D01*
X147426307Y-81694858D01*
X147362764Y-81920882D01*
X147360165Y-81933000D01*
X147350184Y-82003679D01*
X147341697Y-82110067D01*
X147334741Y-82245566D01*
X147329349Y-82403578D01*
X147325558Y-82577504D01*
X147323404Y-82760744D01*
X147322921Y-82946702D01*
X145716188Y-82946702D01*
X145714480Y-82837865D01*
X145706258Y-82504461D01*
X145695599Y-82208873D01*
X145682451Y-81949988D01*
X145666761Y-81726690D01*
X145648476Y-81537866D01*
X145627543Y-81382401D01*
X145603909Y-81259181D01*
X145588536Y-81200682D01*
X145526414Y-81063461D01*
X145427325Y-80934102D01*
X145296271Y-80814923D01*
X145138254Y-80708243D01*
X144958276Y-80616381D01*
X144761339Y-80541656D01*
X144552445Y-80486387D01*
X144336597Y-80452894D01*
X144118796Y-80443494D01*
X143973439Y-80451914D01*
X143780030Y-80480737D01*
X143607650Y-80528124D01*
X143444741Y-80598821D01*
X143279743Y-80697570D01*
X143153584Y-80788382D01*
X143072988Y-80846290D01*
X142996277Y-80895393D01*
X142934820Y-80928671D01*
X142911705Y-80937669D01*
X142850866Y-80944636D01*
X142782922Y-80930588D01*
X142701852Y-80892937D01*
X142601638Y-80829096D01*
X142518584Y-80768727D01*
X142348003Y-80654028D01*
X142176743Y-80568842D01*
X141994724Y-80509732D01*
X141791864Y-80473261D01*
X141607297Y-80458049D01*
X141378336Y-80456045D01*
X141175090Y-80476146D01*
X140985500Y-80521347D01*
X140797506Y-80594640D01*
X140599051Y-80699021D01*
X140571618Y-80715170D01*
X140446564Y-80786258D01*
X140349830Y-80832310D01*
X140276202Y-80854135D01*
X140220469Y-80852537D01*
X140177419Y-80828323D01*
X140141839Y-80782299D01*
X140141492Y-80781711D01*
X140098546Y-80729058D01*
X140033220Y-80686578D01*
X139975359Y-80661174D01*
X139927493Y-80643815D01*
X139879434Y-80630805D01*
X139823642Y-80621331D01*
X139752578Y-80614584D01*
X139658699Y-80609751D01*
X139534465Y-80606022D01*
X139444125Y-80604015D01*
X139036667Y-80595604D01*
X133850834Y-80595604D01*
X133850834Y-77732256D01*
X138702362Y-77732256D01*
X138959473Y-77915045D01*
X139123749Y-78030139D01*
X139261444Y-78122362D01*
X139378954Y-78195389D01*
X139482676Y-78252892D01*
X139579006Y-78298546D01*
X139674340Y-78336024D01*
X139719255Y-78351409D01*
X139890250Y-78401210D01*
X140073691Y-78441409D01*
X140274575Y-78472527D01*
X140497896Y-78495082D01*
X140748651Y-78509593D01*
X141031833Y-78516580D01*
X141312084Y-78516914D01*
X141473906Y-78515432D01*
X141599679Y-78513429D01*
X141695683Y-78510389D01*
X141768204Y-78505800D01*
X141823523Y-78499147D01*
X141867923Y-78489915D01*
X141907687Y-78477591D01*
X141939322Y-78465583D01*
X142068890Y-78401293D01*
X142215218Y-78306254D01*
X142371861Y-78185121D01*
X142532374Y-78042552D01*
X142555449Y-78020510D01*
X142671102Y-77900104D01*
X142760540Y-77783784D01*
X142826347Y-77664032D01*
X142871103Y-77533329D01*
X142897391Y-77384157D01*
X142907793Y-77208998D01*
X142904980Y-77002710D01*
X142889589Y-76794782D01*
X142858458Y-76619245D01*
X142808484Y-76468085D01*
X142736562Y-76333290D01*
X142639588Y-76206846D01*
X142567247Y-76130826D01*
X142451520Y-76034926D01*
X142302807Y-75940005D01*
X142130259Y-75851125D01*
X141943025Y-75773347D01*
X141882265Y-75751888D01*
X141808053Y-75729057D01*
X141701604Y-75699377D01*
X141572000Y-75665224D01*
X141428319Y-75628971D01*
X141279642Y-75592995D01*
X141233327Y-75582123D01*
X140982026Y-75521231D01*
X140769788Y-75464381D01*
X140593661Y-75410424D01*
X140450694Y-75358210D01*
X140337936Y-75306590D01*
X140252435Y-75254416D01*
X140191240Y-75200539D01*
X140164306Y-75165920D01*
X140133535Y-75082738D01*
X140133962Y-74984049D01*
X140163057Y-74879928D01*
X140218290Y-74780449D01*
X140278270Y-74712204D01*
X140403328Y-74624472D01*
X140558929Y-74564418D01*
X140743158Y-74532548D01*
X140954099Y-74529365D01*
X140970424Y-74530265D01*
X141117052Y-74546389D01*
X141265370Y-74578681D01*
X141422085Y-74629517D01*
X141593905Y-74701271D01*
X141787536Y-74796319D01*
X141916571Y-74865296D01*
X142026110Y-74924891D01*
X142122827Y-74976738D01*
X142200643Y-75017641D01*
X142253480Y-75044404D01*
X142275190Y-75053834D01*
X142295788Y-75038725D01*
X142338702Y-74997262D01*
X142398703Y-74935237D01*
X142470565Y-74858445D01*
X142549059Y-74772678D01*
X142628958Y-74683730D01*
X142705035Y-74597394D01*
X142772062Y-74519464D01*
X142824811Y-74455733D01*
X142858055Y-74411995D01*
X142865792Y-74399301D01*
X142880057Y-74352080D01*
X142872846Y-74306652D01*
X142840367Y-74257202D01*
X142778830Y-74197913D01*
X142686845Y-74124788D01*
X142444032Y-73966081D01*
X142171485Y-73833800D01*
X141873645Y-73729394D01*
X141835192Y-73720334D01*
X147434985Y-73720334D01*
X147447710Y-74074875D01*
X147452268Y-74209934D01*
X147457339Y-74373653D01*
X147462527Y-74552365D01*
X147467435Y-74732408D01*
X147471668Y-74900117D01*
X147471801Y-74905667D01*
X147481470Y-75304114D01*
X147490604Y-75662612D01*
X147499403Y-75983542D01*
X147508070Y-76269280D01*
X147516809Y-76522207D01*
X147525821Y-76744701D01*
X147535309Y-76939141D01*
X147545475Y-77107905D01*
X147556521Y-77253373D01*
X147568651Y-77377923D01*
X147582066Y-77483934D01*
X147596969Y-77573784D01*
X147613563Y-77649853D01*
X147632049Y-77714519D01*
X147652631Y-77770161D01*
X147675511Y-77819158D01*
X147700890Y-77863889D01*
X147726948Y-77903793D01*
X147860062Y-78061619D01*
X148028651Y-78201334D01*
X148229022Y-78320891D01*
X148457484Y-78418244D01*
X148710344Y-78491347D01*
X148831091Y-78515784D01*
X148959064Y-78531245D01*
X149113290Y-78538727D01*
X149281328Y-78538627D01*
X149450735Y-78531346D01*
X149609068Y-78517281D01*
X149743885Y-78496830D01*
X149796623Y-78484855D01*
X149901090Y-78451685D01*
X150012745Y-78407399D01*
X150103539Y-78363586D01*
X150245175Y-78286381D01*
X150354854Y-78229198D01*
X150437135Y-78190640D01*
X150496575Y-78169310D01*
X150537733Y-78163811D01*
X150565166Y-78172744D01*
X150583432Y-78194713D01*
X150591986Y-78213828D01*
X150621049Y-78263273D01*
X150669148Y-78302481D01*
X150740227Y-78332365D01*
X150838232Y-78353838D01*
X150967107Y-78367815D01*
X151130799Y-78375208D01*
X151296614Y-78377000D01*
X151673167Y-78377000D01*
X151673167Y-73720334D01*
X150424334Y-73720334D01*
X150423967Y-75122625D01*
X150423715Y-75453346D01*
X150422930Y-75744617D01*
X150421294Y-75999321D01*
X150418487Y-76220339D01*
X150414191Y-76410554D01*
X150408087Y-76572848D01*
X150399856Y-76710105D01*
X150389179Y-76825207D01*
X150375737Y-76921035D01*
X150359212Y-77000474D01*
X150339284Y-77066404D01*
X150315635Y-77121709D01*
X150287946Y-77169271D01*
X150255898Y-77211973D01*
X150219172Y-77252697D01*
X150184493Y-77287466D01*
X150041861Y-77405493D01*
X149883146Y-77499973D01*
X149717069Y-77567403D01*
X149552350Y-77604279D01*
X149397711Y-77607098D01*
X149390879Y-77606339D01*
X149245629Y-77570970D01*
X149106949Y-77503543D01*
X148984313Y-77410814D01*
X148887191Y-77299540D01*
X148838647Y-77212357D01*
X148811884Y-77138589D01*
X148788187Y-77047513D01*
X148767415Y-76936822D01*
X148749429Y-76804212D01*
X148734090Y-76647378D01*
X148721257Y-76464014D01*
X148710792Y-76251815D01*
X148702555Y-76008476D01*
X148696407Y-75731692D01*
X148692207Y-75419157D01*
X148689816Y-75068567D01*
X148689104Y-74741625D01*
X148688667Y-73720334D01*
X147434985Y-73720334D01*
X141835192Y-73720334D01*
X141554958Y-73654309D01*
X141219865Y-73609994D01*
X141079250Y-73601075D01*
X140780366Y-73600976D01*
X140496477Y-73626509D01*
X140230487Y-73676310D01*
X139985298Y-73749012D01*
X139763815Y-73843248D01*
X139568941Y-73957652D01*
X139403579Y-74090858D01*
X139270632Y-74241500D01*
X139173004Y-74408210D01*
X139131949Y-74517497D01*
X139105363Y-74631997D01*
X139083925Y-74775794D01*
X139068824Y-74936038D01*
X139061254Y-75099879D01*
X139062406Y-75254465D01*
X139062784Y-75263287D01*
X139083963Y-75466863D01*
X139129680Y-75639817D01*
X139203131Y-75788085D01*
X139307507Y-75917604D01*
X139446001Y-76034310D01*
X139495906Y-76068516D01*
X139598096Y-76130184D01*
X139714285Y-76189300D01*
X139849574Y-76247863D01*
X140009063Y-76307869D01*
X140197855Y-76371314D01*
X140421049Y-76440197D01*
X140520188Y-76469452D01*
X140659754Y-76510775D01*
X140795185Y-76551925D01*
X140917710Y-76590156D01*
X141018557Y-76622725D01*
X141088953Y-76646888D01*
X141097236Y-76649953D01*
X141268866Y-76721812D01*
X141427224Y-76802098D01*
X141566371Y-76886933D01*
X141680368Y-76972443D01*
X141763275Y-77054749D01*
X141799627Y-77108373D01*
X141830514Y-77204646D01*
X141822706Y-77294045D01*
X141779479Y-77375209D01*
X141704111Y-77446779D01*
X141599880Y-77507392D01*
X141470062Y-77555689D01*
X141317934Y-77590309D01*
X141146775Y-77609891D01*
X140959860Y-77613074D01*
X140760468Y-77598498D01*
X140654698Y-77583734D01*
X140493507Y-77553689D01*
X140347503Y-77516870D01*
X140208010Y-77469716D01*
X140066355Y-77408667D01*
X139913861Y-77330162D01*
X139741855Y-77230642D01*
X139635319Y-77165365D01*
X139376721Y-77004556D01*
X139317819Y-77075755D01*
X139284498Y-77113745D01*
X139227749Y-77175985D01*
X139153429Y-77256155D01*
X139067395Y-77347935D01*
X138980639Y-77439605D01*
X138702362Y-77732256D01*
X133850834Y-77732256D01*
X133850834Y-68068834D01*
X156689667Y-68068834D01*
X156689667Y-91055834D01*
G36*
X149697624Y-81454133D02*
G01*
X149860136Y-81476626D01*
X150065253Y-81534175D01*
X150242115Y-81623142D01*
X150391317Y-81743963D01*
X150513454Y-81897072D01*
X150570420Y-81997421D01*
X150623418Y-82111493D01*
X150663847Y-82220441D01*
X150693206Y-82332692D01*
X150712997Y-82456671D01*
X150724719Y-82600804D01*
X150729873Y-82773517D01*
X150730434Y-82896084D01*
X150724342Y-83163520D01*
X150706276Y-83394024D01*
X150674803Y-83591662D01*
X150628486Y-83760501D01*
X150565893Y-83904611D01*
X150485589Y-84028056D01*
X150386139Y-84134906D01*
X150266109Y-84229227D01*
X150258492Y-84234395D01*
X150088055Y-84325497D01*
X149894819Y-84387883D01*
X149688620Y-84419806D01*
X149479293Y-84419514D01*
X149334250Y-84398809D01*
X149154622Y-84345114D01*
X148981667Y-84262570D01*
X148823742Y-84156978D01*
X148689199Y-84034139D01*
X148586395Y-83899855D01*
X148567168Y-83866183D01*
X148489112Y-83682745D01*
X148432272Y-83470918D01*
X148396625Y-83238932D01*
X148382151Y-82995019D01*
X148388826Y-82747409D01*
X148416630Y-82504334D01*
X148465540Y-82274026D01*
X148535535Y-82064714D01*
X148572154Y-81983127D01*
X148652727Y-81851034D01*
X148756773Y-81728535D01*
X148874481Y-81625148D01*
X148996040Y-81550387D01*
X149035723Y-81533472D01*
X149241409Y-81476386D01*
X149465876Y-81449675D01*
X149697624Y-81454133D01*
G37*
X149697624Y-81454133D02*
X149860136Y-81476626D01*
X150065253Y-81534175D01*
X150242115Y-81623142D01*
X150391317Y-81743963D01*
X150513454Y-81897072D01*
X150570420Y-81997421D01*
X150623418Y-82111493D01*
X150663847Y-82220441D01*
X150693206Y-82332692D01*
X150712997Y-82456671D01*
X150724719Y-82600804D01*
X150729873Y-82773517D01*
X150730434Y-82896084D01*
X150724342Y-83163520D01*
X150706276Y-83394024D01*
X150674803Y-83591662D01*
X150628486Y-83760501D01*
X150565893Y-83904611D01*
X150485589Y-84028056D01*
X150386139Y-84134906D01*
X150266109Y-84229227D01*
X150258492Y-84234395D01*
X150088055Y-84325497D01*
X149894819Y-84387883D01*
X149688620Y-84419806D01*
X149479293Y-84419514D01*
X149334250Y-84398809D01*
X149154622Y-84345114D01*
X148981667Y-84262570D01*
X148823742Y-84156978D01*
X148689199Y-84034139D01*
X148586395Y-83899855D01*
X148567168Y-83866183D01*
X148489112Y-83682745D01*
X148432272Y-83470918D01*
X148396625Y-83238932D01*
X148382151Y-82995019D01*
X148388826Y-82747409D01*
X148416630Y-82504334D01*
X148465540Y-82274026D01*
X148535535Y-82064714D01*
X148572154Y-81983127D01*
X148652727Y-81851034D01*
X148756773Y-81728535D01*
X148874481Y-81625148D01*
X148996040Y-81550387D01*
X149035723Y-81533472D01*
X149241409Y-81476386D01*
X149465876Y-81449675D01*
X149697624Y-81454133D01*
G04 #@! TD*
M02*
