%TF.GenerationSoftware,KiCad,Pcbnew,(5.1.10)-1*%
%TF.CreationDate,2021-09-01T23:07:39-05:00*%
%TF.ProjectId,Bsides-KC-2021-SAO-Sponsor,42736964-6573-42d4-9b43-2d323032312d,rev?*%
%TF.SameCoordinates,Original*%
%TF.FileFunction,Profile,NP*%
%FSLAX46Y46*%
G04 Gerber Fmt 4.6, Leading zero omitted, Abs format (unit mm)*
G04 Created by KiCad (PCBNEW (5.1.10)-1) date 2021-09-01 23:07:39*
%MOMM*%
%LPD*%
G01*
G04 APERTURE LIST*
%TA.AperFunction,Profile*%
%ADD10C,0.100000*%
%TD*%
G04 APERTURE END LIST*
D10*
X106813780Y-51984060D02*
X106219180Y-51991280D01*
X106219180Y-51991280D02*
X105626180Y-52013500D01*
X105626180Y-52013500D02*
X105035080Y-52050140D01*
X105035080Y-52050140D02*
X104446180Y-52101220D01*
X104446180Y-52101220D02*
X103859880Y-52167020D01*
X103859880Y-52167020D02*
X103276480Y-52246970D01*
X103276480Y-52246970D02*
X102695680Y-52340820D01*
X102695680Y-52340820D02*
X102118580Y-52449090D01*
X102118580Y-52449090D02*
X101544780Y-52571250D01*
X101544780Y-52571250D02*
X100974780Y-52707280D01*
X100974780Y-52707280D02*
X100408780Y-52857200D01*
X100408780Y-52857200D02*
X99846680Y-53020720D01*
X99846680Y-53020720D02*
X99289380Y-53197850D01*
X99289380Y-53197850D02*
X98736880Y-53388600D01*
X98736880Y-53388600D02*
X98188980Y-53592600D01*
X98188980Y-53592600D02*
X97646580Y-53809700D01*
X97646580Y-53809700D02*
X97109680Y-54040400D01*
X97109680Y-54040400D02*
X96577980Y-54283900D01*
X96577980Y-54283900D02*
X96052680Y-54540400D01*
X96052680Y-54540400D02*
X95533580Y-54809700D01*
X95533580Y-54809700D02*
X95020780Y-55091800D01*
X95020780Y-55091800D02*
X94514680Y-55386600D01*
X94514680Y-55386600D02*
X94015480Y-55694300D01*
X94015480Y-55694300D02*
X93523580Y-56014100D01*
X93523580Y-56014100D02*
X93038880Y-56346100D01*
X93038880Y-56346100D02*
X92561880Y-56690700D01*
X92561880Y-56690700D02*
X92092980Y-57047400D01*
X92092980Y-57047400D02*
X91632080Y-57416100D01*
X91632080Y-57416100D02*
X91179580Y-57796700D01*
X91179580Y-57796700D02*
X90735680Y-58189300D01*
X90735680Y-58189300D02*
X90300580Y-58593500D01*
X90300580Y-58593500D02*
X89874780Y-59009700D01*
X89874780Y-59009700D02*
X89459380Y-59435800D01*
X89459380Y-59435800D02*
X89055780Y-59871400D01*
X89055780Y-59871400D02*
X88663780Y-60315900D01*
X88663780Y-60315900D02*
X88283680Y-60769000D01*
X88283680Y-60769000D02*
X87915280Y-61230400D01*
X87915280Y-61230400D02*
X87559080Y-61700100D01*
X87559080Y-61700100D02*
X87215080Y-62177600D01*
X87215080Y-62177600D02*
X86883280Y-62663000D01*
X86883280Y-62663000D02*
X86563780Y-63155400D01*
X86563780Y-63155400D02*
X86256680Y-63655400D01*
X86256680Y-63655400D02*
X85962480Y-64162000D01*
X85962480Y-64162000D02*
X85680680Y-64675800D01*
X85680680Y-64675800D02*
X85411680Y-65195400D01*
X85411680Y-65195400D02*
X85155380Y-65721500D01*
X85155380Y-65721500D02*
X84912180Y-66253700D01*
X84912180Y-66253700D02*
X84682080Y-66791400D01*
X84682080Y-66791400D02*
X84464880Y-67334600D01*
X84464880Y-67334600D02*
X84261180Y-67883100D01*
X84261180Y-67883100D02*
X84070980Y-68436500D01*
X84070980Y-68436500D02*
X83894180Y-68994500D01*
X83894180Y-68994500D02*
X83730580Y-69557300D01*
X83730580Y-69557300D02*
X83580980Y-70124100D01*
X83580980Y-70124100D02*
X83445180Y-70694800D01*
X83445180Y-70694800D02*
X83323080Y-71269300D01*
X83323080Y-71269300D02*
X83215080Y-71847400D01*
X83215080Y-71847400D02*
X83120980Y-72428700D01*
X83120980Y-72428700D02*
X83041280Y-73012800D01*
X83041280Y-73012800D02*
X82975780Y-73600000D01*
X82975780Y-73600000D02*
X82924680Y-74189600D01*
X82924680Y-74189600D02*
X82887980Y-74781200D01*
X82887980Y-74781200D02*
X82865780Y-75375100D01*
X82865780Y-75375100D02*
X82858580Y-75970700D01*
X82858580Y-75970700D02*
X82865780Y-76566400D01*
X82865780Y-76566400D02*
X82887980Y-77160300D01*
X82887980Y-77160300D02*
X82924680Y-77752200D01*
X82924680Y-77752200D02*
X82975780Y-78341500D01*
X82975780Y-78341500D02*
X83041280Y-78928700D01*
X83041280Y-78928700D02*
X83120980Y-79512900D01*
X83120980Y-79512900D02*
X83215080Y-80094100D01*
X83215080Y-80094100D02*
X83323080Y-80672200D01*
X83323080Y-80672200D02*
X83445180Y-81246600D01*
X83445180Y-81246600D02*
X83580980Y-81817600D01*
X83580980Y-81817600D02*
X83730580Y-82384400D01*
X83730580Y-82384400D02*
X83894180Y-82947100D01*
X83894180Y-82947100D02*
X84070980Y-83505200D01*
X84070980Y-83505200D02*
X84261180Y-84058400D01*
X84261180Y-84058400D02*
X84464880Y-84606900D01*
X84464880Y-84606900D02*
X84682080Y-85150100D01*
X84682080Y-85150100D02*
X84912180Y-85687800D01*
X84912180Y-85687800D02*
X85155380Y-86220000D01*
X85155380Y-86220000D02*
X85411680Y-86746100D01*
X85411680Y-86746100D02*
X85680680Y-87265900D01*
X85680680Y-87265900D02*
X85962480Y-87779400D01*
X85962480Y-87779400D02*
X86256680Y-88286000D01*
X86256680Y-88286000D02*
X86563780Y-88786100D01*
X86563780Y-88786100D02*
X86883280Y-89278600D01*
X86883280Y-89278600D02*
X87215080Y-89763900D01*
X87215080Y-89763900D02*
X87559080Y-90241400D01*
X87559080Y-90241400D02*
X87915280Y-90711200D01*
X87915280Y-90711200D02*
X88283680Y-91172600D01*
X88283680Y-91172600D02*
X88663780Y-91625600D01*
X88663780Y-91625600D02*
X89055780Y-92070100D01*
X89055780Y-92070100D02*
X89459380Y-92505700D01*
X89459380Y-92505700D02*
X89874780Y-92931900D01*
X89874780Y-92931900D02*
X90300580Y-93348100D01*
X90300580Y-93348100D02*
X90735680Y-93752200D01*
X90735680Y-93752200D02*
X91179580Y-94144800D01*
X91179580Y-94144800D02*
X91632080Y-94525500D01*
X91632080Y-94525500D02*
X92092980Y-94894200D01*
X92092980Y-94894200D02*
X92561880Y-95250800D01*
X92561880Y-95250800D02*
X93038880Y-95595100D01*
X93038880Y-95595100D02*
X93523580Y-95927400D01*
X93523580Y-95927400D02*
X93631580Y-95997700D01*
X93631580Y-95997700D02*
X93520180Y-96119300D01*
X93520180Y-96119300D02*
X93414380Y-96246100D01*
X93414380Y-96246100D02*
X93314780Y-96377900D01*
X93314780Y-96377900D02*
X93221080Y-96514400D01*
X93221080Y-96514400D02*
X93133680Y-96655200D01*
X93133680Y-96655200D02*
X93052880Y-96800600D01*
X93052880Y-96800600D02*
X92978680Y-96950000D01*
X92978680Y-96950000D02*
X92911580Y-97103400D01*
X92911580Y-97103400D02*
X92851580Y-97260500D01*
X92851580Y-97260500D02*
X92798980Y-97421200D01*
X92798980Y-97421200D02*
X92753780Y-97585100D01*
X92753780Y-97585100D02*
X92716480Y-97752300D01*
X92716480Y-97752300D02*
X92686980Y-97922300D01*
X92686980Y-97922300D02*
X92675380Y-98008400D01*
X92675380Y-98008400D02*
X92665780Y-98095100D01*
X92665780Y-98095100D02*
X92658280Y-98182400D01*
X92658280Y-98182400D02*
X92652880Y-98270400D01*
X92652880Y-98270400D02*
X92649580Y-98359000D01*
X92649580Y-98359000D02*
X92648480Y-98448100D01*
X92648480Y-98448100D02*
X92649680Y-98539600D01*
X92649680Y-98539600D02*
X92653080Y-98630600D01*
X92653080Y-98630600D02*
X92658780Y-98720900D01*
X92658780Y-98720900D02*
X92666680Y-98810600D01*
X92666680Y-98810600D02*
X92676780Y-98899700D01*
X92676780Y-98899700D02*
X92689080Y-98987900D01*
X92689080Y-98987900D02*
X92703480Y-99075600D01*
X92703480Y-99075600D02*
X92720080Y-99162500D01*
X92720080Y-99162500D02*
X92738680Y-99248500D01*
X92738680Y-99248500D02*
X92759380Y-99333800D01*
X92759380Y-99333800D02*
X92782180Y-99418200D01*
X92782180Y-99418200D02*
X92806980Y-99501800D01*
X92806980Y-99501800D02*
X92833680Y-99584500D01*
X92833680Y-99584500D02*
X92862380Y-99666400D01*
X92862380Y-99666400D02*
X92925480Y-99827000D01*
X92925480Y-99827000D02*
X92996180Y-99983800D01*
X92996180Y-99983800D02*
X93074080Y-100136300D01*
X93074080Y-100136300D02*
X93159080Y-100284400D01*
X93159080Y-100284400D02*
X93250880Y-100427900D01*
X93250880Y-100427900D02*
X93349280Y-100566500D01*
X93349280Y-100566500D02*
X93453980Y-100699900D01*
X93453980Y-100699900D02*
X93564980Y-100828100D01*
X93564980Y-100828100D02*
X93681980Y-100950800D01*
X93681980Y-100950800D02*
X93804680Y-101067700D01*
X93804680Y-101067700D02*
X93932880Y-101178700D01*
X93932880Y-101178700D02*
X94066380Y-101283400D01*
X94066380Y-101283400D02*
X94204980Y-101381800D01*
X94204980Y-101381800D02*
X94348380Y-101473600D01*
X94348380Y-101473600D02*
X94496480Y-101558600D01*
X94496480Y-101558600D02*
X94648980Y-101636500D01*
X94648980Y-101636500D02*
X94805780Y-101707200D01*
X94805780Y-101707200D02*
X94966580Y-101770300D01*
X94966580Y-101770300D02*
X95048280Y-101799000D01*
X95048280Y-101799000D02*
X95131080Y-101825700D01*
X95131080Y-101825700D02*
X95214580Y-101850400D01*
X95214580Y-101850400D02*
X95299080Y-101873200D01*
X95299080Y-101873200D02*
X95384380Y-101893900D01*
X95384380Y-101893900D02*
X95470480Y-101912500D01*
X95470480Y-101912500D02*
X95557280Y-101929000D01*
X95557280Y-101929000D02*
X95644880Y-101943500D01*
X95644880Y-101943500D02*
X95733280Y-101955800D01*
X95733280Y-101955800D02*
X95822280Y-101966000D01*
X95822280Y-101966000D02*
X95911980Y-101973800D01*
X95911980Y-101973800D02*
X96002380Y-101979500D01*
X96002380Y-101979500D02*
X96093380Y-101982900D01*
X96093380Y-101982900D02*
X96184880Y-101984000D01*
X96184880Y-101984000D02*
X118544980Y-101984000D01*
X118544980Y-101984000D02*
X118636580Y-101982900D01*
X118636580Y-101982900D02*
X118727480Y-101979500D01*
X118727480Y-101979500D02*
X118817880Y-101973800D01*
X118817880Y-101973800D02*
X118907580Y-101966000D01*
X118907580Y-101966000D02*
X118996780Y-101955800D01*
X118996780Y-101955800D02*
X119084980Y-101943500D01*
X119084980Y-101943500D02*
X119172580Y-101929000D01*
X119172580Y-101929000D02*
X119259580Y-101912500D01*
X119259580Y-101912500D02*
X119345580Y-101893900D01*
X119345580Y-101893900D02*
X119430880Y-101873200D01*
X119430880Y-101873200D02*
X119515280Y-101850400D01*
X119515280Y-101850400D02*
X119598880Y-101825700D01*
X119598880Y-101825700D02*
X119681580Y-101799000D01*
X119681580Y-101799000D02*
X119763480Y-101770300D01*
X119763480Y-101770300D02*
X119924080Y-101707200D01*
X119924080Y-101707200D02*
X120080880Y-101636500D01*
X120080880Y-101636500D02*
X120233380Y-101558600D01*
X120233380Y-101558600D02*
X120381480Y-101473600D01*
X120381480Y-101473600D02*
X120524980Y-101381800D01*
X120524980Y-101381800D02*
X120663480Y-101283400D01*
X120663480Y-101283400D02*
X120796980Y-101178700D01*
X120796980Y-101178700D02*
X120925180Y-101067700D01*
X120925180Y-101067700D02*
X121047880Y-100950800D01*
X121047880Y-100950800D02*
X121164880Y-100828100D01*
X121164880Y-100828100D02*
X121275880Y-100699900D01*
X121275880Y-100699900D02*
X121380680Y-100566500D01*
X121380680Y-100566500D02*
X121479180Y-100427900D01*
X121479180Y-100427900D02*
X121570880Y-100284400D01*
X121570880Y-100284400D02*
X121655880Y-100136300D01*
X121655880Y-100136300D02*
X121733680Y-99983800D01*
X121733680Y-99983800D02*
X121804380Y-99827000D01*
X121804380Y-99827000D02*
X121867480Y-99666400D01*
X121867480Y-99666400D02*
X121896180Y-99584500D01*
X121896180Y-99584500D02*
X121922880Y-99501800D01*
X121922880Y-99501800D02*
X121947780Y-99418200D01*
X121947780Y-99418200D02*
X121970480Y-99333800D01*
X121970480Y-99333800D02*
X121991180Y-99248500D01*
X121991180Y-99248500D02*
X122009880Y-99162500D01*
X122009880Y-99162500D02*
X122026380Y-99075600D01*
X122026380Y-99075600D02*
X122040880Y-98987900D01*
X122040880Y-98987900D02*
X122053080Y-98899700D01*
X122053080Y-98899700D02*
X122063180Y-98810600D01*
X122063180Y-98810600D02*
X122071180Y-98720900D01*
X122071180Y-98720900D02*
X122076880Y-98630600D01*
X122076880Y-98630600D02*
X122080280Y-98539600D01*
X122080280Y-98539600D02*
X122081380Y-98448100D01*
X122081380Y-98448100D02*
X122079680Y-98337400D01*
X122079680Y-98337400D02*
X122074680Y-98227500D01*
X122074680Y-98227500D02*
X122066480Y-98118600D01*
X122066480Y-98118600D02*
X122054880Y-98010700D01*
X122054880Y-98010700D02*
X122040180Y-97903800D01*
X122040180Y-97903800D02*
X122022280Y-97797900D01*
X122022280Y-97797900D02*
X122001280Y-97693200D01*
X122001280Y-97693200D02*
X121977280Y-97589700D01*
X121977280Y-97589700D02*
X121950180Y-97487200D01*
X121950180Y-97487200D02*
X121920280Y-97386100D01*
X121920280Y-97386100D02*
X121887380Y-97286400D01*
X121887380Y-97286400D02*
X121851680Y-97187800D01*
X121851680Y-97187800D02*
X121813180Y-97090800D01*
X121813180Y-97090800D02*
X121771980Y-96995200D01*
X121771980Y-96995200D02*
X121727880Y-96901100D01*
X121727880Y-96901100D02*
X121681280Y-96808600D01*
X121681280Y-96808600D02*
X121632080Y-96717600D01*
X121632080Y-96717600D02*
X121580380Y-96628200D01*
X121580380Y-96628200D02*
X121526080Y-96540700D01*
X121526080Y-96540700D02*
X121469180Y-96454700D01*
X121469180Y-96454700D02*
X121410080Y-96370700D01*
X121410080Y-96370700D02*
X121348580Y-96288400D01*
X121348580Y-96288400D02*
X121284680Y-96207900D01*
X121284680Y-96207900D02*
X121218580Y-96129400D01*
X121218580Y-96129400D02*
X121150280Y-96053000D01*
X121150280Y-96053000D02*
X121079780Y-95978500D01*
X121079780Y-95978500D02*
X121007080Y-95906100D01*
X121007080Y-95906100D02*
X120932480Y-95835900D01*
X120932480Y-95835900D02*
X120855680Y-95767800D01*
X120855680Y-95767800D02*
X120777080Y-95702000D01*
X120777080Y-95702000D02*
X120696380Y-95638300D01*
X120696380Y-95638300D02*
X120613980Y-95577100D01*
X120613980Y-95577100D02*
X121065980Y-95250900D01*
X121065980Y-95250900D02*
X121534880Y-94894200D01*
X121534880Y-94894200D02*
X121995680Y-94525500D01*
X121995680Y-94525500D02*
X122448180Y-94144800D01*
X122448180Y-94144800D02*
X122892080Y-93752200D01*
X122892080Y-93752200D02*
X123326880Y-93348100D01*
X123326880Y-93348100D02*
X123752780Y-92931900D01*
X123752780Y-92931900D02*
X124168080Y-92505800D01*
X124168080Y-92505800D02*
X124572080Y-92070100D01*
X124572080Y-92070100D02*
X124964080Y-91625600D01*
X124964080Y-91625600D02*
X125344080Y-91172600D01*
X125344080Y-91172600D02*
X125712480Y-90711200D01*
X125712480Y-90711200D02*
X126068680Y-90241400D01*
X126068680Y-90241400D02*
X126412680Y-89763900D01*
X126412680Y-89763900D02*
X126744480Y-89278700D01*
X126744480Y-89278700D02*
X127063980Y-88786100D01*
X127063980Y-88786100D02*
X127370780Y-88286100D01*
X127370780Y-88286100D02*
X127665380Y-87779500D01*
X127665380Y-87779500D02*
X127947180Y-87265900D01*
X127947180Y-87265900D02*
X128216280Y-86746100D01*
X128216280Y-86746100D02*
X128472380Y-86220000D01*
X128472380Y-86220000D02*
X128715580Y-85687800D01*
X128715580Y-85687800D02*
X128945680Y-85150100D01*
X128945680Y-85150100D02*
X129162680Y-84607000D01*
X129162680Y-84607000D02*
X129366280Y-84058400D01*
X129366280Y-84058400D02*
X129556780Y-83505200D01*
X129556780Y-83505200D02*
X129733580Y-82947100D01*
X129733580Y-82947100D02*
X129897280Y-82384400D01*
X129897280Y-82384400D02*
X130046780Y-81817700D01*
X130046780Y-81817700D02*
X130182680Y-81246700D01*
X130182680Y-81246700D02*
X130304780Y-80672300D01*
X130304780Y-80672300D02*
X130412780Y-80094200D01*
X130412780Y-80094200D02*
X130506580Y-79512900D01*
X130506580Y-79512900D02*
X130586480Y-78928700D01*
X130586480Y-78928700D02*
X130651980Y-78341500D01*
X130651980Y-78341500D02*
X130703180Y-77752200D01*
X130703180Y-77752200D02*
X130739680Y-77160300D01*
X130739680Y-77160300D02*
X130762080Y-76566400D01*
X130762080Y-76566400D02*
X130769180Y-75970700D01*
X130769180Y-75970700D02*
X130762080Y-75375100D01*
X130762080Y-75375100D02*
X130739680Y-74781200D01*
X130739680Y-74781200D02*
X130703180Y-74189600D01*
X130703180Y-74189600D02*
X130651980Y-73600000D01*
X130651980Y-73600000D02*
X130586480Y-73012800D01*
X130586480Y-73012800D02*
X130506580Y-72428800D01*
X130506580Y-72428800D02*
X130412780Y-71847400D01*
X130412780Y-71847400D02*
X130304780Y-71269300D01*
X130304780Y-71269300D02*
X130182680Y-70694800D01*
X130182680Y-70694800D02*
X130046780Y-70124100D01*
X130046780Y-70124100D02*
X129897280Y-69557300D01*
X129897280Y-69557300D02*
X129733680Y-68994500D01*
X129733680Y-68994500D02*
X129556780Y-68436500D01*
X129556780Y-68436500D02*
X129366380Y-67883100D01*
X129366380Y-67883100D02*
X129162680Y-67334600D01*
X129162680Y-67334600D02*
X128945780Y-66791600D01*
X128945780Y-66791600D02*
X128715580Y-66253700D01*
X128715580Y-66253700D02*
X128472380Y-65721500D01*
X128472380Y-65721500D02*
X128216280Y-65195400D01*
X128216280Y-65195400D02*
X127947180Y-64675800D01*
X127947180Y-64675800D02*
X127665480Y-64162000D01*
X127665480Y-64162000D02*
X127370780Y-63655400D01*
X127370780Y-63655400D02*
X127064080Y-63155400D01*
X127064080Y-63155400D02*
X126744480Y-62663000D01*
X126744480Y-62663000D02*
X126412780Y-62177600D01*
X126412780Y-62177600D02*
X126068780Y-61700100D01*
X126068780Y-61700100D02*
X125712580Y-61230400D01*
X125712580Y-61230400D02*
X125344080Y-60769000D01*
X125344080Y-60769000D02*
X124964180Y-60315900D01*
X124964180Y-60315900D02*
X124572080Y-59871400D01*
X124572080Y-59871400D02*
X124168180Y-59435800D01*
X124168180Y-59435800D02*
X123752780Y-59009700D01*
X123752780Y-59009700D02*
X123326980Y-58593500D01*
X123326980Y-58593500D02*
X122892080Y-58189300D01*
X122892080Y-58189300D02*
X122448180Y-57796700D01*
X122448180Y-57796700D02*
X121995780Y-57416100D01*
X121995780Y-57416100D02*
X121534880Y-57047400D01*
X121534880Y-57047400D02*
X121065980Y-56690700D01*
X121065980Y-56690700D02*
X120588980Y-56346100D01*
X120588980Y-56346100D02*
X120104280Y-56014100D01*
X120104280Y-56014100D02*
X119612280Y-55694300D01*
X119612280Y-55694300D02*
X119113180Y-55386600D01*
X119113180Y-55386600D02*
X118607080Y-55091800D01*
X118607080Y-55091800D02*
X118094280Y-54809700D01*
X118094280Y-54809700D02*
X117575080Y-54540400D01*
X117575080Y-54540400D02*
X117049580Y-54283900D01*
X117049580Y-54283900D02*
X116518180Y-54040400D01*
X116518180Y-54040400D02*
X115981180Y-53809700D01*
X115981180Y-53809700D02*
X115438780Y-53592600D01*
X115438780Y-53592600D02*
X114890980Y-53388600D01*
X114890980Y-53388600D02*
X114338280Y-53197850D01*
X114338280Y-53197850D02*
X113781080Y-53020720D01*
X113781080Y-53020720D02*
X113219180Y-52857200D01*
X113219180Y-52857200D02*
X112653080Y-52707280D01*
X112653080Y-52707280D02*
X112082880Y-52571250D01*
X112082880Y-52571250D02*
X111509180Y-52449090D01*
X111509180Y-52449090D02*
X110931780Y-52340820D01*
X110931780Y-52340820D02*
X110351280Y-52246970D01*
X110351280Y-52246970D02*
X109767980Y-52167020D01*
X109767980Y-52167020D02*
X109181580Y-52101220D01*
X109181580Y-52101220D02*
X108592880Y-52050150D01*
X108592880Y-52050150D02*
X108001780Y-52013500D01*
X108001780Y-52013500D02*
X107408780Y-51991280D01*
X107408780Y-51991280D02*
X106813780Y-51984060D01*
X106813780Y-51984060D02*
X106813780Y-51984060D01*
M02*
