M48
; DRILL file {KiCad (5.1.10)-1} date 09/09/21 07:46:18
; FORMAT={-:-/ absolute / inch / decimal}
; #@! TF.CreationDate,2021-09-09T07:46:18-05:00
; #@! TF.GenerationSoftware,Kicad,Pcbnew,(5.1.10)-1
; #@! TF.FileFunction,Plated,1,2,PTH
FMAT,2
INCH
T1C0.0157
T2C0.0217
T3C0.0335
T4C0.0394
%
G90
G05
T1
X4.5236Y-5.5374
X4.552Y-5.778
X4.5551Y-5.5472
X4.5886Y-5.5591
X5.046Y-5.078
X5.244Y-4.052
X5.824Y-4.22
X6.3Y-4.026
X6.492Y-5.128
X6.69Y-5.58
X6.778Y-5.062
X6.778Y-5.288
X6.848Y-5.784
X6.858Y-4.488
X6.862Y-4.766
X6.88Y-3.996
T4
X5.0157Y-4.7165
X5.0416Y-4.6199
T2
G00X6.838Y-5.1874
M15
G01X6.8636Y-5.1874
M16
G05
G00X6.838Y-5.4926
M15
G01X6.8636Y-5.4926
M16
G05
T3
G00X6.6903Y-5.1933
M15
G01X6.712Y-5.1933
M16
G05
G00X6.6903Y-5.4867
M15
G01X6.712Y-5.4867
M16
G05
T0
M30
