%TF.GenerationSoftware,KiCad,Pcbnew,(5.1.10)-1*%
%TF.CreationDate,2021-09-09T07:46:21-05:00*%
%TF.ProjectId,Pivot_stand,5069766f-745f-4737-9461-6e642e6b6963,rev?*%
%TF.SameCoordinates,Original*%
%TF.FileFunction,Copper,L1,Top*%
%TF.FilePolarity,Positive*%
%FSLAX46Y46*%
G04 Gerber Fmt 4.6, Leading zero omitted, Abs format (unit mm)*
G04 Created by KiCad (PCBNEW (5.1.10)-1) date 2021-09-09 07:46:21*
%MOMM*%
%LPD*%
G01*
G04 APERTURE LIST*
%TA.AperFunction,SMDPad,CuDef*%
%ADD10R,0.800000X1.000000*%
%TD*%
%TA.AperFunction,SMDPad,CuDef*%
%ADD11R,1.500000X0.700000*%
%TD*%
%TA.AperFunction,ComponentPad*%
%ADD12C,0.100000*%
%TD*%
%TA.AperFunction,SMDPad,CuDef*%
%ADD13R,5.800000X6.400000*%
%TD*%
%TA.AperFunction,SMDPad,CuDef*%
%ADD14R,1.200000X2.200000*%
%TD*%
%TA.AperFunction,ComponentPad*%
%ADD15O,1.800000X1.150000*%
%TD*%
%TA.AperFunction,ComponentPad*%
%ADD16O,2.000000X1.450000*%
%TD*%
%TA.AperFunction,SMDPad,CuDef*%
%ADD17R,1.300000X0.450000*%
%TD*%
%TA.AperFunction,ViaPad*%
%ADD18C,0.800000*%
%TD*%
%TA.AperFunction,Conductor*%
%ADD19C,0.250000*%
%TD*%
%TA.AperFunction,Conductor*%
%ADD20C,0.254000*%
%TD*%
%TA.AperFunction,Conductor*%
%ADD21C,0.100000*%
%TD*%
G04 APERTURE END LIST*
D10*
%TO.P,I/O,*%
%TO.N,*%
X172940000Y-125062000D03*
X172940000Y-117762000D03*
X175150000Y-117762000D03*
X175150000Y-125062000D03*
D11*
%TO.P,I/O,3*%
%TO.N,Net-(I/O1-Pad3)*%
X172290000Y-119162000D03*
%TO.P,I/O,2*%
%TO.N,Net-(I/O1-Pad2)*%
X172290000Y-120662000D03*
%TO.P,I/O,1*%
%TO.N,Net-(I/O1-Pad1)*%
X172290000Y-123662000D03*
%TD*%
%TA.AperFunction,ComponentPad*%
D12*
%TO.P,J2,1*%
%TO.N,+3V3*%
G36*
X128441033Y-119198959D02*
G01*
X128001041Y-120841033D01*
X126358967Y-120401041D01*
X126798959Y-118758967D01*
X128441033Y-119198959D01*
G37*
%TD.AperFunction*%
%TO.P,J2,2*%
%TO.N,GND*%
%TA.AperFunction,ComponentPad*%
G36*
G01*
X128878437Y-117566544D02*
X128878437Y-117566544D01*
G75*
G02*
X127837404Y-118167585I-821037J219996D01*
G01*
X127837404Y-118167585D01*
G75*
G02*
X127236363Y-117126552I219996J821037D01*
G01*
X127236363Y-117126552D01*
G75*
G02*
X128277396Y-116525511I821037J-219996D01*
G01*
X128277396Y-116525511D01*
G75*
G02*
X128878437Y-117566544I-219996J-821037D01*
G01*
G37*
%TD.AperFunction*%
%TD*%
D13*
%TO.P,U1,2*%
%TO.N,+3V3*%
X169875200Y-105138800D03*
D14*
%TO.P,U1,3*%
%TO.N,Net-(I/O1-Pad3)*%
X172155200Y-111438800D03*
%TO.P,U1,2*%
%TO.N,+3V3*%
X169875200Y-111438800D03*
%TO.P,U1,1*%
%TO.N,GND*%
X167595200Y-111438800D03*
%TD*%
%TO.P,R1,2*%
%TO.N,GND*%
%TA.AperFunction,SMDPad,CuDef*%
G36*
G01*
X140090997Y-106553300D02*
X141341003Y-106553300D01*
G75*
G02*
X141591000Y-106803297I0J-249997D01*
G01*
X141591000Y-107428303D01*
G75*
G02*
X141341003Y-107678300I-249997J0D01*
G01*
X140090997Y-107678300D01*
G75*
G02*
X139841000Y-107428303I0J249997D01*
G01*
X139841000Y-106803297D01*
G75*
G02*
X140090997Y-106553300I249997J0D01*
G01*
G37*
%TD.AperFunction*%
%TO.P,R1,1*%
%TO.N,+3V3*%
%TA.AperFunction,SMDPad,CuDef*%
G36*
G01*
X140090997Y-103628300D02*
X141341003Y-103628300D01*
G75*
G02*
X141591000Y-103878297I0J-249997D01*
G01*
X141591000Y-104503303D01*
G75*
G02*
X141341003Y-104753300I-249997J0D01*
G01*
X140090997Y-104753300D01*
G75*
G02*
X139841000Y-104503303I0J249997D01*
G01*
X139841000Y-103878297D01*
G75*
G02*
X140090997Y-103628300I249997J0D01*
G01*
G37*
%TD.AperFunction*%
%TD*%
D15*
%TO.P,J1,6*%
%TO.N,Net-(J1-Pad6)*%
X174009600Y-131761000D03*
X174009600Y-139511000D03*
D16*
X170209600Y-131911000D03*
X170209600Y-139361000D03*
D17*
%TO.P,J1,5*%
%TO.N,GND*%
X170159600Y-134336000D03*
%TO.P,J1,4*%
%TO.N,Net-(J1-Pad4)*%
X170159600Y-134986000D03*
%TO.P,J1,3*%
%TO.N,Net-(J1-Pad3)*%
X170159600Y-135636000D03*
%TO.P,J1,2*%
%TO.N,Net-(J1-Pad2)*%
X170159600Y-136286000D03*
%TO.P,J1,1*%
%TO.N,Net-(I/O1-Pad2)*%
X170159600Y-136936000D03*
%TD*%
%TO.P,C1,2*%
%TO.N,GND*%
%TA.AperFunction,SMDPad,CuDef*%
G36*
G01*
X153957000Y-105590800D02*
X154907000Y-105590800D01*
G75*
G02*
X155157000Y-105840800I0J-250000D01*
G01*
X155157000Y-106340800D01*
G75*
G02*
X154907000Y-106590800I-250000J0D01*
G01*
X153957000Y-106590800D01*
G75*
G02*
X153707000Y-106340800I0J250000D01*
G01*
X153707000Y-105840800D01*
G75*
G02*
X153957000Y-105590800I250000J0D01*
G01*
G37*
%TD.AperFunction*%
%TO.P,C1,1*%
%TO.N,+3V3*%
%TA.AperFunction,SMDPad,CuDef*%
G36*
G01*
X153957000Y-103690800D02*
X154907000Y-103690800D01*
G75*
G02*
X155157000Y-103940800I0J-250000D01*
G01*
X155157000Y-104440800D01*
G75*
G02*
X154907000Y-104690800I-250000J0D01*
G01*
X153957000Y-104690800D01*
G75*
G02*
X153707000Y-104440800I0J250000D01*
G01*
X153707000Y-103940800D01*
G75*
G02*
X153957000Y-103690800I250000J0D01*
G01*
G37*
%TD.AperFunction*%
%TD*%
D18*
%TO.N,*%
X172161200Y-134315200D03*
X116550000Y-141200000D03*
%TO.N,GND*%
X172161200Y-128574800D03*
X133197600Y-102920800D03*
X128168400Y-128981200D03*
X147929600Y-107188000D03*
X160020000Y-102260400D03*
X169926000Y-141732000D03*
X164896800Y-130251200D03*
X174193200Y-113995200D03*
X174752000Y-101498400D03*
X174294800Y-121056400D03*
X115620800Y-146761200D03*
X173939200Y-146913600D03*
%TO.N,*%
X115700000Y-140900000D03*
X114900000Y-140650000D03*
%TD*%
D19*
%TO.N,GND*%
X168884590Y-131285725D02*
X168884590Y-133060990D01*
X171595515Y-128574800D02*
X168884590Y-131285725D01*
X168884590Y-133060990D02*
X170159600Y-134336000D01*
X172161200Y-128574800D02*
X171595515Y-128574800D01*
%TO.N,+3V3*%
X169875200Y-111438800D02*
X169875200Y-105138800D01*
X155380000Y-105138800D02*
X154432000Y-104190800D01*
X169875200Y-105138800D02*
X155380000Y-105138800D01*
X154432000Y-104190800D02*
X140716000Y-104190800D01*
X140716000Y-104190800D02*
X130300000Y-119450000D01*
X127750000Y-119450000D02*
X127400000Y-119800000D01*
X130300000Y-119450000D02*
X127750000Y-119450000D01*
%TO.N,Net-(J1-Pad6)*%
X173859600Y-131911000D02*
X174009600Y-131761000D01*
X170209600Y-131911000D02*
X173859600Y-131911000D01*
X174009600Y-131761000D02*
X174009600Y-139511000D01*
X170359600Y-139511000D02*
X170209600Y-139361000D01*
X174009600Y-139511000D02*
X170359600Y-139511000D01*
%TO.N,Net-(I/O1-Pad3)*%
X171341600Y-112252400D02*
X172155200Y-111438800D01*
X171341600Y-118912000D02*
X171341600Y-112252400D01*
X171591600Y-119162000D02*
X171341600Y-118912000D01*
X172290000Y-119162000D02*
X171591600Y-119162000D01*
%TO.N,Net-(I/O1-Pad2)*%
X170129600Y-136906000D02*
X170159600Y-136936000D01*
X167030400Y-125723200D02*
X172290000Y-120662000D01*
X167030400Y-136906000D02*
X167030400Y-125723200D01*
X167060400Y-136936000D02*
X167030400Y-136906000D01*
X170159600Y-136936000D02*
X167060400Y-136936000D01*
%TD*%
D20*
%TO.N,GND*%
X175189346Y-116623928D02*
X174750000Y-116623928D01*
X174625518Y-116636188D01*
X174505820Y-116672498D01*
X174395506Y-116731463D01*
X174298815Y-116810815D01*
X174219463Y-116907506D01*
X174160498Y-117017820D01*
X174124188Y-117137518D01*
X174111928Y-117262000D01*
X174111928Y-118262000D01*
X174124188Y-118386482D01*
X174160498Y-118506180D01*
X174219463Y-118616494D01*
X174298815Y-118713185D01*
X174395506Y-118792537D01*
X174505820Y-118851502D01*
X174625518Y-118887812D01*
X174750000Y-118900072D01*
X175186560Y-118900072D01*
X175180410Y-123923928D01*
X174750000Y-123923928D01*
X174625518Y-123936188D01*
X174505820Y-123972498D01*
X174395506Y-124031463D01*
X174298815Y-124110815D01*
X174219463Y-124207506D01*
X174160498Y-124317820D01*
X174124188Y-124437518D01*
X174111928Y-124562000D01*
X174111928Y-125562000D01*
X174124188Y-125686482D01*
X174160498Y-125806180D01*
X174219463Y-125916494D01*
X174298815Y-126013185D01*
X174395506Y-126092537D01*
X174505820Y-126151502D01*
X174625518Y-126187812D01*
X174750000Y-126200072D01*
X175177624Y-126200072D01*
X175171893Y-130882840D01*
X175010092Y-130750054D01*
X174799887Y-130637697D01*
X174571801Y-130568508D01*
X174394037Y-130551000D01*
X173625163Y-130551000D01*
X173447399Y-130568508D01*
X173219313Y-130637697D01*
X173009108Y-130750054D01*
X172824861Y-130901261D01*
X172673654Y-131085508D01*
X172638648Y-131151000D01*
X171620239Y-131151000D01*
X171450918Y-130944682D01*
X171243831Y-130774730D01*
X171007568Y-130648445D01*
X170751207Y-130570678D01*
X170551409Y-130551000D01*
X169867791Y-130551000D01*
X169667993Y-130570678D01*
X169411632Y-130648445D01*
X169175369Y-130774730D01*
X168968282Y-130944682D01*
X168798330Y-131151769D01*
X168672045Y-131388032D01*
X168594278Y-131644393D01*
X168568020Y-131911000D01*
X168594278Y-132177607D01*
X168672045Y-132433968D01*
X168798330Y-132670231D01*
X168968282Y-132877318D01*
X169175369Y-133047270D01*
X169411632Y-133173555D01*
X169667993Y-133251322D01*
X169867791Y-133271000D01*
X170231176Y-133271000D01*
X170264374Y-133437898D01*
X170328541Y-133592809D01*
X170286600Y-133634750D01*
X170286600Y-134122928D01*
X170032600Y-134122928D01*
X170032600Y-133634750D01*
X169873850Y-133476000D01*
X169520068Y-133473014D01*
X169395402Y-133483230D01*
X169275125Y-133517572D01*
X169163858Y-133574718D01*
X169065878Y-133652474D01*
X168984950Y-133747850D01*
X168924184Y-133857182D01*
X168885915Y-133976268D01*
X168874600Y-134079250D01*
X169033350Y-134238000D01*
X169145922Y-134238000D01*
X169058415Y-134309815D01*
X168979063Y-134406506D01*
X168920098Y-134516820D01*
X168906847Y-134560503D01*
X168874600Y-134592750D01*
X168881718Y-134657535D01*
X168871528Y-134761000D01*
X168871528Y-135211000D01*
X168881377Y-135311000D01*
X168871528Y-135411000D01*
X168871528Y-135861000D01*
X168881377Y-135961000D01*
X168871528Y-136061000D01*
X168871528Y-136176000D01*
X167790400Y-136176000D01*
X167790400Y-126046593D01*
X171042821Y-122916859D01*
X171009463Y-122957506D01*
X170950498Y-123067820D01*
X170914188Y-123187518D01*
X170901928Y-123312000D01*
X170901928Y-124012000D01*
X170914188Y-124136482D01*
X170950498Y-124256180D01*
X171009463Y-124366494D01*
X171088815Y-124463185D01*
X171185506Y-124542537D01*
X171295820Y-124601502D01*
X171415518Y-124637812D01*
X171540000Y-124650072D01*
X171901928Y-124650072D01*
X171901928Y-125562000D01*
X171914188Y-125686482D01*
X171950498Y-125806180D01*
X172009463Y-125916494D01*
X172088815Y-126013185D01*
X172185506Y-126092537D01*
X172295820Y-126151502D01*
X172415518Y-126187812D01*
X172540000Y-126200072D01*
X173340000Y-126200072D01*
X173464482Y-126187812D01*
X173584180Y-126151502D01*
X173694494Y-126092537D01*
X173791185Y-126013185D01*
X173870537Y-125916494D01*
X173929502Y-125806180D01*
X173965812Y-125686482D01*
X173978072Y-125562000D01*
X173978072Y-124562000D01*
X173965812Y-124437518D01*
X173929502Y-124317820D01*
X173870537Y-124207506D01*
X173791185Y-124110815D01*
X173694494Y-124031463D01*
X173677072Y-124022151D01*
X173678072Y-124012000D01*
X173678072Y-123932338D01*
X173733517Y-123955304D01*
X173943137Y-123997000D01*
X174156863Y-123997000D01*
X174366483Y-123955304D01*
X174563940Y-123873515D01*
X174741647Y-123754775D01*
X174892775Y-123603647D01*
X175011515Y-123425940D01*
X175093304Y-123228483D01*
X175135000Y-123018863D01*
X175135000Y-122805137D01*
X175093304Y-122595517D01*
X175011515Y-122398060D01*
X174892775Y-122220353D01*
X174741647Y-122069225D01*
X174563940Y-121950485D01*
X174366483Y-121868696D01*
X174156863Y-121827000D01*
X173943137Y-121827000D01*
X173733517Y-121868696D01*
X173536060Y-121950485D01*
X173358353Y-122069225D01*
X173207225Y-122220353D01*
X173088485Y-122398060D01*
X173006696Y-122595517D01*
X172991099Y-122673928D01*
X171540000Y-122673928D01*
X171415518Y-122686188D01*
X171295820Y-122722498D01*
X171185506Y-122781463D01*
X171172042Y-122792513D01*
X172359267Y-121650072D01*
X173040000Y-121650072D01*
X173164482Y-121637812D01*
X173284180Y-121601502D01*
X173394494Y-121542537D01*
X173491185Y-121463185D01*
X173570537Y-121366494D01*
X173629502Y-121256180D01*
X173665812Y-121136482D01*
X173678072Y-121012000D01*
X173678072Y-120932338D01*
X173733517Y-120955304D01*
X173943137Y-120997000D01*
X174156863Y-120997000D01*
X174366483Y-120955304D01*
X174563940Y-120873515D01*
X174741647Y-120754775D01*
X174892775Y-120603647D01*
X175011515Y-120425940D01*
X175093304Y-120228483D01*
X175135000Y-120018863D01*
X175135000Y-119805137D01*
X175093304Y-119595517D01*
X175011515Y-119398060D01*
X174892775Y-119220353D01*
X174741647Y-119069225D01*
X174563940Y-118950485D01*
X174366483Y-118868696D01*
X174156863Y-118827000D01*
X173943137Y-118827000D01*
X173733517Y-118868696D01*
X173678072Y-118891662D01*
X173678072Y-118812000D01*
X173677072Y-118801849D01*
X173694494Y-118792537D01*
X173791185Y-118713185D01*
X173870537Y-118616494D01*
X173929502Y-118506180D01*
X173965812Y-118386482D01*
X173978072Y-118262000D01*
X173978072Y-117262000D01*
X173965812Y-117137518D01*
X173929502Y-117017820D01*
X173870537Y-116907506D01*
X173791185Y-116810815D01*
X173694494Y-116731463D01*
X173584180Y-116672498D01*
X173464482Y-116636188D01*
X173340000Y-116623928D01*
X172540000Y-116623928D01*
X172415518Y-116636188D01*
X172295820Y-116672498D01*
X172185506Y-116731463D01*
X172101600Y-116800323D01*
X172101600Y-113176872D01*
X172755200Y-113176872D01*
X172879682Y-113164612D01*
X172999380Y-113128302D01*
X173109694Y-113069337D01*
X173206385Y-112989985D01*
X173285737Y-112893294D01*
X173344702Y-112782980D01*
X173381012Y-112663282D01*
X173393272Y-112538800D01*
X173393272Y-110338800D01*
X173381012Y-110214318D01*
X173344702Y-110094620D01*
X173285737Y-109984306D01*
X173206385Y-109887615D01*
X173109694Y-109808263D01*
X172999380Y-109749298D01*
X172879682Y-109712988D01*
X172755200Y-109700728D01*
X171555200Y-109700728D01*
X171430718Y-109712988D01*
X171311020Y-109749298D01*
X171200706Y-109808263D01*
X171104015Y-109887615D01*
X171024663Y-109984306D01*
X171015200Y-110002010D01*
X171005737Y-109984306D01*
X170926385Y-109887615D01*
X170829694Y-109808263D01*
X170719380Y-109749298D01*
X170635200Y-109723762D01*
X170635200Y-108976872D01*
X172775200Y-108976872D01*
X172899682Y-108964612D01*
X173019380Y-108928302D01*
X173129694Y-108869337D01*
X173226385Y-108789985D01*
X173305737Y-108693294D01*
X173364702Y-108582980D01*
X173401012Y-108463282D01*
X173413272Y-108338800D01*
X173413272Y-101938800D01*
X173401012Y-101814318D01*
X173364702Y-101694620D01*
X173305737Y-101584306D01*
X173226385Y-101487615D01*
X173129694Y-101408263D01*
X173019380Y-101349298D01*
X172899682Y-101312988D01*
X172775200Y-101300728D01*
X166975200Y-101300728D01*
X166850718Y-101312988D01*
X166731020Y-101349298D01*
X166620706Y-101408263D01*
X166524015Y-101487615D01*
X166444663Y-101584306D01*
X166385698Y-101694620D01*
X166349388Y-101814318D01*
X166337128Y-101938800D01*
X166337128Y-104378800D01*
X155795072Y-104378800D01*
X155795072Y-103940800D01*
X155778008Y-103767546D01*
X155727472Y-103600950D01*
X155645405Y-103447414D01*
X155534962Y-103312838D01*
X155400386Y-103202395D01*
X155246850Y-103120328D01*
X155080254Y-103069792D01*
X154907000Y-103052728D01*
X153957000Y-103052728D01*
X153783746Y-103069792D01*
X153617150Y-103120328D01*
X153463614Y-103202395D01*
X153329038Y-103312838D01*
X153232230Y-103430800D01*
X142103933Y-103430800D01*
X142079405Y-103384912D01*
X141968963Y-103250337D01*
X141834388Y-103139895D01*
X141680852Y-103057828D01*
X141514257Y-103007292D01*
X141341003Y-102990228D01*
X140090997Y-102990228D01*
X139917743Y-103007292D01*
X139751148Y-103057828D01*
X139597612Y-103139895D01*
X139463037Y-103250337D01*
X139352595Y-103384912D01*
X139270528Y-103538448D01*
X139219992Y-103705043D01*
X139202928Y-103878297D01*
X139202928Y-104503303D01*
X139219992Y-104676557D01*
X139270528Y-104843152D01*
X139305658Y-104908875D01*
X129898600Y-118690000D01*
X128825057Y-118690000D01*
X128757900Y-118648239D01*
X128858700Y-118596810D01*
X129087217Y-118416461D01*
X129276159Y-118194995D01*
X129357389Y-118064359D01*
X129299702Y-117810902D01*
X128147203Y-117502091D01*
X128142027Y-117521410D01*
X127896681Y-117455669D01*
X127901857Y-117436351D01*
X127231561Y-117256745D01*
X128212943Y-117256745D01*
X129365442Y-117565557D01*
X129542129Y-117374900D01*
X129537100Y-117221151D01*
X129484204Y-116934885D01*
X129376477Y-116664439D01*
X129218058Y-116420206D01*
X129015036Y-116211572D01*
X128775213Y-116046554D01*
X128521924Y-116103610D01*
X128212943Y-117256745D01*
X127231561Y-117256745D01*
X126749358Y-117127539D01*
X126572671Y-117318196D01*
X126577700Y-117471945D01*
X126630596Y-117758211D01*
X126738323Y-118028657D01*
X126799904Y-118123596D01*
X126715674Y-118126354D01*
X126593857Y-118154757D01*
X126479923Y-118206381D01*
X126378249Y-118279239D01*
X126292742Y-118370533D01*
X126226690Y-118476755D01*
X126182629Y-118593822D01*
X125742637Y-120235896D01*
X125722261Y-120359309D01*
X125726354Y-120484326D01*
X125754757Y-120606143D01*
X125806381Y-120720077D01*
X125879239Y-120821751D01*
X125970533Y-120907258D01*
X126076755Y-120973310D01*
X126193822Y-121017371D01*
X127835896Y-121457363D01*
X127959309Y-121477739D01*
X128084326Y-121473646D01*
X128206143Y-121445243D01*
X128320077Y-121393619D01*
X128421751Y-121320761D01*
X128507258Y-121229467D01*
X128573310Y-121123245D01*
X128617371Y-121006178D01*
X128830706Y-120210000D01*
X130258895Y-120210000D01*
X130292435Y-120213639D01*
X130333555Y-120210000D01*
X130337333Y-120210000D01*
X130370785Y-120206705D01*
X130441558Y-120200442D01*
X130445203Y-120199376D01*
X130448986Y-120199003D01*
X130517118Y-120178336D01*
X130585242Y-120158405D01*
X130588602Y-120156652D01*
X130592247Y-120155546D01*
X130655040Y-120121982D01*
X130717964Y-120089146D01*
X130720923Y-120086766D01*
X130724276Y-120084974D01*
X130779271Y-120039841D01*
X130834624Y-119995324D01*
X130837061Y-119992414D01*
X130840001Y-119990001D01*
X130885117Y-119935027D01*
X130906655Y-119909307D01*
X130908782Y-119906191D01*
X130934974Y-119874276D01*
X130950880Y-119844518D01*
X139209569Y-107745729D01*
X139215188Y-107802782D01*
X139251498Y-107922480D01*
X139310463Y-108032794D01*
X139389815Y-108129485D01*
X139486506Y-108208837D01*
X139596820Y-108267802D01*
X139716518Y-108304112D01*
X139841000Y-108316372D01*
X140430250Y-108313300D01*
X140589000Y-108154550D01*
X140589000Y-107242800D01*
X140843000Y-107242800D01*
X140843000Y-108154550D01*
X141001750Y-108313300D01*
X141591000Y-108316372D01*
X141715482Y-108304112D01*
X141835180Y-108267802D01*
X141945494Y-108208837D01*
X142042185Y-108129485D01*
X142121537Y-108032794D01*
X142180502Y-107922480D01*
X142216812Y-107802782D01*
X142229072Y-107678300D01*
X142226000Y-107401550D01*
X142067250Y-107242800D01*
X140843000Y-107242800D01*
X140589000Y-107242800D01*
X140569000Y-107242800D01*
X140569000Y-106988800D01*
X140589000Y-106988800D01*
X140589000Y-106077050D01*
X140843000Y-106077050D01*
X140843000Y-106988800D01*
X142067250Y-106988800D01*
X142226000Y-106830050D01*
X142228655Y-106590800D01*
X153068928Y-106590800D01*
X153081188Y-106715282D01*
X153117498Y-106834980D01*
X153176463Y-106945294D01*
X153255815Y-107041985D01*
X153352506Y-107121337D01*
X153462820Y-107180302D01*
X153582518Y-107216612D01*
X153707000Y-107228872D01*
X154146250Y-107225800D01*
X154305000Y-107067050D01*
X154305000Y-106217800D01*
X154559000Y-106217800D01*
X154559000Y-107067050D01*
X154717750Y-107225800D01*
X155157000Y-107228872D01*
X155281482Y-107216612D01*
X155401180Y-107180302D01*
X155511494Y-107121337D01*
X155608185Y-107041985D01*
X155687537Y-106945294D01*
X155746502Y-106834980D01*
X155782812Y-106715282D01*
X155795072Y-106590800D01*
X155792000Y-106376550D01*
X155633250Y-106217800D01*
X154559000Y-106217800D01*
X154305000Y-106217800D01*
X153230750Y-106217800D01*
X153072000Y-106376550D01*
X153068928Y-106590800D01*
X142228655Y-106590800D01*
X142229072Y-106553300D01*
X142216812Y-106428818D01*
X142180502Y-106309120D01*
X142121537Y-106198806D01*
X142042185Y-106102115D01*
X141945494Y-106022763D01*
X141835180Y-105963798D01*
X141715482Y-105927488D01*
X141591000Y-105915228D01*
X141001750Y-105918300D01*
X140843000Y-106077050D01*
X140589000Y-106077050D01*
X140446137Y-105934187D01*
X140816664Y-105391372D01*
X141341003Y-105391372D01*
X141514257Y-105374308D01*
X141680852Y-105323772D01*
X141834388Y-105241705D01*
X141968963Y-105131263D01*
X142079405Y-104996688D01*
X142103933Y-104950800D01*
X153232230Y-104950800D01*
X153329038Y-105068762D01*
X153335594Y-105074142D01*
X153255815Y-105139615D01*
X153176463Y-105236306D01*
X153117498Y-105346620D01*
X153081188Y-105466318D01*
X153068928Y-105590800D01*
X153072000Y-105805050D01*
X153230750Y-105963800D01*
X154305000Y-105963800D01*
X154305000Y-105943800D01*
X154559000Y-105943800D01*
X154559000Y-105963800D01*
X155633250Y-105963800D01*
X155698250Y-105898800D01*
X166337128Y-105898800D01*
X166337128Y-108338800D01*
X166349388Y-108463282D01*
X166385698Y-108582980D01*
X166444663Y-108693294D01*
X166524015Y-108789985D01*
X166620706Y-108869337D01*
X166731020Y-108928302D01*
X166850718Y-108964612D01*
X166975200Y-108976872D01*
X169115200Y-108976872D01*
X169115200Y-109723762D01*
X169031020Y-109749298D01*
X168920706Y-109808263D01*
X168824015Y-109887615D01*
X168744663Y-109984306D01*
X168735200Y-110002010D01*
X168725737Y-109984306D01*
X168646385Y-109887615D01*
X168549694Y-109808263D01*
X168439380Y-109749298D01*
X168319682Y-109712988D01*
X168195200Y-109700728D01*
X167880950Y-109703800D01*
X167722200Y-109862550D01*
X167722200Y-111311800D01*
X167742200Y-111311800D01*
X167742200Y-111565800D01*
X167722200Y-111565800D01*
X167722200Y-113015050D01*
X167880950Y-113173800D01*
X168195200Y-113176872D01*
X168319682Y-113164612D01*
X168439380Y-113128302D01*
X168549694Y-113069337D01*
X168646385Y-112989985D01*
X168725737Y-112893294D01*
X168735200Y-112875590D01*
X168744663Y-112893294D01*
X168824015Y-112989985D01*
X168920706Y-113069337D01*
X169031020Y-113128302D01*
X169150718Y-113164612D01*
X169275200Y-113176872D01*
X170475200Y-113176872D01*
X170581601Y-113166393D01*
X170581600Y-118874677D01*
X170577924Y-118912000D01*
X170581600Y-118949322D01*
X170581600Y-118949332D01*
X170592597Y-119060985D01*
X170621951Y-119157753D01*
X170636054Y-119204246D01*
X170706626Y-119336276D01*
X170729464Y-119364104D01*
X170801599Y-119452001D01*
X170830602Y-119475803D01*
X170905766Y-119550967D01*
X170914188Y-119636482D01*
X170950498Y-119756180D01*
X171009463Y-119866494D01*
X171046809Y-119912000D01*
X171009463Y-119957506D01*
X170950498Y-120067820D01*
X170914188Y-120187518D01*
X170901928Y-120312000D01*
X170901928Y-120942986D01*
X166525049Y-125154763D01*
X166490400Y-125183199D01*
X166447562Y-125235397D01*
X166403698Y-125286799D01*
X166400100Y-125293230D01*
X166395427Y-125298924D01*
X166363584Y-125358498D01*
X166330602Y-125417448D01*
X166328329Y-125424454D01*
X166324855Y-125430953D01*
X166305250Y-125495582D01*
X166284399Y-125559846D01*
X166283536Y-125567167D01*
X166281398Y-125574214D01*
X166274779Y-125641419D01*
X166266865Y-125708523D01*
X166270401Y-125753214D01*
X166270400Y-136868678D01*
X166266724Y-136906000D01*
X166270400Y-136943322D01*
X166270400Y-136943332D01*
X166281397Y-137054985D01*
X166313556Y-137161000D01*
X166324854Y-137198246D01*
X166395426Y-137330276D01*
X166396893Y-137332063D01*
X166490399Y-137446001D01*
X166506876Y-137459524D01*
X166520399Y-137476001D01*
X166636124Y-137570974D01*
X166768153Y-137641546D01*
X166911414Y-137685003D01*
X167023067Y-137696000D01*
X167023077Y-137696000D01*
X167060399Y-137699676D01*
X167097722Y-137696000D01*
X169163456Y-137696000D01*
X169265420Y-137750502D01*
X169385118Y-137786812D01*
X169509600Y-137799072D01*
X170278884Y-137799072D01*
X170264374Y-137834102D01*
X170231176Y-138001000D01*
X169867791Y-138001000D01*
X169667993Y-138020678D01*
X169411632Y-138098445D01*
X169175369Y-138224730D01*
X168968282Y-138394682D01*
X168798330Y-138601769D01*
X168672045Y-138838032D01*
X168594278Y-139094393D01*
X168568020Y-139361000D01*
X168594278Y-139627607D01*
X168672045Y-139883968D01*
X168798330Y-140120231D01*
X168968282Y-140327318D01*
X169175369Y-140497270D01*
X169411632Y-140623555D01*
X169667993Y-140701322D01*
X169867791Y-140721000D01*
X170551409Y-140721000D01*
X170751207Y-140701322D01*
X171007568Y-140623555D01*
X171243831Y-140497270D01*
X171450918Y-140327318D01*
X171497137Y-140271000D01*
X172743008Y-140271000D01*
X172824861Y-140370739D01*
X173009108Y-140521946D01*
X173219313Y-140634303D01*
X173447399Y-140703492D01*
X173625163Y-140721000D01*
X174394037Y-140721000D01*
X174571801Y-140703492D01*
X174799887Y-140634303D01*
X175010092Y-140521946D01*
X175160245Y-140398719D01*
X175158840Y-141546786D01*
X175158801Y-141547181D01*
X175158801Y-141578545D01*
X175158761Y-141611211D01*
X175158801Y-141611622D01*
X175158800Y-143375981D01*
X175158800Y-143375982D01*
X175158801Y-148641200D01*
X112500383Y-148641200D01*
X114643428Y-141654242D01*
X114798061Y-141685000D01*
X115001939Y-141685000D01*
X115018079Y-141681790D01*
X115040226Y-141703937D01*
X115209744Y-141817205D01*
X115398102Y-141895226D01*
X115598061Y-141935000D01*
X115801939Y-141935000D01*
X115818079Y-141931790D01*
X115890226Y-142003937D01*
X116059744Y-142117205D01*
X116248102Y-142195226D01*
X116448061Y-142235000D01*
X116651939Y-142235000D01*
X116851898Y-142195226D01*
X117040256Y-142117205D01*
X117084065Y-142087933D01*
X118750981Y-142658194D01*
X118802914Y-142677651D01*
X118844478Y-142684449D01*
X118885474Y-142694111D01*
X118908487Y-142694919D01*
X118931218Y-142698637D01*
X118973319Y-142697195D01*
X119015402Y-142698673D01*
X119038130Y-142694976D01*
X119061149Y-142694188D01*
X119102151Y-142684563D01*
X119143724Y-142677801D01*
X119165297Y-142669740D01*
X119187716Y-142664477D01*
X119226057Y-142647036D01*
X119265508Y-142632294D01*
X119285091Y-142620181D01*
X119306056Y-142610644D01*
X119340257Y-142586058D01*
X119376075Y-142563903D01*
X119392921Y-142548200D01*
X119411620Y-142534758D01*
X119440366Y-142503973D01*
X119471174Y-142475256D01*
X119484632Y-142456569D01*
X119500350Y-142439737D01*
X119522537Y-142403938D01*
X119547152Y-142369760D01*
X119556707Y-142348805D01*
X119568838Y-142329231D01*
X119583615Y-142289791D01*
X119601089Y-142251467D01*
X119613812Y-142197482D01*
X121226119Y-136144000D01*
X132280407Y-136144000D01*
X132284593Y-136186502D01*
X132285900Y-136229173D01*
X132290949Y-136251036D01*
X132293150Y-136273383D01*
X132305549Y-136314257D01*
X132315154Y-136355847D01*
X132324372Y-136376307D01*
X132330890Y-136397793D01*
X132351023Y-136435460D01*
X132368559Y-136474381D01*
X132381591Y-136492649D01*
X132392175Y-136512450D01*
X132419268Y-136545462D01*
X132444062Y-136580218D01*
X132460411Y-136595595D01*
X132474652Y-136612948D01*
X132507666Y-136640042D01*
X132538763Y-136669291D01*
X132557794Y-136681182D01*
X132575150Y-136695425D01*
X132612810Y-136715555D01*
X132649020Y-136738178D01*
X132670012Y-136746129D01*
X132689807Y-136756710D01*
X132730674Y-136769107D01*
X132770599Y-136784230D01*
X132792731Y-136787932D01*
X132814217Y-136794450D01*
X132856717Y-136798636D01*
X132898827Y-136805680D01*
X132953679Y-136804000D01*
X162984781Y-136804000D01*
X163017200Y-136807193D01*
X163049619Y-136804000D01*
X163146583Y-136794450D01*
X163270993Y-136756710D01*
X163385650Y-136695425D01*
X163486148Y-136612948D01*
X163568625Y-136512450D01*
X163629910Y-136397793D01*
X163667650Y-136273383D01*
X163680393Y-136144000D01*
X163677200Y-136111581D01*
X163677200Y-112538800D01*
X166357128Y-112538800D01*
X166369388Y-112663282D01*
X166405698Y-112782980D01*
X166464663Y-112893294D01*
X166544015Y-112989985D01*
X166640706Y-113069337D01*
X166751020Y-113128302D01*
X166870718Y-113164612D01*
X166995200Y-113176872D01*
X167309450Y-113173800D01*
X167468200Y-113015050D01*
X167468200Y-111565800D01*
X166518950Y-111565800D01*
X166360200Y-111724550D01*
X166357128Y-112538800D01*
X163677200Y-112538800D01*
X163677200Y-110420819D01*
X163680393Y-110388400D01*
X163675508Y-110338800D01*
X166357128Y-110338800D01*
X166360200Y-111153050D01*
X166518950Y-111311800D01*
X167468200Y-111311800D01*
X167468200Y-109862550D01*
X167309450Y-109703800D01*
X166995200Y-109700728D01*
X166870718Y-109712988D01*
X166751020Y-109749298D01*
X166640706Y-109808263D01*
X166544015Y-109887615D01*
X166464663Y-109984306D01*
X166405698Y-110094620D01*
X166369388Y-110214318D01*
X166357128Y-110338800D01*
X163675508Y-110338800D01*
X163667650Y-110259017D01*
X163629910Y-110134607D01*
X163568625Y-110019950D01*
X163486148Y-109919452D01*
X163385650Y-109836975D01*
X163270993Y-109775690D01*
X163146583Y-109737950D01*
X163049619Y-109728400D01*
X163017200Y-109725207D01*
X162984781Y-109728400D01*
X139958016Y-109728400D01*
X139947973Y-109726720D01*
X139893121Y-109728400D01*
X139870781Y-109728400D01*
X139860698Y-109729393D01*
X139818026Y-109730700D01*
X139796161Y-109735749D01*
X139773817Y-109737950D01*
X139732955Y-109750346D01*
X139691352Y-109759953D01*
X139670884Y-109769175D01*
X139649407Y-109775690D01*
X139611749Y-109795818D01*
X139572818Y-109813359D01*
X139554547Y-109826393D01*
X139534750Y-109836975D01*
X139501744Y-109864062D01*
X139466981Y-109888862D01*
X139451599Y-109905215D01*
X139434252Y-109919452D01*
X139407169Y-109952452D01*
X139377908Y-109983562D01*
X139366012Y-110002602D01*
X139351775Y-110019950D01*
X139331652Y-110057597D01*
X139309021Y-110093820D01*
X139301067Y-110114818D01*
X139290490Y-110134607D01*
X139278097Y-110175462D01*
X139274508Y-110184936D01*
X139268680Y-110206503D01*
X139252750Y-110259017D01*
X139251752Y-110269150D01*
X132309087Y-135962082D01*
X132293150Y-136014617D01*
X132288964Y-136057115D01*
X132281920Y-136099227D01*
X132282607Y-136121662D01*
X132280407Y-136144000D01*
X121226119Y-136144000D01*
X126423889Y-116628737D01*
X126757411Y-116628737D01*
X126815098Y-116882194D01*
X127967597Y-117191005D01*
X128276579Y-116037870D01*
X128085753Y-115861814D01*
X127795551Y-115884812D01*
X127515411Y-115963983D01*
X127256100Y-116096286D01*
X127027583Y-116276635D01*
X126838641Y-116498101D01*
X126757411Y-116628737D01*
X126423889Y-116628737D01*
X130656822Y-100736000D01*
X175208792Y-100736000D01*
X175189346Y-116623928D01*
%TA.AperFunction,Conductor*%
D21*
G36*
X175189346Y-116623928D02*
G01*
X174750000Y-116623928D01*
X174625518Y-116636188D01*
X174505820Y-116672498D01*
X174395506Y-116731463D01*
X174298815Y-116810815D01*
X174219463Y-116907506D01*
X174160498Y-117017820D01*
X174124188Y-117137518D01*
X174111928Y-117262000D01*
X174111928Y-118262000D01*
X174124188Y-118386482D01*
X174160498Y-118506180D01*
X174219463Y-118616494D01*
X174298815Y-118713185D01*
X174395506Y-118792537D01*
X174505820Y-118851502D01*
X174625518Y-118887812D01*
X174750000Y-118900072D01*
X175186560Y-118900072D01*
X175180410Y-123923928D01*
X174750000Y-123923928D01*
X174625518Y-123936188D01*
X174505820Y-123972498D01*
X174395506Y-124031463D01*
X174298815Y-124110815D01*
X174219463Y-124207506D01*
X174160498Y-124317820D01*
X174124188Y-124437518D01*
X174111928Y-124562000D01*
X174111928Y-125562000D01*
X174124188Y-125686482D01*
X174160498Y-125806180D01*
X174219463Y-125916494D01*
X174298815Y-126013185D01*
X174395506Y-126092537D01*
X174505820Y-126151502D01*
X174625518Y-126187812D01*
X174750000Y-126200072D01*
X175177624Y-126200072D01*
X175171893Y-130882840D01*
X175010092Y-130750054D01*
X174799887Y-130637697D01*
X174571801Y-130568508D01*
X174394037Y-130551000D01*
X173625163Y-130551000D01*
X173447399Y-130568508D01*
X173219313Y-130637697D01*
X173009108Y-130750054D01*
X172824861Y-130901261D01*
X172673654Y-131085508D01*
X172638648Y-131151000D01*
X171620239Y-131151000D01*
X171450918Y-130944682D01*
X171243831Y-130774730D01*
X171007568Y-130648445D01*
X170751207Y-130570678D01*
X170551409Y-130551000D01*
X169867791Y-130551000D01*
X169667993Y-130570678D01*
X169411632Y-130648445D01*
X169175369Y-130774730D01*
X168968282Y-130944682D01*
X168798330Y-131151769D01*
X168672045Y-131388032D01*
X168594278Y-131644393D01*
X168568020Y-131911000D01*
X168594278Y-132177607D01*
X168672045Y-132433968D01*
X168798330Y-132670231D01*
X168968282Y-132877318D01*
X169175369Y-133047270D01*
X169411632Y-133173555D01*
X169667993Y-133251322D01*
X169867791Y-133271000D01*
X170231176Y-133271000D01*
X170264374Y-133437898D01*
X170328541Y-133592809D01*
X170286600Y-133634750D01*
X170286600Y-134122928D01*
X170032600Y-134122928D01*
X170032600Y-133634750D01*
X169873850Y-133476000D01*
X169520068Y-133473014D01*
X169395402Y-133483230D01*
X169275125Y-133517572D01*
X169163858Y-133574718D01*
X169065878Y-133652474D01*
X168984950Y-133747850D01*
X168924184Y-133857182D01*
X168885915Y-133976268D01*
X168874600Y-134079250D01*
X169033350Y-134238000D01*
X169145922Y-134238000D01*
X169058415Y-134309815D01*
X168979063Y-134406506D01*
X168920098Y-134516820D01*
X168906847Y-134560503D01*
X168874600Y-134592750D01*
X168881718Y-134657535D01*
X168871528Y-134761000D01*
X168871528Y-135211000D01*
X168881377Y-135311000D01*
X168871528Y-135411000D01*
X168871528Y-135861000D01*
X168881377Y-135961000D01*
X168871528Y-136061000D01*
X168871528Y-136176000D01*
X167790400Y-136176000D01*
X167790400Y-126046593D01*
X171042821Y-122916859D01*
X171009463Y-122957506D01*
X170950498Y-123067820D01*
X170914188Y-123187518D01*
X170901928Y-123312000D01*
X170901928Y-124012000D01*
X170914188Y-124136482D01*
X170950498Y-124256180D01*
X171009463Y-124366494D01*
X171088815Y-124463185D01*
X171185506Y-124542537D01*
X171295820Y-124601502D01*
X171415518Y-124637812D01*
X171540000Y-124650072D01*
X171901928Y-124650072D01*
X171901928Y-125562000D01*
X171914188Y-125686482D01*
X171950498Y-125806180D01*
X172009463Y-125916494D01*
X172088815Y-126013185D01*
X172185506Y-126092537D01*
X172295820Y-126151502D01*
X172415518Y-126187812D01*
X172540000Y-126200072D01*
X173340000Y-126200072D01*
X173464482Y-126187812D01*
X173584180Y-126151502D01*
X173694494Y-126092537D01*
X173791185Y-126013185D01*
X173870537Y-125916494D01*
X173929502Y-125806180D01*
X173965812Y-125686482D01*
X173978072Y-125562000D01*
X173978072Y-124562000D01*
X173965812Y-124437518D01*
X173929502Y-124317820D01*
X173870537Y-124207506D01*
X173791185Y-124110815D01*
X173694494Y-124031463D01*
X173677072Y-124022151D01*
X173678072Y-124012000D01*
X173678072Y-123932338D01*
X173733517Y-123955304D01*
X173943137Y-123997000D01*
X174156863Y-123997000D01*
X174366483Y-123955304D01*
X174563940Y-123873515D01*
X174741647Y-123754775D01*
X174892775Y-123603647D01*
X175011515Y-123425940D01*
X175093304Y-123228483D01*
X175135000Y-123018863D01*
X175135000Y-122805137D01*
X175093304Y-122595517D01*
X175011515Y-122398060D01*
X174892775Y-122220353D01*
X174741647Y-122069225D01*
X174563940Y-121950485D01*
X174366483Y-121868696D01*
X174156863Y-121827000D01*
X173943137Y-121827000D01*
X173733517Y-121868696D01*
X173536060Y-121950485D01*
X173358353Y-122069225D01*
X173207225Y-122220353D01*
X173088485Y-122398060D01*
X173006696Y-122595517D01*
X172991099Y-122673928D01*
X171540000Y-122673928D01*
X171415518Y-122686188D01*
X171295820Y-122722498D01*
X171185506Y-122781463D01*
X171172042Y-122792513D01*
X172359267Y-121650072D01*
X173040000Y-121650072D01*
X173164482Y-121637812D01*
X173284180Y-121601502D01*
X173394494Y-121542537D01*
X173491185Y-121463185D01*
X173570537Y-121366494D01*
X173629502Y-121256180D01*
X173665812Y-121136482D01*
X173678072Y-121012000D01*
X173678072Y-120932338D01*
X173733517Y-120955304D01*
X173943137Y-120997000D01*
X174156863Y-120997000D01*
X174366483Y-120955304D01*
X174563940Y-120873515D01*
X174741647Y-120754775D01*
X174892775Y-120603647D01*
X175011515Y-120425940D01*
X175093304Y-120228483D01*
X175135000Y-120018863D01*
X175135000Y-119805137D01*
X175093304Y-119595517D01*
X175011515Y-119398060D01*
X174892775Y-119220353D01*
X174741647Y-119069225D01*
X174563940Y-118950485D01*
X174366483Y-118868696D01*
X174156863Y-118827000D01*
X173943137Y-118827000D01*
X173733517Y-118868696D01*
X173678072Y-118891662D01*
X173678072Y-118812000D01*
X173677072Y-118801849D01*
X173694494Y-118792537D01*
X173791185Y-118713185D01*
X173870537Y-118616494D01*
X173929502Y-118506180D01*
X173965812Y-118386482D01*
X173978072Y-118262000D01*
X173978072Y-117262000D01*
X173965812Y-117137518D01*
X173929502Y-117017820D01*
X173870537Y-116907506D01*
X173791185Y-116810815D01*
X173694494Y-116731463D01*
X173584180Y-116672498D01*
X173464482Y-116636188D01*
X173340000Y-116623928D01*
X172540000Y-116623928D01*
X172415518Y-116636188D01*
X172295820Y-116672498D01*
X172185506Y-116731463D01*
X172101600Y-116800323D01*
X172101600Y-113176872D01*
X172755200Y-113176872D01*
X172879682Y-113164612D01*
X172999380Y-113128302D01*
X173109694Y-113069337D01*
X173206385Y-112989985D01*
X173285737Y-112893294D01*
X173344702Y-112782980D01*
X173381012Y-112663282D01*
X173393272Y-112538800D01*
X173393272Y-110338800D01*
X173381012Y-110214318D01*
X173344702Y-110094620D01*
X173285737Y-109984306D01*
X173206385Y-109887615D01*
X173109694Y-109808263D01*
X172999380Y-109749298D01*
X172879682Y-109712988D01*
X172755200Y-109700728D01*
X171555200Y-109700728D01*
X171430718Y-109712988D01*
X171311020Y-109749298D01*
X171200706Y-109808263D01*
X171104015Y-109887615D01*
X171024663Y-109984306D01*
X171015200Y-110002010D01*
X171005737Y-109984306D01*
X170926385Y-109887615D01*
X170829694Y-109808263D01*
X170719380Y-109749298D01*
X170635200Y-109723762D01*
X170635200Y-108976872D01*
X172775200Y-108976872D01*
X172899682Y-108964612D01*
X173019380Y-108928302D01*
X173129694Y-108869337D01*
X173226385Y-108789985D01*
X173305737Y-108693294D01*
X173364702Y-108582980D01*
X173401012Y-108463282D01*
X173413272Y-108338800D01*
X173413272Y-101938800D01*
X173401012Y-101814318D01*
X173364702Y-101694620D01*
X173305737Y-101584306D01*
X173226385Y-101487615D01*
X173129694Y-101408263D01*
X173019380Y-101349298D01*
X172899682Y-101312988D01*
X172775200Y-101300728D01*
X166975200Y-101300728D01*
X166850718Y-101312988D01*
X166731020Y-101349298D01*
X166620706Y-101408263D01*
X166524015Y-101487615D01*
X166444663Y-101584306D01*
X166385698Y-101694620D01*
X166349388Y-101814318D01*
X166337128Y-101938800D01*
X166337128Y-104378800D01*
X155795072Y-104378800D01*
X155795072Y-103940800D01*
X155778008Y-103767546D01*
X155727472Y-103600950D01*
X155645405Y-103447414D01*
X155534962Y-103312838D01*
X155400386Y-103202395D01*
X155246850Y-103120328D01*
X155080254Y-103069792D01*
X154907000Y-103052728D01*
X153957000Y-103052728D01*
X153783746Y-103069792D01*
X153617150Y-103120328D01*
X153463614Y-103202395D01*
X153329038Y-103312838D01*
X153232230Y-103430800D01*
X142103933Y-103430800D01*
X142079405Y-103384912D01*
X141968963Y-103250337D01*
X141834388Y-103139895D01*
X141680852Y-103057828D01*
X141514257Y-103007292D01*
X141341003Y-102990228D01*
X140090997Y-102990228D01*
X139917743Y-103007292D01*
X139751148Y-103057828D01*
X139597612Y-103139895D01*
X139463037Y-103250337D01*
X139352595Y-103384912D01*
X139270528Y-103538448D01*
X139219992Y-103705043D01*
X139202928Y-103878297D01*
X139202928Y-104503303D01*
X139219992Y-104676557D01*
X139270528Y-104843152D01*
X139305658Y-104908875D01*
X129898600Y-118690000D01*
X128825057Y-118690000D01*
X128757900Y-118648239D01*
X128858700Y-118596810D01*
X129087217Y-118416461D01*
X129276159Y-118194995D01*
X129357389Y-118064359D01*
X129299702Y-117810902D01*
X128147203Y-117502091D01*
X128142027Y-117521410D01*
X127896681Y-117455669D01*
X127901857Y-117436351D01*
X127231561Y-117256745D01*
X128212943Y-117256745D01*
X129365442Y-117565557D01*
X129542129Y-117374900D01*
X129537100Y-117221151D01*
X129484204Y-116934885D01*
X129376477Y-116664439D01*
X129218058Y-116420206D01*
X129015036Y-116211572D01*
X128775213Y-116046554D01*
X128521924Y-116103610D01*
X128212943Y-117256745D01*
X127231561Y-117256745D01*
X126749358Y-117127539D01*
X126572671Y-117318196D01*
X126577700Y-117471945D01*
X126630596Y-117758211D01*
X126738323Y-118028657D01*
X126799904Y-118123596D01*
X126715674Y-118126354D01*
X126593857Y-118154757D01*
X126479923Y-118206381D01*
X126378249Y-118279239D01*
X126292742Y-118370533D01*
X126226690Y-118476755D01*
X126182629Y-118593822D01*
X125742637Y-120235896D01*
X125722261Y-120359309D01*
X125726354Y-120484326D01*
X125754757Y-120606143D01*
X125806381Y-120720077D01*
X125879239Y-120821751D01*
X125970533Y-120907258D01*
X126076755Y-120973310D01*
X126193822Y-121017371D01*
X127835896Y-121457363D01*
X127959309Y-121477739D01*
X128084326Y-121473646D01*
X128206143Y-121445243D01*
X128320077Y-121393619D01*
X128421751Y-121320761D01*
X128507258Y-121229467D01*
X128573310Y-121123245D01*
X128617371Y-121006178D01*
X128830706Y-120210000D01*
X130258895Y-120210000D01*
X130292435Y-120213639D01*
X130333555Y-120210000D01*
X130337333Y-120210000D01*
X130370785Y-120206705D01*
X130441558Y-120200442D01*
X130445203Y-120199376D01*
X130448986Y-120199003D01*
X130517118Y-120178336D01*
X130585242Y-120158405D01*
X130588602Y-120156652D01*
X130592247Y-120155546D01*
X130655040Y-120121982D01*
X130717964Y-120089146D01*
X130720923Y-120086766D01*
X130724276Y-120084974D01*
X130779271Y-120039841D01*
X130834624Y-119995324D01*
X130837061Y-119992414D01*
X130840001Y-119990001D01*
X130885117Y-119935027D01*
X130906655Y-119909307D01*
X130908782Y-119906191D01*
X130934974Y-119874276D01*
X130950880Y-119844518D01*
X139209569Y-107745729D01*
X139215188Y-107802782D01*
X139251498Y-107922480D01*
X139310463Y-108032794D01*
X139389815Y-108129485D01*
X139486506Y-108208837D01*
X139596820Y-108267802D01*
X139716518Y-108304112D01*
X139841000Y-108316372D01*
X140430250Y-108313300D01*
X140589000Y-108154550D01*
X140589000Y-107242800D01*
X140843000Y-107242800D01*
X140843000Y-108154550D01*
X141001750Y-108313300D01*
X141591000Y-108316372D01*
X141715482Y-108304112D01*
X141835180Y-108267802D01*
X141945494Y-108208837D01*
X142042185Y-108129485D01*
X142121537Y-108032794D01*
X142180502Y-107922480D01*
X142216812Y-107802782D01*
X142229072Y-107678300D01*
X142226000Y-107401550D01*
X142067250Y-107242800D01*
X140843000Y-107242800D01*
X140589000Y-107242800D01*
X140569000Y-107242800D01*
X140569000Y-106988800D01*
X140589000Y-106988800D01*
X140589000Y-106077050D01*
X140843000Y-106077050D01*
X140843000Y-106988800D01*
X142067250Y-106988800D01*
X142226000Y-106830050D01*
X142228655Y-106590800D01*
X153068928Y-106590800D01*
X153081188Y-106715282D01*
X153117498Y-106834980D01*
X153176463Y-106945294D01*
X153255815Y-107041985D01*
X153352506Y-107121337D01*
X153462820Y-107180302D01*
X153582518Y-107216612D01*
X153707000Y-107228872D01*
X154146250Y-107225800D01*
X154305000Y-107067050D01*
X154305000Y-106217800D01*
X154559000Y-106217800D01*
X154559000Y-107067050D01*
X154717750Y-107225800D01*
X155157000Y-107228872D01*
X155281482Y-107216612D01*
X155401180Y-107180302D01*
X155511494Y-107121337D01*
X155608185Y-107041985D01*
X155687537Y-106945294D01*
X155746502Y-106834980D01*
X155782812Y-106715282D01*
X155795072Y-106590800D01*
X155792000Y-106376550D01*
X155633250Y-106217800D01*
X154559000Y-106217800D01*
X154305000Y-106217800D01*
X153230750Y-106217800D01*
X153072000Y-106376550D01*
X153068928Y-106590800D01*
X142228655Y-106590800D01*
X142229072Y-106553300D01*
X142216812Y-106428818D01*
X142180502Y-106309120D01*
X142121537Y-106198806D01*
X142042185Y-106102115D01*
X141945494Y-106022763D01*
X141835180Y-105963798D01*
X141715482Y-105927488D01*
X141591000Y-105915228D01*
X141001750Y-105918300D01*
X140843000Y-106077050D01*
X140589000Y-106077050D01*
X140446137Y-105934187D01*
X140816664Y-105391372D01*
X141341003Y-105391372D01*
X141514257Y-105374308D01*
X141680852Y-105323772D01*
X141834388Y-105241705D01*
X141968963Y-105131263D01*
X142079405Y-104996688D01*
X142103933Y-104950800D01*
X153232230Y-104950800D01*
X153329038Y-105068762D01*
X153335594Y-105074142D01*
X153255815Y-105139615D01*
X153176463Y-105236306D01*
X153117498Y-105346620D01*
X153081188Y-105466318D01*
X153068928Y-105590800D01*
X153072000Y-105805050D01*
X153230750Y-105963800D01*
X154305000Y-105963800D01*
X154305000Y-105943800D01*
X154559000Y-105943800D01*
X154559000Y-105963800D01*
X155633250Y-105963800D01*
X155698250Y-105898800D01*
X166337128Y-105898800D01*
X166337128Y-108338800D01*
X166349388Y-108463282D01*
X166385698Y-108582980D01*
X166444663Y-108693294D01*
X166524015Y-108789985D01*
X166620706Y-108869337D01*
X166731020Y-108928302D01*
X166850718Y-108964612D01*
X166975200Y-108976872D01*
X169115200Y-108976872D01*
X169115200Y-109723762D01*
X169031020Y-109749298D01*
X168920706Y-109808263D01*
X168824015Y-109887615D01*
X168744663Y-109984306D01*
X168735200Y-110002010D01*
X168725737Y-109984306D01*
X168646385Y-109887615D01*
X168549694Y-109808263D01*
X168439380Y-109749298D01*
X168319682Y-109712988D01*
X168195200Y-109700728D01*
X167880950Y-109703800D01*
X167722200Y-109862550D01*
X167722200Y-111311800D01*
X167742200Y-111311800D01*
X167742200Y-111565800D01*
X167722200Y-111565800D01*
X167722200Y-113015050D01*
X167880950Y-113173800D01*
X168195200Y-113176872D01*
X168319682Y-113164612D01*
X168439380Y-113128302D01*
X168549694Y-113069337D01*
X168646385Y-112989985D01*
X168725737Y-112893294D01*
X168735200Y-112875590D01*
X168744663Y-112893294D01*
X168824015Y-112989985D01*
X168920706Y-113069337D01*
X169031020Y-113128302D01*
X169150718Y-113164612D01*
X169275200Y-113176872D01*
X170475200Y-113176872D01*
X170581601Y-113166393D01*
X170581600Y-118874677D01*
X170577924Y-118912000D01*
X170581600Y-118949322D01*
X170581600Y-118949332D01*
X170592597Y-119060985D01*
X170621951Y-119157753D01*
X170636054Y-119204246D01*
X170706626Y-119336276D01*
X170729464Y-119364104D01*
X170801599Y-119452001D01*
X170830602Y-119475803D01*
X170905766Y-119550967D01*
X170914188Y-119636482D01*
X170950498Y-119756180D01*
X171009463Y-119866494D01*
X171046809Y-119912000D01*
X171009463Y-119957506D01*
X170950498Y-120067820D01*
X170914188Y-120187518D01*
X170901928Y-120312000D01*
X170901928Y-120942986D01*
X166525049Y-125154763D01*
X166490400Y-125183199D01*
X166447562Y-125235397D01*
X166403698Y-125286799D01*
X166400100Y-125293230D01*
X166395427Y-125298924D01*
X166363584Y-125358498D01*
X166330602Y-125417448D01*
X166328329Y-125424454D01*
X166324855Y-125430953D01*
X166305250Y-125495582D01*
X166284399Y-125559846D01*
X166283536Y-125567167D01*
X166281398Y-125574214D01*
X166274779Y-125641419D01*
X166266865Y-125708523D01*
X166270401Y-125753214D01*
X166270400Y-136868678D01*
X166266724Y-136906000D01*
X166270400Y-136943322D01*
X166270400Y-136943332D01*
X166281397Y-137054985D01*
X166313556Y-137161000D01*
X166324854Y-137198246D01*
X166395426Y-137330276D01*
X166396893Y-137332063D01*
X166490399Y-137446001D01*
X166506876Y-137459524D01*
X166520399Y-137476001D01*
X166636124Y-137570974D01*
X166768153Y-137641546D01*
X166911414Y-137685003D01*
X167023067Y-137696000D01*
X167023077Y-137696000D01*
X167060399Y-137699676D01*
X167097722Y-137696000D01*
X169163456Y-137696000D01*
X169265420Y-137750502D01*
X169385118Y-137786812D01*
X169509600Y-137799072D01*
X170278884Y-137799072D01*
X170264374Y-137834102D01*
X170231176Y-138001000D01*
X169867791Y-138001000D01*
X169667993Y-138020678D01*
X169411632Y-138098445D01*
X169175369Y-138224730D01*
X168968282Y-138394682D01*
X168798330Y-138601769D01*
X168672045Y-138838032D01*
X168594278Y-139094393D01*
X168568020Y-139361000D01*
X168594278Y-139627607D01*
X168672045Y-139883968D01*
X168798330Y-140120231D01*
X168968282Y-140327318D01*
X169175369Y-140497270D01*
X169411632Y-140623555D01*
X169667993Y-140701322D01*
X169867791Y-140721000D01*
X170551409Y-140721000D01*
X170751207Y-140701322D01*
X171007568Y-140623555D01*
X171243831Y-140497270D01*
X171450918Y-140327318D01*
X171497137Y-140271000D01*
X172743008Y-140271000D01*
X172824861Y-140370739D01*
X173009108Y-140521946D01*
X173219313Y-140634303D01*
X173447399Y-140703492D01*
X173625163Y-140721000D01*
X174394037Y-140721000D01*
X174571801Y-140703492D01*
X174799887Y-140634303D01*
X175010092Y-140521946D01*
X175160245Y-140398719D01*
X175158840Y-141546786D01*
X175158801Y-141547181D01*
X175158801Y-141578545D01*
X175158761Y-141611211D01*
X175158801Y-141611622D01*
X175158800Y-143375981D01*
X175158800Y-143375982D01*
X175158801Y-148641200D01*
X112500383Y-148641200D01*
X114643428Y-141654242D01*
X114798061Y-141685000D01*
X115001939Y-141685000D01*
X115018079Y-141681790D01*
X115040226Y-141703937D01*
X115209744Y-141817205D01*
X115398102Y-141895226D01*
X115598061Y-141935000D01*
X115801939Y-141935000D01*
X115818079Y-141931790D01*
X115890226Y-142003937D01*
X116059744Y-142117205D01*
X116248102Y-142195226D01*
X116448061Y-142235000D01*
X116651939Y-142235000D01*
X116851898Y-142195226D01*
X117040256Y-142117205D01*
X117084065Y-142087933D01*
X118750981Y-142658194D01*
X118802914Y-142677651D01*
X118844478Y-142684449D01*
X118885474Y-142694111D01*
X118908487Y-142694919D01*
X118931218Y-142698637D01*
X118973319Y-142697195D01*
X119015402Y-142698673D01*
X119038130Y-142694976D01*
X119061149Y-142694188D01*
X119102151Y-142684563D01*
X119143724Y-142677801D01*
X119165297Y-142669740D01*
X119187716Y-142664477D01*
X119226057Y-142647036D01*
X119265508Y-142632294D01*
X119285091Y-142620181D01*
X119306056Y-142610644D01*
X119340257Y-142586058D01*
X119376075Y-142563903D01*
X119392921Y-142548200D01*
X119411620Y-142534758D01*
X119440366Y-142503973D01*
X119471174Y-142475256D01*
X119484632Y-142456569D01*
X119500350Y-142439737D01*
X119522537Y-142403938D01*
X119547152Y-142369760D01*
X119556707Y-142348805D01*
X119568838Y-142329231D01*
X119583615Y-142289791D01*
X119601089Y-142251467D01*
X119613812Y-142197482D01*
X121226119Y-136144000D01*
X132280407Y-136144000D01*
X132284593Y-136186502D01*
X132285900Y-136229173D01*
X132290949Y-136251036D01*
X132293150Y-136273383D01*
X132305549Y-136314257D01*
X132315154Y-136355847D01*
X132324372Y-136376307D01*
X132330890Y-136397793D01*
X132351023Y-136435460D01*
X132368559Y-136474381D01*
X132381591Y-136492649D01*
X132392175Y-136512450D01*
X132419268Y-136545462D01*
X132444062Y-136580218D01*
X132460411Y-136595595D01*
X132474652Y-136612948D01*
X132507666Y-136640042D01*
X132538763Y-136669291D01*
X132557794Y-136681182D01*
X132575150Y-136695425D01*
X132612810Y-136715555D01*
X132649020Y-136738178D01*
X132670012Y-136746129D01*
X132689807Y-136756710D01*
X132730674Y-136769107D01*
X132770599Y-136784230D01*
X132792731Y-136787932D01*
X132814217Y-136794450D01*
X132856717Y-136798636D01*
X132898827Y-136805680D01*
X132953679Y-136804000D01*
X162984781Y-136804000D01*
X163017200Y-136807193D01*
X163049619Y-136804000D01*
X163146583Y-136794450D01*
X163270993Y-136756710D01*
X163385650Y-136695425D01*
X163486148Y-136612948D01*
X163568625Y-136512450D01*
X163629910Y-136397793D01*
X163667650Y-136273383D01*
X163680393Y-136144000D01*
X163677200Y-136111581D01*
X163677200Y-112538800D01*
X166357128Y-112538800D01*
X166369388Y-112663282D01*
X166405698Y-112782980D01*
X166464663Y-112893294D01*
X166544015Y-112989985D01*
X166640706Y-113069337D01*
X166751020Y-113128302D01*
X166870718Y-113164612D01*
X166995200Y-113176872D01*
X167309450Y-113173800D01*
X167468200Y-113015050D01*
X167468200Y-111565800D01*
X166518950Y-111565800D01*
X166360200Y-111724550D01*
X166357128Y-112538800D01*
X163677200Y-112538800D01*
X163677200Y-110420819D01*
X163680393Y-110388400D01*
X163675508Y-110338800D01*
X166357128Y-110338800D01*
X166360200Y-111153050D01*
X166518950Y-111311800D01*
X167468200Y-111311800D01*
X167468200Y-109862550D01*
X167309450Y-109703800D01*
X166995200Y-109700728D01*
X166870718Y-109712988D01*
X166751020Y-109749298D01*
X166640706Y-109808263D01*
X166544015Y-109887615D01*
X166464663Y-109984306D01*
X166405698Y-110094620D01*
X166369388Y-110214318D01*
X166357128Y-110338800D01*
X163675508Y-110338800D01*
X163667650Y-110259017D01*
X163629910Y-110134607D01*
X163568625Y-110019950D01*
X163486148Y-109919452D01*
X163385650Y-109836975D01*
X163270993Y-109775690D01*
X163146583Y-109737950D01*
X163049619Y-109728400D01*
X163017200Y-109725207D01*
X162984781Y-109728400D01*
X139958016Y-109728400D01*
X139947973Y-109726720D01*
X139893121Y-109728400D01*
X139870781Y-109728400D01*
X139860698Y-109729393D01*
X139818026Y-109730700D01*
X139796161Y-109735749D01*
X139773817Y-109737950D01*
X139732955Y-109750346D01*
X139691352Y-109759953D01*
X139670884Y-109769175D01*
X139649407Y-109775690D01*
X139611749Y-109795818D01*
X139572818Y-109813359D01*
X139554547Y-109826393D01*
X139534750Y-109836975D01*
X139501744Y-109864062D01*
X139466981Y-109888862D01*
X139451599Y-109905215D01*
X139434252Y-109919452D01*
X139407169Y-109952452D01*
X139377908Y-109983562D01*
X139366012Y-110002602D01*
X139351775Y-110019950D01*
X139331652Y-110057597D01*
X139309021Y-110093820D01*
X139301067Y-110114818D01*
X139290490Y-110134607D01*
X139278097Y-110175462D01*
X139274508Y-110184936D01*
X139268680Y-110206503D01*
X139252750Y-110259017D01*
X139251752Y-110269150D01*
X132309087Y-135962082D01*
X132293150Y-136014617D01*
X132288964Y-136057115D01*
X132281920Y-136099227D01*
X132282607Y-136121662D01*
X132280407Y-136144000D01*
X121226119Y-136144000D01*
X126423889Y-116628737D01*
X126757411Y-116628737D01*
X126815098Y-116882194D01*
X127967597Y-117191005D01*
X128276579Y-116037870D01*
X128085753Y-115861814D01*
X127795551Y-115884812D01*
X127515411Y-115963983D01*
X127256100Y-116096286D01*
X127027583Y-116276635D01*
X126838641Y-116498101D01*
X126757411Y-116628737D01*
X126423889Y-116628737D01*
X130656822Y-100736000D01*
X175208792Y-100736000D01*
X175189346Y-116623928D01*
G37*
%TD.AperFunction*%
%TD*%
M02*
