M48
; DRILL file {KiCad (5.1.10)-1} date 08/15/21 21:51:14
; FORMAT={-:-/ absolute / inch / decimal}
; #@! TF.CreationDate,2021-08-15T21:51:14-05:00
; #@! TF.GenerationSoftware,Kicad,Pcbnew,(5.1.10)-1
; #@! TF.FileFunction,Plated,1,2,PTH
FMAT,2
INCH
T1C0.0157
T2C0.0394
T3C0.0400
T4C0.1772
%
G90
G05
T1
X2.752Y-3.576
X2.902Y-3.576
X3.4948Y-2.4208
X8.868Y-4.132
X8.99Y-4.132
T2
X5.4744Y-4.2917
X5.4744Y-4.3917
T3
X2.686Y-4.506
X2.686Y-4.606
X2.742Y-3.658
X2.742Y-3.758
X2.786Y-4.506
X2.786Y-4.606
X2.842Y-3.658
X2.842Y-3.758
X2.886Y-4.506
X2.886Y-4.606
X2.942Y-3.658
X2.942Y-3.758
X3.6134Y-2.3208
X3.6134Y-2.4208
X3.7134Y-2.3208
X3.7134Y-2.4208
X3.8134Y-2.3208
X3.8134Y-2.4208
X4.1494Y-5.3868
X4.1494Y-5.4868
X4.2494Y-5.3868
X4.2494Y-5.4868
X4.3494Y-5.3868
X4.3494Y-5.4868
X4.692Y-3.584
X4.692Y-3.684
X4.692Y-3.784
X4.792Y-3.584
X4.792Y-3.684
X4.792Y-3.784
X5.866Y-4.32
X5.866Y-4.42
X5.966Y-4.32
X5.966Y-4.42
X6.066Y-4.32
X6.066Y-4.42
X6.0914Y-2.1048
X6.0914Y-2.2048
X6.19Y-5.392
X6.19Y-5.492
X6.1914Y-2.1048
X6.1914Y-2.2048
X6.29Y-5.392
X6.29Y-5.492
X6.2914Y-2.1048
X6.2914Y-2.2048
X6.39Y-5.392
X6.39Y-5.492
X7.026Y-4.29
X7.026Y-4.39
X7.126Y-4.29
X7.126Y-4.39
X7.226Y-4.29
X7.226Y-4.39
X8.4554Y-2.0528
X8.4554Y-2.1528
X8.5554Y-2.0528
X8.5554Y-2.1528
X8.6554Y-2.0528
X8.6554Y-2.1528
X8.7814Y-4.2768
X8.7814Y-4.3768
X8.8814Y-4.2768
X8.8814Y-4.3768
X8.958Y-3.196
X8.958Y-3.296
X8.9814Y-4.2768
X8.9814Y-4.3768
X9.058Y-3.196
X9.058Y-3.296
X9.158Y-3.196
X9.158Y-3.296
T4
X2.716Y-3.29
T0
M30
