G04 #@! TF.GenerationSoftware,KiCad,Pcbnew,(5.1.10)-1*
G04 #@! TF.CreationDate,2021-09-01T23:54:38-05:00*
G04 #@! TF.ProjectId,Bsides-KC-2021-WireX-Sponsor-SAO-SVG2Shenzen v1_00 (Paths),42736964-6573-42d4-9b43-2d323032312d,rev?*
G04 #@! TF.SameCoordinates,Original*
G04 #@! TF.FileFunction,Copper,L1,Top*
G04 #@! TF.FilePolarity,Positive*
%FSLAX46Y46*%
G04 Gerber Fmt 4.6, Leading zero omitted, Abs format (unit mm)*
G04 Created by KiCad (PCBNEW (5.1.10)-1) date 2021-09-01 23:54:38*
%MOMM*%
%LPD*%
G01*
G04 APERTURE LIST*
G04 #@! TA.AperFunction,EtchedComponent*
%ADD10C,0.010000*%
G04 #@! TD*
G04 #@! TA.AperFunction,ComponentPad*
%ADD11C,1.727200*%
G04 #@! TD*
G04 #@! TA.AperFunction,ComponentPad*
%ADD12O,1.727200X1.727200*%
G04 #@! TD*
G04 #@! TA.AperFunction,ComponentPad*
%ADD13R,1.727200X1.727200*%
G04 #@! TD*
G04 APERTURE END LIST*
D10*
G04 #@! TO.C,G\u002A\u002A\u002A*
G36*
X137643854Y-92387696D02*
G01*
X137874318Y-92392266D01*
X138088442Y-92400826D01*
X138276569Y-92413379D01*
X138383584Y-92424064D01*
X139001596Y-92517686D01*
X139603884Y-92650471D01*
X140190144Y-92822321D01*
X140760072Y-93033134D01*
X141313365Y-93282812D01*
X141814190Y-93550645D01*
X142164683Y-93768617D01*
X142515032Y-94018410D01*
X142867856Y-94302158D01*
X143225771Y-94621994D01*
X143591395Y-94980053D01*
X143683432Y-95074875D01*
X143970109Y-95382169D01*
X144224751Y-95675391D01*
X144452264Y-95961146D01*
X144657553Y-96246040D01*
X144845524Y-96536676D01*
X145021083Y-96839661D01*
X145091599Y-96970861D01*
X145166657Y-97116446D01*
X145221460Y-97230287D01*
X145257684Y-97316849D01*
X145277003Y-97380598D01*
X145281093Y-97426000D01*
X145273154Y-97454836D01*
X145236920Y-97493880D01*
X145162808Y-97547653D01*
X145052297Y-97615295D01*
X144906867Y-97695946D01*
X144727998Y-97788746D01*
X144531895Y-97885704D01*
X144456296Y-97921631D01*
X144351044Y-97970571D01*
X144219679Y-98030943D01*
X144065744Y-98101167D01*
X143892780Y-98179660D01*
X143704328Y-98264842D01*
X143503931Y-98355132D01*
X143295130Y-98448948D01*
X143081466Y-98544709D01*
X142866482Y-98640833D01*
X142653718Y-98735741D01*
X142446717Y-98827850D01*
X142249019Y-98915579D01*
X142064168Y-98997347D01*
X141895704Y-99071574D01*
X141747168Y-99136677D01*
X141622104Y-99191075D01*
X141524051Y-99233188D01*
X141456552Y-99261434D01*
X141423149Y-99274231D01*
X141420466Y-99274834D01*
X141404237Y-99257451D01*
X141371609Y-99209709D01*
X141326812Y-99138214D01*
X141274079Y-99049573D01*
X141254428Y-99015542D01*
X141185575Y-98898462D01*
X141108975Y-98773154D01*
X141034121Y-98654896D01*
X140972383Y-98561694D01*
X140723430Y-98235818D01*
X140443129Y-97936780D01*
X140134466Y-97666655D01*
X139800426Y-97427519D01*
X139443996Y-97221447D01*
X139068164Y-97050514D01*
X138675914Y-96916796D01*
X138560192Y-96885447D01*
X138196085Y-96810588D01*
X137817000Y-96766664D01*
X137432510Y-96753794D01*
X137052183Y-96772095D01*
X136685591Y-96821684D01*
X136502226Y-96860193D01*
X136169816Y-96956153D01*
X135835254Y-97084496D01*
X135505999Y-97241015D01*
X135189512Y-97421505D01*
X134893255Y-97621759D01*
X134624688Y-97837571D01*
X134419794Y-98034258D01*
X134230156Y-98253142D01*
X134045452Y-98503299D01*
X133873236Y-98773751D01*
X133727467Y-99040692D01*
X133565998Y-99407803D01*
X133440180Y-99791492D01*
X133350040Y-100187379D01*
X133295600Y-100591086D01*
X133276885Y-100998235D01*
X133293919Y-101404447D01*
X133346727Y-101805344D01*
X133435332Y-102196546D01*
X133559758Y-102573676D01*
X133706127Y-102904917D01*
X133898968Y-103243224D01*
X134128267Y-103564275D01*
X134390793Y-103865546D01*
X134683316Y-104144513D01*
X135002605Y-104398651D01*
X135345431Y-104625437D01*
X135708564Y-104822346D01*
X136088772Y-104986854D01*
X136482827Y-105116436D01*
X136563977Y-105138188D01*
X136926705Y-105215521D01*
X137279420Y-105256617D01*
X137629358Y-105261439D01*
X137983756Y-105229947D01*
X138349850Y-105162102D01*
X138489417Y-105127856D01*
X138793279Y-105040368D01*
X139064528Y-104943647D01*
X139312567Y-104833639D01*
X139546796Y-104706288D01*
X139716769Y-104598496D01*
X139992206Y-104398889D01*
X140260710Y-104176143D01*
X140516465Y-103936329D01*
X140753658Y-103685516D01*
X140966474Y-103429774D01*
X141149100Y-103175172D01*
X141268160Y-102978917D01*
X141334829Y-102865630D01*
X141402428Y-102763305D01*
X141466373Y-102677855D01*
X141522082Y-102615188D01*
X141564973Y-102581215D01*
X141579914Y-102576834D01*
X141604535Y-102584368D01*
X141664777Y-102605997D01*
X141756891Y-102640264D01*
X141877127Y-102685707D01*
X142021733Y-102740869D01*
X142186960Y-102804289D01*
X142369058Y-102874510D01*
X142564275Y-102950071D01*
X142768863Y-103029514D01*
X142979071Y-103111379D01*
X143191148Y-103194207D01*
X143401344Y-103276539D01*
X143605909Y-103356917D01*
X143801093Y-103433880D01*
X143983145Y-103505970D01*
X144148315Y-103571727D01*
X144292853Y-103629692D01*
X144413009Y-103678407D01*
X144447834Y-103692682D01*
X144682455Y-103790205D01*
X144887614Y-103877548D01*
X145061671Y-103953956D01*
X145202987Y-104018675D01*
X145309923Y-104070949D01*
X145380841Y-104110025D01*
X145414100Y-104135147D01*
X145416133Y-104138544D01*
X145419927Y-104160300D01*
X145416009Y-104191561D01*
X145402641Y-104236582D01*
X145378083Y-104299620D01*
X145340596Y-104384931D01*
X145288442Y-104496771D01*
X145219880Y-104639396D01*
X145167751Y-104746417D01*
X144889917Y-105273434D01*
X144586978Y-105767642D01*
X144256672Y-106231874D01*
X143896734Y-106668964D01*
X143504903Y-107081744D01*
X143078915Y-107473049D01*
X142816000Y-107690723D01*
X142335212Y-108047705D01*
X141834232Y-108367571D01*
X141312968Y-108650361D01*
X140771327Y-108896111D01*
X140209217Y-109104861D01*
X139626546Y-109276647D01*
X139023221Y-109411509D01*
X138399149Y-109509483D01*
X138394167Y-109510107D01*
X138286853Y-109520461D01*
X138144778Y-109529612D01*
X137975496Y-109537442D01*
X137786566Y-109543833D01*
X137585544Y-109548667D01*
X137379988Y-109551827D01*
X137177454Y-109553193D01*
X136985498Y-109552648D01*
X136811679Y-109550075D01*
X136663553Y-109545355D01*
X136554194Y-109538831D01*
X136285567Y-109506460D01*
X135988309Y-109452090D01*
X135668528Y-109377923D01*
X135332329Y-109286157D01*
X134985818Y-109178993D01*
X134635100Y-109058631D01*
X134286283Y-108927270D01*
X133945471Y-108787111D01*
X133618770Y-108640353D01*
X133312288Y-108489196D01*
X133032129Y-108335840D01*
X132784399Y-108182485D01*
X132778302Y-108178422D01*
X132456616Y-107950510D01*
X132132449Y-107695980D01*
X131811591Y-107420518D01*
X131499828Y-107129808D01*
X131202949Y-106829535D01*
X130926741Y-106525384D01*
X130676992Y-106223040D01*
X130459491Y-105928187D01*
X130404720Y-105847084D01*
X130195242Y-105509724D01*
X129992733Y-105144148D01*
X129799970Y-104757344D01*
X129619730Y-104356302D01*
X129454788Y-103948012D01*
X129307920Y-103539465D01*
X129181904Y-103137649D01*
X129079514Y-102749556D01*
X129003528Y-102382175D01*
X128985989Y-102275034D01*
X128964916Y-102103951D01*
X128948068Y-101899296D01*
X128935414Y-101668168D01*
X128926925Y-101417667D01*
X128922571Y-101154891D01*
X128922324Y-100886940D01*
X128926153Y-100620914D01*
X128934028Y-100363910D01*
X128945921Y-100123029D01*
X128961803Y-99905370D01*
X128981642Y-99718032D01*
X128997051Y-99613500D01*
X129048735Y-99349454D01*
X129117498Y-99058729D01*
X129200293Y-98751889D01*
X129294074Y-98439498D01*
X129395793Y-98132119D01*
X129502404Y-97840316D01*
X129525792Y-97780325D01*
X129768761Y-97219512D01*
X130044218Y-96685805D01*
X130351877Y-96179521D01*
X130691451Y-95700974D01*
X131062654Y-95250482D01*
X131465201Y-94828358D01*
X131898805Y-94434919D01*
X132363179Y-94070480D01*
X132858038Y-93735357D01*
X133383095Y-93429864D01*
X133552253Y-93341072D01*
X134097150Y-93084067D01*
X134650033Y-92867392D01*
X135214201Y-92690049D01*
X135792954Y-92551041D01*
X136389592Y-92449371D01*
X136584417Y-92424608D01*
X136751732Y-92409268D01*
X136950989Y-92397903D01*
X137172533Y-92390518D01*
X137406707Y-92387115D01*
X137643854Y-92387696D01*
G37*
X137643854Y-92387696D02*
X137874318Y-92392266D01*
X138088442Y-92400826D01*
X138276569Y-92413379D01*
X138383584Y-92424064D01*
X139001596Y-92517686D01*
X139603884Y-92650471D01*
X140190144Y-92822321D01*
X140760072Y-93033134D01*
X141313365Y-93282812D01*
X141814190Y-93550645D01*
X142164683Y-93768617D01*
X142515032Y-94018410D01*
X142867856Y-94302158D01*
X143225771Y-94621994D01*
X143591395Y-94980053D01*
X143683432Y-95074875D01*
X143970109Y-95382169D01*
X144224751Y-95675391D01*
X144452264Y-95961146D01*
X144657553Y-96246040D01*
X144845524Y-96536676D01*
X145021083Y-96839661D01*
X145091599Y-96970861D01*
X145166657Y-97116446D01*
X145221460Y-97230287D01*
X145257684Y-97316849D01*
X145277003Y-97380598D01*
X145281093Y-97426000D01*
X145273154Y-97454836D01*
X145236920Y-97493880D01*
X145162808Y-97547653D01*
X145052297Y-97615295D01*
X144906867Y-97695946D01*
X144727998Y-97788746D01*
X144531895Y-97885704D01*
X144456296Y-97921631D01*
X144351044Y-97970571D01*
X144219679Y-98030943D01*
X144065744Y-98101167D01*
X143892780Y-98179660D01*
X143704328Y-98264842D01*
X143503931Y-98355132D01*
X143295130Y-98448948D01*
X143081466Y-98544709D01*
X142866482Y-98640833D01*
X142653718Y-98735741D01*
X142446717Y-98827850D01*
X142249019Y-98915579D01*
X142064168Y-98997347D01*
X141895704Y-99071574D01*
X141747168Y-99136677D01*
X141622104Y-99191075D01*
X141524051Y-99233188D01*
X141456552Y-99261434D01*
X141423149Y-99274231D01*
X141420466Y-99274834D01*
X141404237Y-99257451D01*
X141371609Y-99209709D01*
X141326812Y-99138214D01*
X141274079Y-99049573D01*
X141254428Y-99015542D01*
X141185575Y-98898462D01*
X141108975Y-98773154D01*
X141034121Y-98654896D01*
X140972383Y-98561694D01*
X140723430Y-98235818D01*
X140443129Y-97936780D01*
X140134466Y-97666655D01*
X139800426Y-97427519D01*
X139443996Y-97221447D01*
X139068164Y-97050514D01*
X138675914Y-96916796D01*
X138560192Y-96885447D01*
X138196085Y-96810588D01*
X137817000Y-96766664D01*
X137432510Y-96753794D01*
X137052183Y-96772095D01*
X136685591Y-96821684D01*
X136502226Y-96860193D01*
X136169816Y-96956153D01*
X135835254Y-97084496D01*
X135505999Y-97241015D01*
X135189512Y-97421505D01*
X134893255Y-97621759D01*
X134624688Y-97837571D01*
X134419794Y-98034258D01*
X134230156Y-98253142D01*
X134045452Y-98503299D01*
X133873236Y-98773751D01*
X133727467Y-99040692D01*
X133565998Y-99407803D01*
X133440180Y-99791492D01*
X133350040Y-100187379D01*
X133295600Y-100591086D01*
X133276885Y-100998235D01*
X133293919Y-101404447D01*
X133346727Y-101805344D01*
X133435332Y-102196546D01*
X133559758Y-102573676D01*
X133706127Y-102904917D01*
X133898968Y-103243224D01*
X134128267Y-103564275D01*
X134390793Y-103865546D01*
X134683316Y-104144513D01*
X135002605Y-104398651D01*
X135345431Y-104625437D01*
X135708564Y-104822346D01*
X136088772Y-104986854D01*
X136482827Y-105116436D01*
X136563977Y-105138188D01*
X136926705Y-105215521D01*
X137279420Y-105256617D01*
X137629358Y-105261439D01*
X137983756Y-105229947D01*
X138349850Y-105162102D01*
X138489417Y-105127856D01*
X138793279Y-105040368D01*
X139064528Y-104943647D01*
X139312567Y-104833639D01*
X139546796Y-104706288D01*
X139716769Y-104598496D01*
X139992206Y-104398889D01*
X140260710Y-104176143D01*
X140516465Y-103936329D01*
X140753658Y-103685516D01*
X140966474Y-103429774D01*
X141149100Y-103175172D01*
X141268160Y-102978917D01*
X141334829Y-102865630D01*
X141402428Y-102763305D01*
X141466373Y-102677855D01*
X141522082Y-102615188D01*
X141564973Y-102581215D01*
X141579914Y-102576834D01*
X141604535Y-102584368D01*
X141664777Y-102605997D01*
X141756891Y-102640264D01*
X141877127Y-102685707D01*
X142021733Y-102740869D01*
X142186960Y-102804289D01*
X142369058Y-102874510D01*
X142564275Y-102950071D01*
X142768863Y-103029514D01*
X142979071Y-103111379D01*
X143191148Y-103194207D01*
X143401344Y-103276539D01*
X143605909Y-103356917D01*
X143801093Y-103433880D01*
X143983145Y-103505970D01*
X144148315Y-103571727D01*
X144292853Y-103629692D01*
X144413009Y-103678407D01*
X144447834Y-103692682D01*
X144682455Y-103790205D01*
X144887614Y-103877548D01*
X145061671Y-103953956D01*
X145202987Y-104018675D01*
X145309923Y-104070949D01*
X145380841Y-104110025D01*
X145414100Y-104135147D01*
X145416133Y-104138544D01*
X145419927Y-104160300D01*
X145416009Y-104191561D01*
X145402641Y-104236582D01*
X145378083Y-104299620D01*
X145340596Y-104384931D01*
X145288442Y-104496771D01*
X145219880Y-104639396D01*
X145167751Y-104746417D01*
X144889917Y-105273434D01*
X144586978Y-105767642D01*
X144256672Y-106231874D01*
X143896734Y-106668964D01*
X143504903Y-107081744D01*
X143078915Y-107473049D01*
X142816000Y-107690723D01*
X142335212Y-108047705D01*
X141834232Y-108367571D01*
X141312968Y-108650361D01*
X140771327Y-108896111D01*
X140209217Y-109104861D01*
X139626546Y-109276647D01*
X139023221Y-109411509D01*
X138399149Y-109509483D01*
X138394167Y-109510107D01*
X138286853Y-109520461D01*
X138144778Y-109529612D01*
X137975496Y-109537442D01*
X137786566Y-109543833D01*
X137585544Y-109548667D01*
X137379988Y-109551827D01*
X137177454Y-109553193D01*
X136985498Y-109552648D01*
X136811679Y-109550075D01*
X136663553Y-109545355D01*
X136554194Y-109538831D01*
X136285567Y-109506460D01*
X135988309Y-109452090D01*
X135668528Y-109377923D01*
X135332329Y-109286157D01*
X134985818Y-109178993D01*
X134635100Y-109058631D01*
X134286283Y-108927270D01*
X133945471Y-108787111D01*
X133618770Y-108640353D01*
X133312288Y-108489196D01*
X133032129Y-108335840D01*
X132784399Y-108182485D01*
X132778302Y-108178422D01*
X132456616Y-107950510D01*
X132132449Y-107695980D01*
X131811591Y-107420518D01*
X131499828Y-107129808D01*
X131202949Y-106829535D01*
X130926741Y-106525384D01*
X130676992Y-106223040D01*
X130459491Y-105928187D01*
X130404720Y-105847084D01*
X130195242Y-105509724D01*
X129992733Y-105144148D01*
X129799970Y-104757344D01*
X129619730Y-104356302D01*
X129454788Y-103948012D01*
X129307920Y-103539465D01*
X129181904Y-103137649D01*
X129079514Y-102749556D01*
X129003528Y-102382175D01*
X128985989Y-102275034D01*
X128964916Y-102103951D01*
X128948068Y-101899296D01*
X128935414Y-101668168D01*
X128926925Y-101417667D01*
X128922571Y-101154891D01*
X128922324Y-100886940D01*
X128926153Y-100620914D01*
X128934028Y-100363910D01*
X128945921Y-100123029D01*
X128961803Y-99905370D01*
X128981642Y-99718032D01*
X128997051Y-99613500D01*
X129048735Y-99349454D01*
X129117498Y-99058729D01*
X129200293Y-98751889D01*
X129294074Y-98439498D01*
X129395793Y-98132119D01*
X129502404Y-97840316D01*
X129525792Y-97780325D01*
X129768761Y-97219512D01*
X130044218Y-96685805D01*
X130351877Y-96179521D01*
X130691451Y-95700974D01*
X131062654Y-95250482D01*
X131465201Y-94828358D01*
X131898805Y-94434919D01*
X132363179Y-94070480D01*
X132858038Y-93735357D01*
X133383095Y-93429864D01*
X133552253Y-93341072D01*
X134097150Y-93084067D01*
X134650033Y-92867392D01*
X135214201Y-92690049D01*
X135792954Y-92551041D01*
X136389592Y-92449371D01*
X136584417Y-92424608D01*
X136751732Y-92409268D01*
X136950989Y-92397903D01*
X137172533Y-92390518D01*
X137406707Y-92387115D01*
X137643854Y-92387696D01*
G04 #@! TD*
D11*
G04 #@! TO.P,X1,5*
G04 #@! TO.N,Net-(X1-Pad5)*
X154830200Y-105948400D03*
G04 #@! TO.P,X1,6*
G04 #@! TO.N,Net-(X1-Pad6)*
X154830200Y-108488400D03*
D12*
G04 #@! TO.P,X1,3*
G04 #@! TO.N,Net-(X1-Pad3)*
X152290200Y-105948400D03*
G04 #@! TO.P,X1,4*
G04 #@! TO.N,Net-(X1-Pad4)*
X152290200Y-108488400D03*
G04 #@! TO.P,X1,1*
G04 #@! TO.N,Net-(X1-Pad1)*
X149750200Y-105948400D03*
D13*
G04 #@! TO.P,X1,2*
G04 #@! TO.N,Net-(X1-Pad2)*
X149750200Y-108488400D03*
G04 #@! TD*
M02*
