G04 #@! TF.GenerationSoftware,KiCad,Pcbnew,(5.1.10)-1*
G04 #@! TF.CreationDate,2021-09-08T08:42:21-05:00*
G04 #@! TF.ProjectId,Bsides-KC-2021-SAO-Participant,42736964-6573-42d4-9b43-2d323032312d,rev?*
G04 #@! TF.SameCoordinates,Original*
G04 #@! TF.FileFunction,Legend,Top*
G04 #@! TF.FilePolarity,Positive*
%FSLAX46Y46*%
G04 Gerber Fmt 4.6, Leading zero omitted, Abs format (unit mm)*
G04 Created by KiCad (PCBNEW (5.1.10)-1) date 2021-09-08 08:42:21*
%MOMM*%
%LPD*%
G01*
G04 APERTURE LIST*
%ADD10C,0.010000*%
G04 APERTURE END LIST*
D10*
G04 #@! TO.C,G\u002A\u002A\u002A*
G36*
X108501277Y-63074515D02*
G01*
X108771724Y-63088780D01*
X109031850Y-63113764D01*
X109271033Y-63148694D01*
X109466080Y-63189609D01*
X109634508Y-63242396D01*
X109789775Y-63311346D01*
X109927021Y-63392684D01*
X110041385Y-63482640D01*
X110128005Y-63577439D01*
X110182023Y-63673309D01*
X110198747Y-63758279D01*
X110178140Y-63857796D01*
X110117287Y-63949222D01*
X110017636Y-64031782D01*
X109880639Y-64104699D01*
X109707745Y-64167197D01*
X109500404Y-64218499D01*
X109267414Y-64256875D01*
X109160689Y-64272251D01*
X109068420Y-64288170D01*
X108999116Y-64302970D01*
X108961287Y-64314990D01*
X108957806Y-64317306D01*
X108946736Y-64343684D01*
X108927879Y-64406379D01*
X108902440Y-64500342D01*
X108871622Y-64620524D01*
X108836629Y-64761875D01*
X108798666Y-64919345D01*
X108758938Y-65087885D01*
X108718647Y-65262445D01*
X108678998Y-65437975D01*
X108641196Y-65609426D01*
X108606444Y-65771747D01*
X108577492Y-65912201D01*
X108553407Y-66038471D01*
X108533338Y-66156510D01*
X108518594Y-66257545D01*
X108510480Y-66332804D01*
X108509592Y-66367917D01*
X108515997Y-66454512D01*
X108664164Y-66492572D01*
X108734516Y-66509234D01*
X108836202Y-66531448D01*
X108958928Y-66557057D01*
X109092404Y-66583904D01*
X109195997Y-66604056D01*
X109619275Y-66689991D01*
X110008358Y-66779996D01*
X110371364Y-66876750D01*
X110716407Y-66982934D01*
X111051606Y-67101227D01*
X111385075Y-67234310D01*
X111724931Y-67384862D01*
X112079292Y-67555564D01*
X112082580Y-67557204D01*
X112211624Y-67620850D01*
X112338123Y-67681907D01*
X112453431Y-67736298D01*
X112548900Y-67779950D01*
X112615882Y-67808786D01*
X112619291Y-67810149D01*
X112764418Y-67867714D01*
X112817069Y-67818516D01*
X112866373Y-67762621D01*
X112930032Y-67675466D01*
X113003731Y-67563784D01*
X113083154Y-67434309D01*
X113163986Y-67293773D01*
X113222783Y-67185460D01*
X113352354Y-66940269D01*
X113201934Y-66740960D01*
X113086263Y-66575906D01*
X112992200Y-66417383D01*
X112920733Y-66268915D01*
X112872848Y-66134025D01*
X112849532Y-66016235D01*
X112851772Y-65919069D01*
X112880554Y-65846050D01*
X112936866Y-65800701D01*
X112938377Y-65800060D01*
X113024050Y-65775930D01*
X113136543Y-65760401D01*
X113261048Y-65754372D01*
X113382758Y-65758744D01*
X113458414Y-65768482D01*
X113662037Y-65818068D01*
X113873323Y-65892812D01*
X114088374Y-65989546D01*
X114303293Y-66105101D01*
X114514181Y-66236310D01*
X114717140Y-66380004D01*
X114908271Y-66533014D01*
X115083678Y-66692174D01*
X115239462Y-66854314D01*
X115371725Y-67016266D01*
X115476568Y-67174862D01*
X115550095Y-67326935D01*
X115588406Y-67469315D01*
X115591993Y-67502588D01*
X115587160Y-67633426D01*
X115551662Y-67735094D01*
X115485553Y-67807532D01*
X115388887Y-67850678D01*
X115266480Y-67864488D01*
X115175822Y-67856644D01*
X115051643Y-67833959D01*
X114899513Y-67797835D01*
X114725004Y-67749674D01*
X114533687Y-67690879D01*
X114397782Y-67645862D01*
X114183567Y-67572882D01*
X113448341Y-68309010D01*
X113744419Y-68607436D01*
X113842463Y-68705625D01*
X113958227Y-68820504D01*
X114088177Y-68948647D01*
X114228776Y-69086631D01*
X114376490Y-69231032D01*
X114527785Y-69378426D01*
X114679125Y-69525388D01*
X114826975Y-69668494D01*
X114967801Y-69804321D01*
X115098067Y-69929444D01*
X115214239Y-70040440D01*
X115312782Y-70133883D01*
X115390161Y-70206351D01*
X115442840Y-70254419D01*
X115459942Y-70269164D01*
X115515212Y-70312519D01*
X115551333Y-70332088D01*
X115581017Y-70331958D01*
X115612880Y-70318301D01*
X115644872Y-70294492D01*
X115701867Y-70244199D01*
X115779696Y-70171614D01*
X115874189Y-70080928D01*
X115981174Y-69976333D01*
X116096481Y-69862020D01*
X116215940Y-69742180D01*
X116335380Y-69621006D01*
X116450631Y-69502688D01*
X116557522Y-69391417D01*
X116651883Y-69291386D01*
X116729544Y-69206786D01*
X116786333Y-69141807D01*
X116799583Y-69125635D01*
X116860186Y-69048316D01*
X116899549Y-68988381D01*
X116918163Y-68935881D01*
X116916514Y-68880865D01*
X116895092Y-68813384D01*
X116854386Y-68723485D01*
X116822553Y-68658012D01*
X116753068Y-68502672D01*
X116707760Y-68366731D01*
X116683242Y-68237461D01*
X116676116Y-68107984D01*
X116684753Y-67959183D01*
X116712325Y-67847478D01*
X116760872Y-67771152D01*
X116832432Y-67728483D01*
X116929044Y-67717755D01*
X117052749Y-67737247D01*
X117100530Y-67750214D01*
X117251579Y-67806887D01*
X117421155Y-67891809D01*
X117601391Y-68000130D01*
X117784423Y-68126998D01*
X117962385Y-68267563D01*
X118020050Y-68317356D01*
X118172849Y-68463744D01*
X118323110Y-68628884D01*
X118467602Y-68807516D01*
X118603097Y-68994383D01*
X118726366Y-69184225D01*
X118834180Y-69371782D01*
X118923309Y-69551796D01*
X118990524Y-69719009D01*
X119032596Y-69868160D01*
X119046334Y-69988755D01*
X119029733Y-70096050D01*
X118982475Y-70178217D01*
X118908058Y-70235142D01*
X118809976Y-70266711D01*
X118691725Y-70272812D01*
X118556802Y-70253330D01*
X118408703Y-70208153D01*
X118250922Y-70137167D01*
X118086957Y-70040258D01*
X118058174Y-70020822D01*
X117992796Y-69980182D01*
X117906504Y-69932241D01*
X117817089Y-69886847D01*
X117810169Y-69883543D01*
X117653673Y-69809223D01*
X117501178Y-69886018D01*
X117422523Y-69927690D01*
X117321083Y-69984389D01*
X117209948Y-70048665D01*
X117102206Y-70113071D01*
X117102173Y-70113091D01*
X117016233Y-70166290D01*
X116911457Y-70232438D01*
X116792604Y-70308407D01*
X116664434Y-70391070D01*
X116531708Y-70477299D01*
X116399185Y-70563966D01*
X116271626Y-70647944D01*
X116153789Y-70726105D01*
X116050435Y-70795321D01*
X115966323Y-70852464D01*
X115906214Y-70894407D01*
X115874868Y-70918022D01*
X115871414Y-70921818D01*
X115881049Y-70942823D01*
X115908048Y-70995584D01*
X115949548Y-71074667D01*
X116002686Y-71174637D01*
X116064600Y-71290060D01*
X116097668Y-71351341D01*
X116230115Y-71602208D01*
X116359395Y-71858358D01*
X116483022Y-72114214D01*
X116598511Y-72364201D01*
X116703376Y-72602744D01*
X116795132Y-72824267D01*
X116871293Y-73023195D01*
X116929374Y-73193952D01*
X116949509Y-73262131D01*
X116981853Y-73401413D01*
X116992068Y-73508651D01*
X116980159Y-73587887D01*
X116949907Y-73639270D01*
X116912433Y-73673247D01*
X116844533Y-73728370D01*
X116750474Y-73801527D01*
X116634525Y-73889608D01*
X116500956Y-73989502D01*
X116354033Y-74098097D01*
X116198025Y-74212283D01*
X116037201Y-74328950D01*
X115875830Y-74444985D01*
X115718178Y-74557279D01*
X115568516Y-74662719D01*
X115431110Y-74758196D01*
X115310230Y-74840598D01*
X115215802Y-74903150D01*
X115081642Y-74988056D01*
X114949633Y-75066611D01*
X114816723Y-75139832D01*
X114679859Y-75208731D01*
X114535988Y-75274323D01*
X114382058Y-75337623D01*
X114215015Y-75399646D01*
X114031807Y-75461405D01*
X113829381Y-75523916D01*
X113604684Y-75588192D01*
X113354664Y-75655249D01*
X113076268Y-75726100D01*
X112766443Y-75801760D01*
X112422137Y-75883244D01*
X112040295Y-75971565D01*
X111913247Y-76000624D01*
X111507384Y-76092095D01*
X111138283Y-76172768D01*
X110801977Y-76243392D01*
X110494498Y-76304715D01*
X110211882Y-76357484D01*
X109950159Y-76402447D01*
X109705364Y-76440353D01*
X109473530Y-76471949D01*
X109309747Y-76491511D01*
X109201250Y-76500943D01*
X109056251Y-76509372D01*
X108880569Y-76516729D01*
X108680025Y-76522943D01*
X108460438Y-76527943D01*
X108227628Y-76531661D01*
X107987417Y-76534024D01*
X107745624Y-76534965D01*
X107508069Y-76534411D01*
X107280572Y-76532294D01*
X107068954Y-76528543D01*
X106879035Y-76523088D01*
X106833247Y-76521354D01*
X106660530Y-76513407D01*
X106501249Y-76503554D01*
X106347582Y-76490883D01*
X106191705Y-76474481D01*
X106025798Y-76453435D01*
X105842037Y-76426834D01*
X105632601Y-76393765D01*
X105389667Y-76353316D01*
X105383330Y-76352242D01*
X105040180Y-76291978D01*
X104688529Y-76226288D01*
X104331778Y-76156013D01*
X103973326Y-76081995D01*
X103616575Y-76005072D01*
X103264924Y-75926087D01*
X102921774Y-75845879D01*
X102590525Y-75765289D01*
X102274578Y-75685158D01*
X101977332Y-75606326D01*
X101702189Y-75529634D01*
X101452549Y-75455923D01*
X101231811Y-75386032D01*
X101043377Y-75320802D01*
X100890647Y-75261074D01*
X100798648Y-75218927D01*
X100677628Y-75154289D01*
X100524035Y-75066013D01*
X100339634Y-74955217D01*
X100126194Y-74823019D01*
X99885480Y-74670537D01*
X99619258Y-74498890D01*
X99329297Y-74309195D01*
X99017362Y-74102570D01*
X98715830Y-73900729D01*
X98579840Y-73809180D01*
X98455034Y-73724976D01*
X98345785Y-73651081D01*
X98256465Y-73590461D01*
X98191448Y-73546080D01*
X98155107Y-73520903D01*
X98149132Y-73516509D01*
X98151125Y-73493302D01*
X98165979Y-73436430D01*
X98191822Y-73351916D01*
X98226784Y-73245781D01*
X98268994Y-73124049D01*
X98284512Y-73080602D01*
X98336674Y-72934088D01*
X98337246Y-72932452D01*
X101311164Y-72932452D01*
X101311890Y-72985598D01*
X101315755Y-73026979D01*
X101332786Y-73125437D01*
X101365342Y-73254935D01*
X101410866Y-73408238D01*
X101466802Y-73578107D01*
X101530592Y-73757308D01*
X101599680Y-73938602D01*
X101671508Y-74114753D01*
X101743521Y-74278524D01*
X101798906Y-74394484D01*
X101948183Y-74653850D01*
X102122646Y-74886738D01*
X102319058Y-75090411D01*
X102534185Y-75262132D01*
X102764791Y-75399164D01*
X103007642Y-75498770D01*
X103150247Y-75537736D01*
X103281587Y-75556798D01*
X103437268Y-75563253D01*
X103601823Y-75557746D01*
X103759787Y-75540924D01*
X103895695Y-75513431D01*
X103922830Y-75505470D01*
X104085720Y-75446411D01*
X104228999Y-75376027D01*
X104370960Y-75284756D01*
X104434192Y-75238196D01*
X104559834Y-75132115D01*
X104658598Y-75021603D01*
X104736941Y-74896727D01*
X104801320Y-74747556D01*
X104847659Y-74602114D01*
X104874922Y-74481158D01*
X104879085Y-74449643D01*
X110417171Y-74449643D01*
X110431092Y-74590178D01*
X110459505Y-74737521D01*
X110501261Y-74883927D01*
X110555210Y-75021653D01*
X110620202Y-75142955D01*
X110622363Y-75146341D01*
X110739068Y-75294521D01*
X110888878Y-75431999D01*
X111062780Y-75552368D01*
X111251765Y-75649222D01*
X111409329Y-75705924D01*
X111628773Y-75752023D01*
X111865006Y-75770719D01*
X112102233Y-75761640D01*
X112312682Y-75727290D01*
X112565933Y-75648461D01*
X112798727Y-75535563D01*
X113012235Y-75387547D01*
X113207628Y-75203362D01*
X113386078Y-74981959D01*
X113548755Y-74722287D01*
X113647797Y-74529959D01*
X113754684Y-74283984D01*
X113844819Y-74026564D01*
X113919952Y-73750913D01*
X113981833Y-73450245D01*
X114032214Y-73117777D01*
X114049885Y-72971290D01*
X114063835Y-72845178D01*
X114075931Y-72731224D01*
X114085404Y-72637067D01*
X114091482Y-72570349D01*
X114093414Y-72539874D01*
X114092196Y-72522854D01*
X114084442Y-72510986D01*
X114064001Y-72503650D01*
X114024719Y-72500226D01*
X113960447Y-72500092D01*
X113865031Y-72502628D01*
X113760039Y-72506236D01*
X113542755Y-72518610D01*
X113353774Y-72539082D01*
X113222837Y-72561858D01*
X112879633Y-72652523D01*
X112526748Y-72777764D01*
X112172937Y-72934049D01*
X111826954Y-73117846D01*
X111787340Y-73141014D01*
X111700679Y-73192655D01*
X111646310Y-73227199D01*
X111619919Y-73248820D01*
X111617195Y-73261688D01*
X111633826Y-73269975D01*
X111649757Y-73274115D01*
X111832195Y-73320011D01*
X111979605Y-73362744D01*
X112098838Y-73405339D01*
X112196745Y-73450823D01*
X112280175Y-73502223D01*
X112355979Y-73562563D01*
X112403408Y-73607027D01*
X112531566Y-73761243D01*
X112626460Y-73934711D01*
X112688019Y-74121497D01*
X112716171Y-74315670D01*
X112710843Y-74511298D01*
X112671965Y-74702447D01*
X112599465Y-74883186D01*
X112493270Y-75047582D01*
X112421799Y-75127563D01*
X112266696Y-75256267D01*
X112095286Y-75347335D01*
X111904752Y-75401881D01*
X111692279Y-75421019D01*
X111680414Y-75421067D01*
X111463098Y-75402183D01*
X111264564Y-75345817D01*
X111085854Y-75252396D01*
X110928012Y-75122347D01*
X110912472Y-75106353D01*
X110781392Y-74947407D01*
X110685595Y-74780081D01*
X110621399Y-74595935D01*
X110585123Y-74386527D01*
X110581458Y-74347699D01*
X110568773Y-74232511D01*
X110552819Y-74157260D01*
X110532343Y-74119596D01*
X110506088Y-74117171D01*
X110473866Y-74146324D01*
X110437408Y-74219972D01*
X110418893Y-74323660D01*
X110417171Y-74449643D01*
X104879085Y-74449643D01*
X104891920Y-74352479D01*
X104898580Y-74225638D01*
X104894823Y-74110193D01*
X104894430Y-74107584D01*
X110756241Y-74107584D01*
X110757489Y-74156068D01*
X110795137Y-74252688D01*
X110865831Y-74350180D01*
X110961824Y-74438112D01*
X110973254Y-74446509D01*
X111054765Y-74499363D01*
X111128959Y-74530997D01*
X111212736Y-74546647D01*
X111311908Y-74551414D01*
X111400088Y-74547561D01*
X111476508Y-74529551D01*
X111563310Y-74492006D01*
X111569854Y-74488754D01*
X111691124Y-74407805D01*
X111780263Y-74301013D01*
X111839459Y-74165484D01*
X111852566Y-74114988D01*
X111866468Y-73962660D01*
X111840185Y-73818709D01*
X111775721Y-73688017D01*
X111675081Y-73575468D01*
X111611341Y-73527204D01*
X111518233Y-73471125D01*
X111444851Y-73443536D01*
X111380658Y-73443330D01*
X111315117Y-73469395D01*
X111278247Y-73492133D01*
X111143638Y-73591371D01*
X111022628Y-73698885D01*
X110919301Y-73809468D01*
X110837738Y-73917916D01*
X110782024Y-74019023D01*
X110756241Y-74107584D01*
X104894430Y-74107584D01*
X104880574Y-74015702D01*
X104855757Y-73951725D01*
X104852876Y-73947620D01*
X104817374Y-73905873D01*
X104789462Y-73882678D01*
X104787731Y-73881978D01*
X104761109Y-73893459D01*
X104737388Y-73945042D01*
X104717152Y-74034560D01*
X104700986Y-74159845D01*
X104695387Y-74224746D01*
X104678533Y-74378983D01*
X104653894Y-74507748D01*
X104632339Y-74579158D01*
X104545967Y-74754189D01*
X104431113Y-74902523D01*
X104292898Y-75022897D01*
X104136444Y-75114046D01*
X103966873Y-75174707D01*
X103789307Y-75203616D01*
X103608867Y-75199509D01*
X103430675Y-75161121D01*
X103259853Y-75087189D01*
X103101523Y-74976450D01*
X103084227Y-74961188D01*
X102968373Y-74833077D01*
X102871888Y-74680012D01*
X102799964Y-74513339D01*
X102757796Y-74344407D01*
X102748771Y-74228212D01*
X102769719Y-74060044D01*
X102828882Y-73887901D01*
X102831131Y-73883853D01*
X103510545Y-73883853D01*
X103522567Y-74025611D01*
X103559217Y-74136760D01*
X103622826Y-74219169D01*
X103715727Y-74274705D01*
X103840250Y-74305237D01*
X103998729Y-74312633D01*
X104043907Y-74311086D01*
X104162473Y-74299024D01*
X104256507Y-74276441D01*
X104286074Y-74264237D01*
X104355026Y-74213498D01*
X104423237Y-74136319D01*
X104479943Y-74047389D01*
X104514375Y-73961396D01*
X104517056Y-73949117D01*
X104513489Y-73865552D01*
X104471811Y-73776777D01*
X104391273Y-73681977D01*
X104271124Y-73580340D01*
X104110617Y-73471051D01*
X104034465Y-73424726D01*
X103937132Y-73372881D01*
X103861435Y-73349701D01*
X103797286Y-73355818D01*
X103734601Y-73391864D01*
X103674177Y-73447275D01*
X103591346Y-73548881D01*
X103539497Y-73658385D01*
X103514448Y-73786953D01*
X103510545Y-73883853D01*
X102831131Y-73883853D01*
X102923354Y-73717866D01*
X103050229Y-73556026D01*
X103089452Y-73514739D01*
X103167514Y-73442172D01*
X103238789Y-73393415D01*
X103320417Y-73357357D01*
X103345650Y-73348624D01*
X103447774Y-73311714D01*
X103512134Y-73280570D01*
X103542449Y-73252529D01*
X103542441Y-73224924D01*
X103534662Y-73213265D01*
X103482961Y-73172233D01*
X103396100Y-73127445D01*
X103280825Y-73081148D01*
X103143881Y-73035590D01*
X102992014Y-72993019D01*
X102831969Y-72955683D01*
X102673643Y-72926331D01*
X102485497Y-72899459D01*
X102293703Y-72877841D01*
X102104075Y-72861659D01*
X101922425Y-72851095D01*
X101754567Y-72846330D01*
X101606315Y-72847547D01*
X101483483Y-72854928D01*
X101391883Y-72868655D01*
X101344226Y-72884735D01*
X101321146Y-72902814D01*
X101311164Y-72932452D01*
X98337246Y-72932452D01*
X98390003Y-72781618D01*
X98440549Y-72634669D01*
X98484362Y-72504724D01*
X98516999Y-72404817D01*
X98597740Y-72150817D01*
X98520398Y-72081533D01*
X98446927Y-72021188D01*
X98344886Y-71946456D01*
X98212559Y-71856198D01*
X98048228Y-71749273D01*
X97850175Y-71624541D01*
X97616684Y-71480861D01*
X97605003Y-71473741D01*
X97478519Y-71396862D01*
X97364300Y-71327798D01*
X97267198Y-71269455D01*
X97192070Y-71224740D01*
X97143770Y-71196560D01*
X97127219Y-71187734D01*
X97107413Y-71198723D01*
X97059242Y-71228773D01*
X96989590Y-71273502D01*
X96905342Y-71328531D01*
X96890745Y-71338146D01*
X96718596Y-71447533D01*
X96571821Y-71530840D01*
X96444426Y-71590417D01*
X96330419Y-71628613D01*
X96223806Y-71647781D01*
X96118596Y-71650269D01*
X96098054Y-71649035D01*
X96000578Y-71634615D01*
X95935826Y-71603400D01*
X95896994Y-71548257D01*
X95877275Y-71462054D01*
X95872944Y-71413147D01*
X95874566Y-71294689D01*
X95896341Y-71173275D01*
X95940726Y-71040123D01*
X96010178Y-70886452D01*
X96032838Y-70841677D01*
X96145746Y-70642986D01*
X96276826Y-70447221D01*
X96422396Y-70257619D01*
X96578777Y-70077413D01*
X96742287Y-69909839D01*
X96909243Y-69758131D01*
X97075966Y-69625523D01*
X97238773Y-69515251D01*
X97393984Y-69430548D01*
X97537917Y-69374651D01*
X97666891Y-69350793D01*
X97727907Y-69352243D01*
X97822808Y-69381145D01*
X97893138Y-69441574D01*
X97938513Y-69530310D01*
X97958549Y-69644136D01*
X97952862Y-69779835D01*
X97921068Y-69934189D01*
X97862783Y-70103979D01*
X97827364Y-70185529D01*
X97782613Y-70289717D01*
X97759899Y-70368233D01*
X97759426Y-70431672D01*
X97781400Y-70490630D01*
X97826024Y-70555705D01*
X97834731Y-70566708D01*
X97888999Y-70629870D01*
X97963864Y-70710374D01*
X98054881Y-70804025D01*
X98157607Y-70906626D01*
X98267596Y-71013980D01*
X98380406Y-71121891D01*
X98491591Y-71226162D01*
X98596707Y-71322598D01*
X98691312Y-71407001D01*
X98770959Y-71475175D01*
X98831206Y-71522924D01*
X98867608Y-71546052D01*
X98873486Y-71547567D01*
X98904008Y-71529224D01*
X98954221Y-71474901D01*
X99023313Y-71385653D01*
X99110473Y-71262537D01*
X99214889Y-71106610D01*
X99230639Y-71082527D01*
X99323434Y-70943653D01*
X101072601Y-70943653D01*
X101125202Y-70988898D01*
X101165665Y-71012788D01*
X101236739Y-71044216D01*
X101328334Y-71079067D01*
X101428483Y-71112637D01*
X101808014Y-71239358D01*
X102157989Y-71373530D01*
X102491138Y-71520548D01*
X102820187Y-71685808D01*
X102960476Y-71762093D01*
X103099254Y-71840690D01*
X103222335Y-71914342D01*
X103338205Y-71988852D01*
X103455348Y-72070019D01*
X103582251Y-72163645D01*
X103727398Y-72275529D01*
X103831056Y-72357232D01*
X104032228Y-72509726D01*
X104213247Y-72630361D01*
X104379777Y-72720829D01*
X104537479Y-72782821D01*
X104692018Y-72818029D01*
X104849055Y-72828145D01*
X105014254Y-72814861D01*
X105193278Y-72779869D01*
X105222001Y-72772769D01*
X105323355Y-72742146D01*
X105436692Y-72700452D01*
X105533650Y-72658462D01*
X105614600Y-72614003D01*
X105695181Y-72560191D01*
X105771390Y-72501229D01*
X105839226Y-72441319D01*
X105894688Y-72384664D01*
X105933774Y-72335465D01*
X105952482Y-72297926D01*
X105946811Y-72276248D01*
X105912760Y-72274634D01*
X105894841Y-72279153D01*
X105854299Y-72294012D01*
X105787987Y-72321157D01*
X105708662Y-72355327D01*
X105689757Y-72363699D01*
X105526138Y-72429470D01*
X105377295Y-72471837D01*
X105225613Y-72494649D01*
X105058487Y-72501740D01*
X104958468Y-72501518D01*
X104888829Y-72498109D01*
X104837625Y-72489049D01*
X104792907Y-72471871D01*
X104742729Y-72444110D01*
X104723612Y-72432615D01*
X104652919Y-72385713D01*
X104568919Y-72322057D01*
X104469024Y-72239366D01*
X104350647Y-72135359D01*
X104211197Y-72007757D01*
X104160745Y-71960283D01*
X109331105Y-71960283D01*
X109334245Y-71976791D01*
X109361624Y-71996687D01*
X109410658Y-72020616D01*
X109431455Y-72029636D01*
X109501717Y-72057123D01*
X109594033Y-72090043D01*
X109689865Y-72121816D01*
X109701330Y-72125430D01*
X109783855Y-72150294D01*
X109861207Y-72170922D01*
X109945193Y-72190001D01*
X110047616Y-72210216D01*
X110177580Y-72233775D01*
X110262990Y-72240617D01*
X110376564Y-72238230D01*
X110505443Y-72227850D01*
X110636773Y-72210715D01*
X110757696Y-72188060D01*
X110821623Y-72171837D01*
X110929707Y-72136927D01*
X111045561Y-72093883D01*
X111146308Y-72051274D01*
X111157584Y-72045984D01*
X111242442Y-71999972D01*
X111342473Y-71935226D01*
X111459206Y-71850442D01*
X111594166Y-71744318D01*
X111748881Y-71615548D01*
X111924879Y-71462829D01*
X112123685Y-71284856D01*
X112346828Y-71080325D01*
X112595834Y-70847932D01*
X112872230Y-70586373D01*
X112919985Y-70540884D01*
X113166039Y-70307222D01*
X113383233Y-70102946D01*
X113572427Y-69927297D01*
X113734482Y-69779513D01*
X113870256Y-69658836D01*
X113980611Y-69564504D01*
X114066405Y-69495758D01*
X114128500Y-69451836D01*
X114167755Y-69431980D01*
X114176051Y-69430576D01*
X114231562Y-69418043D01*
X114255489Y-69386670D01*
X114249573Y-69343729D01*
X114215551Y-69296490D01*
X114155163Y-69252224D01*
X114130433Y-69239820D01*
X114043483Y-69210357D01*
X113949388Y-69200734D01*
X113838014Y-69210967D01*
X113701863Y-69240392D01*
X113457443Y-69319942D01*
X113205987Y-69434194D01*
X113018622Y-69540082D01*
X112896060Y-69626271D01*
X112752030Y-69747090D01*
X112587678Y-69901383D01*
X112404148Y-70087990D01*
X112202586Y-70305755D01*
X111984135Y-70553520D01*
X111786847Y-70785864D01*
X111613987Y-70991182D01*
X111463843Y-71165882D01*
X111333272Y-71312864D01*
X111219131Y-71435029D01*
X111118279Y-71535276D01*
X111027573Y-71616507D01*
X110943870Y-71681621D01*
X110864028Y-71733518D01*
X110784904Y-71775100D01*
X110703357Y-71809266D01*
X110662013Y-71824026D01*
X110613919Y-71838708D01*
X110560708Y-71850807D01*
X110496403Y-71860944D01*
X110415025Y-71869738D01*
X110310595Y-71877812D01*
X110177135Y-71885784D01*
X110008667Y-71894277D01*
X109965914Y-71896296D01*
X109769383Y-71906008D01*
X109612587Y-71915242D01*
X109492945Y-71924643D01*
X109407872Y-71934853D01*
X109354787Y-71946518D01*
X109331105Y-71960283D01*
X104160745Y-71960283D01*
X104048088Y-71854278D01*
X103858730Y-71672641D01*
X103834605Y-71649313D01*
X103655226Y-71478139D01*
X103498704Y-71334555D01*
X103359804Y-71214482D01*
X103233289Y-71113843D01*
X103113925Y-71028557D01*
X102996476Y-70954547D01*
X102875707Y-70887733D01*
X102822164Y-70860553D01*
X102673449Y-70790379D01*
X102545276Y-70739797D01*
X102423639Y-70705219D01*
X102294532Y-70683058D01*
X102143949Y-70669729D01*
X102060164Y-70665425D01*
X101864608Y-70664836D01*
X101678176Y-70679318D01*
X101506850Y-70707453D01*
X101356610Y-70747826D01*
X101233439Y-70799019D01*
X101143319Y-70859615D01*
X101115451Y-70889179D01*
X101072601Y-70943653D01*
X99323434Y-70943653D01*
X99374541Y-70867168D01*
X99518278Y-70663532D01*
X99667022Y-70465154D01*
X99825945Y-70265568D01*
X100000218Y-70058308D01*
X100195013Y-69836911D01*
X100415501Y-69594909D01*
X100452789Y-69554621D01*
X100549774Y-69449107D01*
X100636352Y-69353146D01*
X100708561Y-69271274D01*
X100762439Y-69208030D01*
X100794023Y-69167950D01*
X100800747Y-69156161D01*
X100787571Y-69128141D01*
X100750644Y-69073035D01*
X100693867Y-68995806D01*
X100621143Y-68901421D01*
X100536373Y-68794846D01*
X100443459Y-68681048D01*
X100346303Y-68564991D01*
X100248806Y-68451641D01*
X100233209Y-68433830D01*
X100171844Y-68365267D01*
X100092496Y-68278615D01*
X99999200Y-68178103D01*
X99895992Y-68067955D01*
X99786909Y-67952397D01*
X99675985Y-67835656D01*
X99567258Y-67721958D01*
X99464764Y-67615528D01*
X99372537Y-67520592D01*
X99294615Y-67441377D01*
X99235034Y-67382108D01*
X99197828Y-67347012D01*
X99187863Y-67339286D01*
X99164290Y-67344977D01*
X99109124Y-67365095D01*
X99029450Y-67396861D01*
X98932354Y-67437494D01*
X98878453Y-67460716D01*
X98703687Y-67533952D01*
X98559321Y-67587761D01*
X98439088Y-67623874D01*
X98336720Y-67644018D01*
X98245950Y-67649924D01*
X98200154Y-67647852D01*
X98124676Y-67637368D01*
X98073809Y-67616394D01*
X98029933Y-67577345D01*
X98025856Y-67572832D01*
X97970146Y-67479809D01*
X97947507Y-67365808D01*
X97956117Y-67233825D01*
X97994156Y-67086853D01*
X98059802Y-66927888D01*
X98151235Y-66759923D01*
X98266631Y-66585953D01*
X98404172Y-66408973D01*
X98562034Y-66231978D01*
X98738398Y-66057961D01*
X98931442Y-65889917D01*
X99139344Y-65730841D01*
X99151324Y-65722305D01*
X99360318Y-65584384D01*
X99559578Y-65473308D01*
X99746710Y-65389405D01*
X99919324Y-65333004D01*
X100075028Y-65304436D01*
X100211430Y-65304029D01*
X100326140Y-65332113D01*
X100416765Y-65389018D01*
X100480913Y-65475072D01*
X100504321Y-65535912D01*
X100514754Y-65611941D01*
X100504286Y-65700316D01*
X100471433Y-65804750D01*
X100414712Y-65928956D01*
X100332640Y-66076647D01*
X100223734Y-66251536D01*
X100210038Y-66272615D01*
X100151015Y-66365888D01*
X100099599Y-66452260D01*
X100060986Y-66522645D01*
X100040375Y-66567956D01*
X100039508Y-66570745D01*
X100031278Y-66630160D01*
X100040290Y-66700120D01*
X100068499Y-66787657D01*
X100117861Y-66899799D01*
X100148193Y-66961552D01*
X100207155Y-67072722D01*
X100285591Y-67211477D01*
X100379305Y-67371115D01*
X100484101Y-67544931D01*
X100595784Y-67726223D01*
X100710159Y-67908286D01*
X100823031Y-68084417D01*
X100930203Y-68247912D01*
X101027480Y-68392068D01*
X101110667Y-68510182D01*
X101152771Y-68566673D01*
X101247615Y-68689929D01*
X101315223Y-68655624D01*
X101352136Y-68634088D01*
X101418090Y-68592765D01*
X101507042Y-68535556D01*
X101612948Y-68466366D01*
X101729766Y-68389097D01*
X101787199Y-68350780D01*
X102102661Y-68143425D01*
X102396465Y-67958650D01*
X102678532Y-67790844D01*
X102958785Y-67634398D01*
X103247147Y-67483699D01*
X103553541Y-67333139D01*
X103753497Y-67238986D01*
X103879951Y-67180211D01*
X103992904Y-67127586D01*
X104086919Y-67083654D01*
X104156560Y-67050957D01*
X104196392Y-67032038D01*
X104203697Y-67028378D01*
X104197472Y-67008587D01*
X104176830Y-66955682D01*
X104144127Y-66875418D01*
X104101716Y-66773550D01*
X104051954Y-66655833D01*
X104034869Y-66615772D01*
X103973129Y-66471328D01*
X103923501Y-66360601D01*
X103880508Y-66278798D01*
X103838673Y-66221131D01*
X103792521Y-66182806D01*
X103736574Y-66159035D01*
X103665357Y-66145026D01*
X103573393Y-66135987D01*
X103478330Y-66128900D01*
X103330155Y-66113882D01*
X103218415Y-66093043D01*
X103137406Y-66064626D01*
X103081425Y-66026876D01*
X103057763Y-65999426D01*
X103027076Y-65922060D01*
X103034259Y-65836143D01*
X103076299Y-65744116D01*
X103150185Y-65648417D01*
X103252903Y-65551484D01*
X103381442Y-65455756D01*
X103532788Y-65363672D01*
X103703929Y-65277670D01*
X103891854Y-65200189D01*
X104093549Y-65133668D01*
X104145080Y-65119222D01*
X104258057Y-65091826D01*
X104362926Y-65074649D01*
X104477095Y-65065519D01*
X104600164Y-65062403D01*
X104746900Y-65064799D01*
X104857891Y-65076500D01*
X104939087Y-65099514D01*
X104996442Y-65135849D01*
X105035910Y-65187516D01*
X105048310Y-65213613D01*
X105065745Y-65284711D01*
X105056649Y-65357272D01*
X105018700Y-65435078D01*
X104949579Y-65521909D01*
X104846965Y-65621547D01*
X104744519Y-65708681D01*
X104651108Y-65789391D01*
X104588144Y-65857264D01*
X104550079Y-65921750D01*
X104531368Y-65992301D01*
X104526464Y-66078365D01*
X104526468Y-66080224D01*
X104530746Y-66170528D01*
X104541882Y-66288151D01*
X104558010Y-66418989D01*
X104577263Y-66548936D01*
X104597775Y-66663888D01*
X104612468Y-66730219D01*
X104629122Y-66788911D01*
X104648466Y-66817306D01*
X104683088Y-66826264D01*
X104724385Y-66826779D01*
X104779305Y-66822556D01*
X104864104Y-66811518D01*
X104967186Y-66795344D01*
X105076414Y-66775817D01*
X105297277Y-66733925D01*
X105482339Y-66699176D01*
X105637341Y-66670581D01*
X105768026Y-66647153D01*
X105880137Y-66627904D01*
X105979417Y-66611848D01*
X106071609Y-66597995D01*
X106162456Y-66585358D01*
X106251164Y-66573782D01*
X106386205Y-66557579D01*
X106547147Y-66539832D01*
X106717681Y-66522253D01*
X106881497Y-66506549D01*
X106954484Y-66500048D01*
X107188990Y-66477567D01*
X107389940Y-66453576D01*
X107555174Y-66428407D01*
X107682534Y-66402391D01*
X107769858Y-66375861D01*
X107774047Y-66374147D01*
X107827785Y-66340684D01*
X107853274Y-66289529D01*
X107856526Y-66273995D01*
X107860720Y-66232279D01*
X107865483Y-66153940D01*
X107870654Y-66044683D01*
X107876070Y-65910212D01*
X107881572Y-65756232D01*
X107886997Y-65588447D01*
X107892185Y-65412562D01*
X107896974Y-65234281D01*
X107901204Y-65059309D01*
X107904713Y-64893350D01*
X107907340Y-64742108D01*
X107908923Y-64611288D01*
X107909302Y-64506595D01*
X107908421Y-64437244D01*
X107902164Y-64216671D01*
X107658747Y-64139329D01*
X107551148Y-64103347D01*
X107447107Y-64065427D01*
X107359733Y-64030518D01*
X107309497Y-64007497D01*
X107161285Y-63917674D01*
X107045784Y-63818844D01*
X106965705Y-63714175D01*
X106923757Y-63606835D01*
X106917914Y-63550074D01*
X106920929Y-63495070D01*
X106934765Y-63452833D01*
X106966609Y-63409749D01*
X107021053Y-63354704D01*
X107115323Y-63279407D01*
X107229886Y-63217623D01*
X107369037Y-63168116D01*
X107537072Y-63129649D01*
X107738289Y-63100988D01*
X107971904Y-63081217D01*
X108231130Y-63071737D01*
X108501277Y-63074515D01*
G37*
X108501277Y-63074515D02*
X108771724Y-63088780D01*
X109031850Y-63113764D01*
X109271033Y-63148694D01*
X109466080Y-63189609D01*
X109634508Y-63242396D01*
X109789775Y-63311346D01*
X109927021Y-63392684D01*
X110041385Y-63482640D01*
X110128005Y-63577439D01*
X110182023Y-63673309D01*
X110198747Y-63758279D01*
X110178140Y-63857796D01*
X110117287Y-63949222D01*
X110017636Y-64031782D01*
X109880639Y-64104699D01*
X109707745Y-64167197D01*
X109500404Y-64218499D01*
X109267414Y-64256875D01*
X109160689Y-64272251D01*
X109068420Y-64288170D01*
X108999116Y-64302970D01*
X108961287Y-64314990D01*
X108957806Y-64317306D01*
X108946736Y-64343684D01*
X108927879Y-64406379D01*
X108902440Y-64500342D01*
X108871622Y-64620524D01*
X108836629Y-64761875D01*
X108798666Y-64919345D01*
X108758938Y-65087885D01*
X108718647Y-65262445D01*
X108678998Y-65437975D01*
X108641196Y-65609426D01*
X108606444Y-65771747D01*
X108577492Y-65912201D01*
X108553407Y-66038471D01*
X108533338Y-66156510D01*
X108518594Y-66257545D01*
X108510480Y-66332804D01*
X108509592Y-66367917D01*
X108515997Y-66454512D01*
X108664164Y-66492572D01*
X108734516Y-66509234D01*
X108836202Y-66531448D01*
X108958928Y-66557057D01*
X109092404Y-66583904D01*
X109195997Y-66604056D01*
X109619275Y-66689991D01*
X110008358Y-66779996D01*
X110371364Y-66876750D01*
X110716407Y-66982934D01*
X111051606Y-67101227D01*
X111385075Y-67234310D01*
X111724931Y-67384862D01*
X112079292Y-67555564D01*
X112082580Y-67557204D01*
X112211624Y-67620850D01*
X112338123Y-67681907D01*
X112453431Y-67736298D01*
X112548900Y-67779950D01*
X112615882Y-67808786D01*
X112619291Y-67810149D01*
X112764418Y-67867714D01*
X112817069Y-67818516D01*
X112866373Y-67762621D01*
X112930032Y-67675466D01*
X113003731Y-67563784D01*
X113083154Y-67434309D01*
X113163986Y-67293773D01*
X113222783Y-67185460D01*
X113352354Y-66940269D01*
X113201934Y-66740960D01*
X113086263Y-66575906D01*
X112992200Y-66417383D01*
X112920733Y-66268915D01*
X112872848Y-66134025D01*
X112849532Y-66016235D01*
X112851772Y-65919069D01*
X112880554Y-65846050D01*
X112936866Y-65800701D01*
X112938377Y-65800060D01*
X113024050Y-65775930D01*
X113136543Y-65760401D01*
X113261048Y-65754372D01*
X113382758Y-65758744D01*
X113458414Y-65768482D01*
X113662037Y-65818068D01*
X113873323Y-65892812D01*
X114088374Y-65989546D01*
X114303293Y-66105101D01*
X114514181Y-66236310D01*
X114717140Y-66380004D01*
X114908271Y-66533014D01*
X115083678Y-66692174D01*
X115239462Y-66854314D01*
X115371725Y-67016266D01*
X115476568Y-67174862D01*
X115550095Y-67326935D01*
X115588406Y-67469315D01*
X115591993Y-67502588D01*
X115587160Y-67633426D01*
X115551662Y-67735094D01*
X115485553Y-67807532D01*
X115388887Y-67850678D01*
X115266480Y-67864488D01*
X115175822Y-67856644D01*
X115051643Y-67833959D01*
X114899513Y-67797835D01*
X114725004Y-67749674D01*
X114533687Y-67690879D01*
X114397782Y-67645862D01*
X114183567Y-67572882D01*
X113448341Y-68309010D01*
X113744419Y-68607436D01*
X113842463Y-68705625D01*
X113958227Y-68820504D01*
X114088177Y-68948647D01*
X114228776Y-69086631D01*
X114376490Y-69231032D01*
X114527785Y-69378426D01*
X114679125Y-69525388D01*
X114826975Y-69668494D01*
X114967801Y-69804321D01*
X115098067Y-69929444D01*
X115214239Y-70040440D01*
X115312782Y-70133883D01*
X115390161Y-70206351D01*
X115442840Y-70254419D01*
X115459942Y-70269164D01*
X115515212Y-70312519D01*
X115551333Y-70332088D01*
X115581017Y-70331958D01*
X115612880Y-70318301D01*
X115644872Y-70294492D01*
X115701867Y-70244199D01*
X115779696Y-70171614D01*
X115874189Y-70080928D01*
X115981174Y-69976333D01*
X116096481Y-69862020D01*
X116215940Y-69742180D01*
X116335380Y-69621006D01*
X116450631Y-69502688D01*
X116557522Y-69391417D01*
X116651883Y-69291386D01*
X116729544Y-69206786D01*
X116786333Y-69141807D01*
X116799583Y-69125635D01*
X116860186Y-69048316D01*
X116899549Y-68988381D01*
X116918163Y-68935881D01*
X116916514Y-68880865D01*
X116895092Y-68813384D01*
X116854386Y-68723485D01*
X116822553Y-68658012D01*
X116753068Y-68502672D01*
X116707760Y-68366731D01*
X116683242Y-68237461D01*
X116676116Y-68107984D01*
X116684753Y-67959183D01*
X116712325Y-67847478D01*
X116760872Y-67771152D01*
X116832432Y-67728483D01*
X116929044Y-67717755D01*
X117052749Y-67737247D01*
X117100530Y-67750214D01*
X117251579Y-67806887D01*
X117421155Y-67891809D01*
X117601391Y-68000130D01*
X117784423Y-68126998D01*
X117962385Y-68267563D01*
X118020050Y-68317356D01*
X118172849Y-68463744D01*
X118323110Y-68628884D01*
X118467602Y-68807516D01*
X118603097Y-68994383D01*
X118726366Y-69184225D01*
X118834180Y-69371782D01*
X118923309Y-69551796D01*
X118990524Y-69719009D01*
X119032596Y-69868160D01*
X119046334Y-69988755D01*
X119029733Y-70096050D01*
X118982475Y-70178217D01*
X118908058Y-70235142D01*
X118809976Y-70266711D01*
X118691725Y-70272812D01*
X118556802Y-70253330D01*
X118408703Y-70208153D01*
X118250922Y-70137167D01*
X118086957Y-70040258D01*
X118058174Y-70020822D01*
X117992796Y-69980182D01*
X117906504Y-69932241D01*
X117817089Y-69886847D01*
X117810169Y-69883543D01*
X117653673Y-69809223D01*
X117501178Y-69886018D01*
X117422523Y-69927690D01*
X117321083Y-69984389D01*
X117209948Y-70048665D01*
X117102206Y-70113071D01*
X117102173Y-70113091D01*
X117016233Y-70166290D01*
X116911457Y-70232438D01*
X116792604Y-70308407D01*
X116664434Y-70391070D01*
X116531708Y-70477299D01*
X116399185Y-70563966D01*
X116271626Y-70647944D01*
X116153789Y-70726105D01*
X116050435Y-70795321D01*
X115966323Y-70852464D01*
X115906214Y-70894407D01*
X115874868Y-70918022D01*
X115871414Y-70921818D01*
X115881049Y-70942823D01*
X115908048Y-70995584D01*
X115949548Y-71074667D01*
X116002686Y-71174637D01*
X116064600Y-71290060D01*
X116097668Y-71351341D01*
X116230115Y-71602208D01*
X116359395Y-71858358D01*
X116483022Y-72114214D01*
X116598511Y-72364201D01*
X116703376Y-72602744D01*
X116795132Y-72824267D01*
X116871293Y-73023195D01*
X116929374Y-73193952D01*
X116949509Y-73262131D01*
X116981853Y-73401413D01*
X116992068Y-73508651D01*
X116980159Y-73587887D01*
X116949907Y-73639270D01*
X116912433Y-73673247D01*
X116844533Y-73728370D01*
X116750474Y-73801527D01*
X116634525Y-73889608D01*
X116500956Y-73989502D01*
X116354033Y-74098097D01*
X116198025Y-74212283D01*
X116037201Y-74328950D01*
X115875830Y-74444985D01*
X115718178Y-74557279D01*
X115568516Y-74662719D01*
X115431110Y-74758196D01*
X115310230Y-74840598D01*
X115215802Y-74903150D01*
X115081642Y-74988056D01*
X114949633Y-75066611D01*
X114816723Y-75139832D01*
X114679859Y-75208731D01*
X114535988Y-75274323D01*
X114382058Y-75337623D01*
X114215015Y-75399646D01*
X114031807Y-75461405D01*
X113829381Y-75523916D01*
X113604684Y-75588192D01*
X113354664Y-75655249D01*
X113076268Y-75726100D01*
X112766443Y-75801760D01*
X112422137Y-75883244D01*
X112040295Y-75971565D01*
X111913247Y-76000624D01*
X111507384Y-76092095D01*
X111138283Y-76172768D01*
X110801977Y-76243392D01*
X110494498Y-76304715D01*
X110211882Y-76357484D01*
X109950159Y-76402447D01*
X109705364Y-76440353D01*
X109473530Y-76471949D01*
X109309747Y-76491511D01*
X109201250Y-76500943D01*
X109056251Y-76509372D01*
X108880569Y-76516729D01*
X108680025Y-76522943D01*
X108460438Y-76527943D01*
X108227628Y-76531661D01*
X107987417Y-76534024D01*
X107745624Y-76534965D01*
X107508069Y-76534411D01*
X107280572Y-76532294D01*
X107068954Y-76528543D01*
X106879035Y-76523088D01*
X106833247Y-76521354D01*
X106660530Y-76513407D01*
X106501249Y-76503554D01*
X106347582Y-76490883D01*
X106191705Y-76474481D01*
X106025798Y-76453435D01*
X105842037Y-76426834D01*
X105632601Y-76393765D01*
X105389667Y-76353316D01*
X105383330Y-76352242D01*
X105040180Y-76291978D01*
X104688529Y-76226288D01*
X104331778Y-76156013D01*
X103973326Y-76081995D01*
X103616575Y-76005072D01*
X103264924Y-75926087D01*
X102921774Y-75845879D01*
X102590525Y-75765289D01*
X102274578Y-75685158D01*
X101977332Y-75606326D01*
X101702189Y-75529634D01*
X101452549Y-75455923D01*
X101231811Y-75386032D01*
X101043377Y-75320802D01*
X100890647Y-75261074D01*
X100798648Y-75218927D01*
X100677628Y-75154289D01*
X100524035Y-75066013D01*
X100339634Y-74955217D01*
X100126194Y-74823019D01*
X99885480Y-74670537D01*
X99619258Y-74498890D01*
X99329297Y-74309195D01*
X99017362Y-74102570D01*
X98715830Y-73900729D01*
X98579840Y-73809180D01*
X98455034Y-73724976D01*
X98345785Y-73651081D01*
X98256465Y-73590461D01*
X98191448Y-73546080D01*
X98155107Y-73520903D01*
X98149132Y-73516509D01*
X98151125Y-73493302D01*
X98165979Y-73436430D01*
X98191822Y-73351916D01*
X98226784Y-73245781D01*
X98268994Y-73124049D01*
X98284512Y-73080602D01*
X98336674Y-72934088D01*
X98337246Y-72932452D01*
X101311164Y-72932452D01*
X101311890Y-72985598D01*
X101315755Y-73026979D01*
X101332786Y-73125437D01*
X101365342Y-73254935D01*
X101410866Y-73408238D01*
X101466802Y-73578107D01*
X101530592Y-73757308D01*
X101599680Y-73938602D01*
X101671508Y-74114753D01*
X101743521Y-74278524D01*
X101798906Y-74394484D01*
X101948183Y-74653850D01*
X102122646Y-74886738D01*
X102319058Y-75090411D01*
X102534185Y-75262132D01*
X102764791Y-75399164D01*
X103007642Y-75498770D01*
X103150247Y-75537736D01*
X103281587Y-75556798D01*
X103437268Y-75563253D01*
X103601823Y-75557746D01*
X103759787Y-75540924D01*
X103895695Y-75513431D01*
X103922830Y-75505470D01*
X104085720Y-75446411D01*
X104228999Y-75376027D01*
X104370960Y-75284756D01*
X104434192Y-75238196D01*
X104559834Y-75132115D01*
X104658598Y-75021603D01*
X104736941Y-74896727D01*
X104801320Y-74747556D01*
X104847659Y-74602114D01*
X104874922Y-74481158D01*
X104879085Y-74449643D01*
X110417171Y-74449643D01*
X110431092Y-74590178D01*
X110459505Y-74737521D01*
X110501261Y-74883927D01*
X110555210Y-75021653D01*
X110620202Y-75142955D01*
X110622363Y-75146341D01*
X110739068Y-75294521D01*
X110888878Y-75431999D01*
X111062780Y-75552368D01*
X111251765Y-75649222D01*
X111409329Y-75705924D01*
X111628773Y-75752023D01*
X111865006Y-75770719D01*
X112102233Y-75761640D01*
X112312682Y-75727290D01*
X112565933Y-75648461D01*
X112798727Y-75535563D01*
X113012235Y-75387547D01*
X113207628Y-75203362D01*
X113386078Y-74981959D01*
X113548755Y-74722287D01*
X113647797Y-74529959D01*
X113754684Y-74283984D01*
X113844819Y-74026564D01*
X113919952Y-73750913D01*
X113981833Y-73450245D01*
X114032214Y-73117777D01*
X114049885Y-72971290D01*
X114063835Y-72845178D01*
X114075931Y-72731224D01*
X114085404Y-72637067D01*
X114091482Y-72570349D01*
X114093414Y-72539874D01*
X114092196Y-72522854D01*
X114084442Y-72510986D01*
X114064001Y-72503650D01*
X114024719Y-72500226D01*
X113960447Y-72500092D01*
X113865031Y-72502628D01*
X113760039Y-72506236D01*
X113542755Y-72518610D01*
X113353774Y-72539082D01*
X113222837Y-72561858D01*
X112879633Y-72652523D01*
X112526748Y-72777764D01*
X112172937Y-72934049D01*
X111826954Y-73117846D01*
X111787340Y-73141014D01*
X111700679Y-73192655D01*
X111646310Y-73227199D01*
X111619919Y-73248820D01*
X111617195Y-73261688D01*
X111633826Y-73269975D01*
X111649757Y-73274115D01*
X111832195Y-73320011D01*
X111979605Y-73362744D01*
X112098838Y-73405339D01*
X112196745Y-73450823D01*
X112280175Y-73502223D01*
X112355979Y-73562563D01*
X112403408Y-73607027D01*
X112531566Y-73761243D01*
X112626460Y-73934711D01*
X112688019Y-74121497D01*
X112716171Y-74315670D01*
X112710843Y-74511298D01*
X112671965Y-74702447D01*
X112599465Y-74883186D01*
X112493270Y-75047582D01*
X112421799Y-75127563D01*
X112266696Y-75256267D01*
X112095286Y-75347335D01*
X111904752Y-75401881D01*
X111692279Y-75421019D01*
X111680414Y-75421067D01*
X111463098Y-75402183D01*
X111264564Y-75345817D01*
X111085854Y-75252396D01*
X110928012Y-75122347D01*
X110912472Y-75106353D01*
X110781392Y-74947407D01*
X110685595Y-74780081D01*
X110621399Y-74595935D01*
X110585123Y-74386527D01*
X110581458Y-74347699D01*
X110568773Y-74232511D01*
X110552819Y-74157260D01*
X110532343Y-74119596D01*
X110506088Y-74117171D01*
X110473866Y-74146324D01*
X110437408Y-74219972D01*
X110418893Y-74323660D01*
X110417171Y-74449643D01*
X104879085Y-74449643D01*
X104891920Y-74352479D01*
X104898580Y-74225638D01*
X104894823Y-74110193D01*
X104894430Y-74107584D01*
X110756241Y-74107584D01*
X110757489Y-74156068D01*
X110795137Y-74252688D01*
X110865831Y-74350180D01*
X110961824Y-74438112D01*
X110973254Y-74446509D01*
X111054765Y-74499363D01*
X111128959Y-74530997D01*
X111212736Y-74546647D01*
X111311908Y-74551414D01*
X111400088Y-74547561D01*
X111476508Y-74529551D01*
X111563310Y-74492006D01*
X111569854Y-74488754D01*
X111691124Y-74407805D01*
X111780263Y-74301013D01*
X111839459Y-74165484D01*
X111852566Y-74114988D01*
X111866468Y-73962660D01*
X111840185Y-73818709D01*
X111775721Y-73688017D01*
X111675081Y-73575468D01*
X111611341Y-73527204D01*
X111518233Y-73471125D01*
X111444851Y-73443536D01*
X111380658Y-73443330D01*
X111315117Y-73469395D01*
X111278247Y-73492133D01*
X111143638Y-73591371D01*
X111022628Y-73698885D01*
X110919301Y-73809468D01*
X110837738Y-73917916D01*
X110782024Y-74019023D01*
X110756241Y-74107584D01*
X104894430Y-74107584D01*
X104880574Y-74015702D01*
X104855757Y-73951725D01*
X104852876Y-73947620D01*
X104817374Y-73905873D01*
X104789462Y-73882678D01*
X104787731Y-73881978D01*
X104761109Y-73893459D01*
X104737388Y-73945042D01*
X104717152Y-74034560D01*
X104700986Y-74159845D01*
X104695387Y-74224746D01*
X104678533Y-74378983D01*
X104653894Y-74507748D01*
X104632339Y-74579158D01*
X104545967Y-74754189D01*
X104431113Y-74902523D01*
X104292898Y-75022897D01*
X104136444Y-75114046D01*
X103966873Y-75174707D01*
X103789307Y-75203616D01*
X103608867Y-75199509D01*
X103430675Y-75161121D01*
X103259853Y-75087189D01*
X103101523Y-74976450D01*
X103084227Y-74961188D01*
X102968373Y-74833077D01*
X102871888Y-74680012D01*
X102799964Y-74513339D01*
X102757796Y-74344407D01*
X102748771Y-74228212D01*
X102769719Y-74060044D01*
X102828882Y-73887901D01*
X102831131Y-73883853D01*
X103510545Y-73883853D01*
X103522567Y-74025611D01*
X103559217Y-74136760D01*
X103622826Y-74219169D01*
X103715727Y-74274705D01*
X103840250Y-74305237D01*
X103998729Y-74312633D01*
X104043907Y-74311086D01*
X104162473Y-74299024D01*
X104256507Y-74276441D01*
X104286074Y-74264237D01*
X104355026Y-74213498D01*
X104423237Y-74136319D01*
X104479943Y-74047389D01*
X104514375Y-73961396D01*
X104517056Y-73949117D01*
X104513489Y-73865552D01*
X104471811Y-73776777D01*
X104391273Y-73681977D01*
X104271124Y-73580340D01*
X104110617Y-73471051D01*
X104034465Y-73424726D01*
X103937132Y-73372881D01*
X103861435Y-73349701D01*
X103797286Y-73355818D01*
X103734601Y-73391864D01*
X103674177Y-73447275D01*
X103591346Y-73548881D01*
X103539497Y-73658385D01*
X103514448Y-73786953D01*
X103510545Y-73883853D01*
X102831131Y-73883853D01*
X102923354Y-73717866D01*
X103050229Y-73556026D01*
X103089452Y-73514739D01*
X103167514Y-73442172D01*
X103238789Y-73393415D01*
X103320417Y-73357357D01*
X103345650Y-73348624D01*
X103447774Y-73311714D01*
X103512134Y-73280570D01*
X103542449Y-73252529D01*
X103542441Y-73224924D01*
X103534662Y-73213265D01*
X103482961Y-73172233D01*
X103396100Y-73127445D01*
X103280825Y-73081148D01*
X103143881Y-73035590D01*
X102992014Y-72993019D01*
X102831969Y-72955683D01*
X102673643Y-72926331D01*
X102485497Y-72899459D01*
X102293703Y-72877841D01*
X102104075Y-72861659D01*
X101922425Y-72851095D01*
X101754567Y-72846330D01*
X101606315Y-72847547D01*
X101483483Y-72854928D01*
X101391883Y-72868655D01*
X101344226Y-72884735D01*
X101321146Y-72902814D01*
X101311164Y-72932452D01*
X98337246Y-72932452D01*
X98390003Y-72781618D01*
X98440549Y-72634669D01*
X98484362Y-72504724D01*
X98516999Y-72404817D01*
X98597740Y-72150817D01*
X98520398Y-72081533D01*
X98446927Y-72021188D01*
X98344886Y-71946456D01*
X98212559Y-71856198D01*
X98048228Y-71749273D01*
X97850175Y-71624541D01*
X97616684Y-71480861D01*
X97605003Y-71473741D01*
X97478519Y-71396862D01*
X97364300Y-71327798D01*
X97267198Y-71269455D01*
X97192070Y-71224740D01*
X97143770Y-71196560D01*
X97127219Y-71187734D01*
X97107413Y-71198723D01*
X97059242Y-71228773D01*
X96989590Y-71273502D01*
X96905342Y-71328531D01*
X96890745Y-71338146D01*
X96718596Y-71447533D01*
X96571821Y-71530840D01*
X96444426Y-71590417D01*
X96330419Y-71628613D01*
X96223806Y-71647781D01*
X96118596Y-71650269D01*
X96098054Y-71649035D01*
X96000578Y-71634615D01*
X95935826Y-71603400D01*
X95896994Y-71548257D01*
X95877275Y-71462054D01*
X95872944Y-71413147D01*
X95874566Y-71294689D01*
X95896341Y-71173275D01*
X95940726Y-71040123D01*
X96010178Y-70886452D01*
X96032838Y-70841677D01*
X96145746Y-70642986D01*
X96276826Y-70447221D01*
X96422396Y-70257619D01*
X96578777Y-70077413D01*
X96742287Y-69909839D01*
X96909243Y-69758131D01*
X97075966Y-69625523D01*
X97238773Y-69515251D01*
X97393984Y-69430548D01*
X97537917Y-69374651D01*
X97666891Y-69350793D01*
X97727907Y-69352243D01*
X97822808Y-69381145D01*
X97893138Y-69441574D01*
X97938513Y-69530310D01*
X97958549Y-69644136D01*
X97952862Y-69779835D01*
X97921068Y-69934189D01*
X97862783Y-70103979D01*
X97827364Y-70185529D01*
X97782613Y-70289717D01*
X97759899Y-70368233D01*
X97759426Y-70431672D01*
X97781400Y-70490630D01*
X97826024Y-70555705D01*
X97834731Y-70566708D01*
X97888999Y-70629870D01*
X97963864Y-70710374D01*
X98054881Y-70804025D01*
X98157607Y-70906626D01*
X98267596Y-71013980D01*
X98380406Y-71121891D01*
X98491591Y-71226162D01*
X98596707Y-71322598D01*
X98691312Y-71407001D01*
X98770959Y-71475175D01*
X98831206Y-71522924D01*
X98867608Y-71546052D01*
X98873486Y-71547567D01*
X98904008Y-71529224D01*
X98954221Y-71474901D01*
X99023313Y-71385653D01*
X99110473Y-71262537D01*
X99214889Y-71106610D01*
X99230639Y-71082527D01*
X99323434Y-70943653D01*
X101072601Y-70943653D01*
X101125202Y-70988898D01*
X101165665Y-71012788D01*
X101236739Y-71044216D01*
X101328334Y-71079067D01*
X101428483Y-71112637D01*
X101808014Y-71239358D01*
X102157989Y-71373530D01*
X102491138Y-71520548D01*
X102820187Y-71685808D01*
X102960476Y-71762093D01*
X103099254Y-71840690D01*
X103222335Y-71914342D01*
X103338205Y-71988852D01*
X103455348Y-72070019D01*
X103582251Y-72163645D01*
X103727398Y-72275529D01*
X103831056Y-72357232D01*
X104032228Y-72509726D01*
X104213247Y-72630361D01*
X104379777Y-72720829D01*
X104537479Y-72782821D01*
X104692018Y-72818029D01*
X104849055Y-72828145D01*
X105014254Y-72814861D01*
X105193278Y-72779869D01*
X105222001Y-72772769D01*
X105323355Y-72742146D01*
X105436692Y-72700452D01*
X105533650Y-72658462D01*
X105614600Y-72614003D01*
X105695181Y-72560191D01*
X105771390Y-72501229D01*
X105839226Y-72441319D01*
X105894688Y-72384664D01*
X105933774Y-72335465D01*
X105952482Y-72297926D01*
X105946811Y-72276248D01*
X105912760Y-72274634D01*
X105894841Y-72279153D01*
X105854299Y-72294012D01*
X105787987Y-72321157D01*
X105708662Y-72355327D01*
X105689757Y-72363699D01*
X105526138Y-72429470D01*
X105377295Y-72471837D01*
X105225613Y-72494649D01*
X105058487Y-72501740D01*
X104958468Y-72501518D01*
X104888829Y-72498109D01*
X104837625Y-72489049D01*
X104792907Y-72471871D01*
X104742729Y-72444110D01*
X104723612Y-72432615D01*
X104652919Y-72385713D01*
X104568919Y-72322057D01*
X104469024Y-72239366D01*
X104350647Y-72135359D01*
X104211197Y-72007757D01*
X104160745Y-71960283D01*
X109331105Y-71960283D01*
X109334245Y-71976791D01*
X109361624Y-71996687D01*
X109410658Y-72020616D01*
X109431455Y-72029636D01*
X109501717Y-72057123D01*
X109594033Y-72090043D01*
X109689865Y-72121816D01*
X109701330Y-72125430D01*
X109783855Y-72150294D01*
X109861207Y-72170922D01*
X109945193Y-72190001D01*
X110047616Y-72210216D01*
X110177580Y-72233775D01*
X110262990Y-72240617D01*
X110376564Y-72238230D01*
X110505443Y-72227850D01*
X110636773Y-72210715D01*
X110757696Y-72188060D01*
X110821623Y-72171837D01*
X110929707Y-72136927D01*
X111045561Y-72093883D01*
X111146308Y-72051274D01*
X111157584Y-72045984D01*
X111242442Y-71999972D01*
X111342473Y-71935226D01*
X111459206Y-71850442D01*
X111594166Y-71744318D01*
X111748881Y-71615548D01*
X111924879Y-71462829D01*
X112123685Y-71284856D01*
X112346828Y-71080325D01*
X112595834Y-70847932D01*
X112872230Y-70586373D01*
X112919985Y-70540884D01*
X113166039Y-70307222D01*
X113383233Y-70102946D01*
X113572427Y-69927297D01*
X113734482Y-69779513D01*
X113870256Y-69658836D01*
X113980611Y-69564504D01*
X114066405Y-69495758D01*
X114128500Y-69451836D01*
X114167755Y-69431980D01*
X114176051Y-69430576D01*
X114231562Y-69418043D01*
X114255489Y-69386670D01*
X114249573Y-69343729D01*
X114215551Y-69296490D01*
X114155163Y-69252224D01*
X114130433Y-69239820D01*
X114043483Y-69210357D01*
X113949388Y-69200734D01*
X113838014Y-69210967D01*
X113701863Y-69240392D01*
X113457443Y-69319942D01*
X113205987Y-69434194D01*
X113018622Y-69540082D01*
X112896060Y-69626271D01*
X112752030Y-69747090D01*
X112587678Y-69901383D01*
X112404148Y-70087990D01*
X112202586Y-70305755D01*
X111984135Y-70553520D01*
X111786847Y-70785864D01*
X111613987Y-70991182D01*
X111463843Y-71165882D01*
X111333272Y-71312864D01*
X111219131Y-71435029D01*
X111118279Y-71535276D01*
X111027573Y-71616507D01*
X110943870Y-71681621D01*
X110864028Y-71733518D01*
X110784904Y-71775100D01*
X110703357Y-71809266D01*
X110662013Y-71824026D01*
X110613919Y-71838708D01*
X110560708Y-71850807D01*
X110496403Y-71860944D01*
X110415025Y-71869738D01*
X110310595Y-71877812D01*
X110177135Y-71885784D01*
X110008667Y-71894277D01*
X109965914Y-71896296D01*
X109769383Y-71906008D01*
X109612587Y-71915242D01*
X109492945Y-71924643D01*
X109407872Y-71934853D01*
X109354787Y-71946518D01*
X109331105Y-71960283D01*
X104160745Y-71960283D01*
X104048088Y-71854278D01*
X103858730Y-71672641D01*
X103834605Y-71649313D01*
X103655226Y-71478139D01*
X103498704Y-71334555D01*
X103359804Y-71214482D01*
X103233289Y-71113843D01*
X103113925Y-71028557D01*
X102996476Y-70954547D01*
X102875707Y-70887733D01*
X102822164Y-70860553D01*
X102673449Y-70790379D01*
X102545276Y-70739797D01*
X102423639Y-70705219D01*
X102294532Y-70683058D01*
X102143949Y-70669729D01*
X102060164Y-70665425D01*
X101864608Y-70664836D01*
X101678176Y-70679318D01*
X101506850Y-70707453D01*
X101356610Y-70747826D01*
X101233439Y-70799019D01*
X101143319Y-70859615D01*
X101115451Y-70889179D01*
X101072601Y-70943653D01*
X99323434Y-70943653D01*
X99374541Y-70867168D01*
X99518278Y-70663532D01*
X99667022Y-70465154D01*
X99825945Y-70265568D01*
X100000218Y-70058308D01*
X100195013Y-69836911D01*
X100415501Y-69594909D01*
X100452789Y-69554621D01*
X100549774Y-69449107D01*
X100636352Y-69353146D01*
X100708561Y-69271274D01*
X100762439Y-69208030D01*
X100794023Y-69167950D01*
X100800747Y-69156161D01*
X100787571Y-69128141D01*
X100750644Y-69073035D01*
X100693867Y-68995806D01*
X100621143Y-68901421D01*
X100536373Y-68794846D01*
X100443459Y-68681048D01*
X100346303Y-68564991D01*
X100248806Y-68451641D01*
X100233209Y-68433830D01*
X100171844Y-68365267D01*
X100092496Y-68278615D01*
X99999200Y-68178103D01*
X99895992Y-68067955D01*
X99786909Y-67952397D01*
X99675985Y-67835656D01*
X99567258Y-67721958D01*
X99464764Y-67615528D01*
X99372537Y-67520592D01*
X99294615Y-67441377D01*
X99235034Y-67382108D01*
X99197828Y-67347012D01*
X99187863Y-67339286D01*
X99164290Y-67344977D01*
X99109124Y-67365095D01*
X99029450Y-67396861D01*
X98932354Y-67437494D01*
X98878453Y-67460716D01*
X98703687Y-67533952D01*
X98559321Y-67587761D01*
X98439088Y-67623874D01*
X98336720Y-67644018D01*
X98245950Y-67649924D01*
X98200154Y-67647852D01*
X98124676Y-67637368D01*
X98073809Y-67616394D01*
X98029933Y-67577345D01*
X98025856Y-67572832D01*
X97970146Y-67479809D01*
X97947507Y-67365808D01*
X97956117Y-67233825D01*
X97994156Y-67086853D01*
X98059802Y-66927888D01*
X98151235Y-66759923D01*
X98266631Y-66585953D01*
X98404172Y-66408973D01*
X98562034Y-66231978D01*
X98738398Y-66057961D01*
X98931442Y-65889917D01*
X99139344Y-65730841D01*
X99151324Y-65722305D01*
X99360318Y-65584384D01*
X99559578Y-65473308D01*
X99746710Y-65389405D01*
X99919324Y-65333004D01*
X100075028Y-65304436D01*
X100211430Y-65304029D01*
X100326140Y-65332113D01*
X100416765Y-65389018D01*
X100480913Y-65475072D01*
X100504321Y-65535912D01*
X100514754Y-65611941D01*
X100504286Y-65700316D01*
X100471433Y-65804750D01*
X100414712Y-65928956D01*
X100332640Y-66076647D01*
X100223734Y-66251536D01*
X100210038Y-66272615D01*
X100151015Y-66365888D01*
X100099599Y-66452260D01*
X100060986Y-66522645D01*
X100040375Y-66567956D01*
X100039508Y-66570745D01*
X100031278Y-66630160D01*
X100040290Y-66700120D01*
X100068499Y-66787657D01*
X100117861Y-66899799D01*
X100148193Y-66961552D01*
X100207155Y-67072722D01*
X100285591Y-67211477D01*
X100379305Y-67371115D01*
X100484101Y-67544931D01*
X100595784Y-67726223D01*
X100710159Y-67908286D01*
X100823031Y-68084417D01*
X100930203Y-68247912D01*
X101027480Y-68392068D01*
X101110667Y-68510182D01*
X101152771Y-68566673D01*
X101247615Y-68689929D01*
X101315223Y-68655624D01*
X101352136Y-68634088D01*
X101418090Y-68592765D01*
X101507042Y-68535556D01*
X101612948Y-68466366D01*
X101729766Y-68389097D01*
X101787199Y-68350780D01*
X102102661Y-68143425D01*
X102396465Y-67958650D01*
X102678532Y-67790844D01*
X102958785Y-67634398D01*
X103247147Y-67483699D01*
X103553541Y-67333139D01*
X103753497Y-67238986D01*
X103879951Y-67180211D01*
X103992904Y-67127586D01*
X104086919Y-67083654D01*
X104156560Y-67050957D01*
X104196392Y-67032038D01*
X104203697Y-67028378D01*
X104197472Y-67008587D01*
X104176830Y-66955682D01*
X104144127Y-66875418D01*
X104101716Y-66773550D01*
X104051954Y-66655833D01*
X104034869Y-66615772D01*
X103973129Y-66471328D01*
X103923501Y-66360601D01*
X103880508Y-66278798D01*
X103838673Y-66221131D01*
X103792521Y-66182806D01*
X103736574Y-66159035D01*
X103665357Y-66145026D01*
X103573393Y-66135987D01*
X103478330Y-66128900D01*
X103330155Y-66113882D01*
X103218415Y-66093043D01*
X103137406Y-66064626D01*
X103081425Y-66026876D01*
X103057763Y-65999426D01*
X103027076Y-65922060D01*
X103034259Y-65836143D01*
X103076299Y-65744116D01*
X103150185Y-65648417D01*
X103252903Y-65551484D01*
X103381442Y-65455756D01*
X103532788Y-65363672D01*
X103703929Y-65277670D01*
X103891854Y-65200189D01*
X104093549Y-65133668D01*
X104145080Y-65119222D01*
X104258057Y-65091826D01*
X104362926Y-65074649D01*
X104477095Y-65065519D01*
X104600164Y-65062403D01*
X104746900Y-65064799D01*
X104857891Y-65076500D01*
X104939087Y-65099514D01*
X104996442Y-65135849D01*
X105035910Y-65187516D01*
X105048310Y-65213613D01*
X105065745Y-65284711D01*
X105056649Y-65357272D01*
X105018700Y-65435078D01*
X104949579Y-65521909D01*
X104846965Y-65621547D01*
X104744519Y-65708681D01*
X104651108Y-65789391D01*
X104588144Y-65857264D01*
X104550079Y-65921750D01*
X104531368Y-65992301D01*
X104526464Y-66078365D01*
X104526468Y-66080224D01*
X104530746Y-66170528D01*
X104541882Y-66288151D01*
X104558010Y-66418989D01*
X104577263Y-66548936D01*
X104597775Y-66663888D01*
X104612468Y-66730219D01*
X104629122Y-66788911D01*
X104648466Y-66817306D01*
X104683088Y-66826264D01*
X104724385Y-66826779D01*
X104779305Y-66822556D01*
X104864104Y-66811518D01*
X104967186Y-66795344D01*
X105076414Y-66775817D01*
X105297277Y-66733925D01*
X105482339Y-66699176D01*
X105637341Y-66670581D01*
X105768026Y-66647153D01*
X105880137Y-66627904D01*
X105979417Y-66611848D01*
X106071609Y-66597995D01*
X106162456Y-66585358D01*
X106251164Y-66573782D01*
X106386205Y-66557579D01*
X106547147Y-66539832D01*
X106717681Y-66522253D01*
X106881497Y-66506549D01*
X106954484Y-66500048D01*
X107188990Y-66477567D01*
X107389940Y-66453576D01*
X107555174Y-66428407D01*
X107682534Y-66402391D01*
X107769858Y-66375861D01*
X107774047Y-66374147D01*
X107827785Y-66340684D01*
X107853274Y-66289529D01*
X107856526Y-66273995D01*
X107860720Y-66232279D01*
X107865483Y-66153940D01*
X107870654Y-66044683D01*
X107876070Y-65910212D01*
X107881572Y-65756232D01*
X107886997Y-65588447D01*
X107892185Y-65412562D01*
X107896974Y-65234281D01*
X107901204Y-65059309D01*
X107904713Y-64893350D01*
X107907340Y-64742108D01*
X107908923Y-64611288D01*
X107909302Y-64506595D01*
X107908421Y-64437244D01*
X107902164Y-64216671D01*
X107658747Y-64139329D01*
X107551148Y-64103347D01*
X107447107Y-64065427D01*
X107359733Y-64030518D01*
X107309497Y-64007497D01*
X107161285Y-63917674D01*
X107045784Y-63818844D01*
X106965705Y-63714175D01*
X106923757Y-63606835D01*
X106917914Y-63550074D01*
X106920929Y-63495070D01*
X106934765Y-63452833D01*
X106966609Y-63409749D01*
X107021053Y-63354704D01*
X107115323Y-63279407D01*
X107229886Y-63217623D01*
X107369037Y-63168116D01*
X107537072Y-63129649D01*
X107738289Y-63100988D01*
X107971904Y-63081217D01*
X108231130Y-63071737D01*
X108501277Y-63074515D01*
G36*
X118942163Y-72164578D02*
G01*
X119045863Y-72225200D01*
X119154528Y-72321677D01*
X119266685Y-72452744D01*
X119380859Y-72617134D01*
X119495580Y-72813583D01*
X119587036Y-72993552D01*
X119730101Y-73329685D01*
X119832684Y-73656461D01*
X119894650Y-73973351D01*
X119915867Y-74279824D01*
X119915871Y-74289235D01*
X119907390Y-74493980D01*
X119882578Y-74660047D01*
X119841304Y-74787867D01*
X119783439Y-74877873D01*
X119724590Y-74923214D01*
X119632605Y-74950813D01*
X119535619Y-74940429D01*
X119432903Y-74891494D01*
X119323729Y-74803439D01*
X119207369Y-74675692D01*
X119083093Y-74507685D01*
X118971897Y-74334777D01*
X118917736Y-74246704D01*
X118879551Y-74188879D01*
X118851266Y-74155413D01*
X118826806Y-74140419D01*
X118800097Y-74138006D01*
X118772281Y-74141282D01*
X118728530Y-74146541D01*
X118650375Y-74155063D01*
X118545550Y-74166041D01*
X118421788Y-74178668D01*
X118286821Y-74192134D01*
X118263247Y-74194456D01*
X118025279Y-74218976D01*
X117826570Y-74242354D01*
X117664099Y-74265579D01*
X117534845Y-74289639D01*
X117435787Y-74315523D01*
X117363905Y-74344219D01*
X117316178Y-74376716D01*
X117289584Y-74414003D01*
X117281104Y-74457068D01*
X117287715Y-74506900D01*
X117289323Y-74513171D01*
X117300632Y-74573234D01*
X117313120Y-74670481D01*
X117326464Y-74799786D01*
X117340343Y-74956028D01*
X117354436Y-75134081D01*
X117368419Y-75328822D01*
X117381972Y-75535127D01*
X117394772Y-75747873D01*
X117406498Y-75961935D01*
X117416827Y-76172191D01*
X117425439Y-76373515D01*
X117432010Y-76560786D01*
X117436220Y-76728878D01*
X117437746Y-76872668D01*
X117437747Y-76875977D01*
X117437747Y-77008567D01*
X119398389Y-77008567D01*
X119478242Y-76750115D01*
X119525045Y-76604301D01*
X119566240Y-76490856D01*
X119605900Y-76400936D01*
X119648093Y-76325697D01*
X119696890Y-76256296D01*
X119717545Y-76230189D01*
X119815856Y-76135279D01*
X119922996Y-76077639D01*
X120033385Y-76057426D01*
X120141447Y-76074799D01*
X120241602Y-76129915D01*
X120321244Y-76213104D01*
X120377853Y-76298732D01*
X120424191Y-76389915D01*
X120461165Y-76491674D01*
X120489680Y-76609024D01*
X120510645Y-76746985D01*
X120524965Y-76910574D01*
X120533547Y-77104810D01*
X120537297Y-77334710D01*
X120537614Y-77410734D01*
X120536322Y-77665358D01*
X120530778Y-77883603D01*
X120520079Y-78071285D01*
X120503326Y-78234226D01*
X120479617Y-78378246D01*
X120448051Y-78509162D01*
X120407727Y-78632796D01*
X120357745Y-78754966D01*
X120315613Y-78844592D01*
X120228847Y-79001548D01*
X120137759Y-79130348D01*
X120045228Y-79228547D01*
X119954133Y-79293702D01*
X119867352Y-79323369D01*
X119787763Y-79315103D01*
X119770518Y-79307445D01*
X119684174Y-79242887D01*
X119600297Y-79142129D01*
X119523821Y-79011235D01*
X119515487Y-78994026D01*
X119468273Y-78885579D01*
X119428568Y-78772371D01*
X119393620Y-78644572D01*
X119360678Y-78492352D01*
X119333521Y-78344086D01*
X119288114Y-78081521D01*
X118939722Y-77977932D01*
X118788917Y-77934360D01*
X118617968Y-77887007D01*
X118445382Y-77840883D01*
X118289666Y-77801000D01*
X118252664Y-77791890D01*
X118025288Y-77739349D01*
X117835016Y-77701949D01*
X117679376Y-77679807D01*
X117555896Y-77673037D01*
X117462102Y-77681752D01*
X117395523Y-77706069D01*
X117353687Y-77746101D01*
X117334121Y-77801963D01*
X117331914Y-77834575D01*
X117325740Y-77928460D01*
X117308339Y-78051884D01*
X117281392Y-78198551D01*
X117246580Y-78362166D01*
X117205582Y-78536431D01*
X117160079Y-78715053D01*
X117111751Y-78891734D01*
X117062280Y-79060180D01*
X117013345Y-79214094D01*
X116966627Y-79347180D01*
X116923807Y-79453144D01*
X116886566Y-79525688D01*
X116876675Y-79540069D01*
X116830557Y-79588299D01*
X116753550Y-79654798D01*
X116650988Y-79735931D01*
X116528206Y-79828059D01*
X116390539Y-79927546D01*
X116243322Y-80030754D01*
X116091889Y-80134047D01*
X115941575Y-80233788D01*
X115797715Y-80326339D01*
X115665644Y-80408064D01*
X115550696Y-80475325D01*
X115458206Y-80524485D01*
X115393510Y-80551907D01*
X115391708Y-80552461D01*
X115363613Y-80555476D01*
X115342029Y-80538741D01*
X115319697Y-80494099D01*
X115304313Y-80454285D01*
X115242583Y-80283422D01*
X115189525Y-80124378D01*
X115144308Y-79971859D01*
X115106097Y-79820573D01*
X115074062Y-79665227D01*
X115047368Y-79500529D01*
X115025185Y-79321186D01*
X115006679Y-79121904D01*
X114991017Y-78897392D01*
X114977368Y-78642357D01*
X114964899Y-78351506D01*
X114962095Y-78278567D01*
X114956289Y-78115190D01*
X114950158Y-77925148D01*
X114943832Y-77713926D01*
X114937442Y-77487007D01*
X114931117Y-77249874D01*
X114924988Y-77008010D01*
X114919183Y-76766901D01*
X114913834Y-76532029D01*
X114909071Y-76308878D01*
X114905022Y-76102931D01*
X114901819Y-75919672D01*
X114899592Y-75764586D01*
X114898469Y-75643154D01*
X114898375Y-75590400D01*
X114899021Y-75346984D01*
X115192579Y-75130536D01*
X115419445Y-74963378D01*
X115616004Y-74818840D01*
X115785921Y-74694283D01*
X115932860Y-74587067D01*
X116060486Y-74494553D01*
X116172464Y-74414100D01*
X116272459Y-74343070D01*
X116364134Y-74278823D01*
X116451155Y-74218720D01*
X116537187Y-74160121D01*
X116580497Y-74130883D01*
X116684769Y-74060910D01*
X116774770Y-74001608D01*
X116855879Y-73950235D01*
X116933477Y-73904047D01*
X117012944Y-73860300D01*
X117099661Y-73816252D01*
X117199007Y-73769158D01*
X117316363Y-73716276D01*
X117457109Y-73654861D01*
X117626624Y-73582170D01*
X117808164Y-73504870D01*
X117961887Y-73439051D01*
X118103011Y-73377780D01*
X118226826Y-73323168D01*
X118328623Y-73277325D01*
X118403692Y-73242363D01*
X118447324Y-73220391D01*
X118456499Y-73214258D01*
X118463896Y-73185154D01*
X118472488Y-73124517D01*
X118480878Y-73043068D01*
X118484376Y-73000344D01*
X118503216Y-72788471D01*
X118525462Y-72614710D01*
X118552121Y-72474905D01*
X118584198Y-72364904D01*
X118622698Y-72280552D01*
X118668627Y-72217695D01*
X118675581Y-72210499D01*
X118755549Y-72155962D01*
X118844901Y-72141077D01*
X118942163Y-72164578D01*
G37*
X118942163Y-72164578D02*
X119045863Y-72225200D01*
X119154528Y-72321677D01*
X119266685Y-72452744D01*
X119380859Y-72617134D01*
X119495580Y-72813583D01*
X119587036Y-72993552D01*
X119730101Y-73329685D01*
X119832684Y-73656461D01*
X119894650Y-73973351D01*
X119915867Y-74279824D01*
X119915871Y-74289235D01*
X119907390Y-74493980D01*
X119882578Y-74660047D01*
X119841304Y-74787867D01*
X119783439Y-74877873D01*
X119724590Y-74923214D01*
X119632605Y-74950813D01*
X119535619Y-74940429D01*
X119432903Y-74891494D01*
X119323729Y-74803439D01*
X119207369Y-74675692D01*
X119083093Y-74507685D01*
X118971897Y-74334777D01*
X118917736Y-74246704D01*
X118879551Y-74188879D01*
X118851266Y-74155413D01*
X118826806Y-74140419D01*
X118800097Y-74138006D01*
X118772281Y-74141282D01*
X118728530Y-74146541D01*
X118650375Y-74155063D01*
X118545550Y-74166041D01*
X118421788Y-74178668D01*
X118286821Y-74192134D01*
X118263247Y-74194456D01*
X118025279Y-74218976D01*
X117826570Y-74242354D01*
X117664099Y-74265579D01*
X117534845Y-74289639D01*
X117435787Y-74315523D01*
X117363905Y-74344219D01*
X117316178Y-74376716D01*
X117289584Y-74414003D01*
X117281104Y-74457068D01*
X117287715Y-74506900D01*
X117289323Y-74513171D01*
X117300632Y-74573234D01*
X117313120Y-74670481D01*
X117326464Y-74799786D01*
X117340343Y-74956028D01*
X117354436Y-75134081D01*
X117368419Y-75328822D01*
X117381972Y-75535127D01*
X117394772Y-75747873D01*
X117406498Y-75961935D01*
X117416827Y-76172191D01*
X117425439Y-76373515D01*
X117432010Y-76560786D01*
X117436220Y-76728878D01*
X117437746Y-76872668D01*
X117437747Y-76875977D01*
X117437747Y-77008567D01*
X119398389Y-77008567D01*
X119478242Y-76750115D01*
X119525045Y-76604301D01*
X119566240Y-76490856D01*
X119605900Y-76400936D01*
X119648093Y-76325697D01*
X119696890Y-76256296D01*
X119717545Y-76230189D01*
X119815856Y-76135279D01*
X119922996Y-76077639D01*
X120033385Y-76057426D01*
X120141447Y-76074799D01*
X120241602Y-76129915D01*
X120321244Y-76213104D01*
X120377853Y-76298732D01*
X120424191Y-76389915D01*
X120461165Y-76491674D01*
X120489680Y-76609024D01*
X120510645Y-76746985D01*
X120524965Y-76910574D01*
X120533547Y-77104810D01*
X120537297Y-77334710D01*
X120537614Y-77410734D01*
X120536322Y-77665358D01*
X120530778Y-77883603D01*
X120520079Y-78071285D01*
X120503326Y-78234226D01*
X120479617Y-78378246D01*
X120448051Y-78509162D01*
X120407727Y-78632796D01*
X120357745Y-78754966D01*
X120315613Y-78844592D01*
X120228847Y-79001548D01*
X120137759Y-79130348D01*
X120045228Y-79228547D01*
X119954133Y-79293702D01*
X119867352Y-79323369D01*
X119787763Y-79315103D01*
X119770518Y-79307445D01*
X119684174Y-79242887D01*
X119600297Y-79142129D01*
X119523821Y-79011235D01*
X119515487Y-78994026D01*
X119468273Y-78885579D01*
X119428568Y-78772371D01*
X119393620Y-78644572D01*
X119360678Y-78492352D01*
X119333521Y-78344086D01*
X119288114Y-78081521D01*
X118939722Y-77977932D01*
X118788917Y-77934360D01*
X118617968Y-77887007D01*
X118445382Y-77840883D01*
X118289666Y-77801000D01*
X118252664Y-77791890D01*
X118025288Y-77739349D01*
X117835016Y-77701949D01*
X117679376Y-77679807D01*
X117555896Y-77673037D01*
X117462102Y-77681752D01*
X117395523Y-77706069D01*
X117353687Y-77746101D01*
X117334121Y-77801963D01*
X117331914Y-77834575D01*
X117325740Y-77928460D01*
X117308339Y-78051884D01*
X117281392Y-78198551D01*
X117246580Y-78362166D01*
X117205582Y-78536431D01*
X117160079Y-78715053D01*
X117111751Y-78891734D01*
X117062280Y-79060180D01*
X117013345Y-79214094D01*
X116966627Y-79347180D01*
X116923807Y-79453144D01*
X116886566Y-79525688D01*
X116876675Y-79540069D01*
X116830557Y-79588299D01*
X116753550Y-79654798D01*
X116650988Y-79735931D01*
X116528206Y-79828059D01*
X116390539Y-79927546D01*
X116243322Y-80030754D01*
X116091889Y-80134047D01*
X115941575Y-80233788D01*
X115797715Y-80326339D01*
X115665644Y-80408064D01*
X115550696Y-80475325D01*
X115458206Y-80524485D01*
X115393510Y-80551907D01*
X115391708Y-80552461D01*
X115363613Y-80555476D01*
X115342029Y-80538741D01*
X115319697Y-80494099D01*
X115304313Y-80454285D01*
X115242583Y-80283422D01*
X115189525Y-80124378D01*
X115144308Y-79971859D01*
X115106097Y-79820573D01*
X115074062Y-79665227D01*
X115047368Y-79500529D01*
X115025185Y-79321186D01*
X115006679Y-79121904D01*
X114991017Y-78897392D01*
X114977368Y-78642357D01*
X114964899Y-78351506D01*
X114962095Y-78278567D01*
X114956289Y-78115190D01*
X114950158Y-77925148D01*
X114943832Y-77713926D01*
X114937442Y-77487007D01*
X114931117Y-77249874D01*
X114924988Y-77008010D01*
X114919183Y-76766901D01*
X114913834Y-76532029D01*
X114909071Y-76308878D01*
X114905022Y-76102931D01*
X114901819Y-75919672D01*
X114899592Y-75764586D01*
X114898469Y-75643154D01*
X114898375Y-75590400D01*
X114899021Y-75346984D01*
X115192579Y-75130536D01*
X115419445Y-74963378D01*
X115616004Y-74818840D01*
X115785921Y-74694283D01*
X115932860Y-74587067D01*
X116060486Y-74494553D01*
X116172464Y-74414100D01*
X116272459Y-74343070D01*
X116364134Y-74278823D01*
X116451155Y-74218720D01*
X116537187Y-74160121D01*
X116580497Y-74130883D01*
X116684769Y-74060910D01*
X116774770Y-74001608D01*
X116855879Y-73950235D01*
X116933477Y-73904047D01*
X117012944Y-73860300D01*
X117099661Y-73816252D01*
X117199007Y-73769158D01*
X117316363Y-73716276D01*
X117457109Y-73654861D01*
X117626624Y-73582170D01*
X117808164Y-73504870D01*
X117961887Y-73439051D01*
X118103011Y-73377780D01*
X118226826Y-73323168D01*
X118328623Y-73277325D01*
X118403692Y-73242363D01*
X118447324Y-73220391D01*
X118456499Y-73214258D01*
X118463896Y-73185154D01*
X118472488Y-73124517D01*
X118480878Y-73043068D01*
X118484376Y-73000344D01*
X118503216Y-72788471D01*
X118525462Y-72614710D01*
X118552121Y-72474905D01*
X118584198Y-72364904D01*
X118622698Y-72280552D01*
X118668627Y-72217695D01*
X118675581Y-72210499D01*
X118755549Y-72155962D01*
X118844901Y-72141077D01*
X118942163Y-72164578D01*
G36*
X94748004Y-73452556D02*
G01*
X94791991Y-73472312D01*
X94837948Y-73517094D01*
X94845151Y-73525348D01*
X94929860Y-73643521D01*
X95010158Y-73793004D01*
X95081629Y-73962776D01*
X95139857Y-74141812D01*
X95180426Y-74319091D01*
X95190892Y-74388411D01*
X95208782Y-74496397D01*
X95235320Y-74572533D01*
X95277730Y-74627280D01*
X95343236Y-74671097D01*
X95406680Y-74700859D01*
X95489354Y-74731921D01*
X95605771Y-74769211D01*
X95750410Y-74811428D01*
X95917750Y-74857273D01*
X96102269Y-74905444D01*
X96298445Y-74954642D01*
X96500757Y-75003566D01*
X96703685Y-75050918D01*
X96901705Y-75095396D01*
X97089298Y-75135700D01*
X97260942Y-75170532D01*
X97411114Y-75198589D01*
X97534295Y-75218573D01*
X97624962Y-75229183D01*
X97656333Y-75230567D01*
X97694021Y-75228598D01*
X97718010Y-75216584D01*
X97735246Y-75185361D01*
X97752675Y-75125769D01*
X97761166Y-75092295D01*
X97775333Y-75032109D01*
X97796248Y-74938219D01*
X97822233Y-74818409D01*
X97851610Y-74680459D01*
X97882702Y-74532154D01*
X97901486Y-74441420D01*
X97941410Y-74248402D01*
X97974121Y-74092907D01*
X98000713Y-73970947D01*
X98022285Y-73878538D01*
X98039933Y-73811691D01*
X98054753Y-73766421D01*
X98067842Y-73738740D01*
X98080296Y-73724661D01*
X98093212Y-73720199D01*
X98099833Y-73720297D01*
X98123822Y-73727140D01*
X98163494Y-73745571D01*
X98220752Y-73776795D01*
X98297496Y-73822018D01*
X98395626Y-73882443D01*
X98517044Y-73959275D01*
X98663650Y-74053721D01*
X98837347Y-74166984D01*
X99040033Y-74300270D01*
X99273612Y-74454783D01*
X99539982Y-74631729D01*
X99584879Y-74661608D01*
X100623261Y-75352816D01*
X100658672Y-75921400D01*
X100674059Y-76172673D01*
X100686514Y-76387942D01*
X100696176Y-76573424D01*
X100703184Y-76735337D01*
X100707677Y-76879899D01*
X100709793Y-77013327D01*
X100709672Y-77141838D01*
X100707452Y-77271652D01*
X100703272Y-77408984D01*
X100697270Y-77560052D01*
X100695943Y-77590650D01*
X100676822Y-77956627D01*
X100652300Y-78310040D01*
X100622820Y-78648267D01*
X100588824Y-78968684D01*
X100550756Y-79268670D01*
X100509059Y-79545601D01*
X100464176Y-79796856D01*
X100416549Y-80019810D01*
X100366622Y-80211842D01*
X100314837Y-80370329D01*
X100261638Y-80492648D01*
X100207468Y-80576176D01*
X100188349Y-80595772D01*
X100141339Y-80637561D01*
X99968335Y-80548554D01*
X99889267Y-80505589D01*
X99785635Y-80445971D01*
X99668352Y-80376148D01*
X99548327Y-80302568D01*
X99488414Y-80264937D01*
X99251065Y-80114684D01*
X99046719Y-79985965D01*
X98872823Y-79877336D01*
X98726824Y-79787351D01*
X98606169Y-79714567D01*
X98508307Y-79657540D01*
X98430684Y-79614825D01*
X98370749Y-79584979D01*
X98325948Y-79566556D01*
X98293730Y-79558113D01*
X98271541Y-79558205D01*
X98256830Y-79565388D01*
X98255031Y-79567067D01*
X98247192Y-79575103D01*
X98242958Y-79583266D01*
X98245237Y-79593734D01*
X98256940Y-79608684D01*
X98280978Y-79630295D01*
X98320260Y-79660744D01*
X98377696Y-79702210D01*
X98456197Y-79756869D01*
X98558673Y-79826901D01*
X98688034Y-79914483D01*
X98847190Y-80021792D01*
X99001580Y-80125771D01*
X99345855Y-80359968D01*
X99658671Y-80577953D01*
X99945639Y-80783961D01*
X100212372Y-80982225D01*
X100464478Y-81176979D01*
X100707570Y-81372456D01*
X100947258Y-81572890D01*
X101139414Y-81738851D01*
X101641273Y-82164729D01*
X102145364Y-82566403D01*
X102648982Y-82942118D01*
X103149426Y-83290119D01*
X103643991Y-83608653D01*
X104129976Y-83895964D01*
X104604677Y-84150299D01*
X105065392Y-84369902D01*
X105424150Y-84520211D01*
X105630182Y-84599606D01*
X105813506Y-84666601D01*
X105980334Y-84722228D01*
X106136880Y-84767522D01*
X106289356Y-84803516D01*
X106443974Y-84831245D01*
X106606948Y-84851741D01*
X106784490Y-84866039D01*
X106982813Y-84875172D01*
X107208130Y-84880174D01*
X107466654Y-84882080D01*
X107599704Y-84882200D01*
X107861596Y-84881438D01*
X108087074Y-84878920D01*
X108282050Y-84873886D01*
X108452432Y-84865574D01*
X108604129Y-84853224D01*
X108743051Y-84836074D01*
X108875107Y-84813364D01*
X109006205Y-84784331D01*
X109142256Y-84748216D01*
X109289169Y-84704257D01*
X109452853Y-84651692D01*
X109493578Y-84638277D01*
X109806671Y-84531325D01*
X110092028Y-84425905D01*
X110363635Y-84316370D01*
X110635475Y-84197073D01*
X110921534Y-84062365D01*
X110930792Y-84057876D01*
X111248482Y-83898484D01*
X111558385Y-83731891D01*
X111864444Y-83555414D01*
X112170605Y-83366366D01*
X112480809Y-83162063D01*
X112799001Y-82939820D01*
X113129124Y-82696951D01*
X113475122Y-82430772D01*
X113840938Y-82138598D01*
X114230516Y-81817743D01*
X114272788Y-81782425D01*
X114501940Y-81592046D01*
X114733386Y-81402260D01*
X114964154Y-81215356D01*
X115191272Y-81033624D01*
X115411768Y-80859356D01*
X115622671Y-80694841D01*
X115821010Y-80542370D01*
X116003812Y-80404234D01*
X116168106Y-80282723D01*
X116310921Y-80180127D01*
X116429284Y-80098737D01*
X116520224Y-80040843D01*
X116563779Y-80016617D01*
X116632139Y-79985716D01*
X116683375Y-79971649D01*
X116717135Y-79976748D01*
X116733067Y-80003344D01*
X116730818Y-80053769D01*
X116710038Y-80130357D01*
X116670374Y-80235438D01*
X116611474Y-80371345D01*
X116532987Y-80540411D01*
X116462605Y-80687172D01*
X116403077Y-80812171D01*
X116351469Y-80924404D01*
X116310176Y-81018337D01*
X116281590Y-81088438D01*
X116268105Y-81129177D01*
X116267983Y-81137056D01*
X116300285Y-81151691D01*
X116364347Y-81171009D01*
X116450158Y-81192815D01*
X116547707Y-81214918D01*
X116646981Y-81235125D01*
X116737971Y-81251243D01*
X116810665Y-81261080D01*
X116843337Y-81263067D01*
X116901622Y-81260311D01*
X116948040Y-81247958D01*
X116996146Y-81219875D01*
X117059496Y-81169931D01*
X117071523Y-81159862D01*
X117142396Y-81098246D01*
X117209545Y-81036429D01*
X117257830Y-80988415D01*
X117338536Y-80912522D01*
X117423779Y-80850405D01*
X117503430Y-80808409D01*
X117567358Y-80792879D01*
X117569951Y-80792911D01*
X117643863Y-80814247D01*
X117701456Y-80871296D01*
X117742500Y-80960616D01*
X117766765Y-81078763D01*
X117774021Y-81222295D01*
X117764040Y-81387769D01*
X117736592Y-81571742D01*
X117691446Y-81770770D01*
X117645655Y-81928420D01*
X117589076Y-82087518D01*
X117521333Y-82246787D01*
X117446084Y-82399917D01*
X117366985Y-82540600D01*
X117287695Y-82662525D01*
X117211870Y-82759382D01*
X117143168Y-82824863D01*
X117116006Y-82842176D01*
X117040196Y-82866476D01*
X116945215Y-82877290D01*
X116852483Y-82873151D01*
X116808016Y-82863271D01*
X116776448Y-82848370D01*
X116752098Y-82822997D01*
X116733131Y-82781061D01*
X116717711Y-82716469D01*
X116704000Y-82623130D01*
X116690163Y-82494952D01*
X116686930Y-82461581D01*
X116671523Y-82310071D01*
X116656733Y-82193941D01*
X116640516Y-82106321D01*
X116620827Y-82040341D01*
X116595621Y-81989131D01*
X116562856Y-81945822D01*
X116521032Y-81904046D01*
X116464237Y-81859466D01*
X116386340Y-81808431D01*
X116297359Y-81756360D01*
X116207315Y-81708671D01*
X116126228Y-81670781D01*
X116064118Y-81648111D01*
X116040257Y-81644067D01*
X116001753Y-81661976D01*
X115941934Y-81715130D01*
X115861587Y-81802669D01*
X115761502Y-81923735D01*
X115642468Y-82077468D01*
X115642079Y-82077984D01*
X115454062Y-82319126D01*
X115244742Y-82572546D01*
X115011419Y-82841321D01*
X114751393Y-83128527D01*
X114461965Y-83437241D01*
X114314059Y-83591627D01*
X114222613Y-83687430D01*
X114142108Y-83773584D01*
X114076906Y-83845267D01*
X114031372Y-83897661D01*
X114009868Y-83925948D01*
X114008747Y-83928873D01*
X114023316Y-83965954D01*
X114065121Y-84029501D01*
X114131309Y-84116201D01*
X114219028Y-84222742D01*
X114325425Y-84345810D01*
X114447648Y-84482093D01*
X114582844Y-84628278D01*
X114728161Y-84781051D01*
X114851001Y-84907022D01*
X115365662Y-85428894D01*
X115588601Y-85323734D01*
X115794808Y-85235720D01*
X115981975Y-85176530D01*
X116159577Y-85143703D01*
X116315914Y-85134663D01*
X116404824Y-85135450D01*
X116462253Y-85139960D01*
X116499040Y-85150809D01*
X116526021Y-85170610D01*
X116543455Y-85189542D01*
X116573213Y-85235141D01*
X116587657Y-85292439D01*
X116591080Y-85366739D01*
X116572366Y-85530045D01*
X116517925Y-85707813D01*
X116430308Y-85896428D01*
X116312069Y-86092273D01*
X116165758Y-86291732D01*
X115993928Y-86491189D01*
X115799132Y-86687029D01*
X115583920Y-86875635D01*
X115454077Y-86977775D01*
X115330878Y-87064434D01*
X115191563Y-87151740D01*
X115045317Y-87234828D01*
X114901323Y-87308829D01*
X114768767Y-87368876D01*
X114656832Y-87410103D01*
X114618499Y-87420561D01*
X114507652Y-87438601D01*
X114391113Y-87444583D01*
X114281319Y-87438980D01*
X114190711Y-87422265D01*
X114142389Y-87402454D01*
X114081587Y-87355975D01*
X114046503Y-87300886D01*
X114032869Y-87226362D01*
X114035586Y-87131528D01*
X114044800Y-87059425D01*
X114062764Y-86990258D01*
X114093630Y-86912166D01*
X114141551Y-86813288D01*
X114158474Y-86780485D01*
X114254202Y-86596557D01*
X114331896Y-86445798D01*
X114392749Y-86323662D01*
X114437953Y-86225604D01*
X114468701Y-86147078D01*
X114486185Y-86083537D01*
X114491599Y-86030436D01*
X114486135Y-85983229D01*
X114470985Y-85937370D01*
X114447343Y-85888313D01*
X114416400Y-85831512D01*
X114410342Y-85820471D01*
X114354415Y-85720483D01*
X114284421Y-85598822D01*
X114203589Y-85460797D01*
X114115146Y-85311716D01*
X114022321Y-85156887D01*
X113928341Y-85001620D01*
X113836434Y-84851223D01*
X113749828Y-84711005D01*
X113671752Y-84586274D01*
X113605432Y-84482339D01*
X113554097Y-84404508D01*
X113521686Y-84358991D01*
X113484542Y-84311665D01*
X113025195Y-84598561D01*
X112764070Y-84760030D01*
X112531008Y-84900370D01*
X112319611Y-85023040D01*
X112123482Y-85131498D01*
X111936222Y-85229204D01*
X111751433Y-85319615D01*
X111562718Y-85406191D01*
X111401455Y-85476364D01*
X111216369Y-85557609D01*
X111068941Y-85629081D01*
X110956589Y-85694159D01*
X110876731Y-85756221D01*
X110826787Y-85818645D01*
X110804175Y-85884809D01*
X110806314Y-85958093D01*
X110830622Y-86041874D01*
X110874518Y-86139530D01*
X110882569Y-86155461D01*
X110968142Y-86308921D01*
X111050336Y-86428500D01*
X111127074Y-86511443D01*
X111177403Y-86546733D01*
X111235039Y-86566275D01*
X111326841Y-86582142D01*
X111456150Y-86594845D01*
X111523071Y-86599397D01*
X111662654Y-86609569D01*
X111767501Y-86621786D01*
X111845212Y-86637890D01*
X111903383Y-86659719D01*
X111949613Y-86689114D01*
X111971455Y-86708000D01*
X112009885Y-86771379D01*
X112012211Y-86854121D01*
X111978942Y-86954334D01*
X111910586Y-87070126D01*
X111854116Y-87144848D01*
X111743721Y-87256832D01*
X111597565Y-87367794D01*
X111422154Y-87474385D01*
X111223996Y-87573253D01*
X111009599Y-87661045D01*
X110785469Y-87734411D01*
X110632664Y-87773927D01*
X110526047Y-87792327D01*
X110397599Y-87805118D01*
X110258610Y-87812126D01*
X110120371Y-87813177D01*
X109994172Y-87808097D01*
X109891303Y-87796713D01*
X109843089Y-87786086D01*
X109751667Y-87749227D01*
X109693573Y-87701641D01*
X109669203Y-87641501D01*
X109678958Y-87566981D01*
X109723236Y-87476254D01*
X109802435Y-87367494D01*
X109916955Y-87238872D01*
X109975736Y-87178434D01*
X110094292Y-87054297D01*
X110182861Y-86948899D01*
X110245196Y-86855410D01*
X110285050Y-86767000D01*
X110306174Y-86676838D01*
X110312321Y-86578096D01*
X110312238Y-86565942D01*
X110304894Y-86482511D01*
X110286641Y-86381872D01*
X110260451Y-86274162D01*
X110229291Y-86169520D01*
X110196130Y-86078084D01*
X110163939Y-86009991D01*
X110140207Y-85978567D01*
X110099747Y-85960891D01*
X110033982Y-85956404D01*
X109938969Y-85965406D01*
X109810763Y-85988197D01*
X109701330Y-86012018D01*
X109433630Y-86065883D01*
X109130122Y-86112894D01*
X108789307Y-86153228D01*
X108409687Y-86187059D01*
X107989762Y-86214565D01*
X107965664Y-86215887D01*
X107715444Y-86229788D01*
X107503838Y-86242616D01*
X107327169Y-86255201D01*
X107181760Y-86268373D01*
X107063936Y-86282962D01*
X106970019Y-86299797D01*
X106896332Y-86319708D01*
X106839200Y-86343525D01*
X106794944Y-86372077D01*
X106759889Y-86406195D01*
X106730358Y-86446708D01*
X106702675Y-86494446D01*
X106698703Y-86501817D01*
X106688047Y-86522730D01*
X106679205Y-86544729D01*
X106672008Y-86571747D01*
X106666286Y-86607715D01*
X106661870Y-86656568D01*
X106658592Y-86722236D01*
X106656281Y-86808653D01*
X106654770Y-86919751D01*
X106653888Y-87059463D01*
X106653467Y-87231720D01*
X106653338Y-87440456D01*
X106653330Y-87556953D01*
X106653330Y-88527422D01*
X106872351Y-88609683D01*
X107081821Y-88693524D01*
X107251799Y-88773513D01*
X107384732Y-88851544D01*
X107483070Y-88929511D01*
X107549259Y-89009308D01*
X107585751Y-89092828D01*
X107595247Y-89168817D01*
X107576641Y-89271021D01*
X107520373Y-89363733D01*
X107425766Y-89447333D01*
X107292141Y-89522202D01*
X107118823Y-89588722D01*
X106905133Y-89647272D01*
X106655156Y-89697414D01*
X106548898Y-89712906D01*
X106428170Y-89725986D01*
X106303814Y-89735961D01*
X106186668Y-89742135D01*
X106087575Y-89743812D01*
X106017374Y-89740300D01*
X106007747Y-89738912D01*
X105963139Y-89732342D01*
X105889629Y-89722610D01*
X105800363Y-89711434D01*
X105764330Y-89707081D01*
X105397864Y-89642705D01*
X105043470Y-89539166D01*
X104705897Y-89397864D01*
X104691512Y-89390805D01*
X104546311Y-89310527D01*
X104441031Y-89231557D01*
X104373479Y-89150893D01*
X104341463Y-89065532D01*
X104342790Y-88972475D01*
X104353452Y-88928049D01*
X104395708Y-88841196D01*
X104469110Y-88762355D01*
X104575541Y-88690638D01*
X104716887Y-88625153D01*
X104895032Y-88565013D01*
X105111859Y-88509326D01*
X105338682Y-88462829D01*
X105433173Y-88444027D01*
X105512012Y-88426069D01*
X105565996Y-88411196D01*
X105585350Y-88402781D01*
X105594564Y-88378109D01*
X105612006Y-88317564D01*
X105636367Y-88226516D01*
X105666336Y-88110336D01*
X105700602Y-87974397D01*
X105737856Y-87824068D01*
X105776787Y-87664721D01*
X105816084Y-87501727D01*
X105854437Y-87340456D01*
X105890536Y-87186281D01*
X105923069Y-87044571D01*
X105950727Y-86920699D01*
X105972198Y-86820035D01*
X105975619Y-86803241D01*
X105997279Y-86687328D01*
X106015690Y-86572970D01*
X106028870Y-86473556D01*
X106034779Y-86404027D01*
X106035912Y-86331210D01*
X106028794Y-86285215D01*
X106007661Y-86250604D01*
X105966751Y-86211939D01*
X105961313Y-86207223D01*
X105916583Y-86174165D01*
X105857630Y-86141595D01*
X105780089Y-86107962D01*
X105679594Y-86071719D01*
X105551779Y-86031315D01*
X105392280Y-85985202D01*
X105196730Y-85931831D01*
X105150497Y-85919508D01*
X104723281Y-85798085D01*
X104301832Y-85661646D01*
X103872889Y-85505677D01*
X103497065Y-85356255D01*
X102997158Y-85150470D01*
X102962376Y-85196582D01*
X102942950Y-85228165D01*
X102907523Y-85291481D01*
X102859313Y-85380544D01*
X102801541Y-85489368D01*
X102737427Y-85611970D01*
X102700986Y-85682410D01*
X102474378Y-86122126D01*
X102645106Y-86375472D01*
X102710364Y-86474102D01*
X102770186Y-86567786D01*
X102818869Y-86647363D01*
X102850708Y-86703675D01*
X102855575Y-86713484D01*
X102882761Y-86793061D01*
X102894759Y-86875195D01*
X102890131Y-86944199D01*
X102879306Y-86971954D01*
X102832611Y-87010515D01*
X102752980Y-87039436D01*
X102648869Y-87057967D01*
X102528732Y-87065355D01*
X102401024Y-87060849D01*
X102274199Y-87043697D01*
X102216570Y-87030867D01*
X102044078Y-86974167D01*
X101854738Y-86889891D01*
X101658194Y-86783482D01*
X101464092Y-86660383D01*
X101282076Y-86526038D01*
X101198658Y-86456387D01*
X101043530Y-86310703D01*
X100917403Y-86171051D01*
X100821085Y-86039701D01*
X100755383Y-85918924D01*
X100721106Y-85810990D01*
X100719062Y-85718169D01*
X100750059Y-85642731D01*
X100814904Y-85586946D01*
X100879984Y-85561051D01*
X100950794Y-85546003D01*
X101026566Y-85540788D01*
X101116058Y-85545944D01*
X101228028Y-85562006D01*
X101371235Y-85589512D01*
X101382359Y-85591818D01*
X101494113Y-85612993D01*
X101603455Y-85630113D01*
X101696799Y-85641248D01*
X101753819Y-85644567D01*
X101871750Y-85644567D01*
X102217038Y-85262412D01*
X102312332Y-85156373D01*
X102396928Y-85061144D01*
X102467061Y-84981053D01*
X102518966Y-84920429D01*
X102548879Y-84883599D01*
X102554661Y-84874221D01*
X102535707Y-84861028D01*
X102486946Y-84827479D01*
X102413526Y-84777106D01*
X102320593Y-84713436D01*
X102213292Y-84640001D01*
X102165997Y-84607653D01*
X101948192Y-84455756D01*
X101743712Y-84306462D01*
X101546613Y-84154820D01*
X101350950Y-83995880D01*
X101150779Y-83824690D01*
X100940155Y-83636299D01*
X100713133Y-83425757D01*
X100478031Y-83201842D01*
X100373586Y-83101747D01*
X100278970Y-83011828D01*
X100198516Y-82936141D01*
X100136556Y-82878743D01*
X100097426Y-82843691D01*
X100085664Y-82834507D01*
X100062339Y-82845228D01*
X100011386Y-82880608D01*
X99936869Y-82937242D01*
X99842850Y-83011721D01*
X99733395Y-83100641D01*
X99612566Y-83200595D01*
X99484429Y-83308175D01*
X99353047Y-83419976D01*
X99222483Y-83532592D01*
X99096803Y-83642615D01*
X98980069Y-83746640D01*
X98876346Y-83841259D01*
X98808091Y-83905383D01*
X98723520Y-83989043D01*
X98634721Y-84081759D01*
X98546393Y-84178061D01*
X98463232Y-84272476D01*
X98389936Y-84359531D01*
X98331203Y-84433755D01*
X98291729Y-84489675D01*
X98276212Y-84521819D01*
X98276370Y-84524823D01*
X98286130Y-84549700D01*
X98309461Y-84605926D01*
X98343201Y-84685965D01*
X98384184Y-84782282D01*
X98398856Y-84816579D01*
X98483071Y-85031457D01*
X98538495Y-85216162D01*
X98565156Y-85371526D01*
X98563086Y-85498383D01*
X98532315Y-85597566D01*
X98472872Y-85669907D01*
X98430773Y-85697125D01*
X98345397Y-85721409D01*
X98233622Y-85723714D01*
X98104184Y-85705675D01*
X97965818Y-85668928D01*
X97827262Y-85615106D01*
X97731580Y-85566295D01*
X97560614Y-85456409D01*
X97387521Y-85322232D01*
X97215283Y-85167917D01*
X97046884Y-84997618D01*
X96885305Y-84815486D01*
X96733530Y-84625676D01*
X96594542Y-84432338D01*
X96471323Y-84239627D01*
X96366857Y-84051694D01*
X96284126Y-83872692D01*
X96226113Y-83706775D01*
X96195800Y-83558094D01*
X96196172Y-83430803D01*
X96196429Y-83429057D01*
X96231808Y-83322976D01*
X96299118Y-83240865D01*
X96392506Y-83187606D01*
X96506119Y-83168081D01*
X96509370Y-83168067D01*
X96614950Y-83180592D01*
X96743338Y-83215181D01*
X96884364Y-83267354D01*
X97027856Y-83332630D01*
X97163646Y-83406530D01*
X97281563Y-83484573D01*
X97344329Y-83535876D01*
X97405136Y-83589475D01*
X97448180Y-83619352D01*
X97486180Y-83631161D01*
X97531850Y-83630560D01*
X97552382Y-83628422D01*
X97633166Y-83611005D01*
X97735009Y-83574044D01*
X97859848Y-83516497D01*
X98009619Y-83437323D01*
X98186260Y-83335480D01*
X98391708Y-83209928D01*
X98627901Y-83059624D01*
X98711129Y-83005584D01*
X98935377Y-82856783D01*
X99131023Y-82721614D01*
X99296737Y-82601129D01*
X99431189Y-82496382D01*
X99533049Y-82408428D01*
X99600987Y-82338321D01*
X99633674Y-82287113D01*
X99636580Y-82272268D01*
X99625440Y-82246872D01*
X99594473Y-82192341D01*
X99547364Y-82114746D01*
X99487795Y-82020157D01*
X99421952Y-81918463D01*
X99330362Y-81776610D01*
X99243492Y-81637042D01*
X99158171Y-81494086D01*
X99071228Y-81342066D01*
X98979493Y-81175309D01*
X98879795Y-80988142D01*
X98768964Y-80774890D01*
X98643828Y-80529880D01*
X98622565Y-80487940D01*
X98548387Y-80343147D01*
X98477334Y-80207523D01*
X98412436Y-80086617D01*
X98356720Y-79985973D01*
X98313214Y-79911138D01*
X98284947Y-79867658D01*
X98281654Y-79863523D01*
X98220807Y-79791984D01*
X98108485Y-79852304D01*
X98059469Y-79880821D01*
X97981593Y-79928807D01*
X97881205Y-79992228D01*
X97764652Y-80067047D01*
X97638283Y-80149229D01*
X97546372Y-80209645D01*
X97096580Y-80506666D01*
X97095651Y-80900742D01*
X97094324Y-81039039D01*
X97091232Y-81175075D01*
X97086743Y-81298264D01*
X97081226Y-81398016D01*
X97076417Y-81452997D01*
X97064301Y-81539293D01*
X97049325Y-81595588D01*
X97026951Y-81634181D01*
X96999495Y-81661598D01*
X96960655Y-81689853D01*
X96919238Y-81703587D01*
X96860151Y-81706135D01*
X96809214Y-81703635D01*
X96725934Y-81694087D01*
X96657975Y-81673190D01*
X96585441Y-81633926D01*
X96553690Y-81613489D01*
X96401798Y-81496575D01*
X96248485Y-81347886D01*
X96097257Y-81173423D01*
X95951619Y-80979190D01*
X95815077Y-80771188D01*
X95691137Y-80555419D01*
X95583305Y-80337886D01*
X95495085Y-80124589D01*
X95429984Y-79921532D01*
X95391507Y-79734715D01*
X95382228Y-79607817D01*
X95392381Y-79450253D01*
X95422469Y-79323168D01*
X95471307Y-79228781D01*
X95537709Y-79169311D01*
X95620487Y-79146978D01*
X95628697Y-79146865D01*
X95705361Y-79155715D01*
X95789100Y-79183072D01*
X95884091Y-79231419D01*
X95994513Y-79303239D01*
X96124542Y-79401018D01*
X96278356Y-79527239D01*
X96301642Y-79546994D01*
X96384196Y-79617098D01*
X96457502Y-79679039D01*
X96514276Y-79726684D01*
X96547237Y-79753901D01*
X96549690Y-79755853D01*
X96565402Y-79762330D01*
X96591474Y-79761888D01*
X96632418Y-79753085D01*
X96692746Y-79734477D01*
X96776971Y-79704622D01*
X96889605Y-79662078D01*
X97035161Y-79605400D01*
X97099847Y-79579934D01*
X97349242Y-79479983D01*
X97559377Y-79392336D01*
X97731340Y-79316486D01*
X97866218Y-79251925D01*
X97965099Y-79198146D01*
X98029073Y-79154642D01*
X98046304Y-79138772D01*
X98092981Y-79089086D01*
X98050855Y-78932535D01*
X98001554Y-78727463D01*
X97953764Y-78486628D01*
X97908311Y-78216595D01*
X97866018Y-77923930D01*
X97827710Y-77615195D01*
X97794211Y-77296958D01*
X97766347Y-76975781D01*
X97744941Y-76658231D01*
X97732504Y-76397782D01*
X97726734Y-76254512D01*
X97720893Y-76125804D01*
X97715300Y-76017531D01*
X97710276Y-75935566D01*
X97706142Y-75885782D01*
X97703883Y-75873148D01*
X97680607Y-75866250D01*
X97624196Y-75854345D01*
X97543310Y-75839150D01*
X97453891Y-75823599D01*
X97277255Y-75798243D01*
X97075974Y-75777608D01*
X96846791Y-75761524D01*
X96586453Y-75749823D01*
X96291703Y-75742333D01*
X95959286Y-75738887D01*
X95822104Y-75738602D01*
X95129712Y-75738567D01*
X95107225Y-75822077D01*
X95044719Y-76033844D01*
X94980414Y-76208894D01*
X94911722Y-76352838D01*
X94836054Y-76471285D01*
X94772424Y-76547559D01*
X94686514Y-76630910D01*
X94611500Y-76682463D01*
X94537955Y-76707555D01*
X94481522Y-76712234D01*
X94384044Y-76693288D01*
X94296413Y-76636016D01*
X94218217Y-76539765D01*
X94149045Y-76403880D01*
X94088484Y-76227709D01*
X94036124Y-76010599D01*
X94034616Y-76003150D01*
X94017538Y-75887243D01*
X94005082Y-75738178D01*
X93997193Y-75564873D01*
X93993817Y-75376243D01*
X93994901Y-75181206D01*
X94000390Y-74988679D01*
X94010232Y-74807577D01*
X94024371Y-74646819D01*
X94042754Y-74515321D01*
X94043636Y-74510471D01*
X94102150Y-74240496D01*
X94171021Y-74009305D01*
X94249990Y-73817321D01*
X94338801Y-73664970D01*
X94437198Y-73552674D01*
X94544922Y-73480858D01*
X94661716Y-73449947D01*
X94687165Y-73448695D01*
X94748004Y-73452556D01*
G37*
X94748004Y-73452556D02*
X94791991Y-73472312D01*
X94837948Y-73517094D01*
X94845151Y-73525348D01*
X94929860Y-73643521D01*
X95010158Y-73793004D01*
X95081629Y-73962776D01*
X95139857Y-74141812D01*
X95180426Y-74319091D01*
X95190892Y-74388411D01*
X95208782Y-74496397D01*
X95235320Y-74572533D01*
X95277730Y-74627280D01*
X95343236Y-74671097D01*
X95406680Y-74700859D01*
X95489354Y-74731921D01*
X95605771Y-74769211D01*
X95750410Y-74811428D01*
X95917750Y-74857273D01*
X96102269Y-74905444D01*
X96298445Y-74954642D01*
X96500757Y-75003566D01*
X96703685Y-75050918D01*
X96901705Y-75095396D01*
X97089298Y-75135700D01*
X97260942Y-75170532D01*
X97411114Y-75198589D01*
X97534295Y-75218573D01*
X97624962Y-75229183D01*
X97656333Y-75230567D01*
X97694021Y-75228598D01*
X97718010Y-75216584D01*
X97735246Y-75185361D01*
X97752675Y-75125769D01*
X97761166Y-75092295D01*
X97775333Y-75032109D01*
X97796248Y-74938219D01*
X97822233Y-74818409D01*
X97851610Y-74680459D01*
X97882702Y-74532154D01*
X97901486Y-74441420D01*
X97941410Y-74248402D01*
X97974121Y-74092907D01*
X98000713Y-73970947D01*
X98022285Y-73878538D01*
X98039933Y-73811691D01*
X98054753Y-73766421D01*
X98067842Y-73738740D01*
X98080296Y-73724661D01*
X98093212Y-73720199D01*
X98099833Y-73720297D01*
X98123822Y-73727140D01*
X98163494Y-73745571D01*
X98220752Y-73776795D01*
X98297496Y-73822018D01*
X98395626Y-73882443D01*
X98517044Y-73959275D01*
X98663650Y-74053721D01*
X98837347Y-74166984D01*
X99040033Y-74300270D01*
X99273612Y-74454783D01*
X99539982Y-74631729D01*
X99584879Y-74661608D01*
X100623261Y-75352816D01*
X100658672Y-75921400D01*
X100674059Y-76172673D01*
X100686514Y-76387942D01*
X100696176Y-76573424D01*
X100703184Y-76735337D01*
X100707677Y-76879899D01*
X100709793Y-77013327D01*
X100709672Y-77141838D01*
X100707452Y-77271652D01*
X100703272Y-77408984D01*
X100697270Y-77560052D01*
X100695943Y-77590650D01*
X100676822Y-77956627D01*
X100652300Y-78310040D01*
X100622820Y-78648267D01*
X100588824Y-78968684D01*
X100550756Y-79268670D01*
X100509059Y-79545601D01*
X100464176Y-79796856D01*
X100416549Y-80019810D01*
X100366622Y-80211842D01*
X100314837Y-80370329D01*
X100261638Y-80492648D01*
X100207468Y-80576176D01*
X100188349Y-80595772D01*
X100141339Y-80637561D01*
X99968335Y-80548554D01*
X99889267Y-80505589D01*
X99785635Y-80445971D01*
X99668352Y-80376148D01*
X99548327Y-80302568D01*
X99488414Y-80264937D01*
X99251065Y-80114684D01*
X99046719Y-79985965D01*
X98872823Y-79877336D01*
X98726824Y-79787351D01*
X98606169Y-79714567D01*
X98508307Y-79657540D01*
X98430684Y-79614825D01*
X98370749Y-79584979D01*
X98325948Y-79566556D01*
X98293730Y-79558113D01*
X98271541Y-79558205D01*
X98256830Y-79565388D01*
X98255031Y-79567067D01*
X98247192Y-79575103D01*
X98242958Y-79583266D01*
X98245237Y-79593734D01*
X98256940Y-79608684D01*
X98280978Y-79630295D01*
X98320260Y-79660744D01*
X98377696Y-79702210D01*
X98456197Y-79756869D01*
X98558673Y-79826901D01*
X98688034Y-79914483D01*
X98847190Y-80021792D01*
X99001580Y-80125771D01*
X99345855Y-80359968D01*
X99658671Y-80577953D01*
X99945639Y-80783961D01*
X100212372Y-80982225D01*
X100464478Y-81176979D01*
X100707570Y-81372456D01*
X100947258Y-81572890D01*
X101139414Y-81738851D01*
X101641273Y-82164729D01*
X102145364Y-82566403D01*
X102648982Y-82942118D01*
X103149426Y-83290119D01*
X103643991Y-83608653D01*
X104129976Y-83895964D01*
X104604677Y-84150299D01*
X105065392Y-84369902D01*
X105424150Y-84520211D01*
X105630182Y-84599606D01*
X105813506Y-84666601D01*
X105980334Y-84722228D01*
X106136880Y-84767522D01*
X106289356Y-84803516D01*
X106443974Y-84831245D01*
X106606948Y-84851741D01*
X106784490Y-84866039D01*
X106982813Y-84875172D01*
X107208130Y-84880174D01*
X107466654Y-84882080D01*
X107599704Y-84882200D01*
X107861596Y-84881438D01*
X108087074Y-84878920D01*
X108282050Y-84873886D01*
X108452432Y-84865574D01*
X108604129Y-84853224D01*
X108743051Y-84836074D01*
X108875107Y-84813364D01*
X109006205Y-84784331D01*
X109142256Y-84748216D01*
X109289169Y-84704257D01*
X109452853Y-84651692D01*
X109493578Y-84638277D01*
X109806671Y-84531325D01*
X110092028Y-84425905D01*
X110363635Y-84316370D01*
X110635475Y-84197073D01*
X110921534Y-84062365D01*
X110930792Y-84057876D01*
X111248482Y-83898484D01*
X111558385Y-83731891D01*
X111864444Y-83555414D01*
X112170605Y-83366366D01*
X112480809Y-83162063D01*
X112799001Y-82939820D01*
X113129124Y-82696951D01*
X113475122Y-82430772D01*
X113840938Y-82138598D01*
X114230516Y-81817743D01*
X114272788Y-81782425D01*
X114501940Y-81592046D01*
X114733386Y-81402260D01*
X114964154Y-81215356D01*
X115191272Y-81033624D01*
X115411768Y-80859356D01*
X115622671Y-80694841D01*
X115821010Y-80542370D01*
X116003812Y-80404234D01*
X116168106Y-80282723D01*
X116310921Y-80180127D01*
X116429284Y-80098737D01*
X116520224Y-80040843D01*
X116563779Y-80016617D01*
X116632139Y-79985716D01*
X116683375Y-79971649D01*
X116717135Y-79976748D01*
X116733067Y-80003344D01*
X116730818Y-80053769D01*
X116710038Y-80130357D01*
X116670374Y-80235438D01*
X116611474Y-80371345D01*
X116532987Y-80540411D01*
X116462605Y-80687172D01*
X116403077Y-80812171D01*
X116351469Y-80924404D01*
X116310176Y-81018337D01*
X116281590Y-81088438D01*
X116268105Y-81129177D01*
X116267983Y-81137056D01*
X116300285Y-81151691D01*
X116364347Y-81171009D01*
X116450158Y-81192815D01*
X116547707Y-81214918D01*
X116646981Y-81235125D01*
X116737971Y-81251243D01*
X116810665Y-81261080D01*
X116843337Y-81263067D01*
X116901622Y-81260311D01*
X116948040Y-81247958D01*
X116996146Y-81219875D01*
X117059496Y-81169931D01*
X117071523Y-81159862D01*
X117142396Y-81098246D01*
X117209545Y-81036429D01*
X117257830Y-80988415D01*
X117338536Y-80912522D01*
X117423779Y-80850405D01*
X117503430Y-80808409D01*
X117567358Y-80792879D01*
X117569951Y-80792911D01*
X117643863Y-80814247D01*
X117701456Y-80871296D01*
X117742500Y-80960616D01*
X117766765Y-81078763D01*
X117774021Y-81222295D01*
X117764040Y-81387769D01*
X117736592Y-81571742D01*
X117691446Y-81770770D01*
X117645655Y-81928420D01*
X117589076Y-82087518D01*
X117521333Y-82246787D01*
X117446084Y-82399917D01*
X117366985Y-82540600D01*
X117287695Y-82662525D01*
X117211870Y-82759382D01*
X117143168Y-82824863D01*
X117116006Y-82842176D01*
X117040196Y-82866476D01*
X116945215Y-82877290D01*
X116852483Y-82873151D01*
X116808016Y-82863271D01*
X116776448Y-82848370D01*
X116752098Y-82822997D01*
X116733131Y-82781061D01*
X116717711Y-82716469D01*
X116704000Y-82623130D01*
X116690163Y-82494952D01*
X116686930Y-82461581D01*
X116671523Y-82310071D01*
X116656733Y-82193941D01*
X116640516Y-82106321D01*
X116620827Y-82040341D01*
X116595621Y-81989131D01*
X116562856Y-81945822D01*
X116521032Y-81904046D01*
X116464237Y-81859466D01*
X116386340Y-81808431D01*
X116297359Y-81756360D01*
X116207315Y-81708671D01*
X116126228Y-81670781D01*
X116064118Y-81648111D01*
X116040257Y-81644067D01*
X116001753Y-81661976D01*
X115941934Y-81715130D01*
X115861587Y-81802669D01*
X115761502Y-81923735D01*
X115642468Y-82077468D01*
X115642079Y-82077984D01*
X115454062Y-82319126D01*
X115244742Y-82572546D01*
X115011419Y-82841321D01*
X114751393Y-83128527D01*
X114461965Y-83437241D01*
X114314059Y-83591627D01*
X114222613Y-83687430D01*
X114142108Y-83773584D01*
X114076906Y-83845267D01*
X114031372Y-83897661D01*
X114009868Y-83925948D01*
X114008747Y-83928873D01*
X114023316Y-83965954D01*
X114065121Y-84029501D01*
X114131309Y-84116201D01*
X114219028Y-84222742D01*
X114325425Y-84345810D01*
X114447648Y-84482093D01*
X114582844Y-84628278D01*
X114728161Y-84781051D01*
X114851001Y-84907022D01*
X115365662Y-85428894D01*
X115588601Y-85323734D01*
X115794808Y-85235720D01*
X115981975Y-85176530D01*
X116159577Y-85143703D01*
X116315914Y-85134663D01*
X116404824Y-85135450D01*
X116462253Y-85139960D01*
X116499040Y-85150809D01*
X116526021Y-85170610D01*
X116543455Y-85189542D01*
X116573213Y-85235141D01*
X116587657Y-85292439D01*
X116591080Y-85366739D01*
X116572366Y-85530045D01*
X116517925Y-85707813D01*
X116430308Y-85896428D01*
X116312069Y-86092273D01*
X116165758Y-86291732D01*
X115993928Y-86491189D01*
X115799132Y-86687029D01*
X115583920Y-86875635D01*
X115454077Y-86977775D01*
X115330878Y-87064434D01*
X115191563Y-87151740D01*
X115045317Y-87234828D01*
X114901323Y-87308829D01*
X114768767Y-87368876D01*
X114656832Y-87410103D01*
X114618499Y-87420561D01*
X114507652Y-87438601D01*
X114391113Y-87444583D01*
X114281319Y-87438980D01*
X114190711Y-87422265D01*
X114142389Y-87402454D01*
X114081587Y-87355975D01*
X114046503Y-87300886D01*
X114032869Y-87226362D01*
X114035586Y-87131528D01*
X114044800Y-87059425D01*
X114062764Y-86990258D01*
X114093630Y-86912166D01*
X114141551Y-86813288D01*
X114158474Y-86780485D01*
X114254202Y-86596557D01*
X114331896Y-86445798D01*
X114392749Y-86323662D01*
X114437953Y-86225604D01*
X114468701Y-86147078D01*
X114486185Y-86083537D01*
X114491599Y-86030436D01*
X114486135Y-85983229D01*
X114470985Y-85937370D01*
X114447343Y-85888313D01*
X114416400Y-85831512D01*
X114410342Y-85820471D01*
X114354415Y-85720483D01*
X114284421Y-85598822D01*
X114203589Y-85460797D01*
X114115146Y-85311716D01*
X114022321Y-85156887D01*
X113928341Y-85001620D01*
X113836434Y-84851223D01*
X113749828Y-84711005D01*
X113671752Y-84586274D01*
X113605432Y-84482339D01*
X113554097Y-84404508D01*
X113521686Y-84358991D01*
X113484542Y-84311665D01*
X113025195Y-84598561D01*
X112764070Y-84760030D01*
X112531008Y-84900370D01*
X112319611Y-85023040D01*
X112123482Y-85131498D01*
X111936222Y-85229204D01*
X111751433Y-85319615D01*
X111562718Y-85406191D01*
X111401455Y-85476364D01*
X111216369Y-85557609D01*
X111068941Y-85629081D01*
X110956589Y-85694159D01*
X110876731Y-85756221D01*
X110826787Y-85818645D01*
X110804175Y-85884809D01*
X110806314Y-85958093D01*
X110830622Y-86041874D01*
X110874518Y-86139530D01*
X110882569Y-86155461D01*
X110968142Y-86308921D01*
X111050336Y-86428500D01*
X111127074Y-86511443D01*
X111177403Y-86546733D01*
X111235039Y-86566275D01*
X111326841Y-86582142D01*
X111456150Y-86594845D01*
X111523071Y-86599397D01*
X111662654Y-86609569D01*
X111767501Y-86621786D01*
X111845212Y-86637890D01*
X111903383Y-86659719D01*
X111949613Y-86689114D01*
X111971455Y-86708000D01*
X112009885Y-86771379D01*
X112012211Y-86854121D01*
X111978942Y-86954334D01*
X111910586Y-87070126D01*
X111854116Y-87144848D01*
X111743721Y-87256832D01*
X111597565Y-87367794D01*
X111422154Y-87474385D01*
X111223996Y-87573253D01*
X111009599Y-87661045D01*
X110785469Y-87734411D01*
X110632664Y-87773927D01*
X110526047Y-87792327D01*
X110397599Y-87805118D01*
X110258610Y-87812126D01*
X110120371Y-87813177D01*
X109994172Y-87808097D01*
X109891303Y-87796713D01*
X109843089Y-87786086D01*
X109751667Y-87749227D01*
X109693573Y-87701641D01*
X109669203Y-87641501D01*
X109678958Y-87566981D01*
X109723236Y-87476254D01*
X109802435Y-87367494D01*
X109916955Y-87238872D01*
X109975736Y-87178434D01*
X110094292Y-87054297D01*
X110182861Y-86948899D01*
X110245196Y-86855410D01*
X110285050Y-86767000D01*
X110306174Y-86676838D01*
X110312321Y-86578096D01*
X110312238Y-86565942D01*
X110304894Y-86482511D01*
X110286641Y-86381872D01*
X110260451Y-86274162D01*
X110229291Y-86169520D01*
X110196130Y-86078084D01*
X110163939Y-86009991D01*
X110140207Y-85978567D01*
X110099747Y-85960891D01*
X110033982Y-85956404D01*
X109938969Y-85965406D01*
X109810763Y-85988197D01*
X109701330Y-86012018D01*
X109433630Y-86065883D01*
X109130122Y-86112894D01*
X108789307Y-86153228D01*
X108409687Y-86187059D01*
X107989762Y-86214565D01*
X107965664Y-86215887D01*
X107715444Y-86229788D01*
X107503838Y-86242616D01*
X107327169Y-86255201D01*
X107181760Y-86268373D01*
X107063936Y-86282962D01*
X106970019Y-86299797D01*
X106896332Y-86319708D01*
X106839200Y-86343525D01*
X106794944Y-86372077D01*
X106759889Y-86406195D01*
X106730358Y-86446708D01*
X106702675Y-86494446D01*
X106698703Y-86501817D01*
X106688047Y-86522730D01*
X106679205Y-86544729D01*
X106672008Y-86571747D01*
X106666286Y-86607715D01*
X106661870Y-86656568D01*
X106658592Y-86722236D01*
X106656281Y-86808653D01*
X106654770Y-86919751D01*
X106653888Y-87059463D01*
X106653467Y-87231720D01*
X106653338Y-87440456D01*
X106653330Y-87556953D01*
X106653330Y-88527422D01*
X106872351Y-88609683D01*
X107081821Y-88693524D01*
X107251799Y-88773513D01*
X107384732Y-88851544D01*
X107483070Y-88929511D01*
X107549259Y-89009308D01*
X107585751Y-89092828D01*
X107595247Y-89168817D01*
X107576641Y-89271021D01*
X107520373Y-89363733D01*
X107425766Y-89447333D01*
X107292141Y-89522202D01*
X107118823Y-89588722D01*
X106905133Y-89647272D01*
X106655156Y-89697414D01*
X106548898Y-89712906D01*
X106428170Y-89725986D01*
X106303814Y-89735961D01*
X106186668Y-89742135D01*
X106087575Y-89743812D01*
X106017374Y-89740300D01*
X106007747Y-89738912D01*
X105963139Y-89732342D01*
X105889629Y-89722610D01*
X105800363Y-89711434D01*
X105764330Y-89707081D01*
X105397864Y-89642705D01*
X105043470Y-89539166D01*
X104705897Y-89397864D01*
X104691512Y-89390805D01*
X104546311Y-89310527D01*
X104441031Y-89231557D01*
X104373479Y-89150893D01*
X104341463Y-89065532D01*
X104342790Y-88972475D01*
X104353452Y-88928049D01*
X104395708Y-88841196D01*
X104469110Y-88762355D01*
X104575541Y-88690638D01*
X104716887Y-88625153D01*
X104895032Y-88565013D01*
X105111859Y-88509326D01*
X105338682Y-88462829D01*
X105433173Y-88444027D01*
X105512012Y-88426069D01*
X105565996Y-88411196D01*
X105585350Y-88402781D01*
X105594564Y-88378109D01*
X105612006Y-88317564D01*
X105636367Y-88226516D01*
X105666336Y-88110336D01*
X105700602Y-87974397D01*
X105737856Y-87824068D01*
X105776787Y-87664721D01*
X105816084Y-87501727D01*
X105854437Y-87340456D01*
X105890536Y-87186281D01*
X105923069Y-87044571D01*
X105950727Y-86920699D01*
X105972198Y-86820035D01*
X105975619Y-86803241D01*
X105997279Y-86687328D01*
X106015690Y-86572970D01*
X106028870Y-86473556D01*
X106034779Y-86404027D01*
X106035912Y-86331210D01*
X106028794Y-86285215D01*
X106007661Y-86250604D01*
X105966751Y-86211939D01*
X105961313Y-86207223D01*
X105916583Y-86174165D01*
X105857630Y-86141595D01*
X105780089Y-86107962D01*
X105679594Y-86071719D01*
X105551779Y-86031315D01*
X105392280Y-85985202D01*
X105196730Y-85931831D01*
X105150497Y-85919508D01*
X104723281Y-85798085D01*
X104301832Y-85661646D01*
X103872889Y-85505677D01*
X103497065Y-85356255D01*
X102997158Y-85150470D01*
X102962376Y-85196582D01*
X102942950Y-85228165D01*
X102907523Y-85291481D01*
X102859313Y-85380544D01*
X102801541Y-85489368D01*
X102737427Y-85611970D01*
X102700986Y-85682410D01*
X102474378Y-86122126D01*
X102645106Y-86375472D01*
X102710364Y-86474102D01*
X102770186Y-86567786D01*
X102818869Y-86647363D01*
X102850708Y-86703675D01*
X102855575Y-86713484D01*
X102882761Y-86793061D01*
X102894759Y-86875195D01*
X102890131Y-86944199D01*
X102879306Y-86971954D01*
X102832611Y-87010515D01*
X102752980Y-87039436D01*
X102648869Y-87057967D01*
X102528732Y-87065355D01*
X102401024Y-87060849D01*
X102274199Y-87043697D01*
X102216570Y-87030867D01*
X102044078Y-86974167D01*
X101854738Y-86889891D01*
X101658194Y-86783482D01*
X101464092Y-86660383D01*
X101282076Y-86526038D01*
X101198658Y-86456387D01*
X101043530Y-86310703D01*
X100917403Y-86171051D01*
X100821085Y-86039701D01*
X100755383Y-85918924D01*
X100721106Y-85810990D01*
X100719062Y-85718169D01*
X100750059Y-85642731D01*
X100814904Y-85586946D01*
X100879984Y-85561051D01*
X100950794Y-85546003D01*
X101026566Y-85540788D01*
X101116058Y-85545944D01*
X101228028Y-85562006D01*
X101371235Y-85589512D01*
X101382359Y-85591818D01*
X101494113Y-85612993D01*
X101603455Y-85630113D01*
X101696799Y-85641248D01*
X101753819Y-85644567D01*
X101871750Y-85644567D01*
X102217038Y-85262412D01*
X102312332Y-85156373D01*
X102396928Y-85061144D01*
X102467061Y-84981053D01*
X102518966Y-84920429D01*
X102548879Y-84883599D01*
X102554661Y-84874221D01*
X102535707Y-84861028D01*
X102486946Y-84827479D01*
X102413526Y-84777106D01*
X102320593Y-84713436D01*
X102213292Y-84640001D01*
X102165997Y-84607653D01*
X101948192Y-84455756D01*
X101743712Y-84306462D01*
X101546613Y-84154820D01*
X101350950Y-83995880D01*
X101150779Y-83824690D01*
X100940155Y-83636299D01*
X100713133Y-83425757D01*
X100478031Y-83201842D01*
X100373586Y-83101747D01*
X100278970Y-83011828D01*
X100198516Y-82936141D01*
X100136556Y-82878743D01*
X100097426Y-82843691D01*
X100085664Y-82834507D01*
X100062339Y-82845228D01*
X100011386Y-82880608D01*
X99936869Y-82937242D01*
X99842850Y-83011721D01*
X99733395Y-83100641D01*
X99612566Y-83200595D01*
X99484429Y-83308175D01*
X99353047Y-83419976D01*
X99222483Y-83532592D01*
X99096803Y-83642615D01*
X98980069Y-83746640D01*
X98876346Y-83841259D01*
X98808091Y-83905383D01*
X98723520Y-83989043D01*
X98634721Y-84081759D01*
X98546393Y-84178061D01*
X98463232Y-84272476D01*
X98389936Y-84359531D01*
X98331203Y-84433755D01*
X98291729Y-84489675D01*
X98276212Y-84521819D01*
X98276370Y-84524823D01*
X98286130Y-84549700D01*
X98309461Y-84605926D01*
X98343201Y-84685965D01*
X98384184Y-84782282D01*
X98398856Y-84816579D01*
X98483071Y-85031457D01*
X98538495Y-85216162D01*
X98565156Y-85371526D01*
X98563086Y-85498383D01*
X98532315Y-85597566D01*
X98472872Y-85669907D01*
X98430773Y-85697125D01*
X98345397Y-85721409D01*
X98233622Y-85723714D01*
X98104184Y-85705675D01*
X97965818Y-85668928D01*
X97827262Y-85615106D01*
X97731580Y-85566295D01*
X97560614Y-85456409D01*
X97387521Y-85322232D01*
X97215283Y-85167917D01*
X97046884Y-84997618D01*
X96885305Y-84815486D01*
X96733530Y-84625676D01*
X96594542Y-84432338D01*
X96471323Y-84239627D01*
X96366857Y-84051694D01*
X96284126Y-83872692D01*
X96226113Y-83706775D01*
X96195800Y-83558094D01*
X96196172Y-83430803D01*
X96196429Y-83429057D01*
X96231808Y-83322976D01*
X96299118Y-83240865D01*
X96392506Y-83187606D01*
X96506119Y-83168081D01*
X96509370Y-83168067D01*
X96614950Y-83180592D01*
X96743338Y-83215181D01*
X96884364Y-83267354D01*
X97027856Y-83332630D01*
X97163646Y-83406530D01*
X97281563Y-83484573D01*
X97344329Y-83535876D01*
X97405136Y-83589475D01*
X97448180Y-83619352D01*
X97486180Y-83631161D01*
X97531850Y-83630560D01*
X97552382Y-83628422D01*
X97633166Y-83611005D01*
X97735009Y-83574044D01*
X97859848Y-83516497D01*
X98009619Y-83437323D01*
X98186260Y-83335480D01*
X98391708Y-83209928D01*
X98627901Y-83059624D01*
X98711129Y-83005584D01*
X98935377Y-82856783D01*
X99131023Y-82721614D01*
X99296737Y-82601129D01*
X99431189Y-82496382D01*
X99533049Y-82408428D01*
X99600987Y-82338321D01*
X99633674Y-82287113D01*
X99636580Y-82272268D01*
X99625440Y-82246872D01*
X99594473Y-82192341D01*
X99547364Y-82114746D01*
X99487795Y-82020157D01*
X99421952Y-81918463D01*
X99330362Y-81776610D01*
X99243492Y-81637042D01*
X99158171Y-81494086D01*
X99071228Y-81342066D01*
X98979493Y-81175309D01*
X98879795Y-80988142D01*
X98768964Y-80774890D01*
X98643828Y-80529880D01*
X98622565Y-80487940D01*
X98548387Y-80343147D01*
X98477334Y-80207523D01*
X98412436Y-80086617D01*
X98356720Y-79985973D01*
X98313214Y-79911138D01*
X98284947Y-79867658D01*
X98281654Y-79863523D01*
X98220807Y-79791984D01*
X98108485Y-79852304D01*
X98059469Y-79880821D01*
X97981593Y-79928807D01*
X97881205Y-79992228D01*
X97764652Y-80067047D01*
X97638283Y-80149229D01*
X97546372Y-80209645D01*
X97096580Y-80506666D01*
X97095651Y-80900742D01*
X97094324Y-81039039D01*
X97091232Y-81175075D01*
X97086743Y-81298264D01*
X97081226Y-81398016D01*
X97076417Y-81452997D01*
X97064301Y-81539293D01*
X97049325Y-81595588D01*
X97026951Y-81634181D01*
X96999495Y-81661598D01*
X96960655Y-81689853D01*
X96919238Y-81703587D01*
X96860151Y-81706135D01*
X96809214Y-81703635D01*
X96725934Y-81694087D01*
X96657975Y-81673190D01*
X96585441Y-81633926D01*
X96553690Y-81613489D01*
X96401798Y-81496575D01*
X96248485Y-81347886D01*
X96097257Y-81173423D01*
X95951619Y-80979190D01*
X95815077Y-80771188D01*
X95691137Y-80555419D01*
X95583305Y-80337886D01*
X95495085Y-80124589D01*
X95429984Y-79921532D01*
X95391507Y-79734715D01*
X95382228Y-79607817D01*
X95392381Y-79450253D01*
X95422469Y-79323168D01*
X95471307Y-79228781D01*
X95537709Y-79169311D01*
X95620487Y-79146978D01*
X95628697Y-79146865D01*
X95705361Y-79155715D01*
X95789100Y-79183072D01*
X95884091Y-79231419D01*
X95994513Y-79303239D01*
X96124542Y-79401018D01*
X96278356Y-79527239D01*
X96301642Y-79546994D01*
X96384196Y-79617098D01*
X96457502Y-79679039D01*
X96514276Y-79726684D01*
X96547237Y-79753901D01*
X96549690Y-79755853D01*
X96565402Y-79762330D01*
X96591474Y-79761888D01*
X96632418Y-79753085D01*
X96692746Y-79734477D01*
X96776971Y-79704622D01*
X96889605Y-79662078D01*
X97035161Y-79605400D01*
X97099847Y-79579934D01*
X97349242Y-79479983D01*
X97559377Y-79392336D01*
X97731340Y-79316486D01*
X97866218Y-79251925D01*
X97965099Y-79198146D01*
X98029073Y-79154642D01*
X98046304Y-79138772D01*
X98092981Y-79089086D01*
X98050855Y-78932535D01*
X98001554Y-78727463D01*
X97953764Y-78486628D01*
X97908311Y-78216595D01*
X97866018Y-77923930D01*
X97827710Y-77615195D01*
X97794211Y-77296958D01*
X97766347Y-76975781D01*
X97744941Y-76658231D01*
X97732504Y-76397782D01*
X97726734Y-76254512D01*
X97720893Y-76125804D01*
X97715300Y-76017531D01*
X97710276Y-75935566D01*
X97706142Y-75885782D01*
X97703883Y-75873148D01*
X97680607Y-75866250D01*
X97624196Y-75854345D01*
X97543310Y-75839150D01*
X97453891Y-75823599D01*
X97277255Y-75798243D01*
X97075974Y-75777608D01*
X96846791Y-75761524D01*
X96586453Y-75749823D01*
X96291703Y-75742333D01*
X95959286Y-75738887D01*
X95822104Y-75738602D01*
X95129712Y-75738567D01*
X95107225Y-75822077D01*
X95044719Y-76033844D01*
X94980414Y-76208894D01*
X94911722Y-76352838D01*
X94836054Y-76471285D01*
X94772424Y-76547559D01*
X94686514Y-76630910D01*
X94611500Y-76682463D01*
X94537955Y-76707555D01*
X94481522Y-76712234D01*
X94384044Y-76693288D01*
X94296413Y-76636016D01*
X94218217Y-76539765D01*
X94149045Y-76403880D01*
X94088484Y-76227709D01*
X94036124Y-76010599D01*
X94034616Y-76003150D01*
X94017538Y-75887243D01*
X94005082Y-75738178D01*
X93997193Y-75564873D01*
X93993817Y-75376243D01*
X93994901Y-75181206D01*
X94000390Y-74988679D01*
X94010232Y-74807577D01*
X94024371Y-74646819D01*
X94042754Y-74515321D01*
X94043636Y-74510471D01*
X94102150Y-74240496D01*
X94171021Y-74009305D01*
X94249990Y-73817321D01*
X94338801Y-73664970D01*
X94437198Y-73552674D01*
X94544922Y-73480858D01*
X94661716Y-73449947D01*
X94687165Y-73448695D01*
X94748004Y-73452556D01*
G36*
X109479080Y-99106567D02*
G01*
X108717080Y-99106567D01*
X108717080Y-98640900D01*
X109479080Y-98640900D01*
X109479080Y-99106567D01*
G37*
X109479080Y-99106567D02*
X108717080Y-99106567D01*
X108717080Y-98640900D01*
X109479080Y-98640900D01*
X109479080Y-99106567D01*
G36*
X105647914Y-99106567D02*
G01*
X104864747Y-99106567D01*
X104864747Y-98640900D01*
X105647914Y-98640900D01*
X105647914Y-99106567D01*
G37*
X105647914Y-99106567D02*
X104864747Y-99106567D01*
X104864747Y-98640900D01*
X105647914Y-98640900D01*
X105647914Y-99106567D01*
G36*
X116766575Y-99291358D02*
G01*
X116826227Y-99308811D01*
X116950804Y-99370814D01*
X117057711Y-99465440D01*
X117137077Y-99583703D01*
X117143703Y-99597771D01*
X117157665Y-99629852D01*
X117168847Y-99660959D01*
X117177608Y-99696127D01*
X117184311Y-99740391D01*
X117189316Y-99798784D01*
X117192984Y-99876342D01*
X117195677Y-99978098D01*
X117197755Y-100109086D01*
X117199580Y-100274343D01*
X117200708Y-100392442D01*
X117207086Y-101075067D01*
X116421747Y-101075067D01*
X116421747Y-100545220D01*
X116421197Y-100361825D01*
X116418955Y-100215851D01*
X116414128Y-100102394D01*
X116405827Y-100016550D01*
X116393161Y-99953414D01*
X116375238Y-99908082D01*
X116351168Y-99875649D01*
X116320061Y-99851211D01*
X116292907Y-99835865D01*
X116204665Y-99810456D01*
X116108263Y-99814114D01*
X116020688Y-99844886D01*
X115983784Y-99871407D01*
X115950501Y-99904722D01*
X115924495Y-99939720D01*
X115904876Y-99981900D01*
X115890756Y-100036763D01*
X115881245Y-100109806D01*
X115875454Y-100206530D01*
X115872494Y-100332433D01*
X115871476Y-100493015D01*
X115871414Y-100566387D01*
X115871414Y-101075067D01*
X115088247Y-101075067D01*
X115088247Y-99297067D01*
X115807914Y-99297067D01*
X115807914Y-99570535D01*
X115897663Y-99487663D01*
X116041784Y-99382469D01*
X116208210Y-99308802D01*
X116389468Y-99268101D01*
X116578081Y-99261806D01*
X116766575Y-99291358D01*
G37*
X116766575Y-99291358D02*
X116826227Y-99308811D01*
X116950804Y-99370814D01*
X117057711Y-99465440D01*
X117137077Y-99583703D01*
X117143703Y-99597771D01*
X117157665Y-99629852D01*
X117168847Y-99660959D01*
X117177608Y-99696127D01*
X117184311Y-99740391D01*
X117189316Y-99798784D01*
X117192984Y-99876342D01*
X117195677Y-99978098D01*
X117197755Y-100109086D01*
X117199580Y-100274343D01*
X117200708Y-100392442D01*
X117207086Y-101075067D01*
X116421747Y-101075067D01*
X116421747Y-100545220D01*
X116421197Y-100361825D01*
X116418955Y-100215851D01*
X116414128Y-100102394D01*
X116405827Y-100016550D01*
X116393161Y-99953414D01*
X116375238Y-99908082D01*
X116351168Y-99875649D01*
X116320061Y-99851211D01*
X116292907Y-99835865D01*
X116204665Y-99810456D01*
X116108263Y-99814114D01*
X116020688Y-99844886D01*
X115983784Y-99871407D01*
X115950501Y-99904722D01*
X115924495Y-99939720D01*
X115904876Y-99981900D01*
X115890756Y-100036763D01*
X115881245Y-100109806D01*
X115875454Y-100206530D01*
X115872494Y-100332433D01*
X115871476Y-100493015D01*
X115871414Y-100566387D01*
X115871414Y-101075067D01*
X115088247Y-101075067D01*
X115088247Y-99297067D01*
X115807914Y-99297067D01*
X115807914Y-99570535D01*
X115897663Y-99487663D01*
X116041784Y-99382469D01*
X116208210Y-99308802D01*
X116389468Y-99268101D01*
X116578081Y-99261806D01*
X116766575Y-99291358D01*
G36*
X109479080Y-101075067D02*
G01*
X108717080Y-101075067D01*
X108717080Y-99297067D01*
X109479080Y-99297067D01*
X109479080Y-101075067D01*
G37*
X109479080Y-101075067D02*
X108717080Y-101075067D01*
X108717080Y-99297067D01*
X109479080Y-99297067D01*
X109479080Y-101075067D01*
G36*
X105647914Y-101075067D02*
G01*
X104864747Y-101075067D01*
X104864747Y-99297067D01*
X105647914Y-99297067D01*
X105647914Y-101075067D01*
G37*
X105647914Y-101075067D02*
X104864747Y-101075067D01*
X104864747Y-99297067D01*
X105647914Y-99297067D01*
X105647914Y-101075067D01*
G36*
X97197775Y-98641193D02*
G01*
X97381689Y-98642162D01*
X97531641Y-98643949D01*
X97651817Y-98646690D01*
X97746400Y-98650526D01*
X97819576Y-98655595D01*
X97875528Y-98662036D01*
X97918440Y-98669988D01*
X97928862Y-98672549D01*
X98102129Y-98732456D01*
X98241165Y-98814126D01*
X98349489Y-98920166D01*
X98423940Y-99039223D01*
X98451861Y-99100658D01*
X98469348Y-99155664D01*
X98478772Y-99217563D01*
X98482503Y-99299675D01*
X98482997Y-99371150D01*
X98476596Y-99523469D01*
X98454973Y-99645804D01*
X98414499Y-99748886D01*
X98351545Y-99843447D01*
X98305349Y-99896433D01*
X98229266Y-99970895D01*
X98151880Y-100029747D01*
X98066853Y-100074894D01*
X97967847Y-100108236D01*
X97848523Y-100131677D01*
X97702545Y-100147119D01*
X97523572Y-100156464D01*
X97429955Y-100159203D01*
X97011914Y-100169317D01*
X97011914Y-101075067D01*
X96144080Y-101075067D01*
X96144080Y-99148900D01*
X97011914Y-99148900D01*
X97011914Y-99656900D01*
X97194666Y-99656900D01*
X97290522Y-99653952D01*
X97380871Y-99646132D01*
X97449268Y-99634982D01*
X97460503Y-99632007D01*
X97551744Y-99586671D01*
X97612633Y-99520005D01*
X97642704Y-99440509D01*
X97641495Y-99356686D01*
X97608541Y-99277037D01*
X97543377Y-99210064D01*
X97485289Y-99178085D01*
X97422883Y-99162503D01*
X97328346Y-99152418D01*
X97213677Y-99148900D01*
X97011914Y-99148900D01*
X96144080Y-99148900D01*
X96144080Y-98640900D01*
X96975716Y-98640900D01*
X97197775Y-98641193D01*
G37*
X97197775Y-98641193D02*
X97381689Y-98642162D01*
X97531641Y-98643949D01*
X97651817Y-98646690D01*
X97746400Y-98650526D01*
X97819576Y-98655595D01*
X97875528Y-98662036D01*
X97918440Y-98669988D01*
X97928862Y-98672549D01*
X98102129Y-98732456D01*
X98241165Y-98814126D01*
X98349489Y-98920166D01*
X98423940Y-99039223D01*
X98451861Y-99100658D01*
X98469348Y-99155664D01*
X98478772Y-99217563D01*
X98482503Y-99299675D01*
X98482997Y-99371150D01*
X98476596Y-99523469D01*
X98454973Y-99645804D01*
X98414499Y-99748886D01*
X98351545Y-99843447D01*
X98305349Y-99896433D01*
X98229266Y-99970895D01*
X98151880Y-100029747D01*
X98066853Y-100074894D01*
X97967847Y-100108236D01*
X97848523Y-100131677D01*
X97702545Y-100147119D01*
X97523572Y-100156464D01*
X97429955Y-100159203D01*
X97011914Y-100169317D01*
X97011914Y-101075067D01*
X96144080Y-101075067D01*
X96144080Y-99148900D01*
X97011914Y-99148900D01*
X97011914Y-99656900D01*
X97194666Y-99656900D01*
X97290522Y-99653952D01*
X97380871Y-99646132D01*
X97449268Y-99634982D01*
X97460503Y-99632007D01*
X97551744Y-99586671D01*
X97612633Y-99520005D01*
X97642704Y-99440509D01*
X97641495Y-99356686D01*
X97608541Y-99277037D01*
X97543377Y-99210064D01*
X97485289Y-99178085D01*
X97422883Y-99162503D01*
X97328346Y-99152418D01*
X97213677Y-99148900D01*
X97011914Y-99148900D01*
X96144080Y-99148900D01*
X96144080Y-98640900D01*
X96975716Y-98640900D01*
X97197775Y-98641193D01*
G36*
X118565393Y-98653033D02*
G01*
X118573089Y-98672503D01*
X118577659Y-98712445D01*
X118579915Y-98778783D01*
X118580673Y-98877439D01*
X118580747Y-98967557D01*
X118580747Y-99297067D01*
X119004080Y-99297067D01*
X119004080Y-99805067D01*
X118578018Y-99805067D01*
X118584674Y-100177231D01*
X118587820Y-100324674D01*
X118592924Y-100434906D01*
X118602486Y-100513045D01*
X118619005Y-100564212D01*
X118644982Y-100593524D01*
X118682916Y-100606100D01*
X118735307Y-100607060D01*
X118792414Y-100602626D01*
X118863958Y-100594337D01*
X118921471Y-100584406D01*
X118942916Y-100578483D01*
X118958507Y-100577754D01*
X118970766Y-100594156D01*
X118981464Y-100634089D01*
X118992371Y-100703953D01*
X119004022Y-100799399D01*
X119014006Y-100894265D01*
X119020472Y-100972623D01*
X119022803Y-101025574D01*
X119021008Y-101044028D01*
X118985026Y-101059649D01*
X118915301Y-101073616D01*
X118820411Y-101085338D01*
X118708933Y-101094225D01*
X118589444Y-101099688D01*
X118470521Y-101101137D01*
X118360742Y-101097981D01*
X118301643Y-101093514D01*
X118147209Y-101066135D01*
X118027016Y-101017451D01*
X117937944Y-100946064D01*
X117918146Y-100921804D01*
X117885538Y-100874155D01*
X117860252Y-100825660D01*
X117841191Y-100769961D01*
X117827255Y-100700701D01*
X117817345Y-100611524D01*
X117810363Y-100496071D01*
X117805209Y-100347986D01*
X117802861Y-100254859D01*
X117792391Y-99805067D01*
X117522414Y-99805067D01*
X117522414Y-99297067D01*
X117795799Y-99297067D01*
X117801981Y-99137448D01*
X117808164Y-98977830D01*
X118151073Y-98821707D01*
X118264973Y-98770177D01*
X118367913Y-98724216D01*
X118452723Y-98686978D01*
X118512231Y-98661617D01*
X118537365Y-98651816D01*
X118553756Y-98648112D01*
X118565393Y-98653033D01*
G37*
X118565393Y-98653033D02*
X118573089Y-98672503D01*
X118577659Y-98712445D01*
X118579915Y-98778783D01*
X118580673Y-98877439D01*
X118580747Y-98967557D01*
X118580747Y-99297067D01*
X119004080Y-99297067D01*
X119004080Y-99805067D01*
X118578018Y-99805067D01*
X118584674Y-100177231D01*
X118587820Y-100324674D01*
X118592924Y-100434906D01*
X118602486Y-100513045D01*
X118619005Y-100564212D01*
X118644982Y-100593524D01*
X118682916Y-100606100D01*
X118735307Y-100607060D01*
X118792414Y-100602626D01*
X118863958Y-100594337D01*
X118921471Y-100584406D01*
X118942916Y-100578483D01*
X118958507Y-100577754D01*
X118970766Y-100594156D01*
X118981464Y-100634089D01*
X118992371Y-100703953D01*
X119004022Y-100799399D01*
X119014006Y-100894265D01*
X119020472Y-100972623D01*
X119022803Y-101025574D01*
X119021008Y-101044028D01*
X118985026Y-101059649D01*
X118915301Y-101073616D01*
X118820411Y-101085338D01*
X118708933Y-101094225D01*
X118589444Y-101099688D01*
X118470521Y-101101137D01*
X118360742Y-101097981D01*
X118301643Y-101093514D01*
X118147209Y-101066135D01*
X118027016Y-101017451D01*
X117937944Y-100946064D01*
X117918146Y-100921804D01*
X117885538Y-100874155D01*
X117860252Y-100825660D01*
X117841191Y-100769961D01*
X117827255Y-100700701D01*
X117817345Y-100611524D01*
X117810363Y-100496071D01*
X117805209Y-100347986D01*
X117802861Y-100254859D01*
X117792391Y-99805067D01*
X117522414Y-99805067D01*
X117522414Y-99297067D01*
X117795799Y-99297067D01*
X117801981Y-99137448D01*
X117808164Y-98977830D01*
X118151073Y-98821707D01*
X118264973Y-98770177D01*
X118367913Y-98724216D01*
X118452723Y-98686978D01*
X118512231Y-98661617D01*
X118537365Y-98651816D01*
X118553756Y-98648112D01*
X118565393Y-98653033D01*
G36*
X113719427Y-99263813D02*
G01*
X113896519Y-99274764D01*
X114056251Y-99293956D01*
X114189128Y-99321141D01*
X114248033Y-99339673D01*
X114387955Y-99411986D01*
X114500385Y-99512087D01*
X114580031Y-99635219D01*
X114582258Y-99640104D01*
X114597373Y-99675588D01*
X114609272Y-99710652D01*
X114618465Y-99750987D01*
X114625464Y-99802282D01*
X114630776Y-99870230D01*
X114634912Y-99960521D01*
X114638382Y-100078845D01*
X114641696Y-100230893D01*
X114643498Y-100323650D01*
X114647151Y-100498793D01*
X114650920Y-100636769D01*
X114655192Y-100742747D01*
X114660355Y-100821893D01*
X114666795Y-100879374D01*
X114674899Y-100920357D01*
X114685056Y-100950008D01*
X114691401Y-100962891D01*
X114716043Y-101013666D01*
X114728156Y-101049759D01*
X114728414Y-101052849D01*
X114707400Y-101062171D01*
X114644833Y-101069005D01*
X114541422Y-101073307D01*
X114397875Y-101075033D01*
X114371015Y-101075067D01*
X114240367Y-101074894D01*
X114145543Y-101073814D01*
X114080033Y-101070980D01*
X114037328Y-101065548D01*
X114010919Y-101056672D01*
X113994296Y-101043508D01*
X113980949Y-101025211D01*
X113980388Y-101024355D01*
X113949730Y-100965356D01*
X113933650Y-100919816D01*
X113920141Y-100865988D01*
X113835217Y-100927506D01*
X113709478Y-100999862D01*
X113562102Y-101054992D01*
X113412602Y-101085597D01*
X113412577Y-101085599D01*
X113292886Y-101097996D01*
X113202501Y-101104796D01*
X113128810Y-101106298D01*
X113059199Y-101102801D01*
X112989650Y-101095632D01*
X112821830Y-101060531D01*
X112680302Y-100999942D01*
X112567733Y-100917027D01*
X112486790Y-100814945D01*
X112440140Y-100696859D01*
X112430449Y-100565930D01*
X112430468Y-100565825D01*
X113218097Y-100565825D01*
X113230011Y-100604103D01*
X113268692Y-100656591D01*
X113310247Y-100689203D01*
X113379151Y-100707768D01*
X113470818Y-100708668D01*
X113570307Y-100693485D01*
X113662680Y-100663806D01*
X113693750Y-100648532D01*
X113757027Y-100606410D01*
X113809791Y-100559931D01*
X113822775Y-100544655D01*
X113842198Y-100504267D01*
X113859886Y-100444230D01*
X113873794Y-100376643D01*
X113881877Y-100313605D01*
X113882088Y-100267216D01*
X113872669Y-100249567D01*
X113839297Y-100255115D01*
X113775692Y-100269896D01*
X113692212Y-100291117D01*
X113599211Y-100315982D01*
X113507047Y-100341697D01*
X113426075Y-100365468D01*
X113366651Y-100384500D01*
X113350419Y-100390485D01*
X113272539Y-100436991D01*
X113227161Y-100497690D01*
X113218097Y-100565825D01*
X112430468Y-100565825D01*
X112450411Y-100456413D01*
X112503439Y-100340011D01*
X112589779Y-100244491D01*
X112711425Y-100168188D01*
X112863168Y-100111501D01*
X112919823Y-100097419D01*
X113007482Y-100078413D01*
X113115423Y-100056695D01*
X113232922Y-100034471D01*
X113267914Y-100028129D01*
X113393029Y-100004442D01*
X113518311Y-99978551D01*
X113630645Y-99953302D01*
X113716912Y-99931542D01*
X113729704Y-99927911D01*
X113807870Y-99904218D01*
X113852963Y-99886258D01*
X113872731Y-99868564D01*
X113874926Y-99845664D01*
X113871244Y-99828022D01*
X113840020Y-99756867D01*
X113783882Y-99711206D01*
X113696797Y-99686984D01*
X113654795Y-99682591D01*
X113513929Y-99685253D01*
X113399724Y-99714689D01*
X113315755Y-99769873D01*
X113303233Y-99783518D01*
X113267302Y-99829002D01*
X113245288Y-99862036D01*
X113243480Y-99865991D01*
X113220079Y-99871703D01*
X113158373Y-99872325D01*
X113062068Y-99867986D01*
X112934868Y-99858818D01*
X112860984Y-99852476D01*
X112485804Y-99818806D01*
X112498863Y-99764311D01*
X112553169Y-99625267D01*
X112642938Y-99506021D01*
X112764820Y-99409470D01*
X112915465Y-99338509D01*
X113027385Y-99307444D01*
X113178955Y-99282919D01*
X113351149Y-99267640D01*
X113534472Y-99261354D01*
X113719427Y-99263813D01*
G37*
X113719427Y-99263813D02*
X113896519Y-99274764D01*
X114056251Y-99293956D01*
X114189128Y-99321141D01*
X114248033Y-99339673D01*
X114387955Y-99411986D01*
X114500385Y-99512087D01*
X114580031Y-99635219D01*
X114582258Y-99640104D01*
X114597373Y-99675588D01*
X114609272Y-99710652D01*
X114618465Y-99750987D01*
X114625464Y-99802282D01*
X114630776Y-99870230D01*
X114634912Y-99960521D01*
X114638382Y-100078845D01*
X114641696Y-100230893D01*
X114643498Y-100323650D01*
X114647151Y-100498793D01*
X114650920Y-100636769D01*
X114655192Y-100742747D01*
X114660355Y-100821893D01*
X114666795Y-100879374D01*
X114674899Y-100920357D01*
X114685056Y-100950008D01*
X114691401Y-100962891D01*
X114716043Y-101013666D01*
X114728156Y-101049759D01*
X114728414Y-101052849D01*
X114707400Y-101062171D01*
X114644833Y-101069005D01*
X114541422Y-101073307D01*
X114397875Y-101075033D01*
X114371015Y-101075067D01*
X114240367Y-101074894D01*
X114145543Y-101073814D01*
X114080033Y-101070980D01*
X114037328Y-101065548D01*
X114010919Y-101056672D01*
X113994296Y-101043508D01*
X113980949Y-101025211D01*
X113980388Y-101024355D01*
X113949730Y-100965356D01*
X113933650Y-100919816D01*
X113920141Y-100865988D01*
X113835217Y-100927506D01*
X113709478Y-100999862D01*
X113562102Y-101054992D01*
X113412602Y-101085597D01*
X113412577Y-101085599D01*
X113292886Y-101097996D01*
X113202501Y-101104796D01*
X113128810Y-101106298D01*
X113059199Y-101102801D01*
X112989650Y-101095632D01*
X112821830Y-101060531D01*
X112680302Y-100999942D01*
X112567733Y-100917027D01*
X112486790Y-100814945D01*
X112440140Y-100696859D01*
X112430449Y-100565930D01*
X112430468Y-100565825D01*
X113218097Y-100565825D01*
X113230011Y-100604103D01*
X113268692Y-100656591D01*
X113310247Y-100689203D01*
X113379151Y-100707768D01*
X113470818Y-100708668D01*
X113570307Y-100693485D01*
X113662680Y-100663806D01*
X113693750Y-100648532D01*
X113757027Y-100606410D01*
X113809791Y-100559931D01*
X113822775Y-100544655D01*
X113842198Y-100504267D01*
X113859886Y-100444230D01*
X113873794Y-100376643D01*
X113881877Y-100313605D01*
X113882088Y-100267216D01*
X113872669Y-100249567D01*
X113839297Y-100255115D01*
X113775692Y-100269896D01*
X113692212Y-100291117D01*
X113599211Y-100315982D01*
X113507047Y-100341697D01*
X113426075Y-100365468D01*
X113366651Y-100384500D01*
X113350419Y-100390485D01*
X113272539Y-100436991D01*
X113227161Y-100497690D01*
X113218097Y-100565825D01*
X112430468Y-100565825D01*
X112450411Y-100456413D01*
X112503439Y-100340011D01*
X112589779Y-100244491D01*
X112711425Y-100168188D01*
X112863168Y-100111501D01*
X112919823Y-100097419D01*
X113007482Y-100078413D01*
X113115423Y-100056695D01*
X113232922Y-100034471D01*
X113267914Y-100028129D01*
X113393029Y-100004442D01*
X113518311Y-99978551D01*
X113630645Y-99953302D01*
X113716912Y-99931542D01*
X113729704Y-99927911D01*
X113807870Y-99904218D01*
X113852963Y-99886258D01*
X113872731Y-99868564D01*
X113874926Y-99845664D01*
X113871244Y-99828022D01*
X113840020Y-99756867D01*
X113783882Y-99711206D01*
X113696797Y-99686984D01*
X113654795Y-99682591D01*
X113513929Y-99685253D01*
X113399724Y-99714689D01*
X113315755Y-99769873D01*
X113303233Y-99783518D01*
X113267302Y-99829002D01*
X113245288Y-99862036D01*
X113243480Y-99865991D01*
X113220079Y-99871703D01*
X113158373Y-99872325D01*
X113062068Y-99867986D01*
X112934868Y-99858818D01*
X112860984Y-99852476D01*
X112485804Y-99818806D01*
X112498863Y-99764311D01*
X112553169Y-99625267D01*
X112642938Y-99506021D01*
X112764820Y-99409470D01*
X112915465Y-99338509D01*
X113027385Y-99307444D01*
X113178955Y-99282919D01*
X113351149Y-99267640D01*
X113534472Y-99261354D01*
X113719427Y-99263813D01*
G36*
X107297981Y-99268140D02*
G01*
X107440321Y-99275067D01*
X107564275Y-99287126D01*
X107658063Y-99304184D01*
X107658747Y-99304363D01*
X107851407Y-99371145D01*
X108009270Y-99461205D01*
X108112514Y-99551849D01*
X108175579Y-99627299D01*
X108231020Y-99708042D01*
X108272244Y-99783113D01*
X108292658Y-99841547D01*
X108293747Y-99853274D01*
X108282204Y-99865762D01*
X108244864Y-99878205D01*
X108177657Y-99891395D01*
X108076514Y-99906125D01*
X107937368Y-99923190D01*
X107931732Y-99923842D01*
X107569718Y-99965683D01*
X107552978Y-99922417D01*
X107501940Y-99845545D01*
X107421307Y-99787913D01*
X107320485Y-99752297D01*
X107208879Y-99741471D01*
X107095895Y-99758209D01*
X107050300Y-99774124D01*
X106947509Y-99833500D01*
X106875282Y-99915061D01*
X106831305Y-100022924D01*
X106813267Y-100161207D01*
X106812545Y-100197457D01*
X106826931Y-100345088D01*
X106870575Y-100462993D01*
X106942691Y-100550287D01*
X107042493Y-100606085D01*
X107169194Y-100629501D01*
X107196994Y-100630219D01*
X107275880Y-100626413D01*
X107346608Y-100616290D01*
X107376911Y-100608054D01*
X107456355Y-100561815D01*
X107528061Y-100492669D01*
X107573331Y-100420710D01*
X107596824Y-100363992D01*
X107957761Y-100400394D01*
X108076761Y-100412935D01*
X108180511Y-100424895D01*
X108261921Y-100435373D01*
X108313899Y-100443468D01*
X108329498Y-100447596D01*
X108332341Y-100477703D01*
X108314849Y-100533047D01*
X108281137Y-100604305D01*
X108235320Y-100682153D01*
X108208733Y-100721228D01*
X108088999Y-100852385D01*
X107937198Y-100957435D01*
X107755360Y-101035361D01*
X107545519Y-101085141D01*
X107461219Y-101096219D01*
X107352207Y-101106814D01*
X107264482Y-101112299D01*
X107183037Y-101112634D01*
X107092862Y-101107778D01*
X106978947Y-101097687D01*
X106949664Y-101094806D01*
X106724315Y-101056296D01*
X106527713Y-100988757D01*
X106360888Y-100892824D01*
X106224870Y-100769129D01*
X106120692Y-100618306D01*
X106097149Y-100570824D01*
X106058615Y-100452980D01*
X106035664Y-100310751D01*
X106029178Y-100159451D01*
X106040035Y-100014395D01*
X106059743Y-99920111D01*
X106129967Y-99750011D01*
X106235253Y-99600917D01*
X106372493Y-99475527D01*
X106538579Y-99376541D01*
X106730403Y-99306658D01*
X106780330Y-99294425D01*
X106878428Y-99279489D01*
X107005255Y-99270218D01*
X107149032Y-99266479D01*
X107297981Y-99268140D01*
G37*
X107297981Y-99268140D02*
X107440321Y-99275067D01*
X107564275Y-99287126D01*
X107658063Y-99304184D01*
X107658747Y-99304363D01*
X107851407Y-99371145D01*
X108009270Y-99461205D01*
X108112514Y-99551849D01*
X108175579Y-99627299D01*
X108231020Y-99708042D01*
X108272244Y-99783113D01*
X108292658Y-99841547D01*
X108293747Y-99853274D01*
X108282204Y-99865762D01*
X108244864Y-99878205D01*
X108177657Y-99891395D01*
X108076514Y-99906125D01*
X107937368Y-99923190D01*
X107931732Y-99923842D01*
X107569718Y-99965683D01*
X107552978Y-99922417D01*
X107501940Y-99845545D01*
X107421307Y-99787913D01*
X107320485Y-99752297D01*
X107208879Y-99741471D01*
X107095895Y-99758209D01*
X107050300Y-99774124D01*
X106947509Y-99833500D01*
X106875282Y-99915061D01*
X106831305Y-100022924D01*
X106813267Y-100161207D01*
X106812545Y-100197457D01*
X106826931Y-100345088D01*
X106870575Y-100462993D01*
X106942691Y-100550287D01*
X107042493Y-100606085D01*
X107169194Y-100629501D01*
X107196994Y-100630219D01*
X107275880Y-100626413D01*
X107346608Y-100616290D01*
X107376911Y-100608054D01*
X107456355Y-100561815D01*
X107528061Y-100492669D01*
X107573331Y-100420710D01*
X107596824Y-100363992D01*
X107957761Y-100400394D01*
X108076761Y-100412935D01*
X108180511Y-100424895D01*
X108261921Y-100435373D01*
X108313899Y-100443468D01*
X108329498Y-100447596D01*
X108332341Y-100477703D01*
X108314849Y-100533047D01*
X108281137Y-100604305D01*
X108235320Y-100682153D01*
X108208733Y-100721228D01*
X108088999Y-100852385D01*
X107937198Y-100957435D01*
X107755360Y-101035361D01*
X107545519Y-101085141D01*
X107461219Y-101096219D01*
X107352207Y-101106814D01*
X107264482Y-101112299D01*
X107183037Y-101112634D01*
X107092862Y-101107778D01*
X106978947Y-101097687D01*
X106949664Y-101094806D01*
X106724315Y-101056296D01*
X106527713Y-100988757D01*
X106360888Y-100892824D01*
X106224870Y-100769129D01*
X106120692Y-100618306D01*
X106097149Y-100570824D01*
X106058615Y-100452980D01*
X106035664Y-100310751D01*
X106029178Y-100159451D01*
X106040035Y-100014395D01*
X106059743Y-99920111D01*
X106129967Y-99750011D01*
X106235253Y-99600917D01*
X106372493Y-99475527D01*
X106538579Y-99376541D01*
X106730403Y-99306658D01*
X106780330Y-99294425D01*
X106878428Y-99279489D01*
X107005255Y-99270218D01*
X107149032Y-99266479D01*
X107297981Y-99268140D01*
G36*
X104065739Y-98652294D02*
G01*
X104073321Y-98686679D01*
X104078241Y-98750010D01*
X104080869Y-98846867D01*
X104081580Y-98968984D01*
X104081580Y-99297067D01*
X104483747Y-99297067D01*
X104483747Y-99805067D01*
X104081580Y-99805067D01*
X104081580Y-100172203D01*
X104081981Y-100306809D01*
X104083594Y-100405479D01*
X104087034Y-100474605D01*
X104092917Y-100520581D01*
X104101857Y-100549800D01*
X104114471Y-100568654D01*
X104120289Y-100574370D01*
X104178574Y-100601698D01*
X104262822Y-100607980D01*
X104361921Y-100592600D01*
X104376651Y-100588595D01*
X104426747Y-100576983D01*
X104455974Y-100575374D01*
X104457713Y-100576311D01*
X104463616Y-100599375D01*
X104472528Y-100653662D01*
X104483150Y-100728714D01*
X104494184Y-100814071D01*
X104504329Y-100899274D01*
X104512286Y-100973863D01*
X104516757Y-101027378D01*
X104516471Y-101049333D01*
X104490916Y-101057060D01*
X104433316Y-101066951D01*
X104353817Y-101077726D01*
X104262568Y-101088102D01*
X104169714Y-101096798D01*
X104102747Y-101101588D01*
X103996313Y-101104181D01*
X103880226Y-101101492D01*
X103795830Y-101095555D01*
X103662617Y-101074683D01*
X103559782Y-101040595D01*
X103476280Y-100988794D01*
X103430169Y-100946628D01*
X103389493Y-100899257D01*
X103357916Y-100846869D01*
X103334354Y-100783608D01*
X103317722Y-100703619D01*
X103306937Y-100601046D01*
X103300913Y-100470033D01*
X103298567Y-100304723D01*
X103298414Y-100235142D01*
X103298414Y-99805067D01*
X103002080Y-99805067D01*
X103000998Y-99619859D01*
X102999916Y-99434650D01*
X102894039Y-99642858D01*
X102845040Y-99736395D01*
X102809314Y-99796622D01*
X102782932Y-99828910D01*
X102761966Y-99838628D01*
X102752246Y-99836687D01*
X102711531Y-99826823D01*
X102646102Y-99817127D01*
X102599914Y-99812350D01*
X102507721Y-99813792D01*
X102430417Y-99836946D01*
X102366966Y-99884394D01*
X102316334Y-99958719D01*
X102277486Y-100062504D01*
X102249387Y-100198332D01*
X102231002Y-100368785D01*
X102221297Y-100576447D01*
X102219087Y-100762859D01*
X102218914Y-101075067D01*
X101435747Y-101075067D01*
X101435747Y-99297067D01*
X102176580Y-99297067D01*
X102176580Y-99534479D01*
X102273766Y-99426385D01*
X102341527Y-99358552D01*
X102405169Y-99315604D01*
X102482135Y-99285998D01*
X102488892Y-99284004D01*
X102636759Y-99261128D01*
X102790613Y-99272754D01*
X102913353Y-99309011D01*
X102970870Y-99327104D01*
X102997441Y-99321022D01*
X102998221Y-99319226D01*
X103021853Y-99307781D01*
X103077277Y-99299889D01*
X103151120Y-99297067D01*
X103296633Y-99297067D01*
X103302815Y-99133991D01*
X103308997Y-98970916D01*
X103668830Y-98807282D01*
X103783907Y-98755500D01*
X103886630Y-98710312D01*
X103970456Y-98674515D01*
X104028840Y-98650902D01*
X104055122Y-98642275D01*
X104065739Y-98652294D01*
G37*
X104065739Y-98652294D02*
X104073321Y-98686679D01*
X104078241Y-98750010D01*
X104080869Y-98846867D01*
X104081580Y-98968984D01*
X104081580Y-99297067D01*
X104483747Y-99297067D01*
X104483747Y-99805067D01*
X104081580Y-99805067D01*
X104081580Y-100172203D01*
X104081981Y-100306809D01*
X104083594Y-100405479D01*
X104087034Y-100474605D01*
X104092917Y-100520581D01*
X104101857Y-100549800D01*
X104114471Y-100568654D01*
X104120289Y-100574370D01*
X104178574Y-100601698D01*
X104262822Y-100607980D01*
X104361921Y-100592600D01*
X104376651Y-100588595D01*
X104426747Y-100576983D01*
X104455974Y-100575374D01*
X104457713Y-100576311D01*
X104463616Y-100599375D01*
X104472528Y-100653662D01*
X104483150Y-100728714D01*
X104494184Y-100814071D01*
X104504329Y-100899274D01*
X104512286Y-100973863D01*
X104516757Y-101027378D01*
X104516471Y-101049333D01*
X104490916Y-101057060D01*
X104433316Y-101066951D01*
X104353817Y-101077726D01*
X104262568Y-101088102D01*
X104169714Y-101096798D01*
X104102747Y-101101588D01*
X103996313Y-101104181D01*
X103880226Y-101101492D01*
X103795830Y-101095555D01*
X103662617Y-101074683D01*
X103559782Y-101040595D01*
X103476280Y-100988794D01*
X103430169Y-100946628D01*
X103389493Y-100899257D01*
X103357916Y-100846869D01*
X103334354Y-100783608D01*
X103317722Y-100703619D01*
X103306937Y-100601046D01*
X103300913Y-100470033D01*
X103298567Y-100304723D01*
X103298414Y-100235142D01*
X103298414Y-99805067D01*
X103002080Y-99805067D01*
X103000998Y-99619859D01*
X102999916Y-99434650D01*
X102894039Y-99642858D01*
X102845040Y-99736395D01*
X102809314Y-99796622D01*
X102782932Y-99828910D01*
X102761966Y-99838628D01*
X102752246Y-99836687D01*
X102711531Y-99826823D01*
X102646102Y-99817127D01*
X102599914Y-99812350D01*
X102507721Y-99813792D01*
X102430417Y-99836946D01*
X102366966Y-99884394D01*
X102316334Y-99958719D01*
X102277486Y-100062504D01*
X102249387Y-100198332D01*
X102231002Y-100368785D01*
X102221297Y-100576447D01*
X102219087Y-100762859D01*
X102218914Y-101075067D01*
X101435747Y-101075067D01*
X101435747Y-99297067D01*
X102176580Y-99297067D01*
X102176580Y-99534479D01*
X102273766Y-99426385D01*
X102341527Y-99358552D01*
X102405169Y-99315604D01*
X102482135Y-99285998D01*
X102488892Y-99284004D01*
X102636759Y-99261128D01*
X102790613Y-99272754D01*
X102913353Y-99309011D01*
X102970870Y-99327104D01*
X102997441Y-99321022D01*
X102998221Y-99319226D01*
X103021853Y-99307781D01*
X103077277Y-99299889D01*
X103151120Y-99297067D01*
X103296633Y-99297067D01*
X103302815Y-99133991D01*
X103308997Y-98970916D01*
X103668830Y-98807282D01*
X103783907Y-98755500D01*
X103886630Y-98710312D01*
X103970456Y-98674515D01*
X104028840Y-98650902D01*
X104055122Y-98642275D01*
X104065739Y-98652294D01*
G36*
X100114330Y-99265042D02*
G01*
X100288857Y-99278331D01*
X100445752Y-99300936D01*
X100576561Y-99333029D01*
X100604437Y-99342643D01*
X100741557Y-99415265D01*
X100852422Y-99519705D01*
X100932543Y-99651471D01*
X100945774Y-99684153D01*
X100960331Y-99726366D01*
X100971436Y-99768685D01*
X100979561Y-99817497D01*
X100985178Y-99879189D01*
X100988760Y-99960150D01*
X100990778Y-100066768D01*
X100991706Y-100205429D01*
X100991938Y-100308569D01*
X100992519Y-100472163D01*
X100994042Y-100599742D01*
X100996930Y-100697620D01*
X101001610Y-100772112D01*
X101008506Y-100829534D01*
X101018045Y-100876199D01*
X101030650Y-100918423D01*
X101033580Y-100926900D01*
X101055830Y-100992375D01*
X101070986Y-101041210D01*
X101075222Y-101059192D01*
X101055435Y-101064392D01*
X101000160Y-101068878D01*
X100916241Y-101072347D01*
X100810521Y-101074498D01*
X100714890Y-101075067D01*
X100353866Y-101075067D01*
X100311733Y-100979817D01*
X100277448Y-100913600D01*
X100249403Y-100886675D01*
X100224943Y-100896944D01*
X100218415Y-100906136D01*
X100186171Y-100933740D01*
X100124653Y-100968317D01*
X100045146Y-101004719D01*
X99958936Y-101037797D01*
X99877307Y-101062400D01*
X99874380Y-101063114D01*
X99679013Y-101095347D01*
X99471189Y-101103445D01*
X99337150Y-101094756D01*
X99169032Y-101060634D01*
X99027411Y-101000226D01*
X98915352Y-100915837D01*
X98835915Y-100809767D01*
X98792292Y-100685010D01*
X98786000Y-100558676D01*
X99573080Y-100558676D01*
X99591274Y-100626984D01*
X99641148Y-100676668D01*
X99715641Y-100706165D01*
X99807689Y-100713917D01*
X99910232Y-100698361D01*
X100016207Y-100657936D01*
X100017995Y-100657025D01*
X100112859Y-100599109D01*
X100173695Y-100534948D01*
X100208505Y-100453214D01*
X100223081Y-100366697D01*
X100229455Y-100297888D01*
X100228278Y-100262316D01*
X100216466Y-100251121D01*
X100190933Y-100255441D01*
X100184927Y-100257103D01*
X100143548Y-100268153D01*
X100072352Y-100286689D01*
X99982558Y-100309803D01*
X99914930Y-100327077D01*
X99780292Y-100365753D01*
X99683349Y-100404918D01*
X99619541Y-100447659D01*
X99584309Y-100497066D01*
X99573094Y-100556228D01*
X99573080Y-100558676D01*
X98786000Y-100558676D01*
X98785435Y-100547348D01*
X98814830Y-100418307D01*
X98877306Y-100305657D01*
X98969693Y-100217168D01*
X98988157Y-100205079D01*
X99067148Y-100165711D01*
X99175474Y-100127696D01*
X99316745Y-100090020D01*
X99494569Y-100051670D01*
X99616863Y-100028540D01*
X99741577Y-100004683D01*
X99866347Y-99978697D01*
X99978066Y-99953445D01*
X100063623Y-99931788D01*
X100075789Y-99928331D01*
X100164927Y-99898303D01*
X100215134Y-99868692D01*
X100229432Y-99834289D01*
X100210849Y-99789881D01*
X100179523Y-99749620D01*
X100116331Y-99705624D01*
X100028096Y-99681871D01*
X99926538Y-99677610D01*
X99823375Y-99692090D01*
X99730326Y-99724559D01*
X99659109Y-99774265D01*
X99650733Y-99783518D01*
X99614796Y-99829057D01*
X99592783Y-99862206D01*
X99590980Y-99866182D01*
X99569494Y-99869300D01*
X99514085Y-99869131D01*
X99432989Y-99866229D01*
X99334440Y-99861150D01*
X99226675Y-99854448D01*
X99117928Y-99846678D01*
X99016435Y-99838394D01*
X98930432Y-99830152D01*
X98868154Y-99822506D01*
X98837837Y-99816010D01*
X98836794Y-99815380D01*
X98840347Y-99794781D01*
X98855707Y-99746155D01*
X98874618Y-99693409D01*
X98935686Y-99580579D01*
X99026977Y-99475313D01*
X99136707Y-99390438D01*
X99170318Y-99371458D01*
X99273104Y-99332411D01*
X99408981Y-99301662D01*
X99569497Y-99279381D01*
X99746196Y-99265737D01*
X99930625Y-99260901D01*
X100114330Y-99265042D01*
G37*
X100114330Y-99265042D02*
X100288857Y-99278331D01*
X100445752Y-99300936D01*
X100576561Y-99333029D01*
X100604437Y-99342643D01*
X100741557Y-99415265D01*
X100852422Y-99519705D01*
X100932543Y-99651471D01*
X100945774Y-99684153D01*
X100960331Y-99726366D01*
X100971436Y-99768685D01*
X100979561Y-99817497D01*
X100985178Y-99879189D01*
X100988760Y-99960150D01*
X100990778Y-100066768D01*
X100991706Y-100205429D01*
X100991938Y-100308569D01*
X100992519Y-100472163D01*
X100994042Y-100599742D01*
X100996930Y-100697620D01*
X101001610Y-100772112D01*
X101008506Y-100829534D01*
X101018045Y-100876199D01*
X101030650Y-100918423D01*
X101033580Y-100926900D01*
X101055830Y-100992375D01*
X101070986Y-101041210D01*
X101075222Y-101059192D01*
X101055435Y-101064392D01*
X101000160Y-101068878D01*
X100916241Y-101072347D01*
X100810521Y-101074498D01*
X100714890Y-101075067D01*
X100353866Y-101075067D01*
X100311733Y-100979817D01*
X100277448Y-100913600D01*
X100249403Y-100886675D01*
X100224943Y-100896944D01*
X100218415Y-100906136D01*
X100186171Y-100933740D01*
X100124653Y-100968317D01*
X100045146Y-101004719D01*
X99958936Y-101037797D01*
X99877307Y-101062400D01*
X99874380Y-101063114D01*
X99679013Y-101095347D01*
X99471189Y-101103445D01*
X99337150Y-101094756D01*
X99169032Y-101060634D01*
X99027411Y-101000226D01*
X98915352Y-100915837D01*
X98835915Y-100809767D01*
X98792292Y-100685010D01*
X98786000Y-100558676D01*
X99573080Y-100558676D01*
X99591274Y-100626984D01*
X99641148Y-100676668D01*
X99715641Y-100706165D01*
X99807689Y-100713917D01*
X99910232Y-100698361D01*
X100016207Y-100657936D01*
X100017995Y-100657025D01*
X100112859Y-100599109D01*
X100173695Y-100534948D01*
X100208505Y-100453214D01*
X100223081Y-100366697D01*
X100229455Y-100297888D01*
X100228278Y-100262316D01*
X100216466Y-100251121D01*
X100190933Y-100255441D01*
X100184927Y-100257103D01*
X100143548Y-100268153D01*
X100072352Y-100286689D01*
X99982558Y-100309803D01*
X99914930Y-100327077D01*
X99780292Y-100365753D01*
X99683349Y-100404918D01*
X99619541Y-100447659D01*
X99584309Y-100497066D01*
X99573094Y-100556228D01*
X99573080Y-100558676D01*
X98786000Y-100558676D01*
X98785435Y-100547348D01*
X98814830Y-100418307D01*
X98877306Y-100305657D01*
X98969693Y-100217168D01*
X98988157Y-100205079D01*
X99067148Y-100165711D01*
X99175474Y-100127696D01*
X99316745Y-100090020D01*
X99494569Y-100051670D01*
X99616863Y-100028540D01*
X99741577Y-100004683D01*
X99866347Y-99978697D01*
X99978066Y-99953445D01*
X100063623Y-99931788D01*
X100075789Y-99928331D01*
X100164927Y-99898303D01*
X100215134Y-99868692D01*
X100229432Y-99834289D01*
X100210849Y-99789881D01*
X100179523Y-99749620D01*
X100116331Y-99705624D01*
X100028096Y-99681871D01*
X99926538Y-99677610D01*
X99823375Y-99692090D01*
X99730326Y-99724559D01*
X99659109Y-99774265D01*
X99650733Y-99783518D01*
X99614796Y-99829057D01*
X99592783Y-99862206D01*
X99590980Y-99866182D01*
X99569494Y-99869300D01*
X99514085Y-99869131D01*
X99432989Y-99866229D01*
X99334440Y-99861150D01*
X99226675Y-99854448D01*
X99117928Y-99846678D01*
X99016435Y-99838394D01*
X98930432Y-99830152D01*
X98868154Y-99822506D01*
X98837837Y-99816010D01*
X98836794Y-99815380D01*
X98840347Y-99794781D01*
X98855707Y-99746155D01*
X98874618Y-99693409D01*
X98935686Y-99580579D01*
X99026977Y-99475313D01*
X99136707Y-99390438D01*
X99170318Y-99371458D01*
X99273104Y-99332411D01*
X99408981Y-99301662D01*
X99569497Y-99279381D01*
X99746196Y-99265737D01*
X99930625Y-99260901D01*
X100114330Y-99265042D01*
G36*
X111471527Y-99270530D02*
G01*
X111638403Y-99312308D01*
X111789223Y-99386872D01*
X111802066Y-99395447D01*
X111904972Y-99485211D01*
X112000606Y-99604280D01*
X112079565Y-99739675D01*
X112117831Y-99831256D01*
X112141257Y-99930290D01*
X112155105Y-100056673D01*
X112159552Y-100197648D01*
X112154774Y-100340453D01*
X112140950Y-100472330D01*
X112118255Y-100580518D01*
X112106986Y-100613668D01*
X112025770Y-100763403D01*
X111913007Y-100889343D01*
X111773836Y-100988820D01*
X111613393Y-101059165D01*
X111436817Y-101097710D01*
X111249247Y-101101786D01*
X111181256Y-101094477D01*
X111079788Y-101074304D01*
X110979528Y-101044492D01*
X110892128Y-101009384D01*
X110829235Y-100973321D01*
X110810655Y-100956330D01*
X110780553Y-100931036D01*
X110767655Y-100926900D01*
X110761871Y-100946982D01*
X110756822Y-101002895D01*
X110752807Y-101088137D01*
X110750128Y-101196208D01*
X110749084Y-101320608D01*
X110749080Y-101329067D01*
X110749080Y-101731234D01*
X109965914Y-101731234D01*
X109965914Y-100216679D01*
X110752443Y-100216679D01*
X110761955Y-100314580D01*
X110770202Y-100347046D01*
X110822618Y-100452467D01*
X110899102Y-100529462D01*
X110992496Y-100574734D01*
X111095642Y-100584986D01*
X111201382Y-100556920D01*
X111213242Y-100551159D01*
X111281114Y-100509698D01*
X111327263Y-100461115D01*
X111355501Y-100396728D01*
X111369642Y-100307852D01*
X111373497Y-100186163D01*
X111370524Y-100070514D01*
X111358883Y-99986484D01*
X111334490Y-99923609D01*
X111293263Y-99871424D01*
X111231118Y-99819465D01*
X111230124Y-99818722D01*
X111148002Y-99781914D01*
X111053340Y-99777224D01*
X110957379Y-99801747D01*
X110871358Y-99852575D01*
X110806519Y-99926804D01*
X110805522Y-99928495D01*
X110775679Y-100006424D01*
X110757502Y-100108223D01*
X110752443Y-100216679D01*
X109965914Y-100216679D01*
X109965914Y-99297067D01*
X110704535Y-99297067D01*
X110710932Y-99402464D01*
X110717330Y-99507862D01*
X110821196Y-99425773D01*
X110963427Y-99339158D01*
X111125151Y-99284230D01*
X111297480Y-99261262D01*
X111471527Y-99270530D01*
G37*
X111471527Y-99270530D02*
X111638403Y-99312308D01*
X111789223Y-99386872D01*
X111802066Y-99395447D01*
X111904972Y-99485211D01*
X112000606Y-99604280D01*
X112079565Y-99739675D01*
X112117831Y-99831256D01*
X112141257Y-99930290D01*
X112155105Y-100056673D01*
X112159552Y-100197648D01*
X112154774Y-100340453D01*
X112140950Y-100472330D01*
X112118255Y-100580518D01*
X112106986Y-100613668D01*
X112025770Y-100763403D01*
X111913007Y-100889343D01*
X111773836Y-100988820D01*
X111613393Y-101059165D01*
X111436817Y-101097710D01*
X111249247Y-101101786D01*
X111181256Y-101094477D01*
X111079788Y-101074304D01*
X110979528Y-101044492D01*
X110892128Y-101009384D01*
X110829235Y-100973321D01*
X110810655Y-100956330D01*
X110780553Y-100931036D01*
X110767655Y-100926900D01*
X110761871Y-100946982D01*
X110756822Y-101002895D01*
X110752807Y-101088137D01*
X110750128Y-101196208D01*
X110749084Y-101320608D01*
X110749080Y-101329067D01*
X110749080Y-101731234D01*
X109965914Y-101731234D01*
X109965914Y-100216679D01*
X110752443Y-100216679D01*
X110761955Y-100314580D01*
X110770202Y-100347046D01*
X110822618Y-100452467D01*
X110899102Y-100529462D01*
X110992496Y-100574734D01*
X111095642Y-100584986D01*
X111201382Y-100556920D01*
X111213242Y-100551159D01*
X111281114Y-100509698D01*
X111327263Y-100461115D01*
X111355501Y-100396728D01*
X111369642Y-100307852D01*
X111373497Y-100186163D01*
X111370524Y-100070514D01*
X111358883Y-99986484D01*
X111334490Y-99923609D01*
X111293263Y-99871424D01*
X111231118Y-99819465D01*
X111230124Y-99818722D01*
X111148002Y-99781914D01*
X111053340Y-99777224D01*
X110957379Y-99801747D01*
X110871358Y-99852575D01*
X110806519Y-99926804D01*
X110805522Y-99928495D01*
X110775679Y-100006424D01*
X110757502Y-100108223D01*
X110752443Y-100216679D01*
X109965914Y-100216679D01*
X109965914Y-99297067D01*
X110704535Y-99297067D01*
X110710932Y-99402464D01*
X110717330Y-99507862D01*
X110821196Y-99425773D01*
X110963427Y-99339158D01*
X111125151Y-99284230D01*
X111297480Y-99261262D01*
X111471527Y-99270530D01*
G04 #@! TD*
M02*
