G04 #@! TF.GenerationSoftware,KiCad,Pcbnew,(5.1.10)-1*
G04 #@! TF.CreationDate,2021-08-30T20:12:07-05:00*
G04 #@! TF.ProjectId,Bsides-KC-2021-RF-Village-SAO-SVG2Shenzen v1_00 (Paths),42736964-6573-42d4-9b43-2d323032312d,rev?*
G04 #@! TF.SameCoordinates,Original*
G04 #@! TF.FileFunction,Legend,Top*
G04 #@! TF.FilePolarity,Positive*
%FSLAX46Y46*%
G04 Gerber Fmt 4.6, Leading zero omitted, Abs format (unit mm)*
G04 Created by KiCad (PCBNEW (5.1.10)-1) date 2021-08-30 20:12:07*
%MOMM*%
%LPD*%
G01*
G04 APERTURE LIST*
%ADD10C,0.100000*%
%ADD11C,0.010000*%
%ADD12C,0.150000*%
G04 APERTURE END LIST*
D10*
G04 #@! TO.C,D1*
X148900000Y-80870000D02*
X148650000Y-80870000D01*
X146200000Y-80870000D02*
X146450000Y-80870000D01*
X145708385Y-81474533D02*
G75*
G02*
X146200000Y-80870000I1841615J-995467D01*
G01*
X148906147Y-80862715D02*
G75*
G02*
X149400000Y-81470000I-1356147J-1607285D01*
G01*
X146550000Y-84320000D02*
G75*
G02*
X145700000Y-83470000I1000000J1850000D01*
G01*
X149400000Y-83470000D02*
G75*
G02*
X148550000Y-84320000I-1850000J1000000D01*
G01*
D11*
G04 #@! TO.C,G\u002A\u002A\u002A*
G36*
X144364433Y-78588040D02*
G01*
X144383490Y-78617658D01*
X144410984Y-78668876D01*
X144447646Y-78743252D01*
X144494207Y-78842349D01*
X144551401Y-78967726D01*
X144619958Y-79120945D01*
X144700610Y-79303567D01*
X144794090Y-79517151D01*
X144901128Y-79763260D01*
X145022457Y-80043454D01*
X145158809Y-80359293D01*
X145310915Y-80712339D01*
X145330213Y-80757167D01*
X145487026Y-81121577D01*
X145627827Y-81449043D01*
X145753418Y-81741472D01*
X145864602Y-82000770D01*
X145962181Y-82228843D01*
X146046960Y-82427598D01*
X146119740Y-82598940D01*
X146181325Y-82744778D01*
X146232517Y-82867016D01*
X146274120Y-82967561D01*
X146306937Y-83048320D01*
X146331770Y-83111199D01*
X146349422Y-83158104D01*
X146360697Y-83190942D01*
X146366397Y-83211619D01*
X146367500Y-83219952D01*
X146349464Y-83265685D01*
X146295486Y-83333252D01*
X146205763Y-83422443D01*
X146080493Y-83533044D01*
X146065160Y-83545996D01*
X145976357Y-83620441D01*
X145914383Y-83670480D01*
X145873657Y-83698942D01*
X145848600Y-83708657D01*
X145833632Y-83702452D01*
X145823173Y-83683158D01*
X145818490Y-83671063D01*
X145808213Y-83639459D01*
X145787532Y-83572040D01*
X145757889Y-83473634D01*
X145720724Y-83349070D01*
X145677475Y-83203176D01*
X145629584Y-83040781D01*
X145578491Y-82866712D01*
X145573475Y-82849581D01*
X145526650Y-82689645D01*
X145469729Y-82495270D01*
X145404524Y-82272642D01*
X145332848Y-82027946D01*
X145256513Y-81767367D01*
X145177329Y-81497092D01*
X145097110Y-81223306D01*
X145017668Y-80952193D01*
X144940814Y-80689940D01*
X144938804Y-80683084D01*
X144847135Y-80370280D01*
X144766595Y-80095387D01*
X144696403Y-79855694D01*
X144635777Y-79648489D01*
X144583935Y-79471059D01*
X144540097Y-79320692D01*
X144503481Y-79194677D01*
X144473306Y-79090302D01*
X144448789Y-79004855D01*
X144429150Y-78935623D01*
X144413608Y-78879896D01*
X144401380Y-78834960D01*
X144391686Y-78798104D01*
X144383744Y-78766616D01*
X144376773Y-78737785D01*
X144370082Y-78709292D01*
X144357934Y-78654331D01*
X144350563Y-78613165D01*
X144348701Y-78587353D01*
X144353081Y-78578458D01*
X144364433Y-78588040D01*
G37*
X144364433Y-78588040D02*
X144383490Y-78617658D01*
X144410984Y-78668876D01*
X144447646Y-78743252D01*
X144494207Y-78842349D01*
X144551401Y-78967726D01*
X144619958Y-79120945D01*
X144700610Y-79303567D01*
X144794090Y-79517151D01*
X144901128Y-79763260D01*
X145022457Y-80043454D01*
X145158809Y-80359293D01*
X145310915Y-80712339D01*
X145330213Y-80757167D01*
X145487026Y-81121577D01*
X145627827Y-81449043D01*
X145753418Y-81741472D01*
X145864602Y-82000770D01*
X145962181Y-82228843D01*
X146046960Y-82427598D01*
X146119740Y-82598940D01*
X146181325Y-82744778D01*
X146232517Y-82867016D01*
X146274120Y-82967561D01*
X146306937Y-83048320D01*
X146331770Y-83111199D01*
X146349422Y-83158104D01*
X146360697Y-83190942D01*
X146366397Y-83211619D01*
X146367500Y-83219952D01*
X146349464Y-83265685D01*
X146295486Y-83333252D01*
X146205763Y-83422443D01*
X146080493Y-83533044D01*
X146065160Y-83545996D01*
X145976357Y-83620441D01*
X145914383Y-83670480D01*
X145873657Y-83698942D01*
X145848600Y-83708657D01*
X145833632Y-83702452D01*
X145823173Y-83683158D01*
X145818490Y-83671063D01*
X145808213Y-83639459D01*
X145787532Y-83572040D01*
X145757889Y-83473634D01*
X145720724Y-83349070D01*
X145677475Y-83203176D01*
X145629584Y-83040781D01*
X145578491Y-82866712D01*
X145573475Y-82849581D01*
X145526650Y-82689645D01*
X145469729Y-82495270D01*
X145404524Y-82272642D01*
X145332848Y-82027946D01*
X145256513Y-81767367D01*
X145177329Y-81497092D01*
X145097110Y-81223306D01*
X145017668Y-80952193D01*
X144940814Y-80689940D01*
X144938804Y-80683084D01*
X144847135Y-80370280D01*
X144766595Y-80095387D01*
X144696403Y-79855694D01*
X144635777Y-79648489D01*
X144583935Y-79471059D01*
X144540097Y-79320692D01*
X144503481Y-79194677D01*
X144473306Y-79090302D01*
X144448789Y-79004855D01*
X144429150Y-78935623D01*
X144413608Y-78879896D01*
X144401380Y-78834960D01*
X144391686Y-78798104D01*
X144383744Y-78766616D01*
X144376773Y-78737785D01*
X144370082Y-78709292D01*
X144357934Y-78654331D01*
X144350563Y-78613165D01*
X144348701Y-78587353D01*
X144353081Y-78578458D01*
X144364433Y-78588040D01*
G36*
X157191177Y-83562174D02*
G01*
X157207068Y-83570699D01*
X157198915Y-83585308D01*
X157175625Y-83595845D01*
X157118658Y-83617340D01*
X157034529Y-83647462D01*
X156929755Y-83683876D01*
X156810851Y-83724251D01*
X156810593Y-83724338D01*
X156626128Y-83784071D01*
X156475601Y-83828055D01*
X156360077Y-83856053D01*
X156280620Y-83867832D01*
X156238296Y-83863156D01*
X156231167Y-83852180D01*
X156243214Y-83801596D01*
X156281186Y-83756760D01*
X156347835Y-83716643D01*
X156445907Y-83680218D01*
X156578153Y-83646457D01*
X156747322Y-83614330D01*
X156948727Y-83583836D01*
X157065924Y-83568765D01*
X157145435Y-83561537D01*
X157191177Y-83562174D01*
G37*
X157191177Y-83562174D02*
X157207068Y-83570699D01*
X157198915Y-83585308D01*
X157175625Y-83595845D01*
X157118658Y-83617340D01*
X157034529Y-83647462D01*
X156929755Y-83683876D01*
X156810851Y-83724251D01*
X156810593Y-83724338D01*
X156626128Y-83784071D01*
X156475601Y-83828055D01*
X156360077Y-83856053D01*
X156280620Y-83867832D01*
X156238296Y-83863156D01*
X156231167Y-83852180D01*
X156243214Y-83801596D01*
X156281186Y-83756760D01*
X156347835Y-83716643D01*
X156445907Y-83680218D01*
X156578153Y-83646457D01*
X156747322Y-83614330D01*
X156948727Y-83583836D01*
X157065924Y-83568765D01*
X157145435Y-83561537D01*
X157191177Y-83562174D01*
G36*
X155982415Y-83785478D02*
G01*
X156010737Y-83792958D01*
X156015711Y-83813350D01*
X156009510Y-83842090D01*
X155990577Y-83895441D01*
X155971861Y-83927977D01*
X155924443Y-83967878D01*
X155847267Y-84014086D01*
X155751176Y-84060917D01*
X155647013Y-84102687D01*
X155622258Y-84111247D01*
X155515386Y-84146194D01*
X155442199Y-84167657D01*
X155396609Y-84176645D01*
X155372524Y-84174166D01*
X155363854Y-84161228D01*
X155363334Y-84154116D01*
X155374572Y-84108748D01*
X155403130Y-84043774D01*
X155441272Y-83973713D01*
X155481262Y-83913081D01*
X155508269Y-83882115D01*
X155559037Y-83853395D01*
X155639787Y-83826400D01*
X155738184Y-83804039D01*
X155841894Y-83789221D01*
X155921253Y-83784744D01*
X155982415Y-83785478D01*
G37*
X155982415Y-83785478D02*
X156010737Y-83792958D01*
X156015711Y-83813350D01*
X156009510Y-83842090D01*
X155990577Y-83895441D01*
X155971861Y-83927977D01*
X155924443Y-83967878D01*
X155847267Y-84014086D01*
X155751176Y-84060917D01*
X155647013Y-84102687D01*
X155622258Y-84111247D01*
X155515386Y-84146194D01*
X155442199Y-84167657D01*
X155396609Y-84176645D01*
X155372524Y-84174166D01*
X155363854Y-84161228D01*
X155363334Y-84154116D01*
X155374572Y-84108748D01*
X155403130Y-84043774D01*
X155441272Y-83973713D01*
X155481262Y-83913081D01*
X155508269Y-83882115D01*
X155559037Y-83853395D01*
X155639787Y-83826400D01*
X155738184Y-83804039D01*
X155841894Y-83789221D01*
X155921253Y-83784744D01*
X155982415Y-83785478D01*
G36*
X155108375Y-83956276D02*
G01*
X155124249Y-83970476D01*
X155118645Y-84000959D01*
X155070651Y-84139194D01*
X155024510Y-84236546D01*
X154979538Y-84294386D01*
X154968536Y-84302743D01*
X154929786Y-84321694D01*
X154859189Y-84350208D01*
X154765256Y-84385071D01*
X154656498Y-84423068D01*
X154599236Y-84442231D01*
X154461002Y-84487072D01*
X154358417Y-84518482D01*
X154287344Y-84537494D01*
X154243646Y-84545139D01*
X154223185Y-84542447D01*
X154220334Y-84536678D01*
X154228081Y-84504661D01*
X154248325Y-84445334D01*
X154276564Y-84370156D01*
X154308300Y-84290588D01*
X154339032Y-84218093D01*
X154364262Y-84164130D01*
X154372446Y-84149234D01*
X154413107Y-84100107D01*
X154471881Y-84066693D01*
X154523617Y-84049641D01*
X154618529Y-84025620D01*
X154729133Y-84001869D01*
X154842897Y-83980637D01*
X154947294Y-83964173D01*
X155029792Y-83954726D01*
X155060181Y-83953334D01*
X155108375Y-83956276D01*
G37*
X155108375Y-83956276D02*
X155124249Y-83970476D01*
X155118645Y-84000959D01*
X155070651Y-84139194D01*
X155024510Y-84236546D01*
X154979538Y-84294386D01*
X154968536Y-84302743D01*
X154929786Y-84321694D01*
X154859189Y-84350208D01*
X154765256Y-84385071D01*
X154656498Y-84423068D01*
X154599236Y-84442231D01*
X154461002Y-84487072D01*
X154358417Y-84518482D01*
X154287344Y-84537494D01*
X154243646Y-84545139D01*
X154223185Y-84542447D01*
X154220334Y-84536678D01*
X154228081Y-84504661D01*
X154248325Y-84445334D01*
X154276564Y-84370156D01*
X154308300Y-84290588D01*
X154339032Y-84218093D01*
X154364262Y-84164130D01*
X154372446Y-84149234D01*
X154413107Y-84100107D01*
X154471881Y-84066693D01*
X154523617Y-84049641D01*
X154618529Y-84025620D01*
X154729133Y-84001869D01*
X154842897Y-83980637D01*
X154947294Y-83964173D01*
X155029792Y-83954726D01*
X155060181Y-83953334D01*
X155108375Y-83956276D01*
G36*
X153707449Y-78543894D02*
G01*
X153709749Y-78552426D01*
X153704192Y-78569383D01*
X153688465Y-78598183D01*
X153660256Y-78642240D01*
X153617253Y-78704971D01*
X153557145Y-78789792D01*
X153477619Y-78900119D01*
X153376362Y-79039368D01*
X153317576Y-79119928D01*
X153208587Y-79269358D01*
X153092012Y-79429506D01*
X152974836Y-79590755D01*
X152864048Y-79743484D01*
X152766632Y-79878074D01*
X152712668Y-79952834D01*
X152460956Y-80302084D01*
X152544338Y-80338811D01*
X152585350Y-80352995D01*
X152661706Y-80375636D01*
X152767620Y-80405166D01*
X152897306Y-80440015D01*
X153044978Y-80478614D01*
X153204852Y-80519395D01*
X153275107Y-80537011D01*
X153435629Y-80577580D01*
X153583922Y-80616076D01*
X153714712Y-80651049D01*
X153822722Y-80681050D01*
X153902677Y-80704630D01*
X153949302Y-80720339D01*
X153958282Y-80724651D01*
X153972005Y-80739902D01*
X153968560Y-80759300D01*
X153943391Y-80788909D01*
X153891942Y-80834792D01*
X153847909Y-80871544D01*
X153787882Y-80919112D01*
X153700405Y-80985726D01*
X153592646Y-81066063D01*
X153471772Y-81154801D01*
X153344951Y-81246620D01*
X153282579Y-81291287D01*
X153143889Y-81391138D01*
X153038061Y-81469546D01*
X152962685Y-81528477D01*
X152915353Y-81569897D01*
X152893656Y-81595774D01*
X152894805Y-81607874D01*
X152930889Y-81620927D01*
X153005500Y-81641886D01*
X153115712Y-81670052D01*
X153258603Y-81704728D01*
X153431248Y-81745217D01*
X153630724Y-81790819D01*
X153854107Y-81840838D01*
X154072167Y-81888835D01*
X154285588Y-81935712D01*
X154460994Y-81974882D01*
X154601824Y-82007227D01*
X154711517Y-82033628D01*
X154793510Y-82054966D01*
X154851243Y-82072124D01*
X154888154Y-82085982D01*
X154907681Y-82097421D01*
X154912803Y-82104325D01*
X154914085Y-82109929D01*
X154912755Y-82116031D01*
X154906726Y-82123604D01*
X154893912Y-82133618D01*
X154872226Y-82147046D01*
X154839582Y-82164858D01*
X154793894Y-82188027D01*
X154733076Y-82217525D01*
X154655040Y-82254322D01*
X154557700Y-82299390D01*
X154438971Y-82353701D01*
X154296765Y-82418228D01*
X154128997Y-82493940D01*
X153933579Y-82581810D01*
X153708426Y-82682810D01*
X153451451Y-82797910D01*
X153160567Y-82928084D01*
X152833689Y-83074302D01*
X152738667Y-83116802D01*
X152327296Y-83300795D01*
X151952793Y-83468289D01*
X151613377Y-83620058D01*
X151307266Y-83756877D01*
X151032679Y-83879519D01*
X150787835Y-83988761D01*
X150570954Y-84085376D01*
X150380254Y-84170139D01*
X150213953Y-84243824D01*
X150070272Y-84307206D01*
X149947428Y-84361059D01*
X149843640Y-84406158D01*
X149757128Y-84443277D01*
X149686111Y-84473191D01*
X149628807Y-84496674D01*
X149583435Y-84514501D01*
X149548214Y-84527447D01*
X149521363Y-84536285D01*
X149501101Y-84541791D01*
X149485646Y-84544738D01*
X149473218Y-84545902D01*
X149462036Y-84546057D01*
X149452059Y-84545973D01*
X149444237Y-84539033D01*
X149455759Y-84516624D01*
X149488824Y-84476336D01*
X149545632Y-84415760D01*
X149628383Y-84332486D01*
X149739277Y-84224104D01*
X149795035Y-84170265D01*
X149902213Y-84065853D01*
X150017306Y-83951625D01*
X150136567Y-83831502D01*
X150256251Y-83709406D01*
X150372609Y-83589258D01*
X150481896Y-83474978D01*
X150580365Y-83370488D01*
X150664268Y-83279709D01*
X150729859Y-83206562D01*
X150773391Y-83154968D01*
X150791118Y-83128848D01*
X150791334Y-83127611D01*
X150784603Y-83118812D01*
X150761990Y-83110457D01*
X150719857Y-83102140D01*
X150654570Y-83093455D01*
X150562493Y-83083996D01*
X150439991Y-83073356D01*
X150283429Y-83061130D01*
X150089171Y-83046911D01*
X150033104Y-83042913D01*
X149771157Y-83023783D01*
X149549157Y-83006364D01*
X149364766Y-82990390D01*
X149215643Y-82975597D01*
X149099449Y-82961720D01*
X149013845Y-82948493D01*
X148956491Y-82935652D01*
X148925047Y-82922932D01*
X148918370Y-82916630D01*
X148931854Y-82899956D01*
X148974833Y-82859945D01*
X149043706Y-82799660D01*
X149134872Y-82722161D01*
X149244731Y-82630509D01*
X149308621Y-82577974D01*
X149960799Y-82577974D01*
X150201441Y-82566542D01*
X150415640Y-82556864D01*
X150639883Y-82547631D01*
X150867115Y-82539067D01*
X151090282Y-82531398D01*
X151302328Y-82524850D01*
X151496198Y-82519648D01*
X151664837Y-82516016D01*
X151801191Y-82514181D01*
X151846798Y-82514000D01*
X152153920Y-82514000D01*
X152091752Y-82579400D01*
X152058596Y-82610329D01*
X151997588Y-82663390D01*
X151913904Y-82734235D01*
X151812721Y-82818513D01*
X151699215Y-82911878D01*
X151595667Y-82996143D01*
X151436352Y-83125307D01*
X151307474Y-83230276D01*
X151206435Y-83313330D01*
X151130637Y-83376749D01*
X151077483Y-83422810D01*
X151044376Y-83453795D01*
X151028717Y-83471983D01*
X151027911Y-83479651D01*
X151039358Y-83479082D01*
X151048097Y-83476658D01*
X151078405Y-83465041D01*
X151143003Y-83438653D01*
X151237281Y-83399430D01*
X151356632Y-83349308D01*
X151496449Y-83290223D01*
X151652122Y-83224110D01*
X151819045Y-83152906D01*
X151839084Y-83144338D01*
X152099937Y-83032303D01*
X152352943Y-82922733D01*
X152594093Y-82817411D01*
X152819378Y-82718120D01*
X153024791Y-82626643D01*
X153206323Y-82544762D01*
X153359964Y-82474262D01*
X153481707Y-82416924D01*
X153552268Y-82382322D01*
X153618343Y-82347770D01*
X153650962Y-82326048D01*
X153655066Y-82312167D01*
X153635599Y-82301136D01*
X153633468Y-82300337D01*
X153603167Y-82292751D01*
X153535850Y-82278201D01*
X153436093Y-82257606D01*
X153308472Y-82231883D01*
X153157564Y-82201950D01*
X152987947Y-82168726D01*
X152804195Y-82133128D01*
X152702259Y-82113539D01*
X152507597Y-82076105D01*
X152320182Y-82039816D01*
X152145360Y-82005725D01*
X151988474Y-81974883D01*
X151854868Y-81948343D01*
X151749888Y-81927159D01*
X151678877Y-81912383D01*
X151660271Y-81908297D01*
X151502626Y-81872516D01*
X151571952Y-81814640D01*
X151611027Y-81786389D01*
X151679971Y-81741029D01*
X151772088Y-81682779D01*
X151880682Y-81615862D01*
X151999056Y-81544497D01*
X152025931Y-81528509D01*
X152250687Y-81395110D01*
X152441638Y-81281620D01*
X152601391Y-81186349D01*
X152732550Y-81107606D01*
X152837720Y-81043701D01*
X152919506Y-80992944D01*
X152980514Y-80953646D01*
X153023348Y-80924116D01*
X153050614Y-80902664D01*
X153064916Y-80887600D01*
X153068860Y-80877234D01*
X153065051Y-80869875D01*
X153056093Y-80863835D01*
X153053040Y-80862162D01*
X153018885Y-80851327D01*
X152948384Y-80836423D01*
X152840492Y-80817279D01*
X152694163Y-80793722D01*
X152508356Y-80765581D01*
X152282023Y-80732683D01*
X152167167Y-80716351D01*
X152000208Y-80692295D01*
X151870602Y-80672166D01*
X151773697Y-80654640D01*
X151704839Y-80638388D01*
X151659377Y-80622085D01*
X151632657Y-80604405D01*
X151620027Y-80584021D01*
X151616834Y-80559606D01*
X151616834Y-80559462D01*
X151618460Y-80537228D01*
X151625582Y-80513548D01*
X151641563Y-80483855D01*
X151669765Y-80443581D01*
X151713551Y-80388162D01*
X151776285Y-80313030D01*
X151861330Y-80213619D01*
X151931089Y-80132750D01*
X152009856Y-80040935D01*
X152081780Y-79955909D01*
X152140891Y-79884816D01*
X152181219Y-79834802D01*
X152192706Y-79819609D01*
X152192364Y-79810974D01*
X152166299Y-79819321D01*
X152112974Y-79845501D01*
X152030857Y-79890368D01*
X151918411Y-79954774D01*
X151774103Y-80039573D01*
X151596397Y-80145616D01*
X151479606Y-80215875D01*
X151247805Y-80356096D01*
X151050573Y-80476458D01*
X150885852Y-80578321D01*
X150751582Y-80663049D01*
X150645702Y-80732002D01*
X150566153Y-80786544D01*
X150510875Y-80828036D01*
X150477809Y-80857841D01*
X150464894Y-80877319D01*
X150466810Y-80885610D01*
X150491806Y-80893173D01*
X150553049Y-80905306D01*
X150644810Y-80921065D01*
X150761363Y-80939507D01*
X150896982Y-80959690D01*
X151034864Y-80979149D01*
X151226126Y-81005471D01*
X151379687Y-81026752D01*
X151499777Y-81043776D01*
X151590628Y-81057326D01*
X151656468Y-81068185D01*
X151701528Y-81077135D01*
X151730038Y-81084960D01*
X151746229Y-81092443D01*
X151754331Y-81100366D01*
X151758573Y-81109513D01*
X151760014Y-81113371D01*
X151761101Y-81128277D01*
X151752465Y-81148051D01*
X151731483Y-81174936D01*
X151695532Y-81211175D01*
X151641989Y-81259012D01*
X151568231Y-81320691D01*
X151471635Y-81398456D01*
X151349577Y-81494549D01*
X151199435Y-81611215D01*
X151018585Y-81750698D01*
X150981834Y-81778965D01*
X150833268Y-81893411D01*
X150685025Y-82007995D01*
X150543106Y-82118051D01*
X150413513Y-82218911D01*
X150302247Y-82305908D01*
X150215311Y-82374376D01*
X150180274Y-82402258D01*
X149960799Y-82577974D01*
X149308621Y-82577974D01*
X149369683Y-82527765D01*
X149505670Y-82417357D01*
X149732559Y-82234082D01*
X149928310Y-82075532D01*
X150094897Y-81940055D01*
X150234290Y-81825998D01*
X150348465Y-81731710D01*
X150439392Y-81655536D01*
X150509044Y-81595825D01*
X150559396Y-81550924D01*
X150592418Y-81519180D01*
X150610084Y-81498942D01*
X150614371Y-81488571D01*
X150610663Y-81480741D01*
X150601438Y-81473149D01*
X150582428Y-81464713D01*
X150549367Y-81454348D01*
X150497986Y-81440972D01*
X150424019Y-81423502D01*
X150323198Y-81400854D01*
X150191256Y-81371944D01*
X150023924Y-81335691D01*
X149944667Y-81318575D01*
X149753479Y-81277134D01*
X149599824Y-81243355D01*
X149479798Y-81216253D01*
X149389492Y-81194844D01*
X149325000Y-81178142D01*
X149282417Y-81165161D01*
X149257835Y-81154916D01*
X149247347Y-81146421D01*
X149246167Y-81142395D01*
X149251993Y-81134681D01*
X149270883Y-81119850D01*
X149304954Y-81096625D01*
X149356325Y-81063729D01*
X149427112Y-81019887D01*
X149519435Y-80963822D01*
X149635411Y-80894258D01*
X149777157Y-80809917D01*
X149946791Y-80709523D01*
X150146431Y-80591801D01*
X150378195Y-80455473D01*
X150644201Y-80299263D01*
X150674917Y-80281238D01*
X151046590Y-80063388D01*
X151399898Y-79856808D01*
X151733467Y-79662287D01*
X152045922Y-79480611D01*
X152335889Y-79312569D01*
X152601992Y-79158948D01*
X152842857Y-79020535D01*
X153057109Y-78898118D01*
X153243374Y-78792486D01*
X153400276Y-78704424D01*
X153526440Y-78634721D01*
X153620493Y-78584165D01*
X153681059Y-78553543D01*
X153706764Y-78543643D01*
X153707449Y-78543894D01*
G37*
X153707449Y-78543894D02*
X153709749Y-78552426D01*
X153704192Y-78569383D01*
X153688465Y-78598183D01*
X153660256Y-78642240D01*
X153617253Y-78704971D01*
X153557145Y-78789792D01*
X153477619Y-78900119D01*
X153376362Y-79039368D01*
X153317576Y-79119928D01*
X153208587Y-79269358D01*
X153092012Y-79429506D01*
X152974836Y-79590755D01*
X152864048Y-79743484D01*
X152766632Y-79878074D01*
X152712668Y-79952834D01*
X152460956Y-80302084D01*
X152544338Y-80338811D01*
X152585350Y-80352995D01*
X152661706Y-80375636D01*
X152767620Y-80405166D01*
X152897306Y-80440015D01*
X153044978Y-80478614D01*
X153204852Y-80519395D01*
X153275107Y-80537011D01*
X153435629Y-80577580D01*
X153583922Y-80616076D01*
X153714712Y-80651049D01*
X153822722Y-80681050D01*
X153902677Y-80704630D01*
X153949302Y-80720339D01*
X153958282Y-80724651D01*
X153972005Y-80739902D01*
X153968560Y-80759300D01*
X153943391Y-80788909D01*
X153891942Y-80834792D01*
X153847909Y-80871544D01*
X153787882Y-80919112D01*
X153700405Y-80985726D01*
X153592646Y-81066063D01*
X153471772Y-81154801D01*
X153344951Y-81246620D01*
X153282579Y-81291287D01*
X153143889Y-81391138D01*
X153038061Y-81469546D01*
X152962685Y-81528477D01*
X152915353Y-81569897D01*
X152893656Y-81595774D01*
X152894805Y-81607874D01*
X152930889Y-81620927D01*
X153005500Y-81641886D01*
X153115712Y-81670052D01*
X153258603Y-81704728D01*
X153431248Y-81745217D01*
X153630724Y-81790819D01*
X153854107Y-81840838D01*
X154072167Y-81888835D01*
X154285588Y-81935712D01*
X154460994Y-81974882D01*
X154601824Y-82007227D01*
X154711517Y-82033628D01*
X154793510Y-82054966D01*
X154851243Y-82072124D01*
X154888154Y-82085982D01*
X154907681Y-82097421D01*
X154912803Y-82104325D01*
X154914085Y-82109929D01*
X154912755Y-82116031D01*
X154906726Y-82123604D01*
X154893912Y-82133618D01*
X154872226Y-82147046D01*
X154839582Y-82164858D01*
X154793894Y-82188027D01*
X154733076Y-82217525D01*
X154655040Y-82254322D01*
X154557700Y-82299390D01*
X154438971Y-82353701D01*
X154296765Y-82418228D01*
X154128997Y-82493940D01*
X153933579Y-82581810D01*
X153708426Y-82682810D01*
X153451451Y-82797910D01*
X153160567Y-82928084D01*
X152833689Y-83074302D01*
X152738667Y-83116802D01*
X152327296Y-83300795D01*
X151952793Y-83468289D01*
X151613377Y-83620058D01*
X151307266Y-83756877D01*
X151032679Y-83879519D01*
X150787835Y-83988761D01*
X150570954Y-84085376D01*
X150380254Y-84170139D01*
X150213953Y-84243824D01*
X150070272Y-84307206D01*
X149947428Y-84361059D01*
X149843640Y-84406158D01*
X149757128Y-84443277D01*
X149686111Y-84473191D01*
X149628807Y-84496674D01*
X149583435Y-84514501D01*
X149548214Y-84527447D01*
X149521363Y-84536285D01*
X149501101Y-84541791D01*
X149485646Y-84544738D01*
X149473218Y-84545902D01*
X149462036Y-84546057D01*
X149452059Y-84545973D01*
X149444237Y-84539033D01*
X149455759Y-84516624D01*
X149488824Y-84476336D01*
X149545632Y-84415760D01*
X149628383Y-84332486D01*
X149739277Y-84224104D01*
X149795035Y-84170265D01*
X149902213Y-84065853D01*
X150017306Y-83951625D01*
X150136567Y-83831502D01*
X150256251Y-83709406D01*
X150372609Y-83589258D01*
X150481896Y-83474978D01*
X150580365Y-83370488D01*
X150664268Y-83279709D01*
X150729859Y-83206562D01*
X150773391Y-83154968D01*
X150791118Y-83128848D01*
X150791334Y-83127611D01*
X150784603Y-83118812D01*
X150761990Y-83110457D01*
X150719857Y-83102140D01*
X150654570Y-83093455D01*
X150562493Y-83083996D01*
X150439991Y-83073356D01*
X150283429Y-83061130D01*
X150089171Y-83046911D01*
X150033104Y-83042913D01*
X149771157Y-83023783D01*
X149549157Y-83006364D01*
X149364766Y-82990390D01*
X149215643Y-82975597D01*
X149099449Y-82961720D01*
X149013845Y-82948493D01*
X148956491Y-82935652D01*
X148925047Y-82922932D01*
X148918370Y-82916630D01*
X148931854Y-82899956D01*
X148974833Y-82859945D01*
X149043706Y-82799660D01*
X149134872Y-82722161D01*
X149244731Y-82630509D01*
X149308621Y-82577974D01*
X149960799Y-82577974D01*
X150201441Y-82566542D01*
X150415640Y-82556864D01*
X150639883Y-82547631D01*
X150867115Y-82539067D01*
X151090282Y-82531398D01*
X151302328Y-82524850D01*
X151496198Y-82519648D01*
X151664837Y-82516016D01*
X151801191Y-82514181D01*
X151846798Y-82514000D01*
X152153920Y-82514000D01*
X152091752Y-82579400D01*
X152058596Y-82610329D01*
X151997588Y-82663390D01*
X151913904Y-82734235D01*
X151812721Y-82818513D01*
X151699215Y-82911878D01*
X151595667Y-82996143D01*
X151436352Y-83125307D01*
X151307474Y-83230276D01*
X151206435Y-83313330D01*
X151130637Y-83376749D01*
X151077483Y-83422810D01*
X151044376Y-83453795D01*
X151028717Y-83471983D01*
X151027911Y-83479651D01*
X151039358Y-83479082D01*
X151048097Y-83476658D01*
X151078405Y-83465041D01*
X151143003Y-83438653D01*
X151237281Y-83399430D01*
X151356632Y-83349308D01*
X151496449Y-83290223D01*
X151652122Y-83224110D01*
X151819045Y-83152906D01*
X151839084Y-83144338D01*
X152099937Y-83032303D01*
X152352943Y-82922733D01*
X152594093Y-82817411D01*
X152819378Y-82718120D01*
X153024791Y-82626643D01*
X153206323Y-82544762D01*
X153359964Y-82474262D01*
X153481707Y-82416924D01*
X153552268Y-82382322D01*
X153618343Y-82347770D01*
X153650962Y-82326048D01*
X153655066Y-82312167D01*
X153635599Y-82301136D01*
X153633468Y-82300337D01*
X153603167Y-82292751D01*
X153535850Y-82278201D01*
X153436093Y-82257606D01*
X153308472Y-82231883D01*
X153157564Y-82201950D01*
X152987947Y-82168726D01*
X152804195Y-82133128D01*
X152702259Y-82113539D01*
X152507597Y-82076105D01*
X152320182Y-82039816D01*
X152145360Y-82005725D01*
X151988474Y-81974883D01*
X151854868Y-81948343D01*
X151749888Y-81927159D01*
X151678877Y-81912383D01*
X151660271Y-81908297D01*
X151502626Y-81872516D01*
X151571952Y-81814640D01*
X151611027Y-81786389D01*
X151679971Y-81741029D01*
X151772088Y-81682779D01*
X151880682Y-81615862D01*
X151999056Y-81544497D01*
X152025931Y-81528509D01*
X152250687Y-81395110D01*
X152441638Y-81281620D01*
X152601391Y-81186349D01*
X152732550Y-81107606D01*
X152837720Y-81043701D01*
X152919506Y-80992944D01*
X152980514Y-80953646D01*
X153023348Y-80924116D01*
X153050614Y-80902664D01*
X153064916Y-80887600D01*
X153068860Y-80877234D01*
X153065051Y-80869875D01*
X153056093Y-80863835D01*
X153053040Y-80862162D01*
X153018885Y-80851327D01*
X152948384Y-80836423D01*
X152840492Y-80817279D01*
X152694163Y-80793722D01*
X152508356Y-80765581D01*
X152282023Y-80732683D01*
X152167167Y-80716351D01*
X152000208Y-80692295D01*
X151870602Y-80672166D01*
X151773697Y-80654640D01*
X151704839Y-80638388D01*
X151659377Y-80622085D01*
X151632657Y-80604405D01*
X151620027Y-80584021D01*
X151616834Y-80559606D01*
X151616834Y-80559462D01*
X151618460Y-80537228D01*
X151625582Y-80513548D01*
X151641563Y-80483855D01*
X151669765Y-80443581D01*
X151713551Y-80388162D01*
X151776285Y-80313030D01*
X151861330Y-80213619D01*
X151931089Y-80132750D01*
X152009856Y-80040935D01*
X152081780Y-79955909D01*
X152140891Y-79884816D01*
X152181219Y-79834802D01*
X152192706Y-79819609D01*
X152192364Y-79810974D01*
X152166299Y-79819321D01*
X152112974Y-79845501D01*
X152030857Y-79890368D01*
X151918411Y-79954774D01*
X151774103Y-80039573D01*
X151596397Y-80145616D01*
X151479606Y-80215875D01*
X151247805Y-80356096D01*
X151050573Y-80476458D01*
X150885852Y-80578321D01*
X150751582Y-80663049D01*
X150645702Y-80732002D01*
X150566153Y-80786544D01*
X150510875Y-80828036D01*
X150477809Y-80857841D01*
X150464894Y-80877319D01*
X150466810Y-80885610D01*
X150491806Y-80893173D01*
X150553049Y-80905306D01*
X150644810Y-80921065D01*
X150761363Y-80939507D01*
X150896982Y-80959690D01*
X151034864Y-80979149D01*
X151226126Y-81005471D01*
X151379687Y-81026752D01*
X151499777Y-81043776D01*
X151590628Y-81057326D01*
X151656468Y-81068185D01*
X151701528Y-81077135D01*
X151730038Y-81084960D01*
X151746229Y-81092443D01*
X151754331Y-81100366D01*
X151758573Y-81109513D01*
X151760014Y-81113371D01*
X151761101Y-81128277D01*
X151752465Y-81148051D01*
X151731483Y-81174936D01*
X151695532Y-81211175D01*
X151641989Y-81259012D01*
X151568231Y-81320691D01*
X151471635Y-81398456D01*
X151349577Y-81494549D01*
X151199435Y-81611215D01*
X151018585Y-81750698D01*
X150981834Y-81778965D01*
X150833268Y-81893411D01*
X150685025Y-82007995D01*
X150543106Y-82118051D01*
X150413513Y-82218911D01*
X150302247Y-82305908D01*
X150215311Y-82374376D01*
X150180274Y-82402258D01*
X149960799Y-82577974D01*
X149308621Y-82577974D01*
X149369683Y-82527765D01*
X149505670Y-82417357D01*
X149732559Y-82234082D01*
X149928310Y-82075532D01*
X150094897Y-81940055D01*
X150234290Y-81825998D01*
X150348465Y-81731710D01*
X150439392Y-81655536D01*
X150509044Y-81595825D01*
X150559396Y-81550924D01*
X150592418Y-81519180D01*
X150610084Y-81498942D01*
X150614371Y-81488571D01*
X150610663Y-81480741D01*
X150601438Y-81473149D01*
X150582428Y-81464713D01*
X150549367Y-81454348D01*
X150497986Y-81440972D01*
X150424019Y-81423502D01*
X150323198Y-81400854D01*
X150191256Y-81371944D01*
X150023924Y-81335691D01*
X149944667Y-81318575D01*
X149753479Y-81277134D01*
X149599824Y-81243355D01*
X149479798Y-81216253D01*
X149389492Y-81194844D01*
X149325000Y-81178142D01*
X149282417Y-81165161D01*
X149257835Y-81154916D01*
X149247347Y-81146421D01*
X149246167Y-81142395D01*
X149251993Y-81134681D01*
X149270883Y-81119850D01*
X149304954Y-81096625D01*
X149356325Y-81063729D01*
X149427112Y-81019887D01*
X149519435Y-80963822D01*
X149635411Y-80894258D01*
X149777157Y-80809917D01*
X149946791Y-80709523D01*
X150146431Y-80591801D01*
X150378195Y-80455473D01*
X150644201Y-80299263D01*
X150674917Y-80281238D01*
X151046590Y-80063388D01*
X151399898Y-79856808D01*
X151733467Y-79662287D01*
X152045922Y-79480611D01*
X152335889Y-79312569D01*
X152601992Y-79158948D01*
X152842857Y-79020535D01*
X153057109Y-78898118D01*
X153243374Y-78792486D01*
X153400276Y-78704424D01*
X153526440Y-78634721D01*
X153620493Y-78584165D01*
X153681059Y-78553543D01*
X153706764Y-78543643D01*
X153707449Y-78543894D01*
G36*
X140693829Y-85524919D02*
G01*
X140715783Y-85537720D01*
X140716000Y-85539278D01*
X140703103Y-85563908D01*
X140669112Y-85610564D01*
X140621073Y-85669644D01*
X140615459Y-85676227D01*
X140514917Y-85793566D01*
X140313834Y-85790054D01*
X140202981Y-85787760D01*
X140086959Y-85784781D01*
X139986644Y-85781668D01*
X139964584Y-85780862D01*
X139787841Y-85773562D01*
X139612684Y-85765361D01*
X139444310Y-85756589D01*
X139287919Y-85747576D01*
X139148709Y-85738653D01*
X139031879Y-85730149D01*
X138942627Y-85722394D01*
X138886152Y-85715719D01*
X138867886Y-85711227D01*
X138874029Y-85696886D01*
X138911395Y-85682852D01*
X138920444Y-85680870D01*
X138973870Y-85672589D01*
X139063236Y-85661484D01*
X139182289Y-85648139D01*
X139324773Y-85633138D01*
X139484434Y-85617066D01*
X139655016Y-85600505D01*
X139830265Y-85584040D01*
X140003925Y-85568256D01*
X140169743Y-85553736D01*
X140321463Y-85541064D01*
X140452831Y-85530824D01*
X140557590Y-85523601D01*
X140629488Y-85519978D01*
X140646854Y-85519667D01*
X140693829Y-85524919D01*
G37*
X140693829Y-85524919D02*
X140715783Y-85537720D01*
X140716000Y-85539278D01*
X140703103Y-85563908D01*
X140669112Y-85610564D01*
X140621073Y-85669644D01*
X140615459Y-85676227D01*
X140514917Y-85793566D01*
X140313834Y-85790054D01*
X140202981Y-85787760D01*
X140086959Y-85784781D01*
X139986644Y-85781668D01*
X139964584Y-85780862D01*
X139787841Y-85773562D01*
X139612684Y-85765361D01*
X139444310Y-85756589D01*
X139287919Y-85747576D01*
X139148709Y-85738653D01*
X139031879Y-85730149D01*
X138942627Y-85722394D01*
X138886152Y-85715719D01*
X138867886Y-85711227D01*
X138874029Y-85696886D01*
X138911395Y-85682852D01*
X138920444Y-85680870D01*
X138973870Y-85672589D01*
X139063236Y-85661484D01*
X139182289Y-85648139D01*
X139324773Y-85633138D01*
X139484434Y-85617066D01*
X139655016Y-85600505D01*
X139830265Y-85584040D01*
X140003925Y-85568256D01*
X140169743Y-85553736D01*
X140321463Y-85541064D01*
X140452831Y-85530824D01*
X140557590Y-85523601D01*
X140629488Y-85519978D01*
X140646854Y-85519667D01*
X140693829Y-85524919D01*
G36*
X145582545Y-85036395D02*
G01*
X145613317Y-85046140D01*
X145625764Y-85062715D01*
X145626667Y-85070845D01*
X145612989Y-85097020D01*
X145574674Y-85149284D01*
X145515805Y-85222622D01*
X145440460Y-85312020D01*
X145352722Y-85412463D01*
X145308032Y-85462428D01*
X144989396Y-85816000D01*
X143530032Y-85816000D01*
X143285716Y-85815759D01*
X143054220Y-85815062D01*
X142838957Y-85813949D01*
X142643340Y-85812460D01*
X142470782Y-85810635D01*
X142324695Y-85808514D01*
X142208493Y-85806137D01*
X142125587Y-85803543D01*
X142079392Y-85800774D01*
X142070667Y-85798906D01*
X142085023Y-85778860D01*
X142124573Y-85735002D01*
X142184038Y-85672907D01*
X142258140Y-85598151D01*
X142298209Y-85558573D01*
X142525750Y-85335334D01*
X142748000Y-85310425D01*
X142815801Y-85303137D01*
X142920228Y-85292322D01*
X143055771Y-85278532D01*
X143216920Y-85262321D01*
X143398166Y-85244240D01*
X143593997Y-85224843D01*
X143798905Y-85204681D01*
X143943917Y-85190495D01*
X144153893Y-85169885D01*
X144360297Y-85149404D01*
X144557334Y-85129642D01*
X144739210Y-85111190D01*
X144900132Y-85094638D01*
X145034305Y-85080576D01*
X145135937Y-85069595D01*
X145182167Y-85064345D01*
X145333258Y-85047456D01*
X145447216Y-85037122D01*
X145528745Y-85033412D01*
X145582545Y-85036395D01*
G37*
X145582545Y-85036395D02*
X145613317Y-85046140D01*
X145625764Y-85062715D01*
X145626667Y-85070845D01*
X145612989Y-85097020D01*
X145574674Y-85149284D01*
X145515805Y-85222622D01*
X145440460Y-85312020D01*
X145352722Y-85412463D01*
X145308032Y-85462428D01*
X144989396Y-85816000D01*
X143530032Y-85816000D01*
X143285716Y-85815759D01*
X143054220Y-85815062D01*
X142838957Y-85813949D01*
X142643340Y-85812460D01*
X142470782Y-85810635D01*
X142324695Y-85808514D01*
X142208493Y-85806137D01*
X142125587Y-85803543D01*
X142079392Y-85800774D01*
X142070667Y-85798906D01*
X142085023Y-85778860D01*
X142124573Y-85735002D01*
X142184038Y-85672907D01*
X142258140Y-85598151D01*
X142298209Y-85558573D01*
X142525750Y-85335334D01*
X142748000Y-85310425D01*
X142815801Y-85303137D01*
X142920228Y-85292322D01*
X143055771Y-85278532D01*
X143216920Y-85262321D01*
X143398166Y-85244240D01*
X143593997Y-85224843D01*
X143798905Y-85204681D01*
X143943917Y-85190495D01*
X144153893Y-85169885D01*
X144360297Y-85149404D01*
X144557334Y-85129642D01*
X144739210Y-85111190D01*
X144900132Y-85094638D01*
X145034305Y-85080576D01*
X145135937Y-85069595D01*
X145182167Y-85064345D01*
X145333258Y-85047456D01*
X145447216Y-85037122D01*
X145528745Y-85033412D01*
X145582545Y-85036395D01*
G36*
X141948993Y-85396708D02*
G01*
X141972878Y-85400722D01*
X142011383Y-85415194D01*
X142015374Y-85438122D01*
X142006006Y-85458337D01*
X141981895Y-85491782D01*
X141935797Y-85546671D01*
X141875312Y-85614169D01*
X141833515Y-85658900D01*
X141684285Y-85816000D01*
X141395934Y-85812613D01*
X141283282Y-85810727D01*
X141180218Y-85807980D01*
X141097062Y-85804715D01*
X141044131Y-85801276D01*
X141038792Y-85800688D01*
X140991953Y-85789050D01*
X140970193Y-85772162D01*
X140970000Y-85770515D01*
X140985425Y-85743043D01*
X141026098Y-85697529D01*
X141083612Y-85641614D01*
X141149565Y-85582939D01*
X141215551Y-85529147D01*
X141273165Y-85487878D01*
X141295172Y-85474870D01*
X141350611Y-85455709D01*
X141437250Y-85437185D01*
X141543963Y-85420513D01*
X141659622Y-85406912D01*
X141773098Y-85397599D01*
X141873265Y-85393792D01*
X141948993Y-85396708D01*
G37*
X141948993Y-85396708D02*
X141972878Y-85400722D01*
X142011383Y-85415194D01*
X142015374Y-85438122D01*
X142006006Y-85458337D01*
X141981895Y-85491782D01*
X141935797Y-85546671D01*
X141875312Y-85614169D01*
X141833515Y-85658900D01*
X141684285Y-85816000D01*
X141395934Y-85812613D01*
X141283282Y-85810727D01*
X141180218Y-85807980D01*
X141097062Y-85804715D01*
X141044131Y-85801276D01*
X141038792Y-85800688D01*
X140991953Y-85789050D01*
X140970193Y-85772162D01*
X140970000Y-85770515D01*
X140985425Y-85743043D01*
X141026098Y-85697529D01*
X141083612Y-85641614D01*
X141149565Y-85582939D01*
X141215551Y-85529147D01*
X141273165Y-85487878D01*
X141295172Y-85474870D01*
X141350611Y-85455709D01*
X141437250Y-85437185D01*
X141543963Y-85420513D01*
X141659622Y-85406912D01*
X141773098Y-85397599D01*
X141873265Y-85393792D01*
X141948993Y-85396708D01*
G36*
X154024284Y-84182975D02*
G01*
X154027974Y-84237534D01*
X154016676Y-84329628D01*
X153990330Y-84460207D01*
X153986403Y-84477432D01*
X153942972Y-84666061D01*
X153399028Y-84841674D01*
X153284141Y-84878932D01*
X153134090Y-84927857D01*
X152953892Y-84986801D01*
X152748567Y-85054115D01*
X152523134Y-85128151D01*
X152282612Y-85207258D01*
X152032021Y-85289789D01*
X151776378Y-85374094D01*
X151520704Y-85458525D01*
X151423288Y-85490727D01*
X151185780Y-85569016D01*
X150959092Y-85643264D01*
X150746570Y-85712403D01*
X150551558Y-85775369D01*
X150377403Y-85831094D01*
X150227448Y-85878514D01*
X150105041Y-85916562D01*
X150013526Y-85944171D01*
X149956248Y-85960276D01*
X149937579Y-85964167D01*
X149890138Y-85954671D01*
X149866541Y-85937709D01*
X149862345Y-85910798D01*
X149859263Y-85850288D01*
X149857252Y-85764407D01*
X149856270Y-85661387D01*
X149856275Y-85549458D01*
X149857222Y-85436852D01*
X149859071Y-85331797D01*
X149861778Y-85242527D01*
X149865300Y-85177269D01*
X149869596Y-85144257D01*
X149870664Y-85142114D01*
X149895547Y-85132708D01*
X149958284Y-85114665D01*
X150055460Y-85088791D01*
X150183663Y-85055893D01*
X150339479Y-85016778D01*
X150519495Y-84972252D01*
X150720298Y-84923122D01*
X150938475Y-84870195D01*
X151170611Y-84814276D01*
X151413294Y-84756172D01*
X151663111Y-84696691D01*
X151916648Y-84636639D01*
X152170492Y-84576821D01*
X152421230Y-84518046D01*
X152665447Y-84461118D01*
X152899732Y-84406846D01*
X153120671Y-84356035D01*
X153324850Y-84309493D01*
X153508856Y-84268025D01*
X153669275Y-84232438D01*
X153802695Y-84203539D01*
X153905703Y-84182134D01*
X153974884Y-84169031D01*
X154005665Y-84165000D01*
X154024284Y-84182975D01*
G37*
X154024284Y-84182975D02*
X154027974Y-84237534D01*
X154016676Y-84329628D01*
X153990330Y-84460207D01*
X153986403Y-84477432D01*
X153942972Y-84666061D01*
X153399028Y-84841674D01*
X153284141Y-84878932D01*
X153134090Y-84927857D01*
X152953892Y-84986801D01*
X152748567Y-85054115D01*
X152523134Y-85128151D01*
X152282612Y-85207258D01*
X152032021Y-85289789D01*
X151776378Y-85374094D01*
X151520704Y-85458525D01*
X151423288Y-85490727D01*
X151185780Y-85569016D01*
X150959092Y-85643264D01*
X150746570Y-85712403D01*
X150551558Y-85775369D01*
X150377403Y-85831094D01*
X150227448Y-85878514D01*
X150105041Y-85916562D01*
X150013526Y-85944171D01*
X149956248Y-85960276D01*
X149937579Y-85964167D01*
X149890138Y-85954671D01*
X149866541Y-85937709D01*
X149862345Y-85910798D01*
X149859263Y-85850288D01*
X149857252Y-85764407D01*
X149856270Y-85661387D01*
X149856275Y-85549458D01*
X149857222Y-85436852D01*
X149859071Y-85331797D01*
X149861778Y-85242527D01*
X149865300Y-85177269D01*
X149869596Y-85144257D01*
X149870664Y-85142114D01*
X149895547Y-85132708D01*
X149958284Y-85114665D01*
X150055460Y-85088791D01*
X150183663Y-85055893D01*
X150339479Y-85016778D01*
X150519495Y-84972252D01*
X150720298Y-84923122D01*
X150938475Y-84870195D01*
X151170611Y-84814276D01*
X151413294Y-84756172D01*
X151663111Y-84696691D01*
X151916648Y-84636639D01*
X152170492Y-84576821D01*
X152421230Y-84518046D01*
X152665447Y-84461118D01*
X152899732Y-84406846D01*
X153120671Y-84356035D01*
X153324850Y-84309493D01*
X153508856Y-84268025D01*
X153669275Y-84232438D01*
X153802695Y-84203539D01*
X153905703Y-84182134D01*
X153974884Y-84169031D01*
X154005665Y-84165000D01*
X154024284Y-84182975D01*
G36*
X149670022Y-87444649D02*
G01*
X149690843Y-87503249D01*
X149722287Y-87598448D01*
X149763735Y-87728224D01*
X149814566Y-87890559D01*
X149874162Y-88083432D01*
X149941904Y-88304824D01*
X150017173Y-88552714D01*
X150099349Y-88825083D01*
X150187813Y-89119910D01*
X150281947Y-89435177D01*
X150381130Y-89768862D01*
X150442267Y-89975250D01*
X150481078Y-90105566D01*
X150530429Y-90269885D01*
X150588363Y-90461766D01*
X150652923Y-90674764D01*
X150722152Y-90902438D01*
X150794095Y-91138344D01*
X150866795Y-91376040D01*
X150938294Y-91609082D01*
X150950080Y-91647417D01*
X151040056Y-91940188D01*
X151118258Y-92195141D01*
X151185453Y-92414893D01*
X151242407Y-92602058D01*
X151289886Y-92759252D01*
X151328657Y-92889092D01*
X151359486Y-92994192D01*
X151383138Y-93077169D01*
X151400381Y-93140638D01*
X151411980Y-93187215D01*
X151418702Y-93219515D01*
X151421314Y-93240155D01*
X151420580Y-93251750D01*
X151420316Y-93252621D01*
X151406731Y-93253043D01*
X151383857Y-93222597D01*
X151378750Y-93213225D01*
X151339432Y-93134191D01*
X151284692Y-93019135D01*
X151215802Y-92870936D01*
X151134035Y-92692477D01*
X151040663Y-92486636D01*
X150936958Y-92256295D01*
X150824192Y-92004334D01*
X150703638Y-91733633D01*
X150576567Y-91447073D01*
X150444252Y-91147534D01*
X150307965Y-90837897D01*
X150168978Y-90521042D01*
X150028564Y-90199850D01*
X149887993Y-89877201D01*
X149748540Y-89555975D01*
X149611476Y-89239053D01*
X149478072Y-88929316D01*
X149349602Y-88629643D01*
X149227337Y-88342916D01*
X149217496Y-88319762D01*
X149151801Y-88164849D01*
X149101283Y-88044110D01*
X149064515Y-87952779D01*
X149040068Y-87886091D01*
X149026514Y-87839278D01*
X149022425Y-87807576D01*
X149026373Y-87786218D01*
X149036930Y-87770437D01*
X149049319Y-87758495D01*
X149089025Y-87729232D01*
X149154946Y-87687630D01*
X149238907Y-87638155D01*
X149332732Y-87585273D01*
X149428244Y-87533451D01*
X149517269Y-87487154D01*
X149591630Y-87450849D01*
X149643153Y-87429000D01*
X149660442Y-87424667D01*
X149670022Y-87444649D01*
G37*
X149670022Y-87444649D02*
X149690843Y-87503249D01*
X149722287Y-87598448D01*
X149763735Y-87728224D01*
X149814566Y-87890559D01*
X149874162Y-88083432D01*
X149941904Y-88304824D01*
X150017173Y-88552714D01*
X150099349Y-88825083D01*
X150187813Y-89119910D01*
X150281947Y-89435177D01*
X150381130Y-89768862D01*
X150442267Y-89975250D01*
X150481078Y-90105566D01*
X150530429Y-90269885D01*
X150588363Y-90461766D01*
X150652923Y-90674764D01*
X150722152Y-90902438D01*
X150794095Y-91138344D01*
X150866795Y-91376040D01*
X150938294Y-91609082D01*
X150950080Y-91647417D01*
X151040056Y-91940188D01*
X151118258Y-92195141D01*
X151185453Y-92414893D01*
X151242407Y-92602058D01*
X151289886Y-92759252D01*
X151328657Y-92889092D01*
X151359486Y-92994192D01*
X151383138Y-93077169D01*
X151400381Y-93140638D01*
X151411980Y-93187215D01*
X151418702Y-93219515D01*
X151421314Y-93240155D01*
X151420580Y-93251750D01*
X151420316Y-93252621D01*
X151406731Y-93253043D01*
X151383857Y-93222597D01*
X151378750Y-93213225D01*
X151339432Y-93134191D01*
X151284692Y-93019135D01*
X151215802Y-92870936D01*
X151134035Y-92692477D01*
X151040663Y-92486636D01*
X150936958Y-92256295D01*
X150824192Y-92004334D01*
X150703638Y-91733633D01*
X150576567Y-91447073D01*
X150444252Y-91147534D01*
X150307965Y-90837897D01*
X150168978Y-90521042D01*
X150028564Y-90199850D01*
X149887993Y-89877201D01*
X149748540Y-89555975D01*
X149611476Y-89239053D01*
X149478072Y-88929316D01*
X149349602Y-88629643D01*
X149227337Y-88342916D01*
X149217496Y-88319762D01*
X149151801Y-88164849D01*
X149101283Y-88044110D01*
X149064515Y-87952779D01*
X149040068Y-87886091D01*
X149026514Y-87839278D01*
X149022425Y-87807576D01*
X149026373Y-87786218D01*
X149036930Y-87770437D01*
X149049319Y-87758495D01*
X149089025Y-87729232D01*
X149154946Y-87687630D01*
X149238907Y-87638155D01*
X149332732Y-87585273D01*
X149428244Y-87533451D01*
X149517269Y-87487154D01*
X149591630Y-87450849D01*
X149643153Y-87429000D01*
X149660442Y-87424667D01*
X149670022Y-87444649D01*
G36*
X145944167Y-85976861D02*
G01*
X145934317Y-85998430D01*
X145904589Y-86051718D01*
X145854716Y-86137166D01*
X145784431Y-86255215D01*
X145693468Y-86406306D01*
X145581558Y-86590880D01*
X145448436Y-86809378D01*
X145293835Y-87062240D01*
X145117487Y-87349908D01*
X144919126Y-87672823D01*
X144809790Y-87850586D01*
X144657043Y-88098848D01*
X144525034Y-88313517D01*
X144412332Y-88497061D01*
X144317503Y-88651949D01*
X144239114Y-88780651D01*
X144175731Y-88885635D01*
X144125923Y-88969371D01*
X144088255Y-89034327D01*
X144061296Y-89082972D01*
X144043610Y-89117775D01*
X144033767Y-89141205D01*
X144030332Y-89155732D01*
X144031873Y-89163823D01*
X144036956Y-89167949D01*
X144043718Y-89170429D01*
X144071309Y-89178075D01*
X144133808Y-89194410D01*
X144225052Y-89217858D01*
X144338882Y-89246839D01*
X144469135Y-89279774D01*
X144545814Y-89299070D01*
X144684123Y-89334083D01*
X144810890Y-89366678D01*
X144919582Y-89395133D01*
X145003666Y-89417729D01*
X145056607Y-89432745D01*
X145069689Y-89436998D01*
X145095684Y-89448693D01*
X145112016Y-89462034D01*
X145116346Y-89478671D01*
X145106331Y-89500257D01*
X145079631Y-89528443D01*
X145033906Y-89564880D01*
X144966814Y-89611220D01*
X144876014Y-89669114D01*
X144759166Y-89740214D01*
X144613928Y-89826172D01*
X144437959Y-89928638D01*
X144228919Y-90049264D01*
X144082657Y-90133336D01*
X143922271Y-90225636D01*
X143770951Y-90313088D01*
X143633226Y-90393046D01*
X143513626Y-90462865D01*
X143416679Y-90519901D01*
X143346916Y-90561509D01*
X143308864Y-90585043D01*
X143306773Y-90586439D01*
X143235250Y-90635040D01*
X143452000Y-90701304D01*
X143554675Y-90732078D01*
X143683255Y-90769700D01*
X143822812Y-90809850D01*
X143958418Y-90848205D01*
X143986250Y-90855976D01*
X144142953Y-90900861D01*
X144261425Y-90937805D01*
X144344776Y-90967977D01*
X144396119Y-90992546D01*
X144418562Y-91012680D01*
X144420167Y-91019033D01*
X144418609Y-91023590D01*
X144412244Y-91030365D01*
X144398534Y-91040834D01*
X144374943Y-91056473D01*
X144338933Y-91078758D01*
X144287968Y-91109164D01*
X144219510Y-91149168D01*
X144131022Y-91200245D01*
X144019967Y-91263871D01*
X143883807Y-91341523D01*
X143720007Y-91434675D01*
X143526029Y-91544803D01*
X143299335Y-91673385D01*
X143139584Y-91763959D01*
X142841962Y-91932412D01*
X142527582Y-92109801D01*
X142193199Y-92297945D01*
X141835570Y-92498666D01*
X141451448Y-92713784D01*
X141037589Y-92945120D01*
X140590748Y-93194495D01*
X140462000Y-93266284D01*
X140335953Y-93335945D01*
X140241812Y-93386297D01*
X140174969Y-93419455D01*
X140130819Y-93437531D01*
X140104754Y-93442640D01*
X140092167Y-93436896D01*
X140091706Y-93436198D01*
X140096585Y-93409951D01*
X140121148Y-93359425D01*
X140160360Y-93294709D01*
X140168205Y-93282897D01*
X140221109Y-93204932D01*
X140292145Y-93101211D01*
X140377573Y-92977113D01*
X140473655Y-92838015D01*
X140576654Y-92689294D01*
X140682831Y-92536330D01*
X140788448Y-92384499D01*
X140889767Y-92239180D01*
X140983051Y-92105751D01*
X141064560Y-91989589D01*
X141130557Y-91896073D01*
X141177304Y-91830580D01*
X141186218Y-91818293D01*
X141238579Y-91744136D01*
X141279764Y-91681223D01*
X141304266Y-91638225D01*
X141308667Y-91625585D01*
X141289436Y-91606991D01*
X141231301Y-91582051D01*
X141133597Y-91550557D01*
X140995662Y-91512298D01*
X140816832Y-91467066D01*
X140770069Y-91455709D01*
X140642161Y-91424114D01*
X140550526Y-91399488D01*
X140490007Y-91380101D01*
X140455447Y-91364227D01*
X140441689Y-91350138D01*
X140440834Y-91345391D01*
X140446664Y-91335214D01*
X140465427Y-91315522D01*
X140499032Y-91284763D01*
X140549387Y-91241382D01*
X140618401Y-91183824D01*
X140707981Y-91110537D01*
X140709929Y-91108962D01*
X141285373Y-91108962D01*
X141298764Y-91117493D01*
X141334370Y-91126818D01*
X141397123Y-91137960D01*
X141491956Y-91151941D01*
X141623801Y-91169784D01*
X141626976Y-91170204D01*
X141795682Y-91193016D01*
X141926802Y-91212153D01*
X142024819Y-91228652D01*
X142094218Y-91243548D01*
X142139484Y-91257875D01*
X142165100Y-91272671D01*
X142175550Y-91288969D01*
X142176500Y-91297091D01*
X142171330Y-91315797D01*
X142154161Y-91344687D01*
X142122507Y-91386622D01*
X142073881Y-91444463D01*
X142005795Y-91521073D01*
X141915762Y-91619311D01*
X141801296Y-91742041D01*
X141659909Y-91892124D01*
X141652874Y-91899566D01*
X141572997Y-91985067D01*
X141504502Y-92060306D01*
X141452256Y-92119783D01*
X141421125Y-92157994D01*
X141414500Y-92169058D01*
X141426574Y-92169297D01*
X141463810Y-92152654D01*
X141527729Y-92118236D01*
X141619855Y-92065152D01*
X141741707Y-91992510D01*
X141894809Y-91899419D01*
X142080682Y-91784986D01*
X142261167Y-91673017D01*
X142394827Y-91589474D01*
X142522099Y-91509177D01*
X142636847Y-91436056D01*
X142732931Y-91374042D01*
X142804214Y-91327065D01*
X142840121Y-91302327D01*
X142942824Y-91227887D01*
X142893037Y-91199810D01*
X142850352Y-91180787D01*
X142779881Y-91154498D01*
X142694449Y-91125634D01*
X142663334Y-91115776D01*
X142536835Y-91073978D01*
X142427634Y-91033134D01*
X142341482Y-90995759D01*
X142284129Y-90964368D01*
X142261328Y-90941475D01*
X142261167Y-90939935D01*
X142278262Y-90924106D01*
X142327218Y-90887408D01*
X142404541Y-90832259D01*
X142506736Y-90761076D01*
X142630311Y-90676273D01*
X142771771Y-90580268D01*
X142927622Y-90475477D01*
X143072241Y-90379014D01*
X143337438Y-90202427D01*
X143567585Y-90048441D01*
X143763201Y-89916702D01*
X143924805Y-89806856D01*
X144052917Y-89718548D01*
X144148054Y-89651424D01*
X144210736Y-89605130D01*
X144238701Y-89582066D01*
X144238643Y-89568759D01*
X144214329Y-89549486D01*
X144163316Y-89523241D01*
X144083156Y-89489018D01*
X143971404Y-89445807D01*
X143825615Y-89392604D01*
X143643343Y-89328400D01*
X143514274Y-89283774D01*
X143376029Y-89235875D01*
X143250955Y-89191859D01*
X143144670Y-89153757D01*
X143062792Y-89123602D01*
X143010938Y-89103426D01*
X142994895Y-89095877D01*
X142994019Y-89086611D01*
X143003175Y-89066771D01*
X143023982Y-89034341D01*
X143058057Y-88987308D01*
X143107019Y-88923653D01*
X143172484Y-88841363D01*
X143256071Y-88738420D01*
X143359398Y-88612810D01*
X143484081Y-88462517D01*
X143631741Y-88285525D01*
X143803993Y-88079818D01*
X143950738Y-87904953D01*
X144075543Y-87755979D01*
X144191246Y-87617179D01*
X144295137Y-87491852D01*
X144384508Y-87383300D01*
X144456650Y-87294822D01*
X144508854Y-87229718D01*
X144538410Y-87191290D01*
X144544148Y-87181992D01*
X144541039Y-87181194D01*
X144533893Y-87183762D01*
X144520163Y-87191503D01*
X144497300Y-87206221D01*
X144462756Y-87229721D01*
X144413984Y-87263811D01*
X144348436Y-87310295D01*
X144263564Y-87370979D01*
X144156820Y-87447669D01*
X144025657Y-87542170D01*
X143867527Y-87656287D01*
X143679882Y-87791827D01*
X143488834Y-87929883D01*
X143220881Y-88123986D01*
X142986502Y-88294759D01*
X142784532Y-88443068D01*
X142613808Y-88569780D01*
X142473169Y-88675763D01*
X142361451Y-88761885D01*
X142277491Y-88829013D01*
X142232227Y-88867250D01*
X142150371Y-88938967D01*
X142750810Y-89143129D01*
X142979846Y-89221183D01*
X143171655Y-89286988D01*
X143329190Y-89341627D01*
X143455405Y-89386185D01*
X143553251Y-89421746D01*
X143625681Y-89449394D01*
X143675648Y-89470214D01*
X143706105Y-89485288D01*
X143720003Y-89495701D01*
X143721667Y-89499594D01*
X143704071Y-89518220D01*
X143652779Y-89557719D01*
X143570037Y-89616594D01*
X143458091Y-89693350D01*
X143319186Y-89786490D01*
X143155568Y-89894518D01*
X142969482Y-90015939D01*
X142763174Y-90149257D01*
X142538890Y-90292975D01*
X142356417Y-90409109D01*
X142159153Y-90534549D01*
X141974110Y-90652696D01*
X141804463Y-90761494D01*
X141653384Y-90858888D01*
X141524050Y-90942822D01*
X141419635Y-91011240D01*
X141343313Y-91062086D01*
X141298259Y-91093304D01*
X141289264Y-91100203D01*
X141285373Y-91108962D01*
X140709929Y-91108962D01*
X140820036Y-91019966D01*
X140956475Y-90910557D01*
X141119206Y-90780757D01*
X141310138Y-90629011D01*
X141531179Y-90453765D01*
X141700250Y-90319914D01*
X141866986Y-90187927D01*
X142025319Y-90062504D01*
X142171817Y-89946372D01*
X142303047Y-89842253D01*
X142415579Y-89752873D01*
X142505981Y-89680955D01*
X142570820Y-89629226D01*
X142606665Y-89600408D01*
X142610417Y-89597332D01*
X142673917Y-89544736D01*
X142610417Y-89520219D01*
X142573500Y-89507946D01*
X142501944Y-89485900D01*
X142401829Y-89455889D01*
X142279235Y-89419719D01*
X142140243Y-89379197D01*
X141996584Y-89337754D01*
X141765493Y-89271021D01*
X141573244Y-89214576D01*
X141417784Y-89167764D01*
X141297059Y-89129933D01*
X141209016Y-89100427D01*
X141151602Y-89078593D01*
X141122764Y-89063777D01*
X141118322Y-89058054D01*
X141135859Y-89038888D01*
X141186619Y-88998663D01*
X141268093Y-88939022D01*
X141377773Y-88861606D01*
X141513150Y-88768059D01*
X141671714Y-88660022D01*
X141850958Y-88539138D01*
X142048371Y-88407049D01*
X142261446Y-88265397D01*
X142487673Y-88115824D01*
X142724544Y-87959973D01*
X142969550Y-87799486D01*
X143220182Y-87636005D01*
X143473931Y-87471173D01*
X143728288Y-87306631D01*
X143980745Y-87144022D01*
X144228793Y-86984989D01*
X144469922Y-86831173D01*
X144701624Y-86684217D01*
X144921391Y-86545764D01*
X145126712Y-86417454D01*
X145315080Y-86300931D01*
X145483986Y-86197837D01*
X145532524Y-86168548D01*
X145673252Y-86085310D01*
X145781583Y-86024624D01*
X145860146Y-85985266D01*
X145911570Y-85966011D01*
X145938484Y-85965636D01*
X145944167Y-85976861D01*
G37*
X145944167Y-85976861D02*
X145934317Y-85998430D01*
X145904589Y-86051718D01*
X145854716Y-86137166D01*
X145784431Y-86255215D01*
X145693468Y-86406306D01*
X145581558Y-86590880D01*
X145448436Y-86809378D01*
X145293835Y-87062240D01*
X145117487Y-87349908D01*
X144919126Y-87672823D01*
X144809790Y-87850586D01*
X144657043Y-88098848D01*
X144525034Y-88313517D01*
X144412332Y-88497061D01*
X144317503Y-88651949D01*
X144239114Y-88780651D01*
X144175731Y-88885635D01*
X144125923Y-88969371D01*
X144088255Y-89034327D01*
X144061296Y-89082972D01*
X144043610Y-89117775D01*
X144033767Y-89141205D01*
X144030332Y-89155732D01*
X144031873Y-89163823D01*
X144036956Y-89167949D01*
X144043718Y-89170429D01*
X144071309Y-89178075D01*
X144133808Y-89194410D01*
X144225052Y-89217858D01*
X144338882Y-89246839D01*
X144469135Y-89279774D01*
X144545814Y-89299070D01*
X144684123Y-89334083D01*
X144810890Y-89366678D01*
X144919582Y-89395133D01*
X145003666Y-89417729D01*
X145056607Y-89432745D01*
X145069689Y-89436998D01*
X145095684Y-89448693D01*
X145112016Y-89462034D01*
X145116346Y-89478671D01*
X145106331Y-89500257D01*
X145079631Y-89528443D01*
X145033906Y-89564880D01*
X144966814Y-89611220D01*
X144876014Y-89669114D01*
X144759166Y-89740214D01*
X144613928Y-89826172D01*
X144437959Y-89928638D01*
X144228919Y-90049264D01*
X144082657Y-90133336D01*
X143922271Y-90225636D01*
X143770951Y-90313088D01*
X143633226Y-90393046D01*
X143513626Y-90462865D01*
X143416679Y-90519901D01*
X143346916Y-90561509D01*
X143308864Y-90585043D01*
X143306773Y-90586439D01*
X143235250Y-90635040D01*
X143452000Y-90701304D01*
X143554675Y-90732078D01*
X143683255Y-90769700D01*
X143822812Y-90809850D01*
X143958418Y-90848205D01*
X143986250Y-90855976D01*
X144142953Y-90900861D01*
X144261425Y-90937805D01*
X144344776Y-90967977D01*
X144396119Y-90992546D01*
X144418562Y-91012680D01*
X144420167Y-91019033D01*
X144418609Y-91023590D01*
X144412244Y-91030365D01*
X144398534Y-91040834D01*
X144374943Y-91056473D01*
X144338933Y-91078758D01*
X144287968Y-91109164D01*
X144219510Y-91149168D01*
X144131022Y-91200245D01*
X144019967Y-91263871D01*
X143883807Y-91341523D01*
X143720007Y-91434675D01*
X143526029Y-91544803D01*
X143299335Y-91673385D01*
X143139584Y-91763959D01*
X142841962Y-91932412D01*
X142527582Y-92109801D01*
X142193199Y-92297945D01*
X141835570Y-92498666D01*
X141451448Y-92713784D01*
X141037589Y-92945120D01*
X140590748Y-93194495D01*
X140462000Y-93266284D01*
X140335953Y-93335945D01*
X140241812Y-93386297D01*
X140174969Y-93419455D01*
X140130819Y-93437531D01*
X140104754Y-93442640D01*
X140092167Y-93436896D01*
X140091706Y-93436198D01*
X140096585Y-93409951D01*
X140121148Y-93359425D01*
X140160360Y-93294709D01*
X140168205Y-93282897D01*
X140221109Y-93204932D01*
X140292145Y-93101211D01*
X140377573Y-92977113D01*
X140473655Y-92838015D01*
X140576654Y-92689294D01*
X140682831Y-92536330D01*
X140788448Y-92384499D01*
X140889767Y-92239180D01*
X140983051Y-92105751D01*
X141064560Y-91989589D01*
X141130557Y-91896073D01*
X141177304Y-91830580D01*
X141186218Y-91818293D01*
X141238579Y-91744136D01*
X141279764Y-91681223D01*
X141304266Y-91638225D01*
X141308667Y-91625585D01*
X141289436Y-91606991D01*
X141231301Y-91582051D01*
X141133597Y-91550557D01*
X140995662Y-91512298D01*
X140816832Y-91467066D01*
X140770069Y-91455709D01*
X140642161Y-91424114D01*
X140550526Y-91399488D01*
X140490007Y-91380101D01*
X140455447Y-91364227D01*
X140441689Y-91350138D01*
X140440834Y-91345391D01*
X140446664Y-91335214D01*
X140465427Y-91315522D01*
X140499032Y-91284763D01*
X140549387Y-91241382D01*
X140618401Y-91183824D01*
X140707981Y-91110537D01*
X140709929Y-91108962D01*
X141285373Y-91108962D01*
X141298764Y-91117493D01*
X141334370Y-91126818D01*
X141397123Y-91137960D01*
X141491956Y-91151941D01*
X141623801Y-91169784D01*
X141626976Y-91170204D01*
X141795682Y-91193016D01*
X141926802Y-91212153D01*
X142024819Y-91228652D01*
X142094218Y-91243548D01*
X142139484Y-91257875D01*
X142165100Y-91272671D01*
X142175550Y-91288969D01*
X142176500Y-91297091D01*
X142171330Y-91315797D01*
X142154161Y-91344687D01*
X142122507Y-91386622D01*
X142073881Y-91444463D01*
X142005795Y-91521073D01*
X141915762Y-91619311D01*
X141801296Y-91742041D01*
X141659909Y-91892124D01*
X141652874Y-91899566D01*
X141572997Y-91985067D01*
X141504502Y-92060306D01*
X141452256Y-92119783D01*
X141421125Y-92157994D01*
X141414500Y-92169058D01*
X141426574Y-92169297D01*
X141463810Y-92152654D01*
X141527729Y-92118236D01*
X141619855Y-92065152D01*
X141741707Y-91992510D01*
X141894809Y-91899419D01*
X142080682Y-91784986D01*
X142261167Y-91673017D01*
X142394827Y-91589474D01*
X142522099Y-91509177D01*
X142636847Y-91436056D01*
X142732931Y-91374042D01*
X142804214Y-91327065D01*
X142840121Y-91302327D01*
X142942824Y-91227887D01*
X142893037Y-91199810D01*
X142850352Y-91180787D01*
X142779881Y-91154498D01*
X142694449Y-91125634D01*
X142663334Y-91115776D01*
X142536835Y-91073978D01*
X142427634Y-91033134D01*
X142341482Y-90995759D01*
X142284129Y-90964368D01*
X142261328Y-90941475D01*
X142261167Y-90939935D01*
X142278262Y-90924106D01*
X142327218Y-90887408D01*
X142404541Y-90832259D01*
X142506736Y-90761076D01*
X142630311Y-90676273D01*
X142771771Y-90580268D01*
X142927622Y-90475477D01*
X143072241Y-90379014D01*
X143337438Y-90202427D01*
X143567585Y-90048441D01*
X143763201Y-89916702D01*
X143924805Y-89806856D01*
X144052917Y-89718548D01*
X144148054Y-89651424D01*
X144210736Y-89605130D01*
X144238701Y-89582066D01*
X144238643Y-89568759D01*
X144214329Y-89549486D01*
X144163316Y-89523241D01*
X144083156Y-89489018D01*
X143971404Y-89445807D01*
X143825615Y-89392604D01*
X143643343Y-89328400D01*
X143514274Y-89283774D01*
X143376029Y-89235875D01*
X143250955Y-89191859D01*
X143144670Y-89153757D01*
X143062792Y-89123602D01*
X143010938Y-89103426D01*
X142994895Y-89095877D01*
X142994019Y-89086611D01*
X143003175Y-89066771D01*
X143023982Y-89034341D01*
X143058057Y-88987308D01*
X143107019Y-88923653D01*
X143172484Y-88841363D01*
X143256071Y-88738420D01*
X143359398Y-88612810D01*
X143484081Y-88462517D01*
X143631741Y-88285525D01*
X143803993Y-88079818D01*
X143950738Y-87904953D01*
X144075543Y-87755979D01*
X144191246Y-87617179D01*
X144295137Y-87491852D01*
X144384508Y-87383300D01*
X144456650Y-87294822D01*
X144508854Y-87229718D01*
X144538410Y-87191290D01*
X144544148Y-87181992D01*
X144541039Y-87181194D01*
X144533893Y-87183762D01*
X144520163Y-87191503D01*
X144497300Y-87206221D01*
X144462756Y-87229721D01*
X144413984Y-87263811D01*
X144348436Y-87310295D01*
X144263564Y-87370979D01*
X144156820Y-87447669D01*
X144025657Y-87542170D01*
X143867527Y-87656287D01*
X143679882Y-87791827D01*
X143488834Y-87929883D01*
X143220881Y-88123986D01*
X142986502Y-88294759D01*
X142784532Y-88443068D01*
X142613808Y-88569780D01*
X142473169Y-88675763D01*
X142361451Y-88761885D01*
X142277491Y-88829013D01*
X142232227Y-88867250D01*
X142150371Y-88938967D01*
X142750810Y-89143129D01*
X142979846Y-89221183D01*
X143171655Y-89286988D01*
X143329190Y-89341627D01*
X143455405Y-89386185D01*
X143553251Y-89421746D01*
X143625681Y-89449394D01*
X143675648Y-89470214D01*
X143706105Y-89485288D01*
X143720003Y-89495701D01*
X143721667Y-89499594D01*
X143704071Y-89518220D01*
X143652779Y-89557719D01*
X143570037Y-89616594D01*
X143458091Y-89693350D01*
X143319186Y-89786490D01*
X143155568Y-89894518D01*
X142969482Y-90015939D01*
X142763174Y-90149257D01*
X142538890Y-90292975D01*
X142356417Y-90409109D01*
X142159153Y-90534549D01*
X141974110Y-90652696D01*
X141804463Y-90761494D01*
X141653384Y-90858888D01*
X141524050Y-90942822D01*
X141419635Y-91011240D01*
X141343313Y-91062086D01*
X141298259Y-91093304D01*
X141289264Y-91100203D01*
X141285373Y-91108962D01*
X140709929Y-91108962D01*
X140820036Y-91019966D01*
X140956475Y-90910557D01*
X141119206Y-90780757D01*
X141310138Y-90629011D01*
X141531179Y-90453765D01*
X141700250Y-90319914D01*
X141866986Y-90187927D01*
X142025319Y-90062504D01*
X142171817Y-89946372D01*
X142303047Y-89842253D01*
X142415579Y-89752873D01*
X142505981Y-89680955D01*
X142570820Y-89629226D01*
X142606665Y-89600408D01*
X142610417Y-89597332D01*
X142673917Y-89544736D01*
X142610417Y-89520219D01*
X142573500Y-89507946D01*
X142501944Y-89485900D01*
X142401829Y-89455889D01*
X142279235Y-89419719D01*
X142140243Y-89379197D01*
X141996584Y-89337754D01*
X141765493Y-89271021D01*
X141573244Y-89214576D01*
X141417784Y-89167764D01*
X141297059Y-89129933D01*
X141209016Y-89100427D01*
X141151602Y-89078593D01*
X141122764Y-89063777D01*
X141118322Y-89058054D01*
X141135859Y-89038888D01*
X141186619Y-88998663D01*
X141268093Y-88939022D01*
X141377773Y-88861606D01*
X141513150Y-88768059D01*
X141671714Y-88660022D01*
X141850958Y-88539138D01*
X142048371Y-88407049D01*
X142261446Y-88265397D01*
X142487673Y-88115824D01*
X142724544Y-87959973D01*
X142969550Y-87799486D01*
X143220182Y-87636005D01*
X143473931Y-87471173D01*
X143728288Y-87306631D01*
X143980745Y-87144022D01*
X144228793Y-86984989D01*
X144469922Y-86831173D01*
X144701624Y-86684217D01*
X144921391Y-86545764D01*
X145126712Y-86417454D01*
X145315080Y-86300931D01*
X145483986Y-86197837D01*
X145532524Y-86168548D01*
X145673252Y-86085310D01*
X145781583Y-86024624D01*
X145860146Y-85985266D01*
X145911570Y-85966011D01*
X145938484Y-85965636D01*
X145944167Y-85976861D01*
G36*
X152997959Y-120618370D02*
G01*
X153207728Y-120620014D01*
X153379479Y-120621665D01*
X153517525Y-120623566D01*
X153626180Y-120625962D01*
X153709758Y-120629096D01*
X153772574Y-120633214D01*
X153818940Y-120638558D01*
X153853171Y-120645373D01*
X153879581Y-120653903D01*
X153902484Y-120664391D01*
X153913417Y-120670149D01*
X154020511Y-120744862D01*
X154097035Y-120840169D01*
X154147608Y-120962893D01*
X154165693Y-121042625D01*
X154179918Y-121122000D01*
X153924959Y-121122000D01*
X153817503Y-121121588D01*
X153745375Y-121119575D01*
X153701573Y-121114800D01*
X153679095Y-121106099D01*
X153670939Y-121092310D01*
X153670000Y-121079667D01*
X153668524Y-121066265D01*
X153660740Y-121056037D01*
X153641613Y-121048555D01*
X153606107Y-121043391D01*
X153549188Y-121040115D01*
X153465820Y-121038300D01*
X153350968Y-121037516D01*
X153199597Y-121037335D01*
X153172584Y-121037334D01*
X152675167Y-121037334D01*
X152675167Y-121397167D01*
X153648834Y-121397167D01*
X153648834Y-121778167D01*
X152675167Y-121778167D01*
X152675167Y-122180334D01*
X153670000Y-122180334D01*
X153670000Y-122074500D01*
X153924000Y-122074500D01*
X154035376Y-122074535D01*
X154110341Y-122077522D01*
X154154798Y-122087783D01*
X154174647Y-122109637D01*
X154175790Y-122147409D01*
X154164128Y-122205418D01*
X154155231Y-122243834D01*
X154106890Y-122372601D01*
X154025824Y-122475073D01*
X153910338Y-122553366D01*
X153905402Y-122555817D01*
X153786417Y-122614250D01*
X152167167Y-122627144D01*
X152167167Y-120612157D01*
X152997959Y-120618370D01*
G37*
X152997959Y-120618370D02*
X153207728Y-120620014D01*
X153379479Y-120621665D01*
X153517525Y-120623566D01*
X153626180Y-120625962D01*
X153709758Y-120629096D01*
X153772574Y-120633214D01*
X153818940Y-120638558D01*
X153853171Y-120645373D01*
X153879581Y-120653903D01*
X153902484Y-120664391D01*
X153913417Y-120670149D01*
X154020511Y-120744862D01*
X154097035Y-120840169D01*
X154147608Y-120962893D01*
X154165693Y-121042625D01*
X154179918Y-121122000D01*
X153924959Y-121122000D01*
X153817503Y-121121588D01*
X153745375Y-121119575D01*
X153701573Y-121114800D01*
X153679095Y-121106099D01*
X153670939Y-121092310D01*
X153670000Y-121079667D01*
X153668524Y-121066265D01*
X153660740Y-121056037D01*
X153641613Y-121048555D01*
X153606107Y-121043391D01*
X153549188Y-121040115D01*
X153465820Y-121038300D01*
X153350968Y-121037516D01*
X153199597Y-121037335D01*
X153172584Y-121037334D01*
X152675167Y-121037334D01*
X152675167Y-121397167D01*
X153648834Y-121397167D01*
X153648834Y-121778167D01*
X152675167Y-121778167D01*
X152675167Y-122180334D01*
X153670000Y-122180334D01*
X153670000Y-122074500D01*
X153924000Y-122074500D01*
X154035376Y-122074535D01*
X154110341Y-122077522D01*
X154154798Y-122087783D01*
X154174647Y-122109637D01*
X154175790Y-122147409D01*
X154164128Y-122205418D01*
X154155231Y-122243834D01*
X154106890Y-122372601D01*
X154025824Y-122475073D01*
X153910338Y-122553366D01*
X153905402Y-122555817D01*
X153786417Y-122614250D01*
X152167167Y-122627144D01*
X152167167Y-120612157D01*
X152997959Y-120618370D01*
G36*
X150976701Y-120611928D02*
G01*
X151125455Y-120615031D01*
X151258882Y-120620204D01*
X151369813Y-120627457D01*
X151451076Y-120636802D01*
X151488571Y-120645305D01*
X151614021Y-120706018D01*
X151705888Y-120789481D01*
X151766682Y-120899122D01*
X151798917Y-121038371D01*
X151802460Y-121073753D01*
X151813129Y-121206667D01*
X151556231Y-121206667D01*
X151448299Y-121206260D01*
X151375721Y-121204273D01*
X151331521Y-121199556D01*
X151308722Y-121190960D01*
X151300348Y-121177335D01*
X151299334Y-121164334D01*
X151297809Y-121150674D01*
X151289807Y-121140319D01*
X151270181Y-121132813D01*
X151233786Y-121127698D01*
X151175477Y-121124517D01*
X151090110Y-121122811D01*
X150972538Y-121122125D01*
X150823084Y-121122000D01*
X150346834Y-121122000D01*
X150346834Y-122116935D01*
X150817792Y-122103361D01*
X150954428Y-122099147D01*
X151076193Y-122094864D01*
X151176948Y-122090771D01*
X151250554Y-122087128D01*
X151290874Y-122084194D01*
X151296583Y-122083131D01*
X151298226Y-122060148D01*
X151292229Y-122012034D01*
X151290247Y-122000951D01*
X151264596Y-121930527D01*
X151219709Y-121862724D01*
X151165433Y-121808840D01*
X151111615Y-121780171D01*
X151096057Y-121778167D01*
X151065918Y-121774410D01*
X151050880Y-121755951D01*
X151045778Y-121712010D01*
X151045334Y-121672334D01*
X151045334Y-121566500D01*
X151807334Y-121566500D01*
X151806404Y-121889292D01*
X151804448Y-122038099D01*
X151798473Y-122152969D01*
X151786866Y-122242232D01*
X151768013Y-122314215D01*
X151740300Y-122377247D01*
X151702113Y-122439657D01*
X151698831Y-122444475D01*
X151647519Y-122501902D01*
X151581580Y-122554757D01*
X151564280Y-122565497D01*
X151538566Y-122579490D01*
X151512348Y-122590565D01*
X151480493Y-122599113D01*
X151437864Y-122605525D01*
X151379325Y-122610191D01*
X151299742Y-122613502D01*
X151193979Y-122615848D01*
X151056901Y-122617619D01*
X150883371Y-122619208D01*
X150854834Y-122619446D01*
X150673044Y-122620755D01*
X150528173Y-122621145D01*
X150414808Y-122620358D01*
X150327538Y-122618135D01*
X150260954Y-122614215D01*
X150209643Y-122608341D01*
X150168196Y-122600252D01*
X150131201Y-122589689D01*
X150114292Y-122583965D01*
X150003340Y-122527770D01*
X149909290Y-122447013D01*
X149842039Y-122351428D01*
X149819520Y-122294138D01*
X149812568Y-122246858D01*
X149806873Y-122164302D01*
X149802435Y-122053502D01*
X149799254Y-121921494D01*
X149797332Y-121775311D01*
X149796668Y-121621988D01*
X149797264Y-121468558D01*
X149799120Y-121322057D01*
X149802237Y-121189518D01*
X149806616Y-121077975D01*
X149812257Y-120994463D01*
X149819160Y-120946015D01*
X149819392Y-120945159D01*
X149862257Y-120854220D01*
X149933894Y-120765515D01*
X150022038Y-120691680D01*
X150108444Y-120647312D01*
X150163758Y-120636212D01*
X150253928Y-120627110D01*
X150371785Y-120620016D01*
X150510160Y-120614941D01*
X150661884Y-120611894D01*
X150819787Y-120610886D01*
X150976701Y-120611928D01*
G37*
X150976701Y-120611928D02*
X151125455Y-120615031D01*
X151258882Y-120620204D01*
X151369813Y-120627457D01*
X151451076Y-120636802D01*
X151488571Y-120645305D01*
X151614021Y-120706018D01*
X151705888Y-120789481D01*
X151766682Y-120899122D01*
X151798917Y-121038371D01*
X151802460Y-121073753D01*
X151813129Y-121206667D01*
X151556231Y-121206667D01*
X151448299Y-121206260D01*
X151375721Y-121204273D01*
X151331521Y-121199556D01*
X151308722Y-121190960D01*
X151300348Y-121177335D01*
X151299334Y-121164334D01*
X151297809Y-121150674D01*
X151289807Y-121140319D01*
X151270181Y-121132813D01*
X151233786Y-121127698D01*
X151175477Y-121124517D01*
X151090110Y-121122811D01*
X150972538Y-121122125D01*
X150823084Y-121122000D01*
X150346834Y-121122000D01*
X150346834Y-122116935D01*
X150817792Y-122103361D01*
X150954428Y-122099147D01*
X151076193Y-122094864D01*
X151176948Y-122090771D01*
X151250554Y-122087128D01*
X151290874Y-122084194D01*
X151296583Y-122083131D01*
X151298226Y-122060148D01*
X151292229Y-122012034D01*
X151290247Y-122000951D01*
X151264596Y-121930527D01*
X151219709Y-121862724D01*
X151165433Y-121808840D01*
X151111615Y-121780171D01*
X151096057Y-121778167D01*
X151065918Y-121774410D01*
X151050880Y-121755951D01*
X151045778Y-121712010D01*
X151045334Y-121672334D01*
X151045334Y-121566500D01*
X151807334Y-121566500D01*
X151806404Y-121889292D01*
X151804448Y-122038099D01*
X151798473Y-122152969D01*
X151786866Y-122242232D01*
X151768013Y-122314215D01*
X151740300Y-122377247D01*
X151702113Y-122439657D01*
X151698831Y-122444475D01*
X151647519Y-122501902D01*
X151581580Y-122554757D01*
X151564280Y-122565497D01*
X151538566Y-122579490D01*
X151512348Y-122590565D01*
X151480493Y-122599113D01*
X151437864Y-122605525D01*
X151379325Y-122610191D01*
X151299742Y-122613502D01*
X151193979Y-122615848D01*
X151056901Y-122617619D01*
X150883371Y-122619208D01*
X150854834Y-122619446D01*
X150673044Y-122620755D01*
X150528173Y-122621145D01*
X150414808Y-122620358D01*
X150327538Y-122618135D01*
X150260954Y-122614215D01*
X150209643Y-122608341D01*
X150168196Y-122600252D01*
X150131201Y-122589689D01*
X150114292Y-122583965D01*
X150003340Y-122527770D01*
X149909290Y-122447013D01*
X149842039Y-122351428D01*
X149819520Y-122294138D01*
X149812568Y-122246858D01*
X149806873Y-122164302D01*
X149802435Y-122053502D01*
X149799254Y-121921494D01*
X149797332Y-121775311D01*
X149796668Y-121621988D01*
X149797264Y-121468558D01*
X149799120Y-121322057D01*
X149802237Y-121189518D01*
X149806616Y-121077975D01*
X149812257Y-120994463D01*
X149819160Y-120946015D01*
X149819392Y-120945159D01*
X149862257Y-120854220D01*
X149933894Y-120765515D01*
X150022038Y-120691680D01*
X150108444Y-120647312D01*
X150163758Y-120636212D01*
X150253928Y-120627110D01*
X150371785Y-120620016D01*
X150510160Y-120614941D01*
X150661884Y-120611894D01*
X150819787Y-120610886D01*
X150976701Y-120611928D01*
G36*
X148642601Y-120624708D02*
G01*
X148785012Y-120625301D01*
X148895372Y-120626694D01*
X148978825Y-120629217D01*
X149040513Y-120633200D01*
X149085577Y-120638973D01*
X149119158Y-120646868D01*
X149146400Y-120657214D01*
X149172084Y-120670149D01*
X149275843Y-120741752D01*
X149355352Y-120836037D01*
X149386566Y-120889167D01*
X149396617Y-120910687D01*
X149404883Y-120936779D01*
X149411578Y-120971689D01*
X149416916Y-121019666D01*
X149421113Y-121084957D01*
X149424383Y-121171810D01*
X149426941Y-121284473D01*
X149429001Y-121427193D01*
X149430779Y-121604219D01*
X149432297Y-121794042D01*
X149438510Y-122624834D01*
X148928667Y-122624834D01*
X148928667Y-121905167D01*
X147976167Y-121905167D01*
X147976167Y-122646000D01*
X147715111Y-122646000D01*
X147613959Y-122644916D01*
X147528671Y-122641960D01*
X147467909Y-122637577D01*
X147440332Y-122632210D01*
X147439945Y-122631889D01*
X147435311Y-122606572D01*
X147431587Y-122544595D01*
X147428742Y-122451620D01*
X147426743Y-122333310D01*
X147425559Y-122195327D01*
X147425157Y-122043335D01*
X147425507Y-121882994D01*
X147426575Y-121719969D01*
X147428331Y-121559921D01*
X147430742Y-121408514D01*
X147433777Y-121271409D01*
X147437404Y-121154269D01*
X147437911Y-121143167D01*
X147976167Y-121143167D01*
X147976167Y-121524167D01*
X148928667Y-121524167D01*
X148928667Y-121143167D01*
X147976167Y-121143167D01*
X147437911Y-121143167D01*
X147441590Y-121062758D01*
X147446305Y-121002536D01*
X147449201Y-120984445D01*
X147497281Y-120874139D01*
X147579151Y-120774686D01*
X147686288Y-120695590D01*
X147726538Y-120675211D01*
X147759809Y-120660697D01*
X147791583Y-120649261D01*
X147827192Y-120640535D01*
X147871966Y-120634154D01*
X147931238Y-120629751D01*
X148010339Y-120626959D01*
X148114600Y-120625411D01*
X148249352Y-120624743D01*
X148419928Y-120624586D01*
X148463000Y-120624584D01*
X148642601Y-120624708D01*
G37*
X148642601Y-120624708D02*
X148785012Y-120625301D01*
X148895372Y-120626694D01*
X148978825Y-120629217D01*
X149040513Y-120633200D01*
X149085577Y-120638973D01*
X149119158Y-120646868D01*
X149146400Y-120657214D01*
X149172084Y-120670149D01*
X149275843Y-120741752D01*
X149355352Y-120836037D01*
X149386566Y-120889167D01*
X149396617Y-120910687D01*
X149404883Y-120936779D01*
X149411578Y-120971689D01*
X149416916Y-121019666D01*
X149421113Y-121084957D01*
X149424383Y-121171810D01*
X149426941Y-121284473D01*
X149429001Y-121427193D01*
X149430779Y-121604219D01*
X149432297Y-121794042D01*
X149438510Y-122624834D01*
X148928667Y-122624834D01*
X148928667Y-121905167D01*
X147976167Y-121905167D01*
X147976167Y-122646000D01*
X147715111Y-122646000D01*
X147613959Y-122644916D01*
X147528671Y-122641960D01*
X147467909Y-122637577D01*
X147440332Y-122632210D01*
X147439945Y-122631889D01*
X147435311Y-122606572D01*
X147431587Y-122544595D01*
X147428742Y-122451620D01*
X147426743Y-122333310D01*
X147425559Y-122195327D01*
X147425157Y-122043335D01*
X147425507Y-121882994D01*
X147426575Y-121719969D01*
X147428331Y-121559921D01*
X147430742Y-121408514D01*
X147433777Y-121271409D01*
X147437404Y-121154269D01*
X147437911Y-121143167D01*
X147976167Y-121143167D01*
X147976167Y-121524167D01*
X148928667Y-121524167D01*
X148928667Y-121143167D01*
X147976167Y-121143167D01*
X147437911Y-121143167D01*
X147441590Y-121062758D01*
X147446305Y-121002536D01*
X147449201Y-120984445D01*
X147497281Y-120874139D01*
X147579151Y-120774686D01*
X147686288Y-120695590D01*
X147726538Y-120675211D01*
X147759809Y-120660697D01*
X147791583Y-120649261D01*
X147827192Y-120640535D01*
X147871966Y-120634154D01*
X147931238Y-120629751D01*
X148010339Y-120626959D01*
X148114600Y-120625411D01*
X148249352Y-120624743D01*
X148419928Y-120624586D01*
X148463000Y-120624584D01*
X148642601Y-120624708D01*
G36*
X146163023Y-121178350D02*
G01*
X146167023Y-121345638D01*
X146170576Y-121516947D01*
X146173510Y-121682062D01*
X146175651Y-121830771D01*
X146176827Y-121952860D01*
X146177000Y-122003850D01*
X146177000Y-122286167D01*
X147091878Y-122286167D01*
X147077399Y-122363345D01*
X147047914Y-122456875D01*
X146994563Y-122526232D01*
X146908460Y-122582621D01*
X146900205Y-122586752D01*
X146868999Y-122601267D01*
X146837577Y-122612655D01*
X146800406Y-122621370D01*
X146751955Y-122627863D01*
X146686689Y-122632586D01*
X146599077Y-122635992D01*
X146483586Y-122638533D01*
X146334684Y-122640660D01*
X146224625Y-122641953D01*
X145647834Y-122648488D01*
X145647834Y-120635167D01*
X146149046Y-120635167D01*
X146163023Y-121178350D01*
G37*
X146163023Y-121178350D02*
X146167023Y-121345638D01*
X146170576Y-121516947D01*
X146173510Y-121682062D01*
X146175651Y-121830771D01*
X146176827Y-121952860D01*
X146177000Y-122003850D01*
X146177000Y-122286167D01*
X147091878Y-122286167D01*
X147077399Y-122363345D01*
X147047914Y-122456875D01*
X146994563Y-122526232D01*
X146908460Y-122582621D01*
X146900205Y-122586752D01*
X146868999Y-122601267D01*
X146837577Y-122612655D01*
X146800406Y-122621370D01*
X146751955Y-122627863D01*
X146686689Y-122632586D01*
X146599077Y-122635992D01*
X146483586Y-122638533D01*
X146334684Y-122640660D01*
X146224625Y-122641953D01*
X145647834Y-122648488D01*
X145647834Y-120635167D01*
X146149046Y-120635167D01*
X146163023Y-121178350D01*
G36*
X144399000Y-122286167D02*
G01*
X145309167Y-122286167D01*
X145309167Y-122346537D01*
X145290508Y-122424672D01*
X145240612Y-122503100D01*
X145168604Y-122569338D01*
X145128971Y-122593084D01*
X145100645Y-122605813D01*
X145068741Y-122615834D01*
X145027851Y-122623543D01*
X144972566Y-122629337D01*
X144897478Y-122633615D01*
X144797179Y-122636773D01*
X144666259Y-122639209D01*
X144499311Y-122641320D01*
X144467792Y-122641666D01*
X143891000Y-122647915D01*
X143891000Y-121994171D01*
X143890510Y-121810066D01*
X143889129Y-121620212D01*
X143886987Y-121434115D01*
X143884216Y-121261281D01*
X143880947Y-121111217D01*
X143877312Y-120993428D01*
X143877093Y-120987797D01*
X143863185Y-120635167D01*
X144399000Y-120635167D01*
X144399000Y-122286167D01*
G37*
X144399000Y-122286167D02*
X145309167Y-122286167D01*
X145309167Y-122346537D01*
X145290508Y-122424672D01*
X145240612Y-122503100D01*
X145168604Y-122569338D01*
X145128971Y-122593084D01*
X145100645Y-122605813D01*
X145068741Y-122615834D01*
X145027851Y-122623543D01*
X144972566Y-122629337D01*
X144897478Y-122633615D01*
X144797179Y-122636773D01*
X144666259Y-122639209D01*
X144499311Y-122641320D01*
X144467792Y-122641666D01*
X143891000Y-122647915D01*
X143891000Y-121994171D01*
X143890510Y-121810066D01*
X143889129Y-121620212D01*
X143886987Y-121434115D01*
X143884216Y-121261281D01*
X143880947Y-121111217D01*
X143877312Y-120993428D01*
X143877093Y-120987797D01*
X143863185Y-120635167D01*
X144399000Y-120635167D01*
X144399000Y-122286167D01*
G36*
X143439557Y-120636695D02*
G01*
X143452847Y-120645584D01*
X143461108Y-120668769D01*
X143465534Y-120713065D01*
X143467322Y-120785290D01*
X143467666Y-120892259D01*
X143467667Y-120906875D01*
X143468090Y-120995192D01*
X143469289Y-121118333D01*
X143471160Y-121268798D01*
X143473598Y-121439087D01*
X143476498Y-121621700D01*
X143479757Y-121809138D01*
X143481678Y-121912292D01*
X143495689Y-122646000D01*
X142959667Y-122646000D01*
X142959667Y-121866675D01*
X142959920Y-121656492D01*
X142960796Y-121484120D01*
X142962467Y-121345040D01*
X142965104Y-121234733D01*
X142968880Y-121148679D01*
X142973968Y-121082359D01*
X142980540Y-121031253D01*
X142988767Y-120990842D01*
X142993760Y-120972547D01*
X143048842Y-120852797D01*
X143132888Y-120753459D01*
X143238024Y-120680762D01*
X143356376Y-120640936D01*
X143420042Y-120635285D01*
X143439557Y-120636695D01*
G37*
X143439557Y-120636695D02*
X143452847Y-120645584D01*
X143461108Y-120668769D01*
X143465534Y-120713065D01*
X143467322Y-120785290D01*
X143467666Y-120892259D01*
X143467667Y-120906875D01*
X143468090Y-120995192D01*
X143469289Y-121118333D01*
X143471160Y-121268798D01*
X143473598Y-121439087D01*
X143476498Y-121621700D01*
X143479757Y-121809138D01*
X143481678Y-121912292D01*
X143495689Y-122646000D01*
X142959667Y-122646000D01*
X142959667Y-121866675D01*
X142959920Y-121656492D01*
X142960796Y-121484120D01*
X142962467Y-121345040D01*
X142965104Y-121234733D01*
X142968880Y-121148679D01*
X142973968Y-121082359D01*
X142980540Y-121031253D01*
X142988767Y-120990842D01*
X142993760Y-120972547D01*
X143048842Y-120852797D01*
X143132888Y-120753459D01*
X143238024Y-120680762D01*
X143356376Y-120640936D01*
X143420042Y-120635285D01*
X143439557Y-120636695D01*
G36*
X142710951Y-120636584D02*
G01*
X142782458Y-120641206D01*
X142821399Y-120649587D01*
X142832640Y-120661625D01*
X142825260Y-120693609D01*
X142804513Y-120759519D01*
X142772451Y-120853853D01*
X142731124Y-120971109D01*
X142682581Y-121105788D01*
X142628874Y-121252388D01*
X142572052Y-121405407D01*
X142514166Y-121559345D01*
X142457267Y-121708701D01*
X142403405Y-121847973D01*
X142354630Y-121971660D01*
X142312992Y-122074262D01*
X142280543Y-122150277D01*
X142266584Y-122180334D01*
X142186858Y-122325440D01*
X142101382Y-122444307D01*
X142038868Y-122513709D01*
X141975101Y-122577752D01*
X141929614Y-122616906D01*
X141891841Y-122637265D01*
X141851213Y-122644924D01*
X141809457Y-122646000D01*
X141751821Y-122643153D01*
X141708309Y-122629858D01*
X141664693Y-122598986D01*
X141608782Y-122545459D01*
X141562609Y-122494740D01*
X141517948Y-122435550D01*
X141472976Y-122364001D01*
X141425869Y-122276208D01*
X141374806Y-122168285D01*
X141317962Y-122036346D01*
X141253515Y-121876506D01*
X141179642Y-121684878D01*
X141094519Y-121457577D01*
X141079991Y-121418334D01*
X141019839Y-121255722D01*
X140963982Y-121104870D01*
X140914209Y-120970595D01*
X140872308Y-120857714D01*
X140840066Y-120771047D01*
X140819273Y-120715411D01*
X140812077Y-120696470D01*
X140810959Y-120681147D01*
X140826381Y-120670244D01*
X140864931Y-120662354D01*
X140933195Y-120656070D01*
X141027131Y-120650537D01*
X141121745Y-120646993D01*
X141200415Y-120646703D01*
X141253729Y-120649536D01*
X141271751Y-120653918D01*
X141282308Y-120676761D01*
X141305255Y-120734942D01*
X141338895Y-120823879D01*
X141381529Y-120938992D01*
X141431460Y-121075697D01*
X141486990Y-121229412D01*
X141543649Y-121387768D01*
X141602539Y-121552873D01*
X141656933Y-121704905D01*
X141705209Y-121839370D01*
X141745747Y-121951774D01*
X141776926Y-122037622D01*
X141797126Y-122092421D01*
X141804693Y-122111656D01*
X141813182Y-122094166D01*
X141834486Y-122042109D01*
X141866616Y-121960578D01*
X141907586Y-121854668D01*
X141955408Y-121729473D01*
X142006973Y-121593073D01*
X142065235Y-121438426D01*
X142123619Y-121283838D01*
X142178932Y-121137743D01*
X142227976Y-121008571D01*
X142267558Y-120904757D01*
X142287755Y-120852125D01*
X142371403Y-120635167D01*
X142602035Y-120635167D01*
X142710951Y-120636584D01*
G37*
X142710951Y-120636584D02*
X142782458Y-120641206D01*
X142821399Y-120649587D01*
X142832640Y-120661625D01*
X142825260Y-120693609D01*
X142804513Y-120759519D01*
X142772451Y-120853853D01*
X142731124Y-120971109D01*
X142682581Y-121105788D01*
X142628874Y-121252388D01*
X142572052Y-121405407D01*
X142514166Y-121559345D01*
X142457267Y-121708701D01*
X142403405Y-121847973D01*
X142354630Y-121971660D01*
X142312992Y-122074262D01*
X142280543Y-122150277D01*
X142266584Y-122180334D01*
X142186858Y-122325440D01*
X142101382Y-122444307D01*
X142038868Y-122513709D01*
X141975101Y-122577752D01*
X141929614Y-122616906D01*
X141891841Y-122637265D01*
X141851213Y-122644924D01*
X141809457Y-122646000D01*
X141751821Y-122643153D01*
X141708309Y-122629858D01*
X141664693Y-122598986D01*
X141608782Y-122545459D01*
X141562609Y-122494740D01*
X141517948Y-122435550D01*
X141472976Y-122364001D01*
X141425869Y-122276208D01*
X141374806Y-122168285D01*
X141317962Y-122036346D01*
X141253515Y-121876506D01*
X141179642Y-121684878D01*
X141094519Y-121457577D01*
X141079991Y-121418334D01*
X141019839Y-121255722D01*
X140963982Y-121104870D01*
X140914209Y-120970595D01*
X140872308Y-120857714D01*
X140840066Y-120771047D01*
X140819273Y-120715411D01*
X140812077Y-120696470D01*
X140810959Y-120681147D01*
X140826381Y-120670244D01*
X140864931Y-120662354D01*
X140933195Y-120656070D01*
X141027131Y-120650537D01*
X141121745Y-120646993D01*
X141200415Y-120646703D01*
X141253729Y-120649536D01*
X141271751Y-120653918D01*
X141282308Y-120676761D01*
X141305255Y-120734942D01*
X141338895Y-120823879D01*
X141381529Y-120938992D01*
X141431460Y-121075697D01*
X141486990Y-121229412D01*
X141543649Y-121387768D01*
X141602539Y-121552873D01*
X141656933Y-121704905D01*
X141705209Y-121839370D01*
X141745747Y-121951774D01*
X141776926Y-122037622D01*
X141797126Y-122092421D01*
X141804693Y-122111656D01*
X141813182Y-122094166D01*
X141834486Y-122042109D01*
X141866616Y-121960578D01*
X141907586Y-121854668D01*
X141955408Y-121729473D01*
X142006973Y-121593073D01*
X142065235Y-121438426D01*
X142123619Y-121283838D01*
X142178932Y-121137743D01*
X142227976Y-121008571D01*
X142267558Y-120904757D01*
X142287755Y-120852125D01*
X142371403Y-120635167D01*
X142602035Y-120635167D01*
X142710951Y-120636584D01*
G36*
X138860683Y-120614257D02*
G01*
X139045107Y-120615319D01*
X139195951Y-120617625D01*
X139317590Y-120621614D01*
X139414402Y-120627724D01*
X139490760Y-120636394D01*
X139551042Y-120648062D01*
X139599623Y-120663166D01*
X139640879Y-120682146D01*
X139679186Y-120705439D01*
X139700917Y-120720486D01*
X139760190Y-120781465D01*
X139813252Y-120868530D01*
X139852159Y-120965468D01*
X139868968Y-121056067D01*
X139869127Y-121063792D01*
X139869334Y-121143167D01*
X139361334Y-121143167D01*
X139361334Y-121037334D01*
X138366500Y-121037334D01*
X138366500Y-121439500D01*
X139340167Y-121439500D01*
X139340167Y-121799334D01*
X138366500Y-121799334D01*
X138366500Y-122646000D01*
X137837334Y-122646000D01*
X137837334Y-120614000D01*
X138638303Y-120614000D01*
X138860683Y-120614257D01*
G37*
X138860683Y-120614257D02*
X139045107Y-120615319D01*
X139195951Y-120617625D01*
X139317590Y-120621614D01*
X139414402Y-120627724D01*
X139490760Y-120636394D01*
X139551042Y-120648062D01*
X139599623Y-120663166D01*
X139640879Y-120682146D01*
X139679186Y-120705439D01*
X139700917Y-120720486D01*
X139760190Y-120781465D01*
X139813252Y-120868530D01*
X139852159Y-120965468D01*
X139868968Y-121056067D01*
X139869127Y-121063792D01*
X139869334Y-121143167D01*
X139361334Y-121143167D01*
X139361334Y-121037334D01*
X138366500Y-121037334D01*
X138366500Y-121439500D01*
X139340167Y-121439500D01*
X139340167Y-121799334D01*
X138366500Y-121799334D01*
X138366500Y-122646000D01*
X137837334Y-122646000D01*
X137837334Y-120614000D01*
X138638303Y-120614000D01*
X138860683Y-120614257D01*
G36*
X136505643Y-120614599D02*
G01*
X136707199Y-120616423D01*
X136869401Y-120619514D01*
X136993730Y-120623914D01*
X137081669Y-120629666D01*
X137134698Y-120636810D01*
X137142922Y-120638893D01*
X137254997Y-120692929D01*
X137352112Y-120778390D01*
X137423705Y-120884595D01*
X137448273Y-120947631D01*
X137470564Y-121073226D01*
X137468838Y-121202322D01*
X137445415Y-121325307D01*
X137402612Y-121432564D01*
X137342747Y-121514481D01*
X137304315Y-121544690D01*
X137248993Y-121572844D01*
X137203014Y-121587143D01*
X137197042Y-121587588D01*
X137164131Y-121595704D01*
X137166878Y-121615726D01*
X137202651Y-121641500D01*
X137224350Y-121651519D01*
X137298037Y-121699464D01*
X137368959Y-121774894D01*
X137425856Y-121863822D01*
X137454133Y-121936945D01*
X137462649Y-121992077D01*
X137469777Y-122078815D01*
X137474891Y-122186440D01*
X137477365Y-122304232D01*
X137477500Y-122337873D01*
X137477500Y-122646000D01*
X136948334Y-122646000D01*
X136948334Y-121965410D01*
X136888457Y-121905534D01*
X136826267Y-121858614D01*
X136753684Y-121823344D01*
X136745582Y-121820724D01*
X136685849Y-121809008D01*
X136595105Y-121798533D01*
X136484664Y-121789848D01*
X136365843Y-121783503D01*
X136249958Y-121780048D01*
X136148325Y-121780032D01*
X136072260Y-121784005D01*
X136050778Y-121786973D01*
X135974667Y-121801252D01*
X135974667Y-122646000D01*
X135466667Y-122646000D01*
X135466667Y-121421195D01*
X135974667Y-121421195D01*
X136460005Y-121414473D01*
X136616553Y-121412087D01*
X136736534Y-121409466D01*
X136825714Y-121406067D01*
X136889859Y-121401348D01*
X136934734Y-121394769D01*
X136966104Y-121385786D01*
X136989736Y-121373859D01*
X137005047Y-121363255D01*
X137068034Y-121296368D01*
X137091990Y-121224068D01*
X137077676Y-121153867D01*
X137025852Y-121093279D01*
X136974744Y-121063628D01*
X136938917Y-121051303D01*
X136890211Y-121041660D01*
X136822836Y-121034233D01*
X136731005Y-121028559D01*
X136608927Y-121024173D01*
X136450813Y-121020610D01*
X136435042Y-121020321D01*
X135974667Y-121012021D01*
X135974667Y-121421195D01*
X135466667Y-121421195D01*
X135466667Y-120614000D01*
X136263253Y-120614000D01*
X136505643Y-120614599D01*
G37*
X136505643Y-120614599D02*
X136707199Y-120616423D01*
X136869401Y-120619514D01*
X136993730Y-120623914D01*
X137081669Y-120629666D01*
X137134698Y-120636810D01*
X137142922Y-120638893D01*
X137254997Y-120692929D01*
X137352112Y-120778390D01*
X137423705Y-120884595D01*
X137448273Y-120947631D01*
X137470564Y-121073226D01*
X137468838Y-121202322D01*
X137445415Y-121325307D01*
X137402612Y-121432564D01*
X137342747Y-121514481D01*
X137304315Y-121544690D01*
X137248993Y-121572844D01*
X137203014Y-121587143D01*
X137197042Y-121587588D01*
X137164131Y-121595704D01*
X137166878Y-121615726D01*
X137202651Y-121641500D01*
X137224350Y-121651519D01*
X137298037Y-121699464D01*
X137368959Y-121774894D01*
X137425856Y-121863822D01*
X137454133Y-121936945D01*
X137462649Y-121992077D01*
X137469777Y-122078815D01*
X137474891Y-122186440D01*
X137477365Y-122304232D01*
X137477500Y-122337873D01*
X137477500Y-122646000D01*
X136948334Y-122646000D01*
X136948334Y-121965410D01*
X136888457Y-121905534D01*
X136826267Y-121858614D01*
X136753684Y-121823344D01*
X136745582Y-121820724D01*
X136685849Y-121809008D01*
X136595105Y-121798533D01*
X136484664Y-121789848D01*
X136365843Y-121783503D01*
X136249958Y-121780048D01*
X136148325Y-121780032D01*
X136072260Y-121784005D01*
X136050778Y-121786973D01*
X135974667Y-121801252D01*
X135974667Y-122646000D01*
X135466667Y-122646000D01*
X135466667Y-121421195D01*
X135974667Y-121421195D01*
X136460005Y-121414473D01*
X136616553Y-121412087D01*
X136736534Y-121409466D01*
X136825714Y-121406067D01*
X136889859Y-121401348D01*
X136934734Y-121394769D01*
X136966104Y-121385786D01*
X136989736Y-121373859D01*
X137005047Y-121363255D01*
X137068034Y-121296368D01*
X137091990Y-121224068D01*
X137077676Y-121153867D01*
X137025852Y-121093279D01*
X136974744Y-121063628D01*
X136938917Y-121051303D01*
X136890211Y-121041660D01*
X136822836Y-121034233D01*
X136731005Y-121028559D01*
X136608927Y-121024173D01*
X136450813Y-121020610D01*
X136435042Y-121020321D01*
X135974667Y-121012021D01*
X135974667Y-121421195D01*
X135466667Y-121421195D01*
X135466667Y-120614000D01*
X136263253Y-120614000D01*
X136505643Y-120614599D01*
G04 #@! TO.C,D1*
D12*
X142922380Y-81938095D02*
X141922380Y-81938095D01*
X141922380Y-81700000D01*
X141970000Y-81557142D01*
X142065238Y-81461904D01*
X142160476Y-81414285D01*
X142350952Y-81366666D01*
X142493809Y-81366666D01*
X142684285Y-81414285D01*
X142779523Y-81461904D01*
X142874761Y-81557142D01*
X142922380Y-81700000D01*
X142922380Y-81938095D01*
X142922380Y-80414285D02*
X142922380Y-80985714D01*
X142922380Y-80700000D02*
X141922380Y-80700000D01*
X142065238Y-80795238D01*
X142160476Y-80890476D01*
X142208095Y-80985714D01*
G04 #@! TD*
M02*
