G04 #@! TF.GenerationSoftware,KiCad,Pcbnew,(5.1.10)-1*
G04 #@! TF.CreationDate,2021-08-30T20:12:07-05:00*
G04 #@! TF.ProjectId,Bsides-KC-2021-RF-Village-SAO-SVG2Shenzen v1_00 (Paths),42736964-6573-42d4-9b43-2d323032312d,rev?*
G04 #@! TF.SameCoordinates,Original*
G04 #@! TF.FileFunction,Copper,L1,Top*
G04 #@! TF.FilePolarity,Positive*
%FSLAX46Y46*%
G04 Gerber Fmt 4.6, Leading zero omitted, Abs format (unit mm)*
G04 Created by KiCad (PCBNEW (5.1.10)-1) date 2021-08-30 20:12:07*
%MOMM*%
%LPD*%
G01*
G04 APERTURE LIST*
G04 #@! TA.AperFunction,EtchedComponent*
%ADD10C,0.010000*%
G04 #@! TD*
G04 #@! TA.AperFunction,ComponentPad*
%ADD11C,1.727200*%
G04 #@! TD*
G04 #@! TA.AperFunction,ComponentPad*
%ADD12O,1.727200X1.727200*%
G04 #@! TD*
G04 #@! TA.AperFunction,ComponentPad*
%ADD13R,1.727200X1.727200*%
G04 #@! TD*
G04 #@! TA.AperFunction,ComponentPad*
%ADD14R,2.000000X2.000000*%
G04 #@! TD*
G04 #@! TA.AperFunction,ComponentPad*
%ADD15C,2.000000*%
G04 #@! TD*
G04 #@! TA.AperFunction,Conductor*
%ADD16C,0.250000*%
G04 #@! TD*
G04 APERTURE END LIST*
D10*
G04 #@! TO.C,G\u002A\u002A\u002A*
G36*
X147702539Y-82550145D02*
G01*
X147709184Y-82573961D01*
X147721666Y-82635198D01*
X147739246Y-82729460D01*
X147761185Y-82852348D01*
X147786742Y-82999465D01*
X147815178Y-83166414D01*
X147845753Y-83348796D01*
X147877728Y-83542215D01*
X147910363Y-83742272D01*
X147942918Y-83944570D01*
X147974653Y-84144712D01*
X148004829Y-84338300D01*
X148020459Y-84440167D01*
X148067256Y-84747084D01*
X148154426Y-84831750D01*
X148224455Y-84896594D01*
X148303605Y-84965408D01*
X148339633Y-84995105D01*
X148417012Y-85070744D01*
X148499515Y-85173909D01*
X148578415Y-85292120D01*
X148644986Y-85412898D01*
X148669430Y-85466750D01*
X148729616Y-85653072D01*
X148766032Y-85859910D01*
X148776158Y-86071170D01*
X148773710Y-86132713D01*
X148760999Y-86267957D01*
X148738479Y-86388497D01*
X148702584Y-86504029D01*
X148649749Y-86624247D01*
X148576408Y-86758845D01*
X148493541Y-86894564D01*
X148451067Y-86968435D01*
X148429041Y-87030415D01*
X148421219Y-87101470D01*
X148420667Y-87139248D01*
X148423312Y-87212054D01*
X148431116Y-87325065D01*
X148443879Y-87476493D01*
X148461402Y-87664551D01*
X148483484Y-87887451D01*
X148509927Y-88143404D01*
X148540532Y-88430624D01*
X148575099Y-88747322D01*
X148613428Y-89091710D01*
X148655321Y-89462001D01*
X148700577Y-89856407D01*
X148748998Y-90273140D01*
X148800383Y-90710412D01*
X148854535Y-91166436D01*
X148911253Y-91639423D01*
X148970337Y-92127586D01*
X149031590Y-92629136D01*
X149046195Y-92748084D01*
X149095974Y-93152359D01*
X149141385Y-93519264D01*
X149183079Y-93853466D01*
X149221704Y-94159628D01*
X149257910Y-94442416D01*
X149292345Y-94706496D01*
X149325660Y-94956533D01*
X149358503Y-95197192D01*
X149391523Y-95433138D01*
X149425370Y-95669038D01*
X149460693Y-95909556D01*
X149498140Y-96159357D01*
X149538363Y-96423107D01*
X149582008Y-96705471D01*
X149629726Y-97011115D01*
X149682166Y-97344704D01*
X149713344Y-97542334D01*
X149783106Y-97983844D01*
X149847065Y-98387833D01*
X149905941Y-98758607D01*
X149960454Y-99100472D01*
X150011326Y-99417735D01*
X150059277Y-99714701D01*
X150105028Y-99995677D01*
X150149299Y-100264969D01*
X150192813Y-100526884D01*
X150236289Y-100785726D01*
X150280448Y-101045804D01*
X150326011Y-101311422D01*
X150373699Y-101586887D01*
X150424232Y-101876506D01*
X150478332Y-102184584D01*
X150536719Y-102515428D01*
X150600114Y-102873344D01*
X150669238Y-103262639D01*
X150696515Y-103416084D01*
X150775400Y-103860187D01*
X150847338Y-104266217D01*
X150912945Y-104637753D01*
X150972834Y-104978373D01*
X151027619Y-105291658D01*
X151077913Y-105581186D01*
X151124331Y-105850536D01*
X151167486Y-106103288D01*
X151207992Y-106343021D01*
X151246463Y-106573314D01*
X151283513Y-106797746D01*
X151319756Y-107019897D01*
X151355804Y-107243346D01*
X151392274Y-107471672D01*
X151395293Y-107490667D01*
X151414156Y-107608960D01*
X151438483Y-107760833D01*
X151467883Y-107943875D01*
X151501965Y-108155677D01*
X151540338Y-108393829D01*
X151582611Y-108655920D01*
X151628395Y-108939539D01*
X151677298Y-109242278D01*
X151728930Y-109561726D01*
X151782899Y-109895472D01*
X151838816Y-110241108D01*
X151896289Y-110596221D01*
X151954928Y-110958403D01*
X152014343Y-111325243D01*
X152074141Y-111694331D01*
X152133933Y-112063258D01*
X152193329Y-112429612D01*
X152251936Y-112790984D01*
X152309366Y-113144963D01*
X152365226Y-113489140D01*
X152419127Y-113821104D01*
X152470677Y-114138446D01*
X152519486Y-114438754D01*
X152565163Y-114719620D01*
X152607317Y-114978632D01*
X152645558Y-115213381D01*
X152679496Y-115421457D01*
X152708739Y-115600449D01*
X152732896Y-115747948D01*
X152751578Y-115861542D01*
X152764392Y-115938823D01*
X152770950Y-115977380D01*
X152771600Y-115980856D01*
X152776460Y-115995495D01*
X152787162Y-116009754D01*
X152807440Y-116025154D01*
X152841029Y-116043217D01*
X152891664Y-116065465D01*
X152963079Y-116093419D01*
X153059008Y-116128600D01*
X153183187Y-116172531D01*
X153339349Y-116226732D01*
X153531229Y-116292726D01*
X153568241Y-116305422D01*
X154420355Y-116607234D01*
X155231087Y-116914041D01*
X156001132Y-117226191D01*
X156731187Y-117544035D01*
X157421947Y-117867920D01*
X158074108Y-118198195D01*
X158688365Y-118535211D01*
X159265413Y-118879315D01*
X159805950Y-119230857D01*
X160310669Y-119590186D01*
X160670875Y-119868814D01*
X160747215Y-119931494D01*
X160809634Y-119985429D01*
X160851620Y-120024802D01*
X160866667Y-120043671D01*
X160848759Y-120047066D01*
X160802476Y-120037429D01*
X160755542Y-120022799D01*
X160696432Y-120001162D01*
X160601635Y-119965038D01*
X160474694Y-119915843D01*
X160319153Y-119854998D01*
X160138555Y-119783921D01*
X159936444Y-119704030D01*
X159716365Y-119616745D01*
X159481859Y-119523483D01*
X159236472Y-119425664D01*
X158983746Y-119324706D01*
X158727226Y-119222027D01*
X158470454Y-119119048D01*
X158216976Y-119017186D01*
X157970333Y-118917860D01*
X157734071Y-118822488D01*
X157511732Y-118732490D01*
X157306860Y-118649284D01*
X157122999Y-118574288D01*
X156963693Y-118508922D01*
X156832484Y-118454604D01*
X156732918Y-118412753D01*
X156718000Y-118406383D01*
X156622556Y-118364641D01*
X156500789Y-118310113D01*
X156364606Y-118248201D01*
X156225912Y-118184306D01*
X156135917Y-118142329D01*
X155969445Y-118066827D01*
X155784293Y-117987364D01*
X155587121Y-117906438D01*
X155384588Y-117826544D01*
X155183354Y-117750181D01*
X154990078Y-117679846D01*
X154811421Y-117618036D01*
X154654042Y-117567249D01*
X154524602Y-117529982D01*
X154463750Y-117515287D01*
X154445840Y-117512926D01*
X154443282Y-117517333D01*
X154458258Y-117529665D01*
X154492949Y-117551078D01*
X154549537Y-117582731D01*
X154630201Y-117625780D01*
X154737123Y-117681383D01*
X154872484Y-117750697D01*
X155038465Y-117834879D01*
X155237248Y-117935087D01*
X155471013Y-118052477D01*
X155564417Y-118099300D01*
X156075691Y-118357329D01*
X156551858Y-118601526D01*
X156996991Y-118834090D01*
X157415164Y-119057222D01*
X157810449Y-119273122D01*
X158186921Y-119483989D01*
X158548653Y-119692023D01*
X158899717Y-119899424D01*
X158919334Y-119911179D01*
X159138069Y-120043783D01*
X159351924Y-120176176D01*
X159558284Y-120306549D01*
X159754540Y-120433091D01*
X159938080Y-120553991D01*
X160106292Y-120667439D01*
X160256564Y-120771624D01*
X160386286Y-120864736D01*
X160492846Y-120944965D01*
X160573632Y-121010499D01*
X160626032Y-121059529D01*
X160647436Y-121090244D01*
X160635336Y-121100834D01*
X160601689Y-121093270D01*
X160534611Y-121070453D01*
X160433652Y-121032193D01*
X160298362Y-120978300D01*
X160128290Y-120908584D01*
X159922987Y-120822856D01*
X159682004Y-120720926D01*
X159404890Y-120602604D01*
X159091195Y-120467702D01*
X158740470Y-120316028D01*
X158352264Y-120147393D01*
X157926129Y-119961609D01*
X157723417Y-119873034D01*
X157269449Y-119675473D01*
X156850209Y-119495065D01*
X156462320Y-119330518D01*
X156102406Y-119180540D01*
X155767091Y-119043841D01*
X155452999Y-118919129D01*
X155156752Y-118805112D01*
X154874975Y-118700500D01*
X154604292Y-118603999D01*
X154341325Y-118514320D01*
X154082699Y-118430171D01*
X153825036Y-118350260D01*
X153564962Y-118273296D01*
X153468917Y-118245726D01*
X153054999Y-118133267D01*
X152604792Y-118020975D01*
X152124331Y-117910025D01*
X151619650Y-117801592D01*
X151096780Y-117696851D01*
X150561756Y-117596976D01*
X150020611Y-117503141D01*
X149479379Y-117416522D01*
X148944093Y-117338292D01*
X148515917Y-117281492D01*
X148312977Y-117256746D01*
X148093630Y-117231568D01*
X147861293Y-117206243D01*
X147619382Y-117181051D01*
X147371314Y-117156277D01*
X147120506Y-117132204D01*
X146870375Y-117109114D01*
X146624337Y-117087290D01*
X146385810Y-117067016D01*
X146158210Y-117048573D01*
X145944953Y-117032246D01*
X145749457Y-117018318D01*
X145575139Y-117007070D01*
X145425414Y-116998786D01*
X145303701Y-116993750D01*
X145213415Y-116992243D01*
X145157973Y-116994549D01*
X145140793Y-117000951D01*
X145141500Y-117002047D01*
X145165474Y-117008494D01*
X145224734Y-117018307D01*
X145312449Y-117030534D01*
X145421792Y-117044223D01*
X145543666Y-117058171D01*
X146114458Y-117125222D01*
X146701618Y-117202851D01*
X147298048Y-117289828D01*
X147896647Y-117384919D01*
X148490317Y-117486894D01*
X149071956Y-117594519D01*
X149634466Y-117706564D01*
X150170746Y-117821796D01*
X150673698Y-117938983D01*
X150801917Y-117970563D01*
X151232755Y-118081100D01*
X151631835Y-118190366D01*
X152009493Y-118301604D01*
X152376064Y-118418055D01*
X152741881Y-118542960D01*
X153117280Y-118679559D01*
X153373667Y-118777059D01*
X154140980Y-119080769D01*
X154893349Y-119393416D01*
X155628114Y-119713654D01*
X156342613Y-120040140D01*
X157034186Y-120371527D01*
X157700171Y-120706472D01*
X158337907Y-121043630D01*
X158944732Y-121381657D01*
X159517986Y-121719206D01*
X160055008Y-122054935D01*
X160553136Y-122387498D01*
X160643796Y-122450659D01*
X160811092Y-122569134D01*
X160957521Y-122675031D01*
X161080529Y-122766399D01*
X161177566Y-122841286D01*
X161246078Y-122897738D01*
X161283515Y-122933804D01*
X161290000Y-122944978D01*
X161290108Y-122955769D01*
X161285150Y-122960202D01*
X161267203Y-122956122D01*
X161228345Y-122941372D01*
X161160652Y-122913795D01*
X161131250Y-122901763D01*
X161083132Y-122881164D01*
X161000834Y-122844853D01*
X160888652Y-122794766D01*
X160750885Y-122732842D01*
X160591829Y-122661017D01*
X160415783Y-122581230D01*
X160227043Y-122495419D01*
X160029908Y-122405520D01*
X159977667Y-122381651D01*
X159326229Y-122085505D01*
X158709188Y-121808427D01*
X158123721Y-121549314D01*
X157567006Y-121307065D01*
X157036218Y-121080578D01*
X156528536Y-120868751D01*
X156041136Y-120670483D01*
X155571195Y-120484672D01*
X155115891Y-120310215D01*
X154672401Y-120146012D01*
X154237902Y-119990961D01*
X153809570Y-119843959D01*
X153384583Y-119703905D01*
X152960118Y-119569697D01*
X152533353Y-119440234D01*
X152167167Y-119333236D01*
X151067696Y-119031874D01*
X149986412Y-118765154D01*
X148918493Y-118532187D01*
X147859114Y-118332081D01*
X146803453Y-118163946D01*
X145746686Y-118026891D01*
X144683991Y-117920025D01*
X144377834Y-117894852D01*
X143810568Y-117856015D01*
X143209874Y-117825201D01*
X142583490Y-117802411D01*
X141939155Y-117787643D01*
X141284608Y-117780898D01*
X140627588Y-117782174D01*
X139975836Y-117791472D01*
X139337089Y-117808792D01*
X138719088Y-117834132D01*
X138129571Y-117867492D01*
X137743240Y-117895204D01*
X137611050Y-117906825D01*
X137443098Y-117923547D01*
X137245550Y-117944629D01*
X137024570Y-117969328D01*
X136786325Y-117996902D01*
X136536981Y-118026610D01*
X136282704Y-118057711D01*
X136029658Y-118089461D01*
X135784011Y-118121121D01*
X135551927Y-118151947D01*
X135339573Y-118181198D01*
X135202084Y-118200907D01*
X134443502Y-118318730D01*
X133685280Y-118450479D01*
X132920813Y-118597519D01*
X132143498Y-118761217D01*
X131346732Y-118942936D01*
X130523913Y-119144043D01*
X130037417Y-119268731D01*
X129838981Y-119320417D01*
X129677691Y-119362385D01*
X129549712Y-119395526D01*
X129451208Y-119420734D01*
X129378343Y-119438899D01*
X129327281Y-119450914D01*
X129294186Y-119457670D01*
X129275224Y-119460060D01*
X129266557Y-119458975D01*
X129264351Y-119455307D01*
X129264768Y-119449948D01*
X129264834Y-119448369D01*
X129283334Y-119427884D01*
X129335985Y-119391825D01*
X129418515Y-119342383D01*
X129526648Y-119281750D01*
X129656112Y-119212118D01*
X129802633Y-119135678D01*
X129961936Y-119054622D01*
X130129749Y-118971142D01*
X130301797Y-118887428D01*
X130473808Y-118805674D01*
X130641507Y-118728070D01*
X130800620Y-118656808D01*
X130852334Y-118634270D01*
X131512981Y-118363085D01*
X132211872Y-118104013D01*
X132946482Y-117857758D01*
X133714289Y-117625022D01*
X134512769Y-117406507D01*
X135339398Y-117202917D01*
X136191654Y-117014954D01*
X137067013Y-116843320D01*
X137659432Y-116738780D01*
X138190614Y-116649118D01*
X138274292Y-116362263D01*
X140367809Y-116362263D01*
X140370694Y-116374779D01*
X140415101Y-116379549D01*
X140500933Y-116376578D01*
X140628092Y-116365867D01*
X140779500Y-116349414D01*
X140923064Y-116334245D01*
X141104823Y-116317644D01*
X141320672Y-116299883D01*
X141566506Y-116281236D01*
X141838221Y-116261974D01*
X142131713Y-116242372D01*
X142442877Y-116222702D01*
X142767609Y-116203237D01*
X143101804Y-116184249D01*
X143441358Y-116166012D01*
X143782166Y-116148798D01*
X143838084Y-116146083D01*
X143986199Y-116140336D01*
X144171124Y-116135444D01*
X144387345Y-116131405D01*
X144629348Y-116128219D01*
X144891617Y-116125885D01*
X145168639Y-116124403D01*
X145454899Y-116123771D01*
X145744882Y-116123990D01*
X146033074Y-116125057D01*
X146313961Y-116126973D01*
X146582027Y-116129737D01*
X146831760Y-116133348D01*
X147057643Y-116137806D01*
X147254164Y-116143109D01*
X147351750Y-116146542D01*
X147547968Y-116155129D01*
X147768460Y-116166327D01*
X147998294Y-116179275D01*
X148222540Y-116193116D01*
X148426268Y-116206989D01*
X148508970Y-116213143D01*
X148662937Y-116224547D01*
X148806249Y-116234320D01*
X148932503Y-116242091D01*
X149035302Y-116247490D01*
X149108242Y-116250148D01*
X149143615Y-116249840D01*
X149213706Y-116243084D01*
X149097645Y-116130362D01*
X149065043Y-116100821D01*
X149002623Y-116046339D01*
X148913028Y-115969142D01*
X148798904Y-115871461D01*
X148662897Y-115755522D01*
X148507650Y-115623554D01*
X148335810Y-115477785D01*
X148150020Y-115320443D01*
X147952925Y-115153757D01*
X147747172Y-114979955D01*
X147535404Y-114801264D01*
X147320267Y-114619914D01*
X147104405Y-114438132D01*
X146890464Y-114258147D01*
X146681088Y-114082186D01*
X146478923Y-113912478D01*
X146286612Y-113751251D01*
X146106803Y-113600733D01*
X145942138Y-113463153D01*
X145795263Y-113340739D01*
X145668824Y-113235719D01*
X145565465Y-113150320D01*
X145487830Y-113086772D01*
X145438566Y-113047303D01*
X145431212Y-113041625D01*
X145360399Y-112990993D01*
X145298322Y-112952445D01*
X145255238Y-112932150D01*
X145246409Y-112930500D01*
X145233232Y-112935413D01*
X145205884Y-112950720D01*
X145163138Y-112977278D01*
X145103767Y-113015940D01*
X145026546Y-113067563D01*
X144930247Y-113133000D01*
X144813645Y-113213106D01*
X144675513Y-113308737D01*
X144514625Y-113420748D01*
X144329754Y-113549993D01*
X144119675Y-113697327D01*
X143883160Y-113863605D01*
X143618983Y-114049682D01*
X143325919Y-114256413D01*
X143002739Y-114484653D01*
X142648220Y-114735257D01*
X142261133Y-115009080D01*
X142028334Y-115173835D01*
X141732263Y-115383484D01*
X141469436Y-115569781D01*
X141238462Y-115733722D01*
X141037954Y-115876299D01*
X140866520Y-115998508D01*
X140722772Y-116101343D01*
X140605321Y-116185798D01*
X140512778Y-116252867D01*
X140443753Y-116303545D01*
X140396857Y-116338826D01*
X140370700Y-116359704D01*
X140367809Y-116362263D01*
X138274292Y-116362263D01*
X138515225Y-115536338D01*
X140335000Y-115536338D01*
X140338384Y-115542292D01*
X140350187Y-115539866D01*
X140372888Y-115527119D01*
X140408965Y-115502106D01*
X140460896Y-115462883D01*
X140531159Y-115407509D01*
X140622233Y-115334039D01*
X140736595Y-115240531D01*
X140876724Y-115125040D01*
X141045098Y-114985624D01*
X141178918Y-114874562D01*
X141311416Y-114764613D01*
X141471840Y-114631635D01*
X141655460Y-114479541D01*
X141857550Y-114312242D01*
X142073380Y-114133652D01*
X142298221Y-113947682D01*
X142527346Y-113758245D01*
X142756026Y-113569253D01*
X142979532Y-113384617D01*
X143076084Y-113304885D01*
X143275438Y-113140125D01*
X143466699Y-112981753D01*
X143647138Y-112832049D01*
X143814023Y-112693293D01*
X143964623Y-112567764D01*
X144096209Y-112457741D01*
X144206049Y-112365503D01*
X144291412Y-112293331D01*
X144349569Y-112243503D01*
X144377788Y-112218299D01*
X144377834Y-112218254D01*
X144451917Y-112145301D01*
X144443531Y-112137619D01*
X146489996Y-112137619D01*
X146719790Y-112339899D01*
X146812484Y-112420575D01*
X146927040Y-112518769D01*
X147060532Y-112632073D01*
X147210034Y-112758079D01*
X147372619Y-112894377D01*
X147545360Y-113038560D01*
X147725331Y-113188219D01*
X147909606Y-113340947D01*
X148095258Y-113494334D01*
X148279361Y-113645973D01*
X148458988Y-113793454D01*
X148631212Y-113934371D01*
X148793107Y-114066314D01*
X148941747Y-114186875D01*
X149074205Y-114293645D01*
X149187555Y-114384217D01*
X149278870Y-114456182D01*
X149345224Y-114507132D01*
X149383690Y-114534659D01*
X149391961Y-114538944D01*
X149394125Y-114519674D01*
X149392511Y-114468363D01*
X149387499Y-114395097D01*
X149385812Y-114375125D01*
X149380060Y-114316118D01*
X149370075Y-114221400D01*
X149356270Y-114094524D01*
X149339055Y-113939046D01*
X149324288Y-113807153D01*
X151301005Y-113807153D01*
X151304896Y-113834606D01*
X151312122Y-113834934D01*
X151317175Y-113806605D01*
X151313793Y-113794365D01*
X151304394Y-113786347D01*
X151301005Y-113807153D01*
X149324288Y-113807153D01*
X149318842Y-113758518D01*
X149296042Y-113556494D01*
X149271067Y-113336529D01*
X149244327Y-113102175D01*
X149216235Y-112856987D01*
X149187202Y-112604519D01*
X149157639Y-112348323D01*
X149127957Y-112091955D01*
X149098568Y-111838968D01*
X149069883Y-111592916D01*
X149042314Y-111357352D01*
X149016271Y-111135830D01*
X148992167Y-110931904D01*
X148970413Y-110749128D01*
X148951420Y-110591056D01*
X148935599Y-110461242D01*
X148923362Y-110363238D01*
X148915120Y-110300600D01*
X148911488Y-110277515D01*
X148896004Y-110217446D01*
X148703868Y-110364323D01*
X148605929Y-110439892D01*
X148482406Y-110536319D01*
X148337663Y-110650113D01*
X148176066Y-110777784D01*
X148001981Y-110915843D01*
X147819773Y-111060801D01*
X147633806Y-111209167D01*
X147448447Y-111357452D01*
X147268060Y-111502166D01*
X147097011Y-111639819D01*
X146939665Y-111766922D01*
X146800387Y-111879986D01*
X146683544Y-111975519D01*
X146593499Y-112050033D01*
X146561040Y-112077342D01*
X146489996Y-112137619D01*
X144443531Y-112137619D01*
X144367250Y-112067745D01*
X144334756Y-112037716D01*
X144274785Y-111982026D01*
X144190804Y-111903905D01*
X144086280Y-111806581D01*
X143964679Y-111693283D01*
X143829469Y-111567240D01*
X143684115Y-111431681D01*
X143541750Y-111298854D01*
X143329715Y-111101506D01*
X143125411Y-110912362D01*
X142931364Y-110733708D01*
X142750097Y-110567829D01*
X142584138Y-110417007D01*
X142436010Y-110283529D01*
X142308238Y-110169677D01*
X142203349Y-110077737D01*
X142123866Y-110009993D01*
X142072315Y-109968729D01*
X142067819Y-109965445D01*
X142012055Y-109925432D01*
X141989132Y-109983341D01*
X141977008Y-110018916D01*
X141954004Y-110091391D01*
X141920977Y-110197898D01*
X141878778Y-110335571D01*
X141828263Y-110501543D01*
X141770285Y-110692948D01*
X141705699Y-110906918D01*
X141635357Y-111140588D01*
X141560114Y-111391091D01*
X141480824Y-111655560D01*
X141398341Y-111931128D01*
X141313519Y-112214929D01*
X141227211Y-112504097D01*
X141140271Y-112795764D01*
X141053554Y-113087064D01*
X140967913Y-113375131D01*
X140884203Y-113657097D01*
X140803277Y-113930096D01*
X140725988Y-114191262D01*
X140653192Y-114437728D01*
X140585742Y-114666627D01*
X140524491Y-114875093D01*
X140470294Y-115060259D01*
X140424005Y-115219258D01*
X140386477Y-115349225D01*
X140358564Y-115447291D01*
X140341121Y-115510591D01*
X140335001Y-115536258D01*
X140335000Y-115536338D01*
X138515225Y-115536338D01*
X138524605Y-115504184D01*
X138630012Y-115142417D01*
X139467167Y-115142417D01*
X139477750Y-115153000D01*
X139488334Y-115142417D01*
X139477750Y-115131834D01*
X139467167Y-115142417D01*
X138630012Y-115142417D01*
X138650333Y-115072670D01*
X139490005Y-115072670D01*
X139496855Y-115065247D01*
X139514202Y-115024417D01*
X139539354Y-114956999D01*
X139566912Y-114877834D01*
X139590584Y-114808501D01*
X139626218Y-114704935D01*
X139671827Y-114572874D01*
X139725424Y-114418055D01*
X139785022Y-114246213D01*
X139848636Y-114063087D01*
X139914278Y-113874413D01*
X139933402Y-113819500D01*
X139971076Y-113711781D01*
X140020713Y-113570532D01*
X140081110Y-113399141D01*
X140151066Y-113200992D01*
X140229377Y-112979471D01*
X140314841Y-112737963D01*
X140406255Y-112479854D01*
X140502418Y-112208529D01*
X140602126Y-111927374D01*
X140704178Y-111639774D01*
X140807370Y-111349116D01*
X140910500Y-111058783D01*
X141012366Y-110772163D01*
X141111765Y-110492640D01*
X141207494Y-110223600D01*
X141298352Y-109968429D01*
X141383136Y-109730511D01*
X141460643Y-109513233D01*
X141464652Y-109502009D01*
X143585471Y-109502009D01*
X143585848Y-109504355D01*
X143607256Y-109526002D01*
X143658117Y-109571223D01*
X143734868Y-109637098D01*
X143833944Y-109720708D01*
X143951780Y-109819133D01*
X144084811Y-109929454D01*
X144229473Y-110048751D01*
X144382201Y-110174104D01*
X144539431Y-110302594D01*
X144697598Y-110431302D01*
X144853137Y-110557308D01*
X145002484Y-110677692D01*
X145142074Y-110789536D01*
X145268342Y-110889918D01*
X145377724Y-110975921D01*
X145463842Y-111042479D01*
X145607933Y-111152425D01*
X145728425Y-111070501D01*
X145776208Y-111036592D01*
X145852093Y-110980983D01*
X145950610Y-110907761D01*
X146066289Y-110821016D01*
X146193662Y-110724837D01*
X146327259Y-110623312D01*
X146358363Y-110599580D01*
X146517905Y-110477432D01*
X146699622Y-110337758D01*
X146892377Y-110189153D01*
X147085035Y-110040214D01*
X147266456Y-109899535D01*
X147397152Y-109797834D01*
X147926493Y-109385084D01*
X147755538Y-109378008D01*
X147694270Y-109376923D01*
X147594683Y-109376981D01*
X147460777Y-109378088D01*
X147296550Y-109380153D01*
X147105999Y-109383081D01*
X146893121Y-109386780D01*
X146661916Y-109391157D01*
X146416380Y-109396118D01*
X146160511Y-109401570D01*
X145898309Y-109407421D01*
X145633769Y-109413577D01*
X145370890Y-109419944D01*
X145113671Y-109426431D01*
X144866108Y-109432944D01*
X144632200Y-109439389D01*
X144415945Y-109445674D01*
X144221340Y-109451706D01*
X144052383Y-109457391D01*
X143913072Y-109462636D01*
X143807406Y-109467349D01*
X143739381Y-109471436D01*
X143737648Y-109471573D01*
X143660718Y-109480153D01*
X143607157Y-109490911D01*
X143585471Y-109502009D01*
X141464652Y-109502009D01*
X141529670Y-109319980D01*
X141589016Y-109154137D01*
X141637478Y-109019091D01*
X141673853Y-108918226D01*
X141691311Y-108870233D01*
X141711888Y-108805400D01*
X141721751Y-108756180D01*
X141720454Y-108737942D01*
X141694125Y-108726979D01*
X141639509Y-108719863D01*
X141594680Y-108718334D01*
X141539948Y-108719986D01*
X141495276Y-108727997D01*
X141457403Y-108746947D01*
X141423067Y-108781416D01*
X141389007Y-108835984D01*
X141351963Y-108915232D01*
X141308673Y-109023740D01*
X141255875Y-109166088D01*
X141234998Y-109223509D01*
X141109359Y-109577090D01*
X140976036Y-109965793D01*
X140836950Y-110383511D01*
X140694018Y-110824136D01*
X140549160Y-111281562D01*
X140404294Y-111749680D01*
X140261341Y-112222382D01*
X140122218Y-112693562D01*
X139988845Y-113157112D01*
X139902926Y-113463012D01*
X139859682Y-113620183D01*
X139813833Y-113789626D01*
X139766644Y-113966410D01*
X139719381Y-114145602D01*
X139673308Y-114322269D01*
X139629691Y-114491478D01*
X139589796Y-114648297D01*
X139554887Y-114787793D01*
X139526230Y-114905033D01*
X139505091Y-114995085D01*
X139492735Y-115053015D01*
X139490005Y-115072670D01*
X138650333Y-115072670D01*
X138711494Y-114862763D01*
X138896540Y-114226181D01*
X139079132Y-113596577D01*
X139258659Y-112976090D01*
X139434512Y-112366858D01*
X139606081Y-111771020D01*
X139772754Y-111190715D01*
X139933922Y-110628082D01*
X140088975Y-110085259D01*
X140237302Y-109564384D01*
X140378292Y-109067598D01*
X140511337Y-108597038D01*
X140612393Y-108238073D01*
X142479660Y-108238073D01*
X142480784Y-108242856D01*
X142484530Y-108250826D01*
X142491065Y-108257581D01*
X142503181Y-108263045D01*
X142523671Y-108267145D01*
X142555328Y-108269806D01*
X142600943Y-108270954D01*
X142663309Y-108270514D01*
X142745219Y-108268412D01*
X142849466Y-108264574D01*
X142978841Y-108258925D01*
X143136137Y-108251391D01*
X143324147Y-108241897D01*
X143545663Y-108230369D01*
X143803478Y-108216734D01*
X144100384Y-108200915D01*
X144145000Y-108198534D01*
X144692857Y-108169250D01*
X145199513Y-108142064D01*
X145666044Y-108116914D01*
X146093528Y-108093740D01*
X146483040Y-108072480D01*
X146835659Y-108053071D01*
X147152460Y-108035453D01*
X147434520Y-108019564D01*
X147682916Y-108005343D01*
X147898726Y-107992727D01*
X148083025Y-107981655D01*
X148236891Y-107972065D01*
X148361401Y-107963896D01*
X148457630Y-107957087D01*
X148526657Y-107951575D01*
X148569558Y-107947299D01*
X148586785Y-107944436D01*
X148593218Y-107942322D01*
X148597770Y-107939294D01*
X148598744Y-107933500D01*
X148594440Y-107923088D01*
X148583159Y-107906207D01*
X148563204Y-107881002D01*
X148532875Y-107845624D01*
X148490473Y-107798219D01*
X148434301Y-107736936D01*
X148362659Y-107659923D01*
X148273848Y-107565327D01*
X148166171Y-107451297D01*
X148037927Y-107315980D01*
X147887419Y-107157525D01*
X147712948Y-106974079D01*
X147512815Y-106763790D01*
X147285321Y-106524806D01*
X147268669Y-106507313D01*
X147082692Y-106311871D01*
X146904653Y-106124633D01*
X146736784Y-105947952D01*
X146581313Y-105784182D01*
X146440471Y-105635677D01*
X146316488Y-105504790D01*
X146211595Y-105393875D01*
X146128021Y-105305285D01*
X146067997Y-105241374D01*
X146033753Y-105204497D01*
X146026789Y-105196681D01*
X146015249Y-105184928D01*
X146001031Y-105179840D01*
X145979979Y-105183950D01*
X145947934Y-105199795D01*
X145900739Y-105229908D01*
X145834237Y-105276824D01*
X145744269Y-105343078D01*
X145626678Y-105431204D01*
X145561122Y-105480571D01*
X145379786Y-105617345D01*
X145186049Y-105763721D01*
X144982557Y-105917683D01*
X144771958Y-106077214D01*
X144556898Y-106240299D01*
X144340024Y-106404920D01*
X144123983Y-106569063D01*
X143911423Y-106730710D01*
X143704989Y-106887845D01*
X143507329Y-107038453D01*
X143321089Y-107180517D01*
X143148917Y-107312020D01*
X142993459Y-107430947D01*
X142857362Y-107535282D01*
X142743274Y-107623007D01*
X142653840Y-107692108D01*
X142591709Y-107740567D01*
X142559526Y-107766369D01*
X142555541Y-107770015D01*
X142543116Y-107804903D01*
X142528220Y-107869418D01*
X142512653Y-107952178D01*
X142498214Y-108041804D01*
X142486703Y-108126915D01*
X142479919Y-108196131D01*
X142479660Y-108238073D01*
X140612393Y-108238073D01*
X140635825Y-108154842D01*
X140751146Y-107743151D01*
X140856690Y-107364102D01*
X140946629Y-107038713D01*
X142812295Y-107038713D01*
X142812547Y-107043630D01*
X142814548Y-107045588D01*
X142820886Y-107041729D01*
X142834146Y-107029196D01*
X142856916Y-107005134D01*
X142891783Y-106966684D01*
X142941334Y-106910990D01*
X143008156Y-106835195D01*
X143094835Y-106736442D01*
X143203958Y-106611874D01*
X143338114Y-106458635D01*
X143354310Y-106440134D01*
X143451810Y-106328529D01*
X143572141Y-106190412D01*
X143710488Y-106031328D01*
X143862038Y-105856826D01*
X144021975Y-105672451D01*
X144185484Y-105483751D01*
X144347752Y-105296272D01*
X144490986Y-105130584D01*
X145000736Y-104540537D01*
X146896769Y-104540537D01*
X147075870Y-104758067D01*
X147144391Y-104839629D01*
X147230139Y-104939066D01*
X147329676Y-105052614D01*
X147439566Y-105176510D01*
X147556373Y-105306990D01*
X147676661Y-105440292D01*
X147796993Y-105572651D01*
X147913933Y-105700306D01*
X148024044Y-105819492D01*
X148123890Y-105926447D01*
X148210035Y-106017406D01*
X148279042Y-106088608D01*
X148327474Y-106136288D01*
X148351897Y-106156683D01*
X148353448Y-106157167D01*
X148356087Y-106137214D01*
X148356703Y-106082108D01*
X148355382Y-105998976D01*
X148352210Y-105894945D01*
X148349383Y-105823792D01*
X148343625Y-105706514D01*
X148335472Y-105564031D01*
X148325275Y-105400875D01*
X148313384Y-105221578D01*
X148300149Y-105030670D01*
X148285921Y-104832684D01*
X148271051Y-104632152D01*
X148255889Y-104433604D01*
X148240785Y-104241572D01*
X148226091Y-104060588D01*
X148212157Y-103895183D01*
X148199332Y-103749888D01*
X148187969Y-103629236D01*
X148178417Y-103537758D01*
X148171026Y-103479985D01*
X148166577Y-103460612D01*
X148144016Y-103466550D01*
X148094602Y-103497474D01*
X148022984Y-103550091D01*
X147933812Y-103621108D01*
X147897929Y-103650862D01*
X147796318Y-103736672D01*
X147682650Y-103833883D01*
X147561940Y-103938084D01*
X147439207Y-104044863D01*
X147319469Y-104149809D01*
X147207742Y-104248511D01*
X147109043Y-104336557D01*
X147028391Y-104409537D01*
X146970802Y-104463040D01*
X146944343Y-104489246D01*
X146896769Y-104540537D01*
X145000736Y-104540537D01*
X145222434Y-104283917D01*
X145017092Y-104075401D01*
X144936080Y-103994092D01*
X144839867Y-103899081D01*
X144732518Y-103794237D01*
X144618098Y-103683426D01*
X144500672Y-103570515D01*
X144384307Y-103459372D01*
X144273068Y-103353864D01*
X144171019Y-103257857D01*
X144082227Y-103175220D01*
X144010757Y-103109820D01*
X143960674Y-103065523D01*
X143936044Y-103046197D01*
X143934576Y-103045667D01*
X143929346Y-103049400D01*
X143922105Y-103062156D01*
X143912174Y-103086272D01*
X143898875Y-103124086D01*
X143881528Y-103177933D01*
X143859455Y-103250150D01*
X143831978Y-103343075D01*
X143798417Y-103459043D01*
X143758094Y-103600392D01*
X143710331Y-103769458D01*
X143654448Y-103968578D01*
X143589767Y-104200089D01*
X143515610Y-104466327D01*
X143431297Y-104769629D01*
X143375148Y-104971834D01*
X143278193Y-105321254D01*
X143192118Y-105631844D01*
X143116394Y-105905541D01*
X143050494Y-106144283D01*
X142993890Y-106350006D01*
X142946056Y-106524647D01*
X142906463Y-106670145D01*
X142874583Y-106788436D01*
X142849890Y-106881457D01*
X142831855Y-106951147D01*
X142819952Y-106999441D01*
X142813652Y-107028278D01*
X142812295Y-107038713D01*
X140946629Y-107038713D01*
X140951847Y-107019835D01*
X141036007Y-106712487D01*
X141088980Y-106517000D01*
X141217424Y-106040962D01*
X141335964Y-105602634D01*
X141445481Y-105198787D01*
X141546858Y-104826195D01*
X141640974Y-104481631D01*
X141728713Y-104161867D01*
X141810955Y-103863677D01*
X141888582Y-103583832D01*
X141962476Y-103319107D01*
X141964957Y-103310250D01*
X142046430Y-103019050D01*
X142118911Y-102759116D01*
X142184563Y-102522503D01*
X142245549Y-102301265D01*
X142304034Y-102087455D01*
X142315537Y-102045056D01*
X144642417Y-102045056D01*
X144822158Y-102233153D01*
X144881202Y-102294597D01*
X144964725Y-102381026D01*
X145067606Y-102487165D01*
X145184721Y-102607736D01*
X145310947Y-102737464D01*
X145441161Y-102871072D01*
X145516039Y-102947797D01*
X145652809Y-103087777D01*
X145763159Y-103200199D01*
X145850234Y-103287806D01*
X145917178Y-103353339D01*
X145967135Y-103399541D01*
X146003251Y-103429153D01*
X146028669Y-103444918D01*
X146046534Y-103449578D01*
X146059990Y-103445874D01*
X146072182Y-103436549D01*
X146074324Y-103434630D01*
X146099231Y-103410004D01*
X146149403Y-103358574D01*
X146221033Y-103284309D01*
X146310312Y-103191175D01*
X146413432Y-103083142D01*
X146526587Y-102964177D01*
X146599879Y-102886917D01*
X146721439Y-102758326D01*
X146838702Y-102633689D01*
X146947143Y-102517860D01*
X147042234Y-102415695D01*
X147119450Y-102332049D01*
X147174264Y-102271778D01*
X147191862Y-102251917D01*
X147302436Y-102124917D01*
X147200093Y-102111287D01*
X147155437Y-102107791D01*
X147074005Y-102103917D01*
X146961353Y-102099833D01*
X146823035Y-102095705D01*
X146664607Y-102091701D01*
X146491622Y-102087988D01*
X146325167Y-102084984D01*
X146122981Y-102081481D01*
X145912127Y-102077493D01*
X145701803Y-102073218D01*
X145501207Y-102068853D01*
X145319537Y-102064594D01*
X145165991Y-102060639D01*
X145097500Y-102058683D01*
X144642417Y-102045056D01*
X142315537Y-102045056D01*
X142362182Y-101873128D01*
X142422156Y-101650338D01*
X142486121Y-101411138D01*
X142556240Y-101147582D01*
X142587203Y-101030790D01*
X144328060Y-101030790D01*
X144335500Y-101033925D01*
X144365752Y-101033015D01*
X144431205Y-101030281D01*
X144524780Y-101026046D01*
X144639398Y-101020629D01*
X144767982Y-101014354D01*
X144780000Y-101013758D01*
X144932350Y-101005814D01*
X145105150Y-100996154D01*
X145294010Y-100985076D01*
X145494541Y-100972875D01*
X145702354Y-100959850D01*
X145913060Y-100946297D01*
X146122268Y-100932514D01*
X146325591Y-100918798D01*
X146518638Y-100905445D01*
X146697020Y-100892753D01*
X146856349Y-100881020D01*
X146992234Y-100870542D01*
X147100286Y-100861616D01*
X147176117Y-100854539D01*
X147215336Y-100849609D01*
X147219208Y-100848635D01*
X147227861Y-100839036D01*
X147224917Y-100818636D01*
X147207960Y-100783464D01*
X147174571Y-100729554D01*
X147122334Y-100652935D01*
X147048831Y-100549640D01*
X146975211Y-100448039D01*
X146860990Y-100292279D01*
X146745186Y-100136457D01*
X146630777Y-99984403D01*
X146520740Y-99839947D01*
X146418053Y-99706921D01*
X146325693Y-99589154D01*
X146246637Y-99490476D01*
X146183862Y-99414719D01*
X146140347Y-99365712D01*
X146119742Y-99347488D01*
X146112568Y-99345342D01*
X146103979Y-99345871D01*
X146091654Y-99351192D01*
X146073270Y-99363424D01*
X146046507Y-99384685D01*
X146009043Y-99417092D01*
X145958557Y-99462763D01*
X145892728Y-99523816D01*
X145809234Y-99602369D01*
X145705755Y-99700540D01*
X145579968Y-99820445D01*
X145429552Y-99964205D01*
X145252187Y-100133935D01*
X145139834Y-100241492D01*
X144994845Y-100380206D01*
X144856945Y-100511963D01*
X144729633Y-100633432D01*
X144616413Y-100741279D01*
X144520786Y-100832170D01*
X144446253Y-100902772D01*
X144396317Y-100949752D01*
X144377834Y-100966832D01*
X144337709Y-101008063D01*
X144328060Y-101030790D01*
X142587203Y-101030790D01*
X142634677Y-100851725D01*
X142642238Y-100823167D01*
X142795369Y-100245850D01*
X142864693Y-99985615D01*
X144173831Y-99985615D01*
X144185383Y-99988289D01*
X144204271Y-99968662D01*
X144245492Y-99920920D01*
X144304927Y-99849999D01*
X144378456Y-99760833D01*
X144461961Y-99658360D01*
X144500415Y-99610807D01*
X144588381Y-99500802D01*
X144685762Y-99377346D01*
X144789382Y-99244625D01*
X144896059Y-99106826D01*
X145002617Y-98968138D01*
X145105874Y-98832746D01*
X145202654Y-98704838D01*
X145282996Y-98597647D01*
X146809438Y-98597647D01*
X147248245Y-99228865D01*
X147410236Y-99461243D01*
X147549207Y-99659200D01*
X147665701Y-99823485D01*
X147760262Y-99954845D01*
X147833433Y-100054031D01*
X147885756Y-100121790D01*
X147917775Y-100158871D01*
X147928729Y-100167000D01*
X147932554Y-100148073D01*
X147930713Y-100099414D01*
X147926393Y-100055875D01*
X147883297Y-99695521D01*
X147844794Y-99374948D01*
X147810582Y-99091891D01*
X147780358Y-98844083D01*
X147753821Y-98629255D01*
X147730668Y-98445142D01*
X147710596Y-98289476D01*
X147693305Y-98159990D01*
X147678490Y-98054418D01*
X147665852Y-97970491D01*
X147655086Y-97905944D01*
X147645891Y-97858509D01*
X147637965Y-97825919D01*
X147631005Y-97805907D01*
X147625229Y-97796688D01*
X147611589Y-97788360D01*
X147593268Y-97790571D01*
X147566164Y-97806740D01*
X147526176Y-97840284D01*
X147469204Y-97894621D01*
X147391148Y-97973169D01*
X147295498Y-98071500D01*
X147197398Y-98173453D01*
X147102750Y-98272927D01*
X147018056Y-98363007D01*
X146949817Y-98436776D01*
X146904535Y-98487319D01*
X146903920Y-98488032D01*
X146809438Y-98597647D01*
X145282996Y-98597647D01*
X145289776Y-98588602D01*
X145364062Y-98488224D01*
X145422333Y-98407891D01*
X145461410Y-98351791D01*
X145478114Y-98324111D01*
X145478500Y-98322516D01*
X145466162Y-98291870D01*
X145431921Y-98234557D01*
X145379934Y-98156126D01*
X145314359Y-98062126D01*
X145239355Y-97958104D01*
X145159079Y-97849610D01*
X145077691Y-97742191D01*
X144999347Y-97641398D01*
X144928206Y-97552777D01*
X144868426Y-97481878D01*
X144824166Y-97434249D01*
X144799582Y-97415438D01*
X144798664Y-97415344D01*
X144786557Y-97433976D01*
X144768387Y-97482366D01*
X144751815Y-97537042D01*
X144738678Y-97587351D01*
X144717070Y-97673630D01*
X144688246Y-97790650D01*
X144653463Y-97933180D01*
X144613977Y-98095991D01*
X144571043Y-98273851D01*
X144525918Y-98461531D01*
X144479856Y-98653800D01*
X144434114Y-98845429D01*
X144389948Y-99031188D01*
X144348614Y-99205845D01*
X144311367Y-99364171D01*
X144279463Y-99500936D01*
X144260094Y-99584917D01*
X144233945Y-99699042D01*
X144210398Y-99801741D01*
X144191422Y-99884434D01*
X144178984Y-99938544D01*
X144175921Y-99951815D01*
X144173831Y-99985615D01*
X142864693Y-99985615D01*
X142938792Y-99707458D01*
X143073090Y-99205852D01*
X143198846Y-98738891D01*
X143316641Y-98304438D01*
X143427059Y-97900353D01*
X143530682Y-97524497D01*
X143628093Y-97174731D01*
X143677026Y-97001023D01*
X145631737Y-97001023D01*
X145636453Y-97025733D01*
X145653730Y-97057943D01*
X145660987Y-97069665D01*
X145697879Y-97125038D01*
X145749152Y-97197335D01*
X145809562Y-97279692D01*
X145873865Y-97365248D01*
X145936818Y-97447138D01*
X145993177Y-97518501D01*
X146037700Y-97572475D01*
X146065143Y-97602195D01*
X146070637Y-97605834D01*
X146090934Y-97592002D01*
X146137059Y-97553401D01*
X146204101Y-97494369D01*
X146287149Y-97419246D01*
X146381294Y-97332370D01*
X146402781Y-97312322D01*
X146501987Y-97219129D01*
X146593749Y-97132091D01*
X146672354Y-97056692D01*
X146732087Y-96998418D01*
X146767235Y-96962754D01*
X146769667Y-96960102D01*
X146822584Y-96901395D01*
X146694641Y-96914168D01*
X146634737Y-96918694D01*
X146541040Y-96923984D01*
X146422074Y-96929640D01*
X146286362Y-96935267D01*
X146142429Y-96940464D01*
X146105307Y-96941677D01*
X145945378Y-96947105D01*
X145823517Y-96952686D01*
X145735474Y-96959644D01*
X145676997Y-96969203D01*
X145643835Y-96982587D01*
X145631737Y-97001023D01*
X143677026Y-97001023D01*
X143719875Y-96848916D01*
X143806610Y-96544913D01*
X143824135Y-96484000D01*
X143918717Y-96155917D01*
X144610667Y-96155917D01*
X144621250Y-96166500D01*
X144631834Y-96155917D01*
X144621250Y-96145334D01*
X144610667Y-96155917D01*
X143918717Y-96155917D01*
X143936232Y-96095161D01*
X144638105Y-96095161D01*
X144646190Y-96078040D01*
X144664779Y-96025728D01*
X144692123Y-95943558D01*
X144692238Y-95943199D01*
X145817167Y-95943199D01*
X145837949Y-95949655D01*
X145898967Y-95953145D01*
X145998232Y-95953693D01*
X146133750Y-95951322D01*
X146303533Y-95946057D01*
X146505589Y-95937922D01*
X146598779Y-95933694D01*
X146730113Y-95926825D01*
X146846988Y-95919321D01*
X146942822Y-95911718D01*
X147011037Y-95904551D01*
X147045051Y-95898358D01*
X147047352Y-95897121D01*
X147043099Y-95874293D01*
X147022538Y-95818829D01*
X146987974Y-95736116D01*
X146941715Y-95631542D01*
X146886066Y-95510491D01*
X146840967Y-95415084D01*
X146775966Y-95278846D01*
X146714419Y-95149372D01*
X146659558Y-95033497D01*
X146614616Y-94938058D01*
X146582825Y-94869891D01*
X146571482Y-94845094D01*
X146524594Y-94740771D01*
X146417482Y-94908594D01*
X146352178Y-95012556D01*
X146279721Y-95130687D01*
X146203243Y-95257591D01*
X146125874Y-95387870D01*
X146050746Y-95516130D01*
X145980990Y-95636974D01*
X145919736Y-95745005D01*
X145870116Y-95834828D01*
X145835261Y-95901046D01*
X145818303Y-95938262D01*
X145817167Y-95943199D01*
X144692238Y-95943199D01*
X144726475Y-95836862D01*
X144766087Y-95710971D01*
X144800297Y-95600327D01*
X144882480Y-95334150D01*
X144920008Y-95214000D01*
X145551257Y-95214000D01*
X145551928Y-95227242D01*
X145564359Y-95216548D01*
X145589666Y-95180026D01*
X145628967Y-95115783D01*
X145683381Y-95021926D01*
X145754024Y-94896564D01*
X145842016Y-94737804D01*
X145948473Y-94543754D01*
X145964972Y-94513556D01*
X146034680Y-94385061D01*
X146097095Y-94268362D01*
X146149470Y-94168729D01*
X146189060Y-94091433D01*
X146213117Y-94041744D01*
X146219334Y-94025451D01*
X146211918Y-93998585D01*
X146191560Y-93940190D01*
X146188505Y-93931951D01*
X146939000Y-93931951D01*
X146945318Y-93968198D01*
X146962950Y-94035337D01*
X146989912Y-94127451D01*
X147024223Y-94238618D01*
X147063900Y-94362920D01*
X147106960Y-94494435D01*
X147151419Y-94627246D01*
X147195296Y-94755431D01*
X147236608Y-94873071D01*
X147273372Y-94974246D01*
X147303605Y-95053036D01*
X147325324Y-95103522D01*
X147336547Y-95119783D01*
X147336784Y-95119606D01*
X147338207Y-95096800D01*
X147336884Y-95038980D01*
X147333117Y-94953355D01*
X147327205Y-94847137D01*
X147322046Y-94765814D01*
X147312949Y-94624387D01*
X147302634Y-94456667D01*
X147292059Y-94278638D01*
X147282178Y-94106283D01*
X147276680Y-94006713D01*
X147268839Y-93870787D01*
X147260544Y-93742214D01*
X147252427Y-93629745D01*
X147245119Y-93542130D01*
X147239291Y-93488394D01*
X147224303Y-93383612D01*
X147081651Y-93641629D01*
X147029744Y-93737743D01*
X146986281Y-93822462D01*
X146955056Y-93888065D01*
X146939865Y-93926831D01*
X146939000Y-93931951D01*
X146188505Y-93931951D01*
X146161090Y-93858022D01*
X146123338Y-93759835D01*
X146109605Y-93724833D01*
X145999876Y-93446584D01*
X145961266Y-93573584D01*
X145948666Y-93618841D01*
X145927497Y-93699190D01*
X145899258Y-93808639D01*
X145865445Y-93941199D01*
X145827557Y-94090878D01*
X145787090Y-94251685D01*
X145745542Y-94417631D01*
X145704409Y-94582723D01*
X145665190Y-94740973D01*
X145629382Y-94886388D01*
X145598482Y-95012978D01*
X145573987Y-95114753D01*
X145557395Y-95185722D01*
X145551257Y-95214000D01*
X144920008Y-95214000D01*
X144969606Y-95055207D01*
X145062503Y-94760956D01*
X145161996Y-94448854D01*
X145268910Y-94116360D01*
X145384071Y-93760932D01*
X145508305Y-93380026D01*
X145642438Y-92971102D01*
X145787295Y-92531616D01*
X145817678Y-92439810D01*
X146425263Y-92439810D01*
X146433293Y-92501379D01*
X146456085Y-92569392D01*
X146495992Y-92654191D01*
X146548375Y-92753206D01*
X146624627Y-92890302D01*
X146686957Y-92994001D01*
X146734347Y-93062744D01*
X146765780Y-93094970D01*
X146772835Y-93097334D01*
X146790910Y-93080631D01*
X146826823Y-93035008D01*
X146875580Y-92967192D01*
X146932185Y-92883910D01*
X146939356Y-92873064D01*
X146995594Y-92785087D01*
X147041986Y-92707468D01*
X147073993Y-92648173D01*
X147087073Y-92615165D01*
X147087167Y-92613772D01*
X147085728Y-92581245D01*
X147081674Y-92512236D01*
X147075398Y-92412490D01*
X147067293Y-92287752D01*
X147057753Y-92143766D01*
X147047171Y-91986278D01*
X147035940Y-91821032D01*
X147024453Y-91653773D01*
X147013104Y-91490245D01*
X147002286Y-91336193D01*
X146992391Y-91197362D01*
X146983815Y-91079497D01*
X146976949Y-90988343D01*
X146972186Y-90929643D01*
X146971023Y-90917167D01*
X146961274Y-90825652D01*
X146950371Y-90730005D01*
X146946138Y-90694917D01*
X146933040Y-90589084D01*
X146892538Y-90705500D01*
X146872033Y-90768655D01*
X146842576Y-90865168D01*
X146805965Y-90988669D01*
X146763998Y-91132787D01*
X146718473Y-91291152D01*
X146671186Y-91457394D01*
X146623937Y-91625143D01*
X146578523Y-91788027D01*
X146536741Y-91939677D01*
X146500389Y-92073722D01*
X146471265Y-92183793D01*
X146451166Y-92263517D01*
X146444084Y-92294633D01*
X146429645Y-92374342D01*
X146425263Y-92439810D01*
X145817678Y-92439810D01*
X145943702Y-92059026D01*
X146112485Y-91550791D01*
X146242396Y-91160584D01*
X146369428Y-90779568D01*
X146483878Y-90436772D01*
X146586445Y-90130217D01*
X146677828Y-89857928D01*
X146758728Y-89617926D01*
X146829842Y-89408235D01*
X146891870Y-89226877D01*
X146945511Y-89071877D01*
X146991465Y-88941256D01*
X147030430Y-88833037D01*
X147063107Y-88745244D01*
X147090193Y-88675899D01*
X147112388Y-88623025D01*
X147130392Y-88584646D01*
X147144904Y-88558784D01*
X147156622Y-88543462D01*
X147166247Y-88536704D01*
X147170625Y-88535917D01*
X147177201Y-88539805D01*
X147184801Y-88553041D01*
X147193896Y-88577978D01*
X147204956Y-88616972D01*
X147218453Y-88672377D01*
X147234857Y-88746550D01*
X147254639Y-88841843D01*
X147278271Y-88960613D01*
X147306222Y-89105215D01*
X147338964Y-89278003D01*
X147376967Y-89481331D01*
X147420703Y-89717556D01*
X147470642Y-89989032D01*
X147527256Y-90298114D01*
X147572686Y-90546750D01*
X147623971Y-90829167D01*
X147671391Y-91094014D01*
X147715484Y-91345019D01*
X147756786Y-91585915D01*
X147795831Y-91820431D01*
X147833157Y-92052298D01*
X147869300Y-92285246D01*
X147904795Y-92523007D01*
X147940179Y-92769309D01*
X147975987Y-93027884D01*
X148012755Y-93302463D01*
X148051021Y-93596775D01*
X148091319Y-93914552D01*
X148134185Y-94259523D01*
X148180157Y-94635419D01*
X148229769Y-95045971D01*
X148282873Y-95489167D01*
X148327517Y-95861767D01*
X148369246Y-96207094D01*
X148408642Y-96529335D01*
X148446290Y-96832677D01*
X148482774Y-97121306D01*
X148518678Y-97399411D01*
X148554586Y-97671177D01*
X148591081Y-97940793D01*
X148628748Y-98212444D01*
X148668171Y-98490318D01*
X148709933Y-98778602D01*
X148754619Y-99081483D01*
X148802813Y-99403149D01*
X148855098Y-99747785D01*
X148912059Y-100119579D01*
X148974279Y-100522718D01*
X149042342Y-100961389D01*
X149078471Y-101193584D01*
X149203680Y-101996025D01*
X149323187Y-102758418D01*
X149437313Y-103482620D01*
X149546379Y-104170484D01*
X149650706Y-104823867D01*
X149750616Y-105444623D01*
X149846428Y-106034608D01*
X149938465Y-106595678D01*
X150027048Y-107129686D01*
X150112497Y-107638489D01*
X150195133Y-108123942D01*
X150275279Y-108587899D01*
X150353254Y-109032217D01*
X150429380Y-109458751D01*
X150503977Y-109869355D01*
X150577368Y-110265885D01*
X150649873Y-110650196D01*
X150721813Y-111024144D01*
X150793509Y-111389583D01*
X150865282Y-111748369D01*
X150937454Y-112102357D01*
X151010345Y-112453403D01*
X151084277Y-112803362D01*
X151102375Y-112888167D01*
X151139747Y-113063188D01*
X151174683Y-113227268D01*
X151206099Y-113375277D01*
X151232908Y-113502083D01*
X151254027Y-113602556D01*
X151268370Y-113671565D01*
X151274691Y-113703084D01*
X151284404Y-113737002D01*
X151292842Y-113736380D01*
X151293673Y-113733241D01*
X151291785Y-113706552D01*
X151283671Y-113642035D01*
X151269923Y-113543642D01*
X151251133Y-113415324D01*
X151227894Y-113261035D01*
X151200797Y-113084726D01*
X151170433Y-112890350D01*
X151137395Y-112681859D01*
X151119339Y-112569074D01*
X150869875Y-111007538D01*
X150629728Y-109486423D01*
X150398775Y-108004883D01*
X150176891Y-106562072D01*
X149963954Y-105157143D01*
X149759839Y-103789251D01*
X149564423Y-102457549D01*
X149377583Y-101161192D01*
X149199195Y-99899332D01*
X149029136Y-98671124D01*
X148867282Y-97475721D01*
X148713509Y-96312278D01*
X148567694Y-95179949D01*
X148485341Y-94526084D01*
X148394122Y-93787238D01*
X148310090Y-93089161D01*
X148233156Y-92430918D01*
X148163226Y-91811576D01*
X148100211Y-91230200D01*
X148044017Y-90685857D01*
X147994554Y-90177612D01*
X147951731Y-89704531D01*
X147915455Y-89265680D01*
X147885634Y-88860125D01*
X147862179Y-88486932D01*
X147844996Y-88145167D01*
X147835878Y-87899460D01*
X147821569Y-87432337D01*
X147533743Y-87387010D01*
X147415782Y-87368824D01*
X147301285Y-87351863D01*
X147202580Y-87337908D01*
X147131995Y-87328742D01*
X147126533Y-87328109D01*
X147007149Y-87314537D01*
X146963761Y-87430502D01*
X146930988Y-87523587D01*
X146888123Y-87654116D01*
X146836154Y-87818675D01*
X146776069Y-88013851D01*
X146708857Y-88236230D01*
X146635507Y-88482398D01*
X146557006Y-88748942D01*
X146474344Y-89032448D01*
X146388508Y-89329502D01*
X146300488Y-89636692D01*
X146211271Y-89950603D01*
X146121846Y-90267821D01*
X146033202Y-90584934D01*
X145946327Y-90898528D01*
X145862209Y-91205188D01*
X145781838Y-91501502D01*
X145741956Y-91649977D01*
X145683683Y-91869168D01*
X145621280Y-92106552D01*
X145555491Y-92359137D01*
X145487058Y-92623933D01*
X145416725Y-92897947D01*
X145345233Y-93178188D01*
X145273327Y-93461665D01*
X145201748Y-93745387D01*
X145131240Y-94026361D01*
X145062545Y-94301597D01*
X144996407Y-94568103D01*
X144933568Y-94822888D01*
X144874770Y-95062960D01*
X144820758Y-95285328D01*
X144772273Y-95487000D01*
X144730059Y-95664985D01*
X144694858Y-95816292D01*
X144667413Y-95937928D01*
X144648468Y-96026904D01*
X144638764Y-96080226D01*
X144638105Y-96095161D01*
X143936232Y-96095161D01*
X143981713Y-95937401D01*
X144128368Y-95429320D01*
X144264748Y-94957553D01*
X144391497Y-94519893D01*
X144509261Y-94114138D01*
X144618686Y-93738083D01*
X144720417Y-93389522D01*
X144815099Y-93066252D01*
X144903379Y-92766068D01*
X144985902Y-92486765D01*
X145063313Y-92226138D01*
X145136258Y-91981984D01*
X145205383Y-91752098D01*
X145271334Y-91534274D01*
X145329352Y-91343966D01*
X145432658Y-90999480D01*
X145544066Y-90615092D01*
X145663152Y-90192364D01*
X145789492Y-89732862D01*
X145922662Y-89238147D01*
X146062237Y-88709784D01*
X146207794Y-88149335D01*
X146358908Y-87558365D01*
X146393467Y-87421996D01*
X146482512Y-87070075D01*
X146415374Y-86786996D01*
X146365309Y-86558639D01*
X146331289Y-86360662D01*
X146312305Y-86184698D01*
X146307349Y-86022380D01*
X146311070Y-85921834D01*
X146330517Y-85752310D01*
X147056183Y-85752310D01*
X147068706Y-85885669D01*
X147074244Y-85906337D01*
X147128699Y-86027890D01*
X147210594Y-86126730D01*
X147312781Y-86199904D01*
X147428110Y-86244460D01*
X147549433Y-86257444D01*
X147669601Y-86235905D01*
X147762173Y-86190469D01*
X147851884Y-86109650D01*
X147922153Y-86004585D01*
X147965384Y-85888985D01*
X147975503Y-85805417D01*
X147956755Y-85673677D01*
X147905463Y-85560886D01*
X147827994Y-85469320D01*
X147730716Y-85401257D01*
X147619997Y-85358974D01*
X147502205Y-85344747D01*
X147383707Y-85360855D01*
X147270870Y-85409574D01*
X147170063Y-85493182D01*
X147154060Y-85511659D01*
X147084863Y-85626511D01*
X147056183Y-85752310D01*
X146330517Y-85752310D01*
X146337451Y-85691870D01*
X146388046Y-85490157D01*
X146466614Y-85307883D01*
X146576913Y-85136238D01*
X146715105Y-84974364D01*
X146789092Y-84893138D01*
X146855922Y-84813717D01*
X146907654Y-84745900D01*
X146934193Y-84703980D01*
X146950647Y-84664212D01*
X146978052Y-84589294D01*
X147014633Y-84484453D01*
X147058612Y-84354913D01*
X147108215Y-84205899D01*
X147161665Y-84042637D01*
X147211198Y-83889063D01*
X147306412Y-83592881D01*
X147389716Y-83336192D01*
X147461459Y-83117969D01*
X147521991Y-82937185D01*
X147571661Y-82792813D01*
X147610820Y-82683828D01*
X147639817Y-82609201D01*
X147659002Y-82567908D01*
X147663647Y-82560916D01*
X147690800Y-82545467D01*
X147702539Y-82550145D01*
G37*
X147702539Y-82550145D02*
X147709184Y-82573961D01*
X147721666Y-82635198D01*
X147739246Y-82729460D01*
X147761185Y-82852348D01*
X147786742Y-82999465D01*
X147815178Y-83166414D01*
X147845753Y-83348796D01*
X147877728Y-83542215D01*
X147910363Y-83742272D01*
X147942918Y-83944570D01*
X147974653Y-84144712D01*
X148004829Y-84338300D01*
X148020459Y-84440167D01*
X148067256Y-84747084D01*
X148154426Y-84831750D01*
X148224455Y-84896594D01*
X148303605Y-84965408D01*
X148339633Y-84995105D01*
X148417012Y-85070744D01*
X148499515Y-85173909D01*
X148578415Y-85292120D01*
X148644986Y-85412898D01*
X148669430Y-85466750D01*
X148729616Y-85653072D01*
X148766032Y-85859910D01*
X148776158Y-86071170D01*
X148773710Y-86132713D01*
X148760999Y-86267957D01*
X148738479Y-86388497D01*
X148702584Y-86504029D01*
X148649749Y-86624247D01*
X148576408Y-86758845D01*
X148493541Y-86894564D01*
X148451067Y-86968435D01*
X148429041Y-87030415D01*
X148421219Y-87101470D01*
X148420667Y-87139248D01*
X148423312Y-87212054D01*
X148431116Y-87325065D01*
X148443879Y-87476493D01*
X148461402Y-87664551D01*
X148483484Y-87887451D01*
X148509927Y-88143404D01*
X148540532Y-88430624D01*
X148575099Y-88747322D01*
X148613428Y-89091710D01*
X148655321Y-89462001D01*
X148700577Y-89856407D01*
X148748998Y-90273140D01*
X148800383Y-90710412D01*
X148854535Y-91166436D01*
X148911253Y-91639423D01*
X148970337Y-92127586D01*
X149031590Y-92629136D01*
X149046195Y-92748084D01*
X149095974Y-93152359D01*
X149141385Y-93519264D01*
X149183079Y-93853466D01*
X149221704Y-94159628D01*
X149257910Y-94442416D01*
X149292345Y-94706496D01*
X149325660Y-94956533D01*
X149358503Y-95197192D01*
X149391523Y-95433138D01*
X149425370Y-95669038D01*
X149460693Y-95909556D01*
X149498140Y-96159357D01*
X149538363Y-96423107D01*
X149582008Y-96705471D01*
X149629726Y-97011115D01*
X149682166Y-97344704D01*
X149713344Y-97542334D01*
X149783106Y-97983844D01*
X149847065Y-98387833D01*
X149905941Y-98758607D01*
X149960454Y-99100472D01*
X150011326Y-99417735D01*
X150059277Y-99714701D01*
X150105028Y-99995677D01*
X150149299Y-100264969D01*
X150192813Y-100526884D01*
X150236289Y-100785726D01*
X150280448Y-101045804D01*
X150326011Y-101311422D01*
X150373699Y-101586887D01*
X150424232Y-101876506D01*
X150478332Y-102184584D01*
X150536719Y-102515428D01*
X150600114Y-102873344D01*
X150669238Y-103262639D01*
X150696515Y-103416084D01*
X150775400Y-103860187D01*
X150847338Y-104266217D01*
X150912945Y-104637753D01*
X150972834Y-104978373D01*
X151027619Y-105291658D01*
X151077913Y-105581186D01*
X151124331Y-105850536D01*
X151167486Y-106103288D01*
X151207992Y-106343021D01*
X151246463Y-106573314D01*
X151283513Y-106797746D01*
X151319756Y-107019897D01*
X151355804Y-107243346D01*
X151392274Y-107471672D01*
X151395293Y-107490667D01*
X151414156Y-107608960D01*
X151438483Y-107760833D01*
X151467883Y-107943875D01*
X151501965Y-108155677D01*
X151540338Y-108393829D01*
X151582611Y-108655920D01*
X151628395Y-108939539D01*
X151677298Y-109242278D01*
X151728930Y-109561726D01*
X151782899Y-109895472D01*
X151838816Y-110241108D01*
X151896289Y-110596221D01*
X151954928Y-110958403D01*
X152014343Y-111325243D01*
X152074141Y-111694331D01*
X152133933Y-112063258D01*
X152193329Y-112429612D01*
X152251936Y-112790984D01*
X152309366Y-113144963D01*
X152365226Y-113489140D01*
X152419127Y-113821104D01*
X152470677Y-114138446D01*
X152519486Y-114438754D01*
X152565163Y-114719620D01*
X152607317Y-114978632D01*
X152645558Y-115213381D01*
X152679496Y-115421457D01*
X152708739Y-115600449D01*
X152732896Y-115747948D01*
X152751578Y-115861542D01*
X152764392Y-115938823D01*
X152770950Y-115977380D01*
X152771600Y-115980856D01*
X152776460Y-115995495D01*
X152787162Y-116009754D01*
X152807440Y-116025154D01*
X152841029Y-116043217D01*
X152891664Y-116065465D01*
X152963079Y-116093419D01*
X153059008Y-116128600D01*
X153183187Y-116172531D01*
X153339349Y-116226732D01*
X153531229Y-116292726D01*
X153568241Y-116305422D01*
X154420355Y-116607234D01*
X155231087Y-116914041D01*
X156001132Y-117226191D01*
X156731187Y-117544035D01*
X157421947Y-117867920D01*
X158074108Y-118198195D01*
X158688365Y-118535211D01*
X159265413Y-118879315D01*
X159805950Y-119230857D01*
X160310669Y-119590186D01*
X160670875Y-119868814D01*
X160747215Y-119931494D01*
X160809634Y-119985429D01*
X160851620Y-120024802D01*
X160866667Y-120043671D01*
X160848759Y-120047066D01*
X160802476Y-120037429D01*
X160755542Y-120022799D01*
X160696432Y-120001162D01*
X160601635Y-119965038D01*
X160474694Y-119915843D01*
X160319153Y-119854998D01*
X160138555Y-119783921D01*
X159936444Y-119704030D01*
X159716365Y-119616745D01*
X159481859Y-119523483D01*
X159236472Y-119425664D01*
X158983746Y-119324706D01*
X158727226Y-119222027D01*
X158470454Y-119119048D01*
X158216976Y-119017186D01*
X157970333Y-118917860D01*
X157734071Y-118822488D01*
X157511732Y-118732490D01*
X157306860Y-118649284D01*
X157122999Y-118574288D01*
X156963693Y-118508922D01*
X156832484Y-118454604D01*
X156732918Y-118412753D01*
X156718000Y-118406383D01*
X156622556Y-118364641D01*
X156500789Y-118310113D01*
X156364606Y-118248201D01*
X156225912Y-118184306D01*
X156135917Y-118142329D01*
X155969445Y-118066827D01*
X155784293Y-117987364D01*
X155587121Y-117906438D01*
X155384588Y-117826544D01*
X155183354Y-117750181D01*
X154990078Y-117679846D01*
X154811421Y-117618036D01*
X154654042Y-117567249D01*
X154524602Y-117529982D01*
X154463750Y-117515287D01*
X154445840Y-117512926D01*
X154443282Y-117517333D01*
X154458258Y-117529665D01*
X154492949Y-117551078D01*
X154549537Y-117582731D01*
X154630201Y-117625780D01*
X154737123Y-117681383D01*
X154872484Y-117750697D01*
X155038465Y-117834879D01*
X155237248Y-117935087D01*
X155471013Y-118052477D01*
X155564417Y-118099300D01*
X156075691Y-118357329D01*
X156551858Y-118601526D01*
X156996991Y-118834090D01*
X157415164Y-119057222D01*
X157810449Y-119273122D01*
X158186921Y-119483989D01*
X158548653Y-119692023D01*
X158899717Y-119899424D01*
X158919334Y-119911179D01*
X159138069Y-120043783D01*
X159351924Y-120176176D01*
X159558284Y-120306549D01*
X159754540Y-120433091D01*
X159938080Y-120553991D01*
X160106292Y-120667439D01*
X160256564Y-120771624D01*
X160386286Y-120864736D01*
X160492846Y-120944965D01*
X160573632Y-121010499D01*
X160626032Y-121059529D01*
X160647436Y-121090244D01*
X160635336Y-121100834D01*
X160601689Y-121093270D01*
X160534611Y-121070453D01*
X160433652Y-121032193D01*
X160298362Y-120978300D01*
X160128290Y-120908584D01*
X159922987Y-120822856D01*
X159682004Y-120720926D01*
X159404890Y-120602604D01*
X159091195Y-120467702D01*
X158740470Y-120316028D01*
X158352264Y-120147393D01*
X157926129Y-119961609D01*
X157723417Y-119873034D01*
X157269449Y-119675473D01*
X156850209Y-119495065D01*
X156462320Y-119330518D01*
X156102406Y-119180540D01*
X155767091Y-119043841D01*
X155452999Y-118919129D01*
X155156752Y-118805112D01*
X154874975Y-118700500D01*
X154604292Y-118603999D01*
X154341325Y-118514320D01*
X154082699Y-118430171D01*
X153825036Y-118350260D01*
X153564962Y-118273296D01*
X153468917Y-118245726D01*
X153054999Y-118133267D01*
X152604792Y-118020975D01*
X152124331Y-117910025D01*
X151619650Y-117801592D01*
X151096780Y-117696851D01*
X150561756Y-117596976D01*
X150020611Y-117503141D01*
X149479379Y-117416522D01*
X148944093Y-117338292D01*
X148515917Y-117281492D01*
X148312977Y-117256746D01*
X148093630Y-117231568D01*
X147861293Y-117206243D01*
X147619382Y-117181051D01*
X147371314Y-117156277D01*
X147120506Y-117132204D01*
X146870375Y-117109114D01*
X146624337Y-117087290D01*
X146385810Y-117067016D01*
X146158210Y-117048573D01*
X145944953Y-117032246D01*
X145749457Y-117018318D01*
X145575139Y-117007070D01*
X145425414Y-116998786D01*
X145303701Y-116993750D01*
X145213415Y-116992243D01*
X145157973Y-116994549D01*
X145140793Y-117000951D01*
X145141500Y-117002047D01*
X145165474Y-117008494D01*
X145224734Y-117018307D01*
X145312449Y-117030534D01*
X145421792Y-117044223D01*
X145543666Y-117058171D01*
X146114458Y-117125222D01*
X146701618Y-117202851D01*
X147298048Y-117289828D01*
X147896647Y-117384919D01*
X148490317Y-117486894D01*
X149071956Y-117594519D01*
X149634466Y-117706564D01*
X150170746Y-117821796D01*
X150673698Y-117938983D01*
X150801917Y-117970563D01*
X151232755Y-118081100D01*
X151631835Y-118190366D01*
X152009493Y-118301604D01*
X152376064Y-118418055D01*
X152741881Y-118542960D01*
X153117280Y-118679559D01*
X153373667Y-118777059D01*
X154140980Y-119080769D01*
X154893349Y-119393416D01*
X155628114Y-119713654D01*
X156342613Y-120040140D01*
X157034186Y-120371527D01*
X157700171Y-120706472D01*
X158337907Y-121043630D01*
X158944732Y-121381657D01*
X159517986Y-121719206D01*
X160055008Y-122054935D01*
X160553136Y-122387498D01*
X160643796Y-122450659D01*
X160811092Y-122569134D01*
X160957521Y-122675031D01*
X161080529Y-122766399D01*
X161177566Y-122841286D01*
X161246078Y-122897738D01*
X161283515Y-122933804D01*
X161290000Y-122944978D01*
X161290108Y-122955769D01*
X161285150Y-122960202D01*
X161267203Y-122956122D01*
X161228345Y-122941372D01*
X161160652Y-122913795D01*
X161131250Y-122901763D01*
X161083132Y-122881164D01*
X161000834Y-122844853D01*
X160888652Y-122794766D01*
X160750885Y-122732842D01*
X160591829Y-122661017D01*
X160415783Y-122581230D01*
X160227043Y-122495419D01*
X160029908Y-122405520D01*
X159977667Y-122381651D01*
X159326229Y-122085505D01*
X158709188Y-121808427D01*
X158123721Y-121549314D01*
X157567006Y-121307065D01*
X157036218Y-121080578D01*
X156528536Y-120868751D01*
X156041136Y-120670483D01*
X155571195Y-120484672D01*
X155115891Y-120310215D01*
X154672401Y-120146012D01*
X154237902Y-119990961D01*
X153809570Y-119843959D01*
X153384583Y-119703905D01*
X152960118Y-119569697D01*
X152533353Y-119440234D01*
X152167167Y-119333236D01*
X151067696Y-119031874D01*
X149986412Y-118765154D01*
X148918493Y-118532187D01*
X147859114Y-118332081D01*
X146803453Y-118163946D01*
X145746686Y-118026891D01*
X144683991Y-117920025D01*
X144377834Y-117894852D01*
X143810568Y-117856015D01*
X143209874Y-117825201D01*
X142583490Y-117802411D01*
X141939155Y-117787643D01*
X141284608Y-117780898D01*
X140627588Y-117782174D01*
X139975836Y-117791472D01*
X139337089Y-117808792D01*
X138719088Y-117834132D01*
X138129571Y-117867492D01*
X137743240Y-117895204D01*
X137611050Y-117906825D01*
X137443098Y-117923547D01*
X137245550Y-117944629D01*
X137024570Y-117969328D01*
X136786325Y-117996902D01*
X136536981Y-118026610D01*
X136282704Y-118057711D01*
X136029658Y-118089461D01*
X135784011Y-118121121D01*
X135551927Y-118151947D01*
X135339573Y-118181198D01*
X135202084Y-118200907D01*
X134443502Y-118318730D01*
X133685280Y-118450479D01*
X132920813Y-118597519D01*
X132143498Y-118761217D01*
X131346732Y-118942936D01*
X130523913Y-119144043D01*
X130037417Y-119268731D01*
X129838981Y-119320417D01*
X129677691Y-119362385D01*
X129549712Y-119395526D01*
X129451208Y-119420734D01*
X129378343Y-119438899D01*
X129327281Y-119450914D01*
X129294186Y-119457670D01*
X129275224Y-119460060D01*
X129266557Y-119458975D01*
X129264351Y-119455307D01*
X129264768Y-119449948D01*
X129264834Y-119448369D01*
X129283334Y-119427884D01*
X129335985Y-119391825D01*
X129418515Y-119342383D01*
X129526648Y-119281750D01*
X129656112Y-119212118D01*
X129802633Y-119135678D01*
X129961936Y-119054622D01*
X130129749Y-118971142D01*
X130301797Y-118887428D01*
X130473808Y-118805674D01*
X130641507Y-118728070D01*
X130800620Y-118656808D01*
X130852334Y-118634270D01*
X131512981Y-118363085D01*
X132211872Y-118104013D01*
X132946482Y-117857758D01*
X133714289Y-117625022D01*
X134512769Y-117406507D01*
X135339398Y-117202917D01*
X136191654Y-117014954D01*
X137067013Y-116843320D01*
X137659432Y-116738780D01*
X138190614Y-116649118D01*
X138274292Y-116362263D01*
X140367809Y-116362263D01*
X140370694Y-116374779D01*
X140415101Y-116379549D01*
X140500933Y-116376578D01*
X140628092Y-116365867D01*
X140779500Y-116349414D01*
X140923064Y-116334245D01*
X141104823Y-116317644D01*
X141320672Y-116299883D01*
X141566506Y-116281236D01*
X141838221Y-116261974D01*
X142131713Y-116242372D01*
X142442877Y-116222702D01*
X142767609Y-116203237D01*
X143101804Y-116184249D01*
X143441358Y-116166012D01*
X143782166Y-116148798D01*
X143838084Y-116146083D01*
X143986199Y-116140336D01*
X144171124Y-116135444D01*
X144387345Y-116131405D01*
X144629348Y-116128219D01*
X144891617Y-116125885D01*
X145168639Y-116124403D01*
X145454899Y-116123771D01*
X145744882Y-116123990D01*
X146033074Y-116125057D01*
X146313961Y-116126973D01*
X146582027Y-116129737D01*
X146831760Y-116133348D01*
X147057643Y-116137806D01*
X147254164Y-116143109D01*
X147351750Y-116146542D01*
X147547968Y-116155129D01*
X147768460Y-116166327D01*
X147998294Y-116179275D01*
X148222540Y-116193116D01*
X148426268Y-116206989D01*
X148508970Y-116213143D01*
X148662937Y-116224547D01*
X148806249Y-116234320D01*
X148932503Y-116242091D01*
X149035302Y-116247490D01*
X149108242Y-116250148D01*
X149143615Y-116249840D01*
X149213706Y-116243084D01*
X149097645Y-116130362D01*
X149065043Y-116100821D01*
X149002623Y-116046339D01*
X148913028Y-115969142D01*
X148798904Y-115871461D01*
X148662897Y-115755522D01*
X148507650Y-115623554D01*
X148335810Y-115477785D01*
X148150020Y-115320443D01*
X147952925Y-115153757D01*
X147747172Y-114979955D01*
X147535404Y-114801264D01*
X147320267Y-114619914D01*
X147104405Y-114438132D01*
X146890464Y-114258147D01*
X146681088Y-114082186D01*
X146478923Y-113912478D01*
X146286612Y-113751251D01*
X146106803Y-113600733D01*
X145942138Y-113463153D01*
X145795263Y-113340739D01*
X145668824Y-113235719D01*
X145565465Y-113150320D01*
X145487830Y-113086772D01*
X145438566Y-113047303D01*
X145431212Y-113041625D01*
X145360399Y-112990993D01*
X145298322Y-112952445D01*
X145255238Y-112932150D01*
X145246409Y-112930500D01*
X145233232Y-112935413D01*
X145205884Y-112950720D01*
X145163138Y-112977278D01*
X145103767Y-113015940D01*
X145026546Y-113067563D01*
X144930247Y-113133000D01*
X144813645Y-113213106D01*
X144675513Y-113308737D01*
X144514625Y-113420748D01*
X144329754Y-113549993D01*
X144119675Y-113697327D01*
X143883160Y-113863605D01*
X143618983Y-114049682D01*
X143325919Y-114256413D01*
X143002739Y-114484653D01*
X142648220Y-114735257D01*
X142261133Y-115009080D01*
X142028334Y-115173835D01*
X141732263Y-115383484D01*
X141469436Y-115569781D01*
X141238462Y-115733722D01*
X141037954Y-115876299D01*
X140866520Y-115998508D01*
X140722772Y-116101343D01*
X140605321Y-116185798D01*
X140512778Y-116252867D01*
X140443753Y-116303545D01*
X140396857Y-116338826D01*
X140370700Y-116359704D01*
X140367809Y-116362263D01*
X138274292Y-116362263D01*
X138515225Y-115536338D01*
X140335000Y-115536338D01*
X140338384Y-115542292D01*
X140350187Y-115539866D01*
X140372888Y-115527119D01*
X140408965Y-115502106D01*
X140460896Y-115462883D01*
X140531159Y-115407509D01*
X140622233Y-115334039D01*
X140736595Y-115240531D01*
X140876724Y-115125040D01*
X141045098Y-114985624D01*
X141178918Y-114874562D01*
X141311416Y-114764613D01*
X141471840Y-114631635D01*
X141655460Y-114479541D01*
X141857550Y-114312242D01*
X142073380Y-114133652D01*
X142298221Y-113947682D01*
X142527346Y-113758245D01*
X142756026Y-113569253D01*
X142979532Y-113384617D01*
X143076084Y-113304885D01*
X143275438Y-113140125D01*
X143466699Y-112981753D01*
X143647138Y-112832049D01*
X143814023Y-112693293D01*
X143964623Y-112567764D01*
X144096209Y-112457741D01*
X144206049Y-112365503D01*
X144291412Y-112293331D01*
X144349569Y-112243503D01*
X144377788Y-112218299D01*
X144377834Y-112218254D01*
X144451917Y-112145301D01*
X144443531Y-112137619D01*
X146489996Y-112137619D01*
X146719790Y-112339899D01*
X146812484Y-112420575D01*
X146927040Y-112518769D01*
X147060532Y-112632073D01*
X147210034Y-112758079D01*
X147372619Y-112894377D01*
X147545360Y-113038560D01*
X147725331Y-113188219D01*
X147909606Y-113340947D01*
X148095258Y-113494334D01*
X148279361Y-113645973D01*
X148458988Y-113793454D01*
X148631212Y-113934371D01*
X148793107Y-114066314D01*
X148941747Y-114186875D01*
X149074205Y-114293645D01*
X149187555Y-114384217D01*
X149278870Y-114456182D01*
X149345224Y-114507132D01*
X149383690Y-114534659D01*
X149391961Y-114538944D01*
X149394125Y-114519674D01*
X149392511Y-114468363D01*
X149387499Y-114395097D01*
X149385812Y-114375125D01*
X149380060Y-114316118D01*
X149370075Y-114221400D01*
X149356270Y-114094524D01*
X149339055Y-113939046D01*
X149324288Y-113807153D01*
X151301005Y-113807153D01*
X151304896Y-113834606D01*
X151312122Y-113834934D01*
X151317175Y-113806605D01*
X151313793Y-113794365D01*
X151304394Y-113786347D01*
X151301005Y-113807153D01*
X149324288Y-113807153D01*
X149318842Y-113758518D01*
X149296042Y-113556494D01*
X149271067Y-113336529D01*
X149244327Y-113102175D01*
X149216235Y-112856987D01*
X149187202Y-112604519D01*
X149157639Y-112348323D01*
X149127957Y-112091955D01*
X149098568Y-111838968D01*
X149069883Y-111592916D01*
X149042314Y-111357352D01*
X149016271Y-111135830D01*
X148992167Y-110931904D01*
X148970413Y-110749128D01*
X148951420Y-110591056D01*
X148935599Y-110461242D01*
X148923362Y-110363238D01*
X148915120Y-110300600D01*
X148911488Y-110277515D01*
X148896004Y-110217446D01*
X148703868Y-110364323D01*
X148605929Y-110439892D01*
X148482406Y-110536319D01*
X148337663Y-110650113D01*
X148176066Y-110777784D01*
X148001981Y-110915843D01*
X147819773Y-111060801D01*
X147633806Y-111209167D01*
X147448447Y-111357452D01*
X147268060Y-111502166D01*
X147097011Y-111639819D01*
X146939665Y-111766922D01*
X146800387Y-111879986D01*
X146683544Y-111975519D01*
X146593499Y-112050033D01*
X146561040Y-112077342D01*
X146489996Y-112137619D01*
X144443531Y-112137619D01*
X144367250Y-112067745D01*
X144334756Y-112037716D01*
X144274785Y-111982026D01*
X144190804Y-111903905D01*
X144086280Y-111806581D01*
X143964679Y-111693283D01*
X143829469Y-111567240D01*
X143684115Y-111431681D01*
X143541750Y-111298854D01*
X143329715Y-111101506D01*
X143125411Y-110912362D01*
X142931364Y-110733708D01*
X142750097Y-110567829D01*
X142584138Y-110417007D01*
X142436010Y-110283529D01*
X142308238Y-110169677D01*
X142203349Y-110077737D01*
X142123866Y-110009993D01*
X142072315Y-109968729D01*
X142067819Y-109965445D01*
X142012055Y-109925432D01*
X141989132Y-109983341D01*
X141977008Y-110018916D01*
X141954004Y-110091391D01*
X141920977Y-110197898D01*
X141878778Y-110335571D01*
X141828263Y-110501543D01*
X141770285Y-110692948D01*
X141705699Y-110906918D01*
X141635357Y-111140588D01*
X141560114Y-111391091D01*
X141480824Y-111655560D01*
X141398341Y-111931128D01*
X141313519Y-112214929D01*
X141227211Y-112504097D01*
X141140271Y-112795764D01*
X141053554Y-113087064D01*
X140967913Y-113375131D01*
X140884203Y-113657097D01*
X140803277Y-113930096D01*
X140725988Y-114191262D01*
X140653192Y-114437728D01*
X140585742Y-114666627D01*
X140524491Y-114875093D01*
X140470294Y-115060259D01*
X140424005Y-115219258D01*
X140386477Y-115349225D01*
X140358564Y-115447291D01*
X140341121Y-115510591D01*
X140335001Y-115536258D01*
X140335000Y-115536338D01*
X138515225Y-115536338D01*
X138524605Y-115504184D01*
X138630012Y-115142417D01*
X139467167Y-115142417D01*
X139477750Y-115153000D01*
X139488334Y-115142417D01*
X139477750Y-115131834D01*
X139467167Y-115142417D01*
X138630012Y-115142417D01*
X138650333Y-115072670D01*
X139490005Y-115072670D01*
X139496855Y-115065247D01*
X139514202Y-115024417D01*
X139539354Y-114956999D01*
X139566912Y-114877834D01*
X139590584Y-114808501D01*
X139626218Y-114704935D01*
X139671827Y-114572874D01*
X139725424Y-114418055D01*
X139785022Y-114246213D01*
X139848636Y-114063087D01*
X139914278Y-113874413D01*
X139933402Y-113819500D01*
X139971076Y-113711781D01*
X140020713Y-113570532D01*
X140081110Y-113399141D01*
X140151066Y-113200992D01*
X140229377Y-112979471D01*
X140314841Y-112737963D01*
X140406255Y-112479854D01*
X140502418Y-112208529D01*
X140602126Y-111927374D01*
X140704178Y-111639774D01*
X140807370Y-111349116D01*
X140910500Y-111058783D01*
X141012366Y-110772163D01*
X141111765Y-110492640D01*
X141207494Y-110223600D01*
X141298352Y-109968429D01*
X141383136Y-109730511D01*
X141460643Y-109513233D01*
X141464652Y-109502009D01*
X143585471Y-109502009D01*
X143585848Y-109504355D01*
X143607256Y-109526002D01*
X143658117Y-109571223D01*
X143734868Y-109637098D01*
X143833944Y-109720708D01*
X143951780Y-109819133D01*
X144084811Y-109929454D01*
X144229473Y-110048751D01*
X144382201Y-110174104D01*
X144539431Y-110302594D01*
X144697598Y-110431302D01*
X144853137Y-110557308D01*
X145002484Y-110677692D01*
X145142074Y-110789536D01*
X145268342Y-110889918D01*
X145377724Y-110975921D01*
X145463842Y-111042479D01*
X145607933Y-111152425D01*
X145728425Y-111070501D01*
X145776208Y-111036592D01*
X145852093Y-110980983D01*
X145950610Y-110907761D01*
X146066289Y-110821016D01*
X146193662Y-110724837D01*
X146327259Y-110623312D01*
X146358363Y-110599580D01*
X146517905Y-110477432D01*
X146699622Y-110337758D01*
X146892377Y-110189153D01*
X147085035Y-110040214D01*
X147266456Y-109899535D01*
X147397152Y-109797834D01*
X147926493Y-109385084D01*
X147755538Y-109378008D01*
X147694270Y-109376923D01*
X147594683Y-109376981D01*
X147460777Y-109378088D01*
X147296550Y-109380153D01*
X147105999Y-109383081D01*
X146893121Y-109386780D01*
X146661916Y-109391157D01*
X146416380Y-109396118D01*
X146160511Y-109401570D01*
X145898309Y-109407421D01*
X145633769Y-109413577D01*
X145370890Y-109419944D01*
X145113671Y-109426431D01*
X144866108Y-109432944D01*
X144632200Y-109439389D01*
X144415945Y-109445674D01*
X144221340Y-109451706D01*
X144052383Y-109457391D01*
X143913072Y-109462636D01*
X143807406Y-109467349D01*
X143739381Y-109471436D01*
X143737648Y-109471573D01*
X143660718Y-109480153D01*
X143607157Y-109490911D01*
X143585471Y-109502009D01*
X141464652Y-109502009D01*
X141529670Y-109319980D01*
X141589016Y-109154137D01*
X141637478Y-109019091D01*
X141673853Y-108918226D01*
X141691311Y-108870233D01*
X141711888Y-108805400D01*
X141721751Y-108756180D01*
X141720454Y-108737942D01*
X141694125Y-108726979D01*
X141639509Y-108719863D01*
X141594680Y-108718334D01*
X141539948Y-108719986D01*
X141495276Y-108727997D01*
X141457403Y-108746947D01*
X141423067Y-108781416D01*
X141389007Y-108835984D01*
X141351963Y-108915232D01*
X141308673Y-109023740D01*
X141255875Y-109166088D01*
X141234998Y-109223509D01*
X141109359Y-109577090D01*
X140976036Y-109965793D01*
X140836950Y-110383511D01*
X140694018Y-110824136D01*
X140549160Y-111281562D01*
X140404294Y-111749680D01*
X140261341Y-112222382D01*
X140122218Y-112693562D01*
X139988845Y-113157112D01*
X139902926Y-113463012D01*
X139859682Y-113620183D01*
X139813833Y-113789626D01*
X139766644Y-113966410D01*
X139719381Y-114145602D01*
X139673308Y-114322269D01*
X139629691Y-114491478D01*
X139589796Y-114648297D01*
X139554887Y-114787793D01*
X139526230Y-114905033D01*
X139505091Y-114995085D01*
X139492735Y-115053015D01*
X139490005Y-115072670D01*
X138650333Y-115072670D01*
X138711494Y-114862763D01*
X138896540Y-114226181D01*
X139079132Y-113596577D01*
X139258659Y-112976090D01*
X139434512Y-112366858D01*
X139606081Y-111771020D01*
X139772754Y-111190715D01*
X139933922Y-110628082D01*
X140088975Y-110085259D01*
X140237302Y-109564384D01*
X140378292Y-109067598D01*
X140511337Y-108597038D01*
X140612393Y-108238073D01*
X142479660Y-108238073D01*
X142480784Y-108242856D01*
X142484530Y-108250826D01*
X142491065Y-108257581D01*
X142503181Y-108263045D01*
X142523671Y-108267145D01*
X142555328Y-108269806D01*
X142600943Y-108270954D01*
X142663309Y-108270514D01*
X142745219Y-108268412D01*
X142849466Y-108264574D01*
X142978841Y-108258925D01*
X143136137Y-108251391D01*
X143324147Y-108241897D01*
X143545663Y-108230369D01*
X143803478Y-108216734D01*
X144100384Y-108200915D01*
X144145000Y-108198534D01*
X144692857Y-108169250D01*
X145199513Y-108142064D01*
X145666044Y-108116914D01*
X146093528Y-108093740D01*
X146483040Y-108072480D01*
X146835659Y-108053071D01*
X147152460Y-108035453D01*
X147434520Y-108019564D01*
X147682916Y-108005343D01*
X147898726Y-107992727D01*
X148083025Y-107981655D01*
X148236891Y-107972065D01*
X148361401Y-107963896D01*
X148457630Y-107957087D01*
X148526657Y-107951575D01*
X148569558Y-107947299D01*
X148586785Y-107944436D01*
X148593218Y-107942322D01*
X148597770Y-107939294D01*
X148598744Y-107933500D01*
X148594440Y-107923088D01*
X148583159Y-107906207D01*
X148563204Y-107881002D01*
X148532875Y-107845624D01*
X148490473Y-107798219D01*
X148434301Y-107736936D01*
X148362659Y-107659923D01*
X148273848Y-107565327D01*
X148166171Y-107451297D01*
X148037927Y-107315980D01*
X147887419Y-107157525D01*
X147712948Y-106974079D01*
X147512815Y-106763790D01*
X147285321Y-106524806D01*
X147268669Y-106507313D01*
X147082692Y-106311871D01*
X146904653Y-106124633D01*
X146736784Y-105947952D01*
X146581313Y-105784182D01*
X146440471Y-105635677D01*
X146316488Y-105504790D01*
X146211595Y-105393875D01*
X146128021Y-105305285D01*
X146067997Y-105241374D01*
X146033753Y-105204497D01*
X146026789Y-105196681D01*
X146015249Y-105184928D01*
X146001031Y-105179840D01*
X145979979Y-105183950D01*
X145947934Y-105199795D01*
X145900739Y-105229908D01*
X145834237Y-105276824D01*
X145744269Y-105343078D01*
X145626678Y-105431204D01*
X145561122Y-105480571D01*
X145379786Y-105617345D01*
X145186049Y-105763721D01*
X144982557Y-105917683D01*
X144771958Y-106077214D01*
X144556898Y-106240299D01*
X144340024Y-106404920D01*
X144123983Y-106569063D01*
X143911423Y-106730710D01*
X143704989Y-106887845D01*
X143507329Y-107038453D01*
X143321089Y-107180517D01*
X143148917Y-107312020D01*
X142993459Y-107430947D01*
X142857362Y-107535282D01*
X142743274Y-107623007D01*
X142653840Y-107692108D01*
X142591709Y-107740567D01*
X142559526Y-107766369D01*
X142555541Y-107770015D01*
X142543116Y-107804903D01*
X142528220Y-107869418D01*
X142512653Y-107952178D01*
X142498214Y-108041804D01*
X142486703Y-108126915D01*
X142479919Y-108196131D01*
X142479660Y-108238073D01*
X140612393Y-108238073D01*
X140635825Y-108154842D01*
X140751146Y-107743151D01*
X140856690Y-107364102D01*
X140946629Y-107038713D01*
X142812295Y-107038713D01*
X142812547Y-107043630D01*
X142814548Y-107045588D01*
X142820886Y-107041729D01*
X142834146Y-107029196D01*
X142856916Y-107005134D01*
X142891783Y-106966684D01*
X142941334Y-106910990D01*
X143008156Y-106835195D01*
X143094835Y-106736442D01*
X143203958Y-106611874D01*
X143338114Y-106458635D01*
X143354310Y-106440134D01*
X143451810Y-106328529D01*
X143572141Y-106190412D01*
X143710488Y-106031328D01*
X143862038Y-105856826D01*
X144021975Y-105672451D01*
X144185484Y-105483751D01*
X144347752Y-105296272D01*
X144490986Y-105130584D01*
X145000736Y-104540537D01*
X146896769Y-104540537D01*
X147075870Y-104758067D01*
X147144391Y-104839629D01*
X147230139Y-104939066D01*
X147329676Y-105052614D01*
X147439566Y-105176510D01*
X147556373Y-105306990D01*
X147676661Y-105440292D01*
X147796993Y-105572651D01*
X147913933Y-105700306D01*
X148024044Y-105819492D01*
X148123890Y-105926447D01*
X148210035Y-106017406D01*
X148279042Y-106088608D01*
X148327474Y-106136288D01*
X148351897Y-106156683D01*
X148353448Y-106157167D01*
X148356087Y-106137214D01*
X148356703Y-106082108D01*
X148355382Y-105998976D01*
X148352210Y-105894945D01*
X148349383Y-105823792D01*
X148343625Y-105706514D01*
X148335472Y-105564031D01*
X148325275Y-105400875D01*
X148313384Y-105221578D01*
X148300149Y-105030670D01*
X148285921Y-104832684D01*
X148271051Y-104632152D01*
X148255889Y-104433604D01*
X148240785Y-104241572D01*
X148226091Y-104060588D01*
X148212157Y-103895183D01*
X148199332Y-103749888D01*
X148187969Y-103629236D01*
X148178417Y-103537758D01*
X148171026Y-103479985D01*
X148166577Y-103460612D01*
X148144016Y-103466550D01*
X148094602Y-103497474D01*
X148022984Y-103550091D01*
X147933812Y-103621108D01*
X147897929Y-103650862D01*
X147796318Y-103736672D01*
X147682650Y-103833883D01*
X147561940Y-103938084D01*
X147439207Y-104044863D01*
X147319469Y-104149809D01*
X147207742Y-104248511D01*
X147109043Y-104336557D01*
X147028391Y-104409537D01*
X146970802Y-104463040D01*
X146944343Y-104489246D01*
X146896769Y-104540537D01*
X145000736Y-104540537D01*
X145222434Y-104283917D01*
X145017092Y-104075401D01*
X144936080Y-103994092D01*
X144839867Y-103899081D01*
X144732518Y-103794237D01*
X144618098Y-103683426D01*
X144500672Y-103570515D01*
X144384307Y-103459372D01*
X144273068Y-103353864D01*
X144171019Y-103257857D01*
X144082227Y-103175220D01*
X144010757Y-103109820D01*
X143960674Y-103065523D01*
X143936044Y-103046197D01*
X143934576Y-103045667D01*
X143929346Y-103049400D01*
X143922105Y-103062156D01*
X143912174Y-103086272D01*
X143898875Y-103124086D01*
X143881528Y-103177933D01*
X143859455Y-103250150D01*
X143831978Y-103343075D01*
X143798417Y-103459043D01*
X143758094Y-103600392D01*
X143710331Y-103769458D01*
X143654448Y-103968578D01*
X143589767Y-104200089D01*
X143515610Y-104466327D01*
X143431297Y-104769629D01*
X143375148Y-104971834D01*
X143278193Y-105321254D01*
X143192118Y-105631844D01*
X143116394Y-105905541D01*
X143050494Y-106144283D01*
X142993890Y-106350006D01*
X142946056Y-106524647D01*
X142906463Y-106670145D01*
X142874583Y-106788436D01*
X142849890Y-106881457D01*
X142831855Y-106951147D01*
X142819952Y-106999441D01*
X142813652Y-107028278D01*
X142812295Y-107038713D01*
X140946629Y-107038713D01*
X140951847Y-107019835D01*
X141036007Y-106712487D01*
X141088980Y-106517000D01*
X141217424Y-106040962D01*
X141335964Y-105602634D01*
X141445481Y-105198787D01*
X141546858Y-104826195D01*
X141640974Y-104481631D01*
X141728713Y-104161867D01*
X141810955Y-103863677D01*
X141888582Y-103583832D01*
X141962476Y-103319107D01*
X141964957Y-103310250D01*
X142046430Y-103019050D01*
X142118911Y-102759116D01*
X142184563Y-102522503D01*
X142245549Y-102301265D01*
X142304034Y-102087455D01*
X142315537Y-102045056D01*
X144642417Y-102045056D01*
X144822158Y-102233153D01*
X144881202Y-102294597D01*
X144964725Y-102381026D01*
X145067606Y-102487165D01*
X145184721Y-102607736D01*
X145310947Y-102737464D01*
X145441161Y-102871072D01*
X145516039Y-102947797D01*
X145652809Y-103087777D01*
X145763159Y-103200199D01*
X145850234Y-103287806D01*
X145917178Y-103353339D01*
X145967135Y-103399541D01*
X146003251Y-103429153D01*
X146028669Y-103444918D01*
X146046534Y-103449578D01*
X146059990Y-103445874D01*
X146072182Y-103436549D01*
X146074324Y-103434630D01*
X146099231Y-103410004D01*
X146149403Y-103358574D01*
X146221033Y-103284309D01*
X146310312Y-103191175D01*
X146413432Y-103083142D01*
X146526587Y-102964177D01*
X146599879Y-102886917D01*
X146721439Y-102758326D01*
X146838702Y-102633689D01*
X146947143Y-102517860D01*
X147042234Y-102415695D01*
X147119450Y-102332049D01*
X147174264Y-102271778D01*
X147191862Y-102251917D01*
X147302436Y-102124917D01*
X147200093Y-102111287D01*
X147155437Y-102107791D01*
X147074005Y-102103917D01*
X146961353Y-102099833D01*
X146823035Y-102095705D01*
X146664607Y-102091701D01*
X146491622Y-102087988D01*
X146325167Y-102084984D01*
X146122981Y-102081481D01*
X145912127Y-102077493D01*
X145701803Y-102073218D01*
X145501207Y-102068853D01*
X145319537Y-102064594D01*
X145165991Y-102060639D01*
X145097500Y-102058683D01*
X144642417Y-102045056D01*
X142315537Y-102045056D01*
X142362182Y-101873128D01*
X142422156Y-101650338D01*
X142486121Y-101411138D01*
X142556240Y-101147582D01*
X142587203Y-101030790D01*
X144328060Y-101030790D01*
X144335500Y-101033925D01*
X144365752Y-101033015D01*
X144431205Y-101030281D01*
X144524780Y-101026046D01*
X144639398Y-101020629D01*
X144767982Y-101014354D01*
X144780000Y-101013758D01*
X144932350Y-101005814D01*
X145105150Y-100996154D01*
X145294010Y-100985076D01*
X145494541Y-100972875D01*
X145702354Y-100959850D01*
X145913060Y-100946297D01*
X146122268Y-100932514D01*
X146325591Y-100918798D01*
X146518638Y-100905445D01*
X146697020Y-100892753D01*
X146856349Y-100881020D01*
X146992234Y-100870542D01*
X147100286Y-100861616D01*
X147176117Y-100854539D01*
X147215336Y-100849609D01*
X147219208Y-100848635D01*
X147227861Y-100839036D01*
X147224917Y-100818636D01*
X147207960Y-100783464D01*
X147174571Y-100729554D01*
X147122334Y-100652935D01*
X147048831Y-100549640D01*
X146975211Y-100448039D01*
X146860990Y-100292279D01*
X146745186Y-100136457D01*
X146630777Y-99984403D01*
X146520740Y-99839947D01*
X146418053Y-99706921D01*
X146325693Y-99589154D01*
X146246637Y-99490476D01*
X146183862Y-99414719D01*
X146140347Y-99365712D01*
X146119742Y-99347488D01*
X146112568Y-99345342D01*
X146103979Y-99345871D01*
X146091654Y-99351192D01*
X146073270Y-99363424D01*
X146046507Y-99384685D01*
X146009043Y-99417092D01*
X145958557Y-99462763D01*
X145892728Y-99523816D01*
X145809234Y-99602369D01*
X145705755Y-99700540D01*
X145579968Y-99820445D01*
X145429552Y-99964205D01*
X145252187Y-100133935D01*
X145139834Y-100241492D01*
X144994845Y-100380206D01*
X144856945Y-100511963D01*
X144729633Y-100633432D01*
X144616413Y-100741279D01*
X144520786Y-100832170D01*
X144446253Y-100902772D01*
X144396317Y-100949752D01*
X144377834Y-100966832D01*
X144337709Y-101008063D01*
X144328060Y-101030790D01*
X142587203Y-101030790D01*
X142634677Y-100851725D01*
X142642238Y-100823167D01*
X142795369Y-100245850D01*
X142864693Y-99985615D01*
X144173831Y-99985615D01*
X144185383Y-99988289D01*
X144204271Y-99968662D01*
X144245492Y-99920920D01*
X144304927Y-99849999D01*
X144378456Y-99760833D01*
X144461961Y-99658360D01*
X144500415Y-99610807D01*
X144588381Y-99500802D01*
X144685762Y-99377346D01*
X144789382Y-99244625D01*
X144896059Y-99106826D01*
X145002617Y-98968138D01*
X145105874Y-98832746D01*
X145202654Y-98704838D01*
X145282996Y-98597647D01*
X146809438Y-98597647D01*
X147248245Y-99228865D01*
X147410236Y-99461243D01*
X147549207Y-99659200D01*
X147665701Y-99823485D01*
X147760262Y-99954845D01*
X147833433Y-100054031D01*
X147885756Y-100121790D01*
X147917775Y-100158871D01*
X147928729Y-100167000D01*
X147932554Y-100148073D01*
X147930713Y-100099414D01*
X147926393Y-100055875D01*
X147883297Y-99695521D01*
X147844794Y-99374948D01*
X147810582Y-99091891D01*
X147780358Y-98844083D01*
X147753821Y-98629255D01*
X147730668Y-98445142D01*
X147710596Y-98289476D01*
X147693305Y-98159990D01*
X147678490Y-98054418D01*
X147665852Y-97970491D01*
X147655086Y-97905944D01*
X147645891Y-97858509D01*
X147637965Y-97825919D01*
X147631005Y-97805907D01*
X147625229Y-97796688D01*
X147611589Y-97788360D01*
X147593268Y-97790571D01*
X147566164Y-97806740D01*
X147526176Y-97840284D01*
X147469204Y-97894621D01*
X147391148Y-97973169D01*
X147295498Y-98071500D01*
X147197398Y-98173453D01*
X147102750Y-98272927D01*
X147018056Y-98363007D01*
X146949817Y-98436776D01*
X146904535Y-98487319D01*
X146903920Y-98488032D01*
X146809438Y-98597647D01*
X145282996Y-98597647D01*
X145289776Y-98588602D01*
X145364062Y-98488224D01*
X145422333Y-98407891D01*
X145461410Y-98351791D01*
X145478114Y-98324111D01*
X145478500Y-98322516D01*
X145466162Y-98291870D01*
X145431921Y-98234557D01*
X145379934Y-98156126D01*
X145314359Y-98062126D01*
X145239355Y-97958104D01*
X145159079Y-97849610D01*
X145077691Y-97742191D01*
X144999347Y-97641398D01*
X144928206Y-97552777D01*
X144868426Y-97481878D01*
X144824166Y-97434249D01*
X144799582Y-97415438D01*
X144798664Y-97415344D01*
X144786557Y-97433976D01*
X144768387Y-97482366D01*
X144751815Y-97537042D01*
X144738678Y-97587351D01*
X144717070Y-97673630D01*
X144688246Y-97790650D01*
X144653463Y-97933180D01*
X144613977Y-98095991D01*
X144571043Y-98273851D01*
X144525918Y-98461531D01*
X144479856Y-98653800D01*
X144434114Y-98845429D01*
X144389948Y-99031188D01*
X144348614Y-99205845D01*
X144311367Y-99364171D01*
X144279463Y-99500936D01*
X144260094Y-99584917D01*
X144233945Y-99699042D01*
X144210398Y-99801741D01*
X144191422Y-99884434D01*
X144178984Y-99938544D01*
X144175921Y-99951815D01*
X144173831Y-99985615D01*
X142864693Y-99985615D01*
X142938792Y-99707458D01*
X143073090Y-99205852D01*
X143198846Y-98738891D01*
X143316641Y-98304438D01*
X143427059Y-97900353D01*
X143530682Y-97524497D01*
X143628093Y-97174731D01*
X143677026Y-97001023D01*
X145631737Y-97001023D01*
X145636453Y-97025733D01*
X145653730Y-97057943D01*
X145660987Y-97069665D01*
X145697879Y-97125038D01*
X145749152Y-97197335D01*
X145809562Y-97279692D01*
X145873865Y-97365248D01*
X145936818Y-97447138D01*
X145993177Y-97518501D01*
X146037700Y-97572475D01*
X146065143Y-97602195D01*
X146070637Y-97605834D01*
X146090934Y-97592002D01*
X146137059Y-97553401D01*
X146204101Y-97494369D01*
X146287149Y-97419246D01*
X146381294Y-97332370D01*
X146402781Y-97312322D01*
X146501987Y-97219129D01*
X146593749Y-97132091D01*
X146672354Y-97056692D01*
X146732087Y-96998418D01*
X146767235Y-96962754D01*
X146769667Y-96960102D01*
X146822584Y-96901395D01*
X146694641Y-96914168D01*
X146634737Y-96918694D01*
X146541040Y-96923984D01*
X146422074Y-96929640D01*
X146286362Y-96935267D01*
X146142429Y-96940464D01*
X146105307Y-96941677D01*
X145945378Y-96947105D01*
X145823517Y-96952686D01*
X145735474Y-96959644D01*
X145676997Y-96969203D01*
X145643835Y-96982587D01*
X145631737Y-97001023D01*
X143677026Y-97001023D01*
X143719875Y-96848916D01*
X143806610Y-96544913D01*
X143824135Y-96484000D01*
X143918717Y-96155917D01*
X144610667Y-96155917D01*
X144621250Y-96166500D01*
X144631834Y-96155917D01*
X144621250Y-96145334D01*
X144610667Y-96155917D01*
X143918717Y-96155917D01*
X143936232Y-96095161D01*
X144638105Y-96095161D01*
X144646190Y-96078040D01*
X144664779Y-96025728D01*
X144692123Y-95943558D01*
X144692238Y-95943199D01*
X145817167Y-95943199D01*
X145837949Y-95949655D01*
X145898967Y-95953145D01*
X145998232Y-95953693D01*
X146133750Y-95951322D01*
X146303533Y-95946057D01*
X146505589Y-95937922D01*
X146598779Y-95933694D01*
X146730113Y-95926825D01*
X146846988Y-95919321D01*
X146942822Y-95911718D01*
X147011037Y-95904551D01*
X147045051Y-95898358D01*
X147047352Y-95897121D01*
X147043099Y-95874293D01*
X147022538Y-95818829D01*
X146987974Y-95736116D01*
X146941715Y-95631542D01*
X146886066Y-95510491D01*
X146840967Y-95415084D01*
X146775966Y-95278846D01*
X146714419Y-95149372D01*
X146659558Y-95033497D01*
X146614616Y-94938058D01*
X146582825Y-94869891D01*
X146571482Y-94845094D01*
X146524594Y-94740771D01*
X146417482Y-94908594D01*
X146352178Y-95012556D01*
X146279721Y-95130687D01*
X146203243Y-95257591D01*
X146125874Y-95387870D01*
X146050746Y-95516130D01*
X145980990Y-95636974D01*
X145919736Y-95745005D01*
X145870116Y-95834828D01*
X145835261Y-95901046D01*
X145818303Y-95938262D01*
X145817167Y-95943199D01*
X144692238Y-95943199D01*
X144726475Y-95836862D01*
X144766087Y-95710971D01*
X144800297Y-95600327D01*
X144882480Y-95334150D01*
X144920008Y-95214000D01*
X145551257Y-95214000D01*
X145551928Y-95227242D01*
X145564359Y-95216548D01*
X145589666Y-95180026D01*
X145628967Y-95115783D01*
X145683381Y-95021926D01*
X145754024Y-94896564D01*
X145842016Y-94737804D01*
X145948473Y-94543754D01*
X145964972Y-94513556D01*
X146034680Y-94385061D01*
X146097095Y-94268362D01*
X146149470Y-94168729D01*
X146189060Y-94091433D01*
X146213117Y-94041744D01*
X146219334Y-94025451D01*
X146211918Y-93998585D01*
X146191560Y-93940190D01*
X146188505Y-93931951D01*
X146939000Y-93931951D01*
X146945318Y-93968198D01*
X146962950Y-94035337D01*
X146989912Y-94127451D01*
X147024223Y-94238618D01*
X147063900Y-94362920D01*
X147106960Y-94494435D01*
X147151419Y-94627246D01*
X147195296Y-94755431D01*
X147236608Y-94873071D01*
X147273372Y-94974246D01*
X147303605Y-95053036D01*
X147325324Y-95103522D01*
X147336547Y-95119783D01*
X147336784Y-95119606D01*
X147338207Y-95096800D01*
X147336884Y-95038980D01*
X147333117Y-94953355D01*
X147327205Y-94847137D01*
X147322046Y-94765814D01*
X147312949Y-94624387D01*
X147302634Y-94456667D01*
X147292059Y-94278638D01*
X147282178Y-94106283D01*
X147276680Y-94006713D01*
X147268839Y-93870787D01*
X147260544Y-93742214D01*
X147252427Y-93629745D01*
X147245119Y-93542130D01*
X147239291Y-93488394D01*
X147224303Y-93383612D01*
X147081651Y-93641629D01*
X147029744Y-93737743D01*
X146986281Y-93822462D01*
X146955056Y-93888065D01*
X146939865Y-93926831D01*
X146939000Y-93931951D01*
X146188505Y-93931951D01*
X146161090Y-93858022D01*
X146123338Y-93759835D01*
X146109605Y-93724833D01*
X145999876Y-93446584D01*
X145961266Y-93573584D01*
X145948666Y-93618841D01*
X145927497Y-93699190D01*
X145899258Y-93808639D01*
X145865445Y-93941199D01*
X145827557Y-94090878D01*
X145787090Y-94251685D01*
X145745542Y-94417631D01*
X145704409Y-94582723D01*
X145665190Y-94740973D01*
X145629382Y-94886388D01*
X145598482Y-95012978D01*
X145573987Y-95114753D01*
X145557395Y-95185722D01*
X145551257Y-95214000D01*
X144920008Y-95214000D01*
X144969606Y-95055207D01*
X145062503Y-94760956D01*
X145161996Y-94448854D01*
X145268910Y-94116360D01*
X145384071Y-93760932D01*
X145508305Y-93380026D01*
X145642438Y-92971102D01*
X145787295Y-92531616D01*
X145817678Y-92439810D01*
X146425263Y-92439810D01*
X146433293Y-92501379D01*
X146456085Y-92569392D01*
X146495992Y-92654191D01*
X146548375Y-92753206D01*
X146624627Y-92890302D01*
X146686957Y-92994001D01*
X146734347Y-93062744D01*
X146765780Y-93094970D01*
X146772835Y-93097334D01*
X146790910Y-93080631D01*
X146826823Y-93035008D01*
X146875580Y-92967192D01*
X146932185Y-92883910D01*
X146939356Y-92873064D01*
X146995594Y-92785087D01*
X147041986Y-92707468D01*
X147073993Y-92648173D01*
X147087073Y-92615165D01*
X147087167Y-92613772D01*
X147085728Y-92581245D01*
X147081674Y-92512236D01*
X147075398Y-92412490D01*
X147067293Y-92287752D01*
X147057753Y-92143766D01*
X147047171Y-91986278D01*
X147035940Y-91821032D01*
X147024453Y-91653773D01*
X147013104Y-91490245D01*
X147002286Y-91336193D01*
X146992391Y-91197362D01*
X146983815Y-91079497D01*
X146976949Y-90988343D01*
X146972186Y-90929643D01*
X146971023Y-90917167D01*
X146961274Y-90825652D01*
X146950371Y-90730005D01*
X146946138Y-90694917D01*
X146933040Y-90589084D01*
X146892538Y-90705500D01*
X146872033Y-90768655D01*
X146842576Y-90865168D01*
X146805965Y-90988669D01*
X146763998Y-91132787D01*
X146718473Y-91291152D01*
X146671186Y-91457394D01*
X146623937Y-91625143D01*
X146578523Y-91788027D01*
X146536741Y-91939677D01*
X146500389Y-92073722D01*
X146471265Y-92183793D01*
X146451166Y-92263517D01*
X146444084Y-92294633D01*
X146429645Y-92374342D01*
X146425263Y-92439810D01*
X145817678Y-92439810D01*
X145943702Y-92059026D01*
X146112485Y-91550791D01*
X146242396Y-91160584D01*
X146369428Y-90779568D01*
X146483878Y-90436772D01*
X146586445Y-90130217D01*
X146677828Y-89857928D01*
X146758728Y-89617926D01*
X146829842Y-89408235D01*
X146891870Y-89226877D01*
X146945511Y-89071877D01*
X146991465Y-88941256D01*
X147030430Y-88833037D01*
X147063107Y-88745244D01*
X147090193Y-88675899D01*
X147112388Y-88623025D01*
X147130392Y-88584646D01*
X147144904Y-88558784D01*
X147156622Y-88543462D01*
X147166247Y-88536704D01*
X147170625Y-88535917D01*
X147177201Y-88539805D01*
X147184801Y-88553041D01*
X147193896Y-88577978D01*
X147204956Y-88616972D01*
X147218453Y-88672377D01*
X147234857Y-88746550D01*
X147254639Y-88841843D01*
X147278271Y-88960613D01*
X147306222Y-89105215D01*
X147338964Y-89278003D01*
X147376967Y-89481331D01*
X147420703Y-89717556D01*
X147470642Y-89989032D01*
X147527256Y-90298114D01*
X147572686Y-90546750D01*
X147623971Y-90829167D01*
X147671391Y-91094014D01*
X147715484Y-91345019D01*
X147756786Y-91585915D01*
X147795831Y-91820431D01*
X147833157Y-92052298D01*
X147869300Y-92285246D01*
X147904795Y-92523007D01*
X147940179Y-92769309D01*
X147975987Y-93027884D01*
X148012755Y-93302463D01*
X148051021Y-93596775D01*
X148091319Y-93914552D01*
X148134185Y-94259523D01*
X148180157Y-94635419D01*
X148229769Y-95045971D01*
X148282873Y-95489167D01*
X148327517Y-95861767D01*
X148369246Y-96207094D01*
X148408642Y-96529335D01*
X148446290Y-96832677D01*
X148482774Y-97121306D01*
X148518678Y-97399411D01*
X148554586Y-97671177D01*
X148591081Y-97940793D01*
X148628748Y-98212444D01*
X148668171Y-98490318D01*
X148709933Y-98778602D01*
X148754619Y-99081483D01*
X148802813Y-99403149D01*
X148855098Y-99747785D01*
X148912059Y-100119579D01*
X148974279Y-100522718D01*
X149042342Y-100961389D01*
X149078471Y-101193584D01*
X149203680Y-101996025D01*
X149323187Y-102758418D01*
X149437313Y-103482620D01*
X149546379Y-104170484D01*
X149650706Y-104823867D01*
X149750616Y-105444623D01*
X149846428Y-106034608D01*
X149938465Y-106595678D01*
X150027048Y-107129686D01*
X150112497Y-107638489D01*
X150195133Y-108123942D01*
X150275279Y-108587899D01*
X150353254Y-109032217D01*
X150429380Y-109458751D01*
X150503977Y-109869355D01*
X150577368Y-110265885D01*
X150649873Y-110650196D01*
X150721813Y-111024144D01*
X150793509Y-111389583D01*
X150865282Y-111748369D01*
X150937454Y-112102357D01*
X151010345Y-112453403D01*
X151084277Y-112803362D01*
X151102375Y-112888167D01*
X151139747Y-113063188D01*
X151174683Y-113227268D01*
X151206099Y-113375277D01*
X151232908Y-113502083D01*
X151254027Y-113602556D01*
X151268370Y-113671565D01*
X151274691Y-113703084D01*
X151284404Y-113737002D01*
X151292842Y-113736380D01*
X151293673Y-113733241D01*
X151291785Y-113706552D01*
X151283671Y-113642035D01*
X151269923Y-113543642D01*
X151251133Y-113415324D01*
X151227894Y-113261035D01*
X151200797Y-113084726D01*
X151170433Y-112890350D01*
X151137395Y-112681859D01*
X151119339Y-112569074D01*
X150869875Y-111007538D01*
X150629728Y-109486423D01*
X150398775Y-108004883D01*
X150176891Y-106562072D01*
X149963954Y-105157143D01*
X149759839Y-103789251D01*
X149564423Y-102457549D01*
X149377583Y-101161192D01*
X149199195Y-99899332D01*
X149029136Y-98671124D01*
X148867282Y-97475721D01*
X148713509Y-96312278D01*
X148567694Y-95179949D01*
X148485341Y-94526084D01*
X148394122Y-93787238D01*
X148310090Y-93089161D01*
X148233156Y-92430918D01*
X148163226Y-91811576D01*
X148100211Y-91230200D01*
X148044017Y-90685857D01*
X147994554Y-90177612D01*
X147951731Y-89704531D01*
X147915455Y-89265680D01*
X147885634Y-88860125D01*
X147862179Y-88486932D01*
X147844996Y-88145167D01*
X147835878Y-87899460D01*
X147821569Y-87432337D01*
X147533743Y-87387010D01*
X147415782Y-87368824D01*
X147301285Y-87351863D01*
X147202580Y-87337908D01*
X147131995Y-87328742D01*
X147126533Y-87328109D01*
X147007149Y-87314537D01*
X146963761Y-87430502D01*
X146930988Y-87523587D01*
X146888123Y-87654116D01*
X146836154Y-87818675D01*
X146776069Y-88013851D01*
X146708857Y-88236230D01*
X146635507Y-88482398D01*
X146557006Y-88748942D01*
X146474344Y-89032448D01*
X146388508Y-89329502D01*
X146300488Y-89636692D01*
X146211271Y-89950603D01*
X146121846Y-90267821D01*
X146033202Y-90584934D01*
X145946327Y-90898528D01*
X145862209Y-91205188D01*
X145781838Y-91501502D01*
X145741956Y-91649977D01*
X145683683Y-91869168D01*
X145621280Y-92106552D01*
X145555491Y-92359137D01*
X145487058Y-92623933D01*
X145416725Y-92897947D01*
X145345233Y-93178188D01*
X145273327Y-93461665D01*
X145201748Y-93745387D01*
X145131240Y-94026361D01*
X145062545Y-94301597D01*
X144996407Y-94568103D01*
X144933568Y-94822888D01*
X144874770Y-95062960D01*
X144820758Y-95285328D01*
X144772273Y-95487000D01*
X144730059Y-95664985D01*
X144694858Y-95816292D01*
X144667413Y-95937928D01*
X144648468Y-96026904D01*
X144638764Y-96080226D01*
X144638105Y-96095161D01*
X143936232Y-96095161D01*
X143981713Y-95937401D01*
X144128368Y-95429320D01*
X144264748Y-94957553D01*
X144391497Y-94519893D01*
X144509261Y-94114138D01*
X144618686Y-93738083D01*
X144720417Y-93389522D01*
X144815099Y-93066252D01*
X144903379Y-92766068D01*
X144985902Y-92486765D01*
X145063313Y-92226138D01*
X145136258Y-91981984D01*
X145205383Y-91752098D01*
X145271334Y-91534274D01*
X145329352Y-91343966D01*
X145432658Y-90999480D01*
X145544066Y-90615092D01*
X145663152Y-90192364D01*
X145789492Y-89732862D01*
X145922662Y-89238147D01*
X146062237Y-88709784D01*
X146207794Y-88149335D01*
X146358908Y-87558365D01*
X146393467Y-87421996D01*
X146482512Y-87070075D01*
X146415374Y-86786996D01*
X146365309Y-86558639D01*
X146331289Y-86360662D01*
X146312305Y-86184698D01*
X146307349Y-86022380D01*
X146311070Y-85921834D01*
X146330517Y-85752310D01*
X147056183Y-85752310D01*
X147068706Y-85885669D01*
X147074244Y-85906337D01*
X147128699Y-86027890D01*
X147210594Y-86126730D01*
X147312781Y-86199904D01*
X147428110Y-86244460D01*
X147549433Y-86257444D01*
X147669601Y-86235905D01*
X147762173Y-86190469D01*
X147851884Y-86109650D01*
X147922153Y-86004585D01*
X147965384Y-85888985D01*
X147975503Y-85805417D01*
X147956755Y-85673677D01*
X147905463Y-85560886D01*
X147827994Y-85469320D01*
X147730716Y-85401257D01*
X147619997Y-85358974D01*
X147502205Y-85344747D01*
X147383707Y-85360855D01*
X147270870Y-85409574D01*
X147170063Y-85493182D01*
X147154060Y-85511659D01*
X147084863Y-85626511D01*
X147056183Y-85752310D01*
X146330517Y-85752310D01*
X146337451Y-85691870D01*
X146388046Y-85490157D01*
X146466614Y-85307883D01*
X146576913Y-85136238D01*
X146715105Y-84974364D01*
X146789092Y-84893138D01*
X146855922Y-84813717D01*
X146907654Y-84745900D01*
X146934193Y-84703980D01*
X146950647Y-84664212D01*
X146978052Y-84589294D01*
X147014633Y-84484453D01*
X147058612Y-84354913D01*
X147108215Y-84205899D01*
X147161665Y-84042637D01*
X147211198Y-83889063D01*
X147306412Y-83592881D01*
X147389716Y-83336192D01*
X147461459Y-83117969D01*
X147521991Y-82937185D01*
X147571661Y-82792813D01*
X147610820Y-82683828D01*
X147639817Y-82609201D01*
X147659002Y-82567908D01*
X147663647Y-82560916D01*
X147690800Y-82545467D01*
X147702539Y-82550145D01*
G04 #@! TD*
D11*
G04 #@! TO.P,X1,5*
G04 #@! TO.N,Net-(X1-Pad5)*
X159180200Y-112098400D03*
G04 #@! TO.P,X1,6*
G04 #@! TO.N,Net-(X1-Pad6)*
X159180200Y-114638400D03*
D12*
G04 #@! TO.P,X1,3*
G04 #@! TO.N,Net-(X1-Pad3)*
X156640200Y-112098400D03*
G04 #@! TO.P,X1,4*
G04 #@! TO.N,Net-(X1-Pad4)*
X156640200Y-114638400D03*
G04 #@! TO.P,X1,1*
G04 #@! TO.N,VCC*
X154100200Y-112098400D03*
D13*
G04 #@! TO.P,X1,2*
G04 #@! TO.N,GND*
X154100200Y-114638400D03*
G04 #@! TD*
D14*
G04 #@! TO.P,D1,1*
G04 #@! TO.N,GND*
X147550000Y-83740000D03*
D15*
G04 #@! TO.P,D1,2*
G04 #@! TO.N,VCC*
X147550000Y-81200000D03*
G04 #@! TD*
D16*
G04 #@! TO.N,GND*
X152088400Y-114638400D02*
X154100200Y-114638400D01*
X147550000Y-83740000D02*
X147550000Y-84950000D01*
X147550000Y-84950000D02*
X148250000Y-85650000D01*
G04 #@! TD*
M02*
