M48
; DRILL file {KiCad (5.1.10)-1} date 09/01/21 23:06:17
; FORMAT={-:-/ absolute / inch / decimal}
; #@! TF.CreationDate,2021-09-01T23:06:17-05:00
; #@! TF.GenerationSoftware,Kicad,Pcbnew,(5.1.10)-1
; #@! TF.FileFunction,Plated,1,2,PTH
FMAT,2
INCH
T1C0.0157
T2C0.0394
T3C0.0400
%
G90
G05
T1
X3.3672Y-2.836
X3.4806Y-3.2642
X3.5348Y-2.485
X3.5649Y-3.4074
X3.6533Y-2.5034
X3.7871Y-2.6671
X3.8819Y-3.4264
X3.8876Y-2.4613
X3.9719Y-2.2121
X4.0869Y-2.1708
X4.0962Y-3.8405
X4.1291Y-3.752
X4.2706Y-3.6775
X4.4195Y-2.2042
X4.445Y-3.843
X4.5032Y-3.589
X4.6433Y-3.3632
X4.7521Y-3.6888
X4.8144Y-2.664
X4.8776Y-2.9545
X4.8836Y-3.3097
X4.8918Y-3.5559
X4.9416Y-2.7571
X5.039Y-3.1277
T2
X3.4691Y-2.7776
X3.5197Y-3.4992
X3.628Y-2.7617
X3.6565Y-3.177
X3.7536Y-2.3231
X3.8009Y-3.4041
X4.0517Y-2.4579
X4.1849Y-3.8117
X4.1921Y-2.152
X4.3141Y-3.4969
X4.374Y-2.5173
X4.507Y-2.203
X4.5888Y-3.4967
X4.7973Y-3.2654
X5.0666Y-2.9874
T3
X3.6936Y-3.5793
X3.6936Y-3.6793
X3.7936Y-3.5793
X3.7936Y-3.6793
X3.8936Y-3.5793
X3.8936Y-3.6793
T0
M30
