G04 #@! TF.GenerationSoftware,KiCad,Pcbnew,(5.1.10)-1*
G04 #@! TF.CreationDate,2021-09-01T23:23:54-05:00*
G04 #@! TF.ProjectId,Bsides-KC-2021-SAO-Organizer,42736964-6573-42d4-9b43-2d323032312d,rev?*
G04 #@! TF.SameCoordinates,Original*
G04 #@! TF.FileFunction,Soldermask,Bot*
G04 #@! TF.FilePolarity,Negative*
%FSLAX46Y46*%
G04 Gerber Fmt 4.6, Leading zero omitted, Abs format (unit mm)*
G04 Created by KiCad (PCBNEW (5.1.10)-1) date 2021-09-01 23:23:54*
%MOMM*%
%LPD*%
G01*
G04 APERTURE LIST*
%ADD10C,0.100000*%
%ADD11C,0.120000*%
%ADD12R,0.700000X0.500000*%
%ADD13C,2.127200*%
%ADD14O,2.127200X2.127200*%
G04 APERTURE END LIST*
D10*
G04 #@! TO.C,D2*
G36*
X111392940Y-70858380D02*
G01*
X111392940Y-72763380D01*
X113780540Y-72788780D01*
X113780540Y-70858380D01*
X111392940Y-70858380D01*
G37*
X111392940Y-70858380D02*
X111392940Y-72763380D01*
X113780540Y-72788780D01*
X113780540Y-70858380D01*
X111392940Y-70858380D01*
G36*
X111392940Y-75506580D02*
G01*
X111392940Y-77360780D01*
X113729740Y-77360780D01*
X113729740Y-75506580D01*
X111392940Y-75506580D01*
G37*
X111392940Y-75506580D02*
X111392940Y-77360780D01*
X113729740Y-77360780D01*
X113729740Y-75506580D01*
X111392940Y-75506580D01*
D11*
X113638971Y-74134980D02*
G75*
G03*
X113638971Y-74134980I-1077631J0D01*
G01*
D10*
G36*
X113577340Y-73753980D02*
G01*
X113450340Y-73499980D01*
X113196340Y-73245980D01*
X112942340Y-73118980D01*
X112561340Y-73057350D01*
X112180340Y-73118980D01*
X111799340Y-73372980D01*
X111672340Y-73626980D01*
X111483710Y-74134980D01*
X111545340Y-74515980D01*
X111799340Y-74896980D01*
X112180340Y-75150980D01*
X112561340Y-75212610D01*
X112942340Y-75150980D01*
X113323340Y-74896980D01*
X113577340Y-74515980D01*
X113638970Y-74134980D01*
X113577340Y-73753980D01*
G37*
X113577340Y-73753980D02*
X113450340Y-73499980D01*
X113196340Y-73245980D01*
X112942340Y-73118980D01*
X112561340Y-73057350D01*
X112180340Y-73118980D01*
X111799340Y-73372980D01*
X111672340Y-73626980D01*
X111483710Y-74134980D01*
X111545340Y-74515980D01*
X111799340Y-74896980D01*
X112180340Y-75150980D01*
X112561340Y-75212610D01*
X112942340Y-75150980D01*
X113323340Y-74896980D01*
X113577340Y-74515980D01*
X113638970Y-74134980D01*
X113577340Y-73753980D01*
G04 #@! TO.C,D1*
G36*
X102471220Y-70657720D02*
G01*
X102471220Y-72562720D01*
X104858820Y-72588120D01*
X104858820Y-70657720D01*
X102471220Y-70657720D01*
G37*
X102471220Y-70657720D02*
X102471220Y-72562720D01*
X104858820Y-72588120D01*
X104858820Y-70657720D01*
X102471220Y-70657720D01*
G36*
X102471220Y-75305920D02*
G01*
X102471220Y-77160120D01*
X104808020Y-77160120D01*
X104808020Y-75305920D01*
X102471220Y-75305920D01*
G37*
X102471220Y-75305920D02*
X102471220Y-77160120D01*
X104808020Y-77160120D01*
X104808020Y-75305920D01*
X102471220Y-75305920D01*
D11*
X104717251Y-73934320D02*
G75*
G03*
X104717251Y-73934320I-1077631J0D01*
G01*
D10*
G36*
X104655620Y-73553320D02*
G01*
X104528620Y-73299320D01*
X104274620Y-73045320D01*
X104020620Y-72918320D01*
X103639620Y-72856690D01*
X103258620Y-72918320D01*
X102877620Y-73172320D01*
X102750620Y-73426320D01*
X102561990Y-73934320D01*
X102623620Y-74315320D01*
X102877620Y-74696320D01*
X103258620Y-74950320D01*
X103639620Y-75011950D01*
X104020620Y-74950320D01*
X104401620Y-74696320D01*
X104655620Y-74315320D01*
X104717250Y-73934320D01*
X104655620Y-73553320D01*
G37*
X104655620Y-73553320D02*
X104528620Y-73299320D01*
X104274620Y-73045320D01*
X104020620Y-72918320D01*
X103639620Y-72856690D01*
X103258620Y-72918320D01*
X102877620Y-73172320D01*
X102750620Y-73426320D01*
X102561990Y-73934320D01*
X102623620Y-74315320D01*
X102877620Y-74696320D01*
X103258620Y-74950320D01*
X103639620Y-75011950D01*
X104020620Y-74950320D01*
X104401620Y-74696320D01*
X104655620Y-74315320D01*
X104717250Y-73934320D01*
X104655620Y-73553320D01*
G04 #@! TD*
D12*
G04 #@! TO.C,D2*
X112936340Y-72584980D03*
X112186340Y-75684980D03*
G04 #@! TD*
G04 #@! TO.C,D1*
X104014620Y-72384320D03*
X103264620Y-75484320D03*
G04 #@! TD*
D13*
G04 #@! TO.C,X1*
X98896480Y-90913900D03*
X98896480Y-93453900D03*
D14*
X96356480Y-90913900D03*
X96356480Y-93453900D03*
X93816480Y-90913900D03*
G36*
G01*
X92952880Y-92390300D02*
X94680080Y-92390300D01*
G75*
G02*
X94880080Y-92590300I0J-200000D01*
G01*
X94880080Y-94317500D01*
G75*
G02*
X94680080Y-94517500I-200000J0D01*
G01*
X92952880Y-94517500D01*
G75*
G02*
X92752880Y-94317500I0J200000D01*
G01*
X92752880Y-92590300D01*
G75*
G02*
X92952880Y-92390300I200000J0D01*
G01*
G37*
G04 #@! TD*
M02*
