G04 #@! TF.GenerationSoftware,KiCad,Pcbnew,(5.1.10)-1*
G04 #@! TF.CreationDate,2021-09-01T22:57:21-05:00*
G04 #@! TF.ProjectId,Bsides-KC-2021-SAO-BP,42736964-6573-42d4-9b43-2d323032312d,rev?*
G04 #@! TF.SameCoordinates,Original*
G04 #@! TF.FileFunction,Soldermask,Bot*
G04 #@! TF.FilePolarity,Negative*
%FSLAX46Y46*%
G04 Gerber Fmt 4.6, Leading zero omitted, Abs format (unit mm)*
G04 Created by KiCad (PCBNEW (5.1.10)-1) date 2021-09-01 22:57:21*
%MOMM*%
%LPD*%
G01*
G04 APERTURE LIST*
%ADD10C,0.100000*%
%ADD11C,0.120000*%
%ADD12R,0.700000X0.500000*%
%ADD13C,2.127200*%
%ADD14O,2.127200X2.127200*%
G04 APERTURE END LIST*
D10*
G04 #@! TO.C,D1*
G36*
X101116000Y-75619000D02*
G01*
X100989000Y-75365000D01*
X100735000Y-75111000D01*
X100481000Y-74984000D01*
X100100000Y-74922370D01*
X99719000Y-74984000D01*
X99338000Y-75238000D01*
X99211000Y-75492000D01*
X99022370Y-76000000D01*
X99084000Y-76381000D01*
X99338000Y-76762000D01*
X99719000Y-77016000D01*
X100100000Y-77077630D01*
X100481000Y-77016000D01*
X100862000Y-76762000D01*
X101116000Y-76381000D01*
X101177630Y-76000000D01*
X101116000Y-75619000D01*
G37*
X101116000Y-75619000D02*
X100989000Y-75365000D01*
X100735000Y-75111000D01*
X100481000Y-74984000D01*
X100100000Y-74922370D01*
X99719000Y-74984000D01*
X99338000Y-75238000D01*
X99211000Y-75492000D01*
X99022370Y-76000000D01*
X99084000Y-76381000D01*
X99338000Y-76762000D01*
X99719000Y-77016000D01*
X100100000Y-77077630D01*
X100481000Y-77016000D01*
X100862000Y-76762000D01*
X101116000Y-76381000D01*
X101177630Y-76000000D01*
X101116000Y-75619000D01*
D11*
X101177631Y-76000000D02*
G75*
G03*
X101177631Y-76000000I-1077631J0D01*
G01*
D10*
G36*
X98931600Y-77371600D02*
G01*
X98931600Y-79225800D01*
X101268400Y-79225800D01*
X101268400Y-77371600D01*
X98931600Y-77371600D01*
G37*
X98931600Y-77371600D02*
X98931600Y-79225800D01*
X101268400Y-79225800D01*
X101268400Y-77371600D01*
X98931600Y-77371600D01*
G36*
X98931600Y-72723400D02*
G01*
X98931600Y-74628400D01*
X101319200Y-74653800D01*
X101319200Y-72723400D01*
X98931600Y-72723400D01*
G37*
X98931600Y-72723400D02*
X98931600Y-74628400D01*
X101319200Y-74653800D01*
X101319200Y-72723400D01*
X98931600Y-72723400D01*
G04 #@! TD*
D12*
G04 #@! TO.C,D1*
X100475000Y-74450000D03*
X99725000Y-77550000D03*
G04 #@! TD*
D13*
G04 #@! TO.C,X1*
X98896480Y-90913900D03*
X98896480Y-93453900D03*
D14*
X96356480Y-90913900D03*
X96356480Y-93453900D03*
X93816480Y-90913900D03*
G36*
G01*
X92952880Y-92390300D02*
X94680080Y-92390300D01*
G75*
G02*
X94880080Y-92590300I0J-200000D01*
G01*
X94880080Y-94317500D01*
G75*
G02*
X94680080Y-94517500I-200000J0D01*
G01*
X92952880Y-94517500D01*
G75*
G02*
X92752880Y-94317500I0J200000D01*
G01*
X92752880Y-92590300D01*
G75*
G02*
X92952880Y-92390300I200000J0D01*
G01*
G37*
G04 #@! TD*
M02*
